<?xml version="1.0" encoding="utf-8"?><!DOCTYPE svg  PUBLIC '-//W3C//DTD SVG 1.1//EN'  'http://www.w3.org/Graphics/SVG/1.1/DTD/svg11.dtd'>
<svg enable_background="new 0 0 1000 791" height="791px" pretty_print="False" style="stroke-linejoin: round; stroke:#000; fill: none;" version="1.1" viewBox="0 0 1000 791" width="1000px" xmlns="http://www.w3.org/2000/svg" xmlns:xlink="http://www.w3.org/1999/xlink">
    <defs>
        <style type="text/css">
            <![CDATA[path { fill-rule: evenodd; }]]>
        </style>
    </defs>
    <metadata>
        <views>
            <view h="791.882008368" padding="0" w="1000">
                <proj flip="auto" id="robinson" lon0="65.3071127485"/>
                <bbox h="1457.87" w="1843.35" x="244.33" y="-1284.15"/>
            </view>
        </views>
    </metadata>
    <g class="" id="states">
        <path d="M330.115657,371.783237L329.369703,383.241403L328.593009,389.885959L332.165984,391.230375L329.865528,396.208797L333.721599,403.448237L335.366569,409.194639L341.447533,410.719617L343.108352,416.541709L337.510766,424.747777L351.189897,429.376445L358.689203,428.018552L363.495401,429.174704L364.723948,427.187283L370.233026,427.983649L379.599797,424.215995L378.461114,416.514128L381.763523,411.394389L387.477999,411.410282L387.814058,408.879281L393.432026,407.699552L396.436374,408.542168L398.908758,405.997135L397.343087,400.557534L399.399632,395.080394L403.739117,392.780118L399.391683,386.751510L406.682428,387.036921L408.007114,383.746478L406.864376,380.226137L409.714170,376.365282L407.742032,371.778703L405.001512,367.860757L408.392710,363.828986L415.966006,361.883605L424.303187,360.807747L427.665327,359.097680L431.752386,358.058960L429.698227,355.403270L421.971925,355.388689L416.633627,354.707077L413.056066,358.850303L409.964011,359.769515L407.845886,361.715382L404.101297,358.682839L402.773683,350.913758L400.397304,350.475432L400.455250,347.657554L395.854386,345.565237L393.500601,348.767923L393.684670,352.489367L392.883079,353.847437L388.361306,353.655387L387.012120,357.891281L384.042662,356.103220L379.349502,359.076626L376.783111,357.948210L370.655568,355.993962L366.467449,355.932521L364.142406,355.645652L360.015803,353.173187L359.630948,356.465210L353.734068,358.255349L353.925449,365.661036L350.307925,368.475283L344.663371,369.869675L343.985065,374.053905L338.547877,375.283427L330.115657,371.783237Z " data-name="af"/>
        <path d="M271.678351,475.486851L272.169095,477.588916L275.977551,486.794219L299.954673,491.374618L301.366465,489.454415L301.242063,485.796323L303.176777,482.035875L302.843983,478.321569L306.210034,476.531689L304.699059,475.267731L304.734042,469.347384L308.718280,469.311908L306.870705,462.128348L305.033610,459.027920L300.738252,464.633792L295.529430,470.465187L290.780584,476.611535L286.029851,476.342876L279.538665,476.105447L273.547030,477.537958L273.029083,475.045320L271.678351,475.486851Z " data-name="ae"/>
        <path d="M188.775284,321.981135L190.625090,325.117665L190.730695,329.478173L196.639944,331.717324L200.041803,334.358811L201.537388,334.114072L204.178980,336.549683L207.451817,336.529236L207.675608,337.933970L211.665677,343.224231L214.311899,342.954562L212.982432,336.618786L209.375285,335.129717L205.768703,332.665909L207.304663,329.793747L202.774804,326.715504L203.817019,324.474118L200.707323,322.931465L198.719924,320.595028L188.775284,321.981135Z " data-name="am"/>
        <path d="M201.537388,334.114072L200.041803,334.358811L201.840590,337.787745L206.345694,342.005656L211.665677,343.224231L207.675608,337.933970L207.451817,336.529236L204.178980,336.549683L201.537388,334.114072Z M216.414907,320.847188L210.234798,315.468475L208.112918,315.172319L206.467841,316.390304L211.080041,321.185278L210.292448,322.227517L206.220404,321.698993L200.227653,319.146140L198.719924,320.595028L200.707323,322.931465L203.817019,324.474118L202.774804,326.715504L207.304663,329.793747L205.768703,332.665909L209.375285,335.129717L212.982432,336.618786L214.311899,342.954562L221.816253,336.216726L224.466231,335.545438L227.175512,338.216142L225.471172,342.739924L231.008005,347.551900L232.779339,347.092741L231.726823,342.543098L234.042812,340.403341L234.693602,337.207376L234.552399,330.175074L240.485037,329.451224L237.694512,327.032010L234.168589,326.613273L229.059164,320.291802L224.175739,315.629819L220.574075,319.196070L219.794495,321.454152L216.414907,320.847188Z " data-name="az"/>
        <path d="M596.168368,495.513998L589.871224,481.103306L587.713447,481.131950L587.323451,486.938584L582.315779,482.229803L583.917506,477.057961L587.332541,476.532863L589.639674,468.839436L584.865144,467.286790L577.649221,467.421662L570.004884,466.174405L568.183403,459.850040L564.381500,459.401376L557.482784,455.470853L555.861675,461.642093L562.334152,466.456854L558.024704,469.845213L556.830336,473.158357L562.031376,475.593944L561.546280,481.070200L565.271991,487.902640L567.553007,495.382572L570.705132,496.195767L573.067529,497.186372L573.979478,495.533008L577.579732,497.374823L579.330626,492.320720L578.073594,488.576078L585.352045,488.939434L589.402602,494.226947L591.521799,498.599154L592.623945,503.225539L595.527386,507.960295L593.996981,500.652579L596.934977,502.028004L596.168368,495.513998Z " data-name="bd"/>
        <path d="M783.720456,654.640096L787.582490,659.348439L789.129351,656.253286L792.973622,656.541087L793.166933,650.739282L793.302910,646.264847L786.733664,651.240939L783.720456,654.640096Z " data-name="bn"/>
        <path d="M579.402763,443.420909L575.480940,440.977614L571.338608,440.756471L565.345027,438.653580L561.658708,440.958129L557.926012,447.715425L558.455791,449.537138L566.199007,452.988943L570.808382,451.567259L577.493294,452.177280L583.783410,451.907515L583.177798,446.321708L579.402763,443.420909Z " data-name="bt"/>
        <path d="M739.964878,526.059156L740.946364,520.813019L743.761086,516.815655L741.430670,513.349505L736.863957,513.134061L728.664105,515.679230L725.437279,519.795523L726.905035,527.610059L733.828957,530.426258L739.964878,526.059156Z M758.921204,245.370369L750.186821,236.745474L743.819140,231.365300L738.425025,227.606779L727.486395,218.835659L719.025244,215.645483L706.854149,213.070613L698.036635,213.304603L690.782510,214.863692L688.376680,219.173142L693.646601,221.235939L697.237521,226.038830L695.420061,228.834413L695.638371,238.123290L698.302666,241.994930L692.116674,247.573687L681.595945,244.237967L682.410321,250.905645L682.844474,259.773411L686.822952,263.407051L690.155276,262.279352L697.957532,263.663379L701.406947,260.383453L708.804259,263.224684L718.983388,269.438087L720.096190,272.595403L713.885689,271.594068L704.242880,272.772556L700.697692,275.298556L698.824347,281.157212L689.827805,284.583071L685.270588,289.265149L676.889412,287.479071L672.406386,286.681620L671.713271,292.356544L675.845187,295.731405L678.578042,298.627558L675.078205,301.577457L672.332251,306.277692L665.406652,309.368721L654.637274,309.702278L644.349844,312.758580L638.104655,317.499255L633.553601,314.751491L624.697723,314.759245L611.350586,309.408935L603.529531,308.099776L594.401173,309.322600L578.440816,307.352211L570.499697,307.556502L563.858977,302.344041L556.840162,294.255088L551.927643,293.280130L540.708506,287.797802L530.466085,286.566977L521.253815,285.057738L516.968471,281.223765L515.054331,270.859051L506.882356,263.700358L495.269098,260.362559L487.180338,255.651693L482.448151,249.465509L480.051378,250.193572L477.432161,256.098049L471.961988,256.927610L475.556215,265.839016L473.342008,269.856674L458.021479,266.931865L459.413825,282.816865L456.533845,284.784366L443.689783,288.308486L456.124060,303.564337L452.004430,305.848910L454.468665,310.859317L454.179407,312.850115L444.367971,317.633473L442.983470,321.152909L433.913585,322.209357L433.024679,327.912233L424.824426,326.710415L420.288794,328.464236L414.558084,332.720339L416.220782,334.839434L414.732017,336.918310L419.066835,345.385667L421.252025,344.460504L426.373776,346.553392L427.123783,350.136396L429.698227,355.403270L431.752386,358.058960L438.457761,362.376310L442.564841,369.488425L455.952235,373.223944L466.899913,383.993271L468.030980,391.436427L472.224475,396.089601L473.112559,400.722192L467.335547,399.503780L471.846299,409.485674L480.698254,415.213228L492.807512,421.539936L495.513516,419.374719L502.311394,422.157466L511.399948,428.060248L516.020413,429.361448L519.548253,433.719189L525.936222,435.508522L533.052664,439.497106L542.248199,441.580507L551.470440,442.468491L555.796588,440.557400L557.926012,447.715425L561.658708,440.958129L565.345027,438.653580L571.338608,440.756471L575.480940,440.977614L579.402763,443.420909L585.410119,442.283702L590.939839,435.527992L598.473405,429.749487L605.495899,431.978475L610.058049,428.159337L615.072976,433.800095L613.370424,437.612805L622.039168,438.970184L626.408600,438.294747L630.249047,443.643764L634.129530,445.810822L635.893198,452.769458L637.140683,460.271910L631.226060,467.866922L632.207059,478.650550L640.208468,477.142972L643.485371,485.508052L648.737102,487.267685L647.651008,494.813915L654.011952,498.223432L657.672817,499.895515L663.027984,497.251145L663.846202,501.006000L664.881732,503.139649L669.113370,503.387463L666.296927,492.998305L670.151298,491.667064L673.997908,489.450190L680.262189,489.495961L687.713314,488.447683L693.558078,483.606042L697.932459,487.014639L705.388842,488.673725L705.037936,493.906588L709.391935,497.597067L717.694179,499.954184L721.163755,498.475244L732.196767,501.383121L730.916428,504.896404L734.060271,511.488212L738.339407,510.956188L739.435892,501.364113L747.519251,499.971316L757.710616,495.421999L761.343137,490.907778L764.589925,493.856128L768.653385,489.820108L777.299744,488.777239L786.720067,481.130541L795.733304,472.742606L800.500633,461.890274L803.770165,449.953246L806.690072,440.113969L810.780388,439.297834L810.574228,432.102726L809.409695,424.718050L803.949721,421.907169L800.485774,417.080708L804.457758,414.610485L802.198670,407.890810L794.452334,400.934852L786.667039,392.614650L780.189623,383.641980L770.039595,378.603373L771.328326,372.155219L776.750442,367.517943L778.157199,362.519645L787.672513,359.933176L784.320286,355.084189L779.369489,354.837793L771.125219,351.240074L765.636278,357.842725L758.542624,355.139876L756.478993,350.991753L749.696975,349.477138L742.979560,343.256938L744.799165,338.986890L751.874111,338.548386L753.602266,332.683429L758.771281,326.430130L763.534827,323.278502L769.895462,327.961595L767.125629,334.021119L770.417832,337.559166L768.501046,341.791953L775.309713,339.295644L778.677836,335.041071L787.694102,332.408312L790.675326,326.641027L796.167163,321.846025L797.643661,315.561809L802.717791,318.333667L809.248242,318.655916L805.393345,313.993237L814.425682,310.199549L814.325030,305.275479L822.203266,310.463243L819.426225,305.998636L822.999003,305.761800L817.531467,295.394825L810.828655,287.864068L814.994360,284.747852L824.724264,286.311217L823.905898,277.704872L819.849064,267.976871L820.388693,264.723628L818.542097,256.728002L808.727754,259.346397L805.006328,262.852147L794.258073,262.841811L785.735469,254.495961L773.057730,248.196300L758.921204,245.370369Z " data-name="cn"/>
        <path d="M115.747777,376.486593L117.220732,376.966960L119.185998,376.181865L120.654799,376.277740L121.263115,376.841893L121.517708,377.771723L121.855472,377.419085L123.009491,377.610626L124.375848,376.913939L125.223123,377.236783L124.476343,375.512916L129.123483,371.584448L122.577693,374.338158L117.122873,374.213789L116.276767,376.436167L115.747777,376.486593Z " data-name="-99"/>
        <path d="M125.223123,377.236783L124.375848,376.913939L123.009491,377.610626L121.855472,377.419085L121.517708,377.771723L121.263115,376.841893L120.654799,376.277740L119.185998,376.181865L117.220732,376.966960L115.747777,376.486593L112.191888,376.825248L114.358207,380.514868L118.196143,381.704853L125.543670,377.976188L125.223123,377.236783Z " data-name="cy"/>
        <path d="M173.126963,318.045842L180.863364,317.625241L188.775284,321.981135L198.719924,320.595028L200.227653,319.146140L206.220404,321.698993L210.292448,322.227517L211.080041,321.185278L206.467841,316.390304L208.112918,315.172319L203.080932,313.127716L200.080826,309.515270L192.891335,307.676360L188.754933,309.056349L187.142058,307.423030L176.374850,303.213843L165.397813,301.793917L158.972941,300.294383L158.286402,301.330401L161.462355,304.018247L165.687069,305.027583L170.524769,308.263943L173.505901,314.269719L173.126963,318.045842Z " data-name="ge"/>
        <path d="M832.406599,788.788109L833.104847,786.336133L830.550005,783.576480L826.582328,780.809307L818.981958,782.595717L829.031597,788.961349L832.406599,788.788109Z M855.181863,789.882008L862.205316,787.883411L868.025497,781.098514L868.110537,778.344009L867.447671,776.552427L859.245087,780.161410L855.326891,785.703263L854.325617,788.791865L855.181863,789.882008Z M811.461505,769.310484L809.087850,772.523236L804.697397,772.594599L801.558270,777.825690L805.850557,777.897992L811.482713,776.678251L820.866427,774.853802L819.168821,770.991276L814.173010,771.733546L811.461505,769.310484Z M851.491061,769.297338L844.074636,772.626055L838.698069,773.317620L833.889275,770.594083L827.397816,772.482859L827.173783,775.804056L837.721199,776.923796L849.937850,774.344872L851.491061,769.297338Z M737.969771,757.335971L737.052983,754.104417L733.768416,753.411908L727.488023,749.861563L717.795219,749.324926L711.847382,758.005945L719.137315,758.673570L720.303138,762.580257L734.672047,766.321205L738.070429,765.185024L743.888222,766.085049L752.933765,769.555091L760.311196,771.186116L768.564643,771.858901L775.821046,771.611478L784.355059,775.271651L793.730376,771.810074L784.286915,766.410879L772.389485,764.754496L769.837697,758.865595L755.232226,754.496918L753.256779,758.241632L737.969771,757.335971Z M947.299162,752.218443L947.593882,747.886384L945.934323,745.228556L944.070002,748.299542L942.440997,751.564902L942.760848,758.404079L947.299162,752.218443Z M888.751367,727.185447L886.882338,724.189598L878.751095,724.625289L880.148633,728.532898L885.615801,730.201016L888.751367,727.185447Z M914.732860,723.866585L906.010381,721.217225L896.088718,721.594229L893.987224,726.589187L899.521524,726.909383L904.075118,726.309368L910.741118,727.069481L917.339823,730.814178L914.732860,723.866585Z M944.726400,706.223924L943.511650,702.847325L930.662231,699.116258L926.523210,702.077355L915.677249,704.278342L918.992834,708.773746L926.123333,710.451248L929.150768,715.860292L940.894551,715.878602L941.486013,718.288987L935.770710,718.112457L927.010936,721.384365L932.955625,725.847385L932.800985,729.794903L934.457720,733.126445L937.574818,732.325485L940.153955,727.910347L951.773372,736.305874L958.342502,737.065519L973.431842,744.759058L976.788431,752.386054L978.170143,762.265224L972.937940,764.787830L968.939280,772.181444L979.097109,771.902095L981.285091,769.313770L989.256041,771.141044L995.707959,778.597535L997.913520,748.989705L999.367794,719.381970L990.820216,717.645779L984.978331,714.395469L978.208022,711.228261L971.074575,711.235773L961.703175,716.718997L954.617863,726.355848L946.544020,720.917687L944.726400,706.223924Z M873.237163,682.859331L871.792573,680.829473L863.982135,687.426802L854.758649,687.807562L844.623804,686.546971L838.312007,683.864283L831.580319,690.612318L829.917288,694.357469L825.767159,708.052603L824.456185,715.265912L820.955813,721.215817L823.213171,727.439444L826.582612,727.506581L827.433859,736.273948L824.714259,744.636519L828.013052,747.303267L833.165853,745.984447L833.491713,732.986535L833.248725,722.393310L838.694461,719.631741L837.764013,728.485010L843.307961,733.812379L842.099506,737.319986L843.967310,739.834611L852.009511,736.317142L847.754379,743.755741L850.721408,746.950674L855.145701,744.279700L855.528357,738.311563L848.808080,727.825369L850.399691,724.705103L843.187947,713.061636L850.333559,709.539960L853.910520,704.216838L857.387625,705.536585L858.099063,701.352456L843.098522,704.444073L838.697101,708.559187L831.625172,700.480137L832.780862,693.603463L839.786216,692.295453L853.156716,691.841922L860.889620,693.618486L866.912117,691.871500L873.237163,682.859331Z M900.953132,685.470891L900.127748,681.760245L895.371873,680.963279L894.662394,676.002134L892.092227,679.308312L890.628657,686.567159L893.078555,698.181026L896.265090,703.935611L898.526023,702.845447L895.258500,698.049098L896.474886,692.520810L900.618638,693.410501L900.953132,685.470891Z M814.057998,679.154318L815.332676,674.974645L809.146955,666.373266L813.367142,658.168126L806.348133,656.636864L797.130954,656.632639L794.779079,666.965534L791.801637,670.125000L788.022511,682.760737L781.512234,684.697165L773.875580,682.151099L770.042344,682.947596L765.435840,687.541828L760.304421,686.887354L755.148956,688.734812L749.591115,683.601601L748.126071,677.529633L743.483110,683.567093L742.643913,691.985118L743.758836,699.933646L747.522081,707.705178L751.480027,710.230586L752.381103,722.415376L758.958314,723.463758L764.229527,722.964216L766.996926,727.361038L776.652295,724.093821L780.544159,727.004691L786.242142,727.518319L789.188718,733.071984L798.470861,728.984084L799.515057,732.215623L803.129043,718.322321L803.569356,709.274696L811.383155,703.060944L811.076975,694.827902L813.714165,688.633871L823.210284,687.562017L814.057998,679.154318Z M715.940360,748.929139L716.897833,734.875788L719.334195,723.575968L715.605067,717.825595L709.736241,717.022290L707.060545,711.952221L705.808951,705.614991L702.929439,705.382122L698.364405,702.227123L701.609171,694.809122L695.479730,690.658798L690.746451,683.051354L683.880572,676.827974L675.721012,676.685483L667.851547,666.919289L663.303862,663.139617L656.878150,656.979596L649.430012,648.094715L636.950871,646.339497L631.776494,645.973289L632.672782,650.597963L641.416043,660.609270L647.625017,665.697662L652.041040,673.471089L659.406376,679.191878L662.479408,686.284054L664.893852,694.095022L671.920469,701.667487L677.825846,714.386079L681.632389,721.195628L687.463216,728.594402L690.688006,734.101119L700.667053,741.524218L707.060889,749.119286L715.940360,748.929139Z " data-name="id"/>
        <path d="M455.952235,373.223944L450.650642,380.956125L442.546534,382.318230L430.498377,380.081509L427.746581,384.032034L432.349864,392.025517L436.433332,398.172766L443.628448,402.649427L438.279593,407.886601L439.795497,414.334942L434.194910,423.414707L431.117432,432.614766L424.704498,442.135545L415.587055,441.444805L408.561702,450.973941L414.270976,455.058402L416.177267,462.059018L421.201231,466.671391L423.784610,474.477655L406.573416,474.453933L402.092181,480.517496L412.168695,488.229385L414.883922,491.794041L411.468071,495.077474L422.912218,506.085254L428.575659,507.174136L439.437741,501.737713L441.891905,510.243465L443.047155,521.245840L446.636853,532.871392L451.677039,550.479003L460.032741,562.957841L461.882736,568.633050L464.733530,579.995593L469.576500,588.723596L472.651714,593.020783L476.270420,602.184166L480.653075,614.906467L488.631230,623.389757L491.720204,620.778425L494.109584,614.599654L501.264172,612.024022L498.668967,609.029612L501.905920,602.100363L506.012122,601.660456L505.020147,586.225465L507.739326,577.594142L506.690594,570.057762L503.953348,558.240597L505.640839,551.310079L509.297584,550.830449L516.098084,547.575402L519.807355,545.336198L519.354992,541.156917L526.561204,535.209529L531.825737,529.478595L539.348846,518.790013L549.921502,512.676420L553.433043,507.302503L552.084408,500.470237L561.522387,498.584604L566.884545,498.698893L567.553007,495.382572L565.271991,487.902640L561.546280,481.070200L562.031376,475.593944L556.830336,473.158357L558.024704,469.845213L562.334152,466.456854L555.861675,461.642093L557.482784,455.470853L564.381500,459.401376L568.183403,459.850040L570.004884,466.174405L577.649221,467.421662L584.865144,467.286790L589.639674,468.839436L587.332541,476.532863L583.917506,477.057961L582.315779,482.229803L587.323451,486.938584L587.713447,481.131950L589.871224,481.103306L596.168368,495.513998L599.729270,493.359273L598.326312,489.501829L599.629894,486.408069L598.441875,477.004184L604.897569,479.074624L607.120639,471.580328L606.726377,467.149801L609.590809,459.520534L608.313751,454.315298L617.051336,448.031165L622.959448,449.675291L621.085550,444.081506L623.424504,442.414017L622.039168,438.970184L613.370424,437.612805L615.072976,433.800095L610.058049,428.159337L605.495899,431.978475L598.473405,429.749487L590.939839,435.527992L585.410119,442.283702L579.402763,443.420909L583.177798,446.321708L583.783410,451.907515L577.493294,452.177280L570.808382,451.567259L566.199007,452.988943L558.455791,449.537138L557.926012,447.715425L555.796588,440.557400L551.470440,442.468491L551.671239,446.383486L553.832286,452.161300L553.623994,455.761098L547.170696,455.913155L537.416952,453.793115L531.247218,452.927139L525.895354,448.301101L515.026854,447.122729L503.930990,442.023783L495.753865,437.566813L487.573251,434.131468L488.813123,425.648121L492.807512,421.539936L480.698254,415.213228L471.846299,409.485674L467.335547,399.503780L473.112559,400.722192L472.224475,396.089601L468.030980,391.436427L466.899913,383.993271L455.952235,373.223944Z " data-name="in"/>
        <path d="M272.412825,357.449032L272.112392,359.614471L260.848650,362.064990L249.881873,360.468440L243.832002,355.823507L236.385316,353.896885L232.779339,347.092741L231.008005,347.551900L225.471172,342.739924L227.175512,338.216142L224.466231,335.545438L221.816253,336.216726L214.311899,342.954562L211.665677,343.224231L206.345694,342.005656L201.840590,337.787745L200.041803,334.358811L195.432510,336.946529L199.567155,347.451489L198.582047,350.306381L203.880764,357.712557L210.500832,368.756566L215.879269,371.530989L217.287879,376.917030L213.963994,380.088385L213.272976,387.229129L219.808115,395.881696L229.880712,400.854755L234.805574,407.736963L234.460268,414.289369L236.912908,414.286798L237.640969,419.105612L242.530517,423.864242L244.936699,420.330596L250.233888,423.330469L254.180693,421.863193L261.472654,433.949480L267.716088,442.567110L275.498199,445.155982L284.171182,452.143441L294.028732,455.160398L301.345135,450.758707L307.113388,449.133964L311.035779,450.745313L315.702203,461.898265L324.638301,463.080161L333.387177,465.170292L348.391228,467.916030L350.025035,457.349605L360.621367,452.651256L359.391986,448.463441L355.466656,446.991650L354.074045,438.987787L346.064900,434.995051L342.097094,429.515161L337.510766,424.747777L343.108352,416.541709L341.447533,410.719617L335.366569,409.194639L333.721599,403.448237L329.865528,396.208797L332.165984,391.230375L328.593009,389.885959L329.369703,383.241403L330.115657,371.783237L327.811705,363.998863L322.136977,363.667480L311.812440,355.468047L305.617070,354.456895L296.349731,349.774554L290.859783,348.924648L287.943901,350.642830L282.892388,350.375287L278.644226,355.658321L272.412825,357.449032Z " data-name="ir"/>
        <path d="M210.500832,368.756566L203.880990,357.712607L200.536696,359.276639L197.530036,356.918587L188.629266,355.724538L185.632730,357.162516L182.652338,362.940792L178.869639,365.228315L180.540926,371.984150L179.214278,383.101621L163.617685,392.596786L168.032067,403.646684L177.543079,406.100511L189.730461,412.433726L213.593041,430.643309L228.040295,431.367810L232.626198,422.666289L237.899754,423.420089L242.530517,423.864242L237.640969,419.105612L236.912908,414.286798L234.460268,414.289369L234.805574,407.736963L229.880712,400.854755L219.808115,395.881696L213.272976,387.229129L213.963994,380.088385L217.287879,376.917030L215.879269,371.530989L210.500832,368.756566Z " data-name="iq"/>
        <path d="M140.906059,398.678158L140.753265,398.616279L141.634500,397.236016L141.099193,393.517732L139.068990,393.637312L138.545724,395.229928L135.992980,395.213026L135.793029,395.307155L134.954088,397.605835L134.135079,404.444349L132.546965,408.674724L133.122366,409.187859L131.190490,412.168228L137.732802,427.719428L140.167550,413.247267L139.626226,409.728314L136.147168,410.955452L136.233285,408.573028L138.060415,407.328244L136.030101,406.312403L136.988853,400.280428L139.888721,401.535982L140.906059,398.678158Z " data-name="il"/>
        <path d="M139.888721,401.535982L140.479579,407.073365L139.626226,409.728314L140.167550,413.247267L137.732802,427.719428L138.110531,429.032015L146.836588,430.474563L149.910823,427.683825L151.439620,424.421257L157.194410,423.166984L158.150110,420.135339L160.533530,418.598521L151.908928,409.553464L166.735150,405.012144L168.032067,403.646684L163.617685,392.596786L149.817172,402.270439L140.906059,398.678158L139.888721,401.535982Z " data-name="jo"/>
        <path d="M890.348178,385.572236L883.909460,383.599894L882.463345,387.440647L877.687756,386.384640L875.805650,391.823767L877.548145,396.135121L883.589153,398.720114L883.396091,393.407308L886.400843,391.292711L890.768507,394.210912L892.687689,388.702066L890.348178,385.572236Z M925.186751,357.975239L920.120343,348.439762L921.961556,339.200575L917.940955,331.838177L906.336188,319.437744L899.546529,321.066828L899.880943,326.699312L907.057012,336.849413L908.477043,348.053122L906.092550,351.636604L899.732235,360.889105L892.561099,356.467362L892.525539,372.918257L883.589048,371.029972L869.813966,373.783181L867.053741,380.073921L861.478392,384.808967L859.918289,390.544535L853.881840,393.348334L859.504598,399.575011L865.392970,402.211211L866.691807,410.369247L871.732981,413.884820L875.248230,410.078704L874.174346,394.676106L863.645480,387.977679L872.466564,387.802775L879.589035,383.499167L891.880523,381.478696L895.213249,388.312344L901.846446,391.813185L908.042997,381.389406L921.105542,380.827225L928.764966,376.504194L929.602201,370.001760L926.037385,365.365622L925.186751,357.975239Z M908.409075,294.845428L900.810756,291.891420L885.969692,282.712211L888.611854,289.588828L894.813203,301.735438L887.381489,302.222770L888.251824,308.979116L894.891182,317.745753L902.964938,317.612664L900.668875,307.968089L916.127913,313.985032L916.672582,305.249396L925.809451,302.847275L917.301163,292.995466L914.801018,296.716930L908.409075,294.845428Z " data-name="jp"/>
        <path d="M386.801319,311.597389L387.159379,307.744011L391.539721,306.504586L404.565128,309.531856L403.903612,304.346123L407.390637,302.529236L419.059805,306.219156L421.359064,305.252344L433.513892,305.492318L444.657161,306.410650L449.488779,309.568893L454.468665,310.859317L452.004430,305.848910L456.124060,303.564337L443.689783,288.308486L456.533845,284.784366L459.413825,282.816865L458.021479,266.931865L473.342008,269.856674L475.556215,265.839016L471.961988,256.927610L477.432161,256.098049L480.051378,250.193572L473.782619,244.783984L465.354607,245.965886L460.622408,242.220335L454.948713,240.510920L449.180235,235.434265L444.599523,233.857164L435.731366,236.110120L423.832968,231.064144L422.289644,235.649089L396.467029,213.540637L384.572785,206.876638L385.708002,204.179878L372.698934,212.309931L366.421910,212.802727L364.791368,208.094181L354.756559,205.158835L348.680817,207.253021L342.466851,198.351803L329.602571,196.506565L325.187190,200.060381L309.767853,203.228331L307.377848,205.351716L283.346208,208.347056L281.387303,211.289996L288.564590,217.213127L282.869274,219.467211L285.028931,221.832552L279.998684,226.071024L293.312804,232.075852L293.056475,236.225288L283.198363,235.846947L282.074222,238.452515L271.678075,233.905602L260.777647,234.081711L254.626296,237.782341L245.304448,234.233390L228.207087,228.179097L217.530035,228.405019L206.023446,237.928063L206.910116,244.359514L198.384145,239.250244L195.348047,248.944913L197.848423,250.751124L195.454671,257.474636L202.903059,263.502140L208.090324,263.254083L214.064024,269.193077L214.453900,273.764416L218.422650,275.199805L224.613169,273.338612L231.859912,269.432347L238.463403,271.600954L245.468231,271.171252L248.188072,276.660932L249.154456,285.296384L242.544921,283.977200L236.802932,285.411586L238.138121,291.851898L230.916157,291.016741L231.858087,293.880218L236.393790,296.101289L241.596440,303.980155L250.766461,306.970915L252.910979,310.033170L252.006600,313.703373L252.933362,315.855557L255.459508,312.919794L263.303340,311.087184L268.864575,313.555049L275.724262,320.490883L279.385382,320.057919L270.528892,287.618118L287.550754,282.399813L289.110862,283.167336L302.085237,289.483975L308.967275,292.810212L318.227844,300.720936L326.348619,299.443764L338.569249,298.759479L349.266299,305.167745L351.438188,313.990046L355.022967,314.051810L358.691809,321.302828L368.128120,321.591263L371.402473,325.813545L374.132014,325.756722L375.422888,319.387342L383.140389,313.225881L386.801319,311.597389Z " data-name="kz"/>
        <path d="M386.801319,311.597389L389.256572,312.464437L384.955891,318.184482L391.429546,321.523738L395.958891,319.310599L406.174076,323.994717L398.727722,330.447500L392.840779,329.560885L390.957468,332.342705L382.466985,330.831578L383.257830,336.050191L391.095190,335.345990L401.105500,338.300957L414.732017,336.918310L416.220782,334.839434L414.558084,332.720339L420.288794,328.464236L424.824426,326.710415L433.024679,327.912233L433.913585,322.209357L442.983470,321.152909L444.367971,317.633473L454.179407,312.850115L454.468665,310.859317L449.488779,309.568893L444.657161,306.410650L433.513892,305.492318L421.359064,305.252344L419.059805,306.219156L407.390637,302.529236L403.903612,304.346123L404.565128,309.531856L391.539721,306.504586L387.159379,307.744011L386.801319,311.597389Z " data-name="kg"/>
        <path d="M694.599570,599.159514L701.390683,600.486041L707.998521,596.826885L716.321415,596.168200L712.327837,590.664445L725.061014,583.672631L724.883079,572.785563L722.335072,566.726382L714.882078,563.381579L712.026564,569.646007L705.048213,566.083389L697.440099,564.779321L687.360049,566.514868L683.097796,574.069172L686.081805,585.040951L690.959365,594.425243L694.599570,599.159514Z " data-name="kh"/>
        <path d="M824.054550,344.407825L824.072301,346.631140L821.192375,347.237369L816.136203,347.683256L815.201538,351.846357L811.711234,351.517540L811.634246,352.355209L820.395504,360.272947L815.518170,361.832875L823.063305,371.464879L824.608603,378.376382L827.545972,383.370055L834.049146,382.586118L838.494191,378.782368L844.586582,377.016174L845.223776,371.948837L840.378878,361.289200L835.738244,355.288540L824.054550,344.407825Z " data-name="kr"/>
        <path d="M237.899754,423.420089L232.626198,422.666289L228.040295,431.367810L235.030844,432.243392L237.471331,436.568203L242.916614,436.332651L239.591620,429.487745L240.020719,427.418918L237.899754,423.420089Z " data-name="kw"/>
        <path d="M705.048213,566.083389L712.026564,569.646007L714.882078,563.381579L722.335072,566.726382L722.643050,557.643124L719.781387,551.225093L712.893007,544.903524L706.735722,536.898599L698.546816,526.162908L688.257025,520.728520L690.020310,517.462971L694.693651,515.083332L690.409796,507.162403L680.706752,507.091297L675.889468,498.839231L670.151298,491.667064L666.296927,492.998305L669.113370,503.387463L664.881732,503.139649L663.846202,501.006000L658.049023,506.913649L656.870340,510.258484L660.698181,513.061542L661.961895,518.519627L667.354845,518.935300L666.824130,528.507233L668.180953,536.651634L675.741140,531.231202L678.342641,532.833128L682.937095,532.570442L684.064177,529.409346L690.135894,530.033295L697.241985,537.411545L699.015864,546.379265L706.515516,554.298191L707.143123,561.988288L705.048213,566.083389Z " data-name="la"/>
        <path d="M141.099193,393.517732L142.393145,388.532664L146.128833,385.091936L144.457609,381.502616L140.993425,381.035260L140.888939,381.354825L137.867973,387.798061L135.992980,395.213026L138.545724,395.229928L139.068990,393.637312L141.099193,393.517732Z " data-name="lb"/>
        <path d="M522.807569,627.409817L518.481006,617.950661L514.420689,611.552653L508.614374,606.504466L505.773681,621.251910L507.773521,634.310957L511.869908,641.534654L518.755565,639.456185L522.010201,636.870190L522.807569,627.409817Z " data-name="lk"/>
        <path d="M652.669467,512.358890L656.870340,510.258484L658.049023,506.913649L663.846202,501.006000L663.027984,497.251145L657.672817,499.895515L654.011952,498.223432L647.651008,494.813915L648.737102,487.267685L643.485371,485.508052L640.208468,477.142972L632.207059,478.650550L631.226060,467.866922L637.140683,460.271910L635.893198,452.769458L634.129530,445.810822L630.249047,443.643764L626.408600,438.294747L622.039168,438.970184L623.424504,442.414017L621.085550,444.081506L622.959448,449.675291L617.051336,448.031165L608.313751,454.315298L609.590809,459.520534L606.726377,467.149801L607.120639,471.580328L604.897569,479.074624L598.441875,477.004184L599.629894,486.408069L598.326312,489.501829L599.729270,493.359273L596.168368,495.513998L596.934977,502.028004L593.996981,500.652579L595.527386,507.960295L602.138574,515.369428L606.912012,516.533776L606.399141,519.808198L614.021253,530.282594L616.805658,538.789112L615.499985,550.049379L620.675029,552.179891L625.224870,552.989133L633.434280,546.512143L638.062187,541.955582L642.467507,549.480303L645.294153,560.958398L649.075770,571.832244L652.785498,576.539189L653.069883,586.436499L656.217712,591.812098L654.328014,598.771486L655.601660,605.515254L658.760731,596.179702L662.424909,587.710448L658.538998,579.424927L658.245451,575.204415L656.808806,570.132882L650.708990,562.914176L648.281944,558.356101L650.823492,556.677069L652.739455,548.778348L648.703881,542.781482L642.779161,536.147847L637.849159,528.175545L640.950019,526.525339L643.138768,516.704171L648.646895,516.297431L652.669467,512.358890Z " data-name="mm"/>
        <path d="M482.448151,249.465509L487.180338,255.651693L495.269098,260.362559L506.882356,263.700358L515.054331,270.859051L516.968471,281.223765L521.253815,285.057738L530.466085,286.566977L540.708506,287.797802L551.927643,293.280130L556.840162,294.255088L563.858977,302.344041L570.499697,307.556502L578.440816,307.352211L594.401173,309.322600L603.529531,308.099776L611.350586,309.408935L624.697723,314.759245L633.553601,314.751491L638.104655,317.499255L644.349844,312.758580L654.637274,309.702278L665.406652,309.368721L672.332251,306.277692L675.078205,301.577457L678.578042,298.627558L675.845187,295.731405L671.713271,292.356544L672.406386,286.681620L676.889412,287.479071L685.270588,289.265149L689.827805,284.583071L698.824347,281.157212L700.697692,275.298556L704.242880,272.772556L713.885689,271.594068L720.096190,272.595403L718.983388,269.438087L708.804259,263.224684L701.406947,260.383453L697.957532,263.663379L690.155276,262.279352L686.822952,263.407051L682.844474,259.773411L682.410321,250.905645L681.595945,244.237967L673.747143,244.973793L668.213267,242.018152L663.431897,241.066383L657.123792,247.285543L648.810819,248.750528L643.686364,250.945250L634.013337,249.503026L627.576671,249.595222L620.676107,245.075094L611.329176,240.837528L603.671260,239.678372L595.562171,240.828430L589.938848,242.461263L577.923301,238.759105L572.740803,232.187303L563.295923,229.940952L556.438066,228.917871L546.602401,225.313641L544.717332,234.366971L550.425832,239.534285L546.996703,245.672550L535.736023,243.453293L528.616189,243.135996L521.790854,239.023054L514.479922,238.893345L507.027890,236.198082L498.623543,240.331272L489.091354,247.931594L482.448151,249.465509Z " data-name="mn"/>
        <path d="M677.798027,639.385995L671.065261,635.407000L669.754810,637.027237L671.708653,640.878765L671.134351,647.493523L674.237745,652.446842L675.642280,659.970756L680.491931,666.047436L681.574735,670.676187L691.250844,677.887153L698.967540,684.617351L704.648667,684.011234L704.748584,680.939570L701.404368,672.905348L698.506839,670.401767L697.747905,665.024641L696.856110,661.900853L697.551212,657.767880L696.836707,651.649871L693.202232,645.567408L688.209540,640.082496L686.325799,639.233643L683.887807,642.966153L678.650623,644.051164L677.798027,639.385995Z M819.126563,655.073206L817.477906,650.636697L822.832467,650.186092L823.218441,646.627299L816.388043,643.893882L810.972700,641.360939L810.381837,637.411756L805.993042,632.815607L802.756245,632.845420L799.132543,639.946341L793.302910,646.264847L793.166933,650.739282L792.973622,656.541087L789.129351,656.253286L787.582490,659.348439L783.720456,654.640096L780.035954,660.385320L774.561118,667.572826L765.013721,669.539775L761.644904,671.253196L760.239626,678.945393L754.076406,680.643084L748.126071,677.529633L749.591115,683.601601L755.148956,688.734812L760.304421,686.887354L765.435840,687.541828L770.042344,682.947596L773.875580,682.151099L781.512234,684.697165L788.022511,682.760737L791.801637,670.125000L794.779079,666.965534L797.130954,656.632639L806.348133,656.636864L813.367142,658.168126L819.126563,655.073206Z " data-name="my"/>
        <path d="M551.470440,442.468491L542.248199,441.580507L533.052664,439.497106L525.936222,435.508522L519.548253,433.719189L516.020413,429.361448L511.399948,428.060248L502.311394,422.157466L495.513516,419.374719L492.807512,421.539936L488.813123,425.648121L487.573251,434.131468L495.753865,437.566813L503.930990,442.023783L515.026854,447.122729L525.895354,448.301101L531.247218,452.927139L537.416952,453.793115L547.170696,455.913155L553.623994,455.761098L553.832286,452.161300L551.671239,446.383486L551.470440,442.468491Z " data-name="np"/>
        <path d="M331.347070,503.935422L334.400612,501.030406L335.425229,498.481345L337.781477,493.068011L337.604064,491.041564L334.685297,489.890993L332.280295,486.873796L328.231348,481.665153L323.427885,480.008921L317.567173,478.821496L312.866753,475.521609L308.718280,469.311908L304.734042,469.347384L304.699059,475.267731L306.210034,476.531689L302.843983,478.321569L303.176777,482.035875L301.242063,485.796323L301.366465,489.454415L305.528936,495.888561L301.798356,514.053726L278.845892,523.137470L286.153584,538.130376L289.198672,544.478598L292.822988,543.964227L297.897197,540.899383L302.331955,541.756033L305.974134,539.233279L305.652044,535.563070L308.570908,533.275164L313.497426,533.348406L315.152141,531.430972L315.562459,527.005140L320.215356,523.609975L323.851373,523.639785L324.501836,522.523665L323.016251,516.451630L323.888881,511.846573L325.340803,509.680940L328.955392,510.157337L331.347070,503.935422Z M307.698837,460.478497L307.993657,456.720684L306.936973,455.931016L305.033610,459.027920L306.870705,462.128348L307.698837,460.478497Z " data-name="om"/>
        <path d="M431.752386,358.058960L427.665327,359.097680L424.303187,360.807747L415.966006,361.883605L408.392710,363.828986L405.001512,367.860757L407.742032,371.778703L409.714170,376.365282L406.864376,380.226137L408.007114,383.746478L406.682428,387.036921L399.391683,386.751510L403.739117,392.780118L399.399632,395.080394L397.343087,400.557534L398.908758,405.997135L396.436374,408.542168L393.432026,407.699552L387.814058,408.879281L387.477999,411.410282L381.763523,411.394389L378.461114,416.514128L379.599797,424.215995L370.233026,427.983649L364.723948,427.187283L363.495401,429.174704L358.689203,428.018552L351.189897,429.376445L337.510766,424.747777L342.097094,429.515161L346.064900,434.995051L354.074045,438.987787L355.466656,446.991650L359.391986,448.463441L360.621367,452.651256L350.025035,457.349605L348.391228,467.916030L359.232865,466.641314L371.892651,466.471893L386.050932,464.761161L392.963547,471.686035L396.084593,478.219422L402.092181,480.517496L406.573416,474.453933L423.784610,474.477655L421.201231,466.671391L416.177267,462.059018L414.270976,455.058402L408.561702,450.973941L415.587055,441.444805L424.704498,442.135545L431.117432,432.614766L434.194910,423.414707L439.795497,414.334942L438.279593,407.886601L443.628448,402.649427L436.433332,398.172766L432.349864,392.025517L427.746581,384.032034L430.498377,380.081509L442.546534,382.318230L450.650642,380.956125L455.952235,373.223944L442.564841,369.488425L438.457761,362.376310L431.752386,358.058960Z " data-name="pk"/>
        <path d="M879.054429,619.308907L878.227251,615.967521L877.174508,611.392322L870.318511,607.083580L871.396877,614.109504L865.765954,614.351058L864.784762,618.405366L858.893352,620.893216L855.750513,616.780448L851.652368,620.203528L846.800696,622.758990L844.188802,630.416475L845.686470,633.075708L851.275711,628.006547L855.065748,628.356322L857.316500,624.589083L862.686159,628.885680L860.532036,633.205525L863.191835,639.781313L872.925655,645.054011L874.973837,640.796133L872.000239,634.101796L875.436302,629.493444L878.963763,638.755225L881.152374,630.441358L880.322247,625.344737L879.054429,619.308907Z M858.465437,602.373603L858.372499,593.706933L853.326335,602.477125L854.021328,596.360688L849.672791,596.894491L849.332644,602.533697L847.560034,605.078396L846.128994,607.510345L851.579246,613.789780L853.867417,611.099829L855.870543,605.359619L858.465437,602.373603Z M815.459710,611.116966L819.129082,604.873144L823.950341,599.870547L821.807915,592.462802L818.490797,601.487686L814.243849,607.772555L808.924074,613.383670L805.480426,619.737790L815.459710,611.116966Z M840.230835,587.719603L841.925817,592.043319L841.828336,596.678059L842.515883,600.899656L847.325963,598.171486L850.637637,594.313741L850.396030,590.518670L845.320847,590.532050L840.230835,587.719603Z M868.811414,585.258089L866.218818,581.869092L858.541787,581.668855L864.208907,588.605990L864.685681,592.045666L859.913402,591.320783L861.732439,596.821251L864.183034,597.293082L865.132257,603.682762L868.739228,601.647310L866.232563,596.040970L865.750217,592.991675L872.158867,595.402238L868.811414,585.258089Z M836.158966,577.018778L832.989051,573.747096L826.127083,573.413518L831.030271,580.335739L834.961994,584.868650L836.158966,577.018778Z M827.005390,527.642922L822.218984,527.632359L821.057490,535.864965L822.551232,550.079429L818.887446,547.089434L820.517856,555.788014L822.282242,559.744685L826.936914,564.965248L827.509108,561.690849L830.175885,563.792169L828.007988,566.103343L828.102477,569.858927L832.322749,571.866517L839.377451,570.523743L845.139537,575.962650L846.765888,572.627577L850.308405,577.400945L857.055552,581.860406L857.377167,577.673486L854.506947,575.490807L854.624597,570.545105L844.005917,565.508004L840.635567,566.583182L836.282917,565.582186L833.477273,558.346006L833.617907,551.020846L837.817281,548.009486L838.662006,540.458499L834.848064,533.946084L835.478486,530.179306L834.353218,527.871088L832.331137,530.236818L827.005390,527.642922Z " data-name="ph"/>
        <path d="M822.203266,310.463243L814.325030,305.275479L814.425682,310.199549L805.393345,313.993237L809.248242,318.655916L802.717791,318.333667L797.643661,315.561809L796.167163,321.846025L790.675326,326.641027L787.694102,332.408312L792.429562,334.836387L797.257395,335.825705L798.494115,337.312306L799.048963,342.240008L800.524998,343.915575L799.286564,344.993614L799.162961,349.044943L801.857309,350.516445L804.185872,351.361982L805.253023,353.100114L807.090632,352.333010L807.184630,350.597760L811.634246,352.355209L811.711234,351.517540L815.201538,351.846357L816.136203,347.683256L821.192375,347.237369L824.072301,346.631140L824.054550,344.407825L817.837712,340.387985L814.132523,338.902942L814.487075,337.895586L812.688681,333.961422L814.618632,331.533117L818.745810,330.051348L820.079163,327.396830L820.513935,325.818165L823.214041,323.844968L819.262209,317.466561L819.676686,314.460079L821.063166,311.475452L824.159169,312.003767L822.203266,310.463243Z " data-name="kp"/>
        <path d="M139.888721,401.535982L136.988853,400.280428L136.030101,406.312403L138.060415,407.328244L136.233285,408.573028L136.147168,410.955452L139.626226,409.728314L140.479579,407.073365L139.888721,401.535982Z " data-name="ps"/>
        <path d="M265.232029,470.857504L267.763950,472.661333L269.869694,472.015369L271.046127,466.666221L270.365500,461.341501L267.707170,458.490181L265.683079,459.468828L264.071698,464.240163L265.232029,470.857504Z " data-name="qa"/>
        <path d="M863.487791,236.676982L853.248123,227.847491L846.007680,219.286998L836.212165,210.948375L829.266061,205.251495L827.371787,206.459422L833.679880,210.451679L830.966260,214.426351L840.645545,226.288744L851.849705,234.881038L860.934613,246.652530L864.424352,253.347115L872.306850,262.930696L877.729133,271.589478L884.294185,279.035936L884.122839,272.168321L893.325761,277.518847L889.103639,271.315867L875.597431,262.206778L870.303986,249.382698L882.929171,252.307820L863.487791,236.676982Z M21.430604,205.581290L20.570592,203.387478L20.940767,201.036593L17.776696,199.675259L10.550262,198.174074L1.679090,200.954354L0.632206,204.733819L9.056336,205.710425L21.430604,205.581290Z M99.235210,46.579123L97.658860,42.135895L80.295228,35.108867L64.878500,29.793862L76.463973,58.219445L78.455489,55.117048L74.644198,51.697972L80.562541,49.979501L80.437942,52.670575L84.450421,55.216127L90.382126,54.271104L96.507219,55.462990L99.058864,58.636161L107.386262,60.779454L112.743699,63.352383L118.113771,63.573646L119.705038,62.035957L116.666565,54.870702L125.408522,54.117176L129.363223,50.954514L115.328473,44.224560L100.070442,43.159918L103.736567,48.367910L99.235210,46.579123Z M896.025698,71.467710L887.420506,66.363850L885.430628,69.471714L890.398078,71.850750L896.025698,71.467710Z M65.496085,16.805522L69.955890,15.245192L69.932209,14.361514L61.962065,12.414513L57.371759,12.513911L56.856244,12.781336L59.013380,17.203452L65.496085,16.805522Z M663.751984,53.885610L660.275515,51.977218L648.345826,49.212615L642.465176,49.880351L641.394848,52.741938L642.913768,53.126146L655.426483,53.936530L663.751984,53.885610Z M681.618173,40.437331L664.979979,38.583019L653.185021,37.516924L655.695029,39.806695L670.326812,42.611366L680.038456,43.249026L681.618173,40.437331Z M645.591471,37.053050L620.112993,33.334314L605.579328,33.028288L600.687361,34.338683L605.443511,39.178487L623.238229,43.801775L629.648134,42.117609L649.922190,42.314702L645.591471,37.053050Z M197.217367,72.306256L183.092805,66.178901L178.657005,60.037757L183.422024,53.009036L187.345026,45.965845L199.695638,39.184047L213.646277,35.820993L229.812676,32.353407L231.602489,30.194912L225.691481,27.477144L216.204007,28.368500L209.191554,30.926908L192.543867,32.226481L178.079621,36.723694L168.459622,40.456121L171.916302,43.687478L162.513064,49.990463L168.069902,50.874306L160.456784,57.078548L162.719993,61.081645L157.773423,62.664506L160.572559,66.668419L171.832175,68.666086L175.000130,71.989462L194.185490,72.965408L197.217367,72.306256Z M428.932765,27.240955L415.716256,26.194312L420.639283,24.519094L408.857177,22.333980L400.153467,25.104711L398.774031,28.010649L400.943250,30.987723L391.094733,30.872623L383.459604,34.574515L377.335493,33.005697L364.101016,33.653314L364.404784,35.571169L351.279206,36.508258L344.393341,40.012636L338.389960,40.207666L336.581736,44.887008L344.489432,48.640935L333.443162,49.585428L319.951486,49.267291L311.627868,50.724913L318.520286,58.483981L328.357947,64.624609L314.679128,60.414075L303.342938,60.803765L296.092144,63.706115L302.545297,69.067723L295.495412,67.704779L292.543281,60.557951L286.571559,56.491876L283.919644,56.657787L289.064268,61.879696L282.506265,66.873678L294.096312,72.972876L294.590974,80.570002L298.761069,84.818579L305.551066,85.449510L306.118224,90.533753L312.375160,94.942440L309.580718,98.656052L310.396104,102.534805L305.034187,104.555392L304.341839,107.396795L296.777978,106.232736L301.741980,95.098579L301.018812,89.924032L291.559324,85.206589L286.100746,74.784638L280.743802,69.536071L275.598771,67.157926L276.777193,61.150764L272.682359,57.067146L256.578221,55.141335L253.448542,56.576725L254.293629,63.258618L248.155303,69.993869L249.811217,72.393184L256.475445,78.281859L256.729919,81.888654L264.177304,82.637693L265.323335,84.260086L273.698857,88.321553L272.169489,92.365610L245.842058,83.567621L236.444745,81.181197L218.071725,78.879329L216.414126,81.389966L224.879571,85.821621L220.898588,90.924626L211.827579,86.281354L204.741227,89.473292L193.839729,89.686504L190.876771,92.329260L183.193375,91.521454L186.791561,86.839807L182.203255,86.461434L164.683929,93.091912L153.870823,96.796890L154.423824,101.787905L145.848311,103.492476L140.115060,100.803254L138.409207,96.452732L145.536753,95.491060L140.436686,91.144634L123.045588,88.667138L129.179878,93.465669L128.013575,98.123337L134.708946,102.795121L133.186738,108.216262L126.582879,105.454790L120.882340,105.000195L109.414927,112.757832L115.396382,118.604874L110.865207,120.558819L94.571930,115.576174L91.583609,118.604874L96.283906,122.053766L96.630534,125.960546L91.211916,123.866710L82.611610,121.413489L79.928875,113.240249L78.500157,109.554365L67.077368,103.769011L71.195720,102.769415L99.802008,108.766909L108.961235,106.657775L114.232761,102.518145L112.046330,97.305938L106.224719,93.606267L81.151635,84.880204L64.642267,83.058479L53.771514,78.454673L48.551225,81.099507L39.484704,84.163912L34.958315,84.869803L35.441025,90.258435L45.767083,95.426239L41.741848,101.319067L50.921611,110.301228L48.480489,117.130501L55.418311,123.101671L54.145790,128.361654L64.666546,133.923037L63.316168,138.083094L58.582728,142.815613L47.297404,153.348396L54.822414,157.297273L48.474142,161.904286L49.739211,163.362977L46.093715,168.191077L49.546112,176.043797L47.250735,178.726313L50.784441,180.675809L52.128504,184.789830L55.206517,189.811971L62.610492,191.950812L63.969600,194.070816L67.263465,193.051075L74.188864,195.088968L75.661584,199.107405L74.691021,201.421020L80.039148,207.048358L83.104380,208.619563L83.011909,210.176644L87.887089,211.695262L90.312729,213.998735L88.051154,215.890584L82.502256,215.590224L81.350709,216.399020L83.509727,219.275791L86.264292,224.840706L88.893928,225.192733L90.240075,223.213422L92.406614,223.650314L99.339582,222.810127L104.733455,227.740879L103.373719,229.508074L104.489465,232.221667L110.079879,232.645405L113.312991,236.445810L113.510545,238.173464L122.959754,241.266377L128.002865,239.872482L133.165347,243.998551L137.217687,243.903253L148.122432,246.777288L148.768759,249.374920L146.908510,254.015674L149.482832,258.911339L148.981404,261.874692L142.274653,262.526368L139.116171,265.008448L139.655860,268.957015L145.747250,267.524505L146.318085,269.467492L136.531902,273.093704L141.180773,276.605724L136.619923,284.011500L131.651898,285.423136L138.803128,290.600040L147.649054,293.915487L158.286402,301.330401L158.972941,300.294383L165.397866,301.793992L176.374904,303.213913L187.141859,307.423014L188.755031,309.056471L192.891335,307.676360L200.080826,309.515270L203.080864,313.127751L208.112918,315.172319L210.234798,315.468475L216.414907,320.847188L219.794495,321.454152L220.574075,319.196070L224.175846,315.629726L213.890323,305.265006L213.265586,299.355297L204.793806,291.022330L209.837469,281.916030L216.435138,280.457325L218.422650,275.199805L214.453952,273.764365L214.064024,269.193077L208.090265,263.253930L202.903116,263.502117L195.454671,257.474636L197.848423,250.751124L195.348047,248.944913L198.384145,239.250244L206.910116,244.359514L206.023446,237.928063L217.530035,228.405019L228.207087,228.179097L245.304448,234.233390L254.626310,237.782399L260.777781,234.081722L271.678317,233.905720L282.074222,238.452515L283.198363,235.846947L293.056475,236.225288L293.312804,232.075852L279.998684,226.071024L285.028931,221.832552L282.869274,219.467211L288.564590,217.213127L281.387303,211.289996L283.346315,208.347181L307.377848,205.351716L309.767876,203.228477L325.187190,200.060381L329.602571,196.506565L342.466851,198.351803L348.680817,207.253021L354.756559,205.158835L364.791368,208.094181L366.421910,212.802727L372.698809,212.310027L385.708002,204.179878L384.572785,206.876638L396.467029,213.540637L422.289644,235.649089L423.832968,231.064144L435.731366,236.110120L444.599523,233.857164L449.180235,235.434265L454.948713,240.510920L460.622408,242.220335L465.354607,245.965886L473.782619,244.783984L480.051378,250.193572L482.448151,249.465509L489.091354,247.931594L498.623543,240.331272L507.027890,236.198082L514.479860,238.893347L521.790854,239.023054L528.616189,243.135996L535.735999,243.453350L546.996978,245.672644L550.425832,239.534285L544.717332,234.366971L546.602401,225.313641L556.438066,228.917871L563.295923,229.940952L572.740771,232.187395L577.923175,238.759111L589.938848,242.461263L595.562412,240.828513L603.671260,239.678372L611.329176,240.837528L620.676107,245.075094L627.576671,249.595222L634.013337,249.503026L643.686364,250.945250L648.810819,248.750528L657.123792,247.285543L663.431897,241.066383L668.213267,242.018152L673.747143,244.973793L681.595945,244.237967L692.116674,247.573687L698.302666,241.994930L695.638466,238.123182L695.420372,228.834556L697.237614,226.038876L693.646601,221.235939L688.376680,219.173142L690.782510,214.863692L698.036635,213.304603L706.853929,213.070651L719.025244,215.645483L727.486395,218.835659L738.425025,227.606779L743.819140,231.365300L750.186821,236.745474L758.921156,245.370374L773.057730,248.196300L785.735469,254.495961L794.257935,262.841832L805.006513,262.852232L808.727754,259.346397L818.542097,256.728002L820.388604,264.723538L819.848902,267.976758L823.905898,277.704872L824.724080,286.311009L814.994360,284.747852L810.828458,287.864008L817.531467,295.394825L822.999003,305.761800L819.426225,305.998636L822.203201,310.463326L824.159153,312.003831L823.517251,309.075988L829.297413,302.650124L836.547000,306.916529L841.069624,306.802527L847.482730,301.653109L848.797846,296.470186L851.785341,286.316215L854.539343,276.010651L852.688306,269.868277L854.186741,257.007890L846.662476,242.852983L838.848890,232.364499L836.924146,223.647665L830.293809,216.264177L812.080412,206.767518L804.183434,206.209223L803.660449,210.513233L795.414005,208.596456L787.359319,203.208720L775.817855,202.126375L782.893447,181.999784L787.846202,165.546133L806.533552,163.065783L827.784841,164.503643L831.362547,160.398849L842.742136,161.665523L848.828956,167.718387L857.913121,166.854705L869.946578,164.667118L858.921461,159.544562L858.950669,145.657228L871.924947,142.865437L889.199100,153.010928L894.390771,143.945468L889.817731,137.195991L896.554376,136.507446L905.838434,148.076496L902.346871,154.680018L901.309318,163.246374L901.654539,173.817596L893.579388,175.704882L897.528294,179.655803L897.391652,184.716826L906.531396,196.542679L929.400151,215.663612L944.375920,228.341858L952.454137,234.366491L954.840670,226.225521L948.379187,217.397802L956.437698,215.286146L948.790224,205.436845L955.966990,201.048900L949.268986,197.358834L944.433767,190.212085L950.250544,189.896264L937.384164,177.538117L927.791622,175.645113L923.697772,172.237561L922.106107,164.114253L917.706408,158.623592L927.655761,159.766142L929.541421,156.200033L936.196306,159.291438L944.872236,152.767941L961.154211,158.514820L958.804309,154.736630L961.618480,149.652834L963.816628,143.862369L968.165542,142.904935L977.466815,136.741780L991.560573,138.521243L990.210101,136.357863L984.834346,132.987899L978.926608,130.799812L965.937367,124.136787L954.372993,119.857333L963.142433,120.445318L965.963157,116.925330L965.944989,116.882327L918.978942,85.645505L905.550430,82.305432L883.150190,78.672467L871.844361,79.126668L850.150715,77.006701L852.735980,80.378708L864.799349,85.261961L861.209282,87.719515L840.953848,80.912240L831.215099,81.756069L818.075090,80.260976L808.096249,80.460303L802.579014,82.020885L792.341785,79.852096L785.047249,74.316508L775.724929,71.208879L762.562661,69.975616L741.575507,71.392564L718.584523,65.689797L707.449927,61.298584L650.137381,56.532508L647.172911,59.707510L660.476260,66.571198L649.843439,65.529415L648.395581,67.614843L634.473710,65.327368L627.378502,67.325905L614.075543,63.985265L618.302092,71.806851L605.649483,68.767766L591.367742,62.922244L590.818503,59.835918L582.239330,55.150740L568.302502,51.323450L559.552553,51.363202L546.229039,50.097258L552.920480,55.642984L528.382331,54.558417L522.895275,51.162518L503.775160,49.968534L496.337040,51.110693L496.120609,52.994465L487.842614,48.352438L484.515207,49.716590L474.266020,47.898426L466.302995,46.891977L467.890044,44.764943L477.288759,40.807904L480.576320,38.710680L477.116224,35.049842L469.354647,32.432763L452.909918,29.054983L437.401934,28.963045L434.761552,30.643308L428.932765,27.240955Z M407.194840,18.284073L405.090767,15.625670L387.239088,11.976344L382.885844,11.563058L379.705412,12.277215L381.528006,20.841516L407.194840,18.284073Z M120.900974,4.148140L122.162483,3.236261L113.950009,1.937371L109.988332,2.913348L108.120416,4.344696L106.034644,2.735045L98.604351,2.806825L89.669763,3.893054L100.775861,4.075249L99.167147,5.962649L105.487499,7.414655L110.641838,6.400594L110.667421,5.401550L114.812257,4.942327L120.900974,4.148140Z M336.723350,0.000000L327.892569,1.315967L320.308576,5.390069L328.595700,6.594342L338.027213,11.056266L349.443597,13.486626L365.942566,15.347554L375.995177,14.540599L369.653237,8.838822L350.253359,2.955023L336.723350,0.000000Z " data-name="ru"/>
        <path d="M207.484252,547.233111L210.798904,544.334687L209.761440,540.504512L211.591429,536.038450L214.986488,538.400819L217.082669,537.579632L226.205721,537.370932L227.714579,538.279449L235.426679,539.188205L238.432893,538.733709L240.608287,541.762371L244.207176,540.247917L249.237416,530.708187L256.327903,526.619938L278.845892,523.137470L301.798356,514.053726L305.528936,495.888561L301.366465,489.454415L299.954673,491.374618L275.977551,486.794219L272.169095,477.588916L271.678351,475.486851L269.869694,472.015369L267.763950,472.661333L265.232029,470.857504L263.851585,468.628452L262.522039,465.646388L260.026085,463.097552L258.729956,460.042056L259.190968,457.012581L258.318467,453.259426L252.602087,449.436813L250.914818,446.243488L246.862370,444.167225L242.916614,436.332651L237.471331,436.568203L235.030844,432.243392L228.040295,431.367810L213.593041,430.643309L189.730461,412.433726L177.543079,406.100511L168.032067,403.646684L166.735150,405.012144L151.908928,409.553464L160.533530,418.598521L158.150110,420.135339L157.194410,423.166984L151.439620,424.421257L149.910823,427.683825L146.836588,430.474563L138.110531,429.032015L137.478073,432.652045L137.411293,435.829434L136.628191,440.814690L140.482538,440.771026L144.953202,447.013496L150.268662,454.346554L153.823858,461.113060L156.250655,463.143849L158.759753,467.858699L158.477382,469.914283L161.403523,475.123293L165.755531,477.003010L169.661686,480.549428L174.803959,490.623307L174.800801,496.007782L176.088679,502.319938L181.813508,510.975901L185.415903,512.467550L191.244742,518.718192L193.916470,526.120891L198.583754,533.739268L202.863585,536.994850L203.686478,540.619311L206.234298,543.355716L207.484252,547.233111Z " data-name="sa"/>
        <path d="M163.617685,392.596786L179.214278,383.101621L180.540926,371.984150L178.869639,365.228315L182.652338,362.940792L185.632730,357.162516L177.321156,358.602219L173.257359,358.445527L165.117074,361.920217L158.941565,361.949172L154.708394,360.205471L146.783235,362.781666L144.090305,360.980514L144.348864,366.145855L142.588479,368.173176L140.822680,370.199037L139.441164,373.998859L140.993425,381.035260L144.457609,381.502616L146.128833,385.091936L142.393145,388.532664L141.099193,393.517732L141.634500,397.236016L140.753265,398.616279L140.906059,398.678158L149.817172,402.270439L163.617685,392.596786Z " data-name="sy"/>
        <path d="M686.081805,585.040951L683.097796,574.069172L687.360049,566.514868L697.440099,564.779321L705.048213,566.083389L707.143123,561.988288L706.515516,554.298191L699.015864,546.379265L697.241985,537.411545L690.135894,530.033295L684.064177,529.409346L682.937095,532.570442L678.342641,532.833128L675.741140,531.231202L668.180953,536.651634L666.824130,528.507233L667.354845,518.935300L661.961895,518.519627L660.698181,513.061542L656.870340,510.258484L652.669467,512.358890L648.646895,516.297431L643.138768,516.704171L640.950019,526.525339L637.849159,528.175545L642.779161,536.147847L648.703881,542.781482L652.739455,548.778348L650.823492,556.677069L648.281944,558.356101L650.708990,562.914176L656.808806,570.132882L658.245451,575.204415L658.538998,579.424927L662.424909,587.710448L658.760731,596.179702L655.601660,605.515254L653.842213,614.228286L653.322620,619.896714L655.134649,624.943553L656.134624,619.603280L660.265271,623.912540L664.805816,629.041553L666.414301,633.540981L669.754810,637.027237L671.065261,635.407000L677.798027,639.385995L678.650623,644.051164L683.887807,642.966153L686.325799,639.233643L681.937058,634.518475L677.031761,633.462340L672.283319,628.259136L670.387473,620.395082L666.610592,612.102897L661.384149,611.817681L660.377075,605.241778L662.362505,597.217026L665.522217,583.947047L665.170109,573.954614L672.175910,573.901326L671.726171,581.039035L678.525422,580.869549L686.081805,585.040951Z " data-name="th"/>
        <path d="M392.840779,329.560885L389.860620,329.793282L388.055642,327.297734L388.325459,323.155364L379.111097,325.228211L378.460457,330.985280L376.357170,335.988661L370.049662,335.561396L369.212140,339.572423L375.247722,341.754566L378.646957,348.596212L376.783111,357.948210L379.349502,359.076626L384.042662,356.103220L387.012120,357.891281L388.361306,353.655387L392.883079,353.847437L393.684670,352.489367L393.500601,348.767923L395.854386,345.565237L400.455250,347.657554L400.397304,350.475432L402.773683,350.913758L404.101297,358.682839L407.845886,361.715382L409.964011,359.769515L413.056066,358.850303L416.633627,354.707077L421.971925,355.388689L429.698227,355.403270L427.123783,350.136396L426.373776,346.553392L421.252025,344.460504L419.066835,345.385667L414.732017,336.918310L401.105500,338.300957L391.095190,335.345990L383.257830,336.050191L382.466985,330.831578L390.957468,332.342705L392.840779,329.560885Z " data-name="tj"/>
        <path d="M330.115657,371.783237L338.547877,375.283427L343.985065,374.053905L344.663371,369.869675L350.307925,368.475283L353.925449,365.661036L353.734068,358.255349L359.630948,356.465210L360.015803,353.173187L364.142406,355.645652L366.467449,355.932521L365.290481,350.277771L354.386685,346.333966L345.479229,341.838333L339.548426,337.537277L329.465535,331.276261L323.377999,322.045940L320.470624,320.433080L312.636108,320.841910L309.337370,319.024762L306.628153,311.976687L295.509555,307.328832L290.745328,312.439397L285.292188,315.478287L287.642115,319.936646L279.385382,320.057919L275.724262,320.490883L268.864575,313.555049L263.303340,311.087184L255.459508,312.919794L252.933362,315.855557L256.580911,321.596775L255.788369,315.106619L261.129577,312.856718L264.468255,317.908137L271.109133,323.237300L265.310484,326.093342L257.855999,323.901178L257.926642,331.458986L262.952621,331.985616L262.396034,338.199652L268.843514,341.291858L269.733124,350.910418L272.412825,357.449032L278.644226,355.658321L282.892388,350.375287L287.943901,350.642830L290.859783,348.924648L296.349731,349.774554L305.617070,354.456895L311.812440,355.468047L322.136977,363.667480L327.811705,363.998863L330.115657,371.783237Z " data-name="tm"/>
        <path d="M867.447671,776.552427L868.110537,778.344009L868.025497,781.098514L874.940466,778.489552L883.599771,774.512481L886.738152,772.050925L883.796772,770.924607L881.208787,772.059375L875.604923,772.366894L868.559858,774.409192L867.447671,776.552427Z " data-name="tl"/>
        <path d="M139.370563,319.820890L125.558313,313.588084L113.482448,313.775605L105.323765,316.271321L97.315696,322.021350L83.146220,320.844893L80.910471,327.624714L69.589030,327.983380L62.339566,336.623722L67.505484,340.983761L64.611863,348.125252L70.577776,353.245307L75.923996,362.450251L84.109358,362.283464L91.885815,367.213347L96.974181,366.115480L98.297510,362.273893L106.430570,362.584971L113.076650,367.553804L124.384202,366.513677L128.912144,361.184150L135.459463,363.315028L139.943190,362.526345L137.532910,366.004265L140.822680,370.199037L142.588479,368.173176L144.348864,366.145855L144.090305,360.980514L146.783235,362.781666L154.708394,360.205471L158.941565,361.949172L165.117074,361.920217L173.257359,358.445527L177.321156,358.602219L185.632730,357.162516L188.629266,355.724538L197.530036,356.918587L200.536696,359.276639L203.880990,357.712607L198.582047,350.306381L199.567155,347.451489L195.432510,336.946529L200.041803,334.358811L196.639944,331.717324L190.730695,329.478173L190.625090,325.117665L188.775284,321.981135L180.863364,317.625241L173.126963,318.045842L165.296878,322.679341L158.825445,321.886693L150.489898,323.258937L139.370563,319.820890Z M68.659424,325.561110L71.471736,322.802632L80.146613,322.311883L81.205940,320.135185L74.432435,317.273848L73.128461,313.877921L66.680394,312.695512L59.563217,315.470528L63.413843,317.811618L61.791961,323.368740L60.156411,324.368530L60.264251,326.212135L63.052714,330.392121L68.659424,325.561110Z " data-name="tr"/>
        <path d="M820.436164,474.134510L820.554619,468.649362L816.360492,465.940594L811.679772,472.823877L808.967080,481.750614L811.202614,488.486647L816.804967,496.155870L818.740330,488.704708L820.436164,474.134510Z " data-name="tw"/>
        <path d="M366.467449,355.932521L370.655568,355.993962L376.783111,357.948210L378.646957,348.596212L375.247722,341.754566L369.212140,339.572423L370.049662,335.561396L376.357170,335.988661L378.460457,330.985280L379.111097,325.228211L388.325459,323.155364L388.055642,327.297734L389.860620,329.793282L392.840779,329.560885L398.727722,330.447500L406.174076,323.994717L395.958891,319.310599L391.429546,321.523738L384.955891,318.184482L389.256572,312.464437L386.801319,311.597389L383.140389,313.225881L375.422888,319.387342L374.132014,325.756722L371.402473,325.813545L368.128120,321.591263L358.691809,321.302828L355.022967,314.051810L351.438188,313.990046L349.266299,305.167745L338.569249,298.759479L326.348619,299.443764L318.227844,300.720936L308.967275,292.810212L302.085237,289.483975L289.110862,283.167336L287.550754,282.399813L270.528892,287.618118L279.385382,320.057919L287.642115,319.936646L285.292188,315.478287L290.745328,312.439397L295.509555,307.328832L306.628153,311.976687L309.337370,319.024762L312.636108,320.841910L320.470624,320.433080L323.377999,322.045940L329.465535,331.276261L339.548426,337.537277L345.479229,341.838333L354.386685,346.333966L365.290481,350.277771L366.467449,355.932521Z " data-name="uz"/>
        <path d="M717.694179,499.954184L709.391935,497.597067L705.037936,493.906588L705.388842,488.673725L697.932459,487.014639L693.558078,483.606042L687.713314,488.447683L680.262189,489.495961L673.997908,489.450190L670.151298,491.667064L675.889468,498.839231L680.706752,507.091297L690.409796,507.162403L694.693651,515.083332L690.020310,517.462971L688.257025,520.728520L698.546816,526.162908L706.735722,536.898599L712.893007,544.903524L719.781387,551.225093L722.643050,557.643124L722.335072,566.726382L724.883079,572.785563L725.061014,583.672631L712.327837,590.664445L716.321415,596.168200L707.998521,596.826885L701.390683,600.486041L707.721600,605.646711L705.929012,611.801484L709.231203,617.627649L718.605526,609.168581L724.532319,601.594963L733.177406,595.745665L739.282043,589.762800L738.693653,573.780431L732.979012,556.966064L727.156155,549.669525L719.159460,544.056959L709.993942,532.184984L702.482321,522.609105L703.235154,516.305880L708.449075,507.724447L717.694179,499.954184Z " data-name="vn"/>
        <path d="M289.198672,544.478598L286.153584,538.130376L278.845892,523.137470L256.327903,526.619938L249.237416,530.708187L244.207176,540.247917L240.608287,541.762371L238.432893,538.733709L235.426679,539.188205L227.714579,538.279449L226.205721,537.370932L217.082669,537.579632L214.986488,538.400819L211.591429,536.038450L209.761440,540.504512L210.798904,544.334687L207.484252,547.233111L208.056823,551.195982L207.190250,552.948283L208.225649,557.099880L206.659002,557.541706L209.133259,561.276733L211.017724,567.996635L212.444143,570.677270L212.440622,575.643628L214.739906,580.950771L220.274825,581.412748L222.767758,580.179868L226.720128,580.380340L227.851594,578.069503L229.909458,577.406579L231.539913,575.007696L233.526484,574.491484L240.187686,574.019640L245.175746,572.270522L249.633890,568.499946L252.049108,569.037294L255.525503,568.536567L262.289758,562.126092L274.732819,557.887748L282.394541,554.051921L282.376116,550.953467L283.635590,546.919463L289.198672,544.478598Z " data-name="ye"/>
    </g>
</svg>