<?xml version="1.0" encoding="utf-8"?><!DOCTYPE svg  PUBLIC '-//W3C//DTD SVG 1.1//EN'  'http://www.w3.org/Graphics/SVG/1.1/DTD/svg11.dtd'><svg enable_background="new 0 0 1000 511" height="511px" pretty_print="False" style="stroke-linejoin: round; stroke:#000; fill: none;" version="1.1" viewBox="0 0 1000 511" width="1000px" xmlns="http://www.w3.org/2000/svg" xmlns:xlink="http://www.w3.org/1999/xlink"><defs><style type="text/css"><![CDATA[path { fill-rule: evenodd; }]]></style></defs><metadata><views><view h="511.542420677" padding="0" w="1000"><proj id="laea" lat0="48" lon0="15"/><bbox h="32.46" w="63.58" x="954.16" y="987.54"/></view></views></metadata><g class="" id="states"><path d="M86.824141,316.801766L84.831967,316.920641L84.270324,316.544211L84.874304,315.367893L86.216337,313.259391L86.767451,312.927615L88.533976,312.516175L89.209764,311.926136L89.614735,310.656912L89.618796,309.493156L89.399458,308.205096L92.211307,301.195343L92.521128,297.717582L90.193852,296.263260L84.379338,296.952754L82.715528,298.579004L82.133828,298.973814L81.457619,298.926090L80.156501,298.015871L79.512457,297.889765L77.742177,298.605323L76.693841,299.286289L75.811808,299.270244L74.618623,297.949677L74.032674,296.055604L74.043149,293.968818L73.819383,291.937290L72.493276,290.166286L75.614965,288.032719L76.352233,286.037494L75.347856,283.695237L69.523911,273.837007L67.995511,274.420693L66.768970,275.364978L65.589291,275.790269L64.214037,274.837706L64.084732,273.695133L64.082448,273.102814L64.120332,272.518128L63.101801,269.837151L61.576048,268.091435L60.331670,266.193258L60.176301,262.971181L58.515851,264.136896L56.521679,264.397077L52.658820,263.830492L48.832193,262.110434L48.159681,262.246234L46.486211,263.178326L45.429276,263.187832L42.865728,261.630323L42.504009,259.553077L42.917852,257.216858L42.640222,254.899313L41.230245,253.127732L39.430215,252.333392L37.462574,252.420802L35.508676,253.301867L32.440898,256.425563L30.584272,259.832101L30.600478,259.837478L32.257760,261.552183L33.626806,265.248445L28.158205,264.530879L26.483456,264.758748L26.090952,265.417975L25.185309,267.929068L24.442956,268.621289L23.585998,268.733627L20.870083,268.373835L20.133235,267.865100L20.020907,266.141504L19.199577,265.741194L18.177294,266.013128L16.487780,267.553827L15.530179,268.001619L13.570993,267.864341L11.758958,267.279457L10.094305,266.247045L8.765654,265.186080L8.777823,265.272569L12.226332,271.379611L16.929000,273.948017L20.439069,277.515669L19.765445,285.701905L18.292262,288.551408L12.776474,294.627616L12.047164,296.318594L11.133355,299.678429L10.540047,300.972227L5.695280,306.063296L0.979351,312.928903L2.046989,314.782017L2.528728,315.297751L4.111522,316.991682L3.480057,318.543898L3.041334,319.622095L3.505004,321.361909L4.634433,323.133641L5.572325,325.895812L5.340201,327.265109L3.834023,330.080795L3.729967,331.760350L5.625377,333.072373L7.477429,334.353705L10.296434,338.948983L10.678792,340.890635L11.133428,343.197920L11.286227,343.973036L10.027571,348.935476L9.502571,349.515940L7.085776,352.186951L6.075897,353.302517L8.492368,354.129506L15.448047,353.750248L17.628688,354.237399L41.977164,363.799136L41.613820,365.988245L42.140551,366.505119L42.962006,366.494506L43.426455,367.127616L43.351457,368.266912L42.684788,370.079561L42.058831,374.594993L41.498932,376.650584L41.597539,378.478959L43.117729,380.978887L46.226382,383.713990L60.054408,389.208872L64.850247,394.409989L67.718236,396.329561L73.312868,398.531452L75.144353,398.717916L75.130720,398.636387L75.040842,398.098874L73.052305,391.641165L70.372750,386.523757L70.185769,384.600136L70.719179,382.983276L72.552073,380.952193L74.259853,379.595298L75.822468,377.707166L76.810972,375.361175L77.369065,372.014610L77.437685,369.931677L77.197440,367.212109L77.201088,364.859140L77.635684,361.845969L79.649025,354.225893L81.221014,350.697157L86.807960,343.249871L89.061091,338.568569L89.658230,333.197157L89.674196,331.281586L88.643861,322.497544L86.824141,316.801766Z " data-name="Vorarlberg" data-realname="Vorarlberg"/><path d="M999.020649,190.690190L995.919240,188.046799L991.688533,186.665187L988.673249,185.114040L989.283568,181.917612L987.696939,180.663173L987.180055,180.356495L987.819165,176.733722L988.435013,174.754106L989.714326,173.082064L987.981611,171.320853L987.337288,170.216125L987.336928,170.216524L985.778155,171.940771L984.888487,172.435142L983.773950,172.775121L982.241772,172.494963L981.119178,171.763190L979.731422,171.113312L978.799371,171.528111L977.141900,173.378703L976.714462,176.264118L976.829681,177.623254L977.269262,179.104248L977.129382,180.690283L976.252542,182.515562L974.711488,183.511392L972.630599,182.497536L968.599528,179.483825L966.550672,178.623182L963.903681,179.008588L960.948410,180.492346L955.795491,184.470856L950.388725,187.200607L948.857349,187.000393L947.358168,187.329985L944.629257,188.668436L941.495219,191.407090L939.774147,196.321983L938.513687,198.762989L936.740817,200.483868L932.324349,203.752832L929.857363,206.378356L924.840761,209.085626L915.672818,206.249343L911.131866,206.632235L907.423992,207.813645L901.227638,212.813924L899.233842,215.062635L897.327768,218.911513L897.197928,226.423774L896.733456,228.684929L895.997495,230.430116L894.429575,232.304836L892.918270,233.592556L888.448886,234.203972L888.585689,246.037168L889.655887,248.412364L891.713996,251.802056L896.216687,256.921342L900.164381,262.819638L896.013935,271.273809L895.205270,272.534482L893.989771,274.893521L893.278221,277.128639L892.945218,281.379894L893.397677,284.135782L894.166937,286.425612L894.126403,288.799419L893.936458,290.745223L887.213443,298.207789L885.109118,299.934407L881.861274,301.758958L878.540216,302.432117L870.996148,302.406836L863.545756,310.484745L861.145675,311.880016L860.666393,311.035593L860.241849,309.729822L859.515781,308.663467L857.926377,308.875374L856.603084,310.244898L854.647418,313.029363L854.221391,314.656988L854.426363,316.326345L856.819011,321.841333L858.348883,326.616606L859.671160,332.005264L860.790239,339.328957L861.015186,342.349588L864.821836,356.343721L864.895451,361.579147L863.590342,367.634972L863.760620,369.584984L864.329892,372.275300L865.526350,374.446074L870.408202,380.478158L870.779996,382.109724L870.655889,383.428175L869.743817,385.489052L866.348145,390.604243L860.064687,399.212184L855.382406,403.414872L854.462920,405.284158L854.035162,407.116929L853.958064,409.095301L853.424996,412.341095L853.536167,413.536085L854.191577,414.463687L855.851464,415.758511L856.396039,416.562288L856.628004,417.019767L856.840900,419.149496L856.892522,419.949770L856.898171,420.037340L857.371388,419.913207L860.120438,418.228560L865.520719,414.915455L867.628460,413.889248L869.302282,412.228119L874.008479,405.580700L875.516469,403.966047L878.842660,401.442137L881.585936,400.217909L882.490691,399.492757L883.356935,398.067257L883.406720,396.889992L883.280432,395.815652L883.603379,394.629032L884.923987,393.456464L886.230796,393.145028L887.282016,392.241838L887.808070,389.294540L889.029379,387.131784L890.827489,386.856693L895.772905,387.769432L901.140897,387.020212L903.945806,387.315745L906.256848,388.996284L906.976505,389.513885L907.662747,389.691605L908.301665,389.519689L908.865521,388.978632L908.865156,388.958612L911.056037,388.507505L914.496198,388.402801L916.983393,387.749534L916.356457,385.663777L914.426050,383.948247L912.530814,383.353182L908.741900,382.958028L910.365715,381.436044L916.228256,378.917281L917.696896,377.932774L918.208496,376.861474L917.725494,375.864468L916.155763,375.103601L913.479896,374.263324L912.450412,371.724341L913.256232,368.880414L916.003491,367.095859L918.937792,363.048879L919.520403,360.769484L917.868291,358.448442L915.699570,358.279915L911.287454,360.506277L909.495636,359.368096L909.516761,358.296289L910.531118,354.973057L910.458773,353.272150L909.551201,352.037374L908.447178,351.952662L907.401157,352.062025L906.599645,351.395802L906.079156,348.206084L908.027999,343.924765L907.531223,340.554436L907.531132,340.549431L907.530857,340.534416L911.580279,338.241210L913.409521,336.494389L914.229870,333.885318L913.640020,330.712276L909.492755,322.394067L909.132897,322.015247L908.545399,321.800846L907.942614,321.491569L907.562765,320.757590L907.623129,319.609952L908.183199,319.078917L908.827906,318.726519L909.102153,318.150664L908.639545,310.729339L909.921944,308.252175L911.552785,307.770958L913.323500,308.959066L914.944070,311.491565L928.905923,304.755240L933.747832,300.795198L935.538598,299.329205L934.846056,291.537955L936.299500,289.889773L940.078188,288.196143L941.417022,285.693463L941.500719,282.707392L940.434533,280.302212L938.584385,278.494715L936.342401,277.291120L936.991512,273.521921L935.801136,269.631867L933.455569,266.607338L930.581456,265.355790L926.293003,266.185258L923.963363,265.284865L917.629981,262.833513L914.030889,263.714358L906.665394,260.884076L904.280704,259.561016L905.400192,258.088590L907.322263,254.828794L908.261046,253.840025L909.033516,254.781882L909.691739,255.375356L910.300573,255.489070L911.153022,254.937243L912.676172,253.506390L917.823513,250.648052L918.907071,249.555280L919.588057,247.874541L919.308778,245.326554L920.052621,243.439247L924.787341,241.171165L930.265764,241.749320L940.785544,245.605161L942.453618,246.725148L943.192288,248.451321L943.722315,250.482507L944.432228,251.832271L944.763631,252.462236L946.252659,253.946139L947.673454,254.775426L955.044973,255.768121L956.184147,255.466121L957.592710,254.005956L960.055921,249.856600L961.744967,248.349073L963.766230,253.377970L968.733697,254.168081L979.002652,251.310669L988.466048,249.786157L991.112887,248.463354L989.606604,247.572295L988.463116,246.125506L987.765066,244.191025L987.355134,237.872018L986.376998,233.971819L986.114154,230.643568L988.005586,228.414935L987.126289,227.211412L985.780899,223.626414L984.739604,222.882696L981.979631,221.688061L981.137682,220.838630L981.042576,218.727832L982.645002,217.829731L987.116201,216.705229L989.205495,214.956771L990.441419,212.965465L991.124456,210.408025L991.567847,206.945575L991.289189,206.567507L990.599261,206.365798L989.945017,205.992813L989.788306,205.155703L990.122138,204.595847L991.306612,203.737560L991.552555,203.405386L991.869516,201.734162L992.466648,200.506026L992.487618,199.303549L991.077586,197.749274L999.020649,190.690190Z " data-name="Burgenland" data-realname="Burgenland"/><path d="M870.996148,302.406836L866.430687,298.533690L865.003414,295.745639L864.161663,293.644973L863.987160,292.786370L863.846199,291.426661L863.440567,290.000606L863.042631,289.115106L862.588399,288.550783L861.956005,288.299323L858.907828,289.898440L857.635855,290.361319L856.702007,290.323874L855.661738,289.912300L854.429352,288.772260L851.195010,287.042385L840.499306,285.342731L838.845714,280.926824L837.222690,277.871965L833.769494,275.318133L830.609477,275.353081L829.614587,275.148619L828.772251,274.682112L828.434834,273.434216L828.587561,272.561532L829.155181,270.723230L829.281744,269.310163L829.227598,268.039212L828.993237,266.950418L828.783983,266.311893L827.978622,264.808682L827.302606,264.034921L826.284941,263.474959L824.608708,263.792763L820.255511,266.269667L818.859886,266.368471L817.617209,265.534499L816.601343,262.991183L816.115135,260.788173L815.287151,255.189309L814.654260,253.808590L813.729827,252.941144L812.029180,252.641364L810.959871,252.861273L809.686539,252.872626L808.188008,252.555389L805.684250,251.265320L803.834869,250.019300L802.261410,247.859634L799.565540,245.007781L790.768255,244.312139L785.716173,240.691874L774.934592,235.489857L769.435311,230.452253L767.333936,229.596259L764.711398,229.362846L756.746714,231.361958L755.872845,231.395101L750.485339,230.586642L746.921067,235.191885L746.218592,236.645364L744.950885,238.130213L743.560264,238.989467L738.549912,240.120950L731.924997,242.708544L727.907769,243.903627L726.649027,243.914475L724.467936,243.510089L722.509230,243.600755L719.877331,244.306715L714.645586,246.567559L711.425402,248.527375L708.111117,249.314708L705.397517,248.940551L701.463973,245.660098L700.254782,244.346226L699.528632,243.934261L685.964870,243.966762L681.448837,240.316012L673.113823,246.987819L654.298696,254.410149L652.870494,256.362928L652.376077,257.716172L650.930791,259.092895L648.677427,260.268447L644.555668,261.439581L641.263350,263.356473L635.371658,267.783644L632.164837,268.747196L628.332044,268.717856L625.687544,267.907373L622.859252,266.608831L615.559241,261.389212L614.348367,261.106188L612.563482,261.537747L607.676250,263.771924L601.295991,265.415500L598.642411,267.276058L597.832068,267.326295L597.207165,265.451374L597.023100,263.952281L595.611863,260.250341L589.789927,253.167722L584.032293,253.882224L582.057565,253.404671L578.653526,252.035571L574.743352,251.253732L572.989430,250.482207L569.845152,248.553183L568.676416,248.335342L567.237643,248.603877L553.209270,255.349289L550.988659,257.129496L549.314100,259.268992L548.539319,261.999387L548.174486,264.406319L547.887106,268.196382L547.935693,270.094706L548.346760,272.119382L549.366216,274.119336L550.771827,276.075619L552.408791,277.965461L553.395595,279.573926L554.568674,282.206677L555.125067,285.384915L555.143689,287.973572L554.623203,290.027708L554.183008,290.886593L553.625123,291.493192L550.304407,294.271492L549.865611,295.015072L548.255727,295.373271L547.026921,295.998103L534.939140,293.420298L533.831120,296.273735L532.831392,299.830010L532.621068,301.318101L533.753707,308.228267L537.407592,321.342274L540.720482,328.550944L544.794020,332.507353L547.007217,334.167518L548.954183,334.731281L550.777858,334.141121L552.642469,332.700220L554.837253,331.805074L558.537358,331.454255L560.512963,330.193939L562.518581,329.594554L564.232109,330.762528L566.311621,335.154830L569.137978,339.723029L569.784044,341.539897L570.106654,343.176719L570.708752,345.238175L571.722891,347.045301L575.995911,352.698845L579.896673,355.561947L580.881252,357.237542L580.568184,359.225692L577.963335,362.433563L574.027754,366.152411L572.899159,367.873281L572.639216,370.307532L572.849207,374.195377L572.135930,376.367727L570.588455,380.054703L564.732728,390.525184L559.571036,396.963378L564.597539,401.281471L566.423557,402.625749L567.625572,403.189443L570.049902,402.950021L572.405299,402.263485L580.640514,396.026622L585.611676,393.695499L587.650668,390.278047L588.262613,388.894306L588.827616,387.965475L589.991238,386.663820L592.037843,385.147909L606.543440,378.361823L610.425148,377.698599L615.089435,377.822937L618.477290,379.419198L623.769467,383.230098L633.147603,386.293073L635.411714,387.393430L636.754525,388.495779L637.077942,389.029033L638.229918,389.278650L640.605270,389.397619L654.108063,384.688884L657.689318,385.011891L666.319329,384.490718L669.881485,385.975657L686.137993,384.776970L700.777545,381.331976L702.803307,381.676082L704.152861,382.549309L706.102138,384.154035L711.296684,390.587189L721.698742,406.548926L721.432472,412.350311L720.652352,414.737958L719.782920,416.469819L719.063744,418.812297L718.858131,419.923477L719.104422,421.640389L719.768609,424.208264L721.742246,428.913355L723.286212,435.740481L723.596720,442.207396L725.204709,446.831797L733.503859,456.375026L734.584712,457.785132L734.642747,457.860832L743.551706,458.806296L747.853930,459.260052L764.863027,458.306735L772.223528,457.885444L776.149187,459.341648L778.527301,461.413048L779.147377,461.952926L782.170201,463.822383L786.154553,463.092062L788.617445,461.123976L788.972830,460.312677L789.457370,459.206303L789.800584,457.367392L789.868929,457.001124L791.156064,454.234355L793.178998,452.663586L796.017679,451.892366L798.847546,451.831217L800.857780,452.386387L802.571334,451.882349L803.244823,451.368455L803.936946,450.840243L804.719993,449.136983L804.686152,446.649478L805.074359,443.723027L807.226790,445.011602L817.414480,446.437544L820.927792,446.203680L824.827025,444.581030L829.897062,442.468186L833.585912,442.107976L837.286314,442.797527L846.346077,447.256150L849.176579,447.724172L851.755018,448.149802L853.223790,449.152192L855.746335,452.250605L855.764477,452.272879L855.763718,452.263091L855.418053,447.807147L853.882722,444.828600L851.031770,443.052989L849.449310,438.332351L849.297490,434.940256L849.432839,432.125849L849.461039,431.539200L850.304474,425.511474L850.177702,424.141450L849.583164,423.718425L849.454563,423.294536L850.725277,421.911889L851.500426,421.451500L856.898171,420.037340L856.892522,419.949770L856.840900,419.149496L856.628004,417.019767L856.396039,416.562288L855.851464,415.758511L854.191577,414.463687L853.536167,413.536085L853.424996,412.341095L853.958064,409.095301L854.035162,407.116929L854.462920,405.284158L855.382406,403.414872L860.064687,399.212184L866.348145,390.604243L869.743817,385.489052L870.655889,383.428175L870.779996,382.109724L870.408202,380.478158L865.526350,374.446074L864.329892,372.275300L863.760620,369.584984L863.590342,367.634972L864.895451,361.579147L864.821836,356.343721L861.015186,342.349588L860.790239,339.328957L859.671160,332.005264L858.348883,326.616606L856.819011,321.841333L854.426363,316.326345L854.221391,314.656988L854.647418,313.029363L856.603084,310.244898L857.926377,308.875374L859.515781,308.663467L860.241849,309.729822L860.666393,311.035593L861.145675,311.880016L863.545756,310.484745L870.996148,302.406836Z " data-name="Steiermark" data-realname="Steiermark"/><path d="M659.155899,509.542421L661.482539,508.529853L662.080795,507.022879L662.743279,505.353580L663.882082,501.610882L665.870948,498.773544L667.170899,498.249765L670.070118,498.004037L671.424348,497.610129L672.808353,496.715650L675.497191,493.924730L676.104814,493.767188L676.893927,493.912717L677.882927,494.095018L678.844273,491.706397L680.409922,489.825589L681.076750,488.511756L681.879803,487.593812L684.102828,486.595823L685.285442,487.445828L688.706017,486.886332L691.659721,485.543582L692.405776,484.889947L693.489294,482.421910L694.900569,479.205396L695.884592,476.241232L696.925523,473.103724L698.446788,469.843613L700.682494,466.604699L702.362242,465.892038L704.232866,466.125420L706.497177,465.824006L706.984859,465.759021L709.885947,463.929384L711.761119,462.745988L713.672559,463.107834L716.229180,466.793173L721.181819,459.706497L728.838110,457.240580L731.999728,457.578828L734.642747,457.860832L734.584712,457.785132L733.503859,456.375026L725.204709,446.831797L723.596720,442.207396L723.286212,435.740481L721.742246,428.913355L719.768609,424.208264L719.104422,421.640389L718.858131,419.923477L719.063744,418.812297L719.782920,416.469819L720.652352,414.737958L721.432472,412.350311L721.698742,406.548926L711.296684,390.587189L706.102138,384.154035L704.152861,382.549309L702.803307,381.676082L700.777545,381.331976L686.137993,384.776970L669.881485,385.975657L666.319329,384.490718L657.689318,385.011891L654.108063,384.688884L640.605270,389.397619L638.229918,389.278650L637.077942,389.029033L636.754525,388.495779L635.411714,387.393430L633.147603,386.293073L623.769467,383.230098L618.477290,379.419198L615.089435,377.822937L610.425148,377.698599L606.543440,378.361823L592.037843,385.147909L589.991238,386.663820L588.827616,387.965475L588.262613,388.894306L587.650668,390.278047L585.611676,393.695499L580.640514,396.026622L572.405299,402.263485L570.049902,402.950021L567.625572,403.189443L566.423557,402.625749L564.597539,401.281471L559.571036,396.963378L555.792182,391.786801L544.585572,382.778808L539.954366,380.254829L536.596557,379.133521L530.745996,378.555837L517.550180,375.438179L514.690408,375.180636L502.594747,371.715081L497.448929,370.021653L494.992280,370.117842L492.957162,370.573348L489.586424,373.712150L486.484659,376.034893L479.464119,379.246377L474.294340,380.244658L464.368628,380.566361L460.422771,380.040996L457.964225,379.287045L455.805876,378.019492L445.458108,370.930435L439.135356,368.699771L434.909711,368.131599L426.866172,365.889920L420.918212,362.721989L415.801977,359.199746L414.128903,358.413346L412.927236,358.271957L412.305155,358.568678L411.880930,359.081709L411.682221,359.571512L411.560520,360.218906L411.381149,360.744349L410.911868,361.391202L410.427847,361.847270L408.672151,362.880514L408.947530,366.610156L409.970934,368.168923L411.665784,369.637744L422.929202,373.773725L423.996394,375.332255L423.774451,377.349070L422.013430,381.354298L421.623671,382.785235L421.399340,384.160906L421.354745,384.990946L421.430530,385.909647L421.806126,387.798666L422.658921,389.496247L423.906927,391.245282L424.970865,393.469600L427.563756,396.043169L428.888618,397.067582L430.484382,398.925800L431.473233,400.981970L432.034707,403.656990L432.270218,406.252689L433.087517,409.350470L434.430296,411.296023L440.336582,417.979208L448.000579,429.292448L448.742346,430.824376L448.642779,431.482736L448.508627,431.889803L448.248432,432.393680L447.826290,432.793103L447.350311,432.890627L446.285748,432.671984L441.643665,428.991622L440.259567,428.433151L438.712126,428.591116L433.294513,430.794695L421.404998,432.238238L418.546084,433.571884L418.016320,436.916684L417.352143,439.210824L416.282525,441.973716L411.612904,450.508566L410.984809,451.982114L410.965027,452.028517L411.992739,452.533041L414.356713,454.441526L415.563831,455.018194L416.815490,455.015103L418.969645,454.242053L420.017978,454.132465L421.153663,454.552728L421.153720,454.552749L424.454467,455.773294L431.876018,460.936501L462.964836,464.008248L473.811938,466.807003L482.153816,472.225348L484.936339,473.420780L490.299321,473.812130L503.934088,471.198295L509.735421,472.344750L517.868491,471.911848L518.783857,472.285239L520.628497,474.473897L521.633706,475.209228L527.288905,475.526871L543.324112,481.070985L545.332009,481.315483L547.419158,480.940155L549.434659,481.143933L558.204875,483.433020L560.024144,483.441409L568.698771,482.145787L572.712582,482.874773L584.832383,488.827732L587.021106,489.126533L589.181647,488.765281L591.525876,488.372777L593.868881,488.461811L596.039453,489.138914L597.985762,490.148284L605.415688,496.725964L606.836925,497.131649L607.094022,497.205012L619.434572,497.686082L635.429636,498.287675L639.936007,497.332673L641.354840,497.663973L641.982766,498.579746L642.402439,499.674105L643.141077,500.580628L645.419321,501.656436L647.254772,502.522626L649.488877,502.888574L654.107031,501.818052L655.913712,504.347181L657.398796,507.674884L659.155899,509.542421Z " data-name="Kärnten" data-realname="Kärnten"/><path d="M681.016924,81.914044L679.019559,83.901253L676.913812,83.751988L675.912775,82.481056L675.166208,80.655562L673.797630,78.822071L672.964362,78.632867L671.001301,79.308966L670.008763,79.193795L669.602527,78.375767L669.596004,77.084255L669.443595,75.847049L668.626766,75.116943L666.653759,75.266518L662.804422,77.096812L660.882232,77.515843L659.375302,77.136168L654.283418,74.420109L651.238612,70.774943L649.363813,72.053052L646.434762,79.675308L644.392546,81.747160L637.706201,84.571576L635.104670,86.626806L634.094050,87.018466L632.860386,87.147734L620.184721,82.521469L602.049836,80.277586L597.715999,78.392263L596.655706,77.417807L594.480398,74.626810L593.938247,73.558550L593.377062,70.908071L593.622468,70.350552L594.353554,70.089624L595.236623,68.288691L595.623765,68.013272L596.243860,68.141275L596.828089,67.968420L597.081439,66.760124L596.765778,65.574713L596.005745,65.024457L595.124496,64.652815L594.484516,64.033883L593.685489,62.431655L591.600512,59.130507L590.493581,57.894417L581.959785,53.031849L579.193966,50.659515L576.897158,48.803894L574.488307,47.436670L569.375688,45.977492L565.433848,53.986225L565.113987,55.823514L565.778263,55.593697L567.096514,58.307800L567.721491,58.908291L569.308409,59.703819L567.578192,61.309113L567.211519,63.616340L567.788103,69.883269L567.644719,73.135183L567.204032,75.921886L566.369854,78.452106L564.095879,83.192369L563.471886,84.098619L562.395064,85.137758L561.367752,85.561791L558.697504,85.948871L558.261908,85.841582L557.138685,88.030890L555.912319,93.182212L555.638819,92.882261L550.422665,90.415592L548.513734,87.358512L546.460703,85.770436L544.243256,84.519430L531.027591,80.549171L526.725530,81.046275L522.508854,82.539595L521.334775,83.587407L520.605278,84.919492L520.670503,85.621781L521.037041,86.500404L521.483022,90.004228L522.638407,91.895041L522.882603,93.602274L522.486569,95.481929L520.687888,99.115737L520.041377,100.880087L519.765768,102.676981L519.893253,108.152136L519.586531,110.163698L518.988164,111.483365L518.383132,112.472405L518.110157,113.468212L517.294733,117.562205L515.437552,120.543105L502.616166,131.304967L498.235612,133.636208L480.413099,136.330299L466.919572,141.322658L464.802655,142.755632L459.883759,147.254897L455.662048,149.471871L453.618187,151.039730L453.779193,151.504778L446.591718,152.706490L444.615118,153.698497L443.405111,154.956916L440.938467,158.623894L439.201759,160.518077L433.958025,163.984347L433.418713,164.609857L431.491527,167.453862L430.692853,167.791242L429.852379,167.726677L429.015745,167.987692L428.186661,169.355698L427.856006,171.960327L428.436051,174.531585L429.517635,176.897086L430.665496,178.843685L439.504109,188.672205L441.324457,193.050257L441.608849,195.142799L444.222386,194.167660L450.316685,192.616648L451.937358,191.658784L452.321779,190.817775L453.384191,187.921656L455.003928,186.707903L457.432898,186.026064L462.928440,185.858951L466.175834,186.397946L469.340187,188.385996L473.015728,192.503892L473.654400,192.960364L474.249707,193.275514L479.309467,195.196672L484.246158,195.880483L491.729044,195.163341L500.667503,191.278191L504.529748,194.206529L505.841483,194.905760L506.989746,195.736513L508.065993,197.126390L507.913679,198.615261L506.697269,200.011325L504.857378,200.452481L502.971372,200.231357L499.509059,199.133938L498.580992,199.263589L497.905331,199.799356L497.421720,200.739946L496.962804,202.372063L496.589198,204.682049L496.145484,210.114965L496.209091,212.670078L496.515062,215.200570L498.009433,222.304052L498.515392,224.037746L499.668970,225.675537L501.680722,227.131662L525.084849,232.872267L528.077410,235.713892L526.444639,237.695205L524.338249,238.044805L519.221081,238.173842L518.318613,238.876707L518.058091,239.782720L518.654908,241.236727L519.065527,241.910890L519.759567,242.555655L520.976099,243.340939L523.665950,244.550584L526.889259,245.018762L527.823881,246.854199L528.438764,248.518213L523.383532,263.150524L525.475289,266.976407L525.827447,268.665507L525.404209,270.660049L524.645672,272.177426L522.574584,275.531618L521.795448,278.059778L521.994804,280.987700L522.963794,283.630294L527.495455,288.474387L534.939140,293.420298L547.026921,295.998103L548.255727,295.373271L549.865611,295.015072L550.304407,294.271492L553.625123,291.493192L554.183008,290.886593L554.623203,290.027708L555.143689,287.973572L555.125067,285.384915L554.568674,282.206677L553.395595,279.573926L552.408791,277.965461L550.771827,276.075619L549.366216,274.119336L548.346760,272.119382L547.935693,270.094706L547.887106,268.196382L548.174486,264.406319L548.539319,261.999387L549.314100,259.268992L550.988659,257.129496L553.209270,255.349289L567.237643,248.603877L568.676416,248.335342L569.845152,248.553183L572.989430,250.482207L574.743352,251.253732L578.653526,252.035571L582.057565,253.404671L584.032293,253.882224L589.789927,253.167722L595.611863,260.250341L597.023100,263.952281L597.207165,265.451374L597.832068,267.326295L598.642411,267.276058L601.295991,265.415500L607.676250,263.771924L612.563482,261.537747L614.348367,261.106188L615.559241,261.389212L622.859252,266.608831L625.687544,267.907373L628.332044,268.717856L632.164837,268.747196L635.371658,267.783644L641.263350,263.356473L644.555668,261.439581L648.677427,260.268447L650.930791,259.092895L652.376077,257.716172L652.870494,256.362928L654.298696,254.410149L673.113823,246.987819L681.448837,240.316012L683.666670,235.558933L683.903928,233.207099L684.041315,228.712434L685.820358,221.550522L688.148336,218.204476L688.220482,214.575542L687.319296,213.100898L685.935921,211.439301L683.226475,209.307113L680.428828,207.714456L676.343152,206.425758L669.560300,203.019557L648.758304,187.043194L646.423038,184.237840L646.590276,183.343028L647.596005,183.060095L648.207565,182.689109L648.793942,182.092641L650.643983,178.726822L650.809042,178.077216L650.795993,177.075952L650.919920,176.566220L651.083042,176.186913L652.599123,174.475352L653.309104,173.283771L653.334127,172.548079L653.117237,172.005981L652.780150,171.453048L652.564889,170.680679L652.021290,165.200544L652.269283,164.100960L652.941147,162.523699L653.293117,160.834107L654.105993,153.095526L654.360916,151.880808L654.563801,151.461667L654.806351,151.092843L655.169252,150.674747L656.114525,149.915031L656.917640,149.464678L658.667165,148.004021L664.480152,148.148676L666.702658,148.951895L668.622624,150.293662L670.300120,152.204490L673.797695,157.332468L675.984138,159.359841L678.677262,160.182484L697.184787,155.763108L698.976155,154.290475L700.862933,151.531239L702.787017,149.692768L705.135807,148.665522L711.510175,148.353030L712.936669,148.734666L714.522948,149.686848L716.462409,152.000482L716.544209,147.685594L717.429572,130.986889L715.936599,121.395387L715.279271,119.663086L712.880841,117.779368L712.168338,111.536693L709.001247,110.377174L706.058373,106.288645L705.483799,104.325555L705.499699,102.613636L705.727085,101.457668L705.742993,99.710709L705.863448,99.020106L706.109445,98.655055L706.587226,98.550625L709.512441,98.774591L709.910821,98.454667L710.031086,97.653889L709.834307,95.631384L708.583503,93.507536L706.775557,91.993458L704.642156,91.234383L699.990086,90.595049L695.872744,88.408121L691.683222,86.604695L683.626767,84.735689L681.310549,82.494190L681.016924,81.914044Z " data-name="Oberösterreich" data-realname="Oberösterreich"/><path d="M534.939140,293.420298L527.495455,288.474387L522.963794,283.630294L521.994804,280.987700L521.795448,278.059778L522.574584,275.531618L524.645672,272.177426L525.404209,270.660049L525.827447,268.665507L525.475289,266.976407L523.383532,263.150524L528.438764,248.518213L527.823881,246.854199L526.889259,245.018762L523.665950,244.550584L520.976099,243.340939L519.759567,242.555655L519.065527,241.910890L518.654908,241.236727L518.058091,239.782720L518.318613,238.876707L519.221081,238.173842L524.338249,238.044805L526.444639,237.695205L528.077410,235.713892L525.084849,232.872267L501.680722,227.131662L499.668970,225.675537L498.515392,224.037746L498.009433,222.304052L496.515062,215.200570L496.209091,212.670078L496.145484,210.114965L496.589198,204.682049L496.962804,202.372063L497.421720,200.739946L497.905331,199.799356L498.580992,199.263589L499.509059,199.133938L502.971372,200.231357L504.857378,200.452481L506.697269,200.011325L507.913679,198.615261L508.065993,197.126390L506.989746,195.736513L505.841483,194.905760L504.529748,194.206529L500.667503,191.278191L491.729044,195.163341L484.246158,195.880483L479.309467,195.196672L474.249707,193.275514L473.654400,192.960364L473.015728,192.503892L469.340187,188.385996L466.175834,186.397946L462.928440,185.858951L457.432898,186.026064L455.003928,186.707903L453.384191,187.921656L452.321779,190.817775L451.937358,191.658784L450.316685,192.616648L444.222386,194.167660L441.608849,195.142799L441.646951,195.423073L442.287166,197.469184L443.289722,199.034514L446.347571,200.991846L448.887887,203.770485L449.918409,204.364317L452.046316,206.575054L456.175106,216.941010L458.871433,221.218330L459.459959,221.844624L450.716087,235.124335L449.962331,236.626448L449.673608,237.850606L449.599838,239.090575L449.336586,240.365493L448.465213,241.714098L448.464942,241.724107L448.437484,241.743395L445.912620,245.430661L447.981267,247.655395L455.204124,249.205715L457.165848,248.921764L460.503174,247.551375L462.514827,247.928702L464.099809,249.191121L465.653380,251.178588L468.090043,255.616677L469.057732,258.455162L469.359984,260.946462L469.220564,263.296540L468.879004,265.631555L468.544747,266.043837L466.896983,269.843319L466.802573,270.376756L464.626923,273.095986L464.279202,272.956958L464.275994,277.353572L464.562410,277.250674L464.406754,277.527151L463.084411,280.633286L462.747295,281.130453L462.661487,284.503410L462.739076,285.707224L463.009518,286.775741L463.403483,287.777286L463.711715,288.961917L463.711494,290.574363L459.864818,294.922679L458.937961,295.689954L457.529085,295.718507L456.730241,295.196927L456.019695,294.407173L454.779185,293.698596L453.411802,293.702620L452.313962,294.264470L451.194384,294.620306L449.775901,293.996503L443.496037,288.968673L437.703692,282.202593L436.620618,281.280758L435.403480,280.805741L433.400319,280.398389L430.246278,277.693907L429.694772,272.895210L431.416105,268.452387L435.028619,266.782496L432.509760,264.196725L429.188812,261.857550L427.212298,259.276021L428.658314,255.932485L426.412606,256.157584L419.150785,254.049566L414.501995,253.909244L409.818770,254.887627L407.300390,256.061703L402.606531,260.008318L405.791347,265.966930L408.406606,268.517509L412.912584,271.801370L414.066594,273.178780L414.483661,274.133035L414.314649,275.029426L413.702040,276.513350L413.775388,278.108270L414.234083,280.376007L416.573426,286.917580L416.841045,288.147676L416.533878,288.914738L415.862319,290.321905L414.923082,291.846153L412.267478,295.041040L410.831441,297.281024L407.864958,303.230035L406.907475,304.612817L405.813105,305.810956L404.644050,306.786279L403.268862,307.624796L401.745806,308.198032L395.275800,308.673478L393.963524,308.996888L392.973101,309.430721L392.188888,310.407089L391.176829,312.132329L389.861692,315.660795L388.485171,317.714507L386.825807,319.267877L385.128121,320.113470L382.574477,320.965366L378.274163,321.447289L376.304273,321.270424L374.552835,320.659826L371.652213,318.917443L370.117107,318.548926L368.195586,318.757844L363.492647,321.428625L348.618088,326.164254L344.593261,325.865660L342.739365,326.207613L339.025103,327.962390L339.164089,331.885321L337.045401,339.435595L336.612127,342.279884L336.492872,345.822375L336.726483,347.945356L337.324429,349.981854L338.074588,351.232471L340.191890,353.095290L341.152879,354.188204L342.135571,356.914994L342.520034,358.873038L342.620881,366.135827L342.480784,366.977271L342.464188,367.076945L348.768689,366.071122L351.836413,367.254542L351.709043,369.707074L355.415572,367.889424L367.346471,362.919715L375.433576,355.583025L377.692561,354.647511L380.401325,354.307584L383.550619,354.442351L388.157086,353.752283L391.665725,353.931331L395.448415,355.350047L398.950447,355.756745L401.463885,356.416792L403.697834,357.753680L408.672151,362.880514L410.427847,361.847270L410.911868,361.391202L411.381149,360.744349L411.560520,360.218906L411.682221,359.571512L411.880930,359.081709L412.305155,358.568678L412.927236,358.271957L414.128903,358.413346L415.801977,359.199746L420.918212,362.721989L426.866172,365.889920L434.909711,368.131599L439.135356,368.699771L445.458108,370.930435L455.805876,378.019492L457.964225,379.287045L460.422771,380.040996L464.368628,380.566361L474.294340,380.244658L479.464119,379.246377L486.484659,376.034893L489.586424,373.712150L492.957162,370.573348L494.992280,370.117842L497.448929,370.021653L502.594747,371.715081L514.690408,375.180636L517.550180,375.438179L530.745996,378.555837L536.596557,379.133521L539.954366,380.254829L544.585572,382.778808L555.792182,391.786801L559.571036,396.963378L564.732728,390.525184L570.588455,380.054703L572.135930,376.367727L572.849207,374.195377L572.639216,370.307532L572.899159,367.873281L574.027754,366.152411L577.963335,362.433563L580.568184,359.225692L580.881252,357.237542L579.896673,355.561947L575.995911,352.698845L571.722891,347.045301L570.708752,345.238175L570.106654,343.176719L569.784044,341.539897L569.137978,339.723029L566.311621,335.154830L564.232109,330.762528L562.518581,329.594554L560.512963,330.193939L558.537358,331.454255L554.837253,331.805074L552.642469,332.700220L550.777858,334.141121L548.954183,334.731281L547.007217,334.167518L544.794020,332.507353L540.720482,328.550944L537.407592,321.342274L533.753707,308.228267L532.621068,301.318101L532.831392,299.830010L533.831120,296.273735L534.939140,293.420298Z " data-name="Salzburg" data-realname="Salzburg"/><path d="M391.665725,353.931331L388.157086,353.752283L383.550619,354.442351L380.401325,354.307584L377.692561,354.647511L375.433576,355.583025L367.346471,362.919715L355.415572,367.889424L351.709043,369.707074L351.571539,372.354633L348.625435,376.069951L340.469411,380.248215L338.952278,383.588235L339.754666,385.541892L340.246350,387.774477L340.887388,392.271925L341.668678,394.460044L342.516904,396.324936L342.438388,398.095432L340.426794,399.954640L341.800040,400.576632L344.896218,401.251772L346.345577,402.051260L347.793813,403.646996L348.474730,404.889051L349.247763,405.858874L351.029052,406.594538L356.588812,406.988914L358.630902,408.508916L359.700804,412.784422L359.658844,415.167316L359.240379,416.555153L358.700686,417.878591L358.266321,420.107380L358.151469,422.607919L358.420746,423.929826L359.147745,424.716837L360.390676,425.662156L363.121675,426.829524L365.863181,427.305259L368.021182,428.807115L369.042760,433.084693L371.343287,439.384140L375.804710,443.611791L381.127020,446.002554L384.297647,446.669432L384.297664,446.669436L388.294493,447.508579L392.311890,450.442177L394.476344,451.572716L396.421073,451.824418L404.186272,451.044182L410.732347,451.914270L410.965027,452.028517L410.984809,451.982114L411.612904,450.508566L416.282525,441.973716L417.352143,439.210824L418.016320,436.916684L418.546084,433.571884L421.404998,432.238238L433.294513,430.794695L438.712126,428.591116L440.259567,428.433151L441.643665,428.991622L446.285748,432.671984L447.350311,432.890627L447.826290,432.793103L448.248432,432.393680L448.508627,431.889803L448.642779,431.482736L448.742346,430.824376L448.000579,429.292448L440.336582,417.979208L434.430296,411.296023L433.087517,409.350470L432.270218,406.252689L432.034707,403.656990L431.473233,400.981970L430.484382,398.925800L428.888618,397.067582L427.563756,396.043169L424.970865,393.469600L423.906927,391.245282L422.658921,389.496247L421.806126,387.798666L421.430530,385.909647L421.354745,384.990946L421.399340,384.160906L421.623671,382.785235L422.013430,381.354298L423.774451,377.349070L423.996394,375.332255L422.929202,373.773725L411.665784,369.637744L409.970934,368.168923L408.947530,366.610156L408.672151,362.880514L403.697834,357.753680L401.463885,356.416792L398.950447,355.756745L395.448415,355.350047L391.665725,353.931331Z M359.262055,250.188619L358.624878,248.026612L359.104238,246.691267L359.980567,245.560514L360.493018,244.045957L360.903322,241.991701L361.338656,241.120584L361.013365,241.174072L359.085929,241.941514L357.929872,242.611224L354.698753,245.119178L352.608337,245.884508L352.806466,247.474832L353.184885,248.560745L354.094861,249.866410L355.120461,250.965778L355.764398,251.435011L356.089612,252.513854L356.118428,257.694867L355.918250,259.501107L355.401726,260.719771L351.505412,265.377052L350.458857,265.554084L320.525370,263.097340L309.483894,264.897575L307.977752,265.717899L306.534574,268.955782L305.166728,269.350478L297.875864,267.529072L287.246641,267.032562L281.603074,265.645721L279.192057,265.460212L278.722455,266.000915L274.940674,269.011706L273.959621,271.023035L272.735749,275.459148L271.994871,277.220390L269.500150,279.765362L266.612944,280.768571L260.433671,281.511211L257.517981,280.435635L254.323253,279.847506L251.319199,280.409989L244.825836,287.238578L246.413842,287.754321L247.789680,288.756091L248.222887,290.219875L247.011070,292.087866L244.844981,292.903402L239.158230,292.769508L236.686656,293.433453L234.044399,295.672587L232.200333,297.929617L230.236073,299.849693L227.316898,301.021138L224.194275,300.507502L224.735150,295.260482L221.991370,293.972578L218.646353,294.714421L209.799162,300.227148L207.201604,300.882775L193.555733,299.980612L191.784348,298.815213L190.581284,296.124966L190.893480,296.121268L191.359204,295.253182L191.726545,293.928684L191.753638,292.626493L191.407293,291.725923L185.248455,284.321673L178.686564,280.832695L177.877213,279.249804L182.244306,276.590498L183.408506,275.318777L180.532176,272.893719L179.184197,272.029173L177.382432,271.806909L175.504992,272.237122L170.110007,274.371115L166.223594,274.629634L165.121789,274.228011L164.524347,273.272365L164.147364,272.248606L163.654559,271.609588L146.792884,264.103869L143.639697,263.883638L141.760389,265.044769L138.904220,268.596887L137.167640,269.840730L135.613900,270.021535L130.104553,268.847592L128.122417,267.788251L127.101295,266.965720L126.465622,266.035391L126.333824,264.362263L126.891469,263.161179L127.579715,262.268730L127.786048,261.518431L127.312260,259.679713L126.875121,259.292782L125.854494,259.628817L123.647635,259.894491L121.647283,260.553218L121.737130,262.234009L122.743487,264.435745L123.478818,266.651386L123.211348,268.431344L121.433218,276.065909L123.210100,277.179548L124.257276,278.495538L124.859348,280.241603L125.259089,282.667908L125.042696,286.818514L123.597794,291.097258L121.460687,294.898467L119.111290,297.673420L117.943338,298.366369L115.125769,299.166259L113.718082,299.999911L112.860664,301.167441L109.598529,306.865447L107.050921,309.901971L104.348833,312.095787L98.262019,315.350943L95.334141,316.289525L86.824141,316.801766L88.643861,322.497544L89.674196,331.281586L89.658230,333.197157L89.061091,338.568569L86.807960,343.249871L81.221014,350.697157L79.649025,354.225893L77.635684,361.845969L77.201088,364.859140L77.197440,367.212109L77.437685,369.931677L77.369065,372.014610L76.810972,375.361175L75.822468,377.707166L74.259853,379.595298L72.552073,380.952193L70.719179,382.983276L70.185769,384.600136L70.372750,386.523757L73.052305,391.641165L75.040842,398.098874L75.130720,398.636387L75.144353,398.717916L76.038860,398.808865L79.515091,398.048841L85.461545,395.464591L86.934880,393.574243L87.380662,392.116825L87.589804,390.494238L88.367842,388.084066L90.581542,384.814275L92.748115,384.546286L95.272369,385.378342L98.570319,385.424110L98.856484,381.814515L101.428553,377.516064L104.984499,373.888516L108.945702,371.914513L109.676586,371.812832L110.403893,372.001828L111.071987,372.498240L111.085615,372.499054L111.083839,372.529046L112.359893,374.079950L114.851740,378.692473L119.129526,382.536743L120.220672,384.015403L120.740350,387.321268L118.719360,393.798348L118.792990,397.945777L122.881083,401.691327L128.326951,402.619688L141.985655,399.674384L144.336917,399.546240L146.343029,400.200590L156.124464,406.842323L157.303518,408.867895L156.587672,410.172417L153.515507,412.404900L152.847465,413.325721L153.548343,415.064463L154.968938,415.193062L157.808967,414.461749L159.313798,415.060714L163.001760,417.438108L164.299540,417.558713L166.856844,416.975035L168.210943,417.068103L169.368884,417.752142L171.524666,419.818210L172.850364,420.455644L174.170184,420.425730L178.671543,419.160296L180.961013,418.960087L185.551568,419.656741L187.758319,420.528615L189.661601,420.361550L191.609980,418.501932L194.839797,413.554363L195.413544,413.062381L196.911342,412.472226L197.517604,411.876518L197.799188,410.918311L197.750247,408.900482L197.897054,408.166008L200.686289,402.327161L202.422000,395.592214L203.634047,393.267261L212.604187,385.164617L215.034794,383.861494L224.320962,381.329203L233.643837,380.224035L238.301736,381.477552L242.314866,383.681093L246.344533,384.074404L251.032700,379.925572L251.047252,379.906193L252.125141,378.447124L253.338695,377.605609L254.675349,377.360968L256.968697,378.021658L257.805200,378.565784L258.536441,379.325588L259.189955,380.297324L260.264499,381.027388L261.455206,381.301486L262.706909,381.127136L263.978075,380.512491L263.991716,380.513101L264.019886,380.494314L264.033528,380.494924L267.916295,379.540163L271.066470,379.383629L277.799599,381.070862L277.867812,381.073819L278.029372,381.130931L279.021420,381.264062L280.023331,381.167010L282.522525,381.535063L286.658921,384.898553L289.089792,385.943520L290.633304,385.652796L293.314710,383.635665L294.813700,382.756215L300.843021,382.043651L305.546547,378.598196L311.273408,375.783032L317.175225,373.993811L326.599799,373.911039L340.219470,367.434079L342.464188,367.076945L342.480784,366.977271L342.620881,366.135827L342.520034,358.873038L342.135571,356.914994L341.152879,354.188204L340.191890,353.095290L338.074588,351.232471L337.324429,349.981854L336.726483,347.945356L336.492872,345.822375L336.612127,342.279884L337.045401,339.435595L339.164089,331.885321L339.025103,327.962390L342.739365,326.207613L344.593261,325.865660L348.618088,326.164254L363.492647,321.428625L368.195586,318.757844L370.117107,318.548926L371.652213,318.917443L374.552835,320.659826L376.304273,321.270424L378.274163,321.447289L382.574477,320.965366L385.128121,320.113470L386.825807,319.267877L388.485171,317.714507L389.861692,315.660795L391.176829,312.132329L392.188888,310.407089L392.973101,309.430721L393.963524,308.996888L395.275800,308.673478L401.745806,308.198032L403.268862,307.624796L404.644050,306.786279L405.813105,305.810956L406.907475,304.612817L407.864958,303.230035L410.831441,297.281024L412.267478,295.041040L414.923082,291.846153L415.862319,290.321905L416.533878,288.914738L416.841045,288.147676L416.573426,286.917580L414.234083,280.376007L413.775388,278.108270L413.702040,276.513350L414.314649,275.029426L414.483661,274.133035L414.066594,273.178780L412.912584,271.801370L408.406606,268.517509L405.791347,265.966930L402.606531,260.008318L401.327197,261.083088L399.262303,261.924008L396.494002,262.376269L393.812608,262.219519L392.008031,261.254207L388.227675,257.994555L387.218045,256.693899L386.556194,255.084103L385.332306,250.910954L384.763294,249.774955L382.635839,249.282934L377.450921,251.080999L375.229430,251.365644L367.755678,249.493266L364.899410,249.803436L361.935932,251.226105L360.513846,251.390714L359.262055,250.188619Z " data-name="Tirol" data-realname="Tirol"/><path d="M721.103185,0.000000L718.318666,0.360145L717.911404,0.680395L717.714185,1.331057L717.713917,2.232052L717.831851,3.283248L716.095662,7.367119L716.040494,12.883204L716.564095,18.810012L716.548704,24.165961L713.841073,36.297997L712.916316,38.740046L712.704235,40.091389L712.953858,41.312953L713.506728,42.845082L714.073153,44.096876L714.350000,44.447449L712.882746,47.840207L710.295504,48.078102L703.700585,45.355922L697.039059,44.421156L695.110757,45.157169L694.353671,46.997245L693.832506,49.348484L692.545485,51.617451L691.887602,55.319725L685.142726,61.224406L682.708781,65.149789L682.225503,70.378854L682.268494,76.300752L681.599845,81.333859L681.016924,81.914044L681.310549,82.494190L683.626767,84.735689L691.683222,86.604695L695.872744,88.408121L699.990086,90.595049L704.642156,91.234383L706.775557,91.993458L708.583503,93.507536L709.834307,95.631384L710.031086,97.653889L709.910821,98.454667L709.512441,98.774591L706.587226,98.550625L706.109445,98.655055L705.863448,99.020106L705.742993,99.710709L705.727085,101.457668L705.499699,102.613636L705.483799,104.325555L706.058373,106.288645L709.001247,110.377174L712.168338,111.536693L712.880841,117.779368L715.279271,119.663086L715.936599,121.395387L717.429572,130.986889L716.544209,147.685594L716.462409,152.000482L714.522948,149.686848L712.936669,148.734666L711.510175,148.353030L705.135807,148.665522L702.787017,149.692768L700.862933,151.531239L698.976155,154.290475L697.184787,155.763108L678.677262,160.182484L675.984138,159.359841L673.797695,157.332468L670.300120,152.204490L668.622624,150.293662L666.702658,148.951895L664.480152,148.148676L658.667165,148.004021L656.917640,149.464678L656.114525,149.915031L655.169252,150.674747L654.806351,151.092843L654.563801,151.461667L654.360916,151.880808L654.105993,153.095526L653.293117,160.834107L652.941147,162.523699L652.269283,164.100960L652.021290,165.200544L652.564889,170.680679L652.780150,171.453048L653.117237,172.005981L653.334127,172.548079L653.309104,173.283771L652.599123,174.475352L651.083042,176.186913L650.919920,176.566220L650.795993,177.075952L650.809042,178.077216L650.643983,178.726822L648.793942,182.092641L648.207565,182.689109L647.596005,183.060095L646.590276,183.343028L646.423038,184.237840L648.758304,187.043194L669.560300,203.019557L676.343152,206.425758L680.428828,207.714456L683.226475,209.307113L685.935921,211.439301L687.319296,213.100898L688.220482,214.575542L688.148336,218.204476L685.820358,221.550522L684.041315,228.712434L683.903928,233.207099L683.666670,235.558933L681.448837,240.316012L685.964870,243.966762L699.528632,243.934261L700.254782,244.346226L701.463973,245.660098L705.397517,248.940551L708.111117,249.314708L711.425402,248.527375L714.645586,246.567559L719.877331,244.306715L722.509230,243.600755L724.467936,243.510089L726.649027,243.914475L727.907769,243.903627L731.924997,242.708544L738.549912,240.120950L743.560264,238.989467L744.950885,238.130213L746.218592,236.645364L746.921067,235.191885L750.485339,230.586642L755.872845,231.395101L756.746714,231.361958L764.711398,229.362846L767.333936,229.596259L769.435311,230.452253L774.934592,235.489857L785.716173,240.691874L790.768255,244.312139L799.565540,245.007781L802.261410,247.859634L803.834869,250.019300L805.684250,251.265320L808.188008,252.555389L809.686539,252.872626L810.959871,252.861273L812.029180,252.641364L813.729827,252.941144L814.654260,253.808590L815.287151,255.189309L816.115135,260.788173L816.601343,262.991183L817.617209,265.534499L818.859886,266.368471L820.255511,266.269667L824.608708,263.792763L826.284941,263.474959L827.302606,264.034921L827.978622,264.808682L828.783983,266.311893L828.993237,266.950418L829.227598,268.039212L829.281744,269.310163L829.155181,270.723230L828.587561,272.561532L828.434834,273.434216L828.772251,274.682112L829.614587,275.148619L830.609477,275.353081L833.769494,275.318133L837.222690,277.871965L838.845714,280.926824L840.499306,285.342731L851.195010,287.042385L854.429352,288.772260L855.661738,289.912300L856.702007,290.323874L857.635855,290.361319L858.907828,289.898440L861.956005,288.299323L862.588399,288.550783L863.042631,289.115106L863.440567,290.000606L863.846199,291.426661L863.987160,292.786370L864.161663,293.644973L865.003414,295.745639L866.430687,298.533690L870.996148,302.406836L878.540216,302.432117L881.861274,301.758958L885.109118,299.934407L887.213443,298.207789L893.936458,290.745223L894.126403,288.799419L894.166937,286.425612L893.397677,284.135782L892.945218,281.379894L893.278221,277.128639L893.989771,274.893521L895.205270,272.534482L896.013935,271.273809L900.164381,262.819638L896.216687,256.921342L891.713996,251.802056L889.655887,248.412364L888.585689,246.037168L888.448886,234.203972L892.918270,233.592556L894.429575,232.304836L895.997495,230.430116L896.733456,228.684929L897.197928,226.423774L897.327768,218.911513L899.233842,215.062635L901.227638,212.813924L907.423992,207.813645L911.131866,206.632235L915.672818,206.249343L924.840761,209.085626L929.857363,206.378356L932.324349,203.752832L936.740817,200.483868L938.513687,198.762989L939.774147,196.321983L941.495219,191.407090L944.629257,188.668436L947.358168,187.329985L948.857349,187.000393L950.388725,187.200607L955.795491,184.470856L960.948410,180.492346L963.903681,179.008588L966.550672,178.623182L968.599528,179.483825L972.630599,182.497536L974.711488,183.511392L976.252542,182.515562L977.129382,180.690283L977.269262,179.104248L976.829681,177.623254L976.714462,176.264118L977.141900,173.378703L978.799371,171.528111L979.731422,171.113312L981.119178,171.763190L982.241772,172.494963L983.773950,172.775121L984.888487,172.435142L985.778155,171.940771L987.336928,170.216524L987.337288,170.216125L985.305085,166.730013L983.919367,165.890379L981.840602,165.624632L980.035697,164.580128L976.684682,161.081363L975.686020,158.087371L975.564875,153.889024L974.861444,150.401659L972.670802,143.496827L972.593956,142.572363L972.710783,140.351010L972.569494,139.513312L972.072887,138.854882L971.266671,138.599856L969.808633,137.334596L968.623039,136.823479L967.621640,136.212496L967.167067,135.082078L966.985353,134.205262L966.544989,133.104513L966.081569,132.144529L965.725294,131.742723L965.156322,131.356168L965.371645,130.369379L965.849606,129.235879L966.121009,128.367863L965.497454,126.845974L964.143908,125.402110L962.759553,124.314357L962.017464,123.901823L959.417151,123.689433L958.405037,123.107880L957.978024,121.951391L958.006681,119.822549L958.211504,118.936330L958.516693,118.353147L958.819556,117.124050L959.711824,106.757156L960.175621,103.976808L961.412695,101.337855L964.649674,96.401142L965.262001,93.807116L966.171106,91.956792L968.249077,90.187273L970.299935,87.902198L970.550653,86.905416L971.166746,84.455015L969.744346,75.427338L965.195022,70.383634L963.104451,57.606230L959.974578,53.416646L957.870978,53.307448L953.000138,55.176455L950.550487,55.534530L948.178832,54.708475L943.486052,51.741657L941.516754,51.115196L936.662561,51.423480L934.621376,51.107669L932.918942,49.962967L931.945224,47.690763L931.409963,44.918381L930.357027,42.607691L927.895570,41.668638L925.528664,41.437986L917.859977,39.372180L915.656075,38.014366L914.474632,37.637257L913.304367,37.820545L911.016178,38.846573L909.698716,38.932150L906.009414,38.461882L903.822049,39.984969L897.548550,51.234821L896.172594,52.571241L894.175940,53.197503L893.458754,52.979849L891.744242,51.628069L889.097210,52.074361L888.954207,52.206982L871.047394,49.844247L859.255376,50.728729L852.442662,47.878940L839.485869,38.673091L839.289554,37.714310L839.273211,36.372890L838.590801,35.550127L836.435599,36.136508L836.279510,34.095899L835.320276,33.236131L833.883067,33.192780L832.279599,33.591641L833.564267,31.844844L832.497727,31.927167L831.544060,31.507500L830.135840,30.502130L827.696423,30.348890L826.822823,29.987964L826.179686,29.003743L825.640195,26.626724L824.896659,26.074010L820.998635,26.124772L819.895165,26.406343L815.388160,28.853828L813.247424,29.555109L810.309603,29.582458L807.444742,28.927487L797.507326,23.414125L789.902404,20.515247L789.901279,20.514818L786.973008,19.396569L780.648525,13.971244L777.903412,12.415946L772.238329,10.535367L766.109663,7.442333L763.266947,6.644258L757.312844,6.598376L756.680338,6.160242L756.151114,5.201112L755.504312,4.402554L754.531981,4.415992L754.022245,5.208631L753.715749,7.812573L753.298562,8.835116L751.543757,10.963195L750.887621,11.385719L741.188804,14.033882L738.663306,13.988819L739.499720,11.224168L739.547172,8.591154L739.003197,5.959275L738.065173,3.227970L728.171243,2.429762L721.103185,0.000000Z M911.310027,137.364528L911.699862,137.887752L911.798601,137.825769L912.141390,136.947971L912.952844,135.510335L915.381715,135.052386L916.751623,136.287130L917.462367,137.860238L918.830756,139.320051L919.278897,140.733055L919.808546,143.210879L920.807791,144.167136L921.162040,144.870974L921.331718,145.348213L921.244099,145.960829L920.346011,150.039544L919.851839,155.331763L920.768347,158.087200L923.677663,163.896406L914.697616,162.423263L908.647733,162.839798L906.735138,163.426488L905.710647,164.366833L905.322065,165.024928L904.920257,166.053750L904.272260,166.781687L902.947037,167.752309L900.052947,167.714750L898.805084,167.436752L896.461916,166.427002L894.676715,165.206707L891.264755,165.305823L887.809578,166.015294L879.917344,165.453786L878.374218,164.612235L877.853818,163.383871L877.019139,162.545922L875.947706,160.650238L876.962060,155.102218L876.603484,153.941346L876.023230,152.678794L875.025921,151.612944L873.938358,149.872523L873.951206,148.115069L874.348718,146.657062L874.678258,145.981095L875.498087,144.686698L876.441421,143.630601L879.591178,145.102647L881.327462,144.874445L882.959602,144.397315L884.007192,143.649184L885.484080,142.273010L886.165123,141.150226L894.733270,135.356170L899.247758,133.072971L901.439789,132.412417L902.462160,131.522555L902.893359,129.992597L906.893676,130.318783L907.650347,131.255825L911.310027,137.364528Z " data-name="Niederösterreich" data-realname="Niederösterreich"/><path d="M911.310027,137.364528L907.650347,131.255825L906.893676,130.318783L902.893359,129.992597L902.462160,131.522555L901.439789,132.412417L899.247758,133.072971L894.733270,135.356170L886.165123,141.150226L885.484080,142.273010L884.007192,143.649184L882.959602,144.397315L881.327462,144.874445L879.591178,145.102647L876.441421,143.630601L875.498087,144.686698L874.678258,145.981095L874.348718,146.657062L873.951206,148.115069L873.938358,149.872523L875.025921,151.612944L876.023230,152.678794L876.603484,153.941346L876.962060,155.102218L875.947706,160.650238L877.019139,162.545922L877.853818,163.383871L878.374218,164.612235L879.917344,165.453786L887.809578,166.015294L891.264755,165.305823L894.676715,165.206707L896.461916,166.427002L898.805084,167.436752L900.052947,167.714750L902.947037,167.752309L904.272260,166.781687L904.920257,166.053750L905.322065,165.024928L905.710647,164.366833L906.735138,163.426488L908.647733,162.839798L914.697616,162.423263L923.677663,163.896406L920.768347,158.087200L919.851839,155.331763L920.346011,150.039544L921.244099,145.960829L921.331718,145.348213L921.162040,144.870974L920.807791,144.167136L919.808546,143.210879L919.278897,140.733055L918.830756,139.320051L917.462367,137.860238L916.751623,136.287130L915.381715,135.052386L912.952844,135.510335L912.141390,136.947971L911.798601,137.825769L911.699862,137.887752L911.310027,137.364528Z " data-name="Wien" data-realname="Wien"/></g></svg>