<?xml version="1.0" encoding="utf-8"?><!DOCTYPE svg  PUBLIC '-//W3C//DTD SVG 1.1//EN'  'http://www.w3.org/Graphics/SVG/1.1/DTD/svg11.dtd'><svg enable_background="new 0 0 1000 437" height="437px" pretty_print="False" style="stroke-linejoin: round; stroke:#000; fill: none;" version="1.1" viewBox="0 0 1000 437" width="1000px" xmlns="http://www.w3.org/2000/svg" xmlns:xlink="http://www.w3.org/1999/xlink"><defs><style type="text/css"><![CDATA[path { fill-rule: evenodd; }]]></style></defs><metadata><views><view h="437.650402152" padding="0" w="1000"><proj flip="auto" id="robinson" lon0="9.87309454727"/><bbox h="43.14" w="98.79" x="124.65" y="-819.02"/></view></views></metadata><g class="" id="states"><path d="M87.508604,287.665266L85.526130,287.873148L84.923620,287.582031L85.403372,286.545992L86.523354,284.675117L87.040145,284.362590L88.766066,283.917345L89.380426,283.377913L89.651419,282.273357L89.531937,281.280109L89.175370,280.192670L91.249402,274.061838L91.190799,271.077726L88.702402,269.960283L82.945111,270.859376L81.450487,272.336451L80.909451,272.704648L80.226397,272.700367L78.824558,271.993941L78.165330,271.921158L76.467088,272.627584L75.489073,273.265507L74.603117,273.299757L73.265224,272.237979L72.474351,270.653869L72.260659,268.872808L71.817902,267.151678L70.297331,265.713118L73.199342,263.722245L73.724639,261.979690L72.465031,260.035900L65.556053,251.943856L64.084612,252.526143L62.955398,253.399573L61.817159,253.827725L60.333280,253.091304L60.079550,252.123680L60.013008,251.618460L59.987619,251.117522L58.673849,248.886845L56.951842,247.482502L55.495493,245.932587L54.988599,243.192403L53.447501,244.279913L51.472639,244.613873L47.530409,244.348418L43.497973,243.098209L42.837278,243.252344L41.258529,244.142904L40.197900,244.211409L37.451517,243.029704L36.859441,241.278556L37.017958,239.261953L36.483639,237.301011L34.871227,235.870981L32.974338,235.297257L31.006330,235.485644L29.140064,236.350512L26.403308,239.193448L24.915725,242.207430L24.932601,242.211069L26.787321,243.576847L28.571346,246.649848L23.000313,246.357181L21.343877,246.649848L21.022974,247.235181L20.392632,249.430179L19.724290,250.064289L18.876502,250.210622L16.110080,250.064289L15.313718,249.674067L15.008878,248.210736L14.139639,247.918069L13.143613,248.210736L11.619457,249.625290L10.708197,250.064289L8.726212,250.064289L6.841828,249.674067L5.055122,248.893624L3.602319,248.068836L3.624240,248.141859L7.769791,253.142682L12.775770,255.052238L16.694899,257.886593L16.929238,264.908207L15.768846,267.425690L10.916494,272.935842L10.374087,274.421471L9.832887,277.341335L9.382721,278.480160L5.098738,283.112477L1.145081,289.251670L2.420548,290.767179L2.960187,291.177819L4.732914,292.526697L4.274268,293.888337L3.955638,294.834169L4.613456,296.289705L5.940523,297.732387L7.185959,300.031237L7.106199,301.212759L5.913661,303.704202L5.996555,305.142545L8.037012,306.147297L10.030421,307.128807L13.356949,310.878669L13.953907,312.511478L14.663345,314.451756L14.901691,315.103576L14.193303,319.409689L13.733252,319.935883L11.615780,322.357449L10.731140,323.368968L13.234828,323.929678L20.136598,323.193478L22.367179,323.480254L47.713976,330.225727L47.588375,332.113195L48.169902,332.524068L48.988418,332.468429L49.520309,332.982019L49.568644,333.957833L49.099492,335.541375L48.963201,339.427377L48.626996,341.211982L48.922872,342.765463L50.708365,344.811059L54.101954,346.967877L68.472855,350.883412L73.805458,355.055530L76.866539,356.536053L82.672911,358.110687L84.517025,358.171058L84.494837,358.102263L84.348556,357.648703L81.684652,352.248597L78.471735,348.029286L78.081243,346.398855L78.441502,344.990929L80.053763,343.159313L81.613106,341.909687L82.971704,340.214966L83.709437,338.160723L83.911987,335.276160L83.759899,333.495740L83.232009,331.188858L82.986261,329.181535L83.100705,326.587801L84.303558,319.979110L85.500084,316.884385L90.295841,310.232429L92.053887,306.118690L92.083267,301.503990L91.896620,299.868697L89.935149,292.428366L87.508604,287.665266Z " data-name="Vorarlberg" data-realname="Vorarlberg"/><path d="M998.854919,166.200592L995.575385,163.867840L991.206077,162.588054L988.064409,161.192717L988.532169,158.474849L986.857409,157.366318L986.316660,157.092397L986.793018,154.010828L987.324849,152.333120L988.547109,150.933621L986.698246,149.388628L985.988979,148.429775L985.988631,148.430107L984.484395,149.868093L983.602371,150.270389L982.483992,150.535735L980.910401,150.261830L979.731879,149.611308L978.287223,149.024986L977.358349,149.358804L975.760985,150.903796L975.466682,153.360419L975.650291,154.524551L976.169918,155.799974L976.104900,157.152451L975.301724,158.693266L973.782454,159.510761L971.615640,158.599104L967.365545,155.936933L965.237955,155.157981L962.563288,155.431898L959.629853,156.638851L954.586337,159.934491L949.224383,162.160168L947.656789,161.959000L946.148793,162.211531L943.441640,163.302983L940.394657,165.584361L938.896572,169.753434L937.740665,171.816614L936.027529,173.254864L931.709062,175.968744L929.339106,178.168990L924.385302,180.394951L914.926512,177.813695L910.335228,178.066254L906.632832,179.016564L900.609628,183.194567L898.706879,185.086688L896.980034,188.348717L897.253271,194.770194L896.904134,196.696676L896.252042,198.177938L894.763734,199.757675L893.301425,200.836526L888.804542,201.294612L889.586565,211.415494L890.799266,213.461974L893.066669,216.390431L897.900382,220.834535L902.211068,225.938028L898.466108,233.105253L897.716189,234.171350L896.614195,236.170822L896.015221,238.071820L895.907467,241.702562L896.512820,244.065970L897.412920,246.035477L897.499428,248.064925L897.412068,249.726159L891.027110,256.011429L888.996918,257.458577L885.818720,258.974226L882.504579,259.505130L874.891834,259.385249L867.824405,266.201335L865.482110,267.365884L864.951805,266.638041L864.450897,265.516305L863.659208,264.595795L862.068276,264.758490L860.810614,265.914479L858.995074,268.273544L858.657013,269.660720L858.957348,271.090704L861.677526,275.834446L863.485536,279.935928L865.117580,284.559659L866.651535,290.835810L867.045716,293.421568L871.649197,305.433770L872.012120,309.911381L871.035027,315.073747L871.313729,316.743130L872.033908,319.050272L873.355005,320.920783L878.587187,326.138387L879.049585,327.537987L878.997106,328.663648L878.194544,330.414181L875.068153,334.745461L869.241317,342.029515L864.780880,345.568652L863.963305,347.156302L863.636594,348.718252L863.669368,350.408554L863.315899,353.177163L863.493707,354.199859L864.201670,355.000037L865.935827,356.125408L866.525709,356.818596L866.783330,357.212256L867.114436,359.035050L867.210423,359.719658L867.220927,359.794571L867.687815,359.693852L870.347126,358.285552L875.572728,355.517661L877.627543,354.666140L879.213347,353.266890L883.566597,347.644013L884.990278,346.283178L888.187686,344.169140L890.871769,343.159179L891.739809,342.551486L892.531670,341.344649L892.518295,340.338942L892.333881,339.418818L892.593949,338.408813L893.855470,337.424477L895.149512,337.176251L896.155564,336.418733L896.525525,333.906475L897.635258,332.074675L899.424877,331.864958L904.435856,332.716664L909.782852,332.155994L912.613112,332.451309L915.020186,333.923594L915.769348,334.377260L916.467184,334.539894L917.099278,334.402939L917.636820,333.949274L917.635409,333.932154L919.810315,333.581204L923.256962,333.546965L925.719089,333.029098L924.982150,331.235804L922.955792,329.737805L921.022518,329.198521L917.198634,328.800477L918.749348,327.525013L924.504625,325.466268L925.928462,324.648753L926.386914,323.741348L925.850376,322.881020L924.234515,322.204738L921.503392,321.442847L920.337357,319.255595L920.999069,316.837166L923.666943,315.356125L926.406664,311.944538L926.874668,310.005422L925.093766,307.993509L922.904504,307.813720L918.584501,309.645848L916.723746,308.644173L916.688964,307.728106L917.535306,304.902822L917.373714,303.447354L916.396351,302.377149L915.281462,302.287251L914.235084,302.364306L913.393940,301.782112L912.702817,299.046631L914.439001,295.416385L913.762175,292.526697L913.761820,292.522416L913.760756,292.509573L917.717041,290.613060L919.467569,289.148923L920.157661,286.931296L919.398221,284.208467L914.784706,277.028799L914.402165,276.699138L913.798824,276.506479L913.175072,276.232475L912.753642,275.598839L912.754113,274.618413L913.290719,274.173153L913.922064,273.882022L914.168269,273.393947L913.311809,267.040361L914.475086,264.942458L916.094919,264.557128L917.943268,265.601800L919.710050,267.793892L933.446042,262.270830L938.129910,258.970767L939.862805,257.749585L938.766857,251.074707L940.150915,249.691773L943.881902,248.313120L945.107873,246.198042L945.041466,243.646246L943.842213,241.569700L941.880462,239.989813L939.552906,238.919430L940.017206,235.708283L938.615128,232.360136L936.088005,229.731291L933.116262,228.609539L928.820687,229.243201L926.417387,228.432835L919.882258,226.229034L916.287085,226.922634L908.685541,224.383721L906.202244,223.214883L907.256870,221.973263L909.029283,219.216023L909.927213,218.385429L910.759036,219.203178L911.456704,219.721230L912.078992,219.828266L912.912753,219.370154L914.379245,218.171358L919.440759,215.812311L920.480843,214.896096L921.082669,213.470403L920.666651,211.286920L921.321561,209.685709L926.000520,207.827629L931.581469,208.418446L942.436908,211.907713L944.183536,212.896702L945.019229,214.386614L945.658868,216.133414L946.446047,217.301012L946.813466,217.845972L948.396071,219.143239L949.876365,219.879643L957.389286,220.872934L958.527596,220.637455L959.881206,219.417249L962.169971,215.919345L963.806246,214.664903L966.101398,219.006233L971.170277,219.785451L981.431011,217.563399L990.943480,216.471644L993.561942,215.401298L991.993610,214.604963L990.766217,213.341963L989.966714,211.672240L989.249746,206.260686L988.071647,202.904204L987.645846,200.052941L989.457851,198.190647L988.508342,197.141776L986.971692,194.046564L985.879369,193.387285L983.021075,192.304189L982.125648,191.559297L981.927249,189.752729L983.510519,189.020688L987.995469,188.160223L990.033068,186.713281L991.193031,185.039465L991.764831,182.869094L992.050296,179.919658L991.749201,179.590043L991.038680,179.401693L990.356219,179.067799L990.157036,178.348644L990.469485,177.877772L991.632050,177.171465L991.866126,176.893223L992.108600,175.472061L992.656974,174.436161L992.621047,173.408830L991.113745,172.047626L998.854919,166.200592Z " data-name="Burgenland" data-realname="Burgenland"/><path d="M874.891834,259.385249L870.071039,256.015711L868.475822,253.613783L867.509364,251.806981L867.285426,251.070559L867.067426,249.905983L866.578459,248.681466L866.127309,247.919353L865.637176,247.431258L864.984564,247.208618L861.996160,248.540175L860.737864,248.921231L859.792924,248.878416L858.719502,248.514486L857.411026,247.525452L854.047476,246.009788L843.149788,244.442746L841.226431,240.649304L839.411189,238.020442L835.774734,235.802610L832.583599,235.802610L831.566415,235.618505L830.688132,235.211760L830.274598,234.141380L830.378196,233.396396L830.845014,231.829362L830.890803,230.621977L830.762174,229.534476L830.461916,228.601110L830.213201,228.053079L829.311368,226.760071L828.582694,226.092161L827.520934,225.604073L825.844446,225.860961L821.588042,227.941761L820.182851,228.014546L818.877346,227.290975L817.700151,225.107422L817.078363,223.219298L815.909786,218.424095L815.187700,217.238147L814.200906,216.488903L812.462258,216.219176L811.393321,216.398994L810.105559,216.398994L808.570336,216.116423L805.959673,214.994702L804.013484,213.915798L802.291344,212.057693L799.390787,209.600217L790.442931,208.949459L785.106923,205.824132L773.867971,201.320299L767.983818,196.987790L765.801305,196.247162L763.129609,196.037389L755.186815,197.719859L754.303704,197.745545L748.794884,197.039164L745.478793,200.969243L744.860387,202.210784L743.671839,203.478019L742.318996,204.210107L737.319577,205.169102L730.781307,207.373948L726.793494,208.392892L725.520413,208.401454L723.286854,208.054670L721.310668,208.131734L718.693707,208.735395L713.549095,210.670544L710.420996,212.348824L707.120771,213.025277L704.351174,212.708457L700.153257,209.908470L698.841998,208.786770L698.079715,208.435705L684.359159,208.495643L679.541358,205.387445L671.566377,211.124364L653.057569,217.563533L651.750725,219.241845L651.345824,220.402110L649.981856,221.588067L647.787602,222.607051L643.705904,223.634599L640.515520,225.295807L634.879261,229.123453L631.709918,229.971189L627.838099,229.975470L625.110078,229.303275L622.161155,228.215776L614.412439,223.814421L613.168920,223.583222L611.397495,223.968553L606.624518,225.925183L600.302428,227.393731L597.760037,229.012134L596.945693,229.063511L596.176873,227.466516L595.880665,226.186353L594.182721,223.035196L587.777527,217.041203L582.013612,217.717663L579.982905,217.332337L576.441205,216.202050L572.431737,215.581250L570.601458,214.943325L567.278612,213.333534L566.081090,213.162280L564.647523,213.410598L550.989803,219.370287L548.883804,220.924445L547.357281,222.778309L546.784958,225.124548L546.601722,227.188220L546.602996,230.433591L546.797871,232.056282L547.368064,233.781732L548.549868,235.477215L550.117478,237.129884L551.912922,238.722613L553.030881,240.084141L554.414521,242.319103L555.217611,245.029316L555.433521,247.242870L555.065426,249.006862L554.687284,249.747567L554.171385,250.274195L551.037887,252.697538L550.652687,253.339766L549.058471,253.669443L547.868604,254.221758L535.494724,252.200881L534.599682,254.658473L533.868467,257.715467L533.772001,258.991352L535.446849,264.882652L540.133683,276.039949L544.017486,282.153616L548.413639,285.475833L550.763942,286.862931L552.762959,287.316733L554.550391,286.785870L556.314625,285.527207L558.452329,284.730907L562.144239,284.379849L564.034761,283.275297L566.005494,282.735863L567.815513,283.711981L570.234636,287.440886L573.415752,291.311009L574.200296,292.856471L574.646388,294.252086L575.404682,296.007294L576.557553,297.539878L581.266970,302.321631L585.393644,304.723163L586.505271,306.144374L586.337704,307.848100L583.961172,310.621966L580.288970,313.849520L579.284762,315.334857L579.204574,317.419439L579.703145,320.741009L579.149205,322.607217L577.871879,325.778854L572.784964,334.805378L568.098359,340.377592L573.449712,344.002374L575.376400,345.127871L576.620708,345.594328L579.028308,345.358960L581.334057,344.742721L589.116270,339.311960L593.921986,337.261980L595.714056,334.317476L596.225939,333.127669L596.724065,332.327325L597.794672,331.201698L599.734390,329.883460L613.778595,323.934092L617.621720,323.330580L622.305914,323.394783L625.815308,324.730211L631.389183,327.944596L641.001810,330.491221L643.347281,331.415696L644.769596,332.348725L645.130816,332.802396L646.302274,333.007832L648.690187,333.093430L661.894541,328.984652L665.505847,329.241455L674.119748,328.753530L677.790639,330.007580L694.004333,328.924732L708.453533,325.945780L710.507405,326.236830L711.917823,326.981573L713.977196,328.351203L719.603295,333.846691L731.053701,347.490091L731.159322,352.449716L730.531775,354.490834L729.772960,355.971366L729.203876,357.973897L729.069570,358.923801L729.426217,360.391425L730.255338,362.586399L732.530337,366.608235L734.510051,372.443836L735.232975,377.971013L737.133682,381.923647L746.023973,390.084919L747.191585,391.291067L747.254271,391.355820L756.204824,392.177370L760.526744,392.574047L777.444684,391.809863L784.766376,391.479125L788.773007,392.740850L791.271385,394.521952L791.922703,394.986237L795.051561,396.598594L798.984116,395.995569L801.324984,394.327598L801.631447,393.636395L802.049327,392.693803L802.282633,391.124475L802.329094,390.811899L803.449904,388.455170L805.376908,387.124932L808.166345,386.483330L810.989129,386.449111L813.029553,386.936729L814.711418,386.517549L815.353973,386.083012L816.014347,385.636406L816.696807,384.186346L816.517347,382.060397L816.733894,379.562224L818.960176,380.678713L829.223015,381.974845L832.720203,381.803740L836.523666,380.450192L841.470321,378.689555L845.137121,378.415775L848.875020,379.040335L858.180359,382.941583L861.035068,383.371383L863.635407,383.762872L865.158738,384.635483L867.850651,387.311008L867.870007,387.330244L867.868708,387.321872L867.276981,383.510498L865.577613,380.948207L862.629290,379.399669L860.784366,375.348513L860.443425,372.447980L860.421848,370.044142L860.417338,369.543066L860.925116,364.400393L860.721850,363.228060L860.103207,362.860098L859.950834,362.496413L861.145612,361.328334L861.895884,360.943249L867.220927,359.794571L867.210423,359.719658L867.114436,359.035050L866.783330,357.212256L866.525709,356.818596L865.935827,356.125408L864.201670,355.000037L863.493707,354.199859L863.315899,353.177163L863.669368,350.408554L863.636594,348.718252L863.963305,347.156302L864.780880,345.568652L869.241317,342.029515L875.068153,334.745461L878.194544,330.414181L878.997106,328.663648L879.049585,327.537987L878.587187,326.138387L873.355005,320.920783L872.033908,319.050272L871.313729,316.743130L871.035027,315.073747L872.012120,309.911381L871.649197,305.433770L867.045716,293.421568L866.651535,290.835810L865.117580,284.559659L863.485536,279.935928L861.677526,275.834446L858.957348,271.090704L858.657013,269.660720L858.995074,268.273544L860.810614,265.914479L862.068276,264.758490L863.659208,264.595795L864.450897,265.516305L864.951805,266.638041L865.482110,267.365884L867.824405,266.201335L874.891834,259.385249Z " data-name="Steiermark" data-realname="Steiermark"/><path d="M675.427109,435.650402L677.672351,434.774224L678.165947,433.484497L678.712615,432.055846L679.593992,428.854316L681.382356,426.422057L682.640732,425.968936L685.509168,425.746649L686.830453,425.404667L688.148103,424.635200L690.638502,422.241237L691.232841,422.104437L692.027965,422.225861L693.024477,422.378038L693.823101,420.334547L695.257282,418.722790L695.834307,417.598383L696.573261,416.811712L698.721131,415.952348L699.954886,416.674899L703.324497,416.187499L706.178142,415.033115L706.878424,414.473017L707.796245,412.362293L708.992030,409.611497L709.778996,407.077196L710.611689,404.394673L711.915645,401.606493L713.934026,398.835302L715.562872,398.223743L717.443605,398.420469L719.682329,398.160080L720.164511,398.103996L722.939926,396.537782L724.734191,395.525119L726.664248,395.833050L729.450833,398.980707L733.938334,392.924761L741.421945,390.820453L744.598702,391.112060L747.254271,391.355820L747.191585,391.291067L746.023973,390.084919L737.133682,381.923647L735.232975,377.971013L734.510051,372.443836L732.530337,366.608235L730.255338,362.586399L729.426217,360.391425L729.069570,358.923801L729.203876,357.973897L729.772960,355.971366L730.531775,354.490834L731.159322,352.449716L731.053701,347.490091L719.603295,333.846691L713.977196,328.351203L711.917823,326.981573L710.507405,326.236830L708.453533,325.945780L694.004333,328.924732L677.790639,330.007580L674.119748,328.753530L665.505847,329.241455L661.894541,328.984652L648.690187,333.093430L646.302274,333.007832L645.130816,332.802396L644.769596,332.348725L643.347281,331.415696L641.001810,330.491221L631.389183,327.944596L625.815308,324.730211L622.305914,323.394783L617.621720,323.330580L613.778595,323.934092L599.734390,329.883460L597.794672,331.201698L596.724065,332.327325L596.225939,333.127669L595.714056,334.317476L593.921986,337.261980L589.116270,339.311960L581.334057,344.742721L579.028308,345.358960L576.620708,345.594328L575.376400,345.127871L573.449712,344.002374L568.098359,340.377592L563.928711,336.003727L552.028463,328.462485L547.198100,326.373795L543.749129,325.466402L537.844359,325.064066L524.384775,322.615778L521.499843,322.444567L509.110582,319.696607L503.821223,318.344008L501.367317,318.472419L499.364325,318.900458L496.236609,321.648435L493.314628,323.694400L486.540770,326.579241L481.444861,327.537987L471.534240,328.021638L467.541636,327.657830L465.019154,327.067175L462.755104,326.031383L451.812632,320.205968L445.295912,318.446737L441.016402,318.061501L432.772908,316.340768L426.549029,313.781032L421.126373,310.900206L419.383488,310.270955L418.167405,310.181061L417.569162,310.450741L417.187507,310.900206L417.029869,311.323986L416.962738,311.880463L416.827509,312.334205L416.412127,312.899239L415.965856,313.301611L414.294653,314.230487L414.886650,317.410878L416.043544,318.716402L417.864924,319.927746L429.490079,323.176491L430.688896,324.481959L430.635463,326.211149L429.208264,329.678018L428.938078,330.910660L428.828815,332.091928L428.853694,332.802396L429.006411,333.585618L429.540183,335.190563L430.535072,336.620016L431.929261,338.083689L433.178726,339.958188L435.985475,342.093708L437.395129,342.936778L439.144594,344.485954L440.303471,346.219121L441.086205,348.491450L441.536421,350.703819L442.609179,353.331210L444.111201,354.961526L450.559723,360.532624L459.134764,370.022368L459.999653,371.314396L459.953928,371.879118L459.853241,372.229928L459.634703,372.666299L459.246119,373.017105L458.779247,373.111224L457.699459,372.948656L452.767433,369.911132L451.340657,369.466190L449.809630,369.637322L444.585926,371.648096L432.845922,373.171118L430.105661,374.381814L429.856080,377.252331L429.385064,379.228691L428.549138,381.615657L424.608551,389.024177L424.106062,390.298777L424.090237,390.338915L425.156019,390.743465L427.669675,392.313149L428.919883,392.775066L430.166143,392.740850L432.247278,392.026588L433.282291,391.906831L434.448262,392.237519L434.448321,392.237536L437.836725,393.198488L445.652552,397.428280L476.856359,399.348494L487.879784,401.512411L496.612863,405.972593L499.476518,406.938997L504.845004,407.169905L518.213956,404.685458L524.078186,405.562081L532.142150,405.053213L533.082111,405.356824L535.085957,407.195561L536.142784,407.807037L541.796565,407.986630L558.175793,412.476291L560.192459,412.655871L562.241693,412.305262L564.262906,412.450637L573.161443,414.284891L574.972636,414.267789L583.511157,413.049234L587.559698,413.622172L600.053843,418.564605L602.253322,418.795470L604.377218,418.463306L606.681795,418.102872L609.019816,418.154176L611.228311,418.709965L613.237204,419.552188L621.097024,425.096881L622.539463,425.429919L622.800389,425.490162L635.109646,425.791777L651.063075,426.182673L655.480583,425.336270L656.914925,425.609856L657.602422,426.387859L658.094909,427.319739L658.891752,428.089170L661.231485,428.993565L663.116232,429.722039L665.363259,430.021250L669.884129,429.080865L671.852331,431.230903L673.554035,434.064724L675.427109,435.650402Z " data-name="Kärnten" data-realname="Kärnten"/><path d="M668.157794,69.986219L666.254480,71.690544L664.090867,71.570830L662.977946,70.489139L662.086041,68.932906L660.557141,67.372438L659.691506,67.214256L657.731441,67.799960L656.708157,67.705904L656.234757,67.009047L656.136633,65.906063L655.893094,64.850125L655.005715,64.230251L652.997886,64.367050L649.190497,65.948814L647.254300,66.316473L645.685836,66.000115L640.282508,63.708707L636.904780,60.613739L635.078859,61.716623L632.634262,68.244585L630.696230,70.027395L624.066286,72.485794L621.557371,74.260177L620.553175,74.602233L619.301888,74.721953L606.005663,70.873928L587.300752,69.129570L582.728017,67.564822L581.570192,66.743987L579.134121,64.384150L578.498482,63.477861L577.722789,61.220750L577.931322,60.741980L578.659223,60.511146L579.425471,58.963728L579.800557,58.724352L580.444633,58.826941L581.029156,58.673057L581.196553,57.638624L580.783522,56.629856L579.964038,56.168223L579.034064,55.860469L578.332085,55.339002L577.392323,53.979790L575.006395,51.184537L573.778790,50.141696L564.668342,46.090195L561.652805,44.098747L559.156804,42.543249L556.583435,41.406568L551.232967,40.227181L547.823134,47.115862L547.639615,48.688590L548.301567,48.483449L549.863100,50.782784L550.549620,51.287112L552.235701,51.945310L550.590462,53.338665L550.395444,55.313356L551.474095,60.656486L551.580917,63.435112L551.347526,65.820561L550.692062,67.992345L548.738053,72.071065L548.171282,72.853493L547.152378,73.755649L546.136105,74.131907L543.438826,74.499616L542.985478,74.414102L542.009939,76.299712L541.161827,80.716795L540.859062,80.464504L535.339255,78.433385L533.148524,75.850752L530.926077,74.525270L528.561997,73.490559L514.745033,70.309572L510.390259,70.805521L506.203753,72.152301L505.089426,73.067273L504.452307,74.217420L504.575794,74.816019L505.021215,75.559999L505.760045,78.544561L507.092271,80.139520L507.479368,81.593406L507.226931,83.205546L505.685112,86.340139L505.168146,87.858311L505.032236,89.397900L505.604493,94.072476L505.454173,95.796119L504.950737,96.933831L504.413889,97.789266L504.216099,98.644711L503.715843,102.156418L502.064636,104.735768L489.882927,114.164182L485.615045,116.239096L467.702617,118.895919L454.394866,123.448221L452.362625,124.718972L447.740696,128.672537L443.637191,130.662221L441.692910,132.048606L441.895870,132.442275L434.695344,133.636128L432.771817,134.530459L431.649977,135.634476L429.457764,138.826781L427.856142,140.487162L422.829574,143.576913L422.335829,144.124690L420.624124,146.602561L419.842633,146.910694L418.984193,146.876457L418.157672,147.120396L417.434178,148.310142L417.322971,150.544161L418.132629,152.726865L419.432949,154.721294L420.764115,156.356237L430.563915,164.539839L432.780558,168.238037L433.246269,170.019748L435.811325,169.124212L441.855019,167.656041L443.416576,166.799971L443.735336,166.072316L444.568340,163.572637L446.108128,162.498304L448.513230,161.860556L454.070687,161.595185L457.407986,161.984681L460.781347,163.615440L464.848378,167.056791L465.533427,167.433462L466.162804,167.690284L471.448856,169.226942L476.507647,169.710629L484.032252,168.948716L492.777048,165.455953L496.928844,167.887180L498.314792,168.460751L499.545517,169.149895L500.748061,170.318451L500.713347,171.594029L499.592962,172.809690L497.764211,173.220620L495.835452,173.066521L492.238638,172.193297L491.308764,172.321712L490.667558,172.792568L490.253784,173.605868L489.921123,175.009891L489.729876,176.991812L489.720683,181.644927L489.991982,183.828126L490.506497,185.985667L492.592728,192.030339L493.244465,193.503007L494.543377,194.881502L496.695357,196.088762L520.821169,200.583938L524.070574,202.964274L522.575580,204.685323L520.473770,205.019259L515.311309,205.216196L514.454720,205.832695L514.263121,206.611883L514.981355,207.844888L515.449639,208.414298L516.201962,208.953741L517.493291,209.604498L520.306623,210.593480L523.600346,210.940267L524.688679,212.494390L525.440319,213.907235L521.483904,226.503183L523.894719,229.739988L524.382302,231.178573L524.111522,232.891177L523.465258,234.201321L521.639510,237.104195L521.052241,239.279213L521.482849,241.779629L522.666584,244.023155L527.611600,248.090614L535.494724,252.200881L547.868604,254.221758L549.058471,253.669443L550.652687,253.339766L551.037887,252.697538L554.171385,250.274195L554.687284,249.747567L555.065426,249.006862L555.433521,247.242870L555.217611,245.029316L554.414521,242.319103L553.030881,240.084141L551.912922,238.722613L550.117478,237.129884L548.549868,235.477215L547.368064,233.781732L546.797871,232.056282L546.602996,230.433591L546.601722,227.188220L546.784958,225.124548L547.357281,222.778309L548.883804,220.924445L550.989803,219.370287L564.647523,213.410598L566.081090,213.162280L567.278612,213.333534L570.601458,214.943325L572.431737,215.581250L576.441205,216.202050L579.982905,217.332337L582.013612,217.717663L587.777527,217.041203L594.182721,223.035196L595.880665,226.186353L596.176873,227.466516L596.945693,229.063511L597.760037,229.012134L600.302428,227.393731L606.624518,225.925183L611.397495,223.968553L613.168920,223.583222L614.412439,223.814421L622.161155,228.215776L625.110078,229.303275L627.838099,229.975470L631.709918,229.971189L634.879261,229.123453L640.515520,225.295807L643.705904,223.634599L647.787602,222.607051L649.981856,221.588067L651.345824,220.402110L651.750725,219.241845L653.057569,217.563533L671.566377,211.124364L679.541358,205.387445L681.461475,201.311736L681.541359,199.299593L681.374029,195.455164L682.687835,189.324768L684.818946,186.456562L684.645156,183.352957L683.631204,182.094407L682.115434,180.677479L679.222557,178.862459L676.276502,177.509769L672.044572,176.422489L664.929626,173.537379L642.698492,159.985853L640.127980,157.601853L640.234099,156.835731L641.235270,156.587491L641.829940,156.266491L642.383044,155.752895L644.023112,152.863954L644.144686,152.307574L644.060372,151.451610L644.150098,151.015070L644.288907,150.689807L645.707939,149.217573L646.344956,148.194725L646.318261,147.565613L646.059428,147.103411L645.677648,146.632652L645.404096,145.973593L644.462553,141.291821L644.636616,140.350356L645.207828,138.998087L645.445840,137.551692L645.723360,130.931928L645.896515,129.892149L646.073226,129.532722L646.293887,129.216086L646.633549,128.856661L647.541738,128.201999L648.327248,127.812627L650.004667,126.554668L655.932363,126.648800L658.251267,127.324845L660.299727,128.463008L662.140847,130.088979L666.057765,134.457847L668.423178,136.182343L671.219933,136.875574L689.747710,133.045752L691.470757,131.783442L693.204003,129.421471L695.038260,127.846858L697.360294,126.965428L703.830099,126.691588L705.308303,127.016773L706.987340,127.829743L709.116703,129.806571L708.911783,126.118237L708.697290,111.845608L706.531772,103.649399L705.744797,102.169384L703.170804,100.561078L702.022630,95.227403L698.711069,94.239412L695.428931,90.749480L694.708672,89.073007L694.608433,87.610403L694.762034,86.622522L694.659396,85.130037L694.735452,84.539895L694.961935,84.227720L695.442973,84.137917L698.446858,84.326076L698.832194,84.052390L698.900790,83.368179L698.562570,81.640577L697.140100,79.827501L695.189232,78.536143L692.956812,77.890473L688.157789,77.351708L683.798534,75.491720L679.390832,73.961014L671.023682,72.387589L668.498653,70.480722L668.157794,69.986219Z " data-name="Oberösterreich" data-realname="Oberösterreich"/><path d="M535.494724,252.200881L527.611600,248.090614L522.666584,244.023155L521.482849,241.779629L521.052241,239.279213L521.639510,237.104195L523.465258,234.201321L524.111522,232.891177L524.382302,231.178573L523.894719,229.739988L521.483904,226.503183L525.440319,213.907235L524.688679,212.494390L523.600346,210.940267L520.306623,210.593480L517.493291,209.604498L516.201962,208.953741L515.449639,208.414298L514.981355,207.844888L514.263121,206.611883L514.454720,205.832695L515.311309,205.216196L520.473770,205.019259L522.575580,204.685323L524.070574,202.964274L520.821169,200.583938L496.695357,196.088762L494.543377,194.881502L493.244465,193.503007L492.592728,192.030339L490.506497,185.985667L489.991982,183.828126L489.720683,181.644927L489.729876,176.991812L489.921123,175.009891L490.253784,173.605868L490.667558,172.792568L491.308764,172.321712L492.238638,172.193297L495.835452,173.066521L497.764211,173.220620L499.592962,172.809690L500.713347,171.594029L500.748061,170.318451L499.545517,169.149895L498.314792,168.460751L496.928844,167.887180L492.777048,165.455953L484.032252,168.948716L476.507647,169.710629L471.448856,169.226942L466.162804,167.690284L465.533427,167.433462L464.848378,167.056791L460.781347,163.615440L457.407986,161.984681L454.070687,161.595185L448.513230,161.860556L446.108128,162.498304L444.568340,163.572637L443.735336,166.072316L443.416576,166.799971L441.855019,167.656041L435.811325,169.124212L433.246269,170.019748L433.308647,170.258391L434.130670,171.991980L435.278714,173.306097L438.541022,174.907024L441.347710,177.222832L442.441120,177.706545L444.781335,179.547236L449.828294,188.314336L452.912798,191.910338L453.560226,192.432619L445.829633,203.983069L445.193792,205.284562L445.004595,206.337749L445.033888,207.399502L444.874707,208.495509L444.107522,209.668584L444.108087,209.677146L444.081970,209.694271L441.841304,212.905265L444.116349,214.759092L451.537719,215.919345L453.494598,215.632493L456.750384,214.386614L458.812799,214.664903L460.517479,215.709558L462.250002,217.375018L465.075146,221.116976L466.285091,223.523148L466.794724,225.646754L466.847058,227.659049L466.694254,229.662787L466.390986,230.022433L465.041472,233.306350L464.990118,233.764472L463.020346,236.136436L462.658383,236.025116L463.016918,239.784300L463.297097,239.690106L463.162969,239.929872L462.086052,242.614395L461.787317,243.046831L461.978437,245.932587L462.155616,246.960155L462.515867,247.867840L462.994959,248.715584L463.402695,249.721744L463.534914,251.100396L460.019884,254.902385L459.150148,255.578863L457.734454,255.634523L456.887376,255.206372L456.106976,254.547019L454.799738,253.969015L453.423656,254.003267L452.365116,254.508486L451.267705,254.838162L449.788209,254.337225L443.047850,250.184149L436.648449,244.536806L435.480109,243.774692L434.214174,243.397917L432.162106,243.098209L428.756622,240.863247L427.795232,236.774383L429.154492,232.933858L432.655431,231.418203L429.897410,229.268890L426.350489,227.350782L424.138002,225.192918L425.312782,222.298653L423.066312,222.546977L415.560258,220.928592L410.858082,220.928592L406.217648,221.887634L403.778522,222.957996L399.385727,226.457403L403.111471,231.465434L405.967227,233.576219L410.790260,236.265015L412.071088,237.412465L412.572996,238.217393L412.479422,238.988068L411.989260,240.272529L412.199643,241.634057L412.855624,243.560749L415.769758,249.092493L416.144034,250.137186L415.900218,250.800823L415.344235,252.021057L414.528953,253.348329L412.129467,256.148438L410.876172,258.100801L408.401555,263.264263L407.557207,264.471633L406.559563,265.524868L405.467885,266.389718L404.157395,267.143250L402.675625,267.674146L396.213217,268.256418L394.922199,268.568962L393.964284,268.967132L393.260631,269.823413L392.392964,271.326180L391.377226,274.378792L390.172448,276.172670L388.640516,277.546971L387.008935,278.317604L384.518550,279.118205L380.242342,279.653364L378.248870,279.559176L376.436761,279.088236L373.371228,277.683973L371.797248,277.414251L369.885975,277.649722L365.399132,280.072929L350.888594,284.576784L346.822837,284.448348L344.993029,284.799406L341.423399,286.417691L341.914880,289.765537L340.467626,296.285558L340.288509,298.729977L340.486780,301.760842L340.911246,303.567350L341.692865,305.288224L342.556415,306.332727L344.844090,307.856661L345.904327,308.759885L347.131878,311.058589L347.691453,312.719456L348.439323,318.921860L348.374006,319.645242L348.366268,319.730931L354.587197,318.673464L357.762595,319.589464L357.851920,321.688953L361.401113,320.021913L372.909077,315.416186L380.369091,308.909708L382.551072,308.045011L385.235728,307.676872L388.403085,307.702556L392.959520,306.983397L396.491065,307.039046L400.403599,308.147748L403.947767,308.400308L406.522824,308.896866L408.875319,309.979872L414.294653,314.230487L415.965856,313.301611L416.412127,312.899239L416.827509,312.334205L416.962738,311.880463L417.029869,311.323986L417.187507,310.900206L417.569162,310.450741L418.167405,310.181061L419.383488,310.270955L421.126373,310.900206L426.549029,313.781032L432.772908,316.340768L441.016402,318.061501L445.295912,318.446737L451.812632,320.205968L462.755104,326.031383L465.019154,327.067175L467.541636,327.657830L471.534240,328.021638L481.444861,327.537987L486.540770,326.579241L493.314628,323.694400L496.236609,321.648435L499.364325,318.900458L501.367317,318.472419L503.821223,318.344008L509.110582,319.696607L521.499843,322.444567L524.384775,322.615778L537.844359,325.064066L543.749129,325.466402L547.198100,326.373795L552.028463,328.462485L563.928711,336.003727L568.098359,340.377592L572.784964,334.805378L577.871879,325.778854L579.149205,322.607217L579.703145,320.741009L579.204574,317.419439L579.284762,315.334857L580.288970,313.849520L583.961172,310.621966L586.337704,307.848100L586.505271,306.144374L585.393644,304.723163L581.266970,302.321631L576.557553,297.539878L575.404682,296.007294L574.646388,294.252086L574.200296,292.856471L573.415752,291.311009L570.234636,287.440886L567.815513,283.711981L566.005494,282.735863L564.034761,283.275297L562.144239,284.379849L558.452329,284.730907L556.314625,285.527207L554.550391,286.785870L552.762959,287.316733L550.763942,286.862931L548.413639,285.475833L544.017486,282.153616L540.133683,276.039949L535.446849,264.882652L533.772001,258.991352L533.868467,257.715467L534.599682,254.658473L535.494724,252.200881Z " data-name="Salzburg" data-realname="Salzburg"/><path d="M396.491065,307.039046L392.959520,306.983397L388.403085,307.702556L385.235728,307.676872L382.551072,308.045011L380.369091,308.909708L372.909077,315.416186L361.401113,320.021913L357.851920,321.688953L357.948297,323.955359L355.329375,327.221126L347.542800,331.047485L346.323101,333.949274L347.299093,335.592733L347.989075,337.484393L349.029229,341.306133L350.004041,343.150620L351.016799,344.716911L351.095263,346.231825L349.250925,347.883655L350.677554,348.371496L353.829447,348.850776L355.347516,349.488387L356.934553,350.806386L357.723968,351.846224L358.581254,352.650700L360.424468,353.224099L366.010019,353.390984L368.181836,354.627629L369.623414,358.247611L369.789572,360.284323L369.493141,361.482367L369.070184,362.629051L368.831436,364.545864L368.935173,366.685113L369.319119,367.806058L370.112837,368.456371L371.434796,369.226471L374.259854,370.142026L377.035042,370.467173L379.317108,371.686466L380.705758,375.310011L383.542663,380.623102L388.351857,384.105074L393.858983,385.995708L397.074401,386.476353L397.074418,386.476355L401.127315,387.082159L405.378010,389.477427L407.629470,390.384186L409.587564,390.546717L417.255834,389.674178L423.848929,390.247317L424.090237,390.338915L424.106062,390.298777L424.608551,389.024177L428.549138,381.615657L429.385064,379.228691L429.856080,377.252331L430.105661,374.381814L432.845922,373.171118L444.585926,371.648096L449.809630,369.637322L451.340657,369.466190L452.767433,369.911132L457.699459,372.948656L458.779247,373.111224L459.246119,373.017105L459.634703,372.666299L459.853241,372.229928L459.953928,371.879118L459.999653,371.314396L459.134764,370.022368L450.559723,360.532624L444.111201,354.961526L442.609179,353.331210L441.536421,350.703819L441.086205,348.491450L440.303471,346.219121L439.144594,344.485954L437.395129,342.936778L435.985475,342.093708L433.178726,339.958188L431.929261,338.083689L430.535072,336.620016L429.540183,335.190563L429.006411,333.585618L428.853694,332.802396L428.828815,332.091928L428.938078,330.910660L429.208264,329.678018L430.635463,326.211149L430.688896,324.481959L429.490079,323.176491L417.864924,319.927746L416.043544,318.716402L414.886650,317.410878L414.294653,314.230487L408.875319,309.979872L406.522824,308.896866L403.947767,308.400308L400.403599,308.147748L396.491065,307.039046Z M354.808265,219.314495L353.971870,217.486334L354.335786,216.330358L355.118608,215.337078L355.500022,214.026979L355.730095,212.258783L356.091431,211.500987L355.767925,211.556644L353.891533,212.271626L352.784990,212.879577L349.750045,215.123009L347.709933,215.842280L348.052981,217.195199L348.532419,218.111419L349.567673,219.198897L350.700837,220.106558L351.392390,220.487605L351.817177,221.399550L352.310887,225.826576L352.271011,227.376471L351.859632,228.433998L348.351199,232.535677L347.312664,232.719783L316.932286,231.598027L305.976356,233.516144L304.535453,234.269692L303.382380,237.086935L302.041761,237.472272L294.531260,236.174969L283.782597,236.136436L277.969730,235.160248L275.524656,235.091744L275.102996,235.571274L271.581062,238.285763L270.784357,240.041192L269.973562,243.877449L269.395271,245.410239L267.127418,247.679453L264.318948,248.647079L258.175482,249.520512L255.140469,248.715584L251.871281,248.338809L248.904371,248.938224L243.034197,255.030830L244.679997,255.407603L246.159268,256.208245L246.735521,257.441317L245.697619,259.085411L243.599810,259.868923L237.873462,259.984523L235.454748,260.652434L233.017763,262.673288L231.384864,264.677009L229.599009,266.398147L226.781999,267.519881L223.596767,267.211619L223.627521,262.707540L220.745788,261.722802L217.458836,262.497748L209.117365,267.584102L206.574494,268.256285L192.787719,268.085028L190.893501,267.168804L189.417250,264.925333L189.730310,264.908207L190.111208,264.146109L190.347798,262.998679L190.244979,261.885498L189.807227,261.131959L182.879398,255.086490L175.935231,252.406261L174.962165,251.091833L179.082949,248.621390L180.125092,247.482502L176.989109,245.542967L175.546599,244.866484L173.712657,244.759446L171.868683,245.213289L166.661832,247.285552L162.781835,247.688016L161.633512,247.396872L160.935604,246.609069L160.452271,245.752762L159.891697,245.230415L142.168402,239.630165L138.974952,239.595912L137.205526,240.679141L134.702311,243.851760L133.085862,244.999212L131.543024,245.230415L125.883618,244.502553L123.780858,243.697624L122.668574,243.046831L121.932365,242.284717L121.624913,240.863247L122.059935,239.809989L122.658607,239.013624L122.787634,238.362831L122.118916,236.817199L121.638827,236.508928L120.647620,236.847169L118.456238,237.185410L116.513892,237.849047L116.780618,239.279079L118.023255,241.107294L118.994566,242.961200L118.912150,244.493990L117.924991,251.100396L119.826356,251.960982L121.015707,253.031363L121.802748,254.491360L122.457411,256.542202L122.673114,260.095841L121.669111,263.820719L119.921313,267.173086L117.854224,269.660586L116.755131,270.311358L114.012856,271.137666L112.688406,271.921158L111.950928,272.961530L109.277967,277.992092L107.043385,280.714984L104.566301,282.727167L98.811170,285.822475L95.977542,286.777174L87.508604,287.665266L89.935149,292.428366L91.896620,299.868697L92.083267,301.503990L92.053887,306.118690L90.295841,310.232429L85.500084,316.884385L84.303558,319.979110L83.100705,326.587801L82.986261,329.181535L83.232009,331.188858L83.759899,333.495740L83.911987,335.276160L83.709437,338.160723L82.971704,340.214966L81.613106,341.909687L80.053763,343.159313L78.441502,344.990929L78.081243,346.398855L78.471735,348.029286L81.684652,352.248597L84.348556,357.648703L84.494837,358.102263L84.517025,358.171058L85.417684,358.200543L88.800572,357.366162L94.453627,354.845859L95.723484,353.155634L96.014882,351.889016L96.053118,350.494005L96.575873,348.397172L98.440215,345.491488L100.572678,345.149134L103.176953,345.726856L106.470530,345.594194L106.379358,342.500132L108.496973,338.699832L111.667582,335.421540L115.416103,333.534126L116.135125,333.410009L116.880759,333.534126L117.599160,333.923594L117.612849,333.923594L117.614187,333.949274L119.048672,335.207549L122.012890,339.016529L126.677832,342.080736L127.918674,343.287564L128.777256,346.082046L127.428415,351.709291L127.928404,355.243806L132.387003,358.234774L137.908659,358.756793L151.221803,355.577567L153.552612,355.355060L155.618520,355.817189L166.035952,361.020266L167.413907,362.693231L166.831431,363.839900L163.994883,365.889318L163.421917,366.706505L164.294546,368.156885L165.722294,368.199669L168.477690,367.442394L170.036458,367.883069L173.946903,369.739867L175.251387,369.782650L177.740188,369.166575L179.098088,369.183688L180.319317,369.714198L182.671260,371.378436L184.054591,371.861872L185.365929,371.776308L189.723707,370.492843L191.984202,370.219034L196.624904,370.608356L198.908378,371.254368L200.787613,371.027622L202.546162,369.354820L205.279973,364.990832L205.803612,364.545864L207.238559,363.976814L207.784582,363.441990L207.971675,362.611937L207.725875,360.891904L207.800489,360.258650L210.011521,355.153947L211.085738,349.330054L212.068301,347.293108L220.233482,339.992291L222.534046,338.776866L231.563231,336.226143L240.769589,334.899401L245.542522,335.781044L249.761288,337.501512L253.823698,337.676981L258.113846,333.949274L258.126551,333.932154L259.065464,332.643906L260.198552,331.877798L261.511208,331.616720L263.865459,332.091795L264.752720,332.524068L265.555062,333.144655L266.299621,333.949274L267.442028,334.531335L268.657540,334.719648L269.891844,334.522775L271.104315,333.949274L271.118003,333.949274L271.144389,333.932154L271.158078,333.932154L274.948644,332.969179L278.082206,332.716664L284.968352,333.906475L285.036795,333.906475L285.203560,333.949274L286.207333,334.026312L287.199588,333.906475L289.731332,334.129028L294.175883,336.850990L296.701147,337.655582L298.216582,337.351721L300.710393,335.532815L302.127618,334.728208L308.088338,333.906475L312.475407,330.799246L317.945270,328.196987L323.685298,326.467824L333.104496,326.082611L346.151499,320.107386L348.366268,319.730931L348.374006,319.645242L348.439323,318.921860L347.691453,312.719456L347.131878,311.058589L345.904327,308.759885L344.844090,307.856661L342.556415,306.332727L341.692865,305.288224L340.911246,303.567350L340.486780,301.760842L340.288509,298.729977L340.467626,296.285558L341.914880,289.765537L341.423399,286.417691L344.993029,284.799406L346.822837,284.448348L350.888594,284.576784L365.399132,280.072929L369.885975,277.649722L371.797248,277.414251L373.371228,277.683973L376.436761,279.088236L378.248870,279.559176L380.242342,279.653364L384.518550,279.118205L387.008935,278.317604L388.640516,277.546971L390.172448,276.172670L391.377226,274.378792L392.392964,271.326180L393.260631,269.823413L393.964284,268.967132L394.922199,268.568962L396.213217,268.256418L402.675625,267.674146L404.157395,267.143250L405.467885,266.389718L406.559563,265.524868L407.557207,264.471633L408.401555,263.264263L410.876172,258.100801L412.129467,256.148438L414.528953,253.348329L415.344235,252.021057L415.900218,250.800823L416.144034,250.137186L415.769758,249.092493L412.855624,243.560749L412.199643,241.634057L411.989260,240.272529L412.479422,238.988068L412.572996,238.217393L412.071088,237.412465L410.790260,236.265015L405.967227,233.576219L403.111471,231.465434L399.385727,226.457403L398.188792,227.410723L396.179749,228.185672L393.428050,228.648073L390.711153,228.588132L388.807690,227.813182L384.711192,225.132978L383.579172,224.049767L382.770606,222.692546L381.169914,219.160364L380.496076,218.205609L378.306434,217.845972L373.234348,219.532848L371.018665,219.841110L363.313587,218.462494L360.460031,218.813570L357.597945,220.119402L356.178392,220.303504L354.808265,219.314495Z " data-name="Tirol" data-realname="Tirol"/><path d="M703.616423,0.000000L700.776716,0.307399L700.379685,0.580644L700.221297,1.135679L700.282594,1.904201L700.475704,2.800827L698.969580,6.285034L699.289934,10.990860L700.232588,16.047397L700.582004,20.617551L698.629845,30.972509L697.847683,33.057438L697.722346,34.211023L698.061745,35.253544L698.733272,36.560999L699.399465,37.629207L699.707246,37.928309L698.433851,40.825417L695.797550,41.030528L688.849185,38.714528L681.954097,37.928309L680.027962,38.560702L679.379520,40.133173L679.008574,42.141562L677.847134,44.081654L677.430379,47.244072L670.932927,52.304331L668.715334,55.663850L668.586837,60.130700L669.045269,65.187852L668.713351,69.488699L668.157794,69.986219L668.498653,70.480722L671.023682,72.387589L679.390832,73.961014L683.798534,75.491720L688.157789,77.351708L692.956812,77.890473L695.189232,78.536143L697.140100,79.827501L698.562570,81.640577L698.900790,83.368179L698.832194,84.052390L698.446858,84.326076L695.442973,84.137917L694.961935,84.227720L694.735452,84.539895L694.659396,85.130037L694.762034,86.622522L694.608433,87.610403L694.708672,89.073007L695.428931,90.749480L698.711069,94.239412L702.022630,95.227403L703.170804,100.561078L705.744797,102.169384L706.531772,103.649399L708.697290,111.845608L708.911783,126.118237L709.116703,129.806571L706.987340,127.829743L705.308303,127.016773L703.830099,126.691588L697.360294,126.965428L695.038260,127.846858L693.204003,129.421471L691.470757,131.783442L689.747710,133.045752L671.219933,136.875574L668.423178,136.182343L666.057765,134.457847L662.140847,130.088979L660.299727,128.463008L658.251267,127.324845L655.932363,126.648800L650.004667,126.554668L648.327248,127.812627L647.541738,128.201999L646.633549,128.856661L646.293887,129.216086L646.073226,129.532722L645.896515,129.892149L645.723360,130.931928L645.445840,137.551692L645.207828,138.998087L644.636616,140.350356L644.462553,141.291821L645.404096,145.973593L645.677648,146.632652L646.059428,147.103411L646.318261,147.565613L646.344956,148.194725L645.707939,149.217573L644.288907,150.689807L644.150098,151.015070L644.060372,151.451610L644.144686,152.307574L644.023112,152.863954L642.383044,155.752895L641.829940,156.266491L641.235270,156.587491L640.234099,156.835731L640.127980,157.601853L642.698492,159.985853L664.929626,173.537379L672.044572,176.422489L676.276502,177.509769L679.222557,178.862459L682.115434,180.677479L683.631204,182.094407L684.645156,183.352957L684.818946,186.456562L682.687835,189.324768L681.374029,195.455164L681.541359,199.299593L681.461475,201.311736L679.541358,205.387445L684.359159,208.495643L698.079715,208.435705L698.841998,208.786770L700.153257,209.908470L704.351174,212.708457L707.120771,213.025277L710.420996,212.348824L713.549095,210.670544L718.693707,208.735395L721.310668,208.131734L723.286854,208.054670L725.520413,208.401454L726.793494,208.392892L730.781307,207.373948L737.319577,205.169102L742.318996,204.210107L743.671839,203.478019L744.860387,202.210784L745.478793,200.969243L748.794884,197.039164L754.303704,197.745545L755.186815,197.719859L763.129609,196.037389L765.801305,196.247162L767.983818,196.987790L773.867971,201.320299L785.106923,205.824132L790.442931,208.949459L799.390787,209.600217L802.291344,212.057693L804.013484,213.915798L805.959673,214.994702L808.570336,216.116423L810.105559,216.398994L811.393321,216.398994L812.462258,216.219176L814.200906,216.488903L815.187700,217.238147L815.909786,218.424095L817.078363,223.219298L817.700151,225.107422L818.877346,227.290975L820.182851,228.014546L821.588042,227.941761L825.844446,225.860961L827.520934,225.604073L828.582694,226.092161L829.311368,226.760071L830.213201,228.053079L830.461916,228.601110L830.762174,229.534476L830.890803,230.621977L830.845014,231.829362L830.378196,233.396396L830.274598,234.141380L830.688132,235.211760L831.566415,235.618505L832.583599,235.802610L835.774734,235.802610L839.411189,238.020442L841.226431,240.649304L843.149788,244.442746L854.047476,246.009788L857.411026,247.525452L858.719502,248.514486L859.792924,248.878416L860.737864,248.921231L861.996160,248.540175L864.984564,247.208618L865.637176,247.431258L866.127309,247.919353L866.578459,248.681466L867.067426,249.905983L867.285426,251.070559L867.509364,251.806981L868.475822,253.613783L870.071039,256.015711L874.891834,259.385249L882.504579,259.505130L885.818720,258.974226L888.996918,257.458577L891.027110,256.011429L897.412068,249.726159L897.499428,248.064925L897.412920,246.035477L896.512820,244.065970L895.907467,241.702562L896.015221,238.071820L896.614195,236.170822L897.716189,234.171350L898.466108,233.105253L902.211068,225.938028L897.900382,220.834535L893.066669,216.390431L890.799266,213.461974L889.586565,211.415494L888.804542,201.294612L893.301425,200.836526L894.763734,199.757675L896.252042,198.177938L896.904134,196.696676L897.253271,194.770194L896.980034,188.348717L898.706879,185.086688L900.609628,183.194567L906.632832,179.016564L910.335228,178.066254L914.926512,177.813695L924.385302,180.394951L929.339106,178.168990L931.709062,175.968744L936.027529,173.254864L937.740665,171.816614L938.896572,169.753434L940.394657,165.584361L943.441640,163.302983L946.148793,162.211531L947.656789,161.959000L949.224383,162.160168L954.586337,159.934491L959.629853,156.638851L962.563288,155.431898L965.237955,155.157981L967.365545,155.936933L971.615640,158.599104L973.782454,159.510761L975.301724,158.693266L976.104900,157.152451L976.169918,155.799974L975.650291,154.524551L975.466682,153.360419L975.760985,150.903796L977.358349,149.358804L978.287223,149.024986L979.731879,149.611308L980.910401,150.261830L982.483992,150.535735L983.602371,150.270389L984.484395,149.868093L985.988631,148.430107L985.988979,148.429775L983.751182,145.404275L982.299083,144.655352L980.168678,144.381462L978.279296,143.448529L974.694510,140.384458L973.530271,137.804034L973.201014,134.213805L972.312723,131.218484L969.738788,125.270921L969.614814,124.479368L969.624472,122.583950L969.438988,121.865156L968.899747,121.291837L968.064446,121.056521L966.513918,119.944125L965.278617,119.482057L964.226266,118.938702L963.706115,117.963240L963.477025,117.210260L962.972730,116.260488L962.451838,115.430515L962.068094,115.079705L961.467944,114.737452L961.638549,113.898939L962.070034,112.940649L962.303892,112.204827L961.591221,110.891487L960.136738,109.629503L958.668354,108.671265L957.889692,108.303373L955.222987,108.068094L954.159868,107.550484L953.665346,106.553772L953.587202,104.735768L953.751754,103.982914L954.034166,103.490996L954.281654,102.447286L954.670921,93.610565L955.005024,91.245453L956.137429,89.017276L959.201244,84.869043L959.697809,82.666736L960.535622,81.105923L962.574364,79.639220L964.560161,77.732130L964.767223,76.886419L965.276109,74.807467L963.368502,67.068900L958.452574,62.665633L955.663989,51.714513L952.239821,48.073170L950.075301,47.936410L945.172204,49.432234L942.676905,49.688665L940.200659,48.936470L935.230935,46.312421L933.177092,45.739763L928.211030,45.910705L926.099468,45.603010L924.291812,44.594465L923.172362,42.637261L922.476296,40.261366L921.272786,38.270142L918.695145,37.424109L916.252086,37.184830L908.265303,35.287725L905.928328,34.091390L904.694367,33.749586L903.502215,33.886307L901.207633,34.723735L899.859139,34.775007L896.044231,34.313565L893.881178,35.578268L888.060118,45.081641L886.722077,46.201308L884.708125,46.705593L883.960221,46.509006L882.125964,45.329504L879.434775,45.671386L879.295446,45.782498L860.788414,43.517567L848.740150,44.124388L841.584227,41.611681L827.742966,33.612864L827.484451,32.792545L827.387969,31.647538L826.638292,30.938331L824.460048,31.416831L824.178052,29.673746L823.141562,28.930390L821.662868,28.879124L820.039929,29.203807L821.254754,27.725665L820.164193,27.785474L819.159463,27.418081L817.652558,26.546602L815.137506,26.392813L814.218342,26.076694L813.498231,25.230870L812.800288,23.197537L812.002872,22.719119L808.000765,22.727662L806.884120,22.958327L802.403203,25.008737L800.247144,25.589702L797.231154,25.589702L794.248051,25.008737L783.696320,20.233129L775.699536,17.711131L775.698353,17.710758L772.618315,16.739298L765.772707,12.075576L762.851040,10.734632L756.905374,9.103345L750.403009,6.438755L747.427526,5.747013L741.300944,5.687234L740.621730,5.311477L740.014533,4.491657L739.296856,3.808485L738.297613,3.817025L737.825420,4.491657L737.681386,6.712039L737.319618,7.583143L735.655389,9.393727L735.008659,9.752437L725.214203,11.990165L722.615473,11.947459L723.290795,9.590163L723.163934,7.344015L722.428880,5.097981L721.281601,2.766669L711.051536,2.074985L703.616423,0.000000Z M906.823727,118.861826L907.249463,119.315333L907.346881,119.263993L907.649639,118.519557L908.400707,117.304516L910.854701,116.953697L912.318284,118.031827L913.127083,119.388066L914.600598,120.658757L915.132646,121.873847L915.804095,124.000295L916.873764,124.834630L917.272220,125.442202L917.470459,125.852957L917.413465,126.374961L916.713274,129.845081L916.489243,134.359428L917.568619,136.730080L920.838073,141.745438L911.613884,140.333239L905.474185,140.590001L903.557731,141.060733L902.564892,141.848145L902.204556,142.404472L901.850723,143.277483L901.230082,143.889451L899.933075,144.698281L896.984521,144.621250L895.698996,144.364478L893.258490,143.465780L891.374353,142.395913L887.905562,142.430148L884.426417,142.986478L876.359837,142.395913L874.741900,141.655571L874.143669,140.598560L873.247041,139.871069L872.050184,138.236373L872.773934,133.507890L872.343814,132.510873L871.682055,131.424008L870.606170,130.499755L869.400362,128.997863L869.314982,127.495996L869.638497,126.255156L869.936580,125.681809L870.699940,124.586468L871.602689,123.696514L874.896286,124.997219L876.653845,124.826073L878.291486,124.440994L879.318198,123.816315L880.748061,122.661097L881.380539,121.711264L889.802145,116.885245L894.284105,115.002831L896.485197,114.472341L897.480332,113.727948L897.837513,112.427418L901.938318,112.769661L902.761130,113.582493L906.823727,118.861826Z " data-name="Niederösterreich" data-realname="Niederösterreich"/><path d="M906.823727,118.861826L902.761130,113.582493L901.938318,112.769661L897.837513,112.427418L897.480332,113.727948L896.485197,114.472341L894.284105,115.002831L889.802145,116.885245L881.380539,121.711264L880.748061,122.661097L879.318198,123.816315L878.291486,124.440994L876.653845,124.826073L874.896286,124.997219L871.602689,123.696514L870.699940,124.586468L869.936580,125.681809L869.638497,126.255156L869.314982,127.495996L869.400362,128.997863L870.606170,130.499755L871.682055,131.424008L872.343814,132.510873L872.773934,133.507890L872.050184,138.236373L873.247041,139.871069L874.143669,140.598560L874.741900,141.655571L876.359837,142.395913L884.426417,142.986478L887.905562,142.430148L891.374353,142.395913L893.258490,143.465780L895.698996,144.364478L896.984521,144.621250L899.933075,144.698281L901.230082,143.889451L901.850723,143.277483L902.204556,142.404472L902.564892,141.848145L903.557731,141.060733L905.474185,140.590001L911.613884,140.333239L920.838073,141.745438L917.568619,136.730080L916.489243,134.359428L916.713274,129.845081L917.413465,126.374961L917.470459,125.852957L917.272220,125.442202L916.873764,124.834630L915.804095,124.000295L915.132646,121.873847L914.600598,120.658757L913.127083,119.388066L912.318284,118.031827L910.854701,116.953697L908.400707,117.304516L907.649639,118.519557L907.346881,119.263993L907.249463,119.315333L906.823727,118.861826Z " data-name="Wien" data-realname="Wien"/></g></svg>