<?xml version="1.0" encoding="utf-8"?><!DOCTYPE svg  PUBLIC '-//W3C//DTD SVG 1.1//EN'  'http://www.w3.org/Graphics/SVG/1.1/DTD/svg11.dtd'><svg enable_background="new 0 0 1000 860" height="860px" pretty_print="False" style="stroke-linejoin: round; stroke:#000; fill: none;" version="1.1" viewBox="0 0 1000 860" width="1000px" xmlns="http://www.w3.org/2000/svg" xmlns:xlink="http://www.w3.org/1999/xlink"><defs><style type="text/css"><![CDATA[path { fill-rule: evenodd; }]]></style></defs><metadata><views><view h="860.441446902" padding="0" w="1000"><proj id="laea" lat0="-18.5609571269" lon0="133.500151402"/><bbox h="425.73" w="495.36" x="772.13" y="887.36"/></view></views></metadata><g class="" id="bg"><path d="M695.731525,68.623593L686.817735,47.265399L672.056369,42.392542L666.290401,67.802909L659.186023,76.842561L663.350168,87.668802L656.854663,91.511914L652.689916,112.634412L654.860391,139.046602L649.092272,169.161107L633.956683,202.091578L596.534833,198.608709L593.490410,190.674864L573.105534,182.733038L560.474607,170.339547L508.877724,138.801369L505.912730,132.745701L519.369000,112.420348L518.883593,96.732866L543.956366,73.381876L528.908272,72.038502L522.872224,74.860698L516.207653,65.639505L490.040714,63.654866L485.346804,65.527639L452.360884,56.643500L444.330858,48.849937L422.409346,43.748314L435.006000,51.382608L440.861431,67.054565L432.572486,69.970413L396.122178,73.501448L396.018122,78.241321L378.423213,93.125559L381.504954,96.971063L360.666074,124.496094L367.526046,141.633442L353.197994,136.909072L332.070815,141.410323L332.473976,134.141334L319.437148,120.660245L297.504509,111.251391L279.686997,126.442482L270.228623,123.966100L260.433193,144.063941L252.175949,147.316093L246.941414,171.357294L224.547119,186.354431L230.705861,190.942479L224.439690,205.046259L207.853578,181.397416L203.681212,190.524559L191.191613,204.449377L193.998521,220.672810L185.317711,233.964835L175.131042,255.772883L155.054393,270.310181L124.558192,276.560318L116.969675,283.902333L80.711592,296.714728L55.850635,309.003705L28.423128,332.007529L21.049995,348.101447L11.755486,336.841853L7.723680,355.051463L11.479778,364.399949L7.021603,396.184719L24.273851,426.837976L31.748690,444.811439L18.838770,453.219231L31.414709,471.665181L55.798846,514.136783L65.731252,548.745302L83.001201,575.274701L87.374230,607.680057L83.451990,624.213634L75.476674,622.071939L94.467711,645.147486L112.300732,654.605510L136.071917,654.096045L145.091842,650.920622L158.862155,636.847327L169.868576,632.986422L176.947726,622.502908L208.525696,616.071525L246.200506,617.245491L255.033315,612.876746L276.216967,587.906301L304.140243,570.902535L317.800802,571.610572L354.710872,559.718231L363.034780,554.879380L388.149034,551.174435L422.135181,553.503404L432.734332,561.081804L444.258543,559.747978L475.560308,574.380944L476.872202,589.610476L483.301614,590.270588L495.166880,608.062959L500.387357,624.753186L509.884224,634.278634L509.466657,626.854656L521.028588,611.501683L535.840502,603.756906L552.100917,578.757576L549.414579,604.117068L543.024097,615.247275L541.671061,630.094744L532.472836,633.595045L529.533294,641.509611L546.210388,639.552283L551.566183,622.766098L563.030696,630.717212L562.687987,652.377969L576.766941,645.614115L586.275431,671.252663L597.162493,709.309513L620.086283,722.601264L640.008128,725.381708L657.328926,735.656586L681.014756,722.349398L686.318963,715.101118L696.861625,724.480265L703.887286,741.372288L722.602542,737.190028L752.971618,719.537442L777.119110,720.686938L789.045800,704.803250L798.747560,674.742113L814.193979,652.961193L832.816773,620.764271L846.328500,604.769857L858.523241,596.693314L872.425194,573.109933L888.631144,526.137501L896.634780,510.897706L898.388581,495.548614L892.375240,468.249815L894.856628,445.970648L886.128645,406.862236L871.502964,385.850614L854.217813,369.314047L849.922520,346.164937L841.678670,337.925433L837.883812,344.014876L831.252484,341.325176L823.146594,307.404901L812.444088,292.718358L817.301669,290.647385L811.503430,281.685797L792.454355,270.645047L786.867356,261.378077L779.198139,260.118083L764.479763,251.111747L755.414165,230.243737L753.099606,195.920486L751.184358,195.017640L741.833728,159.260582L742.975364,145.973875L724.413275,127.051523L707.066972,129.003219L700.427861,85.967206L693.522489,75.288713L695.731525,68.623593Z "/><path d="M128.727853,9.749065L104.858879,13.041193L106.521772,19.600780L119.176837,20.376335L140.249235,31.981320L135.858414,16.108048L128.727853,9.749065Z "/><path d="M234.405085,0.000000L217.106000,20.615825L237.485507,22.981449L261.511752,0.000000L234.405085,0.000000Z "/><path d="M681.025665,785.944795L678.148631,811.306782L682.764757,838.747760L690.918041,854.737950L700.282351,854.694084L718.267735,841.360772L727.780196,848.861094L728.443031,836.627114L738.496877,824.192186L742.087575,795.765779L736.589212,791.028733L714.015967,798.342881L704.011128,797.272912L681.025665,785.944795Z "/><path d="M784.208130,0.000000L804.492590,24.101567L829.396594,32.583281L847.728854,36.802551L874.565234,47.753646L876.625175,37.111116L860.809523,30.912161L864.616847,23.066979L829.113727,0.000000L784.208130,0.000000Z M679.662774,0.000000L685.109884,2.652787L690.003773,0.000000L679.662774,0.000000Z "/><path d="M546.109810,158.713276L544.175863,154.113775L542.523555,156.992702L546.109810,158.713276Z "/><path d="M540.645944,154.673627L541.318672,153.912814L541.033612,151.758965L540.645944,154.673627Z "/><path d="M534.132884,154.767851L532.523932,152.624665L532.034054,153.610809L534.132884,154.767851Z "/><path d="M821.400788,286.244390L820.270849,282.667318L819.000215,285.832837L821.400788,286.244390Z "/><path d="M761.256064,229.613738L757.012073,229.826992L759.871187,235.022216L761.256064,229.613738Z "/><path d="M672.689087,22.680168L672.311940,20.115455L671.003245,21.802933L672.689087,22.680168Z "/><path d="M603.274817,179.992729L598.236450,177.195689L594.859118,183.929388L603.274817,179.992729Z "/><path d="M537.784164,109.435428L530.740589,117.346294L541.939011,121.676766L537.784164,109.435428Z "/><path d="M526.239494,109.768778L525.756944,105.788306L524.384036,107.559119L526.239494,109.768778Z "/><path d="M535.772709,49.112278L539.139744,40.363376L534.831823,48.575999L535.772709,49.112278Z "/><path d="M529.359905,54.568066L527.626745,53.900481L525.472864,56.362870L529.359905,54.568066Z "/><path d="M385.819520,56.553402L378.273797,51.661474L375.705780,59.404137L385.819520,56.553402Z "/><path d="M389.626206,48.962013L390.368178,58.053211L397.883379,62.524716L406.152082,57.069517L389.626206,48.962013Z "/><path d="M260.219633,132.447149L259.166102,129.413587L258.177875,130.353949L260.219633,132.447149Z "/><path d="M246.646347,153.597916L245.394734,150.370610L243.842646,152.193652L246.646347,153.597916Z "/><path d="M42.278580,304.280716L41.686469,301.311355L39.519912,306.162140L42.278580,304.280716Z "/><path d="M8.289788,441.732771L1.953734,428.999655L2.510873,435.611216L8.289788,441.732771Z "/><path d="M731.784928,838.271312L731.655026,835.360148L730.553300,836.408296L731.784928,838.271312Z "/><path d="M717.459730,849.827457L716.555364,845.779185L715.217701,847.648136L717.459730,849.827457Z "/><path d="M676.911225,778.705969L676.381421,777.762858L675.554286,778.066249L676.911225,778.705969Z "/><path d="M661.569094,767.882922L666.164938,760.079917L663.369434,754.901677L661.569094,767.882922Z "/><path d="M745.143141,780.226805L739.864494,780.900226L740.345143,783.301616L745.143141,780.226805Z "/><path d="M740.946928,766.155366L741.108045,778.683690L743.209123,778.202736L740.946928,766.155366Z "/><path d="M742.661142,785.122522L740.365442,785.034399L740.465280,785.601714L742.661142,785.122522Z "/><path d="M543.697920,654.160660L533.459407,652.050220L526.303521,660.973898L540.370732,662.346650L552.864488,654.837199L543.697920,654.160660Z "/><path d="M692.979740,730.266280L689.228994,730.865179L692.043061,730.902922L692.979740,730.266280Z "/><path d="M850.008256,340.200663L849.669744,337.342827L849.429298,338.761167L850.008256,340.200663Z "/><path d="M836.991880,335.639763L837.002163,331.999646L836.096937,332.549840L836.991880,335.639763Z "/><path d="M873.035893,18.885629L872.764808,13.092236L867.502454,15.110392L873.035893,18.885629Z "/><path d="M877.707465,15.579127L880.874265,23.640879L884.824706,25.146145L877.707465,15.579127Z "/><path d="M884.753624,46.840908L882.367590,46.348332L881.957712,47.553484L884.753624,46.840908Z "/><path d="M964.691829,74.760637L960.504920,73.046024L960.734592,75.964523L964.691829,74.760637Z "/><path d="M202.087846,43.684694L212.337241,34.627943L199.421196,40.146947L202.087846,43.684694Z "/><path d="M175.773737,37.188545L178.102603,35.506993L175.216318,33.437978L175.773737,37.188545Z "/></g><g class="" id="states"><path d="M536.592329,157.589301L534.846787,156.380955L535.014115,157.791451L536.592329,157.589301Z M543.821744,154.056167L542.431523,156.273057L544.894441,160.085952L546.254906,159.345769L545.914867,155.574842L543.821744,154.056167Z M536.064039,153.972937L535.531803,154.077371L535.831071,154.402436L536.064039,153.972937Z M540.079407,153.382410L538.579680,153.570000L538.723196,153.668624L540.079407,153.382410Z M534.362921,154.357609L534.457489,151.989487L531.932053,153.718482L531.917310,154.718761L534.362921,154.357609Z M540.610909,154.826072L541.190203,151.652354L540.314387,152.574431L540.610909,154.826072Z M514.527385,136.120813L513.659665,134.728974L513.094689,136.677390L514.527385,136.120813Z M367.026586,136.264472L365.841735,135.186984L366.500595,136.192223L367.026586,136.264472Z M369.354980,134.663900L368.104933,134.411503L368.573331,134.756515L369.354980,134.663900Z M366.019058,137.247353L364.583824,134.518446L366.055978,138.597659L366.019058,137.247353Z M532.982598,108.786119L533.518993,107.722497L532.022640,107.179003L532.982598,108.786119Z M527.297793,107.595081L523.304002,107.217147L523.474928,109.739384L524.797752,108.239622L525.531329,110.539161L527.297793,107.595081Z M538.055642,106.536629L534.065240,109.768846L533.329754,108.916391L530.342671,110.032756L530.882763,111.146215L530.887825,116.937941L529.578824,119.327091L542.147769,121.826221L543.362087,118.928274L541.643136,119.569707L537.423895,117.464106L540.024204,115.082986L539.029795,112.956300L541.158372,112.262280L542.852469,109.559151L540.874442,108.151680L540.520060,110.380499L537.868570,110.061915L536.976737,108.180583L538.055642,106.536629Z M543.682256,105.174894L542.939327,105.333667L542.889535,105.626315L543.682256,105.174894Z M525.392498,100.563079L524.571570,99.475010L523.603669,100.967018L524.194343,102.541548L525.392498,100.563079Z M523.848989,68.603113L524.222011,69.293784L524.622874,68.892630L523.848989,68.603113Z M400.185392,67.310341L399.335166,67.349368L399.991896,67.583781L400.185392,67.310341Z M541.158013,67.922787L540.875230,66.521487L540.437492,66.724943L541.158013,67.922787Z M433.381251,67.327722L433.524428,66.101574L431.770977,66.481636L433.381251,67.327722Z M402.084586,66.069451L401.210523,65.728207L400.543300,66.039813L402.084586,66.069451Z M400.580795,65.236445L399.413963,65.378479L399.105740,65.685755L400.580795,65.236445Z M496.266400,65.115953L495.545262,64.489842L495.356319,65.437605L496.266400,65.115953Z M528.365815,64.765883L525.866555,64.399228L525.462172,66.335319L528.365815,64.765883Z M498.691687,62.765557L499.599297,62.365555L497.940917,62.097275L498.691687,62.765557Z M520.084025,61.443565L519.585782,61.449500L519.738138,61.694061L520.084025,61.443565Z M523.230425,58.397937L523.104285,58.119245L522.891421,58.533033L523.230425,58.397937Z M535.580983,58.931747L536.149058,57.977999L534.735226,59.401921L535.580983,58.931747Z M500.432848,56.335305L500.519797,56.993105L500.671667,56.565768L500.432848,56.335305Z M541.359026,56.131597L541.147382,56.653884L541.476802,56.382351L541.359026,56.131597Z M521.212513,57.100101L522.427309,55.658858L521.669172,55.421134L521.212513,57.100101Z M437.565130,55.224078L437.071300,57.027621L438.738944,56.761200L437.565130,55.224078Z M457.572655,55.562520L459.444152,53.694126L456.586662,54.730289L457.572655,55.562520Z M431.141216,53.994789L430.925317,53.320901L430.565592,53.735468L431.141216,53.994789Z M524.000738,53.367014L523.731674,53.250232L523.785066,53.653311L524.000738,53.367014Z M532.280772,52.660624L532.804199,51.109427L528.468131,54.275432L528.022506,53.613984L525.723265,55.612362L525.847109,56.459304L532.280772,52.660624Z M383.977321,51.344370L382.916166,47.598041L378.697184,50.896333L378.134808,51.949317L379.520752,56.013277L378.173898,57.176648L376.355266,56.506045L375.052187,59.160311L375.967382,60.283025L378.248295,60.292234L382.864263,58.968036L388.645926,60.280349L389.759260,58.229446L385.549216,56.935692L385.941472,55.079229L384.250245,52.982103L383.977321,51.344370Z M386.852232,46.542336L384.214588,43.507534L383.430235,44.787503L384.407492,47.065044L386.528370,55.306862L390.748167,58.399148L397.173216,61.888370L397.650680,62.563673L406.415896,56.822264L408.429470,53.737182L410.568306,54.270803L410.235401,52.454653L412.079562,49.611823L409.367378,45.576194L406.009256,46.152083L405.605343,44.125034L403.928429,45.557078L404.269483,49.143466L402.199917,45.856303L400.118652,47.304725L399.665994,49.416940L396.990219,47.202816L395.159648,48.492549L388.151116,49.060430L386.852232,46.542336Z M445.663618,43.142676L444.239526,42.924784L444.790420,43.480810L445.663618,43.142676Z M351.792970,136.538437L352.757374,179.885420L355.604889,292.428428L358.945802,404.861104L359.223082,413.498875L365.522074,413.331323L428.530559,412.250825L453.744620,412.121188L510.474715,412.461522L554.574741,413.331353L560.872575,413.498875L561.108093,406.167984L562.917345,347.470470L563.771724,318.100056L565.379558,259.335433L566.316083,222.594137L567.377476,178.187104L567.377141,178.186829L564.257793,175.509645L561.476627,170.838545L550.714043,166.117304L544.903653,162.279044L538.717628,161.622696L536.995800,162.475816L532.602962,157.002285L529.953826,154.533790L526.418602,152.576383L525.791656,149.557813L518.920026,145.489791L516.768420,143.261274L512.202963,140.473001L510.078404,139.697919L506.901601,136.687952L505.411224,131.931693L507.099588,130.952817L511.277918,124.677843L517.738847,118.734354L518.603744,113.027068L520.611997,110.235441L521.676543,106.640711L520.446056,107.154821L517.420136,105.393473L517.084779,100.482516L518.740203,99.486730L517.812105,97.253320L521.931368,95.304998L523.206110,93.171422L524.034856,94.376390L529.579744,90.682966L529.919800,95.416848L532.111351,95.377635L533.782065,91.919051L532.673839,89.183696L534.839026,89.743132L536.199077,88.294648L532.660371,85.648392L534.382453,83.050781L535.603536,85.186686L535.586543,82.317149L539.349331,78.882823L543.472131,74.046429L543.641817,72.691460L539.480252,68.695716L537.482860,69.662606L539.067587,71.207526L533.990421,64.351435L528.299502,65.695324L526.422363,68.229573L526.657510,69.659971L529.028128,69.504372L529.893339,70.409001L527.805183,74.762449L522.292941,75.055312L520.661766,73.122723L522.007391,70.093832L520.799041,70.796343L519.359449,67.962817L516.232293,69.670472L514.385069,71.997275L512.424870,68.325044L518.494994,63.375470L514.257107,64.522452L516.400496,63.085503L519.138269,59.740974L512.589855,63.402235L511.264644,63.147269L511.056890,65.602066L507.039516,67.050656L505.526351,66.341948L503.049377,68.582049L503.926557,70.584945L502.243004,69.779299L502.359153,71.381952L493.685157,67.393885L492.615756,65.000447L489.865237,62.855460L487.655391,64.797448L484.959902,65.613712L482.687458,65.432593L479.185704,63.197300L476.994461,62.679566L475.605767,60.980627L474.362177,62.179706L473.909957,60.352753L471.871297,61.214623L470.193053,57.062400L461.468140,59.259498L451.282506,55.873065L448.925900,51.422750L446.431179,48.114287L440.891024,51.971399L439.868509,51.779481L435.638406,45.969638L432.925910,46.400371L431.906719,42.824775L430.011094,43.612174L430.336504,45.869789L427.839645,44.086860L428.366725,49.405296L425.459558,44.919732L423.248520,42.613655L422.947469,44.871537L421.030711,44.231658L419.425179,46.171046L422.791141,47.977405L422.111139,48.675999L424.380373,49.639157L426.001791,52.223028L429.078735,50.577132L435.497404,50.999208L437.214904,54.039098L440.403102,55.381506L439.082240,59.488911L438.949381,65.664150L441.004239,67.471278L436.762699,66.454763L435.408071,67.383586L434.462355,71.481350L430.288096,69.711855L429.887526,68.143153L426.330802,70.915092L419.608201,70.251412L414.092836,71.541048L410.625385,71.551442L409.074505,70.940785L406.328068,65.340477L404.814849,70.195344L403.106853,68.609517L399.145870,68.593616L400.442207,73.601526L394.936497,74.353297L395.412293,75.809367L397.543576,76.438314L398.473736,77.700607L396.673952,79.605685L394.642482,77.751837L393.952239,75.216487L391.274849,74.194407L388.942947,74.439060L389.975536,75.321958L389.020252,78.605462L389.867760,81.059122L388.545017,81.418818L387.011844,79.546406L384.772216,80.750914L382.793888,87.096104L381.060706,87.914058L378.633383,87.552650L378.031970,93.397864L381.836437,97.376728L378.515609,100.971626L377.998853,100.685149L374.546898,102.769424L372.256332,101.235009L371.363747,102.332934L370.167512,106.465662L370.298637,108.655807L366.626157,115.481291L365.373240,116.527440L364.158026,115.945025L361.829180,120.151762L361.687183,125.929064L365.722216,128.716101L366.289482,131.323257L368.862941,134.090413L370.969837,134.844661L371.035671,135.916825L367.383058,135.311280L367.004925,139.967654L369.442751,143.657479L365.640370,140.846656L363.279891,137.912604L357.653928,135.805607L357.151204,136.404453L358.234774,142.350305L356.750977,143.873071L356.270440,139.264811L352.025706,136.555853L351.792970,136.538437Z M448.225827,40.965355L448.154127,40.965530L448.198063,41.028069L448.225827,40.965355Z M447.895847,41.291522L448.050223,40.789972L447.181012,40.392063L447.895847,41.291522Z M539.893134,40.243766L536.260713,45.571873L535.343697,47.826015L532.925993,49.908840L534.208035,50.684834L538.807551,44.080010L539.893134,40.243766Z M443.542582,38.380205L443.376695,38.936473L443.522180,38.954166L443.542582,38.380205Z M437.679039,40.137366L434.785919,39.921096L438.024794,47.728776L438.335130,43.772079L437.679039,40.137366Z " data-name="au-nt" data-realname="Northern Territory"/><path d="M226.772614,622.981709L226.910650,621.993516L226.375778,622.038223L226.772614,622.981709Z M84.539174,588.239394L83.686059,586.986574L84.667741,588.799952L84.539174,588.239394Z M28.407965,500.850249L29.093865,499.343596L28.489320,499.949428L28.407965,500.850249Z M1.312936,428.123442L0.977868,431.955674L4.879580,439.295676L8.428122,443.556046L8.798579,441.246851L1.312936,428.123442Z M2.989227,422.671244L3.085010,417.661616L2.527565,416.441497L2.989227,422.671244Z M41.662588,305.652929L42.720912,303.181419L42.232287,301.614509L39.214157,304.961323L41.662588,305.652929Z M222.471757,185.429165L220.972738,185.354293L221.663050,185.784552L222.471757,185.429165Z M219.190845,184.792884L218.372339,183.317946L218.255435,183.342723L219.190845,184.792884Z M218.056207,181.107125L218.057151,180.413156L217.935016,180.525718L218.056207,181.107125Z M212.814488,181.066048L211.902389,180.973105L212.402092,181.221647L212.814488,181.066048Z M214.886227,180.613806L214.917525,179.989284L214.532499,180.633610L214.886227,180.613806Z M214.354213,180.708731L213.737682,179.969930L213.872886,180.550534L214.354213,180.708731Z M239.185031,178.442455L238.795765,177.632488L238.630888,177.591994L239.185031,178.442455Z M222.418632,176.294728L221.994942,176.358334L221.634561,176.253752L222.418632,176.294728Z M230.528582,175.229526L231.259992,176.263245L231.910336,176.148119L230.528582,175.229526Z M236.080010,174.945659L235.660143,175.137840L235.800059,175.508924L236.080010,174.945659Z M221.393054,175.929115L220.412566,175.115672L221.152692,176.892317L221.393054,175.929115Z M221.711122,173.922118L221.514213,173.481117L221.444027,173.822644L221.711122,173.922118Z M234.840743,172.560602L235.191755,173.246251L235.429723,173.268689L234.840743,172.560602Z M218.986464,172.910609L218.850850,173.337175L219.102168,173.162687L218.986464,172.910609Z M226.714421,172.387089L228.312761,173.063521L228.157053,172.380168L226.714421,172.387089Z M223.288393,171.757982L224.419081,172.273146L224.486125,172.175991L223.288393,171.757982Z M222.618043,171.558016L221.736777,171.491590L222.001626,172.048966L222.618043,171.558016Z M216.433589,170.985564L215.820094,171.257548L215.997748,171.426792L216.433589,170.985564Z M221.872794,170.403979L221.475053,170.531235L222.152955,171.151772L221.872794,170.403979Z M246.976986,166.153338L245.906766,167.011779L245.669170,167.785449L246.976986,166.153338Z M245.675675,150.012890L243.291737,152.734786L244.240100,153.105595L245.675675,150.012890Z M252.116946,150.394544L252.474034,149.510534L251.856499,149.303458L252.116946,150.394544Z M332.677974,144.690545L330.844716,141.580512L330.902035,143.346413L332.677974,144.690545Z M254.216307,142.347075L253.763203,143.686060L254.365947,143.853534L254.216307,142.347075Z M338.448035,140.565209L337.019801,137.500980L336.692405,137.076169L338.448035,140.565209Z M255.166154,131.275494L255.117479,130.347564L255.041206,130.596726L255.166154,131.275494Z M260.363344,129.998904L257.623809,133.257189L259.102356,133.967305L260.363344,129.998904Z M268.608479,129.777122L268.234817,128.578929L267.624656,129.032940L268.608479,129.777122Z M254.837420,128.820815L254.712927,127.855705L254.356458,128.107328L254.837420,128.820815Z M271.974934,120.899679L271.800659,120.417727L271.724468,120.974891L271.974934,120.899679Z M293.610625,114.024928L290.944282,113.610771L291.310493,114.374135L293.610625,114.024928Z M364.170050,554.513793L361.912390,492.947494L361.601485,484.129231L359.509788,422.335063L359.223082,413.498875L358.945802,404.861104L355.604889,292.428428L352.757374,179.885420L351.792970,136.538437L351.594374,136.523585L349.846210,135.886918L345.721870,135.648399L341.901981,134.540406L338.299993,134.990032L337.547739,136.917228L338.579148,139.759148L336.633004,141.358123L335.310894,137.877980L332.579160,141.736030L333.259461,145.424147L335.162146,148.123624L334.812447,149.811676L332.167081,145.645520L330.405160,146.109348L330.796740,149.880723L329.839079,147.317618L329.986536,144.742975L332.368388,135.493236L333.151525,133.926954L328.008582,129.735842L326.545698,130.005407L324.009434,127.246661L319.261449,120.249239L314.918330,117.394420L313.975539,117.397875L313.427258,114.838915L311.074221,115.096731L307.179478,114.078734L305.633885,115.066826L304.644060,111.992070L301.736687,109.487469L299.154950,111.942627L296.826834,111.357118L298.958600,116.037305L297.308207,115.778944L293.698024,122.391788L290.958424,119.583323L290.951435,117.346401L292.643011,115.250391L291.379419,115.182865L283.037187,119.183746L282.247092,115.363736L279.320004,115.256433L281.013892,116.371063L279.194063,119.154813L281.616601,119.092598L282.471947,120.641930L281.963684,122.491657L280.686872,123.020266L280.114269,126.035589L278.784720,127.039798L280.372129,129.562266L278.446792,130.194562L277.553587,133.172917L275.738959,128.980023L274.126152,128.814094L272.096592,130.066356L271.154212,133.046524L271.051978,126.516927L272.156690,124.754356L269.205262,123.735787L269.860047,128.385054L269.419651,130.731688L267.590256,129.791574L266.014370,133.504522L263.934574,130.410278L261.072082,133.275530L261.784190,134.675914L260.288954,138.762159L263.156942,139.942187L262.416364,142.445789L265.619808,143.413346L266.076131,146.411061L259.387580,143.676075L259.157332,145.678703L256.857867,142.865181L255.354509,146.526352L253.757728,145.733894L253.142896,148.843807L257.358544,147.118126L254.295978,148.928989L256.792763,150.180348L258.465173,150.137431L259.295189,154.465200L256.151136,154.056863L253.965229,151.999489L251.970509,152.152602L250.332713,150.510086L247.531797,156.128295L243.271432,155.987505L241.822634,156.842585L242.292088,159.632653L242.560765,165.603494L244.764693,167.386231L247.384448,163.666564L250.318531,163.527086L247.485850,165.962265L246.766148,171.273014L244.461179,171.510948L244.236739,170.160024L242.450644,174.305122L243.012416,176.934368L247.093887,176.649493L253.548321,178.323173L244.800965,178.446262L243.006945,177.530277L240.697060,178.876997L238.835260,178.799609L231.207449,174.738623L232.546930,175.948390L233.162749,178.816579L231.255342,177.764426L230.459756,179.742196L230.192775,177.537178L227.018324,175.995726L229.260742,175.181918L223.839019,174.080112L222.707637,175.017764L226.716134,178.121163L225.225563,180.312238L222.940008,179.629580L224.334341,182.016094L220.070311,182.390180L222.173145,183.947888L224.442738,183.316384L222.222849,186.126375L224.268868,186.300221L227.039900,188.065737L228.630440,191.396544L232.959948,189.919483L231.195762,194.413671L229.412441,194.394186L229.455620,197.907193L228.703664,196.875201L224.596738,194.648828L224.530837,206.096094L225.265971,208.880267L221.334964,203.441472L220.493448,203.109640L213.909332,190.434423L209.373761,185.351427L209.908478,179.824424L207.239593,183.426326L204.172579,188.373695L204.907623,189.800754L201.182218,190.882349L199.517457,192.018554L200.641330,194.922879L196.659354,195.576666L193.378029,198.994712L190.977591,205.159248L190.957892,208.097107L192.714517,216.678670L192.992443,220.156281L196.530050,220.876875L196.311689,225.086002L193.124651,227.158669L189.587613,231.374741L183.092032,236.715220L182.917552,239.801876L180.780346,240.837226L180.365659,245.421268L176.791592,253.194339L174.580724,256.667719L166.762856,264.229142L153.589615,271.050582L150.645662,272.269753L143.033499,273.852175L138.768124,275.621918L135.937958,277.408984L132.867687,275.998574L126.984467,275.502778L121.670374,278.185256L118.824776,283.746644L108.361935,287.165161L107.536359,286.651434L102.984264,287.638917L98.794641,291.305677L96.752596,294.617159L85.855604,298.417711L82.161406,297.657990L81.087264,295.555263L74.376478,299.118702L72.571318,297.595293L72.449457,294.834107L71.559508,296.989213L65.007531,302.823138L61.242994,304.215584L60.108591,303.832357L57.451861,307.910337L53.585717,310.606539L51.723311,314.614098L48.610723,316.521810L44.474834,322.416623L39.463966,325.106373L29.881338,330.778727L27.063220,332.664286L24.809222,338.427119L24.645141,341.055266L23.402346,343.923913L22.645835,349.259529L17.840519,350.907747L17.568335,345.390273L16.383958,346.245909L16.327923,333.345500L13.850805,333.550404L11.539472,337.207306L9.482257,347.049347L8.436404,348.968339L7.208925,355.189262L9.937342,358.620671L11.872142,365.660433L11.004827,368.447567L12.127574,373.612426L11.061336,377.802355L9.690511,379.277906L6.898023,387.469865L6.361456,391.068731L7.079777,393.485892L6.388774,396.138754L7.089113,400.232422L8.563305,403.076480L11.227317,405.558685L14.933932,413.204611L15.426295,415.300898L18.463108,417.791426L22.528068,424.640031L26.917702,429.733599L28.693444,432.512923L31.315106,434.035116L31.404415,437.335107L30.097330,436.935872L31.953022,446.180527L29.852614,449.058114L26.516362,446.521396L23.328780,437.275645L23.105299,441.614572L20.741898,443.818261L20.049731,442.661172L20.272873,435.964024L15.588242,430.120797L14.080730,429.517504L13.635400,427.246750L12.081311,432.334784L17.055475,441.544717L19.643014,443.619800L24.247935,446.473127L25.263337,450.762075L23.927854,452.719575L21.100711,455.340692L19.931751,451.130801L18.511955,453.437405L17.978379,451.106564L16.483917,451.531999L14.556033,443.636732L12.823050,446.790291L10.783963,439.980856L10.419011,444.825647L8.749248,444.288745L12.448381,450.418832L16.305414,453.514431L24.127765,461.691278L30.960977,470.912738L32.782176,474.028678L35.203521,480.367431L34.803354,484.308118L36.439251,488.282308L39.183320,492.118562L40.725965,492.882177L48.299901,502.728208L48.506820,505.972692L50.583422,508.938895L55.082765,512.936225L59.633146,522.190079L59.589005,526.698969L60.944953,532.707370L60.894305,535.961968L62.258410,540.419471L63.348784,541.310576L65.227194,547.845671L68.183665,553.034014L68.901764,555.095493L70.307866,556.223395L76.436456,566.201444L83.774391,577.150679L84.814729,580.936429L86.722220,596.560392L87.845970,598.198127L84.621490,599.441742L87.537894,608.235414L88.533370,614.726212L86.193016,620.665543L81.937095,624.671082L75.571149,625.551532L75.395260,626.289407L77.303252,635.604721L81.187920,642.228633L85.664243,640.908211L90.903240,643.037803L94.913319,645.448411L101.618021,651.897773L109.584343,652.818382L109.342868,653.375645L114.544818,655.726628L117.964747,654.781410L119.848704,655.409045L121.155673,654.221632L128.913895,653.464964L134.505404,655.535230L137.443777,653.358107L141.450098,654.651788L140.882979,652.879309L139.420964,652.499199L149.016682,648.470447L149.891486,648.462924L154.768642,641.678413L155.686492,639.117776L158.543916,637.542345L157.639193,636.287292L159.501122,635.935023L164.315981,636.687513L166.471869,635.764594L168.269088,636.266993L168.487164,634.203188L171.207397,633.601703L170.163598,632.154102L172.381853,626.134533L175.991773,622.847120L180.609205,620.928901L181.954155,621.486492L185.584838,620.818754L187.777672,621.219784L190.708021,620.318466L191.123574,619.294568L195.990326,618.595169L197.503047,617.721912L199.666441,617.892901L202.444345,616.998821L203.703394,617.493523L207.020424,615.906929L210.440453,615.798555L213.712680,616.894119L218.441040,616.352209L221.149035,615.034635L222.785533,617.439474L223.272503,619.687890L226.647843,619.502917L226.908784,617.580110L231.881116,616.850456L232.744903,617.484192L234.397252,615.630493L237.720322,615.656440L242.587257,614.386849L243.411296,614.710911L245.152770,617.843788L247.416988,617.117378L249.618468,614.593619L252.692062,615.571448L256.596073,611.995235L256.979255,609.716924L261.216847,602.534465L264.139874,593.227501L267.078428,590.518247L275.209621,588.490478L279.127390,586.522246L281.759006,583.800467L291.975750,578.744176L301.442364,571.444194L309.161700,571.307026L315.663548,571.845601L323.574015,571.184038L328.516791,570.224694L333.582086,568.486593L338.433539,566.116170L343.707059,564.959291L347.905686,563.163396L356.987914,558.608306L364.169529,554.513885L364.170050,554.513793Z " data-name="au-wa" data-realname="Western Australia"/><path d="M784.187378,660.963672L779.786647,655.252777L772.479454,659.638548L771.760543,662.100576L771.026169,668.308384L772.645668,669.183806L773.078205,672.727574L775.414345,674.235952L776.947937,671.836690L777.234439,667.247674L778.956724,664.424710L784.187378,660.963672Z " data-name="au-ct" data-realname="Australian Capital Territory"/><path d="M897.249430,493.086114L892.724613,494.880297L890.929630,495.089341L888.470485,496.773945L882.560005,495.645499L880.209072,496.223698L874.658748,493.296099L870.218875,495.717479L864.652830,497.664028L862.421274,499.189315L864.143518,503.265699L861.999193,507.877717L857.236626,508.605435L855.689125,506.872090L852.186360,508.328136L849.563622,511.969446L847.131622,512.360690L846.735837,506.455321L842.999306,504.011551L839.921540,499.786195L825.312494,494.880203L823.969415,494.636166L814.849394,495.055558L813.604399,495.441051L811.436577,493.655236L808.624061,494.111481L799.458303,500.078586L799.107863,501.205854L792.352539,502.659562L781.871567,501.648598L750.380902,498.813394L718.819658,496.273761L708.284902,495.492802L676.639389,493.346278L666.080712,492.696332L634.368068,490.942333L623.787808,490.423011L623.328475,498.210112L620.003870,552.649254L619.513220,560.417310L616.487688,606.961602L615.981501,614.534024L616.424559,615.365738L621.544702,616.743707L626.459083,618.990690L627.408501,619.965526L637.058003,617.987194L638.376828,619.514422L641.027586,620.152669L643.224676,624.057231L644.297654,624.003650L643.689877,628.806265L646.720486,634.952055L649.646072,634.061829L652.445699,631.080733L653.569592,633.031198L659.198458,633.980593L663.089046,637.064450L663.275942,646.041687L666.370974,647.605718L666.411758,650.315176L667.778973,651.564477L674.170607,655.337077L676.444311,657.072679L677.324053,658.705696L681.482154,663.084716L682.174759,665.604839L685.755345,669.872983L688.560678,671.607606L691.205343,670.325538L694.147622,665.380993L703.170278,665.413478L705.621932,665.716428L710.424810,669.594281L712.689195,669.374619L713.434397,670.617121L718.004718,672.047336L719.744195,671.958102L722.786877,670.553965L728.912491,672.790945L734.240507,676.454127L735.351977,678.237882L736.282137,677.482403L735.697305,674.091607L738.110463,674.028028L743.869885,671.703775L745.177020,673.085579L747.622361,672.410805L754.409378,678.392333L754.470362,682.930510L753.968794,683.721773L755.183671,685.796260L756.280694,689.655894L753.872922,693.577705L755.680741,694.198460L772.118963,704.940921L787.783764,715.401105L787.784294,715.400567L788.581248,709.458841L789.882978,707.228978L788.710773,700.968625L789.609296,698.625261L793.073175,692.942120L794.626307,687.635975L795.809384,686.576221L796.072078,682.417417L795.712389,680.125056L797.234333,679.360446L799.521999,672.767661L803.713309,668.415339L804.472738,666.224390L806.450116,663.890723L807.536926,661.507193L810.288084,658.826402L811.741733,658.396315L811.943209,656.054408L813.472595,655.762773L813.867258,658.401296L815.182595,656.328815L813.171338,652.386018L816.095821,649.662606L817.384524,646.183974L815.933651,644.535695L820.458862,637.903321L825.334892,634.411401L824.567126,633.874697L828.044801,631.018401L827.805355,629.024748L829.018320,627.944089L830.569874,622.903058L829.531472,621.656034L834.063058,615.629516L835.563403,614.543931L836.711692,615.222803L839.405398,610.287191L842.826267,606.830789L842.838284,606.185042L847.046407,604.315848L851.429686,603.853514L849.015772,602.020486L851.905785,601.242670L854.403605,599.210445L859.949094,596.952613L861.101205,588.388173L863.390767,584.860766L865.955882,583.000362L869.588687,578.036284L869.825047,576.173094L872.465461,571.373632L873.573899,570.353770L874.275098,566.546791L875.858125,564.834216L877.129614,560.023894L876.107722,558.431897L876.148782,555.876739L878.506775,549.567393L879.170150,548.769316L884.103688,537.974449L885.030666,536.989700L887.842075,528.044368L889.091231,525.533391L889.169672,521.799699L892.707229,514.979329L896.613689,511.223561L897.802085,505.721487L897.156781,504.714555L897.280248,500.995632L898.356041,493.881260L897.688296,493.869380L897.249430,493.086114Z M784.187378,660.963672L778.956724,664.424710L777.234439,667.247674L776.947937,671.836690L775.414345,674.235952L773.078205,672.727574L772.645668,669.183806L771.026169,668.308384L771.760543,662.100576L772.479454,659.638548L779.786647,655.252777L784.187378,660.963672Z " data-name="au-ns" data-realname="New South Wales"/><path d="M544.384812,650.323502L540.536062,650.919692L538.151340,650.283464L537.343745,650.992262L533.099140,652.232979L527.570585,652.997318L523.300727,654.124495L521.860784,657.894753L523.026093,659.020796L529.654588,661.453675L534.125027,661.383245L538.855745,660.731328L541.284312,662.263208L543.990807,660.378643L545.109595,658.223939L548.640664,657.454710L552.716179,658.859289L553.809595,657.702677L552.069251,654.448904L546.878090,654.480395L544.308761,652.911597L544.384812,650.323502Z M521.674766,639.671943L520.477790,639.393256L521.393867,639.666255L521.674766,639.671943Z M515.723559,637.076915L514.172655,634.019146L513.591104,634.496170L515.723559,637.076915Z M480.714256,604.700530L480.913051,602.967356L480.641471,603.122153L480.714256,604.700530Z M462.117086,568.423340L463.765851,566.856510L461.726563,567.208693L462.117086,568.423340Z M623.787808,490.423011L624.330941,481.125428L626.447839,443.901865L611.205441,415.228011L569.264467,413.738949L560.872575,413.498875L554.574741,413.331353L510.474715,412.461522L453.744620,412.121188L428.530559,412.250825L365.522074,413.331323L359.223082,413.498875L359.509788,422.335063L361.601485,484.129231L361.912390,492.947494L364.170050,554.513793L366.139003,554.164662L384.186961,551.515740L397.064982,551.152494L403.174274,551.439426L410.444889,548.251878L418.149785,551.308509L423.462898,554.267349L432.311122,561.350028L437.791027,560.471188L440.135045,559.225019L445.121694,559.745459L452.287066,565.178629L459.924032,565.724331L463.679303,563.512358L465.670194,566.923600L468.412684,568.552124L467.583522,574.168985L471.296769,572.334467L473.395225,571.976601L476.380215,575.361449L476.878853,577.597087L474.794328,580.611439L474.668895,578.645413L472.431272,578.418933L472.016839,583.768690L475.024057,585.071320L476.401126,589.550103L477.541999,590.600736L483.313646,589.123161L487.585578,594.319772L488.350254,600.987720L492.681207,605.264079L496.784398,610.813777L496.027461,613.747153L498.370910,617.196599L499.212058,622.842764L501.358901,625.823480L499.148086,626.179666L495.758097,622.804836L495.475813,621.008204L493.309072,625.035941L495.852581,624.302302L498.479687,627.296380L503.431983,632.165335L503.985952,633.965808L505.487068,632.457869L507.934911,632.088162L510.795411,635.416861L511.796288,634.747932L512.010122,628.945752L511.344378,629.843119L508.081167,629.705991L509.377484,628.970462L509.140015,626.425315L510.481175,623.756868L513.254590,622.503400L513.887679,623.820547L519.478781,613.035201L521.051030,611.429384L529.027408,606.199553L530.521319,606.088237L532.001581,603.154888L533.219737,604.269931L536.355146,603.836440L538.447319,601.585430L541.247709,596.159865L543.040775,590.034658L548.885080,586.480520L550.323818,579.415942L549.781336,579.179375L550.156486,575.004695L552.063964,579.397095L553.780952,586.987123L555.450718,589.128714L555.316057,590.367659L550.697863,592.878595L551.406521,596.588537L552.492663,598.889788L547.730572,606.292361L544.227026,613.454304L542.368948,614.728080L543.007894,626.513027L541.366969,633.858300L540.757244,634.534324L532.469395,633.646261L531.551732,634.808151L531.233534,638.017904L528.886041,642.142830L535.393518,641.712117L541.149505,638.757701L545.757558,640.473038L547.441148,639.170908L549.519135,631.949012L550.318067,630.232251L550.688515,626.039451L554.168379,619.191549L553.804019,617.187899L554.620570,616.067692L556.633067,617.841352L559.272676,624.202029L562.102584,628.514146L563.081026,631.410394L561.469944,644.439467L558.691793,647.228486L554.629472,649.968505L556.117943,652.881556L557.749547,652.444917L563.665148,652.137888L565.620520,650.412552L572.170153,649.903270L568.644275,648.479648L571.791425,648.299803L572.378738,646.750192L574.855890,646.576531L576.596739,645.527181L578.979620,645.931317L580.284872,648.946212L577.093740,649.573085L579.849662,652.162490L579.287967,654.102887L577.351989,650.576652L575.398622,649.286826L573.341363,651.817424L579.868936,657.641793L584.296942,663.896576L582.154252,661.364138L572.540694,651.325798L573.087908,652.827195L577.787431,656.945031L581.624720,661.523019L584.605123,667.045002L586.274279,671.275821L588.407495,681.099557L586.623341,684.341109L584.280578,685.504822L586.179172,690.491882L585.341199,691.150728L589.807864,698.886217L591.669031,699.413521L592.613938,701.678337L594.051663,702.906904L597.087418,709.329470L602.412090,713.630396L608.016933,713.733199L608.339441,713.876356L612.710183,652.611071L615.349359,613.708251L615.743686,614.086048L615.981501,614.534024L616.487688,606.961602L619.513220,560.417310L620.003870,552.649254L623.328475,498.210112L623.787808,490.423011Z " data-name="au-sa" data-realname="South Australia"/><path d="M715.178622,738.531200L715.972337,739.876913L717.817087,739.030690L715.178622,738.531200Z M693.466537,730.973294L692.541508,729.255354L690.868668,729.355713L689.246715,730.936203L693.466537,730.973294Z M694.436970,726.247285L693.133128,726.164335L693.226076,728.394648L696.873106,727.485946L694.436970,726.247285Z M615.981501,614.534024L615.743686,614.086048L615.349359,613.708251L612.710183,652.611071L608.339441,713.876356L608.385207,713.896675L616.243816,720.373868L619.273026,723.833079L621.841694,720.152991L623.652235,719.704473L627.257572,720.435371L631.525395,723.545029L635.971970,723.042301L646.219780,729.906672L648.390331,730.475759L651.647848,733.825770L653.484615,733.784569L656.235129,735.647124L660.014770,734.849434L663.643057,732.912816L667.070360,729.277352L676.012020,724.021244L679.735575,724.290811L681.015943,720.241488L678.312275,721.347692L675.968034,719.402701L681.670663,717.635056L685.021497,714.965966L687.266354,714.388717L690.414894,720.092733L687.122490,725.898763L683.280286,726.709745L681.884157,725.912602L685.675126,730.147305L691.527361,728.226890L692.100800,725.025494L693.717260,724.072830L696.873878,724.509441L698.040575,728.080763L695.406486,729.282639L693.994709,731.488717L696.890710,733.135353L697.497594,734.876368L700.738348,734.584275L702.599372,735.501908L703.595716,741.468031L707.188261,739.637133L709.913931,742.850751L710.834177,746.631482L712.045903,748.128850L714.475393,742.884630L713.616255,740.177016L711.679590,741.869433L709.152489,738.234360L713.677132,738.247573L723.440379,736.544226L725.377206,735.191797L734.607396,727.353509L738.881502,724.313249L745.863281,720.989216L753.860445,719.450192L759.753145,719.768467L762.067484,720.325211L770.324508,720.040162L777.275841,721.006754L781.040686,719.361004L786.143905,716.166934L787.330357,715.861927L787.783764,715.401105L772.118963,704.940921L755.680741,694.198460L753.872922,693.577705L756.280694,689.655894L755.183671,685.796260L753.968794,683.721773L754.470362,682.930510L754.409378,678.392333L747.622361,672.410805L745.177020,673.085579L743.869885,671.703775L738.110463,674.028028L735.697305,674.091607L736.282137,677.482403L735.351977,678.237882L734.240507,676.454127L728.912491,672.790945L722.786877,670.553965L719.744195,671.958102L718.004718,672.047336L713.434397,670.617121L712.689195,669.374619L710.424810,669.594281L705.621932,665.716428L703.170278,665.413478L694.147622,665.380993L691.205343,670.325538L688.560678,671.607606L685.755345,669.872983L682.174759,665.604839L681.482154,663.084716L677.324053,658.705696L676.444311,657.072679L674.170607,655.337077L667.778973,651.564477L666.411758,650.315176L666.370974,647.605718L663.275942,646.041687L663.089046,637.064450L659.198458,633.980593L653.569592,633.031198L652.445699,631.080733L649.646072,634.061829L646.720486,634.952055L643.689877,628.806265L644.297654,624.003650L643.224676,624.057231L641.027586,620.152669L638.376828,619.514422L637.058003,617.987194L627.408501,619.965526L626.459083,618.990690L621.544702,616.743707L616.424559,615.365738L615.981501,614.534024Z " data-name="au-vi" data-realname="Victoria"/><path d="M899.599910,474.761641L897.374877,476.454534L896.621238,482.273745L897.777560,482.282985L900.319601,475.879984L899.599910,474.761641Z M898.566833,473.087531L898.235544,465.455017L897.747776,469.712983L898.566833,473.087531Z M904.746127,407.414766L904.784235,406.328692L901.765617,408.978808L902.352431,409.768865L902.422213,414.517356L900.398517,416.469879L897.826757,420.191591L897.372674,422.500239L894.342061,427.625115L895.291913,432.079027L897.116587,432.396920L897.076416,430.059184L899.477372,425.211857L902.550153,420.320357L904.746127,407.414766Z M865.260852,380.765312L864.191433,377.939087L864.106598,379.084340L865.260852,380.765312Z M858.593371,369.594214L858.057407,370.134458L861.783353,378.241138L863.632324,377.327195L859.517356,369.690139L858.593371,369.594214Z M856.691678,359.789846L856.256798,359.760843L856.261695,359.962873L856.691678,359.789846Z M831.904315,341.076026L832.865111,339.568006L832.247619,338.861936L831.904315,341.076026Z M851.081189,339.634396L849.425336,337.457034L849.461881,339.988348L851.081189,339.634396Z M836.485291,336.179162L837.115556,331.838975L836.206779,333.138505L836.485291,336.179162Z M842.622342,330.603558L842.890903,331.449508L843.261174,331.272442L842.622342,330.603558Z M846.965592,323.161260L845.762435,322.834793L845.604927,322.960985L846.965592,323.161260Z M833.683201,313.588206L833.530757,312.816481L833.300603,313.108654L833.683201,313.588206Z M839.520412,306.357214L839.579475,305.954323L839.298690,305.919212L839.520412,306.357214Z M828.861477,303.329917L829.510541,302.891754L828.734584,302.596051L828.861477,303.329917Z M828.318724,302.219016L828.271288,302.827957L828.507579,302.312421L828.318724,302.219016Z M833.410365,301.834468L833.168363,301.475211L832.520241,302.130550L833.410365,301.834468Z M825.717131,299.843827L825.431658,299.436165L825.108692,299.500889L825.717131,299.843827Z M826.163304,299.456180L825.872369,298.888011L825.539870,299.111805L826.163304,299.456180Z M830.269997,298.580344L830.348954,298.269691L830.096212,298.328279L830.269997,298.580344Z M823.293323,296.119739L823.007843,295.964606L822.805502,296.430123L823.293323,296.119739Z M817.367876,288.567594L817.495672,288.410896L817.024465,288.311629L817.367876,288.567594Z M821.497951,285.816797L819.978997,282.917539L818.718614,285.898281L821.497951,285.816797Z M773.556665,252.507804L771.722421,253.787279L772.199823,254.105256L773.556665,252.507804Z M768.678383,242.832441L767.424312,241.524533L767.428894,243.448943L768.678383,242.832441Z M760.262857,229.341930L759.747801,230.677152L756.988504,229.661162L761.108821,236.166320L762.456986,232.977991L761.757690,232.678649L761.802928,229.803069L760.262857,229.341930Z M758.946729,228.135868L758.613878,227.485622L758.437398,227.818122L758.946729,228.135868Z M759.206459,222.734538L758.502475,221.937814L758.433405,222.132988L759.206459,222.734538Z M604.327145,193.171142L602.967845,190.444565L601.382481,193.253007L604.327145,193.171142Z M607.885117,177.020524L605.195106,175.632866L597.882007,177.507394L595.572475,180.104545L594.498843,184.275598L602.415227,180.832059L604.408119,177.793625L605.736127,179.577817L608.766943,176.940670L607.885117,177.020524Z M747.623482,139.787514L747.732506,139.240172L747.191873,138.881751L747.623482,139.787514Z M735.975496,134.362121L735.641007,134.398796L735.594832,134.567057L735.975496,134.362121Z M719.722320,125.944405L719.513608,125.134898L718.792957,125.639317L719.722320,125.944405Z M718.085151,125.448691L719.209080,124.556019L718.946526,124.514683L718.085151,125.448691Z M702.914153,68.272056L702.813426,67.976489L702.799378,68.319017L702.914153,68.272056Z M716.453128,60.784608L716.421997,60.864211L716.510201,60.887216L716.453128,60.784608Z M567.377476,178.187104L566.316083,222.594137L565.379558,259.335433L563.771724,318.100056L562.917345,347.470470L561.108093,406.167984L560.872575,413.498875L569.264467,413.738949L611.205441,415.228011L626.447839,443.901865L624.330941,481.125428L623.787808,490.423011L634.368068,490.942333L666.080712,492.696332L676.639389,493.346278L708.284902,495.492802L718.819658,496.273761L750.380902,498.813394L781.871567,501.648598L792.352539,502.659562L799.107863,501.205854L799.458303,500.078586L808.624061,494.111481L811.436577,493.655236L813.604399,495.441051L814.849394,495.055558L823.969415,494.636166L825.312494,494.880203L839.921540,499.786195L842.999306,504.011551L846.735837,506.455321L847.131622,512.360690L849.563622,511.969446L852.186360,508.328136L855.689125,506.872090L857.236626,508.605435L861.999193,507.877717L864.143518,503.265699L862.421274,499.189315L864.652830,497.664028L870.218875,495.717479L874.658748,493.296099L880.209072,496.223698L882.560005,495.645499L888.470485,496.773945L890.929630,495.089341L892.724613,494.880297L897.249430,493.086114L897.249378,493.086021L896.553472,487.915694L895.691510,487.937572L897.217454,484.486713L895.138204,480.580274L894.555856,476.178096L893.069570,474.802168L891.111595,470.126861L892.131912,469.434851L890.748652,467.514989L891.928107,466.064482L894.858072,464.797436L894.773193,458.501625L894.201814,454.591604L894.952110,449.879361L895.700817,448.337088L894.589560,447.159601L894.791177,445.380465L898.237441,437.279057L896.979134,436.845481L896.495029,434.306754L893.108430,430.416497L893.870747,426.573300L894.789753,425.908537L893.510087,424.016144L894.443056,423.583927L894.697751,420.423935L892.911047,418.814033L889.560962,418.403656L887.967972,416.735766L888.086620,415.161657L885.856185,406.038120L883.049775,404.522302L879.927358,401.499617L878.220570,398.642230L875.791871,389.038732L873.873768,388.745547L873.552527,385.677977L871.039162,384.264325L871.335787,387.348802L869.929787,385.992764L868.575594,387.043676L867.609598,384.528988L865.346721,382.937652L861.428291,379.054716L859.940092,375.412456L856.533205,371.747675L854.848648,372.248824L854.900944,369.836285L853.386672,365.471395L854.721954,364.085110L853.326576,360.701768L853.980563,358.707590L853.424529,355.870488L854.468264,355.910691L855.990603,350.295004L855.167962,349.074935L855.464122,346.998071L852.996352,346.569506L855.113785,344.457746L850.500495,341.371755L850.128749,342.850752L851.317214,347.606327L849.785324,345.878015L842.231613,340.127535L841.398678,337.629915L838.175931,335.268221L837.105233,339.466866L836.650466,339.264373L838.182858,344.847033L837.542161,346.178100L836.910501,344.223129L833.602675,340.246874L830.192139,342.567163L831.354116,338.909296L829.112364,337.213014L828.198368,330.244833L826.963173,325.036596L827.751331,323.278807L826.583584,317.267733L824.148163,316.524447L824.903366,312.109085L822.727337,309.761459L823.834907,306.578031L822.210411,304.071186L821.290413,303.901246L816.241417,299.669916L815.739744,298.247870L813.417740,296.297723L811.846050,292.042901L816.055315,289.647932L815.946158,290.841232L817.578728,292.033768L818.208867,290.526118L814.920105,284.110982L811.197065,282.347023L809.819890,279.978394L806.246290,281.729292L805.442712,281.064631L804.456576,276.563764L795.335031,273.000821L794.459909,269.405232L792.812523,268.697755L793.306683,272.355503L790.987430,271.982319L789.270995,268.697225L786.416867,259.387948L785.953856,258.674366L782.586200,260.825953L779.846971,260.340125L777.958031,258.754729L777.728549,256.210679L773.933610,257.489770L771.157234,254.958353L766.819899,252.891763L763.707393,250.579197L759.981169,245.087255L760.729579,241.602779L762.037137,238.240209L760.656308,236.905615L755.232685,229.986858L755.019899,226.935050L757.793857,220.471468L757.443639,218.414052L759.068429,214.813147L757.783086,212.012810L757.759050,209.668199L754.557574,200.497437L754.213567,198.419406L755.539773,195.021026L751.880179,196.325116L749.436481,191.273942L748.407007,190.636428L743.852824,182.739588L745.388321,178.729178L745.461199,175.074283L743.436650,167.778152L742.623077,161.462770L741.801039,160.738005L741.596531,157.046639L743.865802,153.204305L741.894238,153.330159L741.423660,151.454369L742.716993,146.054542L741.221082,143.096099L736.647557,141.598889L734.169295,137.195195L731.697043,136.699911L730.798741,135.456973L728.901685,135.419327L727.526750,131.765175L728.116658,129.971866L726.820705,130.502291L727.051441,128.030400L724.559022,125.383691L720.244401,128.831163L718.512364,127.348880L716.763794,130.147468L711.306377,133.293092L708.134591,131.129359L706.064895,125.468799L705.598976,120.296819L702.407111,114.184305L704.226829,106.038773L702.705698,103.310370L702.873870,100.038669L702.398619,93.100110L703.663054,90.948655L699.666720,91.240477L699.793695,88.254148L700.619553,84.688062L698.313831,83.638430L697.089162,79.532518L692.889397,77.823112L693.242786,73.892852L696.311648,69.351586L691.217716,67.891742L688.063779,64.938733L688.300366,54.763606L688.826297,54.021465L686.120139,44.003053L683.260507,41.290736L680.188937,42.785489L681.831638,39.335199L678.491429,37.655398L677.844708,39.504210L671.630645,42.474513L670.833670,52.096177L665.744964,66.977678L667.757737,69.170472L667.523950,70.239537L663.955521,67.452653L656.759583,81.102674L657.385835,82.027420L659.177290,80.633864L661.962007,82.768621L664.556807,82.421764L662.188178,84.523178L664.610977,86.023742L666.617480,86.233096L664.424110,88.568387L663.556921,86.176926L661.848770,84.847472L659.943497,89.124416L657.225058,90.715842L656.144364,92.330183L658.441182,99.468114L654.206791,107.057662L652.746932,112.106643L652.854609,116.405579L655.435161,120.655190L655.531096,121.820385L653.243751,129.774084L655.955995,145.112024L655.406340,145.082071L651.466251,154.525321L650.168544,158.709838L649.012035,165.016546L648.430716,165.848785L649.387842,169.477896L647.458359,172.953594L645.026070,181.231623L643.408241,184.729591L640.556887,187.035522L639.688597,189.180525L637.103956,192.335685L636.594882,196.615471L631.577783,204.535022L630.502270,204.658847L626.100459,207.316833L619.723593,208.715438L613.810597,208.469478L612.336584,206.434511L604.185459,202.413091L600.138577,199.665269L598.073586,199.418431L595.642854,197.520283L594.632516,195.436297L594.609886,191.180547L592.372210,189.732993L590.279516,187.354185L587.865062,187.116645L583.506179,185.267975L582.878798,184.524480L578.953348,184.781111L576.140788,183.493390L574.677658,183.552201L568.798272,179.993190L567.392378,178.199361L567.377476,178.187104Z M684.210873,35.618992L683.956133,34.822481L683.721033,34.998294L684.210873,35.618992Z M675.051521,36.742338L672.959332,33.585457L671.319917,34.742869L671.845181,37.626045L675.051521,36.742338Z M676.168183,32.325163L675.992132,31.636231L675.569858,32.051483L676.168183,32.325163Z M676.289476,24.315332L673.930299,24.925825L675.594076,25.448298L676.289476,24.315332Z M672.652518,23.374867L673.249083,22.446080L672.814053,20.346102L672.652518,23.374867Z M689.491633,20.080519L689.571181,20.951996L689.812772,20.715863L689.491633,20.080519Z M673.355291,17.534507L672.906431,17.837383L673.104982,18.245103L673.355291,17.534507Z M684.763219,13.721558L684.186724,13.521211L684.222763,13.818745L684.763219,13.721558Z M676.670624,8.339400L675.493141,7.836638L675.523480,8.079026L676.670624,8.339400Z M674.368868,0.000000L673.695287,1.081149L676.151081,0.611129L674.368868,0.000000Z " data-name="au-ql" data-realname="Queensland"/><path d="M715.650313,853.054285L714.999219,850.091814L713.424397,852.467352L712.111595,852.416808L712.949805,855.360562L715.650313,853.054285Z M717.520217,849.789985L716.712998,845.662657L715.434913,847.275436L715.943494,849.904798L717.520217,849.789985Z M733.349656,836.904483L732.809079,835.409954L730.419423,836.179910L731.378043,837.148032L733.349656,836.904483Z M737.418047,830.144441L737.258211,829.082515L735.720324,828.543597L737.418047,830.144441Z M705.244582,858.441447L707.676660,855.648413L707.700842,853.828287L710.093515,851.914583L710.594823,849.440585L709.207723,846.691258L710.753591,848.174040L711.769295,847.122606L712.243297,849.876914L713.571680,850.403858L714.949804,844.307579L717.271737,842.031299L716.598163,838.346310L718.319790,841.224845L718.089448,843.578630L719.678013,844.741431L720.733503,843.674066L720.058266,841.257230L724.805319,842.249538L725.941616,844.509448L724.248929,845.533225L721.690066,844.906635L723.710502,847.158051L722.642698,847.746971L723.996338,850.600664L726.083773,848.048545L727.528896,848.455502L728.311538,844.740490L727.356306,841.242948L726.394111,841.899019L729.198923,837.213895L728.444707,833.827118L730.211433,833.618812L732.456505,826.318410L735.649223,820.893286L737.135706,821.069084L736.513715,823.088487L737.804104,825.576480L738.926604,824.218494L737.962128,822.634955L738.218174,816.474030L739.257893,815.357097L739.906322,805.425692L741.350715,803.321459L741.068398,800.061700L741.891460,798.679314L742.075033,795.168710L740.912011,793.004652L739.695276,792.728948L737.857881,790.349810L736.731535,790.156015L735.323636,792.706195L733.350912,793.508552L728.919429,792.513066L727.475250,794.350197L724.970865,794.751031L724.153056,793.766490L720.678341,795.008986L718.110641,794.053898L708.438523,796.932638L704.682010,797.445008L699.663075,795.659825L696.572422,793.499418L694.529588,792.791790L690.056865,789.141100L689.992503,788.168363L685.313821,786.568309L682.365823,786.911618L674.527703,783.384374L674.595770,785.999319L672.105436,790.377719L672.891961,796.017469L676.025543,806.811992L675.981984,808.077526L678.173910,811.869364L680.555376,814.951393L681.203827,820.307584L682.597143,819.572174L682.697820,821.798688L685.161352,824.717767L685.942727,824.647101L683.665230,828.403527L683.592612,825.661735L680.280041,822.256666L679.517032,820.497974L679.676223,830.553887L683.080962,839.556480L684.646564,840.026655L687.903620,848.203102L688.778937,847.443963L694.310896,848.577103L695.122762,850.522746L690.700730,849.749986L690.553101,854.834808L693.612583,854.803576L694.394725,853.549984L696.774113,854.633871L700.405770,855.106332L705.244582,858.441447Z M681.392763,783.420721L679.115306,781.757288L677.993275,783.950385L681.392763,783.420721Z M741.807637,786.707676L743.028110,784.524741L740.293449,785.093639L741.807637,786.707676Z M677.286741,776.794175L676.718209,777.539956L675.506150,778.165349L677.286741,776.794175Z M679.411698,777.824924L678.033691,776.857244L678.747264,777.890534L679.411698,777.824924Z M746.342387,781.716083L745.369026,780.222043L742.605868,781.232995L741.418595,780.781479L738.707278,782.553620L742.656769,783.546699L744.673054,785.055167L746.342387,781.716083Z M736.195216,778.907273L735.836752,779.211498L736.795837,779.710038L736.195216,778.907273Z M735.151374,773.924415L735.785640,772.550843L735.713416,772.186979L735.151374,773.924415Z M740.209674,764.938869L737.878424,767.574470L735.851555,768.644119L738.156582,769.270162L738.815516,774.084650L739.999050,777.592566L741.878945,778.834953L744.821675,777.284653L745.915721,771.748862L740.209674,764.938869Z M664.502557,766.505770L665.983484,764.898580L666.287991,757.443780L665.877481,756.136924L663.299958,754.777696L663.169840,756.619058L661.384454,757.635056L660.338418,762.927914L661.151205,764.200954L660.668173,766.217155L664.502557,766.505770Z M729.480760,758.239078L729.322766,757.464934L728.764819,757.673694L729.480760,758.239078Z " data-name="au-ts" data-realname="Tasmania"/></g><g class="" id="cities"><circle cx="693.491903499" cy="720.630186023" data-name="Cranbourne" data-population="460491" data-realname="Cranbourne" data-state-code="au" r="16"/><circle cx="896.25214319" cy="491.238784766" data-name="Gold_Coast" data-population="527660" data-realname="Gold Coast" data-state-code="au" r="16"/><circle cx="779.315968334" cy="658.79034605" data-name="Canberra" data-population="327700" data-realname="Canberra" data-state-code="au" r="16"/><circle cx="843.354152058" cy="605.030987629" data-name="Newcastle" data-population="1134616" data-realname="Newcastle" data-state-code="au" r="16"/><circle cx="565.065384091" cy="634.967719151" data-name="Adelaide" data-population="1145000" data-realname="Adelaide" data-state-code="au" r="16"/><circle cx="889.618747402" cy="474.464136151" data-name="Brisbane" data-population="1860000" data-realname="Brisbane" data-state-code="au" r="16"/><circle cx="86.8781918401" cy="581.327834805" data-name="Perth" data-population="1532000" data-realname="Perth" data-state-code="au" r="16"/><circle cx="688.159771711" cy="713.227310068" data-name="Melbourne" data-population="4170000" data-realname="Melbourne" data-state-code="au" r="16"/><circle cx="826.172477748" cy="629.930010308" data-name="Sydney" data-population="4630000" data-realname="Sydney" data-state-code="au" r="16"/></g></svg>