<?xml version="1.0" encoding="utf-8"?><!DOCTYPE svg  PUBLIC '-//W3C//DTD SVG 1.1//EN'  'http://www.w3.org/Graphics/SVG/1.1/DTD/svg11.dtd'><svg enable_background="new 0 0 1000 901" height="901px" pretty_print="False" style="stroke-linejoin: round; stroke:#000; fill: none;" version="1.1" viewBox="0 0 1000 901" width="1000px" xmlns="http://www.w3.org/2000/svg" xmlns:xlink="http://www.w3.org/1999/xlink"><defs><style type="text/css"><![CDATA[path { fill-rule: evenodd; }]]></style></defs><metadata><views><view h="901.757775337" padding="0" w="1000"><proj flip="auto" id="robinson" lon0="133.500151402"/><bbox h="576.39" w="639.89" x="1610.84" y="154.94"/></view></views></metadata><g class="" id="states"><path d="M611.911226,170.139846L610.441506,168.899950L610.365815,170.380582L611.911226,170.139846Z M619.420612,166.287781L617.723262,168.646431L619.448485,172.607941L620.876072,171.802132L621.175267,167.843303L619.420612,166.287781Z M612.007163,166.345595L611.480406,166.464898L611.713005,166.801502L612.007163,166.345595Z M615.948395,165.651024L614.481818,165.876201L614.602934,165.977289L615.948395,165.651024Z M610.315077,166.780198L610.797205,164.287629L608.094599,166.149598L607.914159,167.202017L610.315077,166.780198Z M616.219139,167.159409L617.295536,163.810420L616.306159,164.796794L616.219139,167.159409Z M594.328773,147.892085L593.722060,146.438372L592.873863,148.495570L594.328773,147.892085Z M454.039199,147.385319L453.107734,146.226410L453.553225,147.297975L454.039199,147.385319Z M456.532452,145.751344L455.391789,145.459487L455.774740,145.832297L456.532452,145.751344Z M452.907570,148.397235L452.033939,145.495703L452.699806,149.818181L452.907570,148.397235Z M615.995089,118.858412L616.654465,117.730170L615.308765,117.182856L615.995089,118.858412Z M610.760947,117.695288L607.020297,117.356576L606.824171,120.008756L608.294513,118.411056L608.664170,120.820388L610.760947,117.695288Z M621.131436,116.404350L616.885482,119.874549L616.306689,118.989750L613.309448,120.213262L613.664456,121.376389L612.834542,127.471118L611.238851,130.006164L622.840314,132.417661L624.419770,129.345773L622.689561,130.053031L618.978448,127.914218L621.796707,125.362136L621.154428,123.142386L623.277861,122.373357L625.269819,119.497492L623.585783,118.053172L622.936501,120.404986L620.460075,120.117400L619.876590,118.153294L621.131436,116.404350Z M626.666950,114.868434L625.939058,115.049506L625.851416,115.358393L626.666950,114.868434Z M609.931709,110.322479L609.302158,109.189189L608.178367,110.773664L608.521017,112.422483L609.931709,110.322479Z M612.605469,76.694888L612.873961,77.417023L613.301450,76.988854L612.605469,76.694888Z M496.173277,75.386950L495.367741,75.416772L495.954006,75.672395L496.173277,75.386950Z M629.043239,75.702218L628.941967,74.231671L628.504260,74.453678L629.043239,75.702218Z M527.428127,75.721390L527.724359,74.430494L526.022880,74.820319L527.428127,75.721390Z M498.128662,74.104575L497.352119,73.733921L496.682170,74.053450L498.128662,74.104575Z M496.825792,73.207765L495.708689,73.341967L495.377189,73.661495L496.825792,73.207765Z M586.991999,73.325288L586.388726,72.671373L586.093733,73.671294L586.991999,73.325288Z M617.332743,72.587879L615.016319,72.238528L614.403003,74.283511L617.332743,72.587879Z M589.567557,70.829233L590.472225,70.400044L588.940701,70.131488L589.567557,70.829233Z M609.908656,69.205141L609.437776,69.217922L609.552584,69.473545L609.908656,69.205141Z M613.234911,65.954479L613.148353,65.662643L612.899359,66.101461L613.234911,65.954479Z M624.827186,66.329391L625.472875,65.315423L623.974709,66.838505L624.827186,66.329391Z M591.980758,64.039444L591.984782,64.731753L592.178564,64.280154L591.980758,64.039444Z M630.599626,63.281098L630.340787,63.834946L630.682408,63.543111L630.599626,63.281098Z M611.482362,64.614725L612.794709,63.080043L612.107185,62.839864L611.482362,64.614725Z M532.923096,62.991394L532.231662,64.889387L533.834325,64.616723L532.923096,62.991394Z M551.707137,63.402519L553.697427,61.434231L550.881505,62.524884L551.707137,63.402519Z M527.035248,61.660030L526.916644,60.948549L526.526464,61.383106L527.035248,61.660030Z M614.540892,60.643933L614.300533,60.524643L614.304916,60.948549L614.540892,60.643933Z M622.427731,59.776950L623.095211,58.134580L618.649740,61.536479L618.304718,60.846300L615.908345,62.985003L615.927762,63.875419L622.427731,59.776950Z M483.051679,58.328427L482.536665,54.364162L478.151551,57.766059L477.486594,58.865232L478.254958,63.170329L476.835242,64.371752L475.215640,63.632579L473.636672,66.403947L474.345727,67.603242L476.488399,67.654366L481.004506,66.340042L486.264432,67.816260L487.583453,65.673294L483.797589,64.243941L484.410366,62.294824L483.095496,60.058133L483.051679,58.328427Z M486.365446,53.316114L484.272588,50.076113L483.375649,51.411734L484.004395,53.827357L484.931957,62.544055L488.490574,65.867141L494.068626,69.635439L494.427603,70.353312L503.426003,64.416486L505.716032,61.189260L507.658106,61.775060L507.576712,59.857896L509.668298,56.882034L507.623552,52.600374L504.398963,53.169132L504.270830,51.028302L502.519217,52.517297L502.390644,56.300495L500.859153,52.811262L498.723838,54.310908L498.032365,56.530555L495.799249,54.161795L493.917564,55.495287L487.264537,55.989489L486.365446,53.316114Z M542.008377,50.291261L540.696312,50.056941L541.147925,50.644870L542.008377,50.291261Z M439.544428,147.318573L433.657963,183.808504L432.099695,192.912893L425.592224,229.327929L420.500327,256.639085L411.820752,302.145834L406.477045,329.449667L398.970342,365.857622L396.996586,374.962141L390.773542,402.283651L384.011829,429.621235L381.628340,438.734166L387.943242,438.734166L476.327516,438.734166L482.641259,438.734166L577.338115,438.734166L583.651857,438.734166L585.820367,430.999858L590.008199,415.527579L595.919980,392.333227L603.215834,361.420742L611.645088,322.797679L616.470564,299.623846L624.354064,261.001058L630.531922,230.096265L637.974190,191.126781L637.973915,191.126500L635.431204,188.391063L633.552630,183.548647L624.015985,178.829788L619.089470,174.914092L613.269621,174.343142L611.474835,175.272001L608.189068,169.592332L606.065754,167.040107L603.009146,165.037529L602.909229,161.871759L597.010269,157.691936L595.319041,155.376212L591.413654,152.500208L589.511938,151.709841L586.966691,148.578315L586.302805,143.589049L588.065314,142.540925L593.016182,135.890061L600.060027,129.554542L601.721056,123.536487L604.032722,120.571147L605.556031,116.772885L604.314559,117.331013L601.690497,115.517419L602.059742,110.352303L603.767978,109.282472L603.194584,106.943535L607.365855,104.837111L608.861673,102.573162L609.485595,103.829832L615.233944,99.858764L614.926581,104.836636L617.010590,104.760423L619.054722,101.092535L618.363231,98.231273L620.342351,98.784484L621.819955,97.236765L618.809054,94.509781L620.772617,91.746893L621.656374,93.975096L622.005969,90.954454L625.999656,87.274082L630.495894,82.107902L630.820558,80.678185L627.365380,76.545774L625.361553,77.598441L626.673787,79.197866L622.693821,72.063505L617.159396,73.567767L615.081856,76.264589L615.130684,77.767563L617.389722,77.568267L618.097665,78.507683L615.589372,83.123820L610.340708,83.511517L609.039117,81.498478L610.683903,78.290403L609.456031,79.046622L608.442433,76.081392L605.279892,77.919749L603.247192,80.392906L601.849108,76.548204L608.179251,71.260772L604.041497,72.521360L606.237072,70.981717L609.217148,67.423985L602.602838,71.360891L601.382946,71.107398L600.890072,73.695578L596.920871,75.264766L595.579491,74.533624L592.965075,76.917411L593.544009,79.018733L592.054834,78.186106L591.963977,79.873138L584.274291,75.744822L583.562321,73.231197L581.232433,70.990238L578.908684,73.050131L576.264831,73.925639L574.144249,73.746703L571.121104,71.407755L569.119895,70.870948L568.021746,69.085851L566.701076,70.353312L566.501418,68.429754L564.473734,69.343603L563.404750,64.972464L554.916969,67.298625L545.748745,63.722046L544.079255,59.027126L542.135192,55.533631L536.455514,59.578843L535.517640,59.372215L532.251036,53.228777L529.650241,53.667594L529.124221,49.892917L527.249331,50.710906L527.281922,53.092445L525.152647,51.196586L524.998059,56.805348L522.816258,52.057179L521.019249,49.609603L520.462752,51.986883L518.740610,51.296705L516.995582,53.326765L519.935110,55.258838L519.209871,55.989489L521.222843,57.022626L522.424944,59.757778L527.316129,58.145231L531.503986,58.528664L535.573156,63.170329L533.812068,67.492472L532.891371,73.998065L534.590908,75.910977L530.728224,74.820319L529.330087,75.791686L527.894625,80.103199L524.197612,78.213716L524.029098,76.558555L520.307621,79.453489L514.063575,78.699400L508.692999,80.005210L505.425309,79.979648L504.048047,79.319287L502.220307,73.388831L500.138466,78.484250L498.746685,76.792877L495.020070,76.724710L495.550655,82.016117L490.259831,82.731864L490.503537,84.271999L492.422906,84.964314L493.121176,86.306342L491.154321,88.287433L489.503655,86.306342L489.211568,83.626548L486.833420,82.510323L484.602884,82.731864L485.450933,83.677672L484.084435,87.120080L484.530683,89.716803L483.231984,90.074678L482.057040,88.078673L479.772825,89.309933L476.978193,95.956198L475.222023,96.786984L472.986740,96.363070L471.538358,102.504507L474.519784,106.760715L470.825029,110.484378L470.381765,110.173362L466.793228,112.301479L464.871696,110.642016L463.855372,111.779568L462.066308,116.103983L461.836962,118.411056L457.244013,125.515517L454.831981,125.950094L451.920680,130.323578L450.796300,136.397075L454.134663,139.417865L454.215964,142.172378L456.167509,145.137805L458.031902,145.975030L457.903876,147.104113L454.547297,146.390447L453.352821,151.279508L454.995606,155.212173L451.898559,152.174261L450.189703,149.036341L445.233196,146.690826L444.648892,147.308626L444.596366,153.586697L442.908024,155.152522L443.296234,150.295381L439.761930,147.342712L439.544428,147.318573Z M544.671665,48.003449L544.604298,48.003449L544.638243,48.069485L544.671665,48.003449Z M544.323494,48.346408L544.527251,47.818124L543.757396,47.396348L544.323494,48.346408Z M630.956033,46.569839L626.963237,52.244815L625.852760,54.634695L623.343842,56.867859L624.466039,57.664858L629.524058,50.630316L630.956033,46.569839Z M540.575392,45.264040L540.354826,45.849839L540.489366,45.869010L540.575392,45.264040Z M534.864132,47.091733L532.173235,46.848892L534.280276,55.094814L535.048823,50.926054L534.864132,47.091733Z " data-name="au-nt" data-realname="Northern Territory"/><path d="M159.650458,652.176598L160.313664,651.140723L159.744409,651.145030L159.650458,652.176598Z M34.591580,601.200754L34.395265,599.796989L34.426740,601.797569L34.591580,601.200754Z M21.366653,503.787863L22.707760,502.323501L21.845970,502.869041L21.366653,503.787863Z M24.650908,425.175113L22.879228,429.080723L23.875355,437.165014L24.541289,437.832283L25.684692,442.027698L26.943183,439.694462L24.650908,425.175113Z M28.314501,419.775678L30.248376,414.624070L30.150577,413.293609L28.314501,419.775678Z M103.400250,303.618443L105.122812,301.177971L105.099385,299.504133L101.244550,302.634589L103.400250,303.618443Z M306.915031,193.350637L305.507409,193.186596L306.067434,193.676587L306.915031,193.350637Z M303.939540,192.496347L303.490074,190.904938L303.373532,190.924112L303.939540,192.496347Z M303.679720,188.572147L303.833901,187.845679L303.693087,187.956460L303.679720,188.572147Z M298.711812,188.222761L297.866455,188.071502L298.285775,188.361237L298.711812,188.222761Z M300.778908,187.871244L300.946647,187.219340L300.438689,187.871244L300.778908,187.871244Z M300.252800,187.939417L299.830844,187.129863L299.830825,187.745550L300.252800,187.939417Z M324.329521,186.948778L324.135678,186.079572L323.987880,186.028442L324.329521,186.948778Z M308.877980,183.782992L308.461966,183.825600L308.142741,183.695645L308.877980,183.782992Z M316.807314,183.118304L317.277421,184.241030L317.919816,184.155814L316.807314,183.118304Z M322.138523,183.120435L321.698425,183.299389L321.751053,183.695645L322.138523,183.120435Z M307.984343,183.341997L307.231103,182.434443L307.545926,184.336898L307.984343,183.341997Z M308.722740,181.258456L308.631550,180.785505L308.490891,181.139153L308.722740,181.258456Z M321.475866,180.555421L321.661612,181.292543L321.882644,181.328760L321.475866,180.555421Z M306.357051,180.044122L306.135886,180.482987L306.412165,180.314684L306.357051,180.044122Z M313.802030,179.931210L315.172720,180.727984L315.172320,180.003644L313.802030,179.931210Z M310.687330,179.081176L311.648864,179.684083L311.733435,179.586084L310.687330,179.081176Z M310.094539,178.834048L309.272898,178.714745L309.403841,179.313391L310.094539,178.834048Z M304.352094,177.881755L303.711471,178.131013L303.843364,178.318489L304.352094,177.881755Z M309.636181,177.583497L309.231557,177.694279L309.740930,178.382401L309.636181,177.583497Z M334.352021,174.470967L333.156212,175.316740L332.767686,176.115644L334.352021,174.470967Z M336.436148,157.485289L333.629363,160.218575L334.452346,160.655305L336.436148,157.485289Z M342.458972,158.203228L342.974039,157.293554L342.430663,157.046430L342.458972,158.203228Z M419.915785,155.365560L418.759225,152.042179L418.483726,153.899862L419.915785,155.365560Z M346.038257,149.865049L345.347534,151.247552L345.885105,151.452067L346.038257,149.865049Z M426.156303,151.196423L425.365816,147.934949L424.496817,149.626449L426.156303,151.196423Z M349.058612,138.297317L349.186958,137.321631L349.068116,137.579400L349.058612,138.297317Z M354.209735,137.200203L351.007769,140.491549L352.271167,141.305334L354.209735,137.200203Z M362.043861,137.338674L361.912958,136.064746L361.252159,136.514242L362.043861,137.338674Z M349.208050,135.706854L349.270325,134.688566L348.886702,134.935682L349.208050,135.706854Z M366.848582,128.167722L366.770730,127.654323L366.598507,128.235892L366.848582,128.167722Z M388.493171,121.823746L386.048022,121.286918L386.260973,122.102812L388.493171,121.823746Z M333.413932,587.447947L343.736287,559.715141L347.058966,550.437970L356.619692,522.576078L359.670860,513.275113L368.416281,485.341941L371.194662,476.025286L379.122173,448.058466L381.628340,438.734166L384.011829,429.621235L390.773542,402.283651L396.996586,374.962141L398.970342,365.857622L406.477045,329.449667L411.820752,302.145834L420.500327,256.639085L425.592224,229.327929L432.099695,192.912893L433.657963,183.808504L439.544428,147.318573L439.358831,147.297975L437.816569,146.584308L433.950393,146.226410L430.530686,144.958857L427.036363,145.331666L425.972867,147.336321L426.429302,150.352901L424.288582,151.978268L423.677119,148.282196L420.374679,152.257346L420.329343,156.153800L421.624395,159.046861L420.971483,160.810824L419.251426,156.354056L417.492541,156.788653L417.147021,160.763955L416.726647,158.041319L417.353257,155.339995L421.325011,145.689564L422.351625,144.066245L418.237269,139.507339L416.804112,139.745935L414.897416,136.767750L411.641325,129.262692L408.033233,126.120517L407.141798,126.092823L407.065832,123.385237L404.798814,123.576962L401.295796,122.373357L399.665578,123.357544L399.260187,120.091836L396.943384,117.356576L394.086822,119.842595L391.989881,119.141737L393.192800,124.137225L391.679257,123.804902L387.101807,130.615429L385.013289,127.560590L385.401731,125.210886L387.366292,123.074217L386.185041,122.954922L377.602613,126.827772L377.531877,122.784500L374.787731,122.552300L376.190389,123.792120L373.978483,126.640306L376.277259,126.674391L376.808702,128.336015L375.996739,130.257539L374.695219,130.760289L373.607214,133.902483L372.167169,134.901597L373.204155,137.615615L371.267004,138.199322L369.868310,141.288291L368.931573,136.810356L367.437695,136.567500L365.287328,137.794562L363.840157,140.881398L364.955348,134.023910L366.321663,132.221674L363.719142,131.024446L363.484809,135.932667L362.632994,138.376139L361.078746,137.308850L358.893911,141.134907L357.508148,137.794562L354.264243,140.670496L354.672592,142.172378L352.478161,146.390447L354.964292,147.760260L351.871475,149.176944L355.012744,150.672455L356.468428,154.679579L353.211300,154.123551L350.672458,151.503196L350.061722,153.593088L348.436751,150.533982L346.294473,154.302502L344.939467,153.394963L343.740468,156.626744L348.074725,155.018308L344.815337,156.771610L346.930119,158.203228L348.522666,158.237314L348.439874,162.815524L345.543199,162.238187L343.887257,159.975711L341.966994,160.039622L340.746123,158.237314L336.955227,163.989373L332.947457,163.627205L331.399503,164.449539L331.269259,167.398014L330.278644,173.669933L331.993815,175.651214L335.259025,171.884650L338.070710,171.884650L334.874849,174.296273L333.069607,179.826820L330.831126,179.958906L330.905623,178.531530L328.324584,182.783830L328.291486,185.568274L332.229444,185.478797L338.000422,187.555944L329.663187,187.244905L328.157418,186.192484L325.671291,187.483510L323.919648,187.304556L317.557977,182.641092L318.567490,183.981120L318.528385,187.019082L316.946501,185.813271L315.759006,187.841418L315.987111,185.517145L313.309006,183.727601L315.614201,182.999001L310.707601,181.543931L309.430370,182.462138L312.558740,185.936835L310.663058,188.148197L308.642768,187.304556L309.441242,189.882345L305.308560,190.031474L306.960631,191.782663L309.256720,191.250063L306.523155,194.066450L308.428707,194.364705L310.668579,196.369405L311.434709,199.946323L315.883166,198.638268L313.195517,203.248407L311.503162,203.129106L310.747882,206.810379L310.266720,205.687678L306.863982,203.124845L304.179082,215.105935L304.233926,218.062817L301.748377,212.142643L301.023584,211.746400L297.654851,198.092889L294.489277,192.502738L296.228060,186.750650L292.893261,190.359556L288.868036,195.348947L289.243257,196.887089L285.457463,197.788244L283.616330,198.872610L284.019490,201.980835L280.083470,202.413301L276.172789,205.777153L272.448282,212.065951L271.736808,215.135760L271.367997,224.221499L270.797936,227.874906L273.998379,228.859083L272.774522,233.245236L269.229947,235.202901L264.824067,239.373814L257.304256,244.511746L256.372195,247.723966L254.071593,248.656950L252.530548,253.415539L247.154098,261.279552L244.156288,264.747120L234.731721,272.065442L220.332037,278.173755L217.189405,279.213083L209.470423,280.252405L204.911652,281.747238L201.723815,283.374341L199.149618,281.649516L193.635761,280.635760L187.823812,282.969696L183.605809,288.506859L172.635803,291.126311L171.981763,290.517238L167.341973,291.126311L162.318827,294.546466L159.449979,297.794086L147.925287,300.694560L144.584080,299.544595L144.134378,297.257432L136.693844,300.285684L135.383601,298.524530L136.035129,295.649595L134.580218,297.794086L126.647838,303.171237L122.635000,304.223236L121.652433,303.707885L117.940902,307.651810L113.451809,310.032642L110.509223,313.980824L106.961677,315.618451L101.264210,321.263931L95.646097,323.489349L84.727244,328.266068L81.445877,329.888853L77.536270,335.577221L76.580540,338.271326L74.505400,341.086876L72.134012,346.505162L70.749547,345.759708L66.978389,347.634001L68.420394,341.908976L67.012977,342.650148L70.887388,329.335146L68.436858,329.252090L65.100796,332.746859L60.098121,342.645888L58.492883,344.496706L56.623977,348.000343L55.566998,348.713863L55.361962,350.758600L56.918035,354.630928L56.547559,362.126818L54.810566,364.894006L54.221470,370.358365L51.813301,374.546916L49.996687,375.897703L44.549186,383.992356L42.807686,387.634126L42.679283,390.216961L41.096135,392.863852L40.357273,397.173323L40.795656,400.293759L42.512396,403.192701L43.394714,411.551609L43.118017,413.777603L45.171464,416.732842L46.618876,424.317829L49.002297,430.131315L49.689956,433.225853L51.673183,435.126111L50.506664,438.549171L49.382977,437.973327L47.630173,447.763416L44.451045,450.474120L42.185681,447.429925L42.076929,441.863476L42.647386,437.472130L40.761773,441.926194L37.600363,443.900241L37.373904,442.616369L40.166443,435.728343L37.810265,429.095336L36.567519,428.278825L36.983753,425.877914L33.556576,430.928039L34.883884,441.077918L36.604733,443.554093L39.988824,447.091333L39.294905,451.652262L37.214427,453.503619L33.406783,455.846552L33.473529,453.125919L31.636762,453.545433L32.891044,447.968363L31.975869,446.922638L30.412984,451.314316L31.632852,442.913516L28.709055,445.942001L29.369315,438.648733L27.131947,443.599485L25.712280,442.825831L26.913030,449.637200L29.450319,453.337419L33.807678,462.797043L36.714288,473.203667L37.203080,476.657009L36.913509,483.517822L34.846146,487.538909L34.746851,491.855488L35.781536,496.171267L36.964664,497.157429L40.083768,508.295755L38.842453,511.675733L39.556606,515.003964L42.183407,519.701460L42.436347,529.835976L40.300568,534.490311L38.820514,540.867573L37.228817,544.222455L37.304769,546.426110L36.448936,548.996571L37.099437,550.053488L35.798595,557.036380L36.189725,562.763639L35.886603,564.982162L36.723468,566.322561L37.829896,577.393275L38.799122,580.814471L39.566687,589.622894L38.656584,593.669970L32.391365,610.099502L32.644458,611.938609L30.541721,612.331999L30.492689,615.494751L29.661150,612.702017L32.350730,608.940973L28.764212,612.827487L26.960959,622.327088L24.432785,629.205281L18.832436,635.095157L12.354614,638.722922L5.492607,638.808364L4.905325,639.553912L1.584600,649.524876L1.718316,656.968322L6.964765,656.174652L11.015943,659.088453L13.673393,662.135586L16.727452,669.776765L24.233391,671.749533L25.240006,674.273225L27.568284,675.435285L31.569091,674.855165L43.399535,674.775380L47.876818,677.622968L52.099439,675.655283L55.422430,677.484848L55.858362,675.540969L54.592933,674.971612L66.606492,671.779694L67.497987,671.868023L76.251510,665.215408L78.607909,662.606091L82.378045,661.244159L82.155942,659.822625L84.237350,659.646582L88.702989,660.943486L91.398760,660.189766L92.945166,660.904830L94.302094,658.745030L97.391841,658.384471L97.126191,656.749510L102.654025,650.617057L108.088380,647.506167L113.798707,645.931258L114.863088,646.648027L118.902537,646.288558L120.912387,646.917648L124.367585,646.239347L125.335357,645.197496L130.647129,644.904453L132.646516,644.119538L134.752648,644.493799L138.047572,643.796629L139.065037,644.429637L143.273412,643.043980L146.806774,643.223578L149.557864,644.658484L152.499431,645.197496L158.101932,643.311241L158.507240,645.986884L157.820420,648.405154L161.358683,648.482219L162.634926,646.468289L168.086644,646.089579L168.636117,646.827773L171.289878,644.994289L174.666408,645.276642L180.293530,644.299179L180.966654,644.703399L181.116376,648.150421L183.808450,647.546832L187.367473,645.032791L190.002996,646.288558L195.838917,642.774596L197.399224,640.389322L204.526947,634.239314L213.024557,623.451601L217.361768,620.785470L226.650037,619.159079L231.608827,617.322058L235.617021,614.609811L246.930071,610.270732L248.473713,609.866311L261.592475,602.685422L269.532099,602.931826L275.919262,603.813406L284.312757,603.479884L289.813238,602.685422L295.798515,601.066953L301.851344,598.764986L307.776891,597.750061L312.891094,596.013422L324.240191,591.530639L333.413359,587.448028L333.413932,587.447947Z " data-name="au-wa" data-realname="Western Australia"/><path d="M737.566256,683.546003L735.935809,681.435469L734.808296,677.992273L724.978878,683.477372L723.229793,686.176793L720.006755,692.870514L721.481737,693.620159L720.587095,697.349196L722.622479,698.689991L725.278909,695.955009L727.375288,691.033297L730.390049,687.830787L737.566256,683.546003Z " data-name="au-ct" data-realname="Australian Capital Territory"/><path d="M912.469772,495.040303L907.239748,497.490286L905.278084,497.942002L902.268802,500.003002L896.228348,499.604072L893.588490,500.503345L888.361619,498.182733L883.067322,501.244369L876.677327,503.949951L873.932786,505.803478L874.775165,509.808665L871.346569,514.845250L866.076996,516.184204L864.860266,514.579067L860.754471,516.511157L857.023994,520.597480L854.324510,521.294409L855.414774,515.224924L852.053444,513.134577L849.845579,509.113939L835.577843,505.685863L834.216528,505.581767L824.450755,507.017429L823.033493,507.552732L821.198996,505.929202L818.106387,506.703811L816.641767,508.431350L807.264712,513.331868L806.167816,515.084405L803.054282,517.287979L636.375388,517.293383L625.559240,517.293383L622.590130,525.503637L613.336590,550.099721L603.570066,574.661606L600.204585,582.849059L589.795011,607.429310L586.222968,615.637139L575.217181,640.321277L571.540482,648.389505L571.670828,649.250045L576.610872,650.435788L580.975614,652.548408L581.594978,653.530958L588.582465,651.334843L592.833283,650.854688L593.629951,652.397373L596.233548,652.911733L597.002803,656.926876L598.187369,656.801552L595.539562,661.955554L596.269045,668.316593L599.823295,667.172956L604.106301,663.805740L604.520603,665.809837L610.255927,666.435330L613.222493,669.451048L609.689964,679.035444L612.424071,680.484873L611.332445,683.385409L612.307018,684.623657L617.742110,688.186667L619.514041,689.873001L619.795526,691.557168L622.533949,695.930239L622.233003,698.582608L624.382776,702.879177L626.753628,704.511643L630.228663,702.910859L635.568673,697.349196L645.548865,696.601829L648.141204,696.709181L651.865210,700.435892L654.472820,699.992492L654.787045,701.256663L659.281382,702.364015L661.255346,702.103691L665.221595,700.307827L673.986862,703.960567L676.565702,703.744278L675.584475,705.506417L676.097202,707.306075L677.447207,706.402074L678.176826,702.828210L680.899223,702.515530L688.275143,699.436215L689.180568,700.778787L692.186576,699.801095L697.389287,705.476104L695.628290,710.325872L694.744022,711.227391L695.269182,713.315954L694.449470,715.432299L694.933916,717.328176L690.610450,721.793006L692.816873,722.534844L720.178739,741.157192L720.179566,741.156552L723.518037,734.718250L725.907602,732.176881L724.099839,730.108248L726.311052,728.675451L727.090945,725.640176L729.049500,723.028013L735.235348,716.535343L739.073844,710.684138L740.826057,709.407760L742.733176,704.943643L743.209777,702.546375L745.222548,701.544277L750.316502,694.247528L756.676955,689.104510L758.350772,686.685372L761.442849,683.964892L763.546725,681.304559L767.623197,678.123852L769.412725,677.486605L770.494776,674.986707L772.316633,674.486444L771.797446,677.223729L774.029345,674.868103L772.982720,674.400199L773.206063,670.961146L777.465402,667.723398L780.155934,663.899761L779.123550,662.348272L780.904463,661.669439L786.529348,654.816317L793.189266,650.542094L792.520653,650.077355L797.385479,646.648027L797.806735,644.594320L799.527938,643.311241L802.975100,637.852024L802.246097,636.682687L809.303156,629.829421L811.327847,628.508867L812.373954,629.068830L816.991592,623.592180L821.907318,619.563510L822.130852,618.891686L827.387381,616.409198L832.380993,615.358600L830.300994,613.773895L833.741497,612.591100L837.145143,610.159149L843.977187,607.090321L847.901348,598.085529L851.496938,594.139927L854.879288,591.879345L860.353806,586.274780L861.165085,584.322191L865.466696,579.022883L866.976660,577.823825L868.843159,573.808142L871.063723,571.832447L873.816313,566.708557L873.150139,565.205525L873.910781,562.568525L878.220702,555.757117L879.159666,554.846947L887.403746,543.071849L888.665648,541.933662L892.853955,535.121386L894.012618,532.341873L895.995237,529.587273L897.014936,525.728610L902.495844,518.225136L907.593073,513.829371L910.165518,507.997741L909.709569,507.046190L910.703697,503.194775L913.471175,495.713315L912.761714,495.789996L912.469772,495.040303Z M737.566256,683.546003L730.390049,687.830787L727.375288,691.033297L725.278909,695.955009L722.622479,698.689991L720.587095,697.349196L721.481737,693.620159L720.006755,692.870514L723.229793,686.176793L724.978878,683.477372L734.808296,677.992273L735.935809,681.435469L737.566256,683.546003Z " data-name="au-ns" data-realname="New South Wales"/><path d="M478.721921,689.749537L474.301370,690.507229L472.031582,689.888078L470.832235,690.676102L465.685735,692.131238L459.381723,693.097222L454.260041,694.416519L450.920305,698.527930L451.636892,699.720442L457.616130,702.194976L461.223940,701.635372L462.470898,702.001930L467.885065,701.164727L469.782507,702.752450L473.596297,700.631220L473.847985,699.382181L475.817573,698.265605L479.990520,697.322621L483.737772,698.707878L485.459239,697.420165L485.092430,693.961554L481.033000,695.619099L479.669795,695.675442L479.476365,694.163034L477.437081,692.547066L478.721921,689.749537Z M459.291702,678.855503L458.140904,678.581329L458.993891,678.855503L459.291702,678.855503Z M454.135853,676.185927L453.897933,672.928160L453.056786,673.451893L454.135853,676.185927Z M431.865897,642.005017L432.857768,640.158555L432.502198,640.325219L431.865897,642.005017Z M428.408868,603.611592L430.794615,601.954743L428.523748,602.328572L428.408868,603.611592Z M625.559240,517.293383L629.027291,507.487848L635.716323,487.858694L638.936343,478.039354L648.100879,448.563606L650.990709,438.734166L592.066314,438.734166L583.651857,438.734166L577.338115,438.734166L482.641259,438.734166L476.327516,438.734166L387.943242,438.734166L381.628340,438.734166L379.122173,448.058466L371.194662,476.025286L368.416281,485.341941L359.670860,513.275113L356.619692,522.576078L347.058966,550.437970L343.736287,559.715141L333.413932,587.447947L335.584197,587.140384L345.931006,585.701948L350.774205,585.525863L355.240605,584.842751L358.174865,584.974281L368.616058,584.747287L374.770289,585.167333L378.775046,583.930553L383.608687,581.932318L390.234930,585.267042L394.447078,588.453739L400.543125,596.017668L406.589669,595.134579L409.548649,593.835527L414.487661,594.412868L419.589936,600.174990L427.285892,600.761128L426.095419,599.372285L428.846048,600.047572L432.130067,598.423129L432.746202,602.022711L434.903424,603.736929L431.624063,609.676461L436.285177,607.725220L438.626149,607.338425L440.284030,610.903129L439.839271,613.265585L436.352999,616.467036L437.076842,614.386465L434.838597,614.156745L432.069509,619.823211L434.642916,621.190002L433.731344,622.718941L434.111593,625.931379L441.545130,625.432784L443.193319,625.969734L441.574100,637.990319L444.220649,642.496677L446.051973,648.362340L443.922543,651.501723L445.076005,653.726031L443.138893,661.184023L444.045306,664.346854L441.533074,664.759605L439.493168,661.188318L440.020684,659.268762L435.865562,663.607462L438.902665,662.790872L440.306739,665.965893L443.313402,671.120531L443.065423,673.046693L445.365293,671.402705L448.143532,670.965453L449.647536,674.492912L451.025743,673.755826L453.933820,667.521142L452.811831,668.495954L448.687040,669.574386L451.119986,667.594297L452.038011,664.869251L454.686061,661.987358L458.205472,660.595596L458.278551,661.993802L469.084387,650.357905L471.468152,648.612804L482.238010,642.864389L486.320410,641.412957L484.637639,641.182139L486.722070,639.553912L487.527161,640.709852L491.040805,640.169238L494.235765,637.721227L499.537345,631.883815L504.039922,625.339036L511.713159,621.407182L512.705133,621.432734L516.167988,613.890875L515.693289,613.656917L517.804499,609.234310L518.011930,613.818560L516.678621,621.794719L517.551039,624.009675L516.889575,625.326252L510.941118,628.130823L510.119988,632.043793L510.292729,634.452499L502.053287,642.464611L495.202082,650.195141L492.663159,651.606697L488.105130,664.183487L483.035663,672.107170L482.075659,672.850578L473.610596,672.120097L472.098018,673.391541L470.284843,676.850429L465.866314,681.349927L473.041597,680.719143L480.570847,677.379103L482.704813,677.730879L484.731881,679.088676L487.133272,677.635917L492.631053,669.813367L494.258223,667.947184L496.529469,663.444129L503.281673,656.011649L503.772921,653.884652L505.135293,652.663009L506.507009,654.489184L506.530976,661.194761L507.111207,661.617887L507.654392,665.709979L507.417214,668.777906L499.826481,682.836570L495.561702,685.941284L489.925271,689.037415L490.188607,692.131238L492.151547,691.602837L498.682309,691.057169L501.584516,689.121825L508.894850,688.316744L505.731278,686.921170L509.212870,686.603170L510.548622,684.909724L513.303070,684.622144L515.656447,683.420145L518.049885,683.755199L518.105253,686.947130L514.369431,687.758463L516.180955,690.433619L514.691964,692.551398L513.307391,691.602837L514.194794,688.829643L512.665357,687.520457L509.291563,690.334032L511.362463,692.638033L513.709712,696.347265L515.655851,702.910805L515.039900,706.948695L515.013605,702.201484L514.488171,700.269064L508.649006,689.836125L508.557444,691.433934L511.769890,695.684110L513.839782,700.464236L514.541132,706.302002L514.402250,710.803532L512.141733,721.340784L508.655684,724.936669L505.535218,726.306755L505.237380,731.621224L504.001089,732.374394L503.972900,734.718250L505.185574,740.538540L506.981995,741.017775L506.926017,743.422131L507.916397,744.679245L508.137646,751.469377L511.929637,755.833072L518.105595,755.634128L518.393935,755.770474L525.260872,742.598046L538.714503,715.942452L557.965844,676.039743L564.158787,662.819127L571.471089,647.926002L571.540482,648.389505L575.217181,640.321277L586.222968,615.637139L589.795011,607.429310L600.204585,582.849059L603.570066,574.661606L613.336590,550.099721L622.590130,525.503637L625.559240,517.293383Z " data-name="au-sa" data-realname="South Australia"/><path d="M627.026717,773.959557L627.309451,775.316242L629.811278,774.230518L627.026717,773.959557Z M605.819028,767.929370L605.571841,766.172507L603.628074,766.429092L601.048433,768.265541L605.819028,767.929370Z M609.118636,762.778978L607.679940,762.807037L606.749180,765.189106L611.306560,763.886080L609.118636,762.778978Z M571.540482,648.389505L571.471089,647.926002L564.158787,662.819127L557.965844,676.039743L538.714503,715.942452L525.260872,742.598046L518.393935,755.770474L518.434853,755.789824L524.005690,762.319200L522.426160,764.451362L525.450044,764.759854L525.682420,765.861992L530.362665,761.740615L532.604078,761.144661L536.275734,761.703910L539.532939,764.774954L544.759546,763.937866L546.782518,764.408214L550.567509,769.534467L555.091105,771.056899L557.127561,774.411144L559.220516,774.230518L561.417167,776.019039L566.077887,774.875555L571.117440,772.518284L576.424141,768.952852L576.736244,768.349578L589.321417,761.982423L593.398953,761.960834L596.731699,757.504252L593.167723,758.919779L591.431787,757.024371L598.676516,754.647922L603.678899,751.493186L606.471316,750.679273L607.408781,756.533624L606.937902,757.543159L600.998477,763.053089L596.272562,764.255035L595.067249,763.519244L597.370009,767.733254L604.901637,765.161066L607.038660,761.678001L609.308985,760.511893L612.681946,760.695472L612.355440,764.416844L608.809026,765.943936L606.177588,768.433612L608.697329,769.932916L608.571978,771.739258L612.396246,771.127940L614.086312,771.935111L612.421621,778.210035L617.384478,775.915888L618.991241,779.079467L618.414106,780.566455L618.942727,784.488686L624.194732,778.669476L624.475997,775.868609L621.471041,777.862179L620.282502,774.230518L625.442859,773.804710L637.385825,771.011689L640.218070,769.370765L654.290813,760.038866L660.512862,756.334713L665.533449,753.795625L669.928492,752.025618L675.436095,750.391341L679.713375,749.494963L686.302073,749.167984L688.707760,749.497129L697.143358,748.596263L698.268186,748.228077L705.818236,748.427334L710.819219,746.213441L717.986529,742.177781L719.470303,741.705129L720.178739,741.157192L692.816873,722.534844L690.610450,721.793006L694.933916,717.328176L694.449470,715.432299L695.269182,713.315954L694.744022,711.227391L695.628290,710.325872L697.389287,705.476104L692.186576,699.801095L689.180568,700.778787L688.275143,699.436215L680.899223,702.515530L678.176826,702.828210L677.447207,706.402074L676.097202,707.306075L675.584475,705.506417L676.565702,703.744278L673.986862,703.960567L665.221595,700.307827L661.255346,702.103691L659.281382,702.364015L654.787045,701.256663L654.472820,699.992492L651.865210,700.435892L648.141204,696.709181L645.548865,696.601829L635.568673,697.349196L630.228663,702.910859L626.753628,704.511643L624.382776,702.879177L622.233003,698.582608L622.533949,695.930239L619.795526,691.557168L619.514041,689.873001L617.742110,688.186667L612.307018,684.623657L611.332445,683.385409L612.424071,680.484873L609.689964,679.035444L613.222493,669.451048L610.255927,666.435330L604.520603,665.809837L604.106301,663.805740L599.823295,667.172956L596.269045,668.316593L595.539562,661.955554L598.187369,656.801552L597.002803,656.926876L596.233548,652.911733L593.629951,652.397373L592.833283,650.854688L588.582465,651.334843L581.594978,653.530958L580.975614,652.548408L576.610872,650.435788L571.670828,649.250045L571.540482,648.389505Z " data-name="au-vi" data-realname="Victoria"/><path d="M918.947522,475.819285L916.232972,477.859200L914.186335,483.965350L915.412274,483.822568L919.475033,476.878693L918.947522,475.819285Z M918.204195,474.226915L919.427828,466.389854L918.039273,470.850090L918.204195,474.226915Z M936.694029,405.629227L936.903713,404.503677L933.360641,407.618191L933.842391,408.360078L933.148261,413.253099L930.727258,415.523858L927.433540,419.690383L926.568690,422.132013L922.524886,427.806730L922.723834,432.289593L924.570699,432.387698L924.944602,429.977763L928.292900,424.667565L932.321238,419.227657L936.694029,405.629227Z M900.174250,382.790556L899.510065,379.984319L899.249343,381.179671L900.174250,382.790556Z M895.045632,371.962598L894.418455,372.580989L897.001336,380.566011L899.030967,379.413285L895.973779,371.960468L895.045632,371.962598Z M894.547842,362.013917L894.109796,362.030959L894.085489,362.239719L894.547842,362.013917Z M872.128520,345.193166L873.316225,343.531892L872.794120,342.860999L872.128520,345.193166Z M891.714874,341.730073L890.343624,339.647148L890.028186,342.266782L891.714874,341.730073Z M877.454816,339.651407L878.703004,335.085258L877.603725,336.524944L877.454816,339.651407Z M884.427929,333.245204L884.581284,334.094949L884.979306,333.873461L884.427929,333.245204Z M889.827120,325.084419L888.660355,324.869329L888.484574,325.016272L889.827120,325.084419Z M877.786539,316.491569L877.739915,315.705762L877.468671,316.031584L877.786539,316.491569Z M884.631264,308.412058L884.745215,307.988278L884.468529,307.979760L884.631264,308.412058Z M874.367796,306.314454L875.078003,305.796974L874.342062,305.564853L874.367796,306.314454Z M873.977884,305.213477L873.846307,305.850213L874.154003,305.292271L873.977884,305.213477Z M879.127314,304.321196L878.934278,303.971949L878.195627,304.715163L879.127314,304.321196Z M871.703546,302.996613L871.474537,302.600516L871.142586,302.698476L871.703546,302.996613Z M872.203460,302.551536L871.991189,301.989333L871.627699,302.253398L872.203460,302.551536Z M876.431607,301.248246L876.553306,300.918164L876.292472,301.003347L876.431607,301.248246Z M869.797279,299.359322L869.533598,299.225159L869.266685,299.727737L869.797279,299.359322Z M864.936782,292.067604L865.086212,291.892975L864.630250,291.833346L864.936782,292.067604Z M869.440025,288.826306L868.331722,285.955525L866.657872,289.169179L869.440025,288.826306Z M826.717590,258.289047L824.713346,259.767265L825.136864,260.061203L826.717590,258.289047Z M823.365388,248.582397L822.327618,247.314986L822.040955,249.321540L823.365388,248.582397Z M817.127196,235.147516L816.418920,236.579011L813.862612,235.722671L816.923578,242.204802L818.732947,238.777365L818.090826,238.517483L818.570406,235.513911L817.127196,235.147516Z M816.017166,233.986551L815.788799,233.332575L815.565157,233.692582L816.017166,233.986551Z M817.087887,228.330780L816.517321,227.551107L816.420177,227.759872L817.087887,228.330780Z M671.048391,205.753719L670.199586,202.937373L668.187734,205.941191L671.048391,205.753719Z M677.193885,188.668015L674.828682,187.304556L667.469561,189.520177L664.809228,192.323785L663.070387,196.740092L671.286669,192.860645L673.713583,189.601132L674.698783,191.429017L678.057369,188.552974L677.193885,188.668015Z M817.385571,142.506840L817.558029,141.927390L817.080258,141.588667L817.385571,142.506840Z M806.817797,137.592182L806.490999,137.651830L806.425908,137.830777L806.817797,137.592182Z M792.198146,129.784614L792.095182,128.949539L791.341645,129.520457L792.198146,129.784614Z M790.684350,129.362816L791.872155,128.361579L791.624799,128.333885L790.684350,129.362816Z M782.366956,70.302188L782.299535,69.997571L782.253256,70.357572L782.366956,70.302188Z M795.942721,61.709024L795.905890,61.794231L795.987661,61.813403L795.942721,61.709024Z M637.974190,191.126781L630.531922,230.096265L624.354064,261.001058L616.470564,299.623846L611.645088,322.797679L603.215834,361.420742L595.919980,392.333227L590.008199,415.527579L585.820367,430.999858L583.651857,438.734166L592.066314,438.734166L650.990709,438.734166L648.100879,448.563606L638.936343,478.039354L635.716323,487.858694L629.027291,507.487848L625.559240,517.293383L636.375388,517.293383L803.054282,517.287979L806.167816,515.084405L807.264712,513.331868L816.641767,508.431350L818.106387,506.703811L821.198996,505.929202L823.033493,507.552732L824.450755,507.017429L834.216528,505.581767L835.577843,505.685863L849.845579,509.113939L852.053444,513.134577L855.414774,515.224924L854.324510,521.294409L857.023994,520.597480L860.754471,516.511157L864.860266,514.579067L866.076996,516.184204L871.346569,514.845250L874.775165,509.808665L873.932786,505.803478L876.677327,503.949951L883.067322,501.244369L888.361619,498.182733L893.588490,500.503345L896.228348,499.604072L902.268802,500.003002L905.278084,497.942002L907.239748,497.490286L912.469772,495.040303L912.469737,495.040214L912.879989,489.797432L911.958028,489.933789L914.338697,486.170913L912.978398,482.411759L913.304782,477.942329L912.023274,476.714561L910.938617,472.137754L912.161510,471.291397L911.100246,469.485632L912.645453,467.835431L915.997236,466.148920L917.178230,459.656066L917.351509,455.689638L919.057389,450.724928L920.139345,449.035849L919.198850,447.960969L919.748565,446.096974L924.860538,437.288714L923.624337,437.000792L923.578940,434.439371L922.258676,434.153586L920.744297,430.845761L922.218979,426.778812L923.292076,425.976958L922.290004,424.181347L923.335343,423.618361L924.142748,420.321572L922.560907,418.880082L919.153020,418.869420L917.784340,417.340542L918.173982,415.698701L917.376657,406.537361L914.724037,405.307334L911.991066,402.553213L910.690634,399.799250L909.701461,390.148766L907.777069,390.067784L907.919771,386.930900L905.558716,385.756743L905.388141,388.914874L904.155387,387.672484L902.603430,388.914874L902.002347,386.421598L899.928891,385.030099L896.513923,381.448149L895.546950,377.840837L892.621668,374.419083L890.827126,375.122169L891.243913,372.616658L890.351913,368.257790L891.916380,366.677070L890.992960,363.321874L891.948294,361.185271L891.793550,358.305307L892.847871,358.235014L895.193339,352.253838L894.531281,351.078093L895.123543,348.894905L892.683285,348.713863L895.123903,346.300694L890.885420,343.591527L890.302256,345.163348L890.835674,349.966260L889.528349,348.336868L882.699408,343.161303L882.210520,340.656660L879.289904,338.535415L877.613389,342.999437L877.182891,342.835441L877.931808,348.471052L877.091405,349.917271L876.734712,347.953485L873.963622,344.162322L873.387003,345.125011L870.182561,346.911968L871.885177,342.999437L869.866575,341.461719L869.942009,334.318567L869.437127,329.032737L870.477769,327.130977L870.148242,321.004122L867.807574,320.467469L869.183566,315.810111L867.330379,313.580469L868.884341,310.168933L867.607494,307.719955L866.710518,307.630514L862.253940,303.707885L861.952519,302.276823L859.907802,300.464567L858.939826,296.186252L863.476031,293.311297L863.199451,294.561373L864.661051,295.649595L865.501087,294.024714L863.123902,287.661387L859.665617,286.166362L858.631506,283.827967L854.825642,285.968303L854.121077,285.348566L853.785959,280.755026L845.240325,277.841509L844.896841,274.173984L843.366366,273.577631L843.321138,277.343139L841.074188,277.151458L839.854441,273.875808L838.402540,264.419110L838.050140,263.714098L834.398114,266.231681L831.760136,265.948401L830.128837,264.448929L830.283022,261.816305L826.339924,263.452114L823.978308,261.032475L820.008464,259.215597L817.288862,257.042990L814.453608,251.596466L815.722696,247.905025L817.521699,244.298733L816.366044,243.009998L812.088608,236.191315L812.344154,233.021563L816.043152,226.072705L816.009136,223.950954L818.140210,220.073826L817.298884,217.244777L817.623794,214.799168L815.847277,205.455468L815.815672,203.310188L817.604744,199.667243L813.844309,201.288462L812.196154,196.184061L811.285270,195.589681L807.988778,187.651812L810.052464,183.356910L810.637463,179.532823L809.684030,172.044431L809.754596,165.497696L809.055829,164.794664L809.351345,160.949299L812.053396,156.782262L810.129722,157.044299L809.919524,155.114175L811.864138,149.383589L810.793674,146.388317L806.567879,145.118632L804.728026,140.670496L802.406512,140.308341L801.694975,139.064232L799.871876,139.143054L798.998107,135.404350L799.784594,133.491334L798.472775,134.126165L798.994564,131.525066L796.915528,128.906933L792.349387,132.775552L790.864547,131.326948L788.839830,134.360499L783.197251,137.973508L780.418427,135.890061L779.132202,130.078594L779.313948,124.686837L776.980654,118.460052L779.665862,109.824002L778.518391,107.048297L779.044463,103.610097L779.348012,96.363070L780.785656,94.039003L776.939031,94.560906L778.539704,87.639851L776.450070,86.662086L775.705543,82.420854L771.879553,80.846638L772.613058,76.705539L775.981854,71.782668L771.280295,70.513076L768.569890,67.573419L769.757141,56.882034L770.324477,56.076826L768.661364,45.692206L766.191681,42.982619L763.152625,44.699542L765.009579,40.997292L761.994938,39.391137L761.222393,41.363683L755.079818,44.771969L753.443956,54.915879L747.168097,70.777219L748.857427,72.988355L748.526265,74.121616L745.420790,71.356630L737.145672,86.010244L737.640588,86.953924L739.496563,85.411657L741.914412,87.529080L744.421772,87.047653L741.937881,89.361058L744.079926,90.826642L745.967915,90.954454L743.620242,93.506449L743.059226,91.035402L741.579134,89.716803L739.289503,94.292499L736.520069,96.084011L735.306414,97.826531L736.668744,105.218423L731.717407,113.372996L729.699460,118.736987L729.261208,123.244639L731.187216,127.590414L731.128666,128.808940L727.889940,137.257722L728.379626,153.228794L727.855437,153.222403L722.698848,163.307646L720.827663,167.755922L718.759559,174.424098L718.071631,175.323131L718.436747,179.087567L716.033707,182.820047L712.374188,191.612231L710.247300,195.353208L707.114611,197.896893L705.924217,200.184926L702.903215,203.606309L701.700545,208.118418L695.505051,216.639767L694.440621,216.814453L689.716657,219.784105L683.288762,221.505385L677.595374,221.473431L676.519023,219.392129L669.319118,215.463830L665.878759,212.717835L663.923597,212.528235L661.902181,210.615188L661.286747,208.459275L661.999082,203.989776L660.086674,202.541123L658.474470,200.108232L656.185222,199.933541L652.297611,198.122714L651.820160,197.360036L647.991265,197.743505L645.501935,196.469533L644.081770,196.571792L639.031567,192.988469L637.986430,191.139283L637.974190,191.126781Z M767.579372,36.979773L767.405933,36.155394L767.168708,36.351370L767.579372,36.979773Z M758.820544,38.592320L757.114354,35.371487L755.465321,36.662377L755.711550,39.668060L758.820544,38.592320Z M760.254377,33.899532L760.146214,33.183791L759.712075,33.639650L760.254377,33.899532Z M761.033716,25.476786L758.756744,26.226612L760.284692,26.699513L761.033716,25.476786Z M757.677373,24.654534L758.315832,23.651216L758.074718,21.463512L757.677373,24.654534Z M773.833724,20.400547L773.840748,21.312268L774.087292,21.052385L773.833724,20.400547Z M758.809206,18.483797L758.361937,18.822499L758.516845,19.242148L758.809206,18.483797Z M769.862538,13.946471L769.334200,13.763274L769.345520,14.074283L769.862538,13.946471Z M762.642669,8.665695L761.571350,8.190659L761.581717,8.444153L762.642669,8.665695Z M761.090574,0.000000L760.378358,1.167357L762.723240,0.562376L761.090574,0.000000Z " data-name="au-ql" data-realname="Queensland"/><path d="M569.026974,893.137041L569.867140,890.166765L566.674285,892.770917L565.125414,892.857306L564.513631,895.790312L569.026974,893.137041Z M573.058507,889.588707L574.339798,885.440871L571.928835,887.231011L571.102855,889.874653L573.058507,889.588707Z M598.981220,874.645419L599.127821,873.174005L595.858930,874.229174L596.231641,876.450203L598.981220,874.645419Z M607.420913,867.257533L607.787889,866.186483L606.234800,865.806705L607.420913,867.257533Z M553.544951,899.757775L558.016489,896.637690L559.051899,894.766042L562.979165,892.552886L564.940885,889.961053L564.788742,887.282448L565.826434,888.644437L567.619617,887.459390L566.678143,890.236707L567.982973,890.637838L571.495473,886.438854L572.963239,885.648705L572.965852,884.237005L576.982138,881.655932L578.173199,877.945575L578.673116,880.717179L577.121428,883.156496L578.393725,884.179380L580.236964,882.971254L580.735771,880.564828L585.885509,881.069223L586.030732,883.261464L583.447068,884.496310L583.050897,883.677212L580.716322,884.132046L580.406669,885.389427L581.922058,886.220745L580.320778,886.940902L580.399997,889.718309L584.291611,886.873003L585.809118,887.130193L588.750958,883.236766L589.483957,879.757731L587.978330,880.536005L593.847138,875.424258L594.750654,872.034124L596.972609,871.625935L603.512338,863.886667L610.155060,857.959731L611.832050,857.974209L610.038772,860.118301L610.276599,862.527657L612.324105,861.007004L612.000353,859.489883L614.972014,855.528735L615.503240,853.129116L617.314903,851.863364L620.348552,847.390671L623.171961,841.557367L625.947203,839.222868L627.261390,835.885766L628.928112,834.363536L630.904568,830.708059L630.617092,828.594633L627.565241,825.913712L624.199353,828.902058L621.479326,829.949474L616.779873,829.393425L614.155884,831.453844L611.013514,832.134646L610.554949,831.199010L605.847314,832.850722L603.326560,832.124205L595.484172,834.440715L591.223061,836.454781L590.515679,836.085875L585.852097,836.986153L580.915650,835.616843L578.436641,833.664638L576.424498,833.119973L573.124890,829.732089L573.557580,828.724300L568.958930,827.477484L565.359006,828.096802L564.677897,827.142640L558.130767,825.090520L556.833884,827.816458L551.629480,832.593963L549.529708,838.398399L547.356357,849.332367L546.617812,850.646844L547.118054,854.379870L548.228356,857.355762L546.831053,861.341763L544.815614,863.176238L548.098950,861.945085L546.995404,864.233576L548.294230,867.020232L549.254939,866.875781L544.495379,870.955862L545.923618,868.136476L543.896540,864.923181L543.967163,863.176238L538.590553,873.532619L537.600876,882.495783L539.196707,882.835407L538.496172,890.944339L539.965300,890.080366L545.933715,890.713950L545.818740,892.635162L543.723712,893.285135L540.967197,892.269032L537.938195,897.513860L541.618102,897.184782L543.256452,895.819106L545.499905,896.699393L549.589713,896.822797L550.036063,897.674285L553.544951,899.757775Z M566.056451,824.537345L564.287954,822.996441L561.843745,825.385902L566.056451,824.537345Z M634.792744,821.953805L637.297431,819.545389L633.813760,820.442342L634.792744,821.953805Z M564.753699,817.956282L563.711189,818.786740L561.987598,819.545389L564.753699,817.956282Z M566.673069,818.854001L565.583002,817.958385L565.871834,818.980109L566.673069,818.854001Z M642.552082,816.245823L642.139237,814.797079L638.414297,816.161625L637.246074,815.822692L633.594873,817.028668L633.206785,817.971002L639.525077,819.030550L642.552082,816.245823Z M632.059664,814.440210L631.492214,814.797068L632.367834,815.213272L632.059664,814.440210Z M633.271942,809.339924L634.676151,807.831363L634.768123,807.457589L633.271942,809.339924Z M643.465935,799.349025L639.503327,802.377735L636.635990,803.722616L639.014551,804.129689L636.932991,807.666321L637.906356,808.036476L637.141617,812.649153L638.732956,813.739254L642.922918,811.790505L646.860192,805.871363L645.151358,805.598154L643.465935,799.349025Z M555.360715,808.195089L557.882012,806.379537L562.017868,798.466634L562.207573,797.113519L559.951011,795.876560L558.874322,797.841261L556.322835,799.059903L552.430042,804.746474L552.706736,806.028066L551.116442,808.195089L555.360715,808.195089Z M634.219399,793.434355L634.403600,792.632406L633.660422,792.911845L634.219399,793.434355Z " data-name="au-ts" data-realname="Tasmania"/></g></svg>