<?xml version="1.0" encoding="utf-8"?><!DOCTYPE svg  PUBLIC '-//W3C//DTD SVG 1.1//EN'  'http://www.w3.org/Graphics/SVG/1.1/DTD/svg11.dtd'><svg enable_background="new 0 0 1000 570" height="570px" pretty_print="False" style="stroke-linejoin: round; stroke:#000; fill: none;" version="1.1" viewBox="0 0 1000 570" width="1000px" xmlns="http://www.w3.org/2000/svg" xmlns:xlink="http://www.w3.org/1999/xlink"><defs><style type="text/css"><![CDATA[path { fill-rule: evenodd; }]]></style></defs><metadata><views><view h="570.52990103" padding="0" w="1000"><proj id="laea" lat0="48" lon0="15"/><bbox h="30.63" w="53.78" x="976.95" y="962.46"/></view></views></metadata><g class="" id="states"><path d="M130.946960,140.928691L135.734771,145.153561L138.186965,146.640035L147.699099,147.996382L153.048553,154.546436L156.677931,155.393163L161.120566,155.727073L165.218912,156.889327L169.057434,160.780219L169.912235,167.755103L169.525097,172.712613L170.298854,182.250677L169.468447,185.642350L169.879147,187.499507L173.927947,194.708519L174.846838,197.239041L173.987295,201.078485L171.797420,203.805097L171.679670,205.952146L175.775128,209.383034L177.450167,210.983840L178.781056,212.541494L182.574697,216.531969L189.146422,218.337825L191.181011,218.398620L194.351942,216.227428L195.922349,214.070154L201.559473,211.852174L208.582492,205.268926L210.059573,201.904821L214.646750,196.966793L223.298501,193.559536L233.887779,186.711296L238.645463,187.704130L241.234121,187.060641L255.318680,179.996326L256.569331,179.907405L259.792139,181.592397L265.159662,177.076511L273.915800,171.744839L279.648520,170.816038L280.901017,167.862997L281.928595,162.206514L284.843075,161.295648L290.954507,161.171345L294.525713,161.919457L297.943079,163.208207L300.886115,163.609681L312.436447,161.760336L317.187380,163.595511L319.007184,162.913928L322.192229,160.299878L324.561477,159.192305L333.553869,158.230707L336.665813,152.267578L334.833297,141.290606L336.700193,140.158672L340.161157,141.346781L348.698988,135.422261L349.668245,132.623388L350.685398,126.641543L351.232556,125.830056L352.230434,125.137404L351.140355,119.875661L340.827510,111.210529L332.865823,85.377114L332.704178,84.167873L334.124959,81.522850L336.177632,80.251834L338.891919,73.369440L343.415303,67.741082L343.357923,65.319985L344.824538,62.281500L346.671810,60.579281L348.372256,51.143305L350.745498,50.269580L358.252301,58.165610L360.680978,58.205996L363.451752,54.840923L364.227819,49.584109L365.565136,47.176300L369.933397,46.820493L372.058094,43.105187L372.587783,39.012891L375.067726,33.261495L375.919201,30.223975L375.155502,27.628396L373.408775,27.584256L365.401270,30.866810L363.751373,29.543494L364.559493,26.755127L367.445500,20.723824L367.733616,17.281423L367.298903,15.042184L362.708490,9.689828L358.824435,8.683505L355.700872,5.532832L354.094496,0.829467L352.821039,3.986595L351.176101,4.827226L345.948780,4.493201L341.896734,6.254939L338.745136,5.341941L335.989242,1.803977L330.643141,0.000000L326.049314,0.685866L322.559165,4.179596L320.466567,10.751487L318.832732,13.066862L320.506424,14.195998L325.376555,14.881963L326.784649,17.380545L326.627594,19.781685L330.279357,23.472117L335.593982,25.092477L339.426674,27.361122L338.512950,33.058360L334.238839,36.632380L322.905789,35.629896L317.694825,36.667524L316.109592,38.201932L313.421512,42.174669L311.639332,43.812923L288.956026,53.929304L286.169651,54.083071L280.880631,53.327014L278.043436,53.904166L272.716960,58.896312L268.256323,58.725900L266.251643,62.567259L266.629794,67.331246L265.619360,68.736824L263.890934,69.030802L259.653333,71.594679L257.036387,72.087055L250.392189,71.236221L247.253742,71.504800L241.701649,73.460233L238.895540,73.968822L225.866671,73.666655L219.260260,74.786583L213.250527,78.270036L214.861315,81.817210L214.230084,84.894789L212.243832,87.365888L209.789767,89.152639L210.593815,91.003442L205.490701,97.342064L202.979653,99.540611L200.260125,100.159772L197.047532,98.494933L193.380295,92.877150L191.622068,92.188558L190.210108,94.218263L184.669909,97.980992L182.172546,104.023017L179.084453,105.516821L174.366279,102.674823L171.546046,102.349379L166.392873,115.217097L164.208644,118.965972L160.559220,121.566281L152.890053,120.928835L145.988576,122.673737L141.060746,120.937076L138.606057,122.010048L137.408343,131.321238L136.347038,135.473304L134.215268,137.868269L130.946960,140.928691Z " data-name="cz-us" data-realname="Ústecký"/><path d="M191.181011,218.398620L189.146422,218.337825L182.574697,216.531969L178.781056,212.541494L177.450167,210.983840L175.924073,211.624222L174.372122,213.801863L174.624431,218.006371L175.596780,220.424743L175.017231,221.876734L166.439302,223.565423L165.536357,227.546898L167.105591,234.380297L165.480804,236.154926L161.612048,235.366527L156.494897,229.287816L146.393328,227.047630L144.147411,228.096227L140.888574,231.505128L127.055737,238.587521L125.639544,240.405004L123.389576,250.032195L121.788806,251.066315L113.858822,248.546558L110.110521,251.190681L108.477120,250.829708L105.358964,247.349284L93.921462,246.783848L92.927616,247.280533L85.487035,253.107152L77.006814,251.340211L72.879957,255.254804L70.363070,256.046424L63.424915,254.499098L62.821360,258.933139L61.516482,262.396817L57.905203,268.592170L56.703587,272.094334L53.772595,271.085436L52.763077,274.285640L51.924258,282.833678L49.489859,285.145142L43.286514,287.541695L41.424476,290.925278L43.503513,296.350412L46.412657,300.867305L50.687955,304.493178L57.555582,308.166876L58.700760,310.632518L58.892418,317.378643L58.127929,319.154199L59.459341,321.602108L62.937918,323.669017L64.446253,325.446812L65.408978,327.965049L66.447732,335.768444L69.295282,342.373369L70.854569,344.116268L74.087624,344.501635L75.165704,345.435332L75.439537,356.826523L76.061785,360.564995L77.651382,363.930491L80.485683,366.445417L87.254122,369.895131L90.163966,373.096751L94.723599,384.210332L97.011087,386.728581L99.941092,387.890922L108.696882,389.430026L111.499763,389.129046L110.919093,386.163913L112.988431,385.569805L118.651417,387.299800L123.256474,390.538357L127.334473,395.111224L129.899151,396.256117L131.449868,402.513953L136.075719,408.329321L137.933105,409.466083L151.470273,428.902840L153.327417,433.459390L155.620338,437.362790L159.806706,439.948240L168.862235,440.582570L171.842533,441.809966L173.635928,443.436640L178.058921,449.655909L184.294114,456.302702L185.885439,460.326905L185.842267,466.755922L187.927412,470.316523L192.163038,474.465666L196.850062,477.982824L200.330178,479.745422L203.443736,473.293936L206.510147,472.600461L206.511645,472.600810L206.362811,470.388938L209.766339,463.480905L213.361691,458.096028L217.386591,453.747580L217.847011,452.399184L218.157652,442.174553L220.179915,437.214553L226.244494,434.677239L227.728365,432.719674L231.808700,425.301526L236.797112,421.851780L236.302707,419.374142L233.460869,415.525197L235.575013,411.671902L234.968517,406.564369L236.512852,404.234274L239.862814,402.112595L243.290893,393.731098L246.246110,388.955754L246.951236,384.063632L246.240341,373.656653L247.328601,366.276233L245.557066,358.830080L243.524740,354.077723L243.536165,351.988721L245.181261,346.349369L243.911972,341.843420L242.510440,340.066188L241.509114,335.267314L241.740537,329.600146L239.644104,325.606131L235.951799,322.908743L236.909915,317.231310L235.013904,316.026180L237.362529,313.631976L234.385626,309.775598L237.399046,305.960574L247.633837,301.570204L251.373461,297.503944L251.503949,295.019202L248.464495,292.851961L248.531927,291.493857L250.460815,284.142069L249.926774,280.350637L251.858908,275.704487L252.241636,270.198344L253.338163,269.002244L255.385709,257.158988L253.496160,254.645617L245.825575,250.569791L237.169615,244.221778L233.385267,239.895580L230.536533,238.252576L227.777456,237.423429L221.076991,237.958860L217.164131,236.735763L210.150039,229.687396L203.279533,226.984418L197.051050,229.140961L194.236688,227.011048L195.962442,223.069775L196.009208,220.845583L194.351942,216.227428L191.181011,218.398620Z " data-name="cz-pl" data-realname="Plzeňský"/><path d="M692.732506,325.739429L685.207082,322.135514L681.707390,320.995519L677.996377,320.732634L673.003530,321.203544L668.645270,319.944573L660.724771,320.139236L658.709191,321.720775L657.855853,326.095407L656.566780,327.208768L639.001073,329.263817L635.419555,329.009777L635.136640,331.552215L632.725555,338.814905L633.121315,341.002777L637.285646,345.005129L638.176952,347.417875L638.063987,351.543124L637.080192,353.338286L632.641693,354.218973L631.536116,356.579659L632.454834,359.629218L632.977355,370.068746L633.305148,371.711647L636.273166,380.468396L635.777469,384.555285L622.898371,392.755486L618.995033,398.743882L619.032060,403.694534L620.118805,405.609635L616.744356,409.763398L614.863972,414.355153L614.694178,417.242572L615.885203,420.470368L617.765795,421.391063L619.460193,424.927393L615.807355,434.366454L617.061173,437.291104L617.133293,440.461587L616.129079,442.725833L612.921693,446.800050L602.418013,450.368934L598.778947,455.618574L595.994421,457.229997L585.613766,455.669338L581.375716,458.293645L576.877179,458.541098L575.072257,458.058219L572.078435,454.073604L569.980319,454.618015L566.162210,459.489295L562.034947,461.347470L561.309730,464.572564L559.613200,466.081999L554.400262,465.636547L550.194235,467.614624L539.417770,477.622182L537.608121,477.473258L533.057151,473.581270L530.034275,473.668587L523.254082,479.369003L520.378284,474.889410L519.270221,473.934172L516.256009,473.443961L515.573532,474.083372L515.158441,475.131000L515.165537,476.072268L512.207698,484.291564L511.662007,486.130313L510.675207,489.735291L519.668222,493.163288L531.419468,499.682979L534.807240,500.457498L538.281287,500.425158L540.812762,499.595875L546.142410,496.701663L552.056804,496.308670L552.936054,496.962268L555.367595,501.363824L558.252268,501.545034L562.306471,503.132828L560.787318,505.198459L565.517314,505.794758L565.701894,508.207829L568.250474,507.514419L569.308916,511.207403L584.630652,522.093554L592.686859,525.463502L606.631220,524.417579L627.806482,527.211574L631.105770,526.526994L633.133223,528.125508L636.342408,527.642319L637.969511,526.061968L645.388083,512.758733L647.974698,510.957644L653.895324,511.412550L656.601166,510.199246L661.988290,512.034094L671.056707,514.476962L673.855634,514.749713L676.766369,515.860168L678.011493,518.592618L678.644452,521.871030L679.795898,524.557968L681.809069,525.911608L684.222823,526.285063L689.963029,525.920508L692.291774,526.661314L697.841106,530.169652L700.645648,531.146483L703.542423,530.723050L709.302315,528.512902L711.789876,528.642032L715.491030,533.596321L717.963183,548.705926L723.342874,554.670234L723.607816,550.311160L725.926370,547.320996L727.580205,544.086876L734.641334,521.797454L738.185482,515.355340L743.256489,510.706474L745.347924,507.889938L746.117347,503.545897L747.429561,501.377976L755.362453,495.234911L762.062572,493.598889L769.357830,495.281603L786.819264,503.508223L789.421373,502.929993L795.004450,498.999751L798.552899,497.832692L800.783224,498.827360L805.553373,503.565509L811.097829,504.248609L827.595479,497.084071L826.298555,491.950225L824.715987,487.944497L820.983701,483.782547L812.747659,481.628701L809.902607,475.497209L804.774624,472.053864L800.321871,471.598641L795.628213,474.347678L792.355188,473.975225L790.650858,471.533116L787.893765,469.443411L782.499707,467.343561L781.922385,464.057321L779.746358,460.336337L770.395234,458.683224L764.133122,455.966233L762.328708,453.193314L762.516739,446.071798L761.056955,442.840543L759.927820,442.797542L752.690479,445.521480L750.082386,445.559308L747.303711,444.448042L744.960087,441.521339L751.866117,431.912274L755.881815,430.287917L758.575563,426.841827L756.817249,422.737437L752.823251,420.514126L750.833425,417.890991L748.681964,413.700854L747.356314,405.841504L749.687764,401.339871L749.818835,400.831869L749.924644,400.421740L749.773897,396.372082L747.878615,392.280540L744.960447,388.181791L741.842630,385.331668L736.215199,383.741933L732.324724,380.079207L732.430732,375.599752L731.296218,372.648781L724.196387,366.076971L721.743733,358.400739L720.326283,354.972708L717.350549,351.206434L711.484675,348.936494L707.827357,350.068916L707.308952,351.456204L707.472696,355.963745L710.300375,360.446165L711.421303,363.117360L711.919692,367.455495L707.504929,374.250904L703.630682,375.986218L695.373969,369.872823L694.475497,367.607837L696.726702,364.478794L697.122337,359.635816L693.203921,350.261452L692.974962,346.495540L694.628368,345.631338L694.620696,343.783664L688.131224,337.609397L686.035276,334.233229L685.676370,330.389652L686.722482,330.028639L691.466644,331.052922L693.804074,328.143872L694.335218,325.347139L692.732506,325.739429Z " data-name="cz-jm" data-realname="Jihomoravský"/><path d="M860.803833,338.719254L858.806669,344.812400L853.949414,344.914118L852.493604,343.346259L848.123652,344.656531L844.378652,350.075512L843.668787,358.269547L839.727470,360.202982L826.555716,358.012681L822.612501,358.272902L820.832044,359.052000L820.285496,361.138451L821.793708,365.889406L820.439578,368.227774L807.870071,368.971762L802.284609,371.621244L799.629718,375.928440L797.162358,378.403137L795.619183,378.150563L784.594507,373.618745L780.821563,370.577834L774.759308,369.425938L774.143309,377.046746L775.465486,380.922403L776.803091,382.498416L775.065037,385.955674L770.115092,391.037349L766.430695,394.097782L756.709126,394.619507L754.655809,396.989620L754.120173,401.219932L750.676277,402.364651L749.979405,401.195732L749.818835,400.831869L749.687764,401.339871L747.356314,405.841504L748.681964,413.700854L750.833425,417.890991L752.823251,420.514126L756.817249,422.737437L758.575563,426.841827L755.881815,430.287917L751.866117,431.912274L744.960087,441.521339L747.303711,444.448042L750.082386,445.559308L752.690479,445.521480L759.927820,442.797542L761.056955,442.840543L762.516739,446.071798L762.328708,453.193314L764.133122,455.966233L770.395234,458.683224L779.746358,460.336337L781.922385,464.057321L782.499707,467.343561L787.893765,469.443411L790.650858,471.533116L792.355188,473.975225L795.628213,474.347678L800.321871,471.598641L804.774624,472.053864L809.902607,475.497209L812.747659,481.628701L820.983701,483.782547L824.715987,487.944497L826.298555,491.950225L827.595479,497.084071L839.655372,491.826215L842.237399,489.518734L847.108225,480.362991L849.459768,478.251636L853.136228,477.477381L856.327802,477.904711L859.197615,477.632266L861.862435,474.819380L862.971493,471.637893L863.867595,464.506907L864.669969,461.076091L866.503940,457.001794L869.575590,454.846758L873.183952,454.139427L881.260282,454.453140L886.148447,451.961357L890.402154,447.656139L893.303467,442.242571L894.090267,437.174574L893.691002,419.415909L895.285176,411.826542L897.794538,404.732704L901.149323,398.717261L905.373701,394.359111L925.121445,385.650800L933.840762,378.158050L933.754643,370.051317L932.107813,370.084638L929.625150,368.243570L927.553284,360.392431L925.370365,356.662914L921.692255,354.061045L918.304068,347.540413L914.926198,345.876057L903.640269,346.533433L896.588108,342.683517L873.499616,345.910804L870.318499,344.387126L868.961152,340.462229L867.357209,338.576985L860.803833,338.719254Z " data-name="cz-zl" data-realname="Zlínský"/><path d="M702.989855,191.827454L697.780835,206.168990L694.391619,218.692880L694.242532,221.100465L695.589840,225.899380L694.346805,228.280006L689.900276,231.628921L686.965100,234.946492L683.060861,237.308464L684.534947,243.538160L686.620227,260.553196L686.955332,266.051007L684.685978,271.253151L684.496994,273.064892L694.598446,292.482987L695.080384,296.325890L698.848249,299.250154L700.372872,301.439198L701.662219,309.187347L697.203722,314.044176L696.593216,320.286866L695.778953,323.762546L694.335218,325.347139L693.804074,328.143872L691.466644,331.052922L686.722482,330.028639L685.676370,330.389652L686.035276,334.233229L688.131224,337.609397L694.620696,343.783664L694.628368,345.631338L692.974962,346.495540L693.203921,350.261452L697.122337,359.635816L696.726702,364.478794L694.475497,367.607837L695.373969,369.872823L703.630682,375.986218L707.504929,374.250904L711.919692,367.455495L711.421303,363.117360L710.300375,360.446165L707.472696,355.963745L707.308952,351.456204L707.827357,350.068916L711.484675,348.936494L717.350549,351.206434L720.326283,354.972708L721.743733,358.400739L724.196387,366.076971L731.296218,372.648781L732.430732,375.599752L732.324724,380.079207L736.215199,383.741933L741.842630,385.331668L744.960447,388.181791L747.878615,392.280540L749.773897,396.372082L749.924644,400.421740L749.818835,400.831869L749.979405,401.195732L750.676277,402.364651L754.120173,401.219932L754.655809,396.989620L756.709126,394.619507L766.430695,394.097782L770.115092,391.037349L775.065037,385.955674L776.803091,382.498416L775.465486,380.922403L774.143309,377.046746L774.759308,369.425938L780.821563,370.577834L784.594507,373.618745L795.619183,378.150563L797.162358,378.403137L799.629718,375.928440L802.284609,371.621244L807.870071,368.971762L820.439578,368.227774L821.793708,365.889406L820.285496,361.138451L820.832044,359.052000L822.612501,358.272902L826.555716,358.012681L839.727470,360.202982L843.668787,358.269547L844.378652,350.075512L848.123652,344.656531L852.493604,343.346259L853.949414,344.914118L858.806669,344.812400L860.803833,338.719254L858.478834,336.227952L856.525751,334.810379L852.251775,333.882116L851.865332,330.994866L848.839607,325.306346L844.746490,322.003719L839.991514,319.988067L838.969284,318.987340L834.087647,309.612082L831.532440,308.917257L828.885735,310.763774L825.367161,307.167438L825.939122,299.584393L821.426761,294.739934L817.085571,292.839549L811.781398,294.803100L807.985786,294.633592L802.452019,291.158383L797.455999,294.313745L789.940097,294.142815L787.726027,293.115261L775.961868,281.156080L769.787773,283.395986L768.747121,283.394560L755.906648,277.324718L753.450715,272.672015L747.038731,272.008367L745.092529,271.189327L743.869802,268.610043L744.327934,260.258448L744.978704,257.810607L749.055372,252.138923L748.848713,250.029858L744.606871,246.100926L744.526794,238.731259L752.932473,226.165445L753.452185,223.038489L751.584381,216.329582L753.918847,207.243668L756.899319,201.907395L768.588769,194.907258L771.808705,189.836396L774.236125,188.885594L776.309324,190.108127L779.274820,188.746721L781.121338,184.176646L778.379711,170.726330L775.150302,171.075541L773.693278,175.313095L771.694913,173.894127L770.607865,171.570613L770.319101,165.693414L768.037789,162.885056L770.694602,161.714501L767.631792,160.516945L760.776392,160.924139L757.270079,160.021188L752.020387,156.905872L750.539258,155.385477L748.041657,148.020332L746.619156,146.900437L740.184157,147.981941L738.284139,147.040118L733.180761,143.332072L718.069782,139.519019L714.701318,140.008541L708.329264,136.393035L704.985718,136.050176L701.079770,138.561778L701.174391,141.756379L706.026842,148.563503L707.794183,152.711052L709.006174,157.559094L710.555530,161.960435L713.364765,164.719223L716.987899,166.722246L719.727109,169.587908L721.379272,173.653736L721.739239,179.209767L723.714655,181.691962L724.083307,184.701832L723.196401,186.679033L721.405973,186.050988L718.171447,181.801102L714.072997,186.204649L711.336418,185.303048L708.323848,186.645639L704.621957,191.367218L702.989855,191.827454Z " data-name="cz-ol" data-realname="Olomoucký"/><path d="M695.778953,323.762546L696.593216,320.286866L697.203722,314.044176L701.662219,309.187347L700.372872,301.439198L698.848249,299.250154L695.080384,296.325890L694.598446,292.482987L684.496994,273.064892L684.685978,271.253151L686.955332,266.051007L686.620227,260.553196L684.534947,243.538160L683.060861,237.308464L686.965100,234.946492L689.900276,231.628921L694.346805,228.280006L695.589840,225.899380L694.242532,221.100465L694.391619,218.692880L697.780835,206.168990L702.989855,191.827454L702.989703,191.827496L695.372905,192.692239L692.151163,195.598306L686.356845,205.382895L683.148607,207.824147L678.765258,214.115096L672.806166,214.684207L666.570628,211.609279L661.415796,207.040507L645.768697,202.328821L643.736785,206.020137L643.574682,209.136805L642.451874,211.680291L627.383582,219.210748L625.957433,220.962493L625.323509,223.847965L623.226038,227.010491L621.227294,228.107016L608.098526,229.559731L603.718447,232.165698L597.937956,227.321029L587.849470,220.350692L584.336148,215.242979L575.865803,213.665822L573.688036,210.130438L573.588305,205.480819L572.156210,202.801291L568.069987,201.629655L561.946403,201.812241L560.577405,202.517978L551.331827,211.833735L550.500187,212.250480L548.681515,210.684556L547.625982,208.297417L546.204420,202.403325L544.860880,201.335161L537.589729,203.552206L536.011397,206.134340L534.131513,212.373199L531.350965,213.352737L524.571597,209.066468L520.086758,210.445182L517.923830,210.434885L512.169601,207.640432L509.937743,207.832954L507.107949,209.277429L498.214014,217.761351L497.084037,217.856358L488.963070,214.845228L486.559910,217.208287L486.800163,223.599041L486.523473,227.553953L485.213844,227.502723L479.507594,229.611098L478.798023,230.729104L485.034431,236.736845L490.048930,238.343912L501.736441,246.961510L503.127098,248.598280L502.381259,253.362082L502.317591,257.942738L500.528710,265.081331L500.332899,266.917196L506.757336,271.122756L509.624910,274.467369L513.480469,280.667892L515.924239,282.853940L527.187033,281.850526L529.779491,282.542424L536.575284,287.764857L540.550296,288.672604L543.964244,291.859841L544.306788,294.166744L551.538012,299.252632L553.595692,301.970960L555.983093,306.686109L559.745674,307.647509L562.088840,306.963322L567.135602,308.216692L570.819601,304.660140L573.853402,303.101547L576.008773,299.165057L576.903717,299.165982L582.025026,301.944513L589.323856,304.264804L592.459208,308.269754L594.079791,308.613736L601.085595,308.373597L604.095615,309.231091L608.494822,311.364663L616.085458,316.583129L619.485859,321.409666L621.093052,322.520301L626.349952,324.340612L632.503104,328.168809L635.419555,329.009777L639.001073,329.263817L656.566780,327.208768L657.855853,326.095407L658.709191,321.720775L660.724771,320.139236L668.645270,319.944573L673.003530,321.203544L677.996377,320.732634L681.707390,320.995519L685.207082,322.135514L692.732506,325.739429L694.335218,325.347139L695.778953,323.762546Z " data-name="cz-pa" data-realname="Pardubický"/><path d="M130.946787,140.928853L129.738841,142.059304L124.752606,141.640280L111.473775,133.016495L110.263348,132.614853L105.938492,134.479827L103.341016,134.037153L98.591639,134.904015L96.665578,136.706041L93.284620,141.626050L91.606747,143.150522L89.698905,143.305849L81.942705,141.646155L70.993123,142.117385L65.051204,143.666187L59.220144,149.041205L58.451737,151.206897L58.696570,153.358808L49.735441,158.459274L48.109838,159.967489L43.286090,168.081674L38.628280,172.610807L38.105934,176.229057L35.082400,179.842550L34.217994,181.967989L33.617743,186.021668L34.643559,193.390147L32.543688,194.808680L30.053855,194.400594L28.652378,192.028904L27.124131,185.660440L23.188275,178.043849L22.850146,176.527159L24.774794,174.464552L23.412846,171.951353L19.211148,171.691689L15.523463,169.447430L15.015973,167.639883L15.209216,163.714091L14.427455,161.564662L11.692225,159.460865L1.024689,158.263738L4.257797,161.917401L5.358284,163.996783L5.776815,167.282310L5.391628,170.205712L2.816141,172.169267L0.877917,174.867481L2.285692,177.646014L9.348244,182.450131L12.787909,186.535141L15.362238,191.913902L15.657676,195.372087L14.431378,200.539286L14.393666,203.973374L15.538521,207.486589L21.907114,212.836698L23.130135,215.143534L23.719951,221.052341L45.554735,233.781252L47.882129,236.087104L53.280140,236.836900L55.681119,239.285647L55.949227,242.646617L54.825144,245.700907L54.573949,248.180014L60.488879,251.928122L62.564932,252.812974L63.424915,254.499098L70.363070,256.046424L72.879957,255.254804L77.006814,251.340211L85.487035,253.107152L92.927616,247.280533L93.921462,246.783848L105.358964,247.349284L108.477120,250.829708L110.110521,251.190681L113.858822,248.546558L121.788806,251.066315L123.389576,250.032195L125.639544,240.405004L127.055737,238.587521L140.888574,231.505128L144.147411,228.096227L146.393328,227.047630L156.494897,229.287816L161.612048,235.366527L165.480804,236.154926L167.105591,234.380297L165.536357,227.546898L166.439302,223.565423L175.017231,221.876734L175.596780,220.424743L174.624431,218.006371L174.372122,213.801863L175.924073,211.624222L177.450167,210.983840L175.775128,209.383034L171.679670,205.952146L171.797420,203.805097L173.987295,201.078485L174.846838,197.239041L173.927947,194.708519L169.879147,187.499507L169.468447,185.642350L170.298854,182.250677L169.525097,172.712613L169.912235,167.755103L169.057434,160.780219L165.218912,156.889327L161.120566,155.727073L156.677931,155.393163L153.048553,154.546436L147.699099,147.996382L138.186965,146.640035L135.734771,145.153561L130.946960,140.928691L130.946787,140.928853Z " data-name="cz-ka" data-realname="Karlovarský"/><path d="M510.675207,489.735291L511.662007,486.130313L512.207698,484.291564L515.165537,476.072268L515.158441,475.131000L515.013542,474.321641L512.852115,472.047211L507.662838,471.278446L505.027780,467.513292L503.757546,467.207010L504.641470,462.051706L509.489300,456.229965L516.705322,448.961242L518.484393,447.510376L517.256841,444.819262L510.080677,437.827500L508.382387,437.567562L502.580471,439.939384L500.443255,440.106428L488.921753,438.893908L481.771239,432.146277L480.147240,427.583133L479.827735,423.857174L477.088219,420.234780L469.800234,419.409967L467.468841,418.529645L459.591778,414.428529L457.078903,415.174943L454.471142,419.172688L453.183043,419.653690L447.164879,415.738773L443.213049,410.479376L438.912287,407.614900L435.565930,404.340573L430.567051,403.275366L427.998817,405.656337L422.461663,404.172285L416.857651,398.917919L415.496088,395.440804L415.849317,390.717286L415.055214,388.209697L412.589075,385.803006L411.591960,381.679152L414.757243,369.240790L414.883549,365.027972L414.488959,361.295212L412.282332,353.284112L418.778248,350.271597L420.332195,348.468382L419.357673,345.286535L417.242846,343.017072L416.275796,343.156990L412.846988,340.062247L411.575016,336.841576L408.792459,335.558575L404.436974,335.930134L402.204029,331.792774L397.812113,330.432754L394.683132,327.154666L393.394291,327.271536L389.557386,332.181594L388.930876,339.543247L385.892047,342.605110L377.872392,346.329585L374.309829,348.550496L365.624310,345.966348L349.099795,346.532334L346.312010,346.145069L343.848929,344.752838L338.799253,344.573168L331.797080,348.439437L328.478123,348.252175L325.206586,344.694370L323.506202,344.145232L321.874628,341.182863L319.325937,340.277784L316.945413,340.237053L313.823061,341.200129L311.113518,343.870527L308.150715,345.047647L299.463530,346.095078L295.521561,345.901189L286.684485,342.348814L282.814580,343.258854L279.395684,349.041280L272.184212,351.192193L267.551320,353.710085L264.758709,353.697968L259.440505,350.916988L252.239500,349.136480L243.524740,354.077723L245.557066,358.830080L247.328601,366.276233L246.240341,373.656653L246.951236,384.063632L246.246110,388.955754L243.290893,393.731098L239.862814,402.112595L236.512852,404.234274L234.968517,406.564369L235.575013,411.671902L233.460869,415.525197L236.302707,419.374142L236.797112,421.851780L231.808700,425.301526L227.728365,432.719674L226.244494,434.677239L220.179915,437.214553L218.157652,442.174553L217.847011,452.399184L217.386591,453.747580L213.361691,458.096028L209.766339,463.480905L206.362811,470.388938L206.511645,472.600810L208.980835,473.175635L216.641902,478.410388L219.384054,478.152531L219.678298,482.491561L221.205068,486.686993L223.490731,490.303657L226.013596,492.917547L228.839114,494.316516L234.437150,495.299866L236.535085,496.518927L239.949130,502.057177L246.995787,516.733354L249.896762,519.845043L255.942564,521.570559L264.777777,528.187000L274.869207,533.937110L278.643720,539.302509L279.588589,541.197184L282.286239,543.019256L282.359924,545.849874L280.477974,546.228603L278.278997,549.326086L278.942612,552.460346L283.409900,558.176334L288.534772,560.405775L309.979735,563.059224L324.969031,568.529901L330.699330,565.483528L338.606103,562.143584L341.021075,559.693567L344.484753,550.680055L346.701749,549.168659L350.302311,553.479161L356.323593,556.690969L360.378614,556.644429L364.930553,554.480061L367.263684,554.303184L368.229605,555.166554L368.897931,559.124165L373.378362,558.684593L377.063327,564.514344L379.553426,564.690854L382.604679,561.654846L383.395374,555.703068L383.344536,548.700274L383.916024,542.516772L386.794226,537.874907L394.770213,530.892471L395.548177,526.514437L397.070112,523.831327L398.581676,518.874991L400.861942,518.004636L408.739366,519.110020L416.538025,522.329068L419.597504,522.047751L421.332570,518.035728L419.386412,512.884577L420.730751,508.398795L423.932593,494.052354L423.950794,487.718808L423.331622,480.710207L423.396859,474.187295L425.449947,469.358014L429.318383,465.475490L437.676541,468.348746L449.376365,469.292648L451.128867,475.634748L451.072753,478.748354L450.083673,482.017624L453.070138,482.070912L464.539236,478.939393L467.883569,474.714056L469.998590,470.681622L472.137225,473.278237L479.178103,473.332494L482.539686,474.276238L489.786990,477.933829L496.486095,480.157662L499.732261,481.996842L507.211123,488.412426L510.673878,489.734784L510.675207,489.735291Z " data-name="cz-jc" data-realname="Jihočeský"/><path d="M632.503104,328.168809L626.349952,324.340612L621.093052,322.520301L619.485859,321.409666L616.085458,316.583129L608.494822,311.364663L604.095615,309.231091L601.085595,308.373597L594.079791,308.613736L592.459208,308.269754L589.323856,304.264804L582.025026,301.944513L576.903717,299.165982L576.008773,299.165057L573.853402,303.101547L570.819601,304.660140L567.135602,308.216692L562.088840,306.963322L559.745674,307.647509L555.983093,306.686109L553.595692,301.970960L551.538012,299.252632L544.306788,294.166744L543.964244,291.859841L540.550296,288.672604L536.575284,287.764857L529.779491,282.542424L527.187033,281.850526L515.924239,282.853940L513.480469,280.667892L509.624910,274.467369L506.757336,271.122756L500.332899,266.917196L500.231492,268.810345L500.095358,272.382311L496.446883,275.079935L495.222525,277.211240L494.154204,282.769178L492.417743,285.366191L489.170005,286.360452L485.374360,285.823900L479.229600,291.067437L474.090809,293.117585L468.038444,296.746530L466.018176,296.723157L463.375778,295.392696L461.566902,296.377050L460.142715,298.917846L459.369575,301.751171L454.057560,308.695090L454.570587,312.275115L461.273007,317.276084L463.639098,321.464332L464.038208,323.967181L463.678340,326.739146L452.055136,332.391165L447.817044,333.063466L445.354749,332.048081L441.040485,331.947869L433.871521,333.158854L428.023182,330.562802L425.690067,331.040585L425.643389,334.677153L422.371613,336.686616L420.181033,340.945911L418.442130,342.507331L417.242846,343.017072L419.357673,345.286535L420.332195,348.468382L418.778248,350.271597L412.282332,353.284112L414.488959,361.295212L414.883549,365.027972L414.757243,369.240790L411.591960,381.679152L412.589075,385.803006L415.055214,388.209697L415.849317,390.717286L415.496088,395.440804L416.857651,398.917919L422.461663,404.172285L427.998817,405.656337L430.567051,403.275366L435.565930,404.340573L438.912287,407.614900L443.213049,410.479376L447.164879,415.738773L453.183043,419.653690L454.471142,419.172688L457.078903,415.174943L459.591778,414.428529L467.468841,418.529645L469.800234,419.409967L477.088219,420.234780L479.827735,423.857174L480.147240,427.583133L481.771239,432.146277L488.921753,438.893908L500.443255,440.106428L502.580471,439.939384L508.382387,437.567562L510.080677,437.827500L517.256841,444.819262L518.484393,447.510376L516.705322,448.961242L509.489300,456.229965L504.641470,462.051706L503.757546,467.207010L505.027780,467.513292L507.662838,471.278446L512.852115,472.047211L515.013542,474.321641L515.158441,475.131000L515.573532,474.083372L516.256009,473.443961L519.270221,473.934172L520.378284,474.889410L523.254082,479.369003L530.034275,473.668587L533.057151,473.581270L537.608121,477.473258L539.417770,477.622182L550.194235,467.614624L554.400262,465.636547L559.613200,466.081999L561.309730,464.572564L562.034947,461.347470L566.162210,459.489295L569.980319,454.618015L572.078435,454.073604L575.072257,458.058219L576.877179,458.541098L581.375716,458.293645L585.613766,455.669338L595.994421,457.229997L598.778947,455.618574L602.418013,450.368934L612.921693,446.800050L616.129079,442.725833L617.133293,440.461587L617.061173,437.291104L615.807355,434.366454L619.460193,424.927393L617.765795,421.391063L615.885203,420.470368L614.694178,417.242572L614.863972,414.355153L616.744356,409.763398L620.118805,405.609635L619.032060,403.694534L618.995033,398.743882L622.898371,392.755486L635.777469,384.555285L636.273166,380.468396L633.305148,371.711647L632.977355,370.068746L632.454834,359.629218L631.536116,356.579659L632.641693,354.218973L637.080192,353.338286L638.063987,351.543124L638.176952,347.417875L637.285646,345.005129L633.121315,341.002777L632.725555,338.814905L635.136640,331.552215L635.419555,329.009777L632.503104,328.168809Z " data-name="cz-vy" data-realname="Vysočina"/><path d="M375.066182,211.808457L373.001448,209.601491L368.471241,208.128590L366.714738,204.827429L362.572235,201.029012L359.293689,199.753466L352.044970,200.546789L332.684648,206.032394L331.600705,207.835009L332.012109,210.241899L328.806799,212.005661L325.169554,210.475343L316.434624,212.955866L313.729582,216.912351L316.422624,218.590495L317.866351,220.238122L317.428803,225.194108L321.011118,229.779068L323.782816,236.582578L327.714192,241.218947L328.063063,248.087503L331.004656,249.510116L337.206159,247.027879L347.806875,245.226497L354.407191,243.170574L359.869762,238.879255L363.417437,238.769515L368.047199,239.613283L373.401584,239.379120L376.693683,238.554272L377.800045,235.826352L376.767447,232.482177L376.738270,229.049479L376.059378,227.662226L381.917354,220.078145L381.500691,216.268916L375.066182,211.808457Z " data-name="cz-pr" data-realname="Prague"/><path d="M442.607593,116.101400L441.068238,113.272391L439.775226,106.552772L436.009237,107.562390L433.066678,106.107010L430.294077,102.806408L425.301445,102.320354L422.710238,100.578002L418.980013,101.451013L416.366391,100.821863L414.291048,101.765474L408.746963,108.102919L404.646065,114.390540L396.879045,120.228964L391.533468,122.751343L385.612906,126.683137L372.522265,130.039438L369.983213,130.245258L367.976374,129.235495L367.270658,125.957836L365.309979,124.900033L360.312150,124.573504L353.815849,124.687690L352.230434,125.137404L351.232556,125.830056L350.685398,126.641543L349.668245,132.623388L348.698988,135.422261L340.161157,141.346781L336.700193,140.158672L334.833297,141.290606L336.665813,152.267578L333.553869,158.230707L324.561477,159.192305L322.192229,160.299878L319.007184,162.913928L317.187380,163.595511L312.436447,161.760336L300.886115,163.609681L297.943079,163.208207L294.525713,161.919457L290.954507,161.171345L284.843075,161.295648L281.928595,162.206514L280.901017,167.862997L279.648520,170.816038L273.915800,171.744839L265.159662,177.076511L259.792139,181.592397L256.569331,179.907405L255.318680,179.996326L241.234121,187.060641L238.645463,187.704130L233.887779,186.711296L223.298501,193.559536L214.646750,196.966793L210.059573,201.904821L208.582492,205.268926L201.559473,211.852174L195.922349,214.070154L194.351942,216.227428L196.009208,220.845583L195.962442,223.069775L194.236688,227.011048L197.051050,229.140961L203.279533,226.984418L210.150039,229.687396L217.164131,236.735763L221.076991,237.958860L227.777456,237.423429L230.536533,238.252576L233.385267,239.895580L237.169615,244.221778L245.825575,250.569791L253.496160,254.645617L255.385709,257.158988L253.338163,269.002244L252.241636,270.198344L251.858908,275.704487L249.926774,280.350637L250.460815,284.142069L248.531927,291.493857L248.464495,292.851961L251.503949,295.019202L251.373461,297.503944L247.633837,301.570204L237.399046,305.960574L234.385626,309.775598L237.362529,313.631976L235.013904,316.026180L236.909915,317.231310L235.951799,322.908743L239.644104,325.606131L241.740537,329.600146L241.509114,335.267314L242.510440,340.066188L243.911972,341.843420L245.181261,346.349369L243.536165,351.988721L243.524740,354.077723L252.239500,349.136480L259.440505,350.916988L264.758709,353.697968L267.551320,353.710085L272.184212,351.192193L279.395684,349.041280L282.814580,343.258854L286.684485,342.348814L295.521561,345.901189L299.463530,346.095078L308.150715,345.047647L311.113518,343.870527L313.823061,341.200129L316.945413,340.237053L319.325937,340.277784L321.874628,341.182863L323.506202,344.145232L325.206586,344.694370L328.478123,348.252175L331.797080,348.439437L338.799253,344.573168L343.848929,344.752838L346.312010,346.145069L349.099795,346.532334L365.624310,345.966348L374.309829,348.550496L377.872392,346.329585L385.892047,342.605110L388.930876,339.543247L389.557386,332.181594L393.394291,327.271536L394.683132,327.154666L397.812113,330.432754L402.204029,331.792774L404.436974,335.930134L408.792459,335.558575L411.575016,336.841576L412.846988,340.062247L416.275796,343.156990L417.242846,343.017072L418.442130,342.507331L420.181033,340.945911L422.371613,336.686616L425.643389,334.677153L425.690067,331.040585L428.023182,330.562802L433.871521,333.158854L441.040485,331.947869L445.354749,332.048081L447.817044,333.063466L452.055136,332.391165L463.678340,326.739146L464.038208,323.967181L463.639098,321.464332L461.273007,317.276084L454.570587,312.275115L454.057560,308.695090L459.369575,301.751171L460.142715,298.917846L461.566902,296.377050L463.375778,295.392696L466.018176,296.723157L468.038444,296.746530L474.090809,293.117585L479.229600,291.067437L485.374360,285.823900L489.170005,286.360452L492.417743,285.366191L494.154204,282.769178L495.222525,277.211240L496.446883,275.079935L500.095358,272.382311L500.231492,268.810345L500.332899,266.917196L500.528710,265.081331L502.317591,257.942738L502.381259,253.362082L503.127098,248.598280L501.736441,246.961510L490.048930,238.343912L485.034431,236.736845L478.798023,230.729104L479.507594,229.611098L485.213844,227.502723L486.523473,227.553953L486.800163,223.599041L486.559910,217.208287L488.963070,214.845228L489.392249,214.198689L488.717391,211.824198L484.217473,206.139886L481.863823,204.518065L481.348871,201.397521L484.784502,196.443526L481.199920,184.351610L481.162605,181.251510L479.496930,174.713910L476.237148,173.130292L470.246782,173.934222L464.902630,172.888334L462.202231,173.500682L459.264032,173.164340L458.470272,172.290766L457.001737,166.642722L453.929668,163.142213L446.683184,160.030857L445.772941,157.380017L445.973229,154.007767L446.829018,151.057227L448.094136,149.328876L450.054453,143.857253L448.583349,132.365324L446.427477,127.145073L448.089949,121.631580L447.793841,120.756417L442.607593,116.101400Z M375.066182,211.808457L381.500691,216.268916L381.917354,220.078145L376.059378,227.662226L376.738270,229.049479L376.767447,232.482177L377.800045,235.826352L376.693683,238.554272L373.401584,239.379120L368.047199,239.613283L363.417437,238.769515L359.869762,238.879255L354.407191,243.170574L347.806875,245.226497L337.206159,247.027879L331.004656,249.510116L328.063063,248.087503L327.714192,241.218947L323.782816,236.582578L321.011118,229.779068L317.428803,225.194108L317.866351,220.238122L316.422624,218.590495L313.729582,216.912351L316.434624,212.955866L325.169554,210.475343L328.806799,212.005661L332.012109,210.241899L331.600705,207.835009L332.684648,206.032394L352.044970,200.546789L359.293689,199.753466L362.572235,201.029012L366.714738,204.827429L368.471241,208.128590L373.001448,209.601491L375.066182,211.808457Z " data-name="cz-st" data-realname="Středočeský"/><path d="M492.706364,55.172780L486.676569,55.714990L483.973109,59.847581L480.324052,60.906744L479.386609,59.017410L479.834107,52.316510L478.078523,48.028271L475.871570,46.215286L473.249374,45.066324L470.354101,42.757926L465.728485,32.466018L465.284247,29.212862L466.284993,24.996230L467.530214,22.589410L467.671440,20.375775L465.345933,16.632095L461.491854,14.727007L453.274494,14.618243L451.910171,11.260122L451.232009,7.782115L449.546277,6.933339L447.685826,8.250362L445.920812,13.602577L444.295946,13.936372L439.340305,8.995349L432.036338,7.390459L429.294085,4.864239L428.221198,7.805162L423.763840,10.502371L423.702636,13.875249L426.043328,15.734130L428.235599,18.941680L428.399507,25.592884L426.248406,31.947978L426.425956,39.901156L426.126522,41.877549L409.608235,40.642276L404.372801,42.099515L401.293179,41.985770L398.988796,48.122259L396.193507,52.386900L393.856876,53.018875L390.714422,52.890153L385.346522,51.663169L379.828860,47.426739L377.770033,46.269400L372.751953,44.824849L372.058094,43.105187L369.933397,46.820493L365.565136,47.176300L364.227819,49.584109L363.451752,54.840923L360.680978,58.205996L358.252301,58.165610L350.745498,50.269580L348.372256,51.143305L346.671810,60.579281L344.824538,62.281500L343.357923,65.319985L343.415303,67.741082L338.891919,73.369440L336.177632,80.251834L334.124959,81.522850L332.704178,84.167873L332.865823,85.377114L340.827510,111.210529L351.140355,119.875661L352.230434,125.137404L353.815849,124.687690L360.312150,124.573504L365.309979,124.900033L367.270658,125.957836L367.976374,129.235495L369.983213,130.245258L372.522265,130.039438L385.612906,126.683137L391.533468,122.751343L396.879045,120.228964L404.646065,114.390540L408.746963,108.102919L414.291048,101.765474L416.366391,100.821863L418.980013,101.451013L422.710238,100.578002L425.301445,102.320354L430.294077,102.806408L433.066678,106.107010L436.009237,107.562390L439.775226,106.552772L441.068238,113.272391L442.607593,116.101400L447.793841,120.756417L448.129462,120.443815L450.017516,119.989942L452.346750,120.808071L460.421937,127.589603L463.171453,127.823002L469.453022,120.675551L472.437737,120.060304L478.801261,122.610199L481.604510,124.851870L486.093069,130.574476L488.282391,132.440191L491.312931,132.725538L493.125212,129.139442L493.578474,121.836844L494.838269,119.949712L498.585288,118.638433L501.114314,119.135597L505.851081,123.494832L517.030819,125.389618L519.453568,123.211052L519.289877,118.924435L514.205946,107.472388L513.961741,105.690165L514.946135,100.795805L511.091424,90.208680L510.410194,83.691444L511.711178,77.315539L511.362573,75.511451L506.471514,65.763644L504.372717,59.186570L492.706364,55.172780Z " data-name="cz-li" data-realname="Liberecký"/><path d="M658.765020,203.708967L657.324920,200.873191L655.495629,193.096190L653.815466,188.796798L649.282723,184.245910L645.175967,178.063097L641.320575,171.341380L639.160749,168.410649L635.865801,166.187278L629.304557,163.915520L626.641583,160.494291L626.166967,154.287460L625.101624,152.175325L623.704391,151.761798L617.044343,151.876156L613.252151,153.644197L611.353924,152.160127L608.652552,144.970937L603.899960,144.206102L602.461595,140.132694L603.550059,136.481449L605.438730,133.870998L606.326953,133.774007L615.353338,127.162863L616.432581,124.185209L618.709337,123.400774L623.402049,124.621858L625.892726,124.021612L631.387920,117.269751L632.298453,110.386917L631.709594,108.669309L636.246659,106.703189L634.840459,102.361059L622.218313,89.436351L617.714460,86.980779L612.949756,85.841733L607.679078,85.821564L605.809250,86.254074L603.776683,91.506662L602.040107,93.771210L599.600427,94.377259L597.375889,93.369621L592.726033,89.911864L586.590028,89.373569L577.700131,98.244110L571.538354,99.461465L571.500440,96.573751L573.566359,94.842458L573.860528,92.116128L569.782161,82.308737L567.807054,80.439845L565.402117,80.126523L556.843415,83.472042L551.888332,83.315179L544.415928,70.884794L543.605029,67.934199L540.004717,67.627763L527.982555,70.665679L523.431307,66.231598L521.773576,65.144936L504.372717,59.186570L506.471514,65.763644L511.362573,75.511451L511.711178,77.315539L510.410194,83.691444L511.091424,90.208680L514.946135,100.795805L513.961741,105.690165L514.205946,107.472388L519.289877,118.924435L519.453568,123.211052L517.030819,125.389618L505.851081,123.494832L501.114314,119.135597L498.585288,118.638433L494.838269,119.949712L493.578474,121.836844L493.125212,129.139442L491.312931,132.725538L488.282391,132.440191L486.093069,130.574476L481.604510,124.851870L478.801261,122.610199L472.437737,120.060304L469.453022,120.675551L463.171453,127.823002L460.421937,127.589603L452.346750,120.808071L450.017516,119.989942L448.129462,120.443815L447.793841,120.756417L448.089949,121.631580L446.427477,127.145073L448.583349,132.365324L450.054453,143.857253L448.094136,149.328876L446.829018,151.057227L445.973229,154.007767L445.772941,157.380017L446.683184,160.030857L453.929668,163.142213L457.001737,166.642722L458.470272,172.290766L459.264032,173.164340L462.202231,173.500682L464.902630,172.888334L470.246782,173.934222L476.237148,173.130292L479.496930,174.713910L481.162605,181.251510L481.199920,184.351610L484.784502,196.443526L481.348871,201.397521L481.863823,204.518065L484.217473,206.139886L488.717391,211.824198L489.392249,214.198689L488.963070,214.845228L497.084037,217.856358L498.214014,217.761351L507.107949,209.277429L509.937743,207.832954L512.169601,207.640432L517.923830,210.434885L520.086758,210.445182L524.571597,209.066468L531.350965,213.352737L534.131513,212.373199L536.011397,206.134340L537.589729,203.552206L544.860880,201.335161L546.204420,202.403325L547.625982,208.297417L548.681515,210.684556L550.500187,212.250480L551.331827,211.833735L560.577405,202.517978L561.946403,201.812241L568.069987,201.629655L572.156210,202.801291L573.588305,205.480819L573.688036,210.130438L575.865803,213.665822L584.336148,215.242979L587.849470,220.350692L597.937956,227.321029L603.718447,232.165698L608.098526,229.559731L621.227294,228.107016L623.226038,227.010491L625.323509,223.847965L625.957433,220.962493L627.383582,219.210748L642.451874,211.680291L643.574682,209.136805L643.736785,206.020137L645.768697,202.328821L661.415796,207.040507L658.765020,203.708967Z " data-name="cz-kr" data-realname="Královéhradecký"/><path d="M778.379711,170.726330L781.121338,184.176646L779.274820,188.746721L776.309324,190.108127L774.236125,188.885594L771.808705,189.836396L768.588769,194.907258L756.899319,201.907395L753.918847,207.243668L751.584381,216.329582L753.452185,223.038489L752.932473,226.165445L744.526794,238.731259L744.606871,246.100926L748.848713,250.029858L749.055372,252.138923L744.978704,257.810607L744.327934,260.258448L743.869802,268.610043L745.092529,271.189327L747.038731,272.008367L753.450715,272.672015L755.906648,277.324718L768.747121,283.394560L769.787773,283.395986L775.961868,281.156080L787.726027,293.115261L789.940097,294.142815L797.455999,294.313745L802.452019,291.158383L807.985786,294.633592L811.781398,294.803100L817.085571,292.839549L821.426761,294.739934L825.939122,299.584393L825.367161,307.167438L828.885735,310.763774L831.532440,308.917257L834.087647,309.612082L838.969284,318.987340L839.991514,319.988067L844.746490,322.003719L848.839607,325.306346L851.865332,330.994866L852.251775,333.882116L856.525751,334.810379L858.478834,336.227952L860.803833,338.719254L867.357209,338.576985L868.961152,340.462229L870.318499,344.387126L873.499616,345.910804L896.588108,342.683517L903.640269,346.533433L914.926198,345.876057L918.304068,347.540413L921.692255,354.061045L925.370365,356.662914L927.553284,360.392431L929.625150,368.243570L932.107813,370.084638L933.754643,370.051317L933.724986,367.271295L938.110566,368.060237L941.351659,365.710690L947.335827,357.641426L952.104789,354.780437L953.936479,351.424808L954.106964,347.149884L954.787527,345.233858L957.753974,343.152577L964.374257,343.803304L970.564702,341.258275L975.552872,343.485521L979.918988,344.602781L984.070786,344.164044L989.889158,338.235872L992.615010,337.034204L998.686308,336.565833L999.122083,332.714624L998.452661,328.005921L995.827590,318.356404L992.316050,310.244380L990.925258,302.417868L990.223497,300.662526L987.921816,299.116588L981.221441,301.033596L979.299111,300.000933L976.223267,296.700318L974.218448,295.208544L972.076569,294.671332L967.499141,294.486867L965.459665,293.196795L964.444621,291.526089L962.643247,284.937728L958.817459,277.910872L955.922935,271.076668L955.571678,264.941438L959.404538,260.032669L955.385588,258.099214L954.612809,255.326152L954.812462,251.796592L953.702199,247.688046L951.461818,246.464657L945.832556,250.457693L942.405177,250.626163L931.176294,245.052238L925.390034,243.270301L920.463034,245.003239L916.494553,248.790056L914.380506,249.307913L911.351303,247.032362L908.609405,240.785925L906.802805,239.559233L901.548527,238.276072L896.737550,234.460050L894.448970,233.310772L884.974173,231.909561L882.966538,229.763213L883.751169,225.501550L874.935202,220.214969L870.361923,219.258146L871.222243,224.413726L874.429460,224.287093L875.526986,225.831208L875.172991,229.139063L870.439887,230.759443L864.545736,231.166926L861.896113,231.968210L857.711095,236.014410L852.417256,237.849719L847.017361,236.914235L837.125270,227.752765L832.109087,217.532836L828.477424,213.007151L830.226708,210.516350L822.108443,207.072276L817.861277,208.582502L815.532799,207.620569L808.088138,198.813217L807.727521,197.155282L808.724631,194.811790L810.303350,193.940873L817.372866,193.425590L821.228876,191.751343L827.337322,187.780692L830.212753,185.095639L831.464289,181.579882L829.023809,177.426647L827.424192,175.943822L827.219281,171.544572L828.941049,165.169386L824.892486,160.374102L822.380917,159.538962L820.379408,163.660368L816.253123,169.833338L813.814362,171.978608L810.456334,172.982078L797.290783,171.102131L790.337903,171.968672L783.153701,177.433527L781.654714,173.217201L778.379711,170.726330Z " data-name="cz-mo" data-realname="Moravskoslezský"/></g></svg>