<?xml version="1.0" encoding="utf-8"?><!DOCTYPE svg  PUBLIC '-//W3C//DTD SVG 1.1//EN'  'http://www.w3.org/Graphics/SVG/1.1/DTD/svg11.dtd'><svg enable_background="new 0 0 1000 460" height="460px" pretty_print="False" style="stroke-linejoin: round; stroke:#000; fill: none;" version="1.1" viewBox="0 0 1000 460" width="1000px" xmlns="http://www.w3.org/2000/svg" xmlns:xlink="http://www.w3.org/1999/xlink"><defs><style type="text/css"><![CDATA[path { fill-rule: evenodd; }]]></style></defs><metadata><views><view h="460.147073678" padding="0" w="1000"><proj flip="auto" id="robinson" lon0="13.8064989626"/><bbox h="40.43" w="88.07" x="154.9" y="-852.05"/></view></views></metadata><g class="" id="states"><path d="M316.241576,0.000000L311.687379,0.582309L308.453485,3.404064L306.855568,8.679002L305.394674,10.544868L307.157189,11.435222L312.087880,11.946713L315.050646,12.884470L314.856891,13.253898L313.687211,13.935931L313.711260,15.858967L317.646203,18.786391L323.089041,20.046504L327.095776,21.837283L326.606495,26.404732L322.596928,29.295288L311.183019,28.574992L306.048416,29.446931L304.579148,30.688542L302.192646,33.892327L300.535239,35.219440L278.639830,43.534216L275.867858,43.685933L270.524836,43.135963L267.735283,43.629039L266.249835,44.520388L264.216170,46.796297L262.805207,47.687742L260.996118,47.905866L259.561630,47.564455L258.337025,47.602390L257.109453,48.920637L256.637337,50.703683L256.940621,52.259195L257.387514,53.549194L257.389493,54.516730L256.491487,55.655049L255.671655,55.892205L254.789578,55.911177L250.762910,58.017202L248.190594,58.444117L241.493550,57.846438L238.383468,58.102584L233.000460,59.743876L230.241908,60.189791L217.221172,60.132865L210.722791,61.129083L205.013738,64.013560L206.909175,66.831892L206.530912,69.308832L204.752971,71.320907L202.453510,72.792088L203.405873,74.263342L203.356376,75.373951L202.553472,76.237786L201.164907,76.892800L198.841114,79.427556L196.520781,81.231449L193.863754,81.772638L190.527914,80.490890L189.494698,79.522495L187.245599,76.759897L186.411968,76.047930L184.603656,75.525832L184.216333,75.753655L184.176977,76.418151L183.365430,77.177593L178.160669,80.291511L177.439642,81.459317L176.177108,85.181414L173.228097,86.434880L170.748931,85.570742L168.294847,84.241350L165.460516,84.032451L161.413617,94.450743L159.556709,97.500009L156.147391,99.656538L148.469720,99.295522L144.458767,100.435587L144.430170,100.454589L144.415168,100.454589L143.116776,100.749113L141.757887,100.834621L140.400650,100.739612L139.102998,100.435587L137.927339,99.751543L136.711778,99.542532L135.514158,99.780044L134.363716,100.454589L133.970173,107.951639L133.271164,111.306460L131.359258,113.273915L128.376689,115.800332L133.490732,119.090305L136.051309,120.232272L145.606662,121.125666L146.524704,121.671418L147.325704,122.447616L148.392987,124.020289L149.537130,125.162451L151.467991,126.278378L155.139842,126.886899L159.575243,127.068851L163.738245,127.924043L166.050389,128.918766L167.037817,129.788166L167.870238,130.977062L168.772991,133.411621L169.137077,135.001071L169.297986,136.564317L169.326076,140.554722L169.461936,141.782495L169.868988,143.952969L170.564145,146.303658L170.884107,148.205389L170.821895,149.176534L170.617602,150.084990L170.342721,150.946936L170.903327,152.432134L172.147324,154.297846L175.507861,158.153092L176.626034,160.170979L177.053994,161.674872L176.619793,162.502756L176.091832,163.273984L174.149980,165.506819L173.908119,165.911703L173.716809,166.654681L174.210608,167.235715L175.361523,168.140694L178.543946,169.920368L180.332010,171.177747L181.775893,172.406832L183.494939,174.196897L184.479065,175.002868L185.853452,175.549645L192.497598,176.888280L194.513939,176.902457L197.472927,175.102097L198.851094,173.340325L200.629295,172.568825L202.849564,172.064627L204.246913,171.463246L207.750294,168.416040L209.371736,167.482709L210.664862,166.055439L211.856463,163.326615L213.607791,160.818675L214.363668,160.075849L216.001305,159.284467L224.296009,156.414626L230.267629,153.116079L231.540528,151.956619L232.009589,151.612635L233.027310,151.088573L234.241847,150.756739L235.844268,150.774949L236.763215,150.965146L237.692162,151.327334L238.311763,151.489206L239.034003,151.489206L241.548177,150.936819L254.954222,145.075692L256.187126,144.988705L257.391516,145.399368L258.381487,145.969857L259.512886,146.303658L260.515370,146.170137L262.057514,145.128289L262.836973,144.428351L263.668971,143.418932L264.484529,142.609804L272.757431,138.224727L274.099081,137.777762L276.068482,137.882930L277.277966,137.787875L278.373060,137.415746L279.153483,136.331746L279.393445,135.646178L279.389679,135.029382L279.109211,133.858519L279.076582,133.077969L279.156263,132.060860L279.431918,131.262162L279.976565,130.473595L281.069986,130.044947L282.799891,129.711334L288.857117,129.549584L292.459017,130.115714L295.948830,131.118600L298.900482,131.413812L310.227955,129.826582L315.081443,131.262162L315.813973,131.118600L316.837393,130.700053L319.805690,128.575057L320.970693,127.934152L322.076308,127.667281L326.153726,127.392325L328.719366,127.533846L329.830757,127.339760L330.935813,126.830292L331.972271,125.433342L332.395593,124.509493L332.646142,123.739304L332.860629,123.312778L333.491167,122.465808L333.589064,122.019087L333.533570,121.333859L333.279350,120.717369L332.634000,119.409647L332.407129,118.815431L332.378550,118.186869L332.439462,117.008604L332.313965,116.287118L332.030372,115.583837L331.225157,113.957061L330.960809,113.215443L331.038712,112.483948L331.548642,112.122249L332.733637,112.294005L334.712174,113.003268L335.491476,113.168967L336.261919,113.225547L337.093124,112.930522L338.304896,112.332397L342.303010,109.475312L343.442114,108.968178L344.319110,108.416605L344.512562,108.050916L344.701435,107.590275L345.079322,106.163951L345.138721,104.666992L345.046662,103.541798L345.134191,102.701467L345.286575,102.069215L345.655595,101.356179L346.141014,100.701738L347.083719,100.140222L345.615357,95.923144L334.710965,89.031315L324.863062,68.363577L324.611835,67.395136L324.766137,66.555845L325.211271,65.845695L325.832564,65.264677L327.786308,64.231783L329.984634,58.696736L330.538420,58.035182L333.606806,55.586756L333.951255,54.937373L334.084297,54.156921L333.847896,52.216975L334.068248,51.299477L334.513179,50.480811L335.088183,49.773066L336.807956,48.397953L337.810643,40.827914L338.286912,39.932943L339.079217,39.741455L340.118808,40.114354L348.202162,46.399919L349.459853,46.635805L350.632218,46.420080L351.667447,45.819284L352.522794,44.893922L353.156040,43.710549L353.515284,42.333703L353.548733,39.495546L353.749738,38.550227L354.146123,37.925405L354.710575,37.560596L359.053346,37.256256L359.729903,36.901533L360.219288,36.401703L360.553038,35.829327L360.864074,34.759175L360.909046,34.271496L361.142310,30.991844L363.207472,26.376302L363.839926,23.940875L362.887280,21.865709L361.135061,21.837283L353.357084,24.499963L351.608675,23.448129L352.213848,21.211919L353.727486,18.577957L354.663459,16.370535L354.700716,13.613858L354.101554,11.823576L352.873354,10.374378L350.981775,8.679002L349.109055,7.561433L345.141876,6.775371L343.264096,5.771515L341.778194,4.270529L341.192931,3.172064L340.786623,2.068905L339.819610,0.516029L338.776541,3.048963L337.189681,3.730761L331.924250,3.494024L327.993677,4.928681L326.392128,4.900271L324.766148,4.218446L323.741560,3.219411L322.894787,2.201471L321.737794,1.406082L316.241576,0.000000Z " data-name="cz-us" data-realname="Ústecký"/><path d="M197.472927,175.102097L194.513939,176.902457L192.497598,176.888280L185.853452,175.549645L184.479065,175.002868L183.494939,174.196897L181.775893,172.406832L180.332010,171.177747L178.875415,171.720401L177.965335,172.518202L177.519782,173.500297L177.453886,174.599880L177.679433,175.748107L178.114752,176.878154L179.274412,178.806223L179.427039,179.486749L178.820781,179.985002L170.483044,181.502093L169.955346,181.984176L169.718173,182.719470L169.719224,183.649249L169.919599,184.722888L172.032962,190.192998L171.865549,190.877848L171.350417,191.361929L170.574836,191.653710L168.612592,191.694235L166.689777,191.090601L161.132633,186.296956L150.968191,184.694527L150.304762,184.812022L148.837645,185.583854L145.905183,188.393823L132.846379,194.387273L132.111713,194.944555L131.602650,195.880813L130.198372,203.680088L129.617107,204.328770L128.707303,204.547704L126.321272,204.093621L122.299734,202.480063L121.809858,202.435469L120.672403,202.694929L117.201662,204.908542L116.674217,205.011930L116.126272,204.916651L115.560138,204.655144L112.186951,201.924663L100.858247,201.738180L99.921087,202.161821L95.817458,206.378296L95.151592,206.747266L93.089980,207.033120L90.525167,206.810114L86.136311,205.504544L85.331440,205.534953L84.576397,205.820795L80.851058,209.076752L79.803446,209.579572L78.440013,209.778269L71.466518,208.711524L71.262423,212.297487L70.282076,215.120782L67.271786,220.205289L66.397774,223.057946L63.423232,222.323290L62.712511,224.928059L62.902505,228.802227L62.642795,231.837012L60.452468,233.764921L54.563738,235.864758L53.033304,238.642485L53.889511,240.589902L55.558677,242.957509L58.817750,246.518796L61.020659,248.075191L63.338761,249.326090L68.327436,251.235952L70.408730,252.104976L71.749703,254.062751L72.023042,256.517296L70.939986,258.780986L71.334261,259.029333L72.528401,259.497376L71.933168,260.949306L71.858134,261.398270L73.454220,262.888493L77.049034,264.464762L78.684266,265.859582L79.848128,267.865930L80.807883,271.964975L81.545099,274.134130L82.632983,276.351203L83.667310,278.004542L84.909989,279.390348L86.589514,280.757093L88.264160,281.168083L89.792501,280.986482L90.929918,281.712890L91.339895,284.828965L92.178703,290.899393L93.109548,293.901521L94.955287,296.578784L97.946273,298.539044L104.867948,301.159261L107.988877,303.674457L113.392524,312.541125L115.842885,314.521337L118.806855,315.391897L127.500334,316.434681L130.216795,316.128540L129.401065,313.746460L131.375985,313.220317L137.060440,314.492638L139.617612,315.592799L141.834000,317.008702L146.200541,320.615659L148.802974,321.486353L149.725769,322.998151L150.047721,324.787505L150.834033,326.509952L155.832375,331.113069L155.833046,331.122640L155.864655,331.141780L157.740456,331.993558L172.541216,347.433807L174.721428,351.081692L177.273146,354.193643L181.565295,356.204557L190.451065,356.549294L193.456387,357.487759L195.335094,358.770997L200.141415,363.722337L206.744638,368.990303L208.611660,372.218421L209.073451,377.420268L211.383500,380.265714L215.832922,383.552074L220.670806,386.321216L224.196068,387.691471L225.480998,384.462329L226.729476,382.421465L228.705391,381.645384L229.662960,381.812264L229.664446,381.812523L229.654208,381.760574L229.348862,380.025126L232.132972,374.383308L235.223427,369.972152L238.196315,367.379823L238.814278,366.394246L239.159897,365.296696L239.089296,363.702342L238.883982,362.781999L238.564657,361.711004L238.345253,359.709572L238.678182,357.022132L240.271251,352.981094L241.711206,351.531703L243.033980,350.994300L244.826532,351.291499L245.456315,351.185647L245.997860,350.841630L247.297246,349.237609L250.716704,343.182348L251.954898,342.115896L253.413842,341.295722L254.578378,340.937537L255.328285,340.324967L255.389859,339.631002L254.656775,338.328577L252.478662,336.586645L251.839785,335.906986L251.585952,335.255826L251.623373,334.539562L252.094573,333.815170L252.956320,332.801857L253.359194,332.112086L253.489376,331.389771L253.413962,330.366345L252.466349,328.596262L252.376779,327.992011L252.503694,327.269768L253.154189,326.537367L253.709700,326.087760L256.160840,324.824412L256.825374,324.328035L257.264518,323.524486L257.760020,322.222568L258.404495,319.893461L259.543130,317.509572L262.073868,313.612670L262.603314,312.473773L262.690792,311.229161L262.393350,309.651081L261.356601,306.389379L260.868552,304.107980L260.906630,301.253373L261.666317,297.778933L261.735630,296.855994L261.412253,295.278512L259.108072,289.288353L256.751693,285.477684L256.603266,283.790957L256.738221,283.146770L256.979076,282.630615L257.491006,281.015142L257.786833,279.216870L257.706107,278.137951L257.285243,276.847761L256.196220,275.596221L254.683996,274.180165L254.122844,273.330965L253.677103,272.221755L253.332617,270.320333L253.124851,265.743945L252.774755,264.712158L252.141283,263.796169L250.757757,262.549163L249.739591,261.980512L248.992135,261.684004L248.323953,261.503258L247.561448,261.090997L246.921027,260.422861L246.474436,258.999309L246.563205,258.341368L246.912550,257.864166L247.726719,257.252951L247.946916,256.765611L247.823018,256.310767L247.424426,255.829533L245.467078,254.883329L245.426085,254.635615L246.262607,254.024459L247.397732,253.460013L247.591454,252.919941L247.352422,252.256029L245.009503,250.613565L244.365319,249.850223L244.684856,248.977274L245.411556,248.102318L247.034377,246.732074L248.621962,245.877478L250.409181,245.248217L254.618536,244.375391L255.703198,243.916659L256.767105,243.056048L260.136041,239.729515L260.549148,238.917722L260.484142,238.355568L260.074044,237.724425L258.997745,237.229261L257.535535,236.760485L257.153137,236.494646L256.914935,236.015735L256.876933,234.919949L257.056211,233.984502L258.192413,229.898084L258.211716,228.968874L257.994976,228.181705L257.572014,227.084164L257.433043,226.434990L257.393960,225.919719L258.940852,222.150787L259.059482,221.645728L259.139638,220.929736L259.121427,220.100180L258.910481,218.506035L258.894705,217.708994L259.165124,217.094496L259.461611,216.822742L259.883963,216.731481L261.284944,216.617913L262.061264,216.421199L262.652180,216.187982L262.999653,215.997354L263.131572,215.668827L263.164613,215.178072L262.935900,214.279727L261.212426,210.331790L260.891265,209.397096L260.786689,208.614490L260.815224,207.813658L260.993065,207.164898L260.314038,206.283013L258.934835,205.163970L251.048646,201.979392L250.668103,201.144283L250.475660,200.424730L249.815813,199.747758L248.853531,199.261322L243.904870,198.051346L243.053799,197.678432L242.008631,196.983285L237.932764,193.552384L236.613179,192.865442L234.990085,192.269701L232.199561,191.641552L230.749478,191.554423L229.580958,191.635473L227.644177,192.012361L225.623634,192.170412L222.998113,191.902942L221.661907,191.244407L214.171153,185.677042L211.564992,184.676295L209.131002,184.220501L207.165530,183.610761L206.328896,183.590504L205.597605,183.780919L202.741459,185.126019L201.184736,185.448123L200.457421,185.478511L199.638154,185.391400L198.896571,185.144251L198.313259,184.572981L198.231879,183.780919L198.744317,182.456139L199.257501,181.485888L199.618696,180.580486L199.611993,179.590045L199.485115,178.790020L197.472927,175.102097Z " data-name="cz-pl" data-realname="Plzeňský"/><path d="M698.205966,263.574791L696.646746,263.861161L689.048140,260.814806L685.540921,259.831907L681.870273,259.553695L676.974429,259.846122L675.627721,259.716154L673.742490,258.991186L672.614082,258.755626L664.818954,258.779994L663.590760,259.214564L662.916112,260.022798L662.876521,261.574338L662.712820,262.782720L662.306018,263.538234L661.094967,264.415627L643.903912,265.800816L640.363117,265.542866L640.221826,267.590270L639.729040,269.729208L638.240754,273.416291L638.301216,274.383326L638.748528,275.187855L643.061941,278.479300L643.655621,279.375358L644.068465,280.440091L644.292839,281.588169L644.330201,282.728156L644.178805,283.768603L643.837464,284.624150L643.307672,285.203332L638.990423,285.849588L638.358961,286.262141L638.012124,286.877932L638.030797,287.739649L639.098570,290.215168L640.174462,298.653104L640.584862,299.984728L643.969591,307.101074L644.262670,308.378090L644.203783,309.492463L643.701778,310.395374L631.505002,316.838366L629.794356,318.378088L628.437864,320.438602L628.001496,321.624514L627.787685,322.891830L627.801689,324.043231L627.992119,324.932232L628.306982,325.625952L629.476400,327.188390L629.767200,327.753974L629.921242,328.447742L629.809349,329.080484L629.393849,329.479259L626.394602,330.500630L625.735669,331.060156L625.283173,331.920824L624.802095,334.187538L624.793113,336.519493L625.032698,337.569526L625.471022,338.462887L626.135499,339.144623L628.027414,339.913878L628.836002,340.438933L629.435322,341.110524L629.794262,341.904237L629.878483,342.795654L629.653633,343.760360L629.088572,344.773935L627.216560,346.823545L626.684771,347.778163L626.483322,348.681915L626.545702,349.547009L626.814514,350.379552L628.200116,352.761240L628.534623,353.571450L628.603071,354.432569L628.442481,355.326277L627.582834,357.144285L624.667058,360.397745L614.591651,363.152577L614.031323,363.602569L611.323254,367.355387L610.173356,368.182147L608.690842,368.626078L598.459443,367.245425L597.817648,367.387968L595.347328,369.017067L594.464856,369.322529L590.083226,369.475261L588.292421,369.065941L587.482436,368.558877L586.710105,367.774874L585.970753,366.658965L585.141568,365.811869L584.165493,365.736527L583.121949,366.231342L579.668034,370.135069L579.046123,369.982334L577.662175,369.961970L576.909271,370.202272L576.237986,370.721572L575.742017,371.599304L575.217975,374.202047L574.563668,375.000413L573.647449,375.407748L568.531056,375.000413L564.537879,376.564597L554.599358,384.575715L553.698971,384.679605L552.824772,384.441269L548.155536,381.257451L547.104695,380.947839L546.112790,380.996725L545.210310,381.306337L543.756979,382.316664L542.827087,383.343307L542.429869,384.147934L541.364713,385.604442L540.640970,386.127981L539.821573,386.276691L538.930522,385.873340L535.858812,382.229074L534.720677,381.448922L533.612180,380.986540L532.601317,380.845993L531.749802,381.033389L531.121902,381.546695L530.779348,382.392032L530.842450,383.153866L530.297038,385.093132L528.447852,389.788828L528.025591,391.274022L527.504755,392.386418L527.285094,394.140629L527.278959,394.186496L536.250570,397.015931L548.088582,402.373698L551.435333,403.025484L554.818979,403.025484L557.237867,402.373698L562.265019,400.073338L563.517785,399.814554L568.007758,399.804969L568.902381,400.341708L569.685406,402.622909L570.493300,403.571841L571.524511,403.926496L574.346155,404.099032L576.036755,405.076746L577.163965,405.488925L578.387467,405.421826L577.024552,407.080157L578.845331,406.715895L580.504282,406.773409L581.667122,407.607382L581.983494,409.562953L584.427271,409.026123L585.268336,409.821784L585.376579,411.106370L585.666607,412.026689L601.195152,421.000581L609.223399,423.819592L622.740375,423.138798L643.503458,425.679830L643.659772,425.555173L646.679023,425.171615L648.736881,426.494902L649.575956,426.715452L651.835413,426.149694L653.336565,424.893537L659.867226,414.231680L662.293961,412.812806L666.573915,413.330499L668.086794,413.272977L670.661090,412.333465L671.998569,412.180077L673.382952,412.563548L676.004811,413.905719L684.965201,416.034085L687.706075,416.302533L690.597936,417.251700L691.948158,419.485658L692.729076,422.151181L693.984989,424.346973L696.013003,425.478462L698.381969,425.823666L703.953406,425.631885L706.257617,426.274352L711.833163,429.218279L714.611269,430.062168L717.410751,429.774477L722.911548,428.096309L725.339927,428.249740L729.181510,432.334971L732.310030,444.621059L737.825221,449.561095L737.876191,446.035886L739.989658,443.661872L741.445653,441.076935L747.270191,423.177152L750.421468,418.037890L755.147176,414.385074L757.055208,412.151316L757.603790,408.652262L758.783035,406.926783L766.238550,402.134072L772.701731,400.964715L779.897042,402.498303L797.299619,409.582126L799.812290,409.179503L802.530133,407.613729L805.086645,406.140749L808.498064,405.287628L810.717459,406.150335L815.575869,410.109376L821.013499,410.809187L836.806664,405.462028L835.325715,401.272175L833.612409,397.987468L832.513427,396.512270L831.262098,395.338661L829.792236,394.517557L821.656680,392.551445L820.662538,391.987093L820.141090,391.166044L819.504100,389.242842L818.614518,387.515282L817.529297,386.178909L816.931916,385.718520L813.455214,384.594048L809.084016,384.109230L804.617551,386.211503L803.486652,386.392808L802.394185,386.292988L801.403184,385.826487L799.630266,383.807748L796.843524,382.047784L791.478207,380.214555L790.767305,377.542238L789.833329,375.595123L789.209225,374.874140L788.473448,374.479030L779.254968,372.914914L773.007322,370.568836L772.150792,369.978262L771.495714,369.265509L771.115595,368.283965L770.973247,362.529519L770.761245,361.275283L770.270375,360.350917L769.396332,359.882633L768.289210,359.821552L761.332162,361.857602L758.781735,361.829097L756.010744,360.868071L754.836484,360.143242L753.981852,359.320698L753.580116,358.449306L753.767740,357.577931L755.849930,355.908520L759.233522,351.405494L759.892757,350.835523L763.750318,349.614182L765.479328,348.531288L766.016335,347.790376L766.229620,346.890714L766.040068,345.811958L765.563577,344.798359L764.983855,344.061580L764.317061,343.532411L760.299931,341.643735L758.227472,339.478372L755.922553,336.043324L754.294952,332.413223L754.020133,330.860760L754.254036,329.662372L756.329925,326.077588L756.434717,325.670108L756.519315,325.341139L756.599790,324.470437L756.560036,323.412601L756.181599,322.065934L754.129284,318.717771L751.071334,315.341415L747.875064,312.970003L742.273168,311.562680L739.727635,310.383172L738.818275,309.549403L738.276766,308.520435L738.165832,304.905031L737.886856,303.969718L737.459908,303.172686L736.909215,302.497662L729.613434,297.040986L728.789601,296.048949L728.208060,295.105725L726.828286,290.792407L725.266782,287.995730L723.262652,285.658555L722.154925,284.894434L716.271581,282.943559L714.827160,282.882595L713.610930,283.138641L712.729115,283.784860L712.287953,284.894434L712.227000,287.105553L712.395535,287.894110L712.672744,288.536350L715.675491,292.211152L716.909500,294.390191L717.365168,295.577334L717.621616,296.764514L717.613300,297.902942L717.274670,298.943820L715.772800,301.147651L713.610441,303.302813L712.391392,304.103913L711.136197,304.579702L709.890297,304.628501L701.472436,299.533393L700.672963,298.586015L700.475653,297.687451L701.043333,296.862092L701.918067,296.057080L702.531244,295.203298L702.898947,294.300751L703.037261,293.349440L702.959056,292.349371L702.677204,291.300547L698.351380,283.658867L697.859109,282.415215L697.687239,281.374807L697.935914,280.614840L699.519355,279.948359L699.871958,279.554166L699.819554,279.050255L699.418607,278.456950L692.717782,273.353313L690.482048,270.590508L689.811832,269.294503L689.591755,268.217922L689.932391,267.482616L690.944341,267.210435L695.669213,268.124484L696.540163,267.925423L697.264793,267.214498L697.824226,265.821127L698.205966,263.574791Z " data-name="cz-jm" data-realname="Jihomoravský"/><path d="M935.837453,306.177144L934.219029,306.145373L933.354819,305.858667L932.494547,305.352363L931.709920,304.571569L931.072024,303.455305L929.383277,298.163159L928.828955,296.982033L928.089155,295.939176L927.097448,295.077266L924.454500,293.764111L923.380588,292.849402L919.801509,287.471376L919.002795,286.802736L916.412545,286.012170L905.322974,286.158494L904.303979,285.857717L899.646354,283.280890L898.229301,282.817568L875.617581,284.674955L874.366604,284.461574L873.298994,284.020591L872.423801,283.345918L871.759101,282.425375L870.928874,280.137330L870.444696,279.355039L869.884938,278.851131L869.272749,278.566670L862.822679,278.479300L861.104514,283.333725L859.020566,283.768603L857.201754,283.626353L856.325594,283.268697L854.827343,281.960033L854.046401,281.490632L853.252210,281.248822L852.475428,281.252886L851.746118,281.515016L851.101354,282.053507L850.578206,282.886659L849.855986,285.115946L849.390307,285.847556L848.848063,286.319046L847.116502,287.148232L846.622508,287.554703L846.224338,288.188807L845.990101,289.024134L845.930133,289.934682L846.155920,291.743651L846.759522,293.739718L842.962676,295.185003L829.911291,293.040473L827.680592,292.963231L826.042873,293.140074L824.324702,293.719391L823.814995,294.101542L823.596730,294.642253L823.876807,295.388283L825.009496,297.256473L825.485754,298.441674L825.564340,299.265035L825.341627,300.029455L824.919910,300.594648L824.333211,301.115121L823.471657,301.416023L822.439545,301.546143L812.006939,301.373327L810.894619,301.607137L808.453380,302.469198L806.632152,303.363809L805.931548,303.874154L805.380658,304.506503L804.774381,305.539430L804.212572,306.771659L803.582871,307.796514L802.738528,308.455363L801.897368,308.705485L800.369864,308.461464L793.868327,306.123006L792.556235,305.911535L789.333301,304.520736L785.487601,301.971071L783.169208,301.273704L782.248274,301.186280L779.476031,300.891480L779.150183,303.863988L779.218214,307.029904L780.693767,310.192013L782.079370,311.497603L780.979176,313.726561L780.529441,314.247212L775.900830,318.231639L775.184167,319.065592L774.567713,319.974825L774.129399,320.414193L773.498284,320.682698L773.024941,320.711175L772.424279,320.615571L762.906296,320.808814L761.909744,321.056980L761.311793,321.720120L761.001425,322.676200L760.672974,326.081657L760.386875,326.989013L759.826936,327.579008L759.112812,327.788561L758.454153,327.692940L757.858864,327.377595L757.347704,326.927979L756.609300,325.967730L756.434717,325.670108L756.329925,326.077588L754.254036,329.662372L754.020133,330.860760L754.294952,332.413223L755.922553,336.043324L758.227472,339.478372L760.299931,341.643735L764.317061,343.532411L764.983855,344.061580L765.563577,344.798359L766.040068,345.811958L766.229620,346.890714L766.016335,347.790376L765.479328,348.531288L763.750318,349.614182L759.892757,350.835523L759.233522,351.405494L755.849930,355.908520L753.767740,357.577931L753.580116,358.449306L753.981852,359.320698L754.836484,360.143242L756.010744,360.868071L758.781735,361.829097L761.332162,361.857602L768.289210,359.821552L769.396332,359.882633L770.270375,360.350917L770.761245,361.275283L770.973247,362.529519L771.115595,368.283965L771.495714,369.265509L772.150792,369.978262L773.007322,370.568836L779.254968,372.914914L788.473448,374.479030L789.209225,374.874140L789.833329,375.595123L790.767305,377.542238L791.478207,380.214555L796.843524,382.047784L799.630266,383.807748L801.403184,385.826487L802.394185,386.292988L803.486652,386.392808L804.617551,386.211503L809.084016,384.109230L813.455214,384.594048L816.931916,385.718520L817.529297,386.178909L818.614518,387.515282L819.504100,389.242842L820.141090,391.166044L820.662538,391.987093L821.656680,392.551445L829.792236,394.517557L831.262098,395.338661L832.513427,396.512270L833.612409,397.987468L835.325715,401.272175L836.806664,405.462028L848.359588,401.549391L850.785532,399.757046L855.167719,392.492447L857.379039,390.853740L860.939730,390.336264L864.075426,390.777076L866.868521,390.642916L869.359787,388.448481L870.316504,385.909189L870.907634,380.169905L871.555307,377.420268L873.186771,374.182219L876.106282,372.534539L879.608909,372.074731L887.523768,372.582436L892.210284,370.724071L896.207381,367.381116L898.839798,363.099799L899.415913,359.029564L898.427513,350.750619L898.294333,349.635906L898.342475,344.666979L899.614224,338.588241L901.804247,332.941061L904.867261,328.194193L908.849332,324.816211L927.921836,318.462927L932.988572,314.957129L936.216997,312.722879L935.837453,306.177144Z " data-name="cz-zl" data-realname="Zlínský"/><path d="M706.733902,113.771119L702.446808,111.781679L699.097216,111.439520L695.334648,113.378470L695.593998,115.944926L700.777468,121.506363L702.749710,124.872266L704.203980,128.790138L705.970289,132.356625L708.905560,134.629896L712.611287,136.313564L715.480400,138.672768L717.327806,141.974075L717.964425,146.446190L720.052176,148.482661L720.568965,150.909485L719.786506,152.479892L717.976109,151.937378L716.248621,150.052935L715.466343,148.939459L714.548436,148.454111L712.411448,148.425562L712.053541,148.929942L712.295051,151.156937L711.998421,151.832684L710.697853,151.908825L707.933161,151.128385L706.659076,151.166455L705.008167,152.146768L702.846110,154.878499L701.571486,155.868458L699.973995,156.206248L695.537849,167.636575L692.819769,177.645721L692.795821,179.579918L693.909670,181.570961L694.149781,182.223195L694.377956,183.466937L694.221706,184.192140L693.876613,184.848486L693.268287,185.358987L689.034792,187.970385L686.298505,190.586076L685.460322,191.072365L684.935249,191.244407L682.553973,192.417622L682.168913,193.408510L682.343060,194.285950L683.495855,195.706528L683.980917,196.553640L684.336981,197.459550L685.307586,201.578050L686.716436,205.105181L686.957521,206.222195L687.280148,211.199602L687.894872,215.634352L685.919651,219.783778L685.826344,221.240065L686.271233,222.799870L687.231483,224.144733L689.826346,227.021275L696.798580,237.077060L697.469573,240.184127L698.106816,241.219207L698.914733,241.878834L701.336223,242.613573L702.951181,244.407868L704.613347,250.680562L700.461673,254.511759L700.242614,255.829533L700.175224,259.535419L699.548383,262.323733L698.205966,263.574791L697.824226,265.821127L697.264793,267.214498L696.540163,267.925423L695.669213,268.124484L690.944341,267.210435L689.932391,267.482616L689.591755,268.217922L689.811832,269.294503L690.482048,270.590508L692.717782,273.353313L699.418607,278.456950L699.819554,279.050255L699.871958,279.554166L699.519355,279.948359L697.935914,280.614840L697.687239,281.374807L697.859109,282.415215L698.351380,283.658867L702.677204,291.300547L702.959056,292.349371L703.037261,293.349440L702.898947,294.300751L702.531244,295.203298L701.918067,296.057080L701.043333,296.862092L700.475653,297.687451L700.672963,298.586015L701.472436,299.533393L709.890297,304.628501L711.136197,304.579702L712.391392,304.103913L713.610441,303.302813L715.772800,301.147651L717.274670,298.943820L717.613300,297.902942L717.621616,296.764514L717.365168,295.577334L716.909500,294.390191L715.675491,292.211152L712.672744,288.536350L712.395535,287.894110L712.227000,287.105553L712.287953,284.894434L712.729115,283.784860L713.610930,283.138641L714.827160,282.882595L716.271581,282.943559L722.154925,284.894434L723.262652,285.658555L725.266782,287.995730L726.828286,290.792407L728.208060,295.105725L728.789601,296.048949L729.613434,297.040986L736.909215,302.497662L737.459908,303.172686L737.886856,303.969718L738.165832,304.905031L738.276766,308.520435L738.818275,309.549403L739.727635,310.383172L742.273168,311.562680L747.875064,312.970003L751.071334,315.341415L754.129284,318.717771L756.181599,322.065934L756.560036,323.412601L756.599790,324.470437L756.519315,325.341139L756.434717,325.670108L756.609300,325.967730L757.347704,326.927979L757.858864,327.377595L758.454153,327.692940L759.112812,327.788561L759.826936,327.579008L760.386875,326.989013L760.672974,326.081657L761.001425,322.676200L761.311793,321.720120L761.909744,321.056980L762.906296,320.808814L772.424279,320.615571L773.024941,320.711175L773.498284,320.682698L774.129399,320.414193L774.567713,319.974825L775.184167,319.065592L775.900830,318.231639L780.529441,314.247212L780.979176,313.726561L782.079370,311.497603L780.693767,310.192013L779.218214,307.029904L779.150183,303.863988L779.476031,300.891480L782.248274,301.186280L783.169208,301.273704L785.487601,301.971071L789.333301,304.520736L792.556235,305.911535L793.868327,306.123006L800.369864,308.461464L801.897368,308.705485L802.738528,308.455363L803.582871,307.796514L804.212572,306.771659L804.774381,305.539430L805.380658,304.506503L805.931548,303.874154L806.632152,303.363809L808.453380,302.469198L810.894619,301.607137L812.006939,301.373327L822.439545,301.546143L823.471657,301.416023L824.333211,301.115121L824.919910,300.594648L825.341627,300.029455L825.564340,299.265035L825.485754,298.441674L825.009496,297.256473L823.876807,295.388283L823.596730,294.642253L823.814995,294.101542L824.324702,293.719391L826.042873,293.140074L827.680592,292.963231L829.911291,293.040473L842.962676,295.185003L846.759522,293.739718L846.155920,291.743651L845.930133,289.934682L845.990101,289.024134L846.224338,288.188807L846.622508,287.554703L847.116502,287.148232L848.848063,286.319046L849.390307,285.847556L849.855986,285.115946L850.578206,282.886659L851.101354,282.053507L851.746118,281.515016L852.475428,281.252886L853.252210,281.248822L854.046401,281.490632L854.827343,281.960033L856.325594,283.268697L857.201754,283.626353L859.020566,283.768603L861.104514,283.333725L862.822679,278.479300L860.430306,276.398746L858.447826,275.195981L854.198263,274.318314L853.698047,271.977977L852.847411,269.930311L852.208980,268.943087L850.479673,267.299808L846.306343,264.515147L841.532922,262.750225L840.482643,261.913493L835.269884,254.213287L834.379919,253.504681L833.537073,253.348343L832.718957,253.579805L830.186450,254.992974L829.246464,255.159472L828.217726,254.905664L827.341555,254.205165L826.811933,253.206219L826.560067,251.994123L826.797951,245.897777L826.482602,245.091918L825.750402,244.253603L822.132929,241.866656L817.762882,240.214570L812.610597,241.651515L808.854921,241.412019L803.235648,238.463128L802.384885,238.418480L801.627793,238.714777L798.442532,240.874177L791.013019,240.541327L788.780071,239.656452L776.611510,229.723601L775.555270,229.403043L774.542347,229.536947L770.614594,231.377168L769.586332,231.350791L756.612590,226.155039L755.969634,225.660057L755.599496,225.067713L755.018264,223.193384L754.631727,222.698450L753.964222,222.349567L747.593613,221.668040L745.630233,220.964217L744.924648,220.380076L744.502569,219.676283L744.297261,218.858930L744.348252,212.142464L744.528344,211.100248L744.874222,210.185806L748.636054,205.711323L748.836378,205.088964L748.719415,204.531487L748.330333,204.008482L743.941742,200.749033L743.263812,199.812617L742.855280,198.813402L742.686984,197.781794L742.748973,196.748196L743.031879,195.749086L743.506558,194.814859L751.231559,184.893053L751.632254,184.096931L751.732242,183.268421L751.596995,182.389294L749.422656,176.949037L749.441978,176.114659L749.711650,175.456490L751.002028,173.500297L751.261366,172.502003L751.302448,169.695625L751.649553,168.414016L752.255158,167.294426L754.005204,165.474428L765.280493,160.126450L768.240225,156.129276L768.932958,155.592989L769.713086,155.331932L770.607475,155.425022L772.724735,156.459148L773.774714,156.475339L774.748574,156.102968L775.607763,155.439188L776.323346,154.581154L776.853625,153.626014L777.169716,152.670906L777.229970,151.812955L773.875994,140.937024L770.679950,141.136820L769.430080,144.505016L767.375840,143.315636L766.184923,141.422245L765.672706,139.091356L765.619677,136.694068L764.913283,136.227952L764.260518,135.695257L763.689576,135.076962L763.216399,134.382586L765.805041,133.507505L762.699834,132.470760L755.896072,132.632452L752.362869,131.824001L746.986795,129.199073L745.438495,127.943756L744.412813,126.346160L743.281671,123.968948L742.592815,121.972242L742.858392,121.458825L741.121262,121.040493L736.763740,121.782086L734.764960,121.763071L732.826091,120.964433L729.226146,118.663718L727.558755,117.874671L712.312198,114.490573L708.980814,114.813756L706.733902,113.771119Z " data-name="cz-ol" data-realname="Olomoucký"/><path d="M698.205966,263.574791L699.548383,262.323733L700.175224,259.535419L700.242614,255.829533L700.461673,254.511759L704.613347,250.680562L702.951181,244.407868L701.336223,242.613573L698.914733,241.878834L698.106816,241.219207L697.469573,240.184127L696.798580,237.077060L689.826346,227.021275L687.231483,224.144733L686.271233,222.799870L685.826344,221.240065L685.919651,219.783778L687.894872,215.634352L687.280148,211.199602L686.957521,206.222195L686.716436,205.105181L685.307586,201.578050L684.336981,197.459550L683.980917,196.553640L683.495855,195.706528L682.343060,194.285950L682.168913,193.408510L682.553973,192.417622L684.935249,191.244407L685.460322,191.072365L686.298505,190.586076L689.034792,187.970385L693.268287,185.358987L693.876613,184.848486L694.221706,184.192140L694.377956,183.466937L694.149781,182.223195L693.909670,181.570961L692.795821,179.579918L692.819769,177.645721L695.537849,167.636575L699.973995,156.206248L699.973847,156.206279L698.240105,156.572873L695.308120,156.411046L692.453676,156.753739L689.404668,159.028942L687.089909,162.246902L685.744368,164.741546L684.161056,166.788841L681.105001,168.693432L677.086045,173.674539L671.206185,174.026963L664.859061,171.445791L659.501894,167.683983L643.722342,163.642400L642.993443,163.956165L642.460552,164.593826L642.104719,165.488599L641.907569,166.579775L641.916822,169.084170L641.711574,170.228127L640.942021,171.112953L626.416404,176.949037L625.637555,177.530281L625.100012,178.338371L624.631932,180.651378L624.180174,181.666162L623.533006,182.502728L622.729381,183.167138L620.810256,184.021979L607.886524,185.016626L605.694501,185.762128L603.695861,187.058698L597.694769,183.088137L595.985724,182.762008L595.262584,182.369038L592.746059,179.993104L592.151166,179.602197L590.856120,179.359149L589.141903,178.650271L587.298988,177.360159L585.697128,175.616474L584.449710,173.757470L583.521236,173.210728L575.032908,171.849991L573.822674,171.153449L573.075820,170.165360L572.666647,168.982938L572.294718,165.241623L572.056320,164.253738L571.565765,163.557381L570.716737,163.071560L566.594309,162.087799L560.530836,162.174838L559.214918,162.729467L550.604050,170.139038L549.804691,170.467048L549.180109,170.311141L548.540315,169.873799L547.907720,169.191478L546.717513,167.262034L544.952236,162.508828L544.338650,161.895504L543.555090,161.638438L536.478243,163.363052L535.639220,164.257787L535.070486,165.427867L533.587412,170.432626L532.944101,171.157499L532.031853,171.404526L530.891400,171.200019L524.684279,167.907867L523.908562,167.703385L519.548097,168.782498L517.403585,168.760227L511.525916,166.476526L509.325476,166.618240L506.610846,167.764122L498.331091,174.543178L497.217690,174.614055L488.981308,172.153721L486.751125,174.045021L486.458586,174.587729L486.345001,175.203351L486.428089,176.173388L486.674035,177.102954L487.396481,179.189017L487.495887,179.827018L487.484178,180.475161L487.374441,182.371064L486.074646,182.324475L483.163932,182.934187L480.560698,183.999696L479.930017,184.897105L481.786304,187.078958L482.920320,187.956203L486.485474,189.757376L491.548984,191.072365L492.613239,191.617237L498.283990,195.791644L499.517678,196.478655L501.476830,196.926539L502.528319,197.354163L503.652549,198.069586L505.130126,199.395091L505.409918,200.305144L505.172230,201.229414L504.844845,201.892231L504.711761,202.431414L504.690386,203.228046L504.913580,206.917562L504.836859,207.929219L504.589506,209.005790L504.015318,210.755555L503.591887,212.659530L503.513152,214.137779L510.120108,217.560945L513.158912,220.272580L517.347710,225.292883L519.012899,226.698716L519.894029,227.069963L530.948781,226.335587L533.549554,226.911726L540.571349,231.172243L544.548038,231.935139L546.663920,232.974008L547.507973,233.688249L548.106839,234.532374L548.582352,236.395211L548.993409,237.032415L549.594209,237.491048L553.502090,239.000930L556.016341,240.557564L558.205959,242.767829L560.837420,246.592008L564.602673,247.401964L565.610504,246.967549L566.872315,246.872141L568.922406,247.578573L570.561355,247.946006L571.920087,247.931796L573.280082,247.196936L575.345248,245.100038L576.019573,244.779324L577.606334,244.294199L578.246244,243.874034L578.705359,243.147385L579.273948,241.657604L579.572060,241.180644L580.144319,240.721958L581.027027,240.732106L582.050461,241.066987L584.196817,242.211697L586.237474,243.027632L588.464041,243.658880L591.873378,244.245484L593.567279,244.980277L594.682579,245.844999L595.195694,246.790943L595.742283,247.606994L596.885964,248.246450L598.503029,248.542838L601.627230,248.289081L605.395986,248.433215L608.411455,249.162012L612.867211,250.938397L618.618309,253.929031L620.637880,255.246782L622.069767,256.593013L623.119241,257.967728L624.254351,259.186134L625.898697,260.104029L631.176783,261.645418L637.445435,264.821835L640.363117,265.542866L643.903912,265.800816L661.094967,264.415627L662.306018,263.538234L662.712820,262.782720L662.876521,261.574338L662.916112,260.022798L663.590760,259.214564L664.818954,258.779994L672.614082,258.755626L673.742490,258.991186L675.627721,259.716154L676.974429,259.846122L681.870273,259.553695L685.540921,259.831907L689.048140,260.814806L696.646746,263.861161L698.205966,263.574791Z " data-name="cz-pa" data-realname="Pardubický"/><path d="M128.376689,115.800332L128.376532,115.800466L127.274426,116.733920L122.288931,116.505775L108.358787,109.880851L107.121825,109.586234L105.831994,109.804821L103.869969,110.897778L102.990072,111.182904L100.372356,110.888274L98.054292,111.002324L95.732901,111.696139L93.979060,113.188371L91.055970,117.218734L89.525195,118.483091L87.645831,118.654211L79.802977,117.513428L68.980631,118.169373L63.224344,119.566869L59.397444,122.362064L58.369833,123.122708L57.923440,124.035508L57.688565,124.967353L57.356212,125.794630L57.412945,126.174994L57.651555,126.793098L57.792384,127.515820L57.524379,128.191011L56.956671,128.447778L55.647396,128.409738L55.139071,128.656998L53.499777,129.912345L49.369681,131.852535L47.895060,133.108021L43.850582,139.757305L42.295452,141.165362L40.736570,142.088248L39.648889,143.524964L39.460152,146.446190L36.795750,149.434332L36.133522,151.166455L35.908020,154.440643L36.501235,156.725181L37.478816,158.695742L37.591471,160.333220L35.643888,161.532827L33.145040,161.275764L31.543439,159.409747L29.451437,154.335939L29.235820,153.384105L28.906487,152.308571L28.222943,151.109350L27.543968,150.414586L24.860917,148.330396L24.455829,147.902157L24.277497,147.492956L24.387333,147.121826L24.753963,146.769732L24.925180,146.636509L25.113381,146.531833L25.304843,146.474738L25.528320,146.446190L26.103399,145.408978L26.120420,144.562108L25.593821,143.896047L24.524946,143.429815L20.341524,143.344181L18.186273,142.811354L16.484082,141.650587L15.814955,140.213965L15.644165,137.055551L14.671441,135.352815L11.767509,133.745296L4.766821,133.327510L1.088976,133.108021L4.631422,135.942578L5.914462,137.578758L6.633830,140.204451L6.523671,142.563973L5.605058,143.420300L4.156531,144.219561L2.488947,146.446190L4.140089,148.634926L11.572261,152.280017L15.351248,155.459144L17.129928,157.515293L18.391603,159.704874L19.001172,162.475410L18.263295,166.665047L18.541076,169.426733L19.994129,172.217261L22.159341,173.750739L24.565783,174.846130L26.773302,176.332120L28.191192,178.151610L28.620571,180.037906L28.764792,181.714718L29.311075,182.886640L52.006506,192.513402L52.157061,192.513402L54.508566,194.305331L59.900248,194.762863L62.486170,196.669325L63.048880,199.367183L62.211498,201.855537L62.183822,203.857815L68.346046,206.718450L70.470327,207.376436L71.466518,208.711524L78.440013,209.778269L79.803446,209.579572L80.851058,209.076752L84.576397,205.820795L85.331440,205.534953L86.136311,205.504544L90.525167,206.810114L93.089980,207.033120L95.151592,206.747266L95.817458,206.378296L99.921087,202.161821L100.858247,201.738180L112.186951,201.924663L115.560138,204.655144L116.126272,204.916651L116.674217,205.011930L117.201662,204.908542L120.672403,202.694929L121.809858,202.435469L122.299734,202.480063L126.321272,204.093621L128.707303,204.547704L129.617107,204.328770L130.198372,203.680088L131.602650,195.880813L132.111713,194.944555L132.846379,194.387273L145.905183,188.393823L148.837645,185.583854L150.304762,184.812022L150.968191,184.694527L161.132633,186.296956L166.689777,191.090601L168.612592,191.694235L170.574836,191.653710L171.350417,191.361929L171.865549,190.877848L172.032962,190.192998L169.919599,184.722888L169.719224,183.649249L169.718173,182.719470L169.955346,181.984176L170.483044,181.502093L178.820781,179.985002L179.427039,179.486749L179.274412,178.806223L178.114752,176.878154L177.679433,175.748107L177.453886,174.599880L177.519782,173.500297L177.965335,172.518202L178.875415,171.720401L180.332010,171.177747L178.543946,169.920368L175.361523,168.140694L174.210608,167.235715L173.716809,166.654681L173.908119,165.911703L174.149980,165.506819L176.091832,163.273984L176.619793,162.502756L177.053994,161.674872L176.626034,160.170979L175.507861,158.153092L172.147324,154.297846L170.903327,152.432134L170.342721,150.946936L170.617602,150.084990L170.821895,149.176534L170.884107,148.205389L170.564145,146.303658L169.868988,143.952969L169.461936,141.782495L169.326076,140.554722L169.297986,136.564317L169.137077,135.001071L168.772991,133.411621L167.870238,130.977062L167.037817,129.788166L166.050389,128.918766L163.738245,127.924043L159.575243,127.068851L155.139842,126.886899L151.467991,126.278378L149.537130,125.162451L148.392987,124.020289L147.325704,122.447616L146.524704,121.671418L145.606662,121.125666L136.051309,120.232272L133.490732,119.090305L128.376689,115.800332Z " data-name="cz-ka" data-realname="Karlovarský"/><path d="M351.816063,458.147074L353.219884,458.012760L354.346494,457.629006L357.161253,455.638321L364.599402,452.880238L366.773685,450.880099L369.516285,443.556363L371.564789,442.319035L375.354271,445.791286L381.416277,448.362023L383.175941,448.716946L385.348165,448.304468L389.619684,446.529883L391.872272,446.376408L392.867825,447.071846L393.141052,448.256506L393.251137,449.493946L393.782246,450.275752L394.930270,450.381273L397.129272,449.724170L398.100430,449.901635L399.815706,451.652328L400.816337,453.398270L402.064926,454.611822L404.492289,454.746129L406.627621,452.834042L407.250902,452.275874L407.623281,447.450743L407.108965,441.777112L407.253127,436.765742L409.741049,432.996690L417.030556,427.319573L417.498114,423.771649L418.801137,421.595055L419.217303,419.341838L419.944790,417.577680L422.105726,416.868196L429.841342,417.750258L437.636729,420.348584L440.594402,420.118469L442.023027,416.868196L441.677726,416.532633L440.930322,415.334208L440.176935,413.867371L439.796163,412.697764L439.936778,411.403555L440.814288,409.064468L443.004419,397.447216L442.612409,392.319949L441.554843,386.647008L441.195437,381.367530L442.885161,377.458590L442.668511,376.452663L442.599742,375.590457L442.777437,374.967762L443.222868,374.661207L446.408742,374.316336L454.750213,376.644267L466.227347,377.420268L467.514482,380.035773L468.339141,382.555604L468.481466,385.075562L467.723821,387.720218L470.639343,387.768130L481.627766,385.257618L482.353335,384.855181L484.220437,382.823882L484.626306,381.846589L484.787898,379.355537L485.317651,378.598665L486.438705,378.589085L487.243868,379.355537L487.925085,380.275295L488.687096,380.696857L495.560523,380.763924L498.898725,381.539991L506.193743,384.529401L512.864200,386.359545L516.142026,387.863954L523.822129,393.096194L527.277632,394.186078L527.278959,394.186496L527.285094,394.140629L527.504755,392.386418L528.025591,391.274022L528.447852,389.788828L530.297038,385.093132L530.842450,383.153866L530.779348,382.392032L530.589632,381.736131L529.782204,380.782849L529.077756,380.255293L528.344245,379.882545L526.604098,379.574978L524.270851,379.422214L523.233319,379.230751L522.281186,378.707285L521.664985,377.880343L520.926300,376.623662L520.434387,376.169473L519.917355,375.996353L519.456514,375.996353L519.175863,375.914884L518.940617,375.446445L518.758843,374.688805L518.952053,373.204109L519.166569,372.485198L519.727543,371.747970L524.111502,367.064191L524.737083,365.828159L524.981006,364.924064L525.028682,363.596461L525.122136,362.781999L525.402035,362.040851L525.762346,361.725256L526.522182,361.605127L529.744865,361.432060L530.726243,361.226417L531.449252,360.896575L532.031706,360.503619L532.378341,360.063838L532.362536,359.565016L532.033628,358.903324L531.017532,357.879245L523.581078,352.181073L523.011529,351.875725L522.510085,351.847227L521.904571,351.961223L516.374743,353.848309L514.295200,353.972489L507.295135,352.924095L506.637060,352.948523L504.213490,353.312914L503.521286,353.196879L502.955804,352.938345L495.546562,347.452491L494.753561,346.656642L494.174029,345.402852L493.674874,343.756289L493.130793,340.742165L492.413039,339.177184L491.516391,338.214616L490.224259,337.803548L483.039435,337.113694L481.341116,336.731126L480.702182,336.395363L472.732337,333.060270L471.818095,333.015505L471.020980,333.223051L470.319671,333.658492L468.021319,336.885781L467.426670,337.250036L466.791306,337.272421L460.650820,334.098007L456.444221,329.841416L452.048146,327.522043L448.558864,324.873236L446.109562,323.742155L444.840463,323.640440L443.593428,324.010682L441.233382,325.935179L439.955747,326.287132L438.602039,326.134551L435.713449,324.736935L429.878546,320.493523L429.035800,319.531393L428.542863,318.599797L428.314946,317.684494L428.348836,313.866892L428.180549,312.974070L427.855222,312.327346L427.404579,311.841294L424.827497,309.899177L424.116142,309.008480L423.648804,307.873786L423.575984,306.568319L425.854751,296.516504L425.698899,293.113649L425.063427,290.099315L422.362919,283.632449L422.673116,282.900884L423.476432,282.429439L428.543704,281.193958L429.497436,280.559977L429.950862,279.737039L429.889704,278.865354L429.452839,277.993691L428.782167,277.168781L426.552894,275.338198L425.611739,275.451972L424.913257,275.232551L424.230422,274.889202L423.509399,274.391453L422.706318,273.712900L422.035062,272.957162L421.515542,272.132369L420.967885,270.960223L420.569237,270.358930L419.554753,269.842963L417.747421,269.327004L414.972631,269.747490L413.490006,269.633735L412.711045,269.249814L412.547140,268.055422L412.417217,267.559802L411.863240,266.861072L411.015357,266.298441L406.604137,265.209768L405.804537,264.846207L405.297116,264.444061L404.159452,263.270146L403.304046,262.571504L402.730877,262.467927L402.044247,262.668988L400.355597,263.938338L399.938347,264.377037L399.388464,265.122432L398.605405,266.641705L398.509630,267.167780L398.465744,267.740581L398.491703,272.585393L397.655707,273.731184L395.714195,275.065955L391.048248,275.900975L390.080158,276.282937L388.089686,278.099346L384.742894,279.905689L383.186860,280.287694L381.639854,280.460411L378.128744,280.001190L377.861672,279.791901L377.757029,279.322529L377.761072,278.806430L377.851958,278.251734L376.031976,277.855528L359.839329,278.395994L357.073730,278.099346L354.555907,276.989985L352.575479,276.589729L350.766564,276.656777L349.582855,276.876206L342.980952,280.043861L341.498924,280.188129L340.381471,280.106851L339.708279,279.915848L339.263414,279.728911L338.882671,279.499304L338.538254,279.241253L337.769237,278.395994L337.443514,277.965246L336.783735,277.367895L336.240166,277.067192L335.519903,276.847761L334.948776,276.770555L334.530566,276.636459L334.191213,276.360143L333.858238,275.876595L333.221683,274.667753L332.714617,274.257366L331.917713,273.918089L330.145505,273.546311L327.803912,273.532090L326.078461,273.804321L325.392870,273.989195L324.806378,274.334567L322.338762,276.512523L319.514556,277.487771L311.060156,278.410218L307.175130,278.290339L305.245282,277.745810L302.515208,277.569043L301.636782,277.335387L299.755916,276.169161L298.234905,275.508859L297.109641,275.405243L296.077768,275.557619L294.501985,276.282937L293.601104,276.933095L292.993990,278.194842L292.363038,280.326302L292.027046,280.679864L291.575089,280.986694L284.657028,282.801311L283.584540,283.270729L282.828762,283.766571L280.298975,284.886305L278.790483,285.028560L277.557696,284.908659L274.813243,283.652771L273.950315,283.154898L273.115874,282.906981L272.129124,282.726124L269.061552,282.634680L268.228848,282.409118L266.456825,281.435767L265.758735,281.291494L264.926944,281.376839L256.751693,285.477684L259.108072,289.288353L261.412253,295.278512L261.735630,296.855994L261.666317,297.778933L260.906630,301.253373L260.868552,304.107980L261.356601,306.389379L262.393350,309.651081L262.690792,311.229161L262.603314,312.473773L262.073868,313.612670L259.543130,317.509572L258.404495,319.893461L257.760020,322.222568L257.264518,323.524486L256.825374,324.328035L256.160840,324.824412L253.709700,326.087760L253.154189,326.537367L252.503694,327.269768L252.376779,327.992011L252.466349,328.596262L253.413962,330.366345L253.489376,331.389771L253.359194,332.112086L252.956320,332.801857L252.094573,333.815170L251.623373,334.539562L251.585952,335.255826L251.839785,335.906986L252.478662,336.586645L254.656775,338.328577L255.389859,339.631002L255.328285,340.324967L254.578378,340.937537L253.413842,341.295722L251.954898,342.115896L250.716704,343.182348L247.297246,349.237609L245.997860,350.841630L245.456315,351.185647L244.826532,351.291499L243.033980,350.994300L241.711206,351.531703L240.271251,352.981094L238.678182,357.022132L238.345253,359.709572L238.564657,361.711004L238.883982,362.781999L239.089296,363.702342L239.159897,365.296696L238.814278,366.394246L238.196315,367.379823L235.223427,369.972152L232.132972,374.383308L229.348862,380.025126L229.654208,381.760574L229.664446,381.812523L232.114039,382.239420L234.786196,383.552074L237.392486,385.209708L239.977525,386.359545L242.628399,386.110411L243.245951,389.617557L245.052001,392.990777L247.551766,395.885023L250.205319,397.964763L253.060733,399.057377L258.582168,399.776215L260.715214,400.734681L264.452117,405.172602L272.398982,416.964072L275.449377,419.447306L281.452080,420.770463L284.339148,422.045708L287.139419,423.790826L290.522557,426.025035L300.743590,430.570424L302.120843,431.740390L304.797621,434.876392L305.851943,436.401295L306.639495,436.986330L307.682834,437.331599L308.602215,437.849507L309.065596,438.981246L308.877793,440.141779L308.222015,440.314422L307.499424,440.199327L307.078615,440.467883L306.218959,442.203935L305.402326,442.462909L305.168371,443.000042L306.038624,445.532300L306.751748,446.549068L309.484782,449.196575L310.783749,450.117472L315.913911,451.872966L336.898996,453.829966L351.816063,458.147074Z " data-name="cz-jc" data-realname="Jihočeský"/><path d="M640.363117,265.542866L637.445435,264.821835L631.176783,261.645418L625.898697,260.104029L624.254351,259.186134L623.119241,257.967728L622.069767,256.593013L620.637880,255.246782L618.618309,253.929031L612.867211,250.938397L608.411455,249.162012L605.395986,248.433215L601.627230,248.289081L598.503029,248.542838L596.885964,248.246450L595.742283,247.606994L595.195694,246.790943L594.682579,245.844999L593.567279,244.980277L591.873378,244.245484L588.464041,243.658880L586.237474,243.027632L584.196817,242.211697L582.050461,241.066987L581.027027,240.732106L580.144319,240.721958L579.572060,241.180644L579.273948,241.657604L578.705359,243.147385L578.246244,243.874034L577.606334,244.294199L576.019573,244.779324L575.345248,245.100038L573.280082,247.196936L571.920087,247.931796L570.561355,247.946006L568.922406,247.578573L566.872315,246.872141L565.610504,246.967549L564.602673,247.401964L560.837420,246.592008L558.205959,242.767829L556.016341,240.557564L553.502090,239.000930L549.594209,237.491048L548.993409,237.032415L548.582352,236.395211L548.106839,234.532374L547.507973,233.688249L546.663920,232.974008L544.548038,231.935139L540.571349,231.172243L533.549554,226.911726L530.948781,226.335587L519.894029,227.069963L519.012899,226.698716L517.347710,225.292883L513.158912,220.272580L510.120108,217.560945L503.513152,214.137779L503.531243,215.662743L503.742264,217.609619L503.619844,218.540513L503.117898,219.041463L501.640605,219.489689L501.189040,219.755383L500.186184,220.696485L499.717410,221.325254L499.320480,221.970263L499.111009,222.408390L498.879503,223.152815L498.711271,223.925657L498.404922,226.883325L498.124409,227.656260L497.637918,228.344006L496.854383,228.968874L495.652728,229.463908L493.712648,229.756063L491.291580,229.478110L490.484613,229.297543L489.934170,229.307688L489.087365,229.717515L484.204930,233.511717L479.267669,235.147220L473.532164,238.055216L473.022258,238.168863L472.342182,238.164804L471.539021,238.030863L470.220613,237.409873L469.650091,237.066914L469.302263,236.971535L468.848499,236.951242L467.876121,237.208968L467.699809,237.286083L467.128590,237.740661L466.561109,238.355568L466.140759,239.004989L465.888500,239.786341L465.772751,240.590037L465.609879,241.328805L465.309263,242.069621L464.206643,243.500559L461.142175,246.642757L460.524225,247.659774L460.204962,248.991484L460.521706,249.793379L461.261216,250.548599L468.183661,254.597037L469.072207,255.366580L469.903553,256.373714L470.781735,257.981943L471.334856,260.002491L471.158126,262.238435L460.085896,266.775762L455.960651,267.311995L453.472714,266.489369L449.222471,266.404061L445.846645,267.234809L443.864094,267.444023L442.250483,267.376993L436.327191,265.280855L435.114589,265.209768L434.445776,265.351943L434.063867,265.666763L433.847843,266.087203L433.820232,266.574678L433.949290,267.015441L434.351883,268.094016L434.258506,268.601831L433.883155,268.997932L431.174345,270.224859L430.796265,270.588477L430.377875,271.285251L430.200535,271.906876L429.862398,272.762135L429.303285,273.664142L427.697749,274.925771L426.552894,275.338198L428.782167,277.168781L429.452839,277.993691L429.889704,278.865354L429.950862,279.737039L429.497436,280.559977L428.543704,281.193958L423.476432,282.429439L422.673116,282.900884L422.362919,283.632449L425.063427,290.099315L425.698899,293.113649L425.854751,296.516504L423.575984,306.568319L423.648804,307.873786L424.116142,309.008480L424.827497,309.899177L427.404579,311.841294L427.855222,312.327346L428.180549,312.974070L428.348836,313.866892L428.314946,317.684494L428.542863,318.599797L429.035800,319.531393L429.878546,320.493523L435.713449,324.736935L438.602039,326.134551L439.955747,326.287132L441.233382,325.935179L443.593428,324.010682L444.840463,323.640440L446.109562,323.742155L448.558864,324.873236L452.048146,327.522043L456.444221,329.841416L460.650820,334.098007L466.791306,337.272421L467.426670,337.250036L468.021319,336.885781L470.319671,333.658492L471.020980,333.223051L471.818095,333.015505L472.732337,333.060270L480.702182,336.395363L481.341116,336.731126L483.039435,337.113694L490.224259,337.803548L491.516391,338.214616L492.413039,339.177184L493.130793,340.742165L493.674874,343.756289L494.174029,345.402852L494.753561,346.656642L495.546562,347.452491L502.955804,352.938345L503.521286,353.196879L504.213490,353.312914L506.637060,352.948523L507.295135,352.924095L514.295200,353.972489L516.374743,353.848309L521.904571,351.961223L522.510085,351.847227L523.011529,351.875725L523.581078,352.181073L531.017532,357.879245L532.033628,358.903324L532.362536,359.565016L532.378341,360.063838L532.031706,360.503619L531.449252,360.896575L530.726243,361.226417L529.744865,361.432060L526.522182,361.605127L525.762346,361.725256L525.402035,362.040851L525.122136,362.781999L525.028682,363.596461L524.981006,364.924064L524.737083,365.828159L524.111502,367.064191L519.727543,371.747970L519.166569,372.485198L518.952053,373.204109L518.758843,374.688805L518.940617,375.446445L519.175863,375.914884L519.456514,375.996353L519.917355,375.996353L520.434387,376.169473L520.926300,376.623662L521.664985,377.880343L522.281186,378.707285L523.233319,379.230751L524.270851,379.422214L526.604098,379.574978L528.344245,379.882545L529.077756,380.255293L529.782204,380.782849L530.589632,381.736131L530.779348,382.392032L531.121902,381.546695L531.749802,381.033389L532.601317,380.845993L533.612180,380.986540L534.720677,381.448922L535.858812,382.229074L538.930522,385.873340L539.821573,386.276691L540.640970,386.127981L541.364713,385.604442L542.429869,384.147934L542.827087,383.343307L543.756979,382.316664L545.210310,381.306337L546.112790,380.996725L547.104695,380.947839L548.155536,381.257451L552.824772,384.441269L553.698971,384.679605L554.599358,384.575715L564.537879,376.564597L568.531056,375.000413L573.647449,375.407748L574.563668,375.000413L575.217975,374.202047L575.742017,371.599304L576.237986,370.721572L576.909271,370.202272L577.662175,369.961970L579.046123,369.982334L579.668034,370.135069L583.121949,366.231342L584.165493,365.736527L585.141568,365.811869L585.970753,366.658965L586.710105,367.774874L587.482436,368.558877L588.292421,369.065941L590.083226,369.475261L594.464856,369.322529L595.347328,369.017067L597.817648,367.387968L598.459443,367.245425L608.690842,368.626078L610.173356,368.182147L611.323254,367.355387L614.031323,363.602569L614.591651,363.152577L624.667058,360.397745L627.582834,357.144285L628.442481,355.326277L628.603071,354.432569L628.534623,353.571450L628.200116,352.761240L626.814514,350.379552L626.545702,349.547009L626.483322,348.681915L626.684771,347.778163L627.216560,346.823545L629.088572,344.773935L629.653633,343.760360L629.878483,342.795654L629.794262,341.904237L629.435322,341.110524L628.836002,340.438933L628.027414,339.913878L626.135499,339.144623L625.471022,338.462887L625.032698,337.569526L624.793113,336.519493L624.802095,334.187538L625.283173,331.920824L625.735669,331.060156L626.394602,330.500630L629.393849,329.479259L629.809349,329.080484L629.921242,328.447742L629.767200,327.753974L629.476400,327.188390L628.306982,325.625952L627.992119,324.932232L627.801689,324.043231L627.787685,322.891830L628.001496,321.624514L628.437864,320.438602L629.794356,318.378088L631.505002,316.838366L643.701778,310.395374L644.203783,309.492463L644.262670,308.378090L643.969591,307.101074L640.584862,299.984728L640.174462,298.653104L639.098570,290.215168L638.030797,287.739649L638.012124,286.877932L638.358961,286.262141L638.990423,285.849588L643.307672,285.203332L643.837464,284.624150L644.178805,283.768603L644.330201,282.728156L644.292839,281.588169L644.068465,280.440091L643.655621,279.375358L643.061941,278.479300L638.748528,275.187855L638.301216,274.383326L638.240754,273.416291L639.729040,269.729208L640.221826,267.590270L640.363117,265.542866Z " data-name="cz-vy" data-realname="Vysočina"/><path d="M375.960334,169.683476L374.895365,168.545616L374.324555,168.173088L373.759969,167.915965L370.287966,167.179028L369.169031,166.749832L368.476347,165.978509L367.881516,164.798285L367.194982,164.101915L365.302605,163.045245L362.820643,161.065614L362.029832,160.618293L361.080461,160.304565L359.481023,160.055609L352.355671,160.731640L333.575672,165.263891L332.996343,165.616137L332.697085,166.112123L332.633906,166.721489L332.825358,167.436144L333.104850,168.092104L333.217008,168.654946L333.048923,169.112516L332.507388,169.659180L331.725503,170.039826L330.904234,170.207879L330.172588,170.096519L326.459625,168.891828L325.595495,168.802744L324.723172,168.891828L317.995418,170.955019L315.345580,172.265090L315.033806,172.568825L314.896492,172.854338L314.871269,173.101380L314.865243,173.388924L315.125816,173.731145L315.610787,174.160447L318.399633,175.488891L319.282006,176.088332L319.693469,176.436661L319.949643,176.803222L319.916497,177.232569L319.768826,177.670024L319.420959,178.407232L319.256473,178.875085L319.154356,179.322692L319.194287,179.827018L319.387444,180.246284L319.882006,180.795187L323.762021,184.457513L324.194781,184.992317L324.943566,186.163248L325.886119,188.365459L326.250322,189.003665L326.605211,189.483850L327.000899,189.913389L331.225051,193.619255L331.665753,194.332559L331.874849,194.991164L331.887280,196.278022L331.842156,196.839394L331.847638,198.079720L332.069949,199.147821L332.294938,199.441708L332.567773,199.652497L332.963720,199.881530L333.457147,200.047732L335.079041,200.272714L341.025487,198.231724L351.369787,196.715769L357.745329,195.023588L358.592410,194.610184L360.604400,192.960681L362.839368,191.540239L364.236045,191.197804L365.202892,191.080470L365.590071,191.118968L365.893051,191.226171L366.338779,191.434874L368.429768,191.882679L370.975361,192.093413L376.252266,191.882679L379.449210,191.205909L380.199432,189.880970L380.345223,189.469667L380.352143,189.003665L380.274392,188.598453L379.957138,188.002801L379.595018,187.445655L379.247071,186.787224L379.096687,186.315189L379.164323,184.668192L379.025450,184.062494L378.827129,183.552016L378.058163,182.437909L377.872380,182.081404L377.870384,181.781619L378.019223,181.408918L378.427305,180.880258L382.212269,177.627493L383.323703,176.313125L383.604963,175.644826L383.627499,175.059570L383.347304,174.136146L382.644699,173.249202L381.762918,172.674120L378.642391,171.864165L377.610895,171.412625L377.084782,171.040060L376.521265,170.483245L375.960334,169.683476Z " data-name="cz-pr" data-realname="Prague"/><path d="M441.930566,96.426011L436.450555,92.684003L434.725646,90.412377L432.982276,85.019741L429.296442,85.827260L428.306365,85.655661L427.201362,85.332652L426.264008,84.658383L423.274468,82.009909L422.473900,81.592069L421.716672,81.420495L418.262980,81.620329L417.032174,81.164143L415.559407,80.223536L414.535496,80.100411L413.495978,80.318403L411.899945,80.925961L410.705608,80.897702L409.250337,80.423362L408.415294,80.385011L407.739944,80.651448L407.246340,81.182310L405.744173,83.390638L404.976956,84.230412L402.159706,86.273425L401.306159,87.113282L400.783256,87.830005L399.460307,90.289209L398.511360,91.325044L397.370172,92.199375L395.045103,93.253452L393.993745,93.871377L392.399309,95.238532L391.183417,96.026140L386.037830,98.063921L380.421330,101.237005L367.631594,103.978134L365.119729,104.153882L363.848380,104.016516L363.423758,103.780166L363.050291,103.351914L362.825294,102.828727L362.709292,102.234851L362.576463,101.707645L362.427977,101.261244L362.112515,100.723956L361.781902,100.273531L361.109259,100.006914L360.084872,99.883706L357.868847,100.006914L355.086656,99.645371L348.628956,99.770597L347.083719,100.140222L346.141014,100.701738L345.655595,101.356179L345.286575,102.069215L345.134191,102.701467L345.046662,103.541798L345.138721,104.666992L345.079322,106.163951L344.701435,107.590275L344.512562,108.050916L344.319110,108.416605L343.442114,108.968178L342.303010,109.475312L338.304896,112.332397L337.093124,112.930522L336.261919,113.225547L335.491476,113.168967L334.712174,113.003268L332.733637,112.294005L331.548642,112.122249L331.038712,112.483948L330.960809,113.215443L331.225157,113.957061L332.030372,115.583837L332.313965,116.287118L332.439462,117.008604L332.378550,118.186869L332.407129,118.815431L332.634000,119.409647L333.279350,120.717369L333.533570,121.333859L333.589064,122.019087L333.491167,122.465808L332.860629,123.312778L332.646142,123.739304L332.395593,124.509493L331.972271,125.433342L330.935813,126.830292L329.830757,127.339760L328.719366,127.533846L326.153726,127.392325L322.076308,127.667281L320.970693,127.934152L319.805690,128.575057L316.837393,130.700053L315.813973,131.118600L315.081443,131.262162L310.227955,129.826582L298.900482,131.413812L295.948830,131.118600L292.459017,130.115714L288.857117,129.549584L282.799891,129.711334L281.069986,130.044947L279.976565,130.473595L279.431918,131.262162L279.156263,132.060860L279.076582,133.077969L279.109211,133.858519L279.389679,135.029382L279.393445,135.646178L279.153483,136.331746L278.373060,137.415746L277.277966,137.787875L276.068482,137.882930L274.099081,137.777762L272.757431,138.224727L264.484529,142.609804L263.668971,143.418932L262.836973,144.428351L262.057514,145.128289L260.515370,146.170137L259.512886,146.303658L258.381487,145.969857L257.391516,145.399368L256.187126,144.988705L254.954222,145.075692L241.548177,150.936819L239.034003,151.489206L238.311763,151.489206L237.692162,151.327334L236.763215,150.965146L235.844268,150.774949L234.241847,150.756739L233.027310,151.088573L232.009589,151.612635L231.540528,151.956619L230.267629,153.116079L224.296009,156.414626L216.001305,159.284467L214.363668,160.075849L213.607791,160.818675L211.856463,163.326615L210.664862,166.055439L209.371736,167.482709L207.750294,168.416040L204.246913,171.463246L202.849564,172.064627L200.629295,172.568825L198.851094,173.340325L197.472927,175.102097L199.485115,178.790020L199.611993,179.590045L199.618696,180.580486L199.257501,181.485888L198.744317,182.456139L198.231879,183.780919L198.313259,184.572981L198.896571,185.144251L199.638154,185.391400L200.457421,185.478511L201.184736,185.448123L202.741459,185.126019L205.597605,183.780919L206.328896,183.590504L207.165530,183.610761L209.131002,184.220501L211.564992,184.676295L214.171153,185.677042L221.661907,191.244407L222.998113,191.902942L225.623634,192.170412L227.644177,192.012361L229.580958,191.635473L230.749478,191.554423L232.199561,191.641552L234.990085,192.269701L236.613179,192.865442L237.932764,193.552384L242.008631,196.983285L243.053799,197.678432L243.904870,198.051346L248.853531,199.261322L249.815813,199.747758L250.475660,200.424730L250.668103,201.144283L251.048646,201.979392L258.934835,205.163970L260.314038,206.283013L260.993065,207.164898L260.815224,207.813658L260.786689,208.614490L260.891265,209.397096L261.212426,210.331790L262.935900,214.279727L263.164613,215.178072L263.131572,215.668827L262.999653,215.997354L262.652180,216.187982L262.061264,216.421199L261.284944,216.617913L259.883963,216.731481L259.461611,216.822742L259.165124,217.094496L258.894705,217.708994L258.910481,218.506035L259.121427,220.100180L259.139638,220.929736L259.059482,221.645728L258.940852,222.150787L257.393960,225.919719L257.433043,226.434990L257.572014,227.084164L257.994976,228.181705L258.211716,228.968874L258.192413,229.898084L257.056211,233.984502L256.876933,234.919949L256.914935,236.015735L257.153137,236.494646L257.535535,236.760485L258.997745,237.229261L260.074044,237.724425L260.484142,238.355568L260.549148,238.917722L260.136041,239.729515L256.767105,243.056048L255.703198,243.916659L254.618536,244.375391L250.409181,245.248217L248.621962,245.877478L247.034377,246.732074L245.411556,248.102318L244.684856,248.977274L244.365319,249.850223L245.009503,250.613565L247.352422,252.256029L247.591454,252.919941L247.397732,253.460013L246.262607,254.024459L245.426085,254.635615L245.467078,254.883329L247.424426,255.829533L247.823018,256.310767L247.946916,256.765611L247.726719,257.252951L246.912550,257.864166L246.563205,258.341368L246.474436,258.999309L246.921027,260.422861L247.561448,261.090997L248.323953,261.503258L248.992135,261.684004L249.739591,261.980512L250.757757,262.549163L252.141283,263.796169L252.774755,264.712158L253.124851,265.743945L253.332617,270.320333L253.677103,272.221755L254.122844,273.330965L254.683996,274.180165L256.196220,275.596221L257.285243,276.847761L257.706107,278.137951L257.786833,279.216870L257.491006,281.015142L256.979076,282.630615L256.738221,283.146770L256.603266,283.790957L256.751693,285.477684L264.926944,281.376839L265.758735,281.291494L266.456825,281.435767L268.228848,282.409118L269.061552,282.634680L272.129124,282.726124L273.115874,282.906981L273.950315,283.154898L274.813243,283.652771L277.557696,284.908659L278.790483,285.028560L280.298975,284.886305L282.828762,283.766571L283.584540,283.270729L284.657028,282.801311L291.575089,280.986694L292.027046,280.679864L292.363038,280.326302L292.993990,278.194842L293.601104,276.933095L294.501985,276.282937L296.077768,275.557619L297.109641,275.405243L298.234905,275.508859L299.755916,276.169161L301.636782,277.335387L302.515208,277.569043L305.245282,277.745810L307.175130,278.290339L311.060156,278.410218L319.514556,277.487771L322.338762,276.512523L324.806378,274.334567L325.392870,273.989195L326.078461,273.804321L327.803912,273.532090L330.145505,273.546311L331.917713,273.918089L332.714617,274.257366L333.221683,274.667753L333.858238,275.876595L334.191213,276.360143L334.530566,276.636459L334.948776,276.770555L335.519903,276.847761L336.240166,277.067192L336.783735,277.367895L337.443514,277.965246L337.769237,278.395994L338.538254,279.241253L338.882671,279.499304L339.263414,279.728911L339.708279,279.915848L340.381471,280.106851L341.498924,280.188129L342.980952,280.043861L349.582855,276.876206L350.766564,276.656777L352.575479,276.589729L354.555907,276.989985L357.073730,278.099346L359.839329,278.395994L376.031976,277.855528L377.851958,278.251734L377.761072,278.806430L377.757029,279.322529L377.861672,279.791901L378.128744,280.001190L381.639854,280.460411L383.186860,280.287694L384.742894,279.905689L388.089686,278.099346L390.080158,276.282937L391.048248,275.900975L395.714195,275.065955L397.655707,273.731184L398.491703,272.585393L398.465744,267.740581L398.509630,267.167780L398.605405,266.641705L399.388464,265.122432L399.938347,264.377037L400.355597,263.938338L402.044247,262.668988L402.730877,262.467927L403.304046,262.571504L404.159452,263.270146L405.297116,264.444061L405.804537,264.846207L406.604137,265.209768L411.015357,266.298441L411.863240,266.861072L412.417217,267.559802L412.547140,268.055422L412.711045,269.249814L413.490006,269.633735L414.972631,269.747490L417.747421,269.327004L419.554753,269.842963L420.569237,270.358930L420.967885,270.960223L421.515542,272.132369L422.035062,272.957162L422.706318,273.712900L423.509399,274.391453L424.230422,274.889202L424.913257,275.232551L425.611739,275.451972L426.552894,275.338198L427.697749,274.925771L429.303285,273.664142L429.862398,272.762135L430.200535,271.906876L430.377875,271.285251L430.796265,270.588477L431.174345,270.224859L433.883155,268.997932L434.258506,268.601831L434.351883,268.094016L433.949290,267.015441L433.820232,266.574678L433.847843,266.087203L434.063867,265.666763L434.445776,265.351943L435.114589,265.209768L436.327191,265.280855L442.250483,267.376993L443.864094,267.444023L445.846645,267.234809L449.222471,266.404061L453.472714,266.489369L455.960651,267.311995L460.085896,266.775762L471.158126,262.238435L471.334856,260.002491L470.781735,257.981943L469.903553,256.373714L469.072207,255.366580L468.183661,254.597037L461.261216,250.548599L460.521706,249.793379L460.204962,248.991484L460.524225,247.659774L461.142175,246.642757L464.206643,243.500559L465.309263,242.069621L465.609879,241.328805L465.772751,240.590037L465.888500,239.786341L466.140759,239.004989L466.561109,238.355568L467.128590,237.740661L467.699809,237.286083L467.876121,237.208968L468.848499,236.951242L469.302263,236.971535L469.650091,237.066914L470.220613,237.409873L471.539021,238.030863L472.342182,238.164804L473.022258,238.168863L473.532164,238.055216L479.267669,235.147220L484.204930,233.511717L489.087365,229.717515L489.934170,229.307688L490.484613,229.297543L491.291580,229.478110L493.712648,229.756063L495.652728,229.463908L496.854383,228.968874L497.637918,228.344006L498.124409,227.656260L498.404922,226.883325L498.711271,223.925657L498.879503,223.152815L499.111009,222.408390L499.320480,221.970263L499.717410,221.325254L500.186184,220.696485L501.189040,219.755383L501.640605,219.489689L503.117898,219.041463L503.619844,218.540513L503.742264,217.609619L503.531243,215.662743L503.513152,214.137779L503.591887,212.659530L504.015318,210.755555L504.589506,209.005790L504.836859,207.929219L504.913580,206.917562L504.690386,203.228046L504.711761,202.431414L504.844845,201.892231L505.172230,201.229414L505.409918,200.305144L505.130126,199.395091L503.652549,198.069586L502.528319,197.354163L501.476830,196.926539L499.517678,196.478655L498.283990,195.791644L492.613239,191.617237L491.548984,191.072365L486.485474,189.757376L482.920320,187.956203L481.786304,187.078958L479.930017,184.897105L480.560698,183.999696L483.163932,182.934187L486.074646,182.324475L487.374441,182.371064L487.484178,180.475161L487.495887,179.827018L487.396481,179.189017L486.674035,177.102954L486.428089,176.173388L486.345001,175.203351L486.458586,174.587729L486.751125,174.045021L488.981308,172.153721L489.365373,171.635357L489.210448,170.874027L488.545455,169.721946L486.430721,167.401727L484.912168,166.027096L483.722487,165.130281L481.285335,163.816488L480.842666,163.389367L480.434778,162.808411L480.397794,161.855021L480.574368,161.304458L482.771574,159.304707L483.319187,158.572040L483.467061,158.209761L483.610056,157.790818L483.663430,157.333429L483.280961,156.305342L480.596739,151.070362L479.798568,149.109767L479.329663,147.596417L479.092789,145.104014L478.281660,141.954427L477.763871,140.912732L477.016862,139.842759L475.745918,138.956876L474.739420,138.619114L473.676931,138.558439L467.780008,139.185423L463.740383,138.414841L462.404349,138.329897L459.762779,138.815299L458.746342,138.882042L457.682152,138.801141L456.822827,138.538214L455.976987,137.834391L455.395162,136.855539L454.809288,134.744245L454.145582,133.292315L452.767371,131.662519L451.806625,130.956842L450.861708,130.473595L443.453864,127.962456L443.051282,127.733998L442.680067,127.048634L442.372160,125.831598L442.345833,123.122763L442.692210,121.643119L442.999444,120.753752L444.141973,119.367203L445.222808,117.521942L445.628915,116.485171L445.726469,114.975554L445.457460,113.173008L443.494653,105.745764L443.133196,104.951832L442.588269,104.101359L441.475089,102.648947L440.998433,101.552111L440.963209,100.097806L441.375718,99.142448L441.482397,99.047520L441.904378,98.463820L442.298293,97.813483L442.284228,97.128827L441.930566,96.426011Z M375.960334,169.683476L376.521265,170.483245L377.084782,171.040060L377.610895,171.412625L378.642391,171.864165L381.762918,172.674120L382.644699,173.249202L383.347304,174.136146L383.627499,175.059570L383.604963,175.644826L383.323703,176.313125L382.212269,177.627493L378.427305,180.880258L378.019223,181.408918L377.870384,181.781619L377.872380,182.081404L378.058163,182.437909L378.827129,183.552016L379.025450,184.062494L379.164323,184.668192L379.096687,186.315189L379.247071,186.787224L379.595018,187.445655L379.957138,188.002801L380.274392,188.598453L380.352143,189.003665L380.345223,189.469667L380.199432,189.880970L379.449210,191.205909L376.252266,191.882679L370.975361,192.093413L368.429768,191.882679L366.338779,191.434874L365.893051,191.226171L365.590071,191.118968L365.202892,191.080470L364.236045,191.197804L362.839368,191.540239L360.604400,192.960681L358.592410,194.610184L357.745329,195.023588L351.369787,196.715769L341.025487,198.231724L335.079041,200.272714L333.457147,200.047732L332.963720,199.881530L332.567773,199.652497L332.294938,199.441708L332.069949,199.147821L331.847638,198.079720L331.842156,196.839394L331.887280,196.278022L331.874849,194.991164L331.665753,194.332559L331.225051,193.619255L327.000899,189.913389L326.605211,189.483850L326.250322,189.003665L325.886119,188.365459L324.943566,186.163248L324.194781,184.992317L323.762021,184.457513L319.882006,180.795187L319.387444,180.246284L319.194287,179.827018L319.154356,179.322692L319.256473,178.875085L319.420959,178.407232L319.768826,177.670024L319.916497,177.232569L319.949643,176.803222L319.693469,176.436661L319.282006,176.088332L318.399633,175.488891L315.610787,174.160447L315.125816,173.731145L314.865243,173.388924L314.871269,173.101380L314.896492,172.854338L315.033806,172.568825L315.345580,172.265090L317.995418,170.955019L324.723172,168.891828L325.595495,168.802744L326.459625,168.891828L330.172588,170.096519L330.904234,170.207879L331.725503,170.039826L332.507388,169.659180L333.048923,169.112516L333.217008,168.654946L333.104850,168.092104L332.825358,167.436144L332.633906,166.721489L332.697085,166.112123L332.996343,165.616137L333.575672,165.263891L352.355671,160.731640L359.481023,160.055609L361.080461,160.304565L362.029832,160.618293L362.820643,161.065614L365.302605,163.045245L367.194982,164.101915L367.881516,164.798285L368.476347,165.978509L369.169031,166.749832L370.287966,167.179028L373.759969,167.915965L374.324555,168.173088L374.895365,168.545616L375.960334,169.683476Z " data-name="cz-st" data-realname="Středočeský"/><path d="M494.360707,47.245423L482.431581,43.970404L476.435122,44.378150L475.206715,45.724701L474.001688,47.678258L472.519200,49.034445L472.270919,48.972688L470.422165,48.512827L469.360475,46.995447L469.326716,45.250557L469.568946,43.410947L469.367049,41.628342L467.327782,38.186702L464.999367,36.726734L462.298874,35.797701L459.247606,33.939723L457.531620,31.949161L455.559696,28.916182L453.929553,25.684507L453.266865,23.078574L453.987282,19.705416L455.074138,17.782129L455.067633,16.010542L452.485681,13.007613L448.493543,11.473110L440.247202,11.368918L438.651221,8.679002L437.734648,5.894627L435.986016,5.212779L434.209754,6.263968L433.118842,8.660060L433.120497,8.679002L432.805139,10.544868L431.198838,10.810077L429.095559,10.004986L427.274216,8.660060L425.890902,6.851135L418.455102,5.563172L415.529593,3.541371L415.257129,5.051790L414.657656,5.894627L412.670993,7.116311L411.861207,7.258370L411.066162,7.570903L410.375523,8.053916L409.771874,8.679002L409.756926,8.679002L410.549116,10.753247L413.024787,12.240351L415.444661,14.807439L416.069673,20.131777L415.701278,21.060318L414.391793,22.348954L414.041957,22.974341L413.995658,23.997731L414.145901,24.698963L414.355399,25.220160L415.083987,31.588979L414.921095,33.171919L398.304099,32.195604L393.167640,33.370977L390.078081,33.285666L388.206962,38.205663L387.010379,40.329384L385.713636,41.628342L383.422059,42.140356L380.270801,42.045538L374.815806,41.078411L368.993880,37.703199L366.851329,36.783615L361.727722,35.646025L360.909046,34.271496L360.864074,34.759175L360.553038,35.829327L360.219288,36.401703L359.729903,36.901533L359.053346,37.256256L354.710575,37.560596L354.146123,37.925405L353.749738,38.550227L353.548733,39.495546L353.515284,42.333703L353.156040,43.710549L352.522794,44.893922L351.667447,45.819284L350.632218,46.420080L349.459853,46.635805L348.202162,46.399919L340.118808,40.114354L339.079217,39.741455L338.286912,39.932943L337.810643,40.827914L336.807956,48.397953L335.088183,49.773066L334.513179,50.480811L334.068248,51.299477L333.847896,52.216975L334.084297,54.156921L333.951255,54.937373L333.606806,55.586756L330.538420,58.035182L329.984634,58.696736L327.786308,64.231783L325.832564,65.264677L325.211271,65.845695L324.766137,66.555845L324.611835,67.395136L324.863062,68.363577L334.710965,89.031315L345.615357,95.923144L347.083719,100.140222L348.628956,99.770597L355.086656,99.645371L357.868847,100.006914L360.084872,99.883706L361.109259,100.006914L361.781902,100.273531L362.112515,100.723956L362.427977,101.261244L362.576463,101.707645L362.709292,102.234851L362.825294,102.828727L363.050291,103.351914L363.423758,103.780166L363.848380,104.016516L365.119729,104.153882L367.631594,103.978134L380.421330,101.237005L386.037830,98.063921L391.183417,96.026140L392.399309,95.238532L393.993745,93.871377L395.045103,93.253452L397.370172,92.199375L398.511360,91.325044L399.460307,90.289209L400.783256,87.830005L401.306159,87.113282L402.159706,86.273425L404.976956,84.230412L405.744173,83.390638L407.246340,81.182310L407.739944,80.651448L408.415294,80.385011L409.250337,80.423362L410.705608,80.897702L411.899945,80.925961L413.495978,80.318403L414.535496,80.100411L415.559407,80.223536L417.032174,81.164143L418.262980,81.620329L421.716672,81.420495L422.473900,81.592069L423.274468,82.009909L426.264008,84.658383L427.201362,85.332652L428.306365,85.655661L429.296442,85.827260L432.982276,85.019741L434.725646,90.412377L436.450555,92.684003L441.930566,96.426011L442.243922,96.175586L442.660459,95.975652L443.269810,95.830246L444.094338,95.814090L446.469398,96.474480L454.963381,101.933878L455.984313,102.343930L456.897494,102.428769L457.716802,102.127793L463.502141,96.407835L464.877071,95.935261L466.435380,95.923144L472.941943,97.991213L475.880363,99.800894L480.721801,104.412456L483.022315,105.919503L484.111710,106.303347L485.130921,106.394259L486.058130,106.161930L486.871513,105.576067L487.414205,104.594267L487.632111,103.291312L487.614008,97.431770L487.984108,96.450245L488.747925,95.923144L492.397730,94.889165L493.250537,94.832620L494.096629,94.953787L494.949847,95.301136L498.219333,97.922544L499.947541,98.825349L511.205540,100.412899L512.242872,100.241213L513.017678,99.697885L513.482539,98.679929L513.609474,97.447927L513.451388,96.310896L513.050284,95.238532L507.259976,86.017031L507.012698,85.312464L506.903703,84.585708L507.576144,80.665577L507.566183,79.547366L507.403949,78.437272L507.059745,77.359511L506.529373,76.338299L505.786328,75.397847L503.834852,73.549321L503.057663,72.150896L502.486969,70.494262L501.962743,66.921015L502.003562,65.264677L502.248616,63.864630L502.690635,62.853975L502.856385,61.817131L502.393179,60.368839L496.881635,52.527519L494.360707,47.245423Z " data-name="cz-li" data-realname="Liberecký"/><path d="M659.501894,167.683983L656.693223,164.960552L655.111683,162.656314L652.876647,156.372970L650.975812,152.889164L646.226544,149.158344L644.127217,146.446190L641.808721,144.124409L637.607854,138.663254L635.299057,136.275514L631.899789,134.439657L625.248523,132.518316L622.408659,129.731648L621.885320,128.124442L621.851428,126.450762L621.588723,124.739144L620.410043,123.027627L618.996254,122.675827L612.374577,122.675827L610.718849,123.122708L609.749891,123.854847L608.701188,124.045016L606.727798,122.827956L605.939617,121.763071L603.628583,117.019104L598.853174,116.344174L597.186563,113.055303L598.060307,110.137455L601.005589,110.669679L600.684065,110.108944L599.791482,108.065677L600.670773,107.999155L601.943587,107.314932L602.715365,107.058352L604.812427,105.547431L607.250511,104.321646L609.286966,102.810867L610.193199,100.435587L612.418261,99.837047L617.165502,100.882125L619.614553,100.435587L620.836234,98.887009L623.600127,96.502551L624.714478,95.096667L624.319214,95.201156L624.203585,94.118287L624.266999,92.703021L624.405402,91.772211L624.936307,90.708466L625.293478,90.195603L625.236898,89.587776L624.552988,88.201220L628.970597,86.691278L627.324225,83.187374L613.990374,72.640220L609.350867,70.609073L604.525048,69.631514L599.257735,69.546098L597.414576,69.868783L596.520865,71.710051L595.688370,74.054514L594.085397,75.848582L591.684365,76.304236L589.404259,75.468876L584.558191,72.640220L578.397854,72.137166L570.046673,79.152235L563.968794,80.063653L563.618928,79.513001L563.461343,78.933878L563.527732,78.345274L563.758124,77.747187L565.717088,76.380179L565.847900,74.196896L564.822653,71.662594L563.337284,69.175964L561.186474,66.290979L559.100517,64.772680L556.678483,64.497496L548.330024,67.097608L544.323280,67.192506L543.370331,66.926790L535.138938,56.897764L534.573553,55.778370L534.145943,54.526216L530.527091,54.251129L518.697413,56.594196L517.134960,56.205253L515.996852,55.370465L513.868430,53.008526L512.142287,52.126404L494.360707,47.245423L496.881635,52.527519L502.393179,60.368839L502.856385,61.817131L502.690635,62.853975L502.248616,63.864630L502.003562,65.264677L501.962743,66.921015L502.486969,70.494262L503.057663,72.150896L503.834852,73.549321L505.786328,75.397847L506.529373,76.338299L507.059745,77.359511L507.403949,78.437272L507.566183,79.547366L507.576144,80.665577L506.903703,84.585708L507.012698,85.312464L507.259976,86.017031L513.050284,95.238532L513.451388,96.310896L513.609474,97.447927L513.482539,98.679929L513.017678,99.697885L512.242872,100.241213L511.205540,100.412899L499.947541,98.825349L498.219333,97.922544L494.949847,95.301136L494.096629,94.953787L493.250537,94.832620L492.397730,94.889165L488.747925,95.923144L487.984108,96.450245L487.614008,97.431770L487.632111,103.291312L487.414205,104.594267L486.871513,105.576067L486.058130,106.161930L485.130921,106.394259L484.111710,106.303347L483.022315,105.919503L480.721801,104.412456L475.880363,99.800894L472.941943,97.991213L466.435380,95.923144L464.877071,95.935261L463.502141,96.407835L457.716802,102.127793L456.897494,102.428769L455.984313,102.343930L454.963381,101.933878L446.469398,96.474480L444.094338,95.814090L443.269810,95.830246L442.660459,95.975652L442.243922,96.175586L441.930566,96.426011L442.284228,97.128827L442.298293,97.813483L441.904378,98.463820L441.482397,99.047520L441.375718,99.142448L440.963209,100.097806L440.998433,101.552111L441.475089,102.648947L442.588269,104.101359L443.133196,104.951832L443.494653,105.745764L445.457460,113.173008L445.726469,114.975554L445.628915,116.485171L445.222808,117.521942L444.141973,119.367203L442.999444,120.753752L442.692210,121.643119L442.345833,123.122763L442.372160,125.831598L442.680067,127.048634L443.051282,127.733998L443.453864,127.962456L450.861708,130.473595L451.806625,130.956842L452.767371,131.662519L454.145582,133.292315L454.809288,134.744245L455.395162,136.855539L455.976987,137.834391L456.822827,138.538214L457.682152,138.801141L458.746342,138.882042L459.762779,138.815299L462.404349,138.329897L463.740383,138.414841L467.780008,139.185423L473.676931,138.558439L474.739420,138.619114L475.745918,138.956876L477.016862,139.842759L477.763871,140.912732L478.281660,141.954427L479.092789,145.104014L479.329663,147.596417L479.798568,149.109767L480.596739,151.070362L483.280961,156.305342L483.663430,157.333429L483.610056,157.790818L483.467061,158.209761L483.319187,158.572040L482.771574,159.304707L480.574368,161.304458L480.397794,161.855021L480.434778,162.808411L480.842666,163.389367L481.285335,163.816488L483.722487,165.130281L484.912168,166.027096L486.430721,167.401727L488.545455,169.721946L489.210448,170.874027L489.365373,171.635357L488.981308,172.153721L497.217690,174.614055L498.331091,174.543178L506.610846,167.764122L509.325476,166.618240L511.525916,166.476526L517.403585,168.760227L519.548097,168.782498L523.908562,167.703385L524.684279,167.907867L530.891400,171.200019L532.031853,171.404526L532.944101,171.157499L533.587412,170.432626L535.070486,165.427867L535.639220,164.257787L536.478243,163.363052L543.555090,161.638438L544.338650,161.895504L544.952236,162.508828L546.717513,167.262034L547.907720,169.191478L548.540315,169.873799L549.180109,170.311141L549.804691,170.467048L550.604050,170.139038L559.214918,162.729467L560.530836,162.174838L566.594309,162.087799L570.716737,163.071560L571.565765,163.557381L572.056320,164.253738L572.294718,165.241623L572.666647,168.982938L573.075820,170.165360L573.822674,171.153449L575.032908,171.849991L583.521236,173.210728L584.449710,173.757470L585.697128,175.616474L587.298988,177.360159L589.141903,178.650271L590.856120,179.359149L592.151166,179.602197L592.746059,179.993104L595.262584,182.369038L595.985724,182.762008L597.694769,183.088137L603.695861,187.058698L605.694501,185.762128L607.886524,185.016626L620.810256,184.021979L622.729381,183.167138L623.533006,182.502728L624.180174,181.666162L624.631932,180.651378L625.100012,178.338371L625.637555,177.530281L626.416404,176.949037L640.942021,171.112953L641.711574,170.228127L641.916822,169.084170L641.907569,166.579775L642.104719,165.488599L642.460552,164.593826L642.993443,163.956165L643.722342,163.642400L659.501894,167.683983Z " data-name="cz-kr" data-realname="Královéhradecký"/><path d="M869.858191,183.046986L867.387460,182.553162L868.451985,186.726689L869.246323,186.993511L870.375802,186.698101L871.627992,186.726689L872.779366,188.003644L873.219335,189.842942L872.562713,190.653032L867.935705,191.808099L862.108571,191.951065L859.514796,192.513402L855.534307,195.639820L850.364387,196.955305L844.973549,196.040178L834.777353,188.375306L832.954299,186.526575L831.593324,184.325407L830.556016,182.048187L829.361664,180.009325L827.596493,178.437404L826.117297,177.322823L825.561642,176.265439L825.928478,175.255722L827.189496,174.312717L827.236511,174.179365L827.252494,174.036489L827.205477,173.865038L827.127429,173.684064L825.046584,173.331643L820.932223,171.731518L818.980422,171.312452L817.460022,171.607703L816.283607,172.188688L814.830848,172.407750L812.476889,171.569606L804.692193,164.284496L804.259659,162.941953L805.145052,161.085349L806.674441,160.428425L813.675148,160.209454L817.432457,158.971822L823.328514,155.954129L826.069407,153.879055L827.160470,151.090315L824.552380,147.683281L822.896520,146.446190L822.381599,144.590653L822.499778,142.906501L823.734956,139.462383L824.007735,138.882061L824.057971,138.330291L823.933593,137.835609L823.531341,137.417039L820.565591,134.487217L819.692877,133.868949L817.155556,133.127044L816.258382,133.621645L816.007604,134.877209L815.345650,136.380152L811.513712,141.222447L809.183128,142.877957L805.887566,143.591568L792.705740,141.726701L785.829005,142.240479L781.972702,146.446190L781.261231,146.855376L780.507753,146.988600L779.712296,146.845860L778.936855,146.446190L777.249921,143.020678L773.875994,140.937024L777.229970,151.812955L777.169716,152.670906L776.853625,153.626014L776.323346,154.581154L775.607763,155.439188L774.748574,156.102968L773.774714,156.475339L772.724735,156.459148L770.607475,155.425022L769.713086,155.331932L768.932958,155.592989L768.240225,156.129276L765.280493,160.126450L754.005204,165.474428L752.255158,167.294426L751.649553,168.414016L751.302448,169.695625L751.261366,172.502003L751.002028,173.500297L749.711650,175.456490L749.441978,176.114659L749.422656,176.949037L751.596995,182.389294L751.732242,183.268421L751.632254,184.096931L751.231559,184.893053L743.506558,194.814859L743.031879,195.749086L742.748973,196.748196L742.686984,197.781794L742.855280,198.813402L743.263812,199.812617L743.941742,200.749033L748.330333,204.008482L748.719415,204.531487L748.836378,205.088964L748.636054,205.711323L744.874222,210.185806L744.528344,211.100248L744.348252,212.142464L744.297261,218.858930L744.502569,219.676283L744.924648,220.380076L745.630233,220.964217L747.593613,221.668040L753.964222,222.349567L754.631727,222.698450L755.018264,223.193384L755.599496,225.067713L755.969634,225.660057L756.612590,226.155039L769.586332,231.350791L770.614594,231.377168L774.542347,229.536947L775.555270,229.403043L776.611510,229.723601L788.780071,239.656452L791.013019,240.541327L798.442532,240.874177L801.627793,238.714777L802.384885,238.418480L803.235648,238.463128L808.854921,241.412019L812.610597,241.651515L817.762882,240.214570L822.132929,241.866656L825.750402,244.253603L826.482602,245.091918L826.797951,245.897777L826.560067,251.994123L826.811933,253.206219L827.341555,254.205165L828.217726,254.905664L829.246464,255.159472L830.186450,254.992974L832.718957,253.579805L833.537073,253.348343L834.379919,253.504681L835.269884,254.213287L840.482643,261.913493L841.532922,262.750225L846.306343,264.515147L850.479673,267.299808L852.208980,268.943087L852.847411,269.930311L853.698047,271.977977L854.198263,274.318314L858.447826,275.195981L860.430306,276.398746L862.822679,278.479300L869.272749,278.566670L869.884938,278.851131L870.444696,279.355039L870.928874,280.137330L871.759101,282.425375L872.423801,283.345918L873.298994,284.020591L874.366604,284.461574L875.617581,284.674955L898.229301,282.817568L899.646354,283.280890L904.303979,285.857717L905.322974,286.158494L916.412545,286.012170L919.002795,286.802736L919.801509,287.471376L923.380588,292.849402L924.454500,293.764111L927.097448,295.077266L928.089155,295.939176L928.828955,296.982033L929.383277,298.163159L931.072024,303.455305L931.709920,304.571569L932.494547,305.352363L933.354819,305.858667L934.219029,306.145373L935.837453,306.177144L935.707083,303.932680L940.049520,304.726489L943.153023,302.947615L948.752435,296.655280L953.345042,294.523011L954.452407,293.509509L955.029747,291.884140L955.046656,288.442421L955.649317,286.922431L958.498147,285.354710L965.042575,286.129003L969.028898,284.312787L970.023695,284.140729L971.053306,284.312787L976.043921,286.301070L980.382993,287.371729L984.458166,287.180538L989.992840,282.630479L992.639333,281.770239L998.607659,281.636425L998.911024,278.549301L998.096597,274.726610L995.189624,266.843633L994.368958,265.171719L992.316807,261.942767L991.455278,260.166020L989.821290,253.804891L989.069571,252.362823L986.744344,251.025862L984.499245,251.350547L982.303999,252.162275L980.191058,252.305523L978.257302,251.398295L975.106215,248.619469L973.074380,247.339952L970.939729,246.824340L966.410860,246.499699L964.350826,245.382579L963.289446,243.998166L961.278063,238.623393L957.247551,232.820040L954.141856,227.208607L953.575707,222.256503L957.195178,218.449940L953.147392,216.742389L952.283109,214.481702L952.354609,211.648929L951.107642,208.301455L948.844014,207.233394L943.411650,210.237413L940.022860,210.246949L928.693279,205.354846L922.893252,203.714791L917.079018,204.305963L917.395324,204.305963L917.662011,204.410850L917.879081,204.620624L918.076657,204.935289L914.288888,207.843710L912.214579,208.187018L909.126798,206.251194L908.187276,205.002036L906.889286,202.141568L906.169729,201.130937L904.331921,200.082206L900.854705,199.500653L899.074512,198.871445L894.156211,195.639820L891.842086,194.638948L882.392695,193.199660L880.316003,191.407800L880.922984,188.003644L871.963937,183.467855L869.858191,183.046986Z " data-name="cz-mo" data-realname="Moravskoslezský"/></g></svg>