<?xml version="1.0" encoding="utf-8"?><!DOCTYPE svg  PUBLIC '-//W3C//DTD SVG 1.1//EN'  'http://www.w3.org/Graphics/SVG/1.1/DTD/svg11.dtd'><svg enable_background="new 0 0 1000 706" height="706px" pretty_print="False" style="stroke-linejoin: round; stroke:#000; fill: none;" version="1.1" viewBox="0 0 1000 706" width="1000px" xmlns="http://www.w3.org/2000/svg" xmlns:xlink="http://www.w3.org/1999/xlink"><defs><style type="text/css"><![CDATA[path { fill-rule: evenodd; }]]></style></defs><metadata><views><view h="706.417221826" padding="0" w="1000"><proj flip="auto" id="robinson" lon0="-4.54242858097"/><bbox h="129.84" w="184.07" x="-124.94" y="-733.76"/></view></views></metadata><g class="" id="states"><path d="M210.084706,669.063466L209.935785,669.178607L210.055124,669.461916L210.084706,669.063466Z M203.065388,655.322849L203.018780,655.544367L203.230363,655.425773L203.065388,655.322849Z M203.284149,647.439704L203.090475,647.595213L203.196280,647.543933L203.284149,647.439704Z M191.797142,635.978251L191.707772,636.235865L191.938783,636.184027L191.797142,635.978251Z M165.266368,600.970586L165.517899,601.619220L165.505677,601.385796L165.266368,600.970586Z M164.758486,600.254104L164.897369,600.563259L165.204456,600.795010L164.758486,600.254104Z M164.085339,599.662404L164.676084,600.228333L164.615431,600.099666L164.085339,599.662404Z M158.825503,596.495087L162.171327,598.610285L163.470784,599.430565L158.825503,596.495087Z M155.489755,591.490259L156.046909,594.333087L158.289576,595.515430L157.238723,592.580209L155.489755,591.490259Z M141.398150,589.864193L140.807100,590.028326L140.775455,590.573463L141.398150,589.864193Z M152.988625,589.826751L152.569980,589.981153L152.710348,590.110068L152.988625,589.826751Z M154.622463,588.676453L155.018683,591.989352L155.113988,589.852516L154.622463,588.676453Z M162.472394,586.480308L161.427222,588.282124L162.325018,587.381066L162.472394,586.480308Z M556.299350,576.932345L548.322819,570.649535L545.119791,570.247464L542.929309,571.497969L540.219874,569.520399L538.781521,566.583071L532.155895,557.163461L528.605768,550.931453L528.226305,544.992628L529.117106,544.228530L528.175687,539.889779L529.761869,532.629607L530.587563,531.994256L528.570981,530.118850L521.545546,530.395442L520.085249,528.863148L516.046681,529.372388L513.399879,526.795478L508.258074,522.777443L504.843240,517.795206L503.466551,516.684845L502.245708,517.014130L497.358238,515.973559L496.715918,515.084060L488.121766,511.713858L490.745876,507.406312L491.822262,506.924393L495.689346,501.473092L495.250298,498.939642L496.230407,497.634684L496.573017,493.970592L495.879691,492.536325L493.240965,491.866688L492.493290,484.829017L493.317634,482.822151L486.622279,480.902215L486.283872,475.139752L487.057993,473.853973L485.131292,471.980857L483.200570,471.819977L479.148301,473.287310L476.930318,472.875770L471.637954,470.376494L471.884161,471.110773L463.528979,477.335965L461.733439,475.746560L457.422534,475.604315L455.167512,477.568750L454.245426,480.816276L449.865477,474.978825L443.484577,478.495520L441.249112,477.586983L433.800145,476.621800L431.937860,474.884370L426.728590,475.256581L426.655581,478.340255L420.806426,482.166507L419.353274,482.373505L414.839962,480.795367L411.174106,477.445082L410.909745,481.669341L408.310487,482.739238L402.452701,480.998288L400.174009,479.940710L399.439888,480.896965L397.568962,479.941539L392.691737,481.006485L392.487806,482.215423L390.412033,484.641510L389.303646,484.310914L379.463941,485.126364L377.832599,484.461561L374.135566,484.284931L365.905402,483.122394L360.918241,482.017825L359.157276,484.259317L359.842712,487.052799L356.645855,486.105715L345.512551,481.221476L341.779443,476.285175L341.141302,476.406529L336.397585,473.646120L334.718371,473.464596L330.430150,468.580901L321.539476,464.047918L320.485741,464.260274L316.706037,462.570743L315.655288,461.028780L315.618788,456.336489L310.600651,456.297157L305.527151,455.035307L303.483824,452.253602L302.431552,451.912352L302.204372,452.142637L298.380423,453.875140L297.081300,453.112154L292.163248,452.775099L293.314896,456.668888L289.971723,458.629781L285.559833,461.842121L279.084467,465.112409L273.107272,472.573868L271.316560,473.048632L269.312056,476.348154L267.219116,476.296961L263.463404,478.910675L261.652692,483.490362L262.962310,485.637131L262.248092,488.674637L265.829699,494.709781L266.091737,499.958277L264.351048,502.021712L264.912070,503.514246L261.178775,506.926885L257.555939,506.334502L254.800064,509.690784L251.689359,511.603519L249.955950,510.020557L253.000808,505.206200L252.204627,503.939937L253.518614,502.296769L250.342149,501.069346L246.571189,501.927506L243.446252,503.405173L242.352471,502.984112L236.528360,508.229333L235.344502,510.850194L236.890832,512.785430L234.689728,515.513887L233.328960,519.518869L227.524393,519.304544L221.898663,520.695865L216.271716,524.537976L215.258277,523.271799L212.343141,522.974814L208.871386,521.534598L203.058875,517.550330L202.520153,514.571037L199.053397,513.680145L196.166728,513.920709L196.801657,514.693311L193.124809,518.214949L193.057736,517.579611L186.293159,515.925624L183.193712,510.011233L172.524903,509.886228L172.575431,508.750069L169.689613,508.816997L169.151857,507.995603L170.841504,504.358074L170.838270,502.605326L168.788842,503.041323L160.705083,499.858735L160.705962,499.859381L157.793163,503.734150L158.669913,504.678030L157.548155,508.886603L156.099207,510.178338L154.988744,517.021519L151.774743,517.797145L147.829104,515.045918L145.891978,516.192917L144.814337,519.182602L141.995257,519.476558L139.827381,518.921907L136.700817,519.847384L135.760614,525.115283L133.709495,528.930165L133.801318,530.579223L130.542814,535.922948L128.718549,537.043121L124.661629,540.906688L123.967963,540.627712L122.343705,543.269726L120.446666,548.857604L121.049266,550.038683L119.327456,551.452677L115.114029,559.835619L117.160225,563.454402L117.159808,564.659300L119.425371,569.515768L118.988592,573.562940L120.603413,575.434074L120.276577,582.819593L121.720116,586.295804L120.824867,587.918287L121.719903,589.499693L122.575138,594.672326L124.837463,595.748270L129.434877,593.765655L148.309926,592.658805L142.592801,592.040698L146.895755,591.753661L157.021668,596.083070L154.961434,592.606995L153.034214,591.320188L155.463685,589.105911L156.036846,587.134374L157.193726,591.706300L158.033358,591.474410L162.673146,586.789269L162.210483,587.793364L161.189699,597.009904L162.440044,597.885403L184.658230,610.709687L190.162901,615.371429L194.491395,621.373053L196.857553,627.472437L199.481829,630.542886L200.652239,630.512469L197.447237,633.793453L194.032355,635.978251L194.305691,637.744916L197.146829,643.242125L197.518516,645.354372L200.088310,647.260734L204.207178,647.079817L209.344685,650.248666L210.074812,653.184974L209.604784,655.554474L213.735872,655.966539L210.810039,660.705981L207.750269,660.989142L206.810179,658.973703L207.194423,657.587242L205.276830,654.601544L204.921304,655.554474L209.050379,663.718802L211.051828,668.843752L212.802503,670.131525L216.633412,676.903405L219.459246,678.860266L221.770965,684.395369L223.527442,687.510309L233.077574,687.432747L235.547041,689.569210L240.189362,696.158055L243.637699,696.569754L247.947924,698.962943L249.245029,697.984996L254.582883,701.458562L255.967600,703.542458L258.264930,702.847998L264.827192,699.348666L266.098322,699.709280L269.432998,697.290399L268.131456,695.205587L268.797607,693.198459L267.954096,690.161403L270.599714,687.561832L276.019030,690.049841L276.849823,685.888235L278.148115,682.464816L279.422307,681.486574L280.733621,678.474036L279.902893,676.980525L282.292390,675.641948L285.070984,670.157296L288.172954,666.397080L298.221175,662.456854L301.748129,661.710299L303.784190,660.087639L307.604220,658.078575L312.718870,657.357291L318.902252,658.980101L324.925107,658.976299L326.451762,657.692296L329.320472,657.460677L332.145479,652.154502L333.225396,651.304562L339.130759,649.346878L340.426748,646.693872L347.780380,637.472001L353.051124,638.450988L369.218909,637.214573L372.070764,635.024766L381.066671,637.034114L390.896971,634.638625L395.484513,636.802466L395.848615,636.132467L402.128584,636.750906L403.001458,635.488712L407.847717,635.488712L411.595712,638.116035L412.419963,637.369160L417.526708,640.022259L420.850193,639.919326L425.446044,638.219154L427.520498,635.926599L433.175046,634.690184L442.106765,635.462932L453.325338,635.385777L455.200983,635.797885L459.033705,634.844956L460.630622,635.978251L464.121505,639.893546L465.424045,639.172174L470.021678,641.207480L474.642961,640.846471L480.729977,637.884201L482.671713,633.479366L484.982607,629.718587L486.621668,628.611181L493.732850,627.349012L496.076212,629.229147L500.233872,626.524354L505.194406,627.632213L514.199663,637.755487L518.910038,636.467513L518.917961,635.411557L523.283678,632.578000L523.471117,629.769961L528.533531,625.623105L528.854737,621.552851L530.673941,621.115456L533.246381,617.380089L534.747030,617.689695L536.133252,616.401855L535.719347,612.821613L537.407197,610.066053L541.597440,597.833864L541.627427,596.443272L543.689908,590.264471L544.609121,589.955388L549.732268,583.983233L553.349074,578.578741L556.275434,576.931326L556.299350,576.932345Z " data-name="es-an" data-realname="Andalucía"/><path d="M543.197003,156.898097L543.204250,157.383557L542.886277,157.775065L543.411732,158.723196L541.855039,159.583156L542.480339,160.572504L542.606094,161.212796L542.383558,165.598670L543.724441,167.410150L545.044373,170.803282L544.647365,173.602585L543.300344,174.748699L543.591671,176.419573L546.272182,179.596176L545.782005,180.884335L548.256850,181.935278L545.535548,185.328656L545.440321,187.621306L542.073158,187.535499L537.317951,193.133373L534.758476,192.556506L532.161966,192.973892L532.117168,195.015802L533.931868,197.347894L532.969282,203.052652L533.783470,203.494528L536.085211,210.065987L535.047782,209.971104L530.791521,211.979050L528.306768,210.974755L528.915374,208.335071L524.087305,206.658339L522.949033,208.507855L522.813607,211.061127L520.459317,214.638628L518.648443,220.661577L519.391507,221.096232L520.404192,226.819998L520.578320,229.880838L525.632570,231.773037L527.507052,233.221643L527.811725,232.705195L532.592400,231.601033L535.131667,231.441846L537.070892,234.339376L539.358459,234.425539L541.903468,237.167242L543.408456,237.464918L548.101419,240.369697L549.850460,243.280357L556.158076,248.234078L559.346342,251.319339L560.039671,252.756846L559.095091,257.052639L562.737544,261.464564L564.802373,263.149669L564.796918,266.196764L563.307644,269.537860L564.957803,276.844411L563.022689,280.726283L563.682353,283.302234L560.488051,285.447557L557.877678,283.857745L555.500686,283.656111L553.779066,285.049845L552.855734,287.584697L553.515154,292.194492L549.355676,294.342007L546.600307,298.805542L545.477022,298.713025L550.304052,304.765862L551.359758,305.301738L550.842049,310.037621L552.815709,308.344249L555.379900,309.470652L555.846973,310.564505L559.921050,314.112869L564.572294,318.812269L566.768105,317.648719L569.457087,319.331358L572.068512,318.252677L571.813403,321.805492L571.326345,322.910790L572.472985,323.439437L577.575017,324.053637L581.072413,321.217852L580.685765,320.540037L582.610028,318.053093L584.086473,321.388602L586.317067,324.550094L588.192967,325.608362L596.243711,327.649843L599.171580,330.567762L594.408897,334.667875L592.751538,334.903361L592.259800,335.119337L592.379708,336.019929L593.571324,337.062879L593.931273,338.577622L594.331573,338.557006L597.651509,338.943484L600.299530,337.807543L602.609478,338.327066L605.125638,337.674460L608.582709,339.392118L610.367913,339.250317L611.306981,342.547195L610.921042,347.580685L612.692168,349.414226L615.073837,349.107042L618.927734,345.792073L616.837247,344.082113L616.343999,341.292484L621.726794,335.125573L623.193905,332.609277L627.981925,332.035900L632.114879,329.148745L632.011309,326.811291L636.327820,322.003039L637.188275,317.073110L638.298062,313.330787L641.446776,314.993575L644.239628,314.932786L649.811119,312.435199L649.599391,308.757629L653.329399,306.369491L654.961017,304.065697L657.673956,303.126334L657.465149,301.218825L652.881817,296.043457L658.393238,293.374195L657.882372,292.497159L656.895743,281.057449L650.673768,280.355005L652.262582,275.089522L654.776410,275.087285L655.889093,276.718362L657.959433,274.871054L661.132824,273.889152L662.020677,268.249211L667.887368,265.452654L668.726145,267.909092L676.278704,271.070580L677.240981,270.302434L679.709038,270.550095L683.911237,271.813046L686.848298,270.665477L690.969773,270.455287L691.143749,270.155845L690.905378,269.563974L695.469603,266.723452L695.775552,265.313673L699.065436,262.271868L697.717078,260.654313L696.165997,256.566825L697.257535,253.467182L698.761413,251.952636L699.428824,248.729341L698.907300,244.686762L695.492634,242.757643L694.754732,238.913122L693.364497,238.755839L694.298649,234.070742L695.993335,234.681989L697.171724,232.926703L698.645831,233.046582L702.272164,226.247038L705.346078,226.030599L706.918918,221.481317L705.442706,219.248455L706.030314,215.124138L705.014605,213.338707L702.975830,211.946913L704.662911,206.127325L703.634980,203.542247L706.765024,203.102320L708.357763,201.836048L711.378602,198.103486L710.344922,195.730180L710.014482,192.773747L704.222201,193.032014L704.161614,189.722710L702.474387,186.372518L707.528388,180.771238L708.545787,178.880264L713.006659,178.320911L713.995500,175.150252L718.331217,173.477270L719.063184,170.914509L723.145746,168.360017L722.012180,167.815685L719.776190,163.549425L727.190769,156.319844L727.539359,152.203249L729.777707,148.160153L730.064947,143.623432L729.688594,142.362346L733.034765,131.031215L734.475997,129.153280L732.697035,127.885057L734.576412,126.432498L731.438629,125.350852L733.102021,123.663806L731.637078,119.950124L730.187380,117.978162L730.071202,114.008663L733.131612,108.535700L734.129684,105.142934L729.644788,101.825278L728.700654,99.058605L726.728118,96.705615L726.086039,96.581651L722.126137,95.427909L720.374247,96.322023L716.905587,95.723245L716.447017,96.574261L708.515139,96.346041L704.332568,94.293228L702.284234,95.364391L700.283372,98.120476L698.119342,95.942661L693.627634,93.281757L691.345323,92.972026L686.364761,95.030879L685.102266,94.431168L678.599141,97.214677L674.049155,96.378330L672.150387,94.035826L670.810040,94.078755L666.753095,87.419795L664.709276,88.248174L658.396641,83.888992L654.063824,83.826734L650.614184,86.363670L646.474714,87.373095L641.676734,84.725349L638.340886,89.081067L637.350911,87.154990L634.747969,86.897839L634.656612,84.357159L629.944869,80.388634L626.224941,79.568848L625.101304,78.500630L625.474972,76.673671L625.509309,76.630946L623.619687,76.170114L618.827915,78.265188L619.222008,79.360829L616.057394,82.993834L615.781870,86.916219L616.714332,88.355033L614.824018,90.724506L613.665400,90.404078L607.804270,95.587322L602.691699,96.649044L602.716215,100.459452L594.406198,100.526856L593.963757,104.752148L590.579593,107.301635L590.679465,109.143827L586.155405,108.515277L584.430572,111.509525L584.271650,117.270133L582.413000,117.988203L580.476783,120.214913L579.313282,124.578104L581.347883,126.254759L579.158563,128.181701L576.269892,132.110430L576.857749,133.028832L574.888436,138.012973L576.663712,141.753766L576.112940,146.462025L582.549199,151.219590L582.956376,153.812151L581.236009,155.133396L577.229499,162.609577L574.313590,165.284058L568.456680,164.293970L566.868477,165.565264L564.301521,165.216365L561.531741,164.045223L560.607985,162.472807L557.313422,160.665083L554.953322,161.714152L552.831388,161.406092L545.889121,157.779127L543.693519,157.235806L543.197003,156.898097Z " data-name="es-ar" data-realname="Aragón"/><path d="M439.547851,51.956633L442.124072,46.719719L440.858756,46.081585L438.025443,47.342398L438.523525,51.374408L439.547851,51.956633Z M407.622435,27.790298L407.441633,27.741638L407.353428,28.155950L407.622435,27.790298Z M350.493655,34.987617L350.592994,36.096746L348.835711,37.174790L348.424877,39.316329L349.610424,39.831606L349.849157,43.701196L347.318241,45.642520L347.481327,44.529672L343.375674,43.596485L341.555476,46.019301L338.221527,45.983459L334.883722,46.847452L333.101457,53.357968L330.779793,52.659932L326.459656,53.641490L326.164114,53.651330L325.549340,53.978696L326.604660,60.515144L330.893081,62.586435L331.367936,64.647812L332.978687,67.062251L340.615309,68.071382L342.986854,66.393350L346.426272,67.821601L349.212804,65.372840L354.578142,64.391991L358.547679,67.134933L361.722729,71.984257L369.623026,73.547143L369.540731,75.425431L370.867407,82.677722L373.632759,81.958548L377.646138,82.139505L373.768900,84.811528L375.795233,88.059964L377.791678,87.594984L380.751020,90.508746L383.539223,88.105257L385.994908,84.448173L387.023012,88.331374L386.723969,89.847845L388.221114,90.806483L390.432233,89.977755L393.194462,89.899738L394.457182,86.720280L397.363430,88.213171L400.191633,83.960219L398.958285,82.531494L398.780721,80.192038L396.512643,79.559441L396.433097,82.133614L394.197149,81.848902L394.879192,78.094893L396.493562,78.407614L399.358795,75.892229L396.693079,73.506619L395.204510,74.039406L393.699122,76.153499L391.355554,77.429022L387.847888,76.055127L389.924139,70.199773L393.719192,68.121479L394.952817,66.345101L399.441128,63.926753L398.414859,63.296397L400.272160,62.414812L404.141456,62.478874L405.588741,60.548623L407.705860,60.014098L410.331440,57.561851L412.784952,53.627081L421.483773,56.977454L429.392283,57.904884L429.703926,57.810163L429.385128,56.118401L428.606821,54.504982L427.920036,50.101126L431.762634,47.336951L432.015672,46.319479L435.598947,44.737166L436.144845,43.010909L443.950487,42.390640L444.418878,44.332896L446.265321,43.312042L448.879197,43.059575L449.245403,38.496689L449.215191,38.498885L444.254027,34.695119L433.674521,33.271373L429.110430,33.304223L427.828089,31.474515L426.420752,35.988178L425.191539,32.181767L422.686588,32.255198L423.350264,31.206003L424.993673,31.937935L426.824610,29.888568L429.579598,30.547416L428.922784,28.741715L424.268295,28.229467L423.173874,26.082286L421.181849,26.912049L420.592631,24.764877L413.609539,25.935956L410.630110,27.790298L409.789197,27.399877L406.096879,30.693749L403.148536,31.840438L401.268001,34.206920L404.730107,28.107553L403.287984,26.375123L401.537385,26.082286L391.891259,28.131971L390.389815,30.669331L386.725596,30.132660L381.740600,31.084088L380.917244,31.889274L371.628263,34.939219L371.415097,34.499769L363.210009,34.792618L363.068696,33.816749L360.009421,35.256137L356.346256,34.670700L350.523318,34.987617L350.493655,34.987617Z M378.988674,84.678303L380.323513,85.493404L380.252420,87.129310L378.988674,84.678303Z M374.889521,85.277512L374.035884,86.097908L373.483043,85.330452L374.889521,85.277512Z " data-name="es-cb" data-realname="Cantabria"/><path d="M472.052130,87.810191L469.705793,91.910033L470.175291,93.385207L475.302054,96.007764L476.476550,98.904975L479.494891,99.110343L481.501341,98.128307L486.393107,100.384215L489.825015,100.176459L491.272138,100.793134L494.752352,99.939843L494.445368,97.319376L492.505568,98.659310L491.100785,98.510522L489.187767,96.790781L491.435516,91.776155L487.088306,89.709317L484.952981,89.564016L480.204826,88.111502L472.052130,87.810191Z M380.252420,87.129310L380.323513,85.493404L378.988674,84.678303L380.252420,87.129310Z M326.164114,53.651330L326.314817,52.862357L323.891366,49.356832L321.072409,48.722362L314.848865,53.246035L309.072083,53.585260L305.647636,60.691416L303.692738,59.420268L299.124814,61.903287L293.829114,62.732662L289.864281,62.335108L289.300136,61.259605L286.496180,61.870421L285.876067,65.201205L281.684698,64.667586L280.318480,65.093285L278.287096,67.660765L277.411213,67.019977L274.880840,67.924168L263.268697,64.983081L262.110574,65.470829L258.330150,70.760018L258.675992,71.838432L252.693884,72.676998L249.554624,70.056945L248.130180,70.411249L242.305486,63.576642L236.614000,63.761540L235.576016,62.882844L231.445687,67.692142L227.918325,65.182574L225.885502,65.436379L224.847091,68.753673L222.464498,68.174301L220.664981,66.340531L219.913418,67.172198L217.642920,66.783563L215.343091,64.301122L210.348784,70.626241L209.482420,70.149498L206.683579,72.119270L209.657499,72.687019L209.031321,74.168186L204.962290,76.436836L203.954391,75.800891L196.927207,76.911299L196.482148,76.168532L188.463206,76.789803L186.461515,78.841665L181.957825,77.332404L181.054868,77.003256L179.317494,77.067520L181.607746,80.892439L177.504487,80.627083L179.072017,84.181815L178.559292,86.185850L174.778243,90.675514L172.432434,92.321084L170.730554,91.074845L168.855855,94.270972L168.407656,93.575130L164.932065,95.898672L166.155527,100.735584L163.659967,104.897548L164.789559,106.110250L161.964093,110.178602L164.936643,113.706191L168.548292,114.112394L172.570581,111.806766L178.624489,114.493861L180.939646,116.208537L179.889686,117.572488L180.378606,119.952766L178.209477,121.810694L178.907055,122.726300L183.205173,124.191127L186.090709,125.928191L185.510667,128.630026L181.463820,135.840278L181.260392,137.510312L174.324353,139.791299L172.388469,140.887474L169.170044,146.178068L166.701634,146.896619L166.521334,148.822237L164.600379,150.431604L167.614528,152.735584L167.693024,154.152780L166.258653,159.138683L166.738839,159.994786L166.776270,159.958746L168.607251,160.349275L169.528495,162.494365L177.863743,162.597384L179.446028,159.281510L182.527463,159.222241L183.470700,161.993153L187.404908,163.496763L193.488132,162.812437L195.608127,160.880720L198.627866,162.847426L196.716279,167.899747L200.624432,168.653584L199.461549,173.285896L197.642610,178.035229L197.498804,182.308863L198.036194,185.561502L201.560593,187.890688L205.451616,185.479518L212.062489,186.220315L214.847544,187.223445L218.939782,189.731390L220.707993,192.411386L222.584481,193.064796L223.053434,195.802321L219.597195,200.464696L218.838167,200.547778L215.116610,206.312489L214.913406,208.800628L213.008906,210.258332L213.899869,211.974079L211.548470,212.656190L208.498206,212.602120L204.144938,219.707030L202.713524,219.491468L201.848404,221.909348L194.531594,225.047088L193.447452,223.597238L187.545791,226.472287L185.550678,229.945247L181.290522,233.861396L181.169933,237.098412L176.987464,243.051075L171.879309,243.820662L167.950099,243.682441L167.986817,245.006204L170.726545,247.905139L173.512533,251.978865L175.761025,264.414785L176.671557,277.169569L176.058031,279.254189L173.612690,282.700893L173.052041,285.100577L175.958081,286.092445L174.898455,291.828940L172.570551,294.981580L173.354210,299.137985L177.262802,303.245342L176.341302,303.903344L176.185691,306.439368L171.053304,310.857168L170.864645,311.586187L170.840840,311.639382L175.070739,314.245056L176.949734,313.563708L178.843058,314.479003L179.935697,312.925559L182.174923,311.957750L183.695203,314.142404L187.473501,311.778267L189.326209,312.035702L193.724169,309.811403L193.506648,306.368501L195.335854,304.732237L204.967968,299.811997L208.375748,299.354383L211.400136,295.460068L213.468091,295.324418L215.703022,293.627824L220.417073,292.549565L224.322658,296.747223L226.320781,296.157843L225.582121,298.124092L229.556869,299.685508L229.533634,301.588059L227.837986,303.900377L233.782261,305.357666L233.478109,306.944898L239.432204,310.685367L245.466401,305.890355L246.241105,306.458703L247.917924,305.006012L250.217110,304.619134L251.022773,307.861002L249.456236,309.194610L250.141365,310.177909L254.267864,309.510422L258.301499,310.428978L260.205319,311.660534L259.938310,312.818428L262.710152,313.852464L269.336197,318.460918L273.806545,317.277887L276.163541,314.956201L276.937696,313.278478L283.368243,312.216724L281.508912,318.341974L281.399472,321.550342L283.542514,324.815658L283.603472,325.575252L285.076380,326.367518L288.685196,326.002093L292.692884,326.376180L293.446548,328.550257L299.211172,326.632984L300.989414,324.565879L307.180750,321.675482L307.978579,324.185775L309.772061,325.611790L311.845382,325.095938L314.609270,322.014309L314.147207,320.690215L321.924935,315.873508L322.923843,314.803284L322.177508,313.051509L324.381737,311.495550L325.165268,312.076569L331.109820,310.583854L332.370659,317.355727L336.973491,317.965782L339.237945,316.513050L339.807503,316.417204L340.145669,316.209214L340.797759,316.360094L340.600523,312.832832L343.629963,309.633602L342.327904,305.440300L343.917679,304.942265L345.495149,307.622811L349.116582,307.189809L350.334105,304.458294L350.393590,301.798251L352.348308,299.043038L356.917268,298.785062L358.268630,297.714287L359.229881,294.953931L359.382593,288.133393L360.380875,285.743011L361.778627,285.235566L362.650135,281.675933L362.642535,279.312490L363.885306,281.551318L367.345060,281.606235L370.884556,278.167700L370.519372,276.062555L374.956237,269.312412L376.526494,268.066006L378.358206,264.707550L381.925030,265.828230L385.143068,265.244854L385.034917,264.167338L387.570604,258.369464L387.165407,255.804958L388.317124,252.797978L391.525390,249.248268L399.919329,246.284996L403.134651,241.502596L408.131492,238.120149L412.522554,233.023621L416.676226,231.656469L417.983099,231.606372L418.916832,231.504310L423.870096,229.290676L424.348940,228.319946L427.656398,227.442268L428.428478,223.643287L439.076676,223.358821L442.628905,219.226775L448.666523,220.412667L453.290495,221.964453L456.537922,220.570046L457.417043,220.989500L461.535732,220.257157L464.773179,217.147901L467.685509,218.441454L467.638556,221.871841L470.903011,223.458739L474.334234,224.039421L474.268585,223.384956L478.683514,221.765099L480.227587,224.438597L484.675673,225.653221L484.553314,226.375268L487.995110,226.310441L485.559961,229.561554L488.785487,230.336253L487.439585,232.804334L488.932365,233.878664L491.831475,231.826961L495.914307,236.183465L496.698121,238.297456L503.044311,239.694863L505.098290,238.598916L507.421709,241.266328L511.840723,240.283825L514.178789,237.658597L518.950345,237.801254L521.581688,235.780872L525.463722,239.403338L527.095657,240.091775L526.440219,237.767147L527.572633,234.774121L527.507052,233.221643L525.632570,231.773037L520.578320,229.880838L520.404192,226.819998L519.391507,221.096232L518.648443,220.661577L520.459317,214.638628L522.813607,211.061127L522.949033,208.507855L524.087305,206.658339L528.915374,208.335071L528.306768,210.974755L530.791521,211.979050L535.047782,209.971104L536.085211,210.065987L533.783470,203.494528L532.969282,203.052652L533.931868,197.347894L532.117168,195.015802L532.161966,192.973892L534.758476,192.556506L537.317951,193.133373L542.073158,187.535499L545.440321,187.621306L545.535548,185.328656L548.256850,181.935278L545.782005,180.884335L546.272182,179.596176L543.591671,176.419573L543.300344,174.748699L544.647365,173.602585L545.044373,170.803282L543.724441,167.410150L542.383558,165.598670L542.606094,161.212796L542.480339,160.572504L540.926956,161.806121L538.790570,162.411226L538.157129,163.589452L532.058590,163.725616L530.381065,162.163314L524.595586,161.555836L522.897792,158.019002L524.108879,157.359623L520.187244,151.712514L522.747184,149.026199L511.448055,148.035806L511.439278,145.978737L503.709499,145.027567L499.406857,145.932677L496.607232,148.216193L494.848395,147.413737L494.109674,149.591327L491.812595,153.056938L490.584595,156.373005L488.277896,157.433455L484.366236,157.270072L482.633356,157.776036L480.290234,156.267478L476.641442,155.492074L480.177119,149.986745L480.322642,148.275764L476.045518,146.583710L474.109813,148.004212L473.814003,151.994382L473.115833,153.518942L466.710577,156.103492L465.072912,155.587440L463.761479,150.462939L456.303406,150.015784L455.340067,147.856834L452.258470,144.489188L452.334582,143.540591L449.792975,140.550710L451.699943,137.550700L452.053992,132.243100L451.033478,127.736825L454.491892,126.193957L452.985192,123.612176L451.553362,123.610766L453.508478,120.937246L453.811634,123.589533L454.948972,124.957601L454.607678,120.130613L455.897374,118.347294L452.502572,114.263501L454.117218,111.080928L452.850484,110.147260L450.212006,110.601983L449.570002,109.814831L453.133021,106.279953L455.067582,105.665666L453.356516,101.133686L458.175064,101.882039L464.351443,101.677612L468.082464,102.889858L469.416212,101.787173L469.859275,101.351923L469.799385,101.298596L467.606319,100.382191L464.651358,95.191520L460.992596,95.578876L459.094614,92.954345L456.647045,92.528504L453.758446,89.998776L448.851470,90.927514L450.692862,88.057589L448.088349,86.715267L450.646545,79.089332L448.045348,82.165092L445.879212,81.010610L443.263214,84.470596L439.184363,80.479195L439.611373,78.187030L441.717486,77.258469L443.503955,73.957654L446.702463,74.411245L449.092287,75.452243L450.223711,77.205808L453.294281,78.414032L458.658739,77.397988L460.983824,74.437881L458.459763,73.488775L455.560234,69.226794L449.405325,68.934290L447.632053,68.194164L448.844229,67.164727L448.517178,63.030654L450.313636,60.990185L449.781137,59.811819L446.860536,58.912556L449.761075,54.748885L449.369099,54.245265L444.296786,54.134736L443.846062,54.585023L435.260469,54.874175L434.612358,55.971405L430.237536,57.712806L429.703926,57.810163L429.392283,57.904884L421.483773,56.977454L412.784952,53.627081L410.331440,57.561851L407.705860,60.014098L405.588741,60.548623L404.141456,62.478874L400.272160,62.414812L398.414859,63.296397L399.441128,63.926753L394.952817,66.345101L393.719192,68.121479L389.924139,70.199773L387.847888,76.055127L391.355554,77.429022L393.699122,76.153499L395.204510,74.039406L396.693079,73.506619L399.358795,75.892229L396.493562,78.407614L394.879192,78.094893L394.197149,81.848902L396.433097,82.133614L396.512643,79.559441L398.780721,80.192038L398.958285,82.531494L400.191633,83.960219L397.363430,88.213171L394.457182,86.720280L393.194462,89.899738L390.432233,89.977755L388.221114,90.806483L386.723969,89.847845L387.023012,88.331374L385.994908,84.448173L383.539223,88.105257L380.751020,90.508746L377.791678,87.594984L375.795233,88.059964L373.768900,84.811528L377.646138,82.139505L373.632759,81.958548L370.867407,82.677722L369.540731,75.425431L369.623026,73.547143L361.722729,71.984257L358.547679,67.134933L354.578142,64.391991L349.212804,65.372840L346.426272,67.821601L342.986854,66.393350L340.615309,68.071382L332.978687,67.062251L331.367936,64.647812L330.893081,62.586435L326.604660,60.515144L325.549340,53.978696L326.164114,53.651330Z M359.434984,277.369219L359.902799,276.054409L363.420135,275.287143L359.434984,277.369219Z " data-name="es-cl" data-realname="Castilla y León"/><path d="M430.208047,278.907350L428.887075,279.378225L429.694551,279.812949L430.208047,278.907350Z M417.983099,231.606372L418.214555,232.018814L418.725527,233.766694L420.882674,235.281353L421.688787,237.922808L426.258376,238.869304L425.288726,242.505388L428.232737,245.646375L425.334303,252.216979L424.935386,255.942865L422.194397,259.552477L422.194747,261.807682L420.202141,265.130991L424.533611,267.655444L424.118725,270.151999L425.173229,270.342771L423.004258,273.297769L426.098719,274.765000L426.497073,275.661546L428.426264,274.213275L430.306323,277.119702L433.217619,279.349477L432.654180,282.281304L436.187942,286.312801L435.048643,287.666205L438.543230,287.091546L442.135827,289.695890L442.190162,296.190615L445.341873,296.471113L446.356368,298.908749L446.539052,302.146220L443.579210,307.619483L443.338882,309.784589L443.846093,314.480624L444.812892,312.893150L448.596343,310.313251L450.774498,315.822618L449.297717,322.177058L451.140084,324.237638L452.536327,327.083185L449.887338,329.664596L447.714701,330.459136L442.351799,329.079415L441.068676,330.274486L436.163085,331.079585L432.227889,328.847147L428.549574,329.239743L428.556209,331.531848L427.223682,332.824624L423.804539,332.497090L422.753657,331.805409L418.269496,332.124233L417.743404,333.693865L412.719361,334.815798L412.340693,335.862304L409.095504,337.047421L409.296258,339.090614L407.296223,339.090614L404.616947,340.823983L403.624687,340.099368L400.272054,343.121350L395.872668,346.360118L394.435443,345.102055L391.827939,344.658139L392.070599,342.245887L394.252839,341.362324L394.277392,342.343697L398.009741,340.868126L399.680296,339.071623L400.365235,340.551077L401.071567,337.769028L405.520078,334.075227L409.321827,331.983243L410.406501,328.740359L411.347892,328.487975L411.602937,326.190216L407.916770,324.698480L407.175545,323.075187L405.376288,324.047684L401.375097,324.056703L399.405364,323.431591L397.363572,320.175244L393.459165,320.718159L388.825943,318.751711L386.113419,316.874376L382.722799,316.517374L380.933224,313.563348L378.872107,313.380846L376.762005,311.995916L376.203987,313.191056L367.736353,310.016924L367.648243,311.770706L364.544206,311.346681L361.521553,315.405335L359.990628,316.031226L357.425118,314.387062L356.279236,311.610039L356.390723,308.113235L354.674524,307.709973L353.236040,310.444186L350.480472,312.642789L350.313537,314.590037L340.073291,317.347078L340.271648,316.812397L339.807503,316.417204L339.237945,316.513050L336.973491,317.965782L332.370659,317.355727L331.109820,310.583854L325.165268,312.076569L324.381737,311.495550L322.177508,313.051509L322.923843,314.803284L321.924935,315.873508L314.147207,320.690215L314.609270,322.014309L311.845382,325.095938L309.772061,325.611790L307.978579,324.185775L307.180750,321.675482L300.989414,324.565879L299.211172,326.632984L293.446548,328.550257L292.692884,326.376180L288.685196,326.002093L285.076380,326.367518L283.603472,325.575252L283.400174,325.580755L281.126517,326.994748L280.685034,330.674132L281.231697,332.547854L279.813254,341.268511L278.812157,343.551212L280.664449,346.130503L284.519569,345.912396L286.972679,348.953682L284.753345,351.937792L284.905823,357.730539L287.997787,358.451762L292.596370,354.344278L295.125231,354.290967L296.053996,357.796489L294.900557,358.595654L297.501051,361.849534L296.042306,365.581480L292.497305,373.022170L295.511592,375.797390L298.173537,379.429855L301.077366,382.245341L304.011131,383.480932L306.622199,387.369006L316.671072,393.395190L319.599288,391.470962L324.681222,390.045156L330.509480,386.726597L329.804635,392.913286L328.277175,397.011865L324.754940,397.730671L326.668287,403.961316L328.150724,404.712858L328.487219,407.860044L332.807753,411.320636L325.909124,409.262886L323.588669,409.721356L320.882042,408.815228L317.573744,413.181317L315.935036,417.996161L317.086836,420.026349L316.816455,424.150238L315.228499,424.052809L311.260199,421.866175L309.310282,421.683547L311.308193,429.298937L312.425350,430.997111L314.261328,430.729790L317.346358,431.889034L318.103079,434.378329L317.705070,436.255946L312.546884,437.378141L309.564368,442.651145L306.694953,450.932394L303.043961,451.524362L302.431552,451.912352L303.483824,452.253602L305.527151,455.035307L310.600651,456.297157L315.618788,456.336489L315.655288,461.028780L316.706037,462.570743L320.485741,464.260274L321.539476,464.047918L330.430150,468.580901L334.718371,473.464596L336.397585,473.646120L341.141302,476.406529L341.779443,476.285175L345.512551,481.221476L356.645855,486.105715L359.842712,487.052799L359.157276,484.259317L360.918241,482.017825L365.905402,483.122394L374.135566,484.284931L377.832599,484.461561L379.463941,485.126364L389.303646,484.310914L390.412033,484.641510L392.487806,482.215423L392.691737,481.006485L397.568962,479.941539L399.439888,480.896965L400.174009,479.940710L402.452701,480.998288L408.310487,482.739238L410.909745,481.669341L411.174106,477.445082L414.839962,480.795367L419.353274,482.373505L420.806426,482.166507L426.655581,478.340255L426.728590,475.256581L431.937860,474.884370L433.800145,476.621800L441.249112,477.586983L443.484577,478.495520L449.865477,474.978825L454.245426,480.816276L455.167512,477.568750L457.422534,475.604315L461.733439,475.746560L463.528979,477.335965L471.884161,471.110773L471.637954,470.376494L476.930318,472.875770L479.148301,473.287310L483.200570,471.819977L485.131292,471.980857L487.057993,473.853973L486.283872,475.139752L486.622279,480.902215L493.317634,482.822151L492.493290,484.829017L493.240965,491.866688L495.879691,492.536325L496.573017,493.970592L496.230407,497.634684L495.250298,498.939642L495.689346,501.473092L491.822262,506.924393L490.745876,507.406312L488.121766,511.713858L496.715918,515.084060L497.358238,515.973559L502.245708,517.014130L503.466551,516.684845L503.262013,516.322409L504.375395,513.046387L509.514645,508.655355L513.696455,499.974883L520.661785,497.098885L522.905206,494.617564L524.435793,491.622463L525.545370,490.867509L527.629264,491.368287L529.176675,492.879317L539.014296,489.786556L540.103378,488.614541L542.521815,488.058668L546.329285,485.422519L546.560926,484.079374L548.401830,483.908646L552.985859,485.856630L552.522590,488.099406L553.848788,490.264336L559.024468,489.984100L568.187445,484.362419L568.069223,474.742136L566.773747,470.028099L569.170847,466.007940L570.235807,465.450984L570.613607,459.240324L572.526242,456.715849L576.682098,454.187426L578.441120,456.651702L582.641199,454.094814L585.439008,451.059235L590.323481,449.585013L595.079454,451.108649L595.377810,453.651980L601.479278,458.570494L602.051849,458.658460L602.888598,458.507622L606.797575,458.541815L610.289660,454.954081L606.915147,447.714097L608.976470,445.952516L608.859487,440.266585L609.702372,436.981408L605.791241,432.304325L604.153396,431.691432L601.396988,433.081067L593.177701,433.533817L592.128617,431.199921L587.272107,424.800406L585.380541,423.438409L584.521088,420.802595L585.137334,417.340497L586.272261,416.648475L587.294301,413.175738L589.723693,410.551167L591.092566,405.996627L591.235495,401.522428L591.853861,400.235318L590.996572,398.290197L588.627784,397.222745L587.311006,397.846753L581.223623,395.940951L578.068513,395.996240L573.494602,392.314144L570.861892,393.559541L568.322655,388.419128L567.246753,389.116655L565.321611,386.577986L567.244017,381.353028L566.892339,375.578244L570.571107,373.424651L573.354977,367.302545L577.037328,364.152638L582.707756,365.703373L584.944217,363.309089L583.965073,359.852174L587.050700,355.693515L589.615783,348.750959L589.772634,344.281597L588.980666,342.529098L589.359625,340.612315L593.072383,339.297794L593.931273,338.577622L593.571324,337.062879L592.379708,336.019929L592.259800,335.119337L591.685457,335.051200L590.288809,335.893394L586.115275,336.478209L583.283119,335.292757L576.587653,334.540648L573.936690,328.695947L574.356350,326.874278L571.758746,325.372443L570.700663,323.838164L571.326345,322.910790L571.813403,321.805492L572.068512,318.252677L569.457087,319.331358L566.768105,317.648719L564.572294,318.812269L559.921050,314.112869L555.846973,310.564505L555.379900,309.470652L552.815709,308.344249L550.842049,310.037621L551.359758,305.301738L550.304052,304.765862L545.477022,298.713025L546.600307,298.805542L549.355676,294.342007L553.515154,292.194492L552.855734,287.584697L553.779066,285.049845L555.500686,283.656111L557.877678,283.857745L560.488051,285.447557L563.682353,283.302234L563.022689,280.726283L564.957803,276.844411L563.307644,269.537860L564.796918,266.196764L564.802373,263.149669L562.737544,261.464564L559.095091,257.052639L560.039671,252.756846L559.346342,251.319339L556.158076,248.234078L549.850460,243.280357L548.101419,240.369697L543.408456,237.464918L541.903468,237.167242L539.358459,234.425539L537.070892,234.339376L535.131667,231.441846L532.592400,231.601033L527.811725,232.705195L527.507052,233.221643L527.572633,234.774121L526.440219,237.767147L527.095657,240.091775L525.463722,239.403338L521.581688,235.780872L518.950345,237.801254L514.178789,237.658597L511.840723,240.283825L507.421709,241.266328L505.098290,238.598916L503.044311,239.694863L496.698121,238.297456L495.914307,236.183465L491.831475,231.826961L488.932365,233.878664L487.439585,232.804334L488.785487,230.336253L485.559961,229.561554L487.995110,226.310441L484.553314,226.375268L484.675673,225.653221L480.227587,224.438597L478.683514,221.765099L474.268585,223.384956L474.334234,224.039421L470.903011,223.458739L467.638556,221.871841L467.685509,218.441454L464.773179,217.147901L461.535732,220.257157L457.417043,220.989500L456.537922,220.570046L453.290495,221.964453L448.666523,220.412667L442.628905,219.226775L439.076676,223.358821L428.428478,223.643287L427.656398,227.442268L424.348940,228.319946L423.870096,229.290676L418.916832,231.504310L417.983099,231.606372Z " data-name="es-cm" data-realname="Castilla-La Mancha"/><path d="M796.890628,229.543852L796.727963,229.667328L796.728843,229.791074L796.890628,229.543852Z M838.345796,216.087066L838.223275,216.087066L838.204745,216.284692L838.345796,216.087066Z M915.043736,153.864243L914.903349,154.011336L915.127236,154.011336L915.043736,153.864243Z M914.958636,153.618973L914.736208,153.717151L914.737298,153.790785L914.958636,153.618973Z M914.809323,153.153346L914.593068,153.668239L914.715265,153.668239L914.809323,153.153346Z M823.977277,118.175895L821.939624,115.443865L821.565967,117.241245L823.977277,118.175895Z M726.728118,96.705615L728.700654,99.058605L729.644788,101.825278L734.129684,105.142934L733.131612,108.535700L730.071202,114.008663L730.187380,117.978162L731.637078,119.950124L733.102021,123.663806L731.438629,125.350852L734.576412,126.432498L732.697035,127.885057L734.475997,129.153280L733.034765,131.031215L729.688594,142.362346L730.064947,143.623432L729.777707,148.160153L727.539359,152.203249L727.190769,156.319844L719.776190,163.549425L722.012180,167.815685L723.145746,168.360017L719.063184,170.914509L718.331217,173.477270L713.995500,175.150252L713.006659,178.320911L708.545787,178.880264L707.528388,180.771238L702.474387,186.372518L704.161614,189.722710L704.222201,193.032014L710.014482,192.773747L710.344922,195.730180L711.378602,198.103486L708.357763,201.836048L706.765024,203.102320L703.634980,203.542247L704.662911,206.127325L702.975830,211.946913L705.014605,213.338707L706.030314,215.124138L705.442706,219.248455L706.918918,221.481317L705.346078,226.030599L702.272164,226.247038L698.645831,233.046582L697.171724,232.926703L695.993335,234.681989L694.298649,234.070742L693.364497,238.755839L694.754732,238.913122L695.492634,242.757643L698.907300,244.686762L699.428824,248.729341L698.761413,251.952636L697.257535,253.467182L696.165997,256.566825L697.717078,260.654313L699.065436,262.271868L695.775552,265.313673L695.469603,266.723452L690.905378,269.563974L691.143749,270.155845L692.074666,270.569683L695.085414,270.800628L697.054954,272.683711L698.907767,278.746518L702.892753,281.057001L705.943415,281.595215L710.552940,285.148710L711.707679,287.308348L716.593363,288.954057L716.592933,288.759082L718.225856,285.147724L722.644659,280.493392L731.292501,278.578169L733.446373,278.801860L731.059196,282.708151L727.390134,283.430018L726.038808,284.301542L722.592926,284.326099L724.074358,286.093790L727.150746,285.855782L734.470405,278.428717L740.037190,275.544022L742.714974,273.455788L743.320743,271.045266L742.107437,269.977151L739.524714,269.852569L735.388881,264.885932L732.111136,265.034825L736.153043,266.723005L733.921751,267.344051L730.842099,265.407161L730.835671,263.322026L733.249211,262.105969L741.285436,252.756489L742.179451,250.997046L745.992880,247.305971L746.853114,247.454510L751.253069,242.651162L755.622477,240.646648L759.670290,240.028175L763.089005,240.456015L764.546008,241.339559L768.042256,237.084076L774.288489,234.858509L777.276135,235.130551L781.260853,234.586654L785.885383,231.817618L791.312776,230.087502L802.015076,228.580297L803.399317,227.789664L814.214893,225.442843L819.268139,223.565858L828.902444,222.232607L834.036213,220.504641L838.478947,215.075825L843.105105,207.875128L844.980277,205.533619L853.580233,202.207540L865.542270,195.164505L866.662637,195.016865L878.335835,190.291620L880.909316,188.938441L885.814828,185.002947L892.278076,183.429256L900.814681,177.087551L903.842335,173.524760L908.276353,171.559787L909.131997,170.135061L911.880426,168.612921L914.610994,164.537419L915.408604,160.635136L914.440572,159.874476L912.616901,156.292469L911.160405,155.507527L911.835776,148.813235L907.177353,145.994267L906.520092,144.131515L906.324075,138.985804L906.829719,137.393556L909.409406,134.454503L914.042596,137.124244L914.789739,135.433887L918.688028,135.140276L918.418692,132.127972L919.596785,130.756817L917.987275,127.794285L916.270994,128.504349L915.004401,126.692632L912.676103,127.231243L909.906994,125.420111L909.057538,122.899331L910.153777,120.109296L906.696107,118.948348L903.452447,119.221578L897.009990,115.809773L892.833305,115.752355L891.855732,117.370536L888.359721,116.373136L887.691329,117.452620L883.194369,120.714641L877.201865,120.444999L873.864934,123.482045L872.461883,123.682044L873.945797,127.542769L867.270029,126.064422L865.368018,126.318205L864.473200,128.144598L860.164592,127.620144L857.621163,125.039193L854.266948,122.916422L845.029783,119.843275L841.105280,120.052480L839.877727,120.808633L837.003681,120.116343L834.174006,121.103740L833.195641,122.819246L830.225667,125.411123L825.928668,126.958499L822.725206,124.615463L819.818759,117.480715L818.571993,118.255605L814.443584,116.774995L812.932956,115.364520L804.767583,113.337685L803.619072,114.186274L800.600587,113.148635L800.048740,115.806339L797.794987,116.761521L795.917698,116.634436L792.044902,119.375195L784.543063,118.976094L782.256589,114.939092L785.611856,112.297364L784.665774,110.153159L782.726539,108.346347L784.064552,107.648106L783.029192,103.194361L779.053499,96.273899L777.185018,95.502073L777.650841,94.094150L771.823980,94.608255L768.309793,93.404648L763.633645,95.088854L761.350711,92.781756L761.132547,91.512095L756.845908,88.668575L751.149534,88.261806L748.927219,86.715003L746.794615,88.098837L743.111175,85.954739L737.766348,83.734316L734.196868,83.569528L731.254024,81.819006L728.009499,82.270959L726.576297,83.881254L727.433028,86.944713L725.593754,88.602436L725.196615,91.090942L726.950421,91.536196L727.896040,94.727107L727.058313,96.694354L726.728118,96.705615Z " data-name="es-ct" data-realname="Cataluña"/><path d="M417.983099,231.606372L416.676226,231.656469L412.522554,233.023621L408.131492,238.120149L403.134651,241.502596L399.919329,246.284996L391.525390,249.248268L388.317124,252.797978L387.165407,255.804958L387.570604,258.369464L385.034917,264.167338L385.143068,265.244854L381.925030,265.828230L378.358206,264.707550L376.526494,268.066006L374.956237,269.312412L370.519372,276.062555L370.884556,278.167700L367.345060,281.606235L363.885306,281.551318L362.642535,279.312490L362.650135,281.675933L361.778627,285.235566L360.380875,285.743011L359.382593,288.133393L359.229881,294.953931L358.268630,297.714287L356.917268,298.785062L352.348308,299.043038L350.393590,301.798251L350.334105,304.458294L349.116582,307.189809L345.495149,307.622811L343.917679,304.942265L342.327904,305.440300L343.629963,309.633602L340.600523,312.832832L340.797759,316.360094L340.145669,316.209214L339.807503,316.417204L340.271648,316.812397L340.073291,317.347078L350.313537,314.590037L350.480472,312.642789L353.236040,310.444186L354.674524,307.709973L356.390723,308.113235L356.279236,311.610039L357.425118,314.387062L359.990628,316.031226L361.521553,315.405335L364.544206,311.346681L367.648243,311.770706L367.736353,310.016924L376.203987,313.191056L376.762005,311.995916L378.872107,313.380846L380.933224,313.563348L382.722799,316.517374L386.113419,316.874376L388.825943,318.751711L393.459165,320.718159L397.363572,320.175244L399.405364,323.431591L401.375097,324.056703L405.376288,324.047684L407.175545,323.075187L407.916770,324.698480L411.602937,326.190216L411.347892,328.487975L410.406501,328.740359L409.321827,331.983243L405.520078,334.075227L401.071567,337.769028L400.365235,340.551077L399.680296,339.071623L398.009741,340.868126L394.277392,342.343697L394.252839,341.362324L392.070599,342.245887L391.827939,344.658139L394.435443,345.102055L395.872668,346.360118L400.272054,343.121350L403.624687,340.099368L404.616947,340.823983L407.296223,339.090614L409.296258,339.090614L409.095504,337.047421L412.340693,335.862304L412.719361,334.815798L417.743404,333.693865L418.269496,332.124233L422.753657,331.805409L423.804539,332.497090L427.223682,332.824624L428.556209,331.531848L428.549574,329.239743L432.227889,328.847147L436.163085,331.079585L441.068676,330.274486L442.351799,329.079415L447.714701,330.459136L449.887338,329.664596L452.536327,327.083185L451.140084,324.237638L449.297717,322.177058L450.774498,315.822618L448.596343,310.313251L444.812892,312.893150L443.846093,314.480624L443.338882,309.784589L443.579210,307.619483L446.539052,302.146220L446.356368,298.908749L445.341873,296.471113L442.190162,296.190615L442.135827,289.695890L438.543230,287.091546L435.048643,287.666205L436.187942,286.312801L432.654180,282.281304L433.217619,279.349477L430.306323,277.119702L428.426264,274.213275L426.497073,275.661546L426.098719,274.765000L423.004258,273.297769L425.173229,270.342771L424.118725,270.151999L424.533611,267.655444L420.202141,265.130991L422.194747,261.807682L422.194397,259.552477L424.935386,255.942865L425.334303,252.216979L428.232737,245.646375L425.288726,242.505388L426.258376,238.869304L421.688787,237.922808L420.882674,235.281353L418.725527,233.766694L418.214555,232.018814L417.983099,231.606372Z M428.887075,279.378225L430.208047,278.907350L429.694551,279.812949L428.887075,279.378225Z " data-name="es-md" data-realname="Comunidad de Madrid"/><path d="M552.780768,43.513998L547.933646,46.320885L545.922750,49.201860L542.093625,51.013761L539.487814,49.567240L538.732780,56.345090L540.045160,57.626082L536.623386,60.771293L531.819235,63.294024L531.540647,64.838515L529.821741,66.923829L530.415120,70.659905L525.849447,71.946636L524.190669,74.610792L518.749838,74.014529L516.696909,75.407146L514.272249,78.960443L515.146827,79.587839L515.476691,84.085262L512.929227,86.333154L509.961318,98.451747L511.414659,98.704272L507.152322,101.715188L505.793054,101.454003L503.724357,99.361821L501.133677,99.939403L497.215294,103.643467L496.635867,106.002514L497.963330,105.649999L499.348291,107.608670L501.922340,104.084397L503.387868,105.929634L503.199542,109.716142L503.757561,112.024064L501.466856,113.548397L501.647813,114.458990L502.020821,114.347156L503.131002,116.001228L506.627745,116.543725L506.947753,117.684079L509.212159,116.852850L513.025504,117.928752L515.338702,120.075999L520.745914,121.425367L522.124066,120.512651L524.649486,120.919804L525.695735,126.996656L527.153165,127.388547L530.865830,125.100432L534.549455,127.729158L536.452466,128.023067L538.483834,131.053692L541.029035,132.274042L542.750621,135.574963L545.073949,135.681124L552.269205,138.671309L555.626789,140.950365L554.324064,141.684432L555.570094,144.214977L552.205074,145.090653L548.184916,145.135916L545.177728,144.049024L543.792859,146.294103L539.914704,150.099635L539.612689,155.241122L543.059534,157.140780L543.197003,156.898097L543.693519,157.235806L545.889121,157.779127L552.831388,161.406092L554.953322,161.714152L557.313422,160.665083L560.607985,162.472807L561.531741,164.045223L564.301521,165.216365L566.868477,165.565264L568.456680,164.293970L574.313590,165.284058L577.229499,162.609577L581.236009,155.133396L582.956376,153.812151L582.549199,151.219590L576.112940,146.462025L576.663712,141.753766L574.888436,138.012973L576.857749,133.028832L576.269892,132.110430L579.158563,128.181701L581.347883,126.254759L579.313282,124.578104L580.476783,120.214913L582.413000,117.988203L584.271650,117.270133L584.430572,111.509525L586.155405,108.515277L590.679465,109.143827L590.579593,107.301635L593.963757,104.752148L594.406198,100.526856L602.716215,100.459452L602.691699,96.649044L607.804270,95.587322L613.665400,90.404078L614.824018,90.724506L616.714332,88.355033L615.781870,86.916219L616.057394,82.993834L619.222008,79.360829L618.827915,78.265188L623.619687,76.170114L625.509309,76.630946L625.612052,76.368090L623.749635,72.422789L620.986886,72.711455L619.593224,73.800921L611.904043,72.723498L610.429653,73.693326L605.939196,71.737876L605.090514,70.336186L599.385917,69.323739L599.687214,68.570509L586.493059,65.645102L586.062300,64.689029L583.232337,63.450272L583.722911,59.391798L580.618590,61.225159L579.919811,67.071215L573.542093,65.473817L572.002550,60.890273L573.623842,60.064537L576.448952,55.857621L576.496765,54.013313L578.220447,49.116379L576.772315,46.243139L573.899401,46.101615L570.051394,44.814207L568.330750,43.701196L564.765546,44.159751L565.328063,44.948965L563.962348,47.525565L560.922560,46.927747L558.975680,42.548584L557.222937,41.874909L553.246210,43.156029L552.780768,43.513998Z " data-name="es-na" data-realname="Comunidad Foral de Navarra"/><path d="M642.190228,503.611878L643.330993,504.124595L643.808716,503.945197L642.190228,503.611878Z M668.773458,472.659836L668.835551,472.915350L668.939116,472.889761L668.773458,472.659836Z M673.167592,469.643001L673.188357,469.540954L673.126282,469.592299L673.167592,469.643001Z M695.817289,449.317323L695.527735,449.495844L695.527847,449.623583L695.817289,449.317323Z M654.190233,387.329730L654.333619,388.088846L655.323728,388.342025L654.190233,387.329730Z M728.309013,347.255212L728.164950,347.255212L728.144695,347.380908L728.309013,347.255212Z M728.037326,345.746263L727.954996,345.771431L728.202742,346.022761L728.037326,345.746263Z M729.475984,345.016872L729.251611,345.695745L729.251114,345.519931L729.475984,345.016872Z M571.326345,322.910790L570.700663,323.838164L571.758746,325.372443L574.356350,326.874278L573.936690,328.695947L576.587653,334.540648L583.283119,335.292757L586.115275,336.478209L590.288809,335.893394L591.685457,335.051200L592.259800,335.119337L592.751538,334.903361L594.408897,334.667875L599.171580,330.567762L596.243711,327.649843L588.192967,325.608362L586.317067,324.550094L584.086473,321.388602L582.610028,318.053093L580.685765,320.540037L581.072413,321.217852L577.575017,324.053637L572.472985,323.439437L571.326345,322.910790Z M593.931273,338.577622L593.072383,339.297794L589.359625,340.612315L588.980666,342.529098L589.772634,344.281597L589.615783,348.750959L587.050700,355.693515L583.965073,359.852174L584.944217,363.309089L582.707756,365.703373L577.037328,364.152638L573.354977,367.302545L570.571107,373.424651L566.892339,375.578244L567.244017,381.353028L565.321611,386.577986L567.246753,389.116655L568.322655,388.419128L570.861892,393.559541L573.494602,392.314144L578.068513,395.996240L581.223623,395.940951L587.311006,397.846753L588.627784,397.222745L590.996572,398.290197L591.853861,400.235318L591.235495,401.522428L591.092566,405.996627L589.723693,410.551167L587.294301,413.175738L586.272261,416.648475L585.137334,417.340497L584.521088,420.802595L585.380541,423.438409L587.272107,424.800406L592.128617,431.199921L593.177701,433.533817L601.396988,433.081067L604.153396,431.691432L605.791241,432.304325L609.702372,436.981408L608.859487,440.266585L608.976470,445.952516L606.915147,447.714097L610.289660,454.954081L606.797575,458.541815L602.888598,458.507622L602.051849,458.658460L602.195065,460.092775L603.853835,466.274885L601.994378,470.907482L602.904267,473.247637L600.815032,475.765250L596.896126,478.657141L597.573812,479.506176L597.316879,485.160641L597.583248,487.115744L604.696637,489.507345L605.979693,492.258711L605.626053,496.861568L601.078201,506.399757L602.133001,512.141461L608.681625,521.960818L609.635994,524.215092L616.425203,531.631010L621.495257,533.232250L621.495356,533.197115L622.360352,528.600447L625.841790,524.492694L626.534329,521.849019L630.135925,518.718121L629.709376,514.741150L630.829577,506.611307L633.184721,502.483988L635.490916,501.433326L639.184776,501.535740L640.620472,499.665188L639.700605,492.517239L640.329442,489.188413L645.333989,485.578801L648.505395,486.525751L647.948016,484.887804L648.596581,481.074740L650.591115,478.234904L655.984787,474.654402L661.561872,472.352969L665.624317,471.560440L668.816317,469.898719L671.198784,470.844627L674.121121,468.288596L674.080056,466.525370L677.498603,461.262680L680.646872,461.467163L685.409119,457.713301L690.190970,455.058370L693.418721,452.276842L695.839885,451.409272L695.072272,449.291978L692.649432,447.863664L692.812656,444.625126L686.334107,441.005402L679.154791,439.272448L676.527648,438.074987L667.493296,428.475171L667.514477,427.635363L664.767442,423.921135L663.281560,420.920672L660.807906,414.007564L660.665832,411.289736L662.092025,410.426388L656.158923,397.208601L653.878020,389.431033L655.203360,385.558204L654.859911,379.891709L657.628036,375.771463L660.933503,368.977544L663.388544,365.873136L664.009191,362.770693L666.237309,358.333639L671.431221,350.224522L678.101988,343.759548L680.509386,338.382041L680.221358,337.905277L684.868766,330.902230L685.917564,331.002465L689.452779,327.516634L692.572937,320.752054L698.159792,317.172569L701.051596,312.644680L707.346309,304.997020L716.613907,288.958541L716.593363,288.954057L711.707679,287.308348L710.552940,285.148710L705.943415,281.595215L702.892753,281.057001L698.907767,278.746518L697.054954,272.683711L695.085414,270.800628L692.074666,270.569683L691.143749,270.155845L690.969773,270.455287L686.848298,270.665477L683.911237,271.813046L679.709038,270.550095L677.240981,270.302434L676.278704,271.070580L668.726145,267.909092L667.887368,265.452654L662.020677,268.249211L661.132824,273.889152L657.959433,274.871054L655.889093,276.718362L654.776410,275.087285L652.262582,275.089522L650.673768,280.355005L656.895743,281.057449L657.882372,292.497159L658.393238,293.374195L652.881817,296.043457L657.465149,301.218825L657.673956,303.126334L654.961017,304.065697L653.329399,306.369491L649.599391,308.757629L649.811119,312.435199L644.239628,314.932786L641.446776,314.993575L638.298062,313.330787L637.188275,317.073110L636.327820,322.003039L632.011309,326.811291L632.114879,329.148745L627.981925,332.035900L623.193905,332.609277L621.726794,335.125573L616.343999,341.292484L616.837247,344.082113L618.927734,345.792073L615.073837,349.107042L612.692168,349.414226L610.921042,347.580685L611.306981,342.547195L610.367913,339.250317L608.582709,339.392118L605.125638,337.674460L602.609478,338.327066L600.299530,337.807543L597.651509,338.943484L594.331573,338.557006L593.931273,338.577622Z " data-name="es-vc" data-realname="Comunidad Valenciana"/><path d="M170.832693,311.657654L168.986097,312.573112L164.399623,312.801233L159.898092,315.590060L158.399560,319.212846L159.036916,323.117572L163.565200,325.876410L168.181252,330.527219L167.879415,331.223894L170.140301,334.733026L168.076472,341.662319L167.007070,343.557004L166.471481,348.420531L165.392846,348.898788L160.829121,353.176449L161.214814,356.435995L159.978590,359.325780L158.069807,365.913466L153.961825,367.023543L140.595351,366.226575L137.818524,366.872008L134.617340,368.571975L131.480125,367.712214L128.229565,367.824698L119.812191,366.182883L120.041539,369.128310L122.454550,373.589706L125.342762,375.641831L127.877929,378.520075L129.770137,378.833606L130.681260,381.760564L134.914547,383.804163L135.242105,390.662614L136.200679,396.877456L138.545447,399.591208L141.050691,401.614738L139.934159,405.919428L140.157625,408.027823L147.978147,411.411420L147.110638,417.118447L149.964587,417.981429L155.344977,416.300017L159.933807,420.411946L161.246427,424.901965L155.505087,433.731553L153.430848,435.590693L150.454172,443.472385L145.365788,446.209645L142.277770,448.694732L137.593363,453.370396L136.452092,459.723858L138.447730,461.539800L136.840931,464.894425L133.895536,468.835122L132.916834,476.549152L131.520879,478.680164L138.614748,486.179713L142.064325,491.544283L144.547722,494.256082L145.009740,496.904087L148.855246,502.603296L154.787172,501.013158L158.839526,499.071095L160.674862,499.837332L160.705083,499.858735L168.788842,503.041323L170.838270,502.605326L170.841504,504.358074L169.151857,507.995603L169.689613,508.816997L172.575431,508.750069L172.524903,509.886228L183.193712,510.011233L186.293159,515.925624L193.057736,517.579611L193.124809,518.214949L196.801657,514.693311L196.166728,513.920709L199.053397,513.680145L202.520153,514.571037L203.058875,517.550330L208.871386,521.534598L212.343141,522.974814L215.258277,523.271799L216.271716,524.537976L221.898663,520.695865L227.524393,519.304544L233.328960,519.518869L234.689728,515.513887L236.890832,512.785430L235.344502,510.850194L236.528360,508.229333L242.352471,502.984112L243.446252,503.405173L246.571189,501.927506L250.342149,501.069346L253.518614,502.296769L252.204627,503.939937L253.000808,505.206200L249.955950,510.020557L251.689359,511.603519L254.800064,509.690784L257.555939,506.334502L261.178775,506.926885L264.912070,503.514246L264.351048,502.021712L266.091737,499.958277L265.829699,494.709781L262.248092,488.674637L262.962310,485.637131L261.652692,483.490362L263.463404,478.910675L267.219116,476.296961L269.312056,476.348154L271.316560,473.048632L273.107272,472.573868L279.084467,465.112409L285.559833,461.842121L289.971723,458.629781L293.314896,456.668888L292.163248,452.775099L297.081300,453.112154L298.380423,453.875140L302.204372,452.142637L302.431552,451.912352L303.043961,451.524362L306.694953,450.932394L309.564368,442.651145L312.546884,437.378141L317.705070,436.255946L318.103079,434.378329L317.346358,431.889034L314.261328,430.729790L312.425350,430.997111L311.308193,429.298937L309.310282,421.683547L311.260199,421.866175L315.228499,424.052809L316.816455,424.150238L317.086836,420.026349L315.935036,417.996161L317.573744,413.181317L320.882042,408.815228L323.588669,409.721356L325.909124,409.262886L332.807753,411.320636L328.487219,407.860044L328.150724,404.712858L326.668287,403.961316L324.754940,397.730671L328.277175,397.011865L329.804635,392.913286L330.509480,386.726597L324.681222,390.045156L319.599288,391.470962L316.671072,393.395190L306.622199,387.369006L304.011131,383.480932L301.077366,382.245341L298.173537,379.429855L295.511592,375.797390L292.497305,373.022170L296.042306,365.581480L297.501051,361.849534L294.900557,358.595654L296.053996,357.796489L295.125231,354.290967L292.596370,354.344278L287.997787,358.451762L284.905823,357.730539L284.753345,351.937792L286.972679,348.953682L284.519569,345.912396L280.664449,346.130503L278.812157,343.551212L279.813254,341.268511L281.231697,332.547854L280.685034,330.674132L281.126517,326.994748L283.400174,325.580755L283.603472,325.575252L283.542514,324.815658L281.399472,321.550342L281.508912,318.341974L283.368243,312.216724L276.937696,313.278478L276.163541,314.956201L273.806545,317.277887L269.336197,318.460918L262.710152,313.852464L259.938310,312.818428L260.205319,311.660534L258.301499,310.428978L254.267864,309.510422L250.141365,310.177909L249.456236,309.194610L251.022773,307.861002L250.217110,304.619134L247.917924,305.006012L246.241105,306.458703L245.466401,305.890355L239.432204,310.685367L233.478109,306.944898L233.782261,305.357666L227.837986,303.900377L229.533634,301.588059L229.556869,299.685508L225.582121,298.124092L226.320781,296.157843L224.322658,296.747223L220.417073,292.549565L215.703022,293.627824L213.468091,295.324418L211.400136,295.460068L208.375748,299.354383L204.967968,299.811997L195.335854,304.732237L193.506648,306.368501L193.724169,309.811403L189.326209,312.035702L187.473501,311.778267L183.695203,314.142404L182.174923,311.957750L179.935697,312.925559L178.843058,314.479003L176.949734,313.563708L175.070739,314.245056L170.840840,311.639382L170.832693,311.657654Z " data-name="es-ex" data-realname="Extremadura"/><path d="M29.621514,144.572475L29.353178,144.670851L29.367527,144.817842L29.621514,144.572475Z M30.175719,144.450014L30.322410,144.842105L30.311201,144.621531L30.175719,144.450014Z M26.262554,141.680992L26.193597,141.876821L26.381642,141.754383L26.262554,141.680992Z M26.483404,139.279933L26.150862,139.451210L26.152305,140.406851L26.483404,139.279933Z M26.317609,122.140352L24.220443,125.199648L24.847122,126.252380L26.317609,122.140352Z M31.408625,117.369303L31.619748,117.173429L31.311205,117.271542L31.408625,117.369303Z M30.977999,116.488329L31.130366,116.733250L31.215681,116.635317L30.977999,116.488329Z M31.773933,116.390573L31.807355,116.562043L31.846983,116.586526L31.773933,116.390573Z M20.721448,114.164788L20.597654,114.213572L20.715291,114.311492L20.721448,114.164788Z M20.543887,114.042565L20.358131,114.115564L20.373303,114.238052L20.543887,114.042565Z M33.019645,113.748898L32.889779,114.433893L33.017796,114.287012L33.019645,113.748898Z M20.607118,113.504282L20.155422,113.626678L20.528722,113.919902L20.607118,113.504282Z M32.423827,113.430845L31.527980,114.971939L31.846553,115.118650L32.423827,113.430845Z M17.813848,112.354596L17.405740,112.403551L17.099954,112.917323L17.813848,112.354596Z M15.118011,111.791886L15.126773,112.061044L15.231440,111.987789L15.118011,111.791886Z M28.379561,109.639814L28.252521,110.251409L28.326740,109.933416L28.379561,109.639814Z M27.133455,109.346745L27.106030,109.517621L27.324272,109.639814L27.133455,109.346745Z M30.216222,106.941791L29.333207,108.172752L29.586939,110.862672L30.910185,111.253933L31.471114,109.468937L30.216222,106.941791Z M37.408827,102.745089L36.730636,103.453896L36.869582,103.527295L37.408827,102.745089Z M15.813604,93.042223L15.816725,92.969035L15.718562,92.895671L15.813604,93.042223Z M11.436251,85.468780L11.202214,86.201328L11.302410,86.225776L11.436251,85.468780Z M8.750011,79.655363L8.586935,79.679805L9.033747,80.119502L8.750011,79.655363Z M35.811684,37.598614L35.218214,38.257412L36.299888,38.476837L35.811684,37.598614Z M69.195496,37.208169L69.132075,37.281251L69.309942,37.379192L69.195496,37.208169Z M64.054306,36.476120L64.087307,36.159199L63.857384,36.354200L64.054306,36.476120Z M138.810622,7.954289L138.582871,8.125221L138.859809,8.271559L138.810622,7.954289Z M110.016969,7.051576L109.846534,7.295416L110.006859,7.320010L110.016969,7.051576Z M138.856851,6.661221L138.514189,6.661221L138.530001,6.783142L138.856851,6.661221Z M138.786778,6.368279L138.498378,6.539301L138.494889,6.636802L138.786778,6.368279Z M125.056492,2.610718L124.664628,2.854568L124.878263,3.074437L125.056492,2.610718Z M107.849837,0.927201L107.684961,1.024708L107.906643,1.024708L107.849837,0.927201Z M166.738839,159.994786L166.258653,159.138683L167.693024,154.152780L167.614528,152.735584L164.600379,150.431604L166.521334,148.822237L166.701634,146.896619L169.170044,146.178068L172.388469,140.887474L174.324353,139.791299L181.260392,137.510312L181.463820,135.840278L185.510667,128.630026L186.090709,125.928191L183.205173,124.191127L178.907055,122.726300L178.209477,121.810694L180.378606,119.952766L179.889686,117.572488L180.939646,116.208537L178.624489,114.493861L172.570581,111.806766L168.548292,114.112394L164.936643,113.706191L161.964093,110.178602L164.789559,106.110250L163.659967,104.897548L166.155527,100.735584L164.932065,95.898672L168.407656,93.575130L168.855855,94.270972L170.730554,91.074845L172.432434,92.321084L174.778243,90.675514L178.559292,86.185850L179.072017,84.181815L177.504487,80.627083L181.607746,80.892439L179.317494,77.067520L181.054868,77.003256L180.212495,76.889848L180.308479,73.248975L177.796955,70.509603L173.534671,69.132222L171.717209,66.304234L171.674657,69.875620L170.496816,70.058703L169.215270,66.823199L170.578858,66.868109L170.973919,64.637354L172.293070,63.544215L178.120217,61.521558L181.396861,58.711512L181.894546,56.949074L179.074470,53.521562L173.124154,57.952156L171.984384,57.631529L170.377042,54.874615L171.190366,51.589392L168.984686,51.323364L168.438259,49.952302L164.462934,47.618072L163.645304,43.138021L162.007185,42.814928L159.941251,40.520549L159.819554,36.376950L156.632455,35.446481L157.171013,31.722563L163.249429,29.655192L166.038500,27.839133L166.048841,27.836322L167.090279,20.592815L161.737644,20.178068L161.416600,20.714727L157.668052,20.592815L157.325856,19.983079L152.853694,19.787738L151.152819,20.543804L149.319191,17.591736L143.674437,10.076872L135.791244,7.270997L136.164669,5.856000L132.673425,4.855416L130.271083,5.514480L128.643875,8.686327L127.639125,9.149844L124.697339,3.611326L121.682568,5.026353L120.718423,4.391969L122.699216,1.506619L122.082087,0.707327L114.366129,5.026353L113.161353,4.904431L110.649165,7.930046L108.801849,7.734870L106.111224,11.174911L105.367251,10.589572L108.054768,5.099612L107.767315,1.512593L105.009093,1.976318L103.279178,4.538488L98.004151,7.539430L94.048883,7.124834L92.454010,9.784377L92.737479,11.833765L94.048609,13.907723L90.870940,12.126433L87.663282,13.712291L86.122354,15.469150L83.308280,15.737395L81.006707,18.860486L78.434564,20.641737L74.232554,19.763321L75.851377,22.178724L73.445260,24.325711L73.928230,25.374614L72.541912,27.741638L73.290396,28.717297L81.973454,27.107039L79.033032,28.985542L74.588761,29.571310L74.221161,30.693573L76.586007,31.132749L78.290641,32.450193L83.125097,32.230779L83.692653,33.206725L81.499470,34.036517L81.960710,39.789969L78.700365,38.965142L75.356396,35.670907L74.899835,34.450932L72.645747,34.255933L71.112389,35.231894L70.981771,39.013630L69.197858,38.159910L68.424851,35.695326L67.118105,37.134911L66.079929,36.329781L60.637363,39.059834L59.757786,40.819388L56.206880,42.186051L53.732517,41.429280L49.504983,42.527413L42.605708,43.723070L38.224916,41.697729L38.020478,40.794968L35.116202,39.721277L34.893761,41.161008L32.645510,41.771254L30.382210,41.307354L28.776425,44.381914L26.737067,43.869596L24.806572,45.065274L25.097904,46.285394L26.915781,46.309816L27.379264,50.140924L25.107085,49.384506L24.107837,50.531437L22.716138,49.042671L20.720019,52.215548L16.320023,52.508289L12.415765,52.093426L8.368289,57.267411L9.862901,58.707294L13.589449,57.657977L11.025476,60.342914L7.537577,60.538166L5.035436,61.319272L3.918560,65.103040L2.056458,66.030649L2.888712,68.740226L3.828173,69.008822L3.245934,72.598063L1.077688,75.869988L2.375579,77.677294L3.317817,76.504968L5.531435,75.894427L7.456308,76.797891L8.975833,75.845549L11.236982,77.408538L13.067226,77.701734L11.521632,79.728513L12.602701,83.319095L10.901619,86.592146L13.433254,90.403550L13.212033,91.307411L15.974233,92.602307L17.198054,88.619850L20.745685,88.595400L23.515553,87.789172L28.134205,87.349614L29.524359,84.638028L29.558563,87.691550L22.408908,92.397789L19.174326,97.929811L18.570620,98.296361L14.407098,107.023653L18.286480,109.811221L17.784902,111.596425L20.447136,111.034002L22.269100,109.688850L24.592980,106.045379L26.979987,105.727895L25.871765,104.089766L28.590723,101.156389L30.575071,102.207295L29.552700,102.891882L31.731411,104.162991L31.704900,102.353997L33.204930,101.889431L32.133826,99.836099L35.008544,99.469522L34.345022,100.312411L36.284701,101.473891L41.395863,98.003015L41.172485,99.005283L37.539021,103.527295L37.917126,105.190022L36.099738,106.461100L33.962363,106.632391L33.022341,108.759652L34.410425,112.012266L33.165253,115.142955L33.790366,117.711558L32.635914,117.148945L30.339942,118.176687L31.306770,115.901449L31.145079,113.919902L29.514043,113.602023L27.537872,115.730250L25.701656,115.461126L25.733994,117.613795L27.976365,116.904283L29.885031,118.372220L29.206418,121.039080L32.262836,123.755524L34.683413,122.678902L37.210194,122.972455L43.341628,119.008596L45.917641,120.085248L40.515129,123.608740L36.227096,128.651355L32.734502,128.602176L33.032565,132.740117L31.541454,131.932010L32.292532,135.433887L37.238417,134.772787L39.695028,132.323673L42.292101,132.936002L44.912316,131.956604L46.921091,126.961935L48.396097,127.671963L48.346061,131.466929L47.108551,132.430956L41.470593,135.164612L40.893698,136.364574L36.732957,137.711903L36.253336,139.010587L33.396228,140.774483L32.903217,143.396172L31.166288,144.597003L32.959897,145.503762L30.757397,147.145998L26.833637,148.028393L27.885293,157.715450L27.463172,158.083475L27.830817,166.574992L27.261966,168.047982L31.363046,166.399731L36.545799,163.613663L43.199619,157.682419L45.829405,153.411055L48.896844,152.582502L50.029121,153.025420L54.638029,150.580159L60.143971,150.330804L61.085300,151.215530L65.173153,150.119407L68.792964,149.700948L74.009810,145.718880L76.284167,145.862529L78.346057,144.021498L79.224799,151.858700L83.696399,150.295497L86.297324,153.978403L85.837761,156.356580L82.785134,157.289325L77.107524,164.055562L76.228680,166.488024L77.419701,168.250229L79.342317,168.287620L79.633548,173.679171L84.872032,174.297279L90.965855,172.217393L94.778486,168.598954L97.713290,168.047187L98.363686,166.559349L100.535383,164.983771L100.556419,170.351756L103.292905,168.094566L114.068828,165.779664L120.265911,172.694019L123.026910,172.653253L126.832969,171.609745L127.569858,169.788765L132.038387,169.526729L132.398399,171.450676L133.705799,172.383989L136.531328,171.868292L138.360586,170.613722L144.368809,170.664383L146.317382,169.452203L150.788418,168.215136L151.546367,167.082673L151.811560,160.542646L155.075358,158.486399L159.220908,160.213415L160.055583,162.006759L165.018379,161.866639L166.657252,160.073227L166.738839,159.994786Z " data-name="es-ga" data-realname="Galicia"/><path d="M784.389710,446.206065L784.180634,445.823174L784.097789,445.823174L784.389710,446.206065Z M784.389710,446.206065L783.282935,451.996033L782.330459,451.945420L782.021984,460.062622L783.261504,459.475102L786.348562,456.003091L788.523914,456.232829L792.059121,458.836601L795.333027,459.143069L794.936961,455.288270L792.813356,456.794333L788.948561,454.471791L786.821076,451.664621L784.990600,446.358822L784.389710,446.206065Z M788.882029,446.486611L788.317564,445.466461L788.591481,446.333485L788.882029,446.486611Z M783.032756,444.038550L783.219688,444.166123L783.260680,444.115277L783.032756,444.038550Z M783.609925,443.656391L783.633289,444.140425L783.777968,444.115277L783.609925,443.656391Z M768.834054,438.941124L768.566736,439.297949L768.753045,439.323450L768.834054,438.941124Z M767.409513,430.689834L766.935873,431.097186L767.514267,430.995003L767.409513,430.689834Z M769.037728,429.569786L769.391535,430.053323L769.390804,429.900663L769.037728,429.569786Z M765.315271,429.442240L765.192305,429.671494L765.481720,429.671494L765.315271,429.442240Z M796.551059,428.297254L796.429910,428.780719L796.553908,428.755157L796.551059,428.297254Z M768.924224,427.432089L768.829394,429.213359L768.867648,428.602336L768.924224,427.432089Z M776.547738,422.395224L776.362240,422.496845L776.548661,422.573291L776.547738,422.395224Z M785.144958,418.530814L785.042561,418.683357L785.166502,418.683357L785.144958,418.530814Z M792.611489,416.192436L788.155798,417.437663L785.851730,419.267748L784.463558,418.632387L781.804463,419.852548L781.047117,421.174773L778.508977,421.937488L775.274012,423.895588L775.860721,429.493368L775.408248,429.951611L770.010148,429.671494L768.961281,430.867802L770.460397,433.006452L769.248957,434.840132L769.575470,438.227975L775.099612,438.406096L776.989338,439.807435L779.761000,439.705609L780.618065,441.362126L782.274897,441.668031L784.456507,435.858805L787.055501,434.585344L788.711487,434.840132L791.736384,432.242456L792.634746,430.307702L799.214904,424.531725L796.798647,421.607018L796.301439,418.098733L794.254557,417.920673L792.611489,416.192436Z M898.601675,415.481306L898.541418,415.633333L898.727672,415.658762L898.601675,415.481306Z M898.125865,411.899274L895.831851,415.379407L898.436839,415.531798L898.125865,411.899274Z M899.898019,411.518387L899.735769,411.772188L900.066558,411.797605L899.898019,411.518387Z M899.359414,409.639092L898.377369,410.451801L898.756035,411.035585L899.359414,409.639092Z M900.043422,408.090787L899.961942,408.192225L900.044923,408.217630L900.043422,408.090787Z M902.331359,399.109714L902.416742,399.337724L902.456233,399.185656L902.331359,399.109714Z M900.306595,397.233969L900.100766,397.284523L900.101673,397.360628L900.306595,397.233969Z M867.443873,380.928492L867.508430,381.206718L867.652837,381.206718L867.443873,380.928492Z M852.840882,374.255427L852.738590,374.331097L852.739796,374.457793L852.840882,374.255427Z M996.545355,353.773934L996.883468,354.252345L997.001648,353.950444L996.545355,353.773934Z M911.646576,343.005700L911.588534,343.282251L911.691699,343.307409L911.646576,343.005700Z M916.558936,339.437336L914.164457,340.417297L913.516983,339.688574L909.577648,342.151065L904.897456,343.099903L905.317741,342.151065L902.497333,342.075787L899.869009,344.208193L892.787359,345.796600L889.402125,348.487920L879.444547,352.741359L878.417522,354.831529L876.178227,355.335594L872.935004,358.232937L872.901084,358.913480L868.105317,363.199409L866.002166,363.047966L854.233049,371.098403L852.879982,374.028237L854.603019,377.414234L858.436050,379.310437L859.689084,378.804482L861.096057,381.358582L862.298798,382.016060L862.221480,384.596232L863.493181,383.888139L865.960720,385.152903L865.760415,383.710899L867.624911,380.498520L867.044677,380.220505L871.326253,377.515238L873.380431,376.782498L874.249255,375.114687L878.182706,376.605445L881.301485,378.956292L882.809821,381.080350L881.409212,384.975995L882.098822,385.785781L882.501048,390.468975L885.738879,393.990045L890.399150,393.660597L895.056277,394.826226L899.930022,395.079462L900.441891,398.197199L902.847490,399.109714L902.775993,400.022434L907.526279,401.873961L909.234265,399.743467L912.400304,397.056395L915.526922,396.194591L915.407720,394.952843L918.515069,394.243251L920.872393,388.291625L921.892508,387.421130L923.623751,381.080350L926.239399,377.768207L930.442648,374.533375L929.740087,372.916688L931.436744,368.901935L933.543428,369.229822L935.001350,365.923639L934.935312,362.694704L936.425354,361.711558L935.232422,358.938704L933.092857,359.140133L931.030024,357.451597L926.018859,355.486667L923.688710,358.308418L919.845420,360.501221L914.356314,358.182496L910.338898,354.907331L910.756362,350.551426L911.382944,351.231022L914.111213,350.468792L915.718357,345.871926L911.323247,348.211125L908.242688,348.789909L906.676382,345.418990L915.718064,341.196139L916.558936,339.437336Z M990.250129,334.013246L990.180979,334.766369L990.345088,334.741249L990.250129,334.013246Z M984.841521,331.704888L984.869031,332.106349L984.930783,332.106349L984.841521,331.704888Z M980.641360,327.817532L981.292012,328.594939L980.217498,330.701312L969.805701,330.375523L968.964204,331.737220L963.543996,331.052674L961.016139,332.457346L959.903722,336.247901L962.109352,336.523946L961.612408,342.804359L966.574438,342.955296L971.128469,342.050634L977.265227,343.533474L982.034797,346.874883L986.082130,348.815091L990.582433,351.910604L992.132026,352.212766L997.511303,351.331790L997.362390,347.582315L996.677857,346.123260L999.107282,347.305563L994.793839,339.688574L993.715988,339.236300L988.913415,332.859222L986.987225,330.902230L984.793375,330.099593L982.138630,331.203304L980.641360,327.817532Z " data-name="es-pm" data-realname="Islas Baleares"/><path d="M542.480339,160.572504L541.855039,159.583156L543.411732,158.723196L542.886277,157.775065L543.204250,157.383557L543.197003,156.898097L543.059534,157.140780L539.612689,155.241122L539.914704,150.099635L543.792859,146.294103L545.177728,144.049024L548.184916,145.135916L552.205074,145.090653L555.570094,144.214977L554.324064,141.684432L555.626789,140.950365L552.269205,138.671309L545.073949,135.681124L542.750621,135.574963L541.029035,132.274042L538.483834,131.053692L536.452466,128.023067L534.549455,127.729158L530.865830,125.100432L527.153165,127.388547L525.695735,126.996656L524.649486,120.919804L522.124066,120.512651L520.745914,121.425367L515.338702,120.075999L513.025504,117.928752L509.212159,116.852850L506.947753,117.684079L506.627745,116.543725L503.131002,116.001228L502.020821,114.347156L501.647813,114.458990L500.339995,114.447102L493.088435,114.041156L489.046050,115.960277L488.164029,113.206662L484.897843,114.797579L483.759431,112.649825L480.866394,112.040969L482.444696,105.157105L475.978367,104.091790L476.107363,105.041628L471.057802,106.331885L472.669688,104.744755L470.958985,102.108644L469.859275,101.351923L469.416212,101.787173L468.082464,102.889858L464.351443,101.677612L458.175064,101.882039L453.356516,101.133686L455.067582,105.665666L453.133021,106.279953L449.570002,109.814831L450.212006,110.601983L452.850484,110.147260L454.117218,111.080928L452.502572,114.263501L455.897374,118.347294L454.607678,120.130613L454.948972,124.957601L453.811634,123.589533L453.508478,120.937246L451.553362,123.610766L452.985192,123.612176L454.491892,126.193957L451.033478,127.736825L452.053992,132.243100L451.699943,137.550700L449.792975,140.550710L452.334582,143.540591L452.258470,144.489188L455.340067,147.856834L456.303406,150.015784L463.761479,150.462939L465.072912,155.587440L466.710577,156.103492L473.115833,153.518942L473.814003,151.994382L474.109813,148.004212L476.045518,146.583710L480.322642,148.275764L480.177119,149.986745L476.641442,155.492074L480.290234,156.267478L482.633356,157.776036L484.366236,157.270072L488.277896,157.433455L490.584595,156.373005L491.812595,153.056938L494.109674,149.591327L494.848395,147.413737L496.607232,148.216193L499.406857,145.932677L503.709499,145.027567L511.439278,145.978737L511.448055,148.035806L522.747184,149.026199L520.187244,151.712514L524.108879,157.359623L522.897792,158.019002L524.595586,161.555836L530.381065,162.163314L532.058590,163.725616L538.157129,163.589452L538.790570,162.411226L540.926956,161.806121L542.480339,160.572504Z " data-name="es-lo" data-realname="La Rioja"/><path d="M497.154976,37.183749L496.930579,37.379192L497.030636,37.452274L497.154976,37.183749Z M449.245403,38.496689L448.879197,43.059575L446.265321,43.312042L444.418878,44.332896L443.950487,42.390640L436.144845,43.010909L435.598947,44.737166L432.015672,46.319479L431.762634,47.336951L427.920036,50.101126L428.606821,54.504982L429.385128,56.118401L429.703926,57.810163L430.237536,57.712806L434.612358,55.971405L435.260469,54.874175L443.846062,54.585023L444.296786,54.134736L449.369099,54.245265L449.761075,54.748885L446.860536,58.912556L449.781137,59.811819L450.313636,60.990185L448.517178,63.030654L448.844229,67.164727L447.632053,68.194164L449.405325,68.934290L455.560234,69.226794L458.459763,73.488775L460.983824,74.437881L458.658739,77.397988L453.294281,78.414032L450.223711,77.205808L449.092287,75.452243L446.702463,74.411245L443.503955,73.957654L441.717486,77.258469L439.611373,78.187030L439.184363,80.479195L443.263214,84.470596L445.879212,81.010610L448.045348,82.165092L450.646545,79.089332L448.088349,86.715267L450.692862,88.057589L448.851470,90.927514L453.758446,89.998776L456.647045,92.528504L459.094614,92.954345L460.992596,95.578876L464.651358,95.191520L467.606319,100.382191L469.799385,101.298596L469.859275,101.351923L470.958985,102.108644L472.669688,104.744755L471.057802,106.331885L476.107363,105.041628L475.978367,104.091790L482.444696,105.157105L480.866394,112.040969L483.759431,112.649825L484.897843,114.797579L488.164029,113.206662L489.046050,115.960277L493.088435,114.041156L500.339995,114.447102L501.647813,114.458990L501.466856,113.548397L503.757561,112.024064L503.199542,109.716142L503.387868,105.929634L501.922340,104.084397L499.348291,107.608670L497.963330,105.649999L496.635867,106.002514L497.215294,103.643467L501.133677,99.939403L503.724357,99.361821L505.793054,101.454003L507.152322,101.715188L511.414659,98.704272L509.961318,98.451747L512.929227,86.333154L515.476691,84.085262L515.146827,79.587839L514.272249,78.960443L516.696909,75.407146L518.749838,74.014529L524.190669,74.610792L525.849447,71.946636L530.415120,70.659905L529.821741,66.923829L531.540647,64.838515L531.819235,63.294024L536.623386,60.771293L540.045160,57.626082L538.732780,56.345090L539.487814,49.567240L542.093625,51.013761L545.922750,49.201860L547.933646,46.320885L552.780768,43.513998L552.433869,42.376673L550.769380,39.315275L547.775702,39.062645L548.375958,35.012036L542.845929,36.890894L538.533954,40.160748L538.950579,40.990418L535.829558,39.867884L533.770159,41.868672L530.784885,41.356371L520.067447,44.211405L518.632784,42.283558L507.833014,43.210668L502.985757,41.258689L496.907457,37.623034L496.333851,36.598040L492.250863,35.207475L486.892289,34.134016L486.961831,33.426316L483.995333,33.279805L483.451563,34.743781L479.571471,31.864856L478.573801,29.424977L474.992561,31.523176L465.546761,31.279082L462.072831,34.206920L457.775624,36.695892L459.608469,39.867884L454.206181,36.329781L452.158543,38.208398L449.245701,38.476837L449.245403,38.496689Z M438.025443,47.342398L440.858756,46.081585L442.124072,46.719719L439.547851,51.956633L438.523525,51.374408L438.025443,47.342398Z M472.052130,87.810191L480.204826,88.111502L484.952981,89.564016L487.088306,89.709317L491.435516,91.776155L489.187767,96.790781L491.100785,98.510522L492.505568,98.659310L494.445368,97.319376L494.752352,99.939843L491.272138,100.793134L489.825015,100.176459L486.393107,100.384215L481.501341,98.128307L479.494891,99.110343L476.476550,98.904975L475.302054,96.007764L470.175291,93.385207L469.705793,91.910033L472.052130,87.810191Z " data-name="es-pv" data-realname="País Vasco"/><path d="M345.952364,34.377851L345.870988,34.402270L345.986920,34.646281L345.952364,34.377851Z M171.020057,20.129057L171.088410,20.495408L171.216923,20.275562L171.020057,20.129057Z M173.923062,18.982573L173.761614,18.982573L173.881200,19.031409L173.923062,18.982573Z M240.517279,17.591736L240.330784,17.762659L240.572194,17.787077L240.517279,17.591736Z M166.038500,27.839133L163.249429,29.655192L157.171013,31.722563L156.632455,35.446481L159.819554,36.376950L159.941251,40.520549L162.007185,42.814928L163.645304,43.138021L164.462934,47.618072L168.438259,49.952302L168.984686,51.323364L171.190366,51.589392L170.377042,54.874615L171.984384,57.631529L173.124154,57.952156L179.074470,53.521562L181.894546,56.949074L181.396861,58.711512L178.120217,61.521558L172.293070,63.544215L170.973919,64.637354L170.578858,66.868109L169.215270,66.823199L170.496816,70.058703L171.674657,69.875620L171.717209,66.304234L173.534671,69.132222L177.796955,70.509603L180.308479,73.248975L180.212495,76.889848L181.054868,77.003256L181.957825,77.332404L186.461515,78.841665L188.463206,76.789803L196.482148,76.168532L196.927207,76.911299L203.954391,75.800891L204.962290,76.436836L209.031321,74.168186L209.657499,72.687019L206.683579,72.119270L209.482420,70.149498L210.348784,70.626241L215.343091,64.301122L217.642920,66.783563L219.913418,67.172198L220.664981,66.340531L222.464498,68.174301L224.847091,68.753673L225.885502,65.436379L227.918325,65.182574L231.445687,67.692142L235.576016,62.882844L236.614000,63.761540L242.305486,63.576642L248.130180,70.411249L249.554624,70.056945L252.693884,72.676998L258.675992,71.838432L258.330150,70.760018L262.110574,65.470829L263.268697,64.983081L274.880840,67.924168L277.411213,67.019977L278.287096,67.660765L280.318480,65.093285L281.684698,64.667586L285.876067,65.201205L286.496180,61.870421L289.300136,61.259605L289.864281,62.335108L293.829114,62.732662L299.124814,61.903287L303.692738,59.420268L305.647636,60.691416L309.072083,53.585260L314.848865,53.246035L321.072409,48.722362L323.891366,49.356832L326.314817,52.862357L326.164114,53.651330L326.459656,53.641490L330.779793,52.659932L333.101457,53.357968L334.883722,46.847452L338.221527,45.983459L341.555476,46.019301L343.375674,43.596485L347.481327,44.529672L347.318241,45.642520L349.849157,43.701196L349.610424,39.831606L348.424877,39.316329L348.835711,37.174790L350.592994,36.096746L350.493655,34.987617L350.462829,34.987617L348.879720,34.353433L344.796494,34.597268L340.319742,34.304771L329.441664,31.376579L326.841605,30.303147L320.490743,29.083478L312.457302,29.034642L305.824953,27.009544L304.540175,27.546208L299.685925,27.936629L296.638121,25.521208L293.906980,22.593471L290.415395,22.617888L282.847982,21.080726L279.501006,21.763714L277.885810,21.032067L271.442972,21.276066L264.733288,20.934133L265.409016,19.836573L260.254961,17.982067L258.422238,14.243250L253.366620,11.858184L251.843183,14.395555L250.109577,14.371137L248.983759,16.371817L246.810913,16.884414L245.748655,18.762991L240.285881,18.616661L237.147528,20.397474L233.910687,20.690309L231.827478,19.494815L228.142724,19.250815L227.488725,18.177408L224.531924,18.566772L216.507645,21.056308L216.163820,20.421892L212.153232,20.934133L208.188557,19.958485L208.471980,21.227055L203.885808,21.422396L197.974577,20.129057L197.538272,19.250815L193.634440,20.202485L187.406467,20.007145L183.807297,20.763649L183.208313,20.055980L175.658031,18.982573L172.837469,20.080573L168.451927,20.299980L168.477199,21.348967L166.036034,27.912211L166.038500,27.839133Z " data-name="es-as" data-realname="Principado de Asturias"/><path d="M562.564169,573.685121L562.395572,573.972005L562.624717,573.972005L562.564169,573.685121Z M583.663132,560.014860L583.370896,560.209472L583.620361,560.286502L583.663132,560.014860Z M606.059651,559.900705L605.851950,559.772200L605.747764,559.823676L606.059651,559.900705Z M629.996524,550.813550L629.868405,550.926548L629.892050,551.029922L629.996524,550.813550Z M622.550846,549.966222L622.363654,549.950490L622.467183,550.104387L622.550846,549.966222Z M622.561306,538.617196L622.705969,538.925645L622.724463,538.842313L622.561306,538.617196Z M503.466551,516.684845L504.843240,517.795206L508.258074,522.777443L513.399879,526.795478L516.046681,529.372388L520.085249,528.863148L521.545546,530.395442L528.570981,530.118850L530.587563,531.994256L529.761869,532.629607L528.175687,539.889779L529.117106,544.228530L528.226305,544.992628L528.605768,550.931453L532.155895,557.163461L538.781521,566.583071L540.219874,569.520399L542.929309,571.497969L545.119791,570.247464L548.322819,570.649535L556.299350,576.932345L556.297389,576.946890L564.113642,572.145242L566.610211,572.634226L567.449241,571.527980L568.575319,567.334228L577.378571,560.384364L579.377976,559.489269L584.312230,559.206527L584.975839,558.638924L588.768505,558.692341L590.569895,560.852201L594.800814,559.497046L597.908667,557.817770L601.985036,558.589117L603.758731,557.303338L609.596463,560.363903L614.808298,557.740470L615.410530,558.151968L623.179134,556.069099L626.308524,553.031051L625.436397,552.341343L623.204321,546.788684L623.984652,542.779611L622.699458,541.289175L622.768725,546.325961L624.317081,550.695648L624.040795,552.906842L621.670934,552.161145L615.569555,547.071449L614.513040,545.734457L616.397191,541.751964L618.336874,539.773422L619.241044,536.356657L620.618284,535.664485L621.495065,533.300116L621.495257,533.232250L616.425203,531.631010L609.635994,524.215092L608.681625,521.960818L602.133001,512.141461L601.078201,506.399757L605.626053,496.861568L605.979693,492.258711L604.696637,489.507345L597.583248,487.115744L597.316879,485.160641L597.573812,479.506176L596.896126,478.657141L600.815032,475.765250L602.904267,473.247637L601.994378,470.907482L603.853835,466.274885L602.195065,460.092775L602.051849,458.658460L601.479278,458.570494L595.377810,453.651980L595.079454,451.108649L590.323481,449.585013L585.439008,451.059235L582.641199,454.094814L578.441120,456.651702L576.682098,454.187426L572.526242,456.715849L570.613607,459.240324L570.235807,465.450984L569.170847,466.007940L566.773747,470.028099L568.069223,474.742136L568.187445,484.362419L559.024468,489.984100L553.848788,490.264336L552.522590,488.099406L552.985859,485.856630L548.401830,483.908646L546.560926,484.079374L546.329285,485.422519L542.521815,488.058668L540.103378,488.614541L539.014296,489.786556L529.176675,492.879317L527.629264,491.368287L525.545370,490.867509L524.435793,491.622463L522.905206,494.617564L520.661785,497.098885L513.696455,499.974883L509.514645,508.655355L504.375395,513.046387L503.262013,516.322409L503.466551,516.684845Z " data-name="es-mu" data-realname="Región de Murcia"/></g></svg>