<?xml version="1.0" encoding="utf-8"?>
<!DOCTYPE svg PUBLIC "-//W3C//DTD SVG 1.1//EN" "http://www.w3.org/Graphics/SVG/1.1/DTD/svg11.dtd">
<svg xmlns="http://www.w3.org/2000/svg" xmlns:xlink="http://www.w3.org/1999/xlink" enable_background="new 0 0 1000 711" height="711px" pretty_print="False" style="stroke-linejoin: round; stroke:#000; fill: none;" version="1.1" viewBox="0 0 1000 711" width="1000px">
  <defs>
    <style type="text/css"><![CDATA[path { fill-rule: evenodd; }]]></style>
  </defs>
  <metadata>
    <views>
      <view h="711.75801828" padding="0" w="1000">
        <proj id="laea" lat0="53.0" lon0="17.5"/>
        <bbox h="450.65" w="634.04" x="682.98" y="758.38"/>
      </view>
    </views>
  </metadata>
  <g class="" id="bg">
    <path d="M527.213814,596.044737L527.213825,596.044798L529.736523,599.027636L527.888856,605.082519L526.946056,618.301385L528.448989,627.472943L536.907286,633.714412L537.334760,637.950980L539.936367,639.214199L541.136251,644.671700L549.312490,655.359700L555.644483,663.945186L558.908077,676.623070L565.477246,691.703546L578.820571,699.282029L589.275983,698.306106L582.251920,681.781365L591.991840,679.031899L586.759109,669.575573L601.409391,673.517103L600.336770,662.678089L592.342494,657.733355L583.249935,649.511685L588.674083,644.861455L580.521889,636.384911L576.447664,625.105118L578.967041,620.678085L587.518141,630.018384L595.837483,629.317438L603.158135,625.503479L592.012073,615.577057L609.424785,608.934943L617.260831,609.962610L626.265224,609.515841L629.520840,606.951641L632.700848,594.369105L625.091081,590.117450L639.064718,582.254670L651.739884,583.147534L645.709143,572.831624L649.072573,558.355958L655.235461,549.326784L655.759113,525.559312L660.163726,526.706098L666.121604,521.499783L665.029965,516.602921L673.090384,500.641915L676.181743,489.203329L687.893604,484.537768L690.132556,491.489190L711.537633,492.043744L716.267959,495.558479L704.867980,504.645774L703.228122,508.795503L718.986853,511.229824L717.869013,520.832374L726.204449,523.023660L742.025127,507.709824L755.794149,500.712618L756.695189,493.287096L743.527539,497.908416L736.004411,494.938307L732.516764,483.326358L742.003264,473.460900L753.794410,469.279141L760.692367,460.826698L770.406091,456.406031L780.855418,449.975565L782.383269,453.968837L765.811974,467.190469L775.016683,472.558183L768.476479,491.387577L759.679232,497.029239L773.960205,504.963613L791.042615,507.661386L812.584407,518.251819L813.575699,515.523996L825.845754,515.035278L846.444029,511.303380L867.532552,513.552424L871.042547,516.100631L878.112947,510.113568L891.855810,509.062672L898.668554,514.933910L908.609865,515.719472L912.581824,514.760356L925.975812,521.910714L932.371410,520.571293L932.841873,514.940411L937.806519,504.091531L937.806655,504.091229L915.007992,489.088923L911.412346,476.295730L893.021726,464.051542L897.920941,439.882750L908.563528,431.505924L909.481323,418.248452L902.116665,418.191652L899.336247,408.358516L886.613877,399.792532L878.054315,404.237201L862.988553,396.298207L864.059200,379.626746L859.161016,377.403440L859.811659,353.526238L875.895274,358.666375L871.415309,344.914521L884.624105,314.576233L900.818048,305.465658L930.222801,304.580416L946.428026,304.217779L953.138419,290.261741L968.910364,279.565224L987.153930,279.568737L986.847489,272.622373L1000.000000,264.165434L1000.000000,259.898801L998.205112,253.927187L975.053074,253.839301L978.785069,239.284965L973.988855,236.090970L979.940431,225.295857L965.567042,219.025862L965.824234,210.408418L994.270047,179.002694L995.302869,171.661839L1000.000000,164.493542L1000.000000,0.000000L766.874853,0.000000L757.027089,7.170158L756.524305,15.479303L747.857641,18.393478L747.213907,4.767780L742.232140,6.697329L729.609049,33.311211L720.548647,48.443430L724.696302,60.330293L715.973691,69.130660L707.618715,65.538412L702.902170,55.726705L710.315550,49.704371L701.679669,41.625582L680.743025,43.835552L690.551331,52.878822L691.978849,64.921708L702.534292,73.141475L703.850804,87.146397L694.399389,83.598537L687.310784,85.139103L676.866662,109.174565L686.968057,120.800877L681.981266,127.528927L659.104828,122.029937L656.265060,130.529438L663.559453,137.123347L665.316137,146.447615L657.451846,143.438833L645.331943,140.563913L639.499861,121.560836L636.588218,113.007324L620.533273,102.328624L625.419318,98.624183L663.178540,103.356890L673.618210,94.443956L678.064973,82.014258L672.869177,70.106408L664.211521,63.372765L631.329669,50.832384L611.685078,51.309040L597.885920,42.525583L592.569647,50.514332L592.569432,50.514552L582.769666,40.081788L590.009327,33.398251L567.376309,23.220282L556.675995,28.649980L544.982725,29.176693L536.730746,45.937324L525.742423,45.676801L511.414518,54.685510L492.371176,78.903215L479.731906,93.056178L458.945117,129.184712L441.448639,154.698993L422.211119,172.595636L396.598866,185.234588L386.118968,196.083427L380.804278,240.706917L380.624955,261.900233L392.936251,273.900104L407.106522,271.280452L429.494612,251.260349L434.953921,263.766401L440.280756,291.808890L447.461639,314.460862L449.682352,333.024082L462.496777,332.844895L469.362028,317.718175L482.432584,320.005845L488.866087,301.923397L493.221670,269.374455L503.706203,264.855809L512.506866,242.858257L503.165053,232.206695L496.444128,218.542734L503.106433,191.258019L519.768939,174.287821L532.624898,158.143514L530.626210,146.391051L537.622563,132.452230L550.851506,125.893463L562.960229,133.824389L564.804213,141.848644L559.806683,146.469609L542.537277,169.064059L535.500359,181.706767L531.925029,193.198898L537.350082,210.410137L536.396693,229.598567L546.060830,235.383225L552.462215,245.533862L567.877435,240.059328L583.917224,231.082096L600.928340,227.154436L600.928373,227.154380L612.425115,234.672393L603.193126,247.021622L603.192958,247.021357L593.187843,249.034358L582.153233,247.206291L570.127807,251.375993L558.150528,257.916815L559.986145,268.959671L567.053368,275.262510L570.549383,272.466515L570.513114,283.989466L569.965730,299.030973L561.542897,300.153012L552.101416,286.317995L542.736419,293.570736L538.231529,306.034435L538.612253,320.662306L541.798776,336.857402L526.714987,343.818891L524.429280,352.449691L513.522940,352.460478L512.595524,347.734798L501.374652,344.549426L487.175474,351.024891L469.230631,359.534675L461.171010,364.905912L456.087646,358.449390L443.779063,349.996005L437.031753,354.837403L425.179916,357.495630L425.937428,350.633867L415.040150,344.997726L415.648642,337.503046L413.692186,327.763880L423.003819,314.669775L426.001202,317.088065L429.333121,310.037047L423.840866,306.547124L423.133612,301.002476L426.898135,295.017925L428.257938,285.107625L419.338732,289.691472L415.062787,294.608439L405.694208,294.689509L401.914796,300.084464L399.447564,305.054550L397.100876,324.806704L400.150053,336.091342L399.265993,347.101468L400.938283,354.658946L391.995448,363.191458L390.447644,358.655869L380.793794,358.366102L377.964137,362.114543L368.570209,360.098469L351.564416,365.458496L336.150286,391.736422L329.028368,395.793070L329.027906,395.792891L318.740603,397.599251L307.506585,399.176881L300.451776,413.959224L268.623533,421.807549L259.289618,410.619951L257.513087,433.035864L238.225771,422.336568L221.231552,421.562611L218.358692,435.590711L235.314858,448.564200L242.054027,460.743465L250.267766,484.152415L238.481853,521.150296L228.669388,530.604169L206.898405,523.782393L195.416786,521.391680L182.058390,513.688895L164.131199,507.825308L149.048027,498.744723L125.838623,505.065094L128.486127,515.134176L123.312271,528.011574L121.792632,534.454748L122.284177,542.106601L119.974806,550.042784L113.385643,560.060733L109.911012,567.146539L102.081894,571.720978L96.908389,583.350883L97.989157,591.627339L103.838008,595.726636L101.533787,607.581302L94.689732,621.208211L102.895345,621.940367L109.841039,627.312818L117.217623,624.576700L130.149951,632.139896L131.309825,644.234014L135.105143,652.328761L142.063310,656.223153L149.723592,650.968939L160.887194,647.239514L175.146880,651.800314L194.416645,656.828331L208.438954,645.160029L220.625034,644.267964L226.532614,632.784301L236.935126,626.415782L233.498459,614.220650L242.450471,600.163798L253.559431,591.731985L256.169331,585.641138L275.348866,585.660217L291.258660,575.731554L292.520799,564.497654L296.228776,553.321689L317.612496,550.923433L344.432446,560.623829L358.573111,551.582905L364.547883,550.950923L373.645820,543.037271L380.311732,541.200766L390.935719,548.828184L397.659990,551.784233L400.331183,571.290533L409.122473,583.281185L421.429854,596.888261L432.298848,606.371243L443.088729,608.240523L449.115109,616.315767L458.496625,620.223916L462.621605,628.714117L468.761465,631.309818L473.120095,641.162636L478.825466,652.469147L475.437231,656.522817L472.098057,666.791514L471.911479,672.681265L478.383343,671.333998L486.806021,654.922681L493.184716,653.834395L495.032817,643.774789L484.196057,636.518685L490.618388,624.096692L503.556826,627.309744L511.924593,636.269522L514.650715,629.321273L513.064503,625.732984L500.283301,615.731762L489.484328,609.834500L476.452101,602.640652L480.616626,598.868878L477.149093,594.524689L465.771353,594.343731L450.300416,578.127695L443.904992,561.773782L431.293069,551.237594L427.373836,541.073950L429.429481,535.680153L429.307729,526.019245L440.792927,519.864640L451.465899,523.270666L448.350563,524.876414L447.849018,525.164642L447.210021,531.875259L450.967020,538.564852L455.548017,530.396386L464.257631,533.803005L464.298361,540.354130L470.385120,548.705108L467.529256,550.068014L479.000177,564.628580L491.895573,570.564528L500.142637,577.566644L513.675790,584.641812L513.675798,584.641795L519.961880,588.385075L524.140355,594.618480L527.213814,596.044737Z M447.225813,328.025869L444.447208,318.060697L427.996397,323.164521L428.772172,331.341246L439.444422,343.253464L447.225813,328.025869Z M385.314499,584.938210L384.550230,568.147911L374.618650,574.459760L370.941114,581.268563L372.852633,594.618464L379.036863,599.293620L385.314499,584.938210Z M295.690579,240.991807L283.588146,238.936000L276.443206,234.960008L263.755642,247.404196L253.433047,265.238410L255.213495,276.425096L249.698112,294.480138L258.227186,287.584951L259.937991,293.824849L253.404769,300.879487L254.258785,306.737945L266.130174,314.125619L266.212909,314.439138L269.967795,328.155172L265.137917,338.557282L265.119175,338.549511L249.307973,331.790118L243.318811,343.320276L246.282093,355.329097L232.666115,357.298469L233.494243,365.765724L250.457192,374.507207L250.543360,374.550340L238.993891,375.406039L215.731213,389.418058L220.791440,395.219112L231.294994,390.770537L241.567910,396.285406L251.914755,389.822566L256.369579,395.118150L277.905944,395.442701L293.755894,399.600452L306.708864,392.143554L304.253271,381.222748L311.445762,377.010233L315.566196,365.154993L302.605974,358.301073L301.218365,350.022055L299.860626,326.736883L293.232455,321.745065L289.928695,296.920342L289.667050,294.711067L279.278984,290.362720L293.506161,276.300770L300.584836,261.774438L289.746440,258.484150L278.868895,257.910684L295.690579,240.991807Z M244.139608,308.232573L236.891837,292.870031L227.941608,290.454929L216.881311,296.056337L197.058028,304.730355L195.309162,325.523556L178.979450,341.027480L193.610272,350.020339L217.292326,346.451078L231.322674,332.841760L234.067857,318.988726L244.139608,308.232573Z M260.337628,62.243170L249.793925,55.050996L233.446271,57.861363L228.027512,48.146837L212.106249,50.873308L209.649974,33.180170L198.404372,28.919946L186.397463,36.185106L197.251363,49.453157L194.191275,54.403023L180.237523,49.361758L189.222722,67.351277L177.443776,69.956512L193.613849,88.023281L201.637735,96.311390L209.836217,96.940476L237.779533,96.859780L254.342814,88.463025L252.627022,72.566935L260.337628,62.243170Z M469.525679,666.407477L457.789860,667.723530L441.986863,669.143680L424.054142,666.344797L421.308285,676.079479L442.530372,687.115627L450.403436,689.550696L462.179983,697.236470L465.740138,687.442899L463.563892,681.409168L469.525679,666.407477Z M378.414108,602.534238L370.470939,607.657323L362.522696,605.711485L364.633977,617.116040L362.670818,640.362377L367.840305,646.133903L374.652799,640.420318L381.388945,642.371695L385.885124,617.147645L378.414108,602.534238Z "/>
  </g>
  <g class="" id="state">
    <path d="M532.100252,580.214298L526.097817,589.913708L527.213814,596.044737L527.213825,596.044798L529.736523,599.027636L527.888856,605.082519L526.946056,618.301385L528.448989,627.472943L536.907286,633.714412L537.334760,637.950980L539.936367,639.214199L546.586207,629.585424L547.240255,623.273762L551.952345,620.258565L552.031075,615.171384L545.723754,610.739312L543.331297,602.536569L544.936698,595.882728L544.936681,595.882636L543.695387,588.914061L540.171115,587.068612L536.931410,581.987333L533.116373,583.827242L532.100252,580.214298Z " data-code="al" data-name="Albania" data-population="3639453.0"/>
    <path d="M493.057075,466.072802L487.175947,462.342703L481.138616,463.248596L471.362312,457.068665L466.827259,458.368908L459.315102,466.024571L450.088060,459.316077L445.077627,468.005874L440.297698,470.185384L441.378931,482.932928L439.960606,486.151525L436.123420,481.918404L429.901649,480.883590L420.293312,483.623103L408.832457,481.765895L406.493723,486.690580L400.393327,480.651623L396.345043,481.297026L396.493702,484.781143L393.989947,489.291554L399.595676,493.448721L406.292294,494.651245L414.079443,498.145287L415.929520,494.599428L429.251864,492.279940L431.749122,499.229928L450.534676,505.384028L461.533291,507.381997L468.435393,503.222254L480.125308,503.046000L482.726247,499.819154L487.303304,487.391170L484.821506,483.146603L492.194273,483.197122L493.242721,475.270073L492.003673,468.530539L493.057075,466.072802Z " data-code="at" data-name="Austria" data-population="8210281.0"/>
    <path d="M349.208548,397.027606L337.451151,398.992345L329.028368,395.793070L329.027906,395.792891L318.740603,397.599251L319.085234,404.675814L324.601802,406.140148L328.722258,414.933376L335.567903,425.583942L342.136799,425.234719L351.486913,435.840432L354.553024,425.281899L357.870738,425.075109L361.285091,412.301597L355.365676,406.731140L349.208548,397.027606Z " data-code="be" data-name="Belgium" data-population="10414336.0"/>
    <path d="M655.235461,549.326784L646.775873,548.510774L635.773484,542.909340L619.945077,549.427652L613.537373,555.129007L592.857078,556.163286L581.851299,554.057468L576.522793,555.888145L571.965620,548.225818L568.803161,552.849415L570.506214,559.829588L577.922211,567.687809L572.905571,574.118101L570.887912,580.430670L572.587129,582.624690L570.390551,585.509324L578.016267,591.209478L579.905944,603.900637L590.762887,603.612050L602.003204,597.277232L612.882673,602.994639L625.956798,599.720827L625.091081,590.117450L639.064718,582.254670L651.739884,583.147534L645.709143,572.831624L649.072573,558.355958L655.235461,549.326784Z " data-code="bg" data-name="Bulgaria" data-population="7204687.0"/>
    <path d="M493.169787,531.352024L486.755009,531.718229L483.718933,535.697725L478.865135,531.153976L475.813086,539.136198L482.433624,548.337037L485.375107,554.389582L491.763977,561.697319L497.130629,566.014301L502.494862,574.106234L515.215338,581.329861L517.156507,570.647581L521.692988,566.061453L524.300785,564.235066L527.608621,563.295360L529.425101,554.128541L522.516395,546.846157L525.797671,538.237716L520.792819,538.405910L520.792795,538.405895L514.488903,534.222690L504.978415,534.582594L493.169787,531.352024Z " data-code="ba" data-name="Bosnia and Herz." data-population="4613414.0"/>
    <path d="M627.133337,313.289985L615.081474,310.268958L604.618918,319.361110L598.455308,323.474223L600.603681,331.985270L592.307712,339.278531L590.975667,350.486153L579.449521,359.068605L568.422161,359.936666L569.643853,368.466943L573.490704,375.559943L574.103004,383.288497L567.379652,387.835083L571.765412,396.516784L572.710320,405.124911L578.392083,403.868179L584.462295,398.000490L593.653109,396.612106L605.858849,396.725869L619.773029,399.606966L629.229485,398.631353L634.140321,400.724945L638.091227,396.662107L641.940095,400.646623L652.552349,397.880471L657.622204,398.876269L656.632354,389.089635L659.475337,384.205816L669.295356,381.104577L669.295421,381.104556L664.012260,369.435544L660.073425,363.619280L661.919350,361.399406L671.243212,360.182378L674.770128,355.069688L670.436209,350.682376L662.165579,348.894423L662.138572,345.307834L656.899309,342.732646L647.534872,331.548803L648.888294,325.940263L646.089036,317.164274L634.721231,314.531653L629.473975,317.798014L627.133337,313.289985Z " data-code="by" data-name="Belarus" data-population="9648533.0"/>
    <path d="M396.345043,481.297026L383.072798,473.771331L379.903600,477.629747L368.873627,476.029840L364.862203,478.819482L359.189628,476.185586L358.911087,481.138161L347.747098,490.477913L346.240476,499.149185L353.016386,497.117672L356.392533,506.235248L361.597924,511.185196L368.195161,511.157380L376.515500,505.595986L378.473495,508.942156L384.933113,509.097346L388.684533,501.647179L398.306489,505.143334L404.501369,502.475970L406.292294,494.651245L399.595676,493.448721L393.989947,489.291554L396.493702,484.781143L396.345043,481.297026Z " data-code="ch" data-name="Switzerland" data-population="7604467.0"/>
    <path d="M469.699990,416.815564L464.176034,418.637687L461.050803,416.269240L457.820109,419.824388L448.821272,423.120062L443.963373,427.679322L434.694724,431.292960L436.466866,437.211787L437.236676,445.481218L443.379180,450.562284L450.088060,459.316077L459.315102,466.024571L466.827259,458.368908L471.362312,457.068665L481.138616,463.248596L487.175947,462.342703L493.057075,466.072802L494.902558,461.811688L500.576612,462.154692L504.941092,460.132166L505.276619,458.323424L507.712233,457.383811L508.507792,452.956567L511.409441,452.080343L513.324384,448.556951L517.089467,448.470885L511.162188,438.994477L501.865870,437.887535L500.676788,431.805105L492.189672,429.598226L490.289354,434.597805L483.603903,430.480477L484.468112,425.148523L475.310364,423.250172L469.699990,416.815564Z " data-code="cz" data-name="Czech Rep." data-population="10211904.0"/>
    <path d="M461.171010,364.905912L456.087646,358.449390L443.779063,349.996005L437.031753,354.837403L425.179916,357.495630L425.937428,350.633867L415.040150,344.997726L415.648642,337.503046L408.216554,339.654758L400.150053,336.091342L399.265993,347.101468L400.938283,354.658946L391.995448,363.191458L390.447644,358.655869L380.793794,358.366102L377.964137,362.114543L379.145588,368.942998L373.647706,386.146442L369.569444,392.939968L362.454824,391.828207L361.285091,412.301597L357.870738,425.075109L359.658444,429.808479L357.665598,438.131642L362.812066,444.080023L380.471900,450.178935L372.332718,462.524649L368.873627,476.029840L379.903600,477.629747L383.072798,473.771331L396.345043,481.297026L400.393327,480.651623L406.493723,486.690580L408.832457,481.765895L420.293312,483.623103L429.901649,480.883590L436.123420,481.918404L439.960606,486.151525L441.378931,482.932928L440.297698,470.185384L445.077627,468.005874L450.088060,459.316077L443.379180,450.562284L437.236676,445.481218L436.466866,437.211787L434.694724,431.292960L443.963373,427.679322L448.821272,423.120062L457.820109,419.824388L461.050803,416.269240L464.176034,418.637687L469.699990,416.815564L465.193399,404.228017L466.390526,397.568672L463.879210,387.059243L459.930276,379.944953L463.416746,374.910704L461.171010,364.905912Z " data-code="de" data-name="Germany" data-population="82329758.0"/>
    <path d="M447.225813,328.025869L444.447208,318.060697L427.996397,323.164521L428.772172,331.341246L439.444422,343.253464L447.225813,328.025869Z M429.333121,310.037047L423.840866,306.547124L423.133612,301.002476L426.898135,295.017925L428.257938,285.107625L419.338732,289.691472L415.062787,294.608439L405.694208,294.689509L401.914796,300.084464L399.447564,305.054550L397.100876,324.806704L400.150053,336.091342L408.216554,339.654758L415.648642,337.503046L413.692186,327.763880L423.003819,314.669775L426.001202,317.088065L429.333121,310.037047Z " data-code="dk" data-name="Denmark" data-population="5500510.0"/>
    <path d="M228.669388,530.604169L206.898405,523.782393L195.416786,521.391680L182.058390,513.688895L164.131199,507.825308L149.048027,498.744723L125.838623,505.065094L128.486127,515.134176L123.312271,528.011574L129.799046,525.163746L136.199607,524.505819L136.608342,534.801581L144.664681,537.659102L147.744843,536.137861L155.499835,539.540519L156.486792,550.174931L148.554438,553.038495L143.920120,567.477628L140.806576,569.413449L137.546251,577.996785L130.962103,577.396818L133.234670,590.504824L125.552494,601.326552L128.876174,608.567240L125.365120,612.930117L117.851942,618.011257L117.217623,624.576700L130.149951,632.139896L131.309825,644.234014L135.105143,652.328761L142.063310,656.223153L149.723592,650.968939L160.887194,647.239514L175.146880,651.800314L194.416645,656.828331L208.438954,645.160029L220.625034,644.267964L226.532614,632.784301L236.935126,626.415782L233.498459,614.220650L242.450471,600.163798L253.559431,591.731985L256.169331,585.641138L275.348866,585.660217L291.258660,575.731554L292.520799,564.497654L275.727851,563.589388L261.755508,551.470508L255.807818,554.387966L232.312790,539.402035L228.669388,530.604169Z " data-code="es" data-name="Spain" data-population="40525002.0"/>
    <path d="M582.153233,247.206291L570.127807,251.375993L558.150528,257.916815L559.986145,268.959671L567.053368,275.262510L570.549383,272.466515L570.513114,283.989466L578.907027,279.671918L583.677680,281.534812L593.453844,287.615340L601.995994,286.510058L605.510522,279.772377L599.844731,262.263674L605.194575,250.150123L603.193126,247.021622L603.192958,247.021357L593.187843,249.034358L582.153233,247.206291Z " data-code="ee" data-name="Estonia" data-population="1299371.0"/>
    <path d="M577.392351,62.985521L577.804459,49.193203L567.945725,43.026399L558.628055,50.924540L557.205727,65.335395L551.570178,74.560898L543.482891,70.678946L534.363937,72.374757L525.894473,62.711696L522.013118,67.999710L532.008528,76.878495L544.405708,89.082552L547.461831,118.652272L550.851506,125.893463L562.960229,133.824389L564.804213,141.848644L559.806683,146.469609L542.537277,169.064059L535.500359,181.706767L531.925029,193.198898L537.350082,210.410137L536.396693,229.598567L546.060830,235.383225L552.462215,245.533862L567.877435,240.059328L583.917224,231.082096L600.928340,227.154436L600.928373,227.154380L616.417121,199.390418L622.495385,186.791810L623.718919,176.433606L608.289091,165.881330L609.265437,152.836142L599.078283,140.033335L601.263324,122.750085L588.117219,102.720756L592.191450,87.187433L578.754297,76.454994L577.392351,62.985521Z " data-code="fi" data-name="Finland" data-population="5250275.0"/>
    <path d="M385.314499,584.938210L384.550230,568.147911L374.618650,574.459760L370.941114,581.268563L372.852633,594.618464L379.036863,599.293620L385.314499,584.938210Z M328.722258,414.933376L324.601802,406.140148L319.085234,404.675814L318.740603,397.599251L307.506585,399.176881L300.451776,413.959224L268.623533,421.807549L259.289618,410.619951L257.513087,433.035864L238.225771,422.336568L221.231552,421.562611L218.358692,435.590711L235.314858,448.564200L242.054027,460.743465L250.267766,484.152415L238.481853,521.150296L228.669388,530.604169L232.312790,539.402035L255.807818,554.387966L261.755508,551.470508L275.727851,563.589388L292.520799,564.497654L296.228776,553.321689L317.612496,550.923433L344.432446,560.623829L358.573111,551.582905L361.229498,543.447915L354.053468,539.961031L352.555830,524.567233L358.063457,519.390212L355.083257,511.590653L356.392533,506.235248L353.016386,497.117672L346.240476,499.149185L347.747098,490.477913L358.911087,481.138161L359.189628,476.185586L364.862203,478.819482L368.873627,476.029840L372.332718,462.524649L380.471900,450.178935L362.812066,444.080023L357.665598,438.131642L354.006166,437.963866L351.486913,435.840432L342.136799,425.234719L335.567903,425.583942L328.722258,414.933376Z " data-code="fr" data-name="France" data-population="64057792.0"/>
    <path d="M244.139608,308.232573L236.891837,292.870031L227.941608,290.454929L226.452190,301.101619L220.662287,310.156692L227.324572,312.310874L234.067857,318.988726L244.139608,308.232573Z M295.690579,240.991807L283.588146,238.936000L276.443206,234.960008L263.755642,247.404196L253.433047,265.238410L255.213495,276.425096L249.698112,294.480138L258.227186,287.584951L259.937991,293.824849L253.404769,300.879487L254.258785,306.737945L266.130174,314.125619L266.212909,314.439138L269.967795,328.155172L265.137917,338.557282L265.119175,338.549511L249.307973,331.790118L243.318811,343.320276L246.282093,355.329097L232.666115,357.298469L233.494243,365.765724L250.457192,374.507207L250.543360,374.550340L238.993891,375.406039L215.731213,389.418058L220.791440,395.219112L231.294994,390.770537L241.567910,396.285406L251.914755,389.822566L256.369579,395.118150L277.905944,395.442701L293.755894,399.600452L306.708864,392.143554L304.253271,381.222748L311.445762,377.010233L315.566196,365.154993L302.605974,358.301073L301.218365,350.022055L299.860626,326.736883L293.232455,321.745065L289.928695,296.920342L289.667050,294.711067L279.278984,290.362720L293.506161,276.300770L300.584836,261.774438L289.746440,258.484150L278.868895,257.910684L295.690579,240.991807Z " data-code="gb" data-name="United Kingdom" data-population="62262000.0"/>
    <path d="M632.700848,594.369105L625.091081,590.117450L625.956798,599.720827L612.882673,602.994639L602.003204,597.277232L590.762887,603.612050L579.905944,603.900637L577.159409,604.741991L574.963321,608.274035L566.984153,608.415296L561.601983,612.964039L552.031075,615.171384L551.952345,620.258565L547.240255,623.273762L546.586207,629.585424L539.936367,639.214199L541.136251,644.671700L549.312490,655.359700L555.644483,663.945186L558.908077,676.623070L565.477246,691.703546L578.820571,699.282029L589.275983,698.306106L582.251920,681.781365L591.991840,679.031899L586.759109,669.575573L601.409391,673.517103L600.336770,662.678089L592.342494,657.733355L583.249935,649.511685L588.674083,644.861455L580.521889,636.384911L576.447664,625.105118L578.967041,620.678085L587.518141,630.018384L595.837483,629.317438L603.158135,625.503479L592.012073,615.577057L609.424785,608.934943L617.260831,609.962610L626.265224,609.515841L629.520840,606.951641L632.700848,594.369105Z " data-code="gr" data-name="Greece" data-population="10737428.0"/>
    <path d="M501.761036,517.447018L491.706434,509.092628L487.468592,506.658446L476.686804,511.618016L475.192184,519.421588L470.421940,521.278252L470.320402,526.698586L464.973468,526.150289L460.449602,522.813169L457.827214,525.982877L448.350563,524.876414L447.849018,525.164642L447.210021,531.875259L450.967020,538.564852L455.548017,530.396386L464.257631,533.803005L464.298361,540.354130L470.385120,548.705108L467.529256,550.068014L479.000177,564.628580L491.895573,570.564528L500.142637,577.566644L513.675790,584.641812L513.675798,584.641795L515.215338,581.329861L502.494862,574.106234L497.130629,566.014301L491.763977,561.697319L485.375107,554.389582L482.433624,548.337037L475.813086,539.136198L478.865135,531.153976L483.718933,535.697725L486.755009,531.718229L493.169787,531.352024L504.978415,534.582594L514.488903,534.222690L520.792795,538.405895L520.792819,538.405910L525.931749,530.989045L521.462540,525.565279L518.018622,518.117569L518.018444,518.117675L512.990423,521.094345L501.761036,517.447018Z " data-code="hr" data-name="Croatia" data-population="4489409.0"/>
    <path d="M542.429278,464.614186L538.266927,465.979838L535.417309,470.665253L529.420936,473.298187L527.984298,472.099805L521.747322,475.279799L516.596938,475.959200L515.612481,479.876042L504.671432,482.371717L499.849544,480.265931L493.242721,475.270073L492.194273,483.197122L484.821506,483.146603L487.303304,487.391170L482.726247,499.819154L484.961864,500.070884L487.468592,506.658446L491.706434,509.092628L501.761036,517.447018L512.990423,521.094345L518.018444,518.117675L518.018622,518.117569L528.259004,512.777429L536.700316,513.359620L547.341633,509.243143L554.749828,495.674799L560.223441,482.154963L567.925160,477.553178L566.663666,472.422935L559.153528,467.628942L556.520398,469.782032L542.429278,464.614186Z " data-code="hu" data-name="Hungary" data-population="9905596.0"/>
    <path d="M234.067857,318.988726L227.324572,312.310874L220.662287,310.156692L226.452190,301.101619L227.941608,290.454929L216.881311,296.056337L197.058028,304.730355L195.309162,325.523556L178.979450,341.027480L193.610272,350.020339L217.292326,346.451078L231.322674,332.841760L234.067857,318.988726Z " data-code="ie" data-name="Ireland" data-population="4203200.0"/>
    <path d="M260.337628,62.243170L249.793925,55.050996L233.446271,57.861363L228.027512,48.146837L212.106249,50.873308L209.649974,33.180170L198.404372,28.919946L186.397463,36.185106L197.251363,49.453157L194.191275,54.403023L180.237523,49.361758L189.222722,67.351277L177.443776,69.956512L193.613849,88.023281L201.637735,96.311390L209.836217,96.940476L237.779533,96.859780L254.342814,88.463025L252.627022,72.566935L260.337628,62.243170Z " data-code="is" data-name="Iceland" data-population="306694.0"/>
    <path d="M469.525679,666.407477L457.789860,667.723530L441.986863,669.143680L424.054142,666.344797L421.308285,676.079479L442.530372,687.115627L450.403436,689.550696L462.179983,697.236470L465.740138,687.442899L463.563892,681.409168L469.525679,666.407477Z M378.414108,602.534238L370.470939,607.657323L362.522696,605.711485L364.633977,617.116040L362.670818,640.362377L367.840305,646.133903L374.652799,640.420318L381.388945,642.371695L385.885124,617.147645L378.414108,602.534238Z M431.749122,499.229928L429.251864,492.279940L415.929520,494.599428L414.079443,498.145287L406.292294,494.651245L404.501369,502.475970L398.306489,505.143334L388.684533,501.647179L384.933113,509.097346L378.473495,508.942156L376.515500,505.595986L368.195161,511.157380L361.597924,511.185196L356.392533,506.235248L355.083257,511.590653L358.063457,519.390212L352.555830,524.567233L354.053468,539.961031L361.229498,543.447915L358.573111,551.582905L364.547883,550.950923L373.645820,543.037271L380.311732,541.200766L390.935719,548.828184L397.659990,551.784233L400.331183,571.290533L409.122473,583.281185L421.429854,596.888261L432.298848,606.371243L443.088729,608.240523L449.115109,616.315767L458.496625,620.223916L462.621605,628.714117L468.761465,631.309818L473.120095,641.162636L478.825466,652.469147L475.437231,656.522817L472.098057,666.791514L471.911479,672.681265L478.383343,671.333998L486.806021,654.922681L493.184716,653.834395L495.032817,643.774789L484.196057,636.518685L490.618388,624.096692L503.556826,627.309744L511.924593,636.269522L514.650715,629.321273L513.064503,625.732984L500.283301,615.731762L489.484328,609.834500L476.452101,602.640652L480.616626,598.868878L477.149093,594.524689L465.771353,594.343731L450.300416,578.127695L443.904992,561.773782L431.293069,551.237594L427.373836,541.073950L429.429481,535.680153L429.307729,526.019245L440.792927,519.864640L451.465899,523.270666L448.612252,514.856558L450.534676,505.384028L431.749122,499.229928Z " data-code="it" data-name="Italy" data-population="58126212.0"/>
    <path d="M556.305503,575.829046L553.913810,575.041338L551.905968,572.056958L549.193338,570.979850L547.059525,568.341442L544.556424,569.523324L542.834277,576.029917L539.465135,577.554598L536.931410,581.987333L540.170912,587.068803L543.695387,588.914061L544.936440,595.882626L544.936681,595.882636L546.789513,595.964821L547.280968,591.977966L555.688627,588.573718L558.884250,587.658426L558.330447,586.234371L559.934358,583.839290L561.295064,579.040473L559.266585,579.262711L556.305503,575.829046Z " data-code="xk" data-name="Kosovo" data-population="1804838.0"/>
    <path d="M598.455308,323.474223L586.903675,315.361020L581.038343,314.749336L579.102016,310.886202L568.755842,313.822977L550.628718,313.991511L538.612253,320.662306L541.798776,336.857402L553.629938,339.555023L558.773097,342.284365L557.970985,347.681235L559.236623,352.564091L565.199249,354.190978L568.422161,359.936666L579.449521,359.068605L590.975667,350.486153L592.307712,339.278531L600.603681,331.985270L598.455308,323.474223Z " data-code="lt" data-name="Lithuania" data-population="3555179.0"/>
    <path d="M357.665598,438.131642L359.658444,429.808479L357.870738,425.075109L354.553024,425.281899L351.486913,435.840432L354.006166,437.963866L357.665598,438.131642Z " data-code="lu" data-name="Luxembourg" data-population="491775.0"/>
    <path d="M601.995994,286.510058L593.453844,287.615340L583.677680,281.534812L578.907027,279.671918L570.513114,283.989466L569.965730,299.030973L561.542897,300.153012L552.101416,286.317995L542.736419,293.570736L538.231529,306.034435L538.612253,320.662306L550.628718,313.991511L568.755842,313.822977L579.102016,310.886202L581.038343,314.749336L586.903675,315.361020L598.455308,323.474223L604.618918,319.361110L615.081474,310.268958L609.938716,299.425774L607.642911,290.226994L601.995994,286.510058Z " data-code="lv" data-name="Latvia" data-population="2231503.0"/>
    <path d="M645.990538,515.757300L649.087634,513.162349L650.479390,506.209117L653.220592,499.512855L651.768271,496.218625L654.302471,494.247742L656.011577,496.698263L663.898842,495.972293L667.165332,493.954565L664.387998,492.431870L664.851774,489.412994L659.484681,485.308219L656.326196,477.592087L651.110949,475.216697L651.034446,468.554513L644.445140,464.297951L639.067454,464.379232L628.807704,459.735014L620.559024,462.781698L617.851583,466.018027L622.002955,467.396262L626.726623,472.585144L631.912181,480.149216L641.031076,490.522869L642.635093,498.908005L642.367527,507.330065L645.990538,515.757300Z " data-code="md" data-name="Moldova" data-population="4320748.0"/>
    <path d="M578.016267,591.209478L570.390551,585.509324L563.733345,586.248589L558.884250,587.658426L555.688627,588.573718L547.280968,591.977966L546.789513,595.964821L544.936681,595.882636L544.936440,595.882626L543.330930,602.536565L545.723731,610.739435L552.031075,615.171384L561.601983,612.964039L566.984153,608.415296L574.963321,608.274035L577.159409,604.741991L579.905944,603.900637L578.016267,591.209478Z " data-code="mk" data-name="Macedonia" data-population="2066718.0"/>
    <path d="M539.465135,577.554598L540.582082,575.850539L535.012486,572.028436L530.278974,570.087413L528.135494,567.463203L524.300785,564.235066L521.692988,566.061453L517.156507,570.647581L515.215338,581.329861L513.675553,584.641648L513.675798,584.641795L519.961880,588.385075L524.140355,594.618480L527.213814,596.044737L527.213841,596.044750L526.097875,589.913806L532.100252,580.214298L533.116373,583.827242L536.931410,581.987333L539.465135,577.554598Z " data-code="me" data-name="Montenegro" data-population="672180.0"/>
    <path d="M362.454824,391.828207L369.569444,392.939968L373.647706,386.146442L379.145588,368.942998L377.964137,362.114543L368.570209,360.098469L351.564416,365.458496L336.150286,391.736422L329.028368,395.793070L329.027808,395.793385L337.451151,398.992345L349.208548,397.027606L355.365676,406.731140L361.285091,412.301597L362.454824,391.828207Z " data-code="nl" data-name="Netherlands" data-population="16715999.0"/>
    <path d="M567.376309,23.220282L556.675995,28.649980L544.982725,29.176693L536.730746,45.937324L525.742423,45.676801L511.414518,54.685510L492.371176,78.903215L479.731906,93.056178L458.945117,129.184712L441.448639,154.698993L422.211119,172.595636L396.598866,185.234588L386.118968,196.083427L380.804278,240.706917L380.624955,261.900233L392.936251,273.900104L407.106522,271.280452L429.494612,251.260349L434.953921,263.766401L440.368159,253.013757L449.603605,240.404000L454.467588,217.886856L449.321869,207.648576L450.939671,181.958960L458.022660,164.283392L466.454042,165.154966L469.847728,157.660198L467.188831,150.898008L481.115807,124.324439L489.484194,103.153371L494.633835,89.515322L501.682384,89.606430L503.540261,78.869282L517.164726,81.668380L517.706998,68.971070L522.013118,67.999710L525.894473,62.711696L534.363937,72.374757L543.482891,70.678946L551.570178,74.560898L557.205727,65.335395L558.628055,50.924540L567.945725,43.026399L577.804459,49.193203L577.392351,62.985521L582.622152,60.288220L592.569765,50.514896L592.569432,50.514552L582.769666,40.081788L590.009327,33.398251L567.376309,23.220282Z " data-code="no" data-name="Norway" data-population="4676305.0"/>
    <path d="M524.429280,352.449691L513.522940,352.460478L512.595524,347.734798L501.374652,344.549426L487.175474,351.024891L469.230631,359.534675L461.171010,364.905912L463.416746,374.910704L459.930276,379.944953L463.879210,387.059243L466.390526,397.568672L465.193399,404.228017L469.699990,416.815564L475.310364,423.250172L484.468112,425.148523L483.603903,430.480477L490.289354,434.597805L492.189672,429.598226L500.676788,431.805105L501.865870,437.887535L511.162188,438.994477L517.089467,448.470885L517.824301,449.630270L522.957499,446.878340L529.529381,453.579838L536.865992,449.148122L542.921365,450.881981L551.879402,447.669066L564.368436,454.363430L567.220865,455.296773L563.352678,446.816674L573.496170,429.836174L579.435603,427.056946L580.273906,421.505274L572.710320,405.124911L571.765412,396.516784L567.379652,387.835083L574.103004,383.288497L573.490704,375.559943L569.643853,368.466943L568.422161,359.936666L565.199249,354.190978L559.236623,352.564091L538.450336,354.113197L524.429280,352.449691Z " data-code="pl" data-name="Poland" data-population="38482919.0"/>
    <path d="M117.217623,624.576700L117.851942,618.011257L125.365120,612.930117L128.876174,608.567240L125.552494,601.326552L133.234670,590.504824L130.962103,577.396818L137.546251,577.996785L140.806576,569.413449L143.920120,567.477628L148.554438,553.038495L156.486792,550.174931L155.499835,539.540519L147.744843,536.137861L144.664681,537.659102L136.608342,534.801581L136.199607,524.505819L129.799046,525.163746L123.312271,528.011574L121.792632,534.454748L122.284177,542.106601L119.974806,550.042784L113.385643,560.060733L109.911012,567.146539L102.081894,571.720978L96.908389,583.350883L97.989157,591.627339L103.838008,595.726636L101.533787,607.581302L94.689732,621.208211L102.895345,621.940367L109.841039,627.312818L117.217623,624.576700Z " data-code="pt" data-name="Portugal" data-population="10707924.0"/>
    <path d="M617.851583,466.018027L612.429153,466.682281L609.702518,471.579526L600.346829,474.500045L596.209421,477.928593L589.734083,473.793940L581.417502,474.474521L573.230056,472.986085L567.925160,477.553178L560.223441,482.154963L554.749828,495.674799L547.341633,509.243143L536.700316,513.359620L544.329965,520.677997L546.121544,526.776024L554.673991,530.915863L556.166629,538.840453L564.551877,543.987735L568.632265,539.367281L572.200965,541.541097L569.200380,545.028690L571.965620,548.225818L576.522793,555.888145L581.851299,554.057468L592.857078,556.163286L613.537373,555.129007L619.945077,549.427652L635.773484,542.909340L646.775873,548.510774L655.235461,549.326784L655.759113,525.559312L660.163726,526.706098L666.121604,521.499783L665.029965,516.602921L658.406559,514.307027L652.521887,518.393304L645.990538,515.757300L642.367527,507.330065L642.635093,498.908005L641.031076,490.522869L631.912181,480.149216L626.726623,472.585144L622.002955,467.396262L617.851583,466.018027Z " data-code="ro" data-name="Romania" data-population="22215421.0"/>
    <path d="M1181.601875,-638.802528L1205.480470,-658.703566L1210.964360,-639.571239L1241.621495,-637.712318L1252.558409,-653.829845L1265.328394,-656.054819L1260.430492,-644.131696L1279.472820,-638.177308L1265.633741,-633.090327L1247.116917,-631.232112L1228.359979,-625.958716L1212.986908,-625.899266L1188.456033,-621.019907L1174.629505,-610.227216L1149.223062,-605.285138L1134.804893,-613.041000L1129.065435,-606.608552L1123.620230,-610.569011L1133.776204,-616.583763L1148.692747,-625.031414L1166.518240,-629.446927L1181.601875,-638.802528Z M559.236623,352.564091L538.450336,354.113197L524.429280,352.449691L526.714987,343.818891L541.798776,336.857402L553.629938,339.555023L558.773097,342.284365L557.970985,347.681235L559.236623,352.564091Z M610.754886,-728.293398L606.077346,-733.574187L604.601274,-721.330136L581.937532,-728.068684L567.727331,-746.025383L578.207832,-751.982116L593.726260,-751.276189L597.941548,-767.138923L602.672211,-769.824219L611.583038,-767.625009L617.192675,-760.525937L628.142195,-753.069747L627.822516,-745.650142L636.073776,-740.761952L647.083943,-740.077185L649.661485,-733.198198L645.346702,-727.884687L657.346087,-728.541287L656.589114,-737.094712L664.596583,-742.154934L637.020391,-679.554566L622.955682,-697.145554L606.916772,-718.350582L610.754886,-728.293398Z M624.264399,-649.668285L632.102610,-648.140961L631.006716,-642.685448L619.626576,-638.655008L624.264399,-649.668285Z M614.912316,-651.291970L624.264399,-649.668285L619.626576,-638.655008L618.500808,-638.232014L612.927656,-639.898608L605.006246,-647.195983L606.394100,-649.284576L614.912316,-651.291970Z M785.068301,-489.351494L790.265808,-482.352543L794.770202,-471.801658L794.350293,-470.575502L784.374620,-471.999587L778.854240,-476.947071L780.917821,-486.561581L785.068301,-489.351494Z M728.863337,-500.966598L739.318315,-500.755096L743.542748,-493.589985L743.242871,-482.427449L737.057869,-480.257349L733.438774,-488.836891L728.863337,-500.966598Z M739.935439,-474.736049L755.051471,-478.362815L765.638270,-462.646259L774.516180,-457.236175L767.767351,-443.979486L753.822453,-441.415716L747.194816,-445.340595L741.169539,-456.050316L739.935439,-474.736049Z M742.296348,-37.190697L740.258040,-33.672357L721.402576,-24.508726L715.163099,-30.925961L702.708301,-29.712702L696.348087,-38.272293L699.335715,-44.852510L693.350739,-53.731560L693.410016,-73.367284L687.826864,-72.707435L688.396504,-93.534812L681.941905,-99.938134L684.535149,-114.356147L688.535781,-133.349464L697.363396,-145.801484L697.566093,-156.067904L701.591447,-163.732503L709.626371,-160.742051L712.228377,-154.494966L707.706581,-136.405007L703.186379,-120.031211L703.078850,-96.186224L708.481822,-76.424376L712.380780,-56.228869L722.910129,-43.583003L742.296348,-37.190697Z M766.106953,-309.777272L776.197868,-309.761661L771.410960,-314.214401L771.710836,-326.656311L781.182021,-336.082104L788.534711,-339.549748L799.202565,-338.220977L805.564235,-332.769673L817.197311,-319.187247L823.193698,-314.846273L826.054265,-320.902201L831.003929,-328.167750L826.947113,-333.034229L839.828027,-335.127392L834.394597,-337.664389L830.450275,-346.110923L831.523993,-362.949410L840.754779,-364.640143L838.964498,-387.409916L823.622048,-386.003519L824.046706,-397.396071L821.322248,-405.586364L828.710426,-415.902577L840.294530,-420.866367L849.683543,-419.193668L862.363049,-429.341782L866.522110,-440.217521L843.956059,-440.891152L848.397303,-452.090363L838.592428,-460.020592L838.540160,-472.472266L831.071373,-474.625491L828.305069,-484.310960L813.812449,-473.976229L801.828230,-477.379319L779.619461,-525.819488L785.486573,-535.728770L785.345478,-555.948001L762.278295,-571.976859L754.053349,-582.419866L755.119534,-591.012810L765.740399,-599.511528L762.308045,-608.425641L751.572516,-611.524758L740.380373,-618.417227L730.832699,-628.444065L717.293971,-633.977942L715.186540,-652.828276L703.251477,-652.558193L702.193699,-640.569450L694.668913,-635.596765L675.970042,-649.603682L661.060014,-654.544619L644.301885,-669.339290L637.020391,-679.554566L664.596583,-742.154934L664.699154,-742.218244L679.554695,-745.222180L690.731743,-740.023568L686.654887,-750.990812L687.261525,-765.411141L684.772112,-770.979244L686.641615,-777.642132L691.150721,-780.822770L707.905085,-771.173524L741.763897,-771.422254L751.552275,-769.327889L773.419919,-772.290266L794.099645,-773.607254L802.600289,-777.818333L809.096264,-761.152604L843.223806,-756.670770L843.029315,-749.377042L857.361902,-748.878185L868.022451,-738.953644L879.540672,-744.637382L903.612004,-747.705898L908.713274,-752.488307L900.674105,-762.922671L921.206518,-778.456258L931.121058,-772.057671L946.845304,-777.889308L948.407655,-785.724837L973.602229,-777.179025L993.400979,-785.798963L1012.462895,-775.225199L1030.551022,-782.049610L1059.637134,-776.821287L1052.954623,-767.287534L1034.901684,-750.506523L1006.036634,-725.693334L980.533525,-716.943679L964.103873,-718.011222L956.662897,-713.850660L939.708627,-723.444426L905.961636,-722.936519L876.735301,-722.842765L850.472876,-724.541453L825.680780,-711.883559L836.948615,-706.104907L852.713265,-712.498169L889.089126,-709.190261L878.626181,-690.229947L903.842912,-676.845613L948.651435,-675.463139L951.580593,-687.544835L973.274383,-672.541295L986.693081,-660.945064L974.425814,-655.395938L983.103927,-641.656874L999.936088,-635.351810L1017.226215,-608.168488L1042.343815,-581.100929L1096.059789,-560.441750L1159.902636,-529.059142L1154.364548,-546.457124L1163.500851,-553.775575L1162.291077,-565.151871L1149.373718,-570.304473L1144.143429,-582.319012L1155.275421,-602.552458L1170.540390,-606.545804L1193.925705,-601.589783L1216.366012,-604.887443L1248.756385,-604.515550L1285.486879,-588.940283L1300.505302,-585.935541L1330.807383,-569.329285L1360.563839,-551.426088L1375.409145,-542.349855L1393.821552,-522.793554L1397.364177,-513.459610L1391.316645,-504.485946L1411.532636,-483.914794L1418.549013,-481.145593L1418.549067,-481.145571L1418.549231,-481.145506L1418.549084,-481.145403L1415.852471,-479.277053L1415.852011,-479.277081L1406.230317,-479.847669L1403.420743,-487.460145L1380.306975,-490.662108L1365.187884,-487.513971L1354.529932,-499.799644L1351.970520,-516.814008L1330.075896,-525.907019L1307.531883,-529.851008L1298.556254,-534.671336L1278.731367,-540.454710L1292.861317,-519.351182L1304.573683,-508.196236L1311.432257,-488.069138L1295.135599,-482.804635L1286.181162,-467.633128L1286.228697,-445.567166L1268.464323,-441.604098L1257.643360,-437.711660L1250.419467,-433.434977L1232.567027,-426.733478L1227.750342,-416.697974L1225.536578,-399.557493L1228.824668,-384.081317L1234.572918,-369.213483L1245.590512,-358.313578L1249.416104,-364.262376L1260.192785,-363.064307L1267.289086,-355.464188L1289.146701,-341.146438L1297.689792,-339.828709L1311.365247,-319.599947L1304.873979,-305.779812L1306.942944,-290.269911L1300.572189,-285.180333L1298.518627,-278.157236L1311.738716,-256.129841L1314.137983,-238.509402L1318.054602,-225.373265L1313.546178,-210.433815L1312.454966,-198.693133L1301.894746,-194.533161L1291.201672,-185.764935L1286.832227,-174.508538L1286.541342,-158.254287L1287.686004,-145.430231L1276.150266,-131.801144L1261.850645,-135.628721L1253.750318,-124.139790L1248.816014,-114.743447L1237.656342,-105.669750L1252.658141,-84.644807L1264.678430,-83.891402L1273.333611,-66.071359L1262.963327,-51.776889L1257.996007,-40.725996L1246.891064,-37.917779L1241.813332,-26.426768L1232.388312,-20.066135L1232.702333,1.661074L1236.573159,32.234461L1233.245586,45.733577L1232.229577,50.947662L1219.148923,49.327434L1213.343987,64.561518L1203.916764,63.792941L1196.403940,68.602662L1184.217734,66.301089L1177.848105,69.584652L1172.366423,87.111574L1154.179576,93.019831L1158.390967,105.045431L1104.733163,91.763608L1084.424526,92.409649L1082.315937,85.021245L1078.174994,119.339447L1071.807763,128.184839L1064.747452,119.716610L1050.362462,125.264137L1045.740167,137.127894L1029.182093,124.427004L1012.532926,134.865437L1010.955026,147.775064L995.302869,171.661839L994.270047,179.002694L965.824234,210.408418L965.567042,219.025862L979.940431,225.295857L973.988855,236.090970L978.785069,239.284965L975.053074,253.839301L998.205112,253.927187L1001.074718,263.474400L986.847489,272.622373L987.153930,279.568737L968.910364,279.565224L953.138419,290.261741L946.428026,304.217779L930.222801,304.580416L900.818048,305.465658L884.624105,314.576233L871.415309,344.914521L875.895274,358.666375L859.811659,353.526238L859.161016,377.403440L864.059200,379.626746L862.988553,396.298207L878.054315,404.237201L886.613877,399.792532L899.336247,408.358516L902.116665,418.191652L909.481323,418.248452L908.563528,431.505924L897.920941,439.882750L893.021726,464.051542L911.412346,476.295730L915.007992,489.088923L937.806655,504.091229L937.806519,504.091531L932.841873,514.940411L932.371410,520.571293L925.975812,521.910714L912.581824,514.760356L908.609865,515.719472L898.668554,514.933910L891.855810,509.062672L878.112947,510.113568L871.042547,516.100631L867.532552,513.552424L846.444029,511.303380L825.845754,515.035278L813.575699,515.523996L812.584407,518.251819L791.042615,507.661386L773.960205,504.963613L759.679232,497.029239L768.476479,491.387577L775.016683,472.558183L765.811974,467.190469L782.383269,453.968837L780.855418,449.975565L770.406091,456.406031L768.470283,447.942058L773.414745,440.775077L785.006114,435.673056L785.046286,428.822170L779.202613,419.381851L781.084688,408.027266L779.230693,402.595181L759.825357,402.026135L752.910400,404.308992L743.092543,397.628896L734.765454,403.160175L717.907313,400.505266L717.242611,396.713427L711.014574,389.557539L701.400438,390.926839L699.054220,385.260526L701.070556,380.719178L691.160411,371.710060L679.574349,376.231911L675.849322,376.026697L673.809783,380.983933L669.295356,381.104577L669.295085,381.104584L664.012260,369.435544L660.073425,363.619280L661.919296,361.399355L671.243212,360.182378L674.770128,355.069688L670.436209,350.682376L662.165579,348.894423L662.138572,345.307834L656.899309,342.732646L647.534872,331.548803L648.888294,325.940263L646.089036,317.164274L634.721231,314.531653L629.473975,317.798014L627.133337,313.289985L615.081474,310.268958L609.938716,299.425774L607.642911,290.226994L601.995994,286.510058L605.510522,279.772377L599.844598,262.263913L605.194575,250.150123L603.193070,247.021696L603.193126,247.021622L612.425115,234.672393L600.928373,227.154380L600.928352,227.154366L616.417121,199.390418L622.495385,186.791810L623.718919,176.433606L608.289091,165.881330L609.265437,152.836142L599.078283,140.033335L601.263324,122.750085L588.117219,102.720756L592.191450,87.187433L578.754297,76.454994L577.392351,62.985521L582.621928,60.288181L592.569432,50.514552L592.569647,50.514332L597.885920,42.525583L611.685078,51.309040L631.329669,50.832384L664.211521,63.372765L672.869177,70.106408L678.064973,82.014258L673.618210,94.443956L663.178540,103.356890L625.419318,98.624183L620.533273,102.328624L636.588218,113.007324L639.499861,121.560836L645.331943,140.563913L657.451846,143.438833L665.316137,146.447615L663.559453,137.123347L656.265060,130.529438L659.104828,122.029937L681.981266,127.528927L686.968057,120.800877L676.866662,109.174565L687.310784,85.139103L694.399389,83.598537L703.850804,87.146397L702.534292,73.141475L691.978849,64.921708L690.551331,52.878822L680.743025,43.835552L701.679669,41.625582L710.315550,49.704371L702.902170,55.726705L707.618715,65.538412L715.973691,69.130660L724.696302,60.330293L720.548647,48.443430L729.609049,33.311211L742.232140,6.697329L747.213907,4.767780L747.857641,18.393478L756.524305,15.479303L757.027089,7.170158L767.667137,-0.576861L771.162917,-13.091804L784.896957,-8.397875L782.879269,-23.416069L770.000188,-27.995330L768.597749,-35.161244L787.650315,-42.890356L798.823822,-44.376081L832.927010,-45.223220L828.622975,-55.786037L816.114730,-58.188045L812.925411,-61.001108L805.792982,-56.782182L800.630699,-64.960951L787.094232,-73.558883L782.418978,-77.928187L777.228801,-98.223203L766.384786,-113.153660L766.257693,-118.759890L780.042644,-126.332051L789.506666,-120.223809L798.459032,-105.656204L805.842918,-104.400851L817.968548,-96.968876L838.127326,-78.169869L852.451360,-75.994493L860.819585,-65.083958L872.756701,-35.474151L880.744049,-39.937430L877.275574,-46.965685L878.649740,-56.554731L872.232408,-64.421009L868.695902,-75.288540L857.204607,-79.271814L848.802229,-90.043809L842.885123,-85.375463L833.190196,-91.214336L820.620652,-107.764736L802.750552,-111.843763L798.676846,-128.348509L786.437618,-135.937462L787.769768,-138.388200L798.554592,-134.101983L812.749304,-120.666102L819.612187,-123.604203L806.251080,-130.025344L805.491813,-142.408145L811.249103,-152.752264L826.711865,-155.611742L809.671897,-160.135035L791.028729,-170.995216L792.217145,-180.842971L799.056922,-191.316675L801.698954,-202.517376L790.353731,-203.485065L780.750009,-214.350919L782.494145,-219.570178L776.690250,-231.910476L778.300906,-244.215335L773.505103,-247.500360L775.085127,-259.260875L780.427733,-261.483906L772.218344,-273.962810L774.068012,-281.702632L765.638416,-284.722284L757.724305,-290.347096L750.624783,-301.145306L757.769469,-307.055146L762.304129,-300.822422L766.106953,-309.777272Z M738.550353,-305.677749L743.317734,-283.037246L718.181628,-295.084462L716.331433,-298.281634L717.985292,-300.612015L730.393347,-307.844179L738.550353,-305.677749Z M604.772367,-177.393023L602.392751,-173.126359L600.584651,-170.486481L601.835923,-167.563748L599.973459,-163.018272L594.436314,-165.385509L593.140796,-171.441134L586.382747,-168.901593L590.325285,-174.616078L594.472909,-176.964687L597.748579,-172.811187L596.940933,-177.610132L597.810592,-181.709843L604.178494,-180.462582L604.772367,-177.393023Z M724.485744,-289.089870L725.394479,-280.863730L717.244871,-272.804772L708.137380,-269.589077L693.418580,-271.667892L688.200382,-268.902042L677.366666,-280.549775L674.576542,-287.713715L685.878168,-290.740555L706.612489,-293.636593L724.485744,-289.089870Z " data-code="ru" data-name="Russia" data-population="140041247.0"/>
    <path d="M554.673991,530.915863L546.121544,526.776024L544.329965,520.677997L536.700316,513.359620L528.259004,512.777429L518.018376,518.117528L518.018444,518.117675L521.462540,525.565279L525.931749,530.989045L520.792795,538.405895L520.792734,538.405983L525.797671,538.237716L522.516395,546.846157L529.425101,554.128541L527.608621,563.295360L524.300785,564.235066L528.135494,567.463203L530.278974,570.087413L535.012486,572.028436L540.582082,575.850539L539.465135,577.554598L542.834277,576.029917L544.556424,569.523324L547.059525,568.341442L549.193338,570.979850L551.905968,572.056958L553.913810,575.041338L556.305503,575.829046L559.266585,579.262711L561.295064,579.040473L559.934358,583.839290L558.330447,586.234371L558.884250,587.658426L563.733345,586.248589L570.390551,585.509324L572.587129,582.624690L570.887912,580.430670L572.905571,574.118101L577.922211,567.687809L570.506214,559.829588L568.803161,552.849415L571.965620,548.225818L569.200380,545.028690L572.200965,541.541097L568.632265,539.367281L564.551877,543.987735L556.166629,538.840453L554.673991,530.915863Z " data-code="rs" data-name="Serbia" data-population="7379339.0"/>
    <path d="M564.368436,454.363430L551.879402,447.669066L542.921365,450.881981L536.865992,449.148122L529.529381,453.579838L522.957499,446.878340L517.824301,449.630270L517.089467,448.470885L513.324384,448.556951L511.409441,452.080343L508.507792,452.956567L507.712233,457.383811L505.276619,458.323424L504.941092,460.132166L500.576612,462.154692L494.902558,461.811688L493.057075,466.072802L492.003673,468.530539L493.242721,475.270073L499.849544,480.265931L504.671432,482.371717L515.612481,479.876042L516.596938,475.959200L521.747322,475.279799L527.984298,472.099805L529.420936,473.298187L535.417309,470.665253L538.266927,465.979838L542.429278,464.614186L556.520398,469.782032L559.153528,467.628942L561.168990,459.650715L564.368436,454.363430Z " data-code="sk" data-name="Slovakia" data-population="5463046.0"/>
    <path d="M487.468592,506.658446L484.961864,500.070884L482.726247,499.819154L480.125308,503.046000L468.435393,503.222254L461.533291,507.381997L450.534676,505.384028L448.612252,514.856558L451.465899,523.270666L448.350563,524.876414L457.827214,525.982877L460.449602,522.813169L464.973468,526.150289L470.320402,526.698586L470.421940,521.278252L475.192184,519.421588L476.686804,511.618016L487.468592,506.658446Z " data-code="si" data-name="Slovenia" data-population="2005692.0"/>
    <path d="M550.851506,125.893463L547.461831,118.652272L544.405708,89.082552L532.008528,76.878495L522.013118,67.999710L517.706998,68.971070L517.164726,81.668380L503.540261,78.869282L501.682384,89.606430L494.633835,89.515322L489.484194,103.153371L481.115807,124.324439L467.188831,150.898008L469.847728,157.660198L466.454042,165.154966L458.022660,164.283392L450.939671,181.958960L449.321869,207.648576L454.467588,217.886856L449.603605,240.404000L440.368159,253.013757L434.953921,263.766401L440.280756,291.808890L447.461639,314.460862L449.682352,333.024082L462.496777,332.844895L469.362028,317.718175L482.432584,320.005845L488.866087,301.923397L493.221670,269.374455L503.706203,264.855809L512.506866,242.858257L503.165053,232.206695L496.444128,218.542734L503.106433,191.258019L519.768939,174.287821L532.624898,158.143514L530.626210,146.391051L537.622563,132.452230L550.851506,125.893463Z " data-code="se" data-name="Sweden" data-population="9059651.0"/>
    <path d="M691.160411,371.710060L679.574349,376.231911L675.849322,376.026697L673.809390,380.983677L669.295421,381.104556L669.295356,381.104577L659.475337,384.205816L656.632354,389.089635L657.622204,398.876269L652.552349,397.880471L641.940095,400.646623L638.091227,396.662107L634.140321,400.724945L629.229485,398.631353L619.773029,399.606966L605.858849,396.725869L593.653109,396.612106L584.462295,398.000490L578.392083,403.868179L572.710320,405.124911L580.273906,421.505274L579.435603,427.056946L573.496170,429.836174L563.352678,446.816674L567.220865,455.296773L564.368436,454.363430L561.168990,459.650715L559.153528,467.628942L566.663666,472.422935L567.925160,477.553178L573.230056,472.986085L581.417502,474.474521L589.734083,473.793940L596.209421,477.928593L600.346829,474.500045L609.702518,471.579526L612.429153,466.682281L617.851583,466.018027L620.559024,462.781698L628.807704,459.735014L639.067454,464.379232L644.445140,464.297951L651.034446,468.554513L651.110949,475.216697L656.326196,477.592087L659.484681,485.308219L664.851774,489.412994L664.387998,492.431870L667.165332,493.954565L663.898842,495.972293L656.011577,496.698263L654.302471,494.247742L651.768271,496.218625L653.220592,499.512855L650.479390,506.209117L649.087634,513.162349L645.990538,515.757300L652.521887,518.393304L658.406559,514.307027L665.029965,516.602921L673.090384,500.641915L676.181743,489.203329L687.893604,484.537768L690.132556,491.489190L711.537633,492.043744L716.267959,495.558479L704.867980,504.645774L703.228122,508.795503L718.986853,511.229824L717.869013,520.832374L726.204449,523.023660L742.025127,507.709824L755.794149,500.712618L756.695189,493.287096L743.527539,497.908416L736.004411,494.938307L732.516764,483.326358L742.003264,473.460900L753.794410,469.279141L760.692367,460.826698L770.406091,456.406031L768.470283,447.942058L773.414993,440.775243L785.006114,435.673056L785.046466,428.822213L779.202791,419.381826L781.084688,408.027266L779.230881,402.595009L759.825357,402.026135L752.910400,404.308992L743.092543,397.628896L734.765454,403.160175L717.907313,400.505266L717.242700,396.713095L711.014574,389.557539L701.400438,390.926839L699.054220,385.260526L701.070556,380.719178L691.160411,371.710060Z " data-code="ua" data-name="Ukraine" data-population="45700395.0"/>
  </g>
  <g class="" id="mountains">
    <path d="M420.448473,219.560960L418.749290,218.893285L417.729279,218.724843L416.728987,218.730485L414.682932,218.996620L413.250928,219.028949L410.430928,218.631070L408.998467,218.582276L407.930939,218.972248L406.783218,219.840203L404.580771,221.962609L404.023439,222.610980L403.446736,223.455150L399.067810,230.722124L396.360798,234.759601L395.151096,236.864837L394.243399,239.370829L393.619690,242.792001L393.727916,248.406276L395.296892,252.200219L397.827941,254.201989L400.803714,254.438743L403.585949,253.519442L406.472364,252.050229L407.214701,251.577808L412.063427,248.457288L413.091978,247.529138L413.846336,246.399288L415.294836,243.512992L416.473194,241.706655L420.300078,237.288243L420.743113,236.582625L421.157949,235.770908L421.543759,234.869764L421.897866,233.892061L422.415906,232.133980L422.830058,230.287491L423.133701,228.424693L423.316064,226.623095L423.290900,226.266410L423.072799,223.124655L422.002551,220.872298L420.448473,219.560960Z " data-code="Hardanger-vidda" data-name="Hardanger-vidda"/>
    <path d="M454.905016,467.515183L455.930986,466.200183L456.840005,464.455057L457.160681,462.582615L456.944961,460.825453L456.240772,459.425106L451.739886,452.703070L444.433013,443.443423L443.017286,441.916652L441.370245,440.994071L439.232319,440.423071L437.116628,440.572562L435.527339,441.815569L434.607369,444.652922L434.927024,447.490633L436.061973,450.160317L437.578138,452.492465L448.274857,464.486773L451.292559,467.169490L452.942466,468.107281L454.026893,468.185950L454.905016,467.515183Z " data-code="Bohmerwald" data-name="Bhmerwald"/>
    <path d="M618.673735,528.219264L624.214117,525.156401L624.290890,524.814740L625.530839,519.244873L623.909951,515.743757L621.290236,513.129527L618.266981,511.491883L615.424565,510.924047L608.836564,511.370106L571.560103,517.676386L569.212986,518.387464L566.550820,519.411783L563.801371,520.798474L561.200945,522.599744L559.535237,524.202025L558.159988,526.074890L557.166924,528.239216L556.649084,530.718229L558.980841,537.674675L559.312050,538.656526L561.275729,539.257382L566.231813,540.754021L567.006241,540.985325L571.103675,540.453457L575.920321,539.806582L581.940271,537.445662L582.247763,537.323837L585.109222,535.811118L587.957160,534.757709L603.741580,530.075198L607.110153,529.590507L609.517913,529.481338L611.953748,529.365039L618.673735,528.219264Z " data-code="Transylvanian_Alps" data-name="Transylvanian Alps"/>
    <path d="M570.123511,452.129423L568.732065,449.878074L566.804913,448.062771L562.782826,445.304794L556.725144,441.970797L550.949880,440.328859L540.603916,439.104380L528.316894,437.491561L522.583436,437.254336L516.126975,438.351022L513.044540,439.216723L512.707453,439.374549L510.321658,440.486474L508.132793,442.929263L506.651401,447.314835L506.418943,448.896026L506.317124,450.499945L506.349510,452.098154L506.516572,453.659813L506.981304,455.725508L507.717208,457.584768L508.730939,459.159844L510.025263,460.369203L514.836501,461.643592L520.206325,460.407676L530.504881,456.395794L535.145045,455.748229L554.045914,455.402720L556.321837,455.559081L558.606076,456.081329L564.397319,458.045284L566.397652,458.424943L568.433655,458.290007L570.068324,457.316289L570.798936,455.324154L570.123511,452.129423Z " data-code="Tatra_Mts." data-name="Tatra Mts."/>
    <path d="M564.301203,660.551290L566.979968,659.422651L569.147631,657.506839L570.509189,654.040008L570.109711,650.289145L568.666144,646.602108L566.881470,643.326209L565.216319,640.875109L563.369010,638.745853L559.365596,634.870428L555.918619,630.779180L553.246737,626.185391L544.076065,605.381154L543.401205,604.018937L542.475595,603.098472L541.112489,602.806962L540.084888,602.958640L539.161851,603.306395L538.320150,603.863093L537.543713,604.641259L536.749388,605.916599L536.236373,607.421663L535.963190,609.068448L535.882945,610.764214L535.906346,611.665457L536.092769,614.459592L536.193832,622.879473L536.592658,625.643902L537.222298,628.335326L538.012809,630.951090L539.727744,635.045771L541.847417,638.387855L544.365784,641.327094L548.845097,645.851313L550.215511,647.577911L551.453286,649.470385L551.474515,649.509098L552.628502,651.609585L552.700468,651.772176L555.010146,656.968224L556.588738,659.288869L558.478395,660.444344L558.784407,660.630974L559.156529,660.674046L561.455121,660.937374L564.301203,660.551290Z " data-code="Pindus_Mts." data-name="Pindus Mts."/>
    <path d="M488.140656,630.912414L488.404226,630.084031L488.392538,629.388320L487.748314,628.669330L486.722802,628.392342L485.637386,628.443781L484.813626,628.707628L480.957427,630.991464L479.750995,631.479857L479.128552,631.731174L477.108841,631.984193L475.418543,631.908362L474.502495,631.984612L473.879369,632.245507L473.803049,632.277429L473.475000,632.814461L473.352662,633.564973L473.336671,635.073676L473.392364,636.924633L473.745893,638.883725L474.389333,640.692320L475.323186,642.093055L476.184262,642.968155L476.544187,643.455233L476.849977,644.089539L477.113981,645.006842L477.244863,645.944938L477.382066,648.712556L477.503721,649.584272L477.687135,650.438291L477.937183,651.214610L478.343842,651.871324L478.863955,652.439277L479.314966,653.054005L479.517885,653.850178L479.149511,655.322526L478.181101,656.059303L475.767837,656.691542L475.212805,657.032953L474.759681,657.585921L474.456355,658.286855L474.347155,659.076795L474.489561,659.809888L474.767038,660.534117L474.971757,661.262553L474.895450,662.007211L474.415883,662.858339L473.759275,663.531041L473.012828,664.070623L471.565262,664.967022L471.128639,665.432913L471.104030,665.494740L470.911609,665.977969L470.867835,666.087846L470.705871,667.100622L470.532578,668.603757L470.444130,670.259512L470.640499,671.837592L471.316721,673.106188L471.851655,673.446243L472.465628,673.546747L473.713921,673.500205L476.381823,673.628922L477.271320,673.555986L478.216500,673.309327L478.915408,672.849288L479.387910,672.109594L479.945581,669.604151L480.411371,668.323778L481.065979,667.186254L481.914637,666.198435L482.418377,665.768441L482.949153,665.398635L484.531249,664.520609L485.055026,664.172096L485.552812,663.774769L485.947266,663.370090L486.215002,662.875503L486.342806,662.309762L486.386713,661.700634L486.389784,660.527218L486.361873,659.985449L486.304031,659.449193L486.207032,658.911272L485.975012,658.092697L485.891991,657.664356L485.902223,657.244209L486.317617,656.434551L487.074845,655.858191L487.946988,655.467378L489.844246,654.911176L490.927335,654.747175L492.015014,654.695212L493.161724,654.726163L493.788688,654.442453L494.139894,653.764951L494.420074,653.086975L494.828456,652.800414L495.343111,651.360173L495.601364,649.716076L495.683199,648.019299L495.660926,646.420909L495.503968,645.313065L495.136057,644.398619L494.581744,643.615075L493.872893,642.894018L493.039132,642.240058L486.695436,638.601242L486.370915,638.354612L485.792850,636.989842L486.087045,635.313997L486.797864,633.648804L488.140656,630.912414Z " data-code="Calabria" data-name="Calabria"/>
    <path d="M425.138794,408.689794L427.139605,405.789144L428.010820,402.994140L426.297142,399.333264L421.686479,396.347632L420.324310,395.794433L412.455916,392.542860L409.485328,391.776392L407.334982,392.391763L405.933575,394.189988L405.618019,395.424472L405.222340,396.969931L405.988287,402.162359L409.124995,405.493155L418.161123,409.834462L422.105172,410.454157L425.138794,408.689794Z " data-code="Harz" data-name="Harz"/>
    <path d="M365.346766,470.455027L368.374990,466.825196L370.541594,461.998182L372.262541,454.539266L373.884717,452.364033L378.505488,448.412131L380.568336,445.829742L381.867080,442.950121L382.490778,439.885243L382.528283,436.744046L381.476752,434.679775L379.343775,434.343480L376.974087,435.090095L375.214023,436.280192L364.700244,449.802068L360.766101,455.771382L358.585870,460.914968L357.996147,465.566794L359.058879,469.198910L361.827936,471.275582L365.346766,470.455027Z " data-code="Vosges" data-name="Vosges"/>
    <path d="M497.282384,440.584984L498.777292,439.435508L499.803616,437.464082L499.915065,434.840716L498.606976,431.971858L495.989503,429.047453L488.710288,422.429003L482.617890,418.863818L474.078877,415.788328L461.665880,412.663973L460.363701,413.261553L459.732516,414.861015L459.634910,416.951480L459.933132,419.021960L460.774299,420.785141L462.423988,421.930091L465.100745,422.679419L475.901880,424.369871L478.484107,425.346156L481.308961,426.933275L484.464723,429.239441L486.974254,431.693395L488.910942,434.181802L490.347666,436.588272L491.876842,438.548384L493.666345,439.831660L495.151849,440.531037L495.772976,440.742867L497.282384,440.584984Z " data-code="Sudetes_Mts." data-name="Sudetes Mts."/>
    <path d="M433.546351,436.290239L434.824848,435.549676L435.825375,434.781759L441.739243,430.949049L444.227164,429.639323L449.827025,427.343678L456.154182,423.859586L457.402487,422.938113L457.730730,421.707954L457.482296,420.965636L456.839611,420.457055L455.546474,420.274224L453.351120,420.506847L450.111042,421.237868L441.852457,424.084454L437.681947,426.091260L433.961267,428.326371L430.894516,430.505378L428.702460,432.377217L427.608682,433.687148L427.314546,434.956136L427.332444,436.512120L427.610102,437.812748L428.087645,438.313834L433.546351,436.290239Z " data-code="Erzgebirge" data-name="Erzgebirge"/>
    <path d="M348.435307,434.389528L355.497844,431.175053L359.079915,426.252659L356.864966,420.495609L350.222463,417.988780L342.976135,417.526087L338.961794,418.003196L336.385154,420.606838L334.131110,424.968900L333.334906,429.783470L335.145343,433.742114L340.695314,435.386829L348.435307,434.389528Z " data-code="Ardennes" data-name="Ardennes"/>
    <path d="M342.994950,502.815340L344.364500,501.856495L345.613466,500.522804L346.109252,499.722315L346.924021,497.852870L347.414376,497.000727L347.929530,496.366066L351.225795,493.090163L352.885854,491.597471L354.606588,490.312233L356.385117,489.360732L375.272210,481.970275L375.756940,481.436666L375.286616,480.567662L374.223229,479.716903L372.929515,479.238418L371.783639,479.010215L370.877799,478.616891L370.136205,477.986444L369.480754,477.041375L368.870381,476.034792L368.137124,475.318328L367.004072,474.967885L365.200431,475.055078L361.357702,475.799025L357.539788,477.080730L353.879197,479.178835L350.496950,482.371162L346.041922,487.483663L344.696002,489.356740L344.383771,489.877135L344.081408,490.438737L343.043300,492.885630L342.221337,495.638914L341.675679,498.441776L341.462198,501.044963L341.895776,502.758006L342.994950,502.815340Z " data-code="Jura" data-name="Jura"/>
    <path d="M255.321458,283.316926L256.510041,283.269328L257.345163,283.234738L261.846522,281.928129L262.035144,281.872697L262.787851,281.650945L263.134312,281.548581L277.267209,277.212897L294.143755,273.921181L296.329871,272.415835L287.394985,267.003216L275.314557,269.404479L263.681786,275.214961L256.414741,280.235525L255.663875,280.765531L255.010668,281.464686L254.455535,282.330843L253.997762,283.367681L255.321458,283.316926Z " data-code="Grampian_Mts." data-name="Grampian Mts."/>
    <path d="M255.535873,370.439293L257.332251,366.927748L258.411000,362.595935L258.732868,359.251978L259.235292,356.221339L260.482135,352.327094L262.744838,346.148868L262.690436,343.855172L261.291751,342.269702L256.888144,339.505091L255.238613,338.858746L254.244680,339.835402L251.330731,346.717777L250.989151,348.029980L250.919881,348.296312L250.516022,349.850595L250.181557,351.427113L250.081885,351.897784L249.842764,353.028599L249.160944,355.796170L248.258369,357.987421L247.089498,359.687989L245.751145,360.827342L244.342467,361.334225L243.409883,361.959889L243.271486,363.267846L243.684346,364.902984L244.406408,366.504929L245.679920,367.887758L247.730710,369.126885L253.060717,371.318593L255.535873,370.439293Z " data-code="Cambrian_Mts." data-name="Cambrian Mts."/>
    <path d="M585.975088,561.329783L581.206843,560.567023L571.717641,557.294796L568.614098,556.640245L568.004521,558.851871L569.877932,563.838750L573.318698,569.554679L577.390555,573.953704L582.996789,576.479643L590.801958,578.021312L607.650047,578.789504L623.992817,576.562850L634.302617,572.104332L639.611852,567.152045L641.007018,563.345824L640.271494,559.448822L638.870849,557.615517L636.868026,556.987467L634.328038,556.708486L630.745084,556.696350L626.012562,557.376144L620.796503,558.652398L615.764092,560.443766L609.268630,561.745787L585.975088,561.329783Z " data-code="Balkan_Mts." data-name="Balkan Mts."/>
    <path d="M479.308271,527.921573L468.845475,519.482282L465.980331,517.626755L458.885467,513.752542L454.947444,511.567349L452.048937,511.079855L449.021748,512.379832L447.207441,515.222497L447.272733,515.579184L447.970152,519.368349L448.592167,520.800862L448.784874,521.243682L449.021737,521.907363L449.110869,522.156837L449.318334,522.736945L449.432664,523.056294L450.254196,524.776124L451.590544,526.370628L452.703375,527.369457L453.287921,527.798553L453.879574,528.074726L454.548036,528.165581L455.932597,528.092075L456.509880,528.160134L456.601632,528.170919L457.942622,528.893743L459.556372,530.239343L461.067383,531.845878L462.095744,533.359661L462.380186,534.252670L462.478043,535.203808L462.514855,536.173965L462.609713,537.127275L463.233982,539.286368L463.838279,540.519805L464.259356,541.377233L465.526121,543.207357L466.717198,544.424293L466.872292,544.582442L469.392414,546.381846L470.195601,547.589043L470.251198,548.359232L470.317826,549.280061L470.332967,549.488987L470.196743,551.242450L470.303743,552.653732L470.718971,553.879629L471.506030,555.072968L473.782887,558.093604L474.142409,558.568529L474.363268,558.860009L474.435755,558.955629L474.529470,559.079217L475.006101,559.572746L476.826169,561.451147L477.690141,562.614475L477.958617,562.975311L479.147849,564.308828L480.428062,564.972098L480.494485,565.006446L484.839293,565.372734L486.855128,565.868159L489.001823,567.125981L494.245486,571.108946L496.960205,572.828201L497.705074,573.424581L499.174319,574.893435L500.778505,576.316609L500.823558,576.356491L502.588199,577.541292L503.908316,578.309215L504.084266,578.411362L505.651668,579.319215L506.428600,579.767821L506.649591,579.895253L507.678693,580.487690L507.851339,580.586921L510.184630,581.923561L510.377327,582.033578L510.772378,582.258951L515.043181,585.150200L515.208622,585.261561L515.692655,585.519396L519.541637,587.557736L521.618655,589.325480L522.153968,591.060366L522.390328,591.824748L522.978774,592.425441L523.378473,593.208285L523.718028,594.058436L524.129750,594.859606L525.292990,596.167723L526.760210,597.130510L528.342455,597.599356L529.849515,597.436068L530.291973,597.221808L530.444029,597.091576L530.577109,596.977555L530.731655,596.703858L530.782343,596.401196L530.706536,595.812705L530.550457,595.137866L530.450823,594.377525L530.549176,593.527689L531.243398,592.191658L532.301077,591.144334L533.444362,590.191280L534.397376,589.136652L535.876700,587.191351L543.564778,579.096224L545.191573,578.207474L547.252105,578.096531L548.588491,578.697533L550.915763,580.823375L552.110491,581.436388L552.761901,581.283671L553.451655,580.751204L556.842580,576.905734L557.934636,575.432180L558.677926,573.954146L559.008243,571.315765L558.660328,568.275632L557.919374,565.290072L557.067365,562.813264L555.950862,560.261156L554.523319,557.519379L552.930976,555.000948L551.317041,553.124443L549.571085,551.614359L548.787914,550.802520L547.300272,548.632335L546.548506,547.671796L545.708658,546.853232L544.703092,546.151392L542.458416,545.102761L535.531381,543.038579L533.968972,542.405793L533.667984,542.283530L530.392496,540.945449L527.774098,540.121574L495.095173,534.953101L487.145718,532.647594L479.308271,527.921573Z " data-code="Dinaric_Alps" data-name="Dinaric Alps"/>
    <path d="M211.909718,529.154917L209.463081,527.980977L206.917372,526.258117L177.841721,515.310859L160.315679,510.859640L157.247814,510.972482L154.165318,512.314262L152.745723,513.647366L152.085850,515.058686L152.046242,516.496623L152.488599,517.910257L153.237133,519.200000L154.177903,520.374235L155.181802,521.384890L156.121719,522.187829L159.825102,524.503118L163.715825,525.925707L176.380211,527.734258L219.317457,541.155883L225.070087,540.757275L225.999481,538.717667L227.229987,536.013704L226.674785,534.588238L226.337746,533.719808L224.464554,532.521870L223.986032,532.404650L222.798080,532.112590L214.541592,530.040978L211.909718,529.154917Z " data-code="Cord._Cantabrica" data-name="Cord. Cantbrica"/>
    <path d="M183.132720,650.407922L184.938187,650.588887L186.865659,650.574439L191.439027,650.880863L193.764411,650.874162L195.861961,650.252836L197.345935,649.014610L198.440982,647.358088L200.121762,643.698239L200.916226,641.029375L200.630663,638.821993L199.494631,637.055147L197.733761,635.712424L190.749596,631.327739L188.373063,630.210238L185.225380,629.416718L181.143573,628.889727L176.994017,628.748362L173.644531,629.121832L165.960435,630.806196L162.203691,632.359882L158.964130,635.116604L158.339828,636.072133L158.022360,636.985649L157.971326,637.852242L158.147969,638.667360L158.807668,639.853830L159.788705,640.877890L160.928931,641.721822L162.068776,642.364446L170.490288,646.327200L179.442368,649.561676L183.132720,650.407922Z " data-code="S._Nevada" data-name="S. Nevada"/>
    <path d="M192.402887,614.989900L187.915923,612.835143L183.053350,611.058053L179.765019,609.426715L178.066060,608.786193L176.280731,608.580653L174.555153,608.577641L163.532247,607.161290L161.604526,607.202071L159.940403,607.741152L156.710500,609.700079L155.041386,610.350088L153.893950,610.367804L152.887122,610.021015L150.959992,608.906208L149.986290,608.527064L148.899065,608.309002L147.784932,608.238934L143.621920,608.683791L142.952548,608.824804L141.651629,609.188043L138.119196,609.375890L135.190671,609.831357L132.266767,610.553953L129.419209,611.480062L128.594046,611.941885L127.908805,612.596040L126.566770,614.109601L124.657048,615.788628L123.832564,616.733599L123.130939,618.025525L122.849648,619.174557L123.024357,620.054217L123.556565,620.750252L124.346347,621.349068L126.545189,622.410228L128.955557,622.923880L131.445016,622.900401L136.756730,621.777360L139.555318,621.822450L145.188042,622.313792L157.022873,621.481882L157.998783,621.531881L160.087519,621.891709L161.166173,621.954581L162.210511,621.789703L162.906255,621.433342L164.204396,620.423225L164.897818,620.081399L165.427513,619.998169L168.844794,619.972230L170.563285,620.153979L172.237043,620.577344L178.421336,623.117965L179.790763,624.139360L181.198303,624.887873L182.863820,624.994352L186.243937,624.673843L187.396446,624.743653L190.747377,625.352773L191.562969,625.396416L192.357653,625.253511L193.982310,624.751804L195.264870,624.244647L196.232114,623.470959L196.951034,622.343288L197.490580,620.766922L197.755281,619.217827L197.614599,618.038586L197.052630,617.083599L196.051901,616.213672L195.449003,615.891962L194.773607,615.674752L193.416191,615.348721L192.402887,614.989900Z " data-code="Sierra_Morena" data-name="Sierra Morena"/>
    <path d="M402.017130,260.756701L407.214701,251.577808L415.913513,235.722632L422.811439,226.688471L423.290900,226.266410L430.487641,219.828407L447.366971,201.141582L459.064391,185.120062L494.701465,121.279363L497.639962,116.155837L504.934741,102.885059L515.713154,86.802194L525.166461,75.513093L525.822873,74.699895L546.133273,54.774054L546.869241,51.382639L542.578846,49.244557L535.887529,48.690772L529.303369,50.122458L522.248364,54.868587L502.448601,73.250183L491.575741,84.325349L482.048950,96.393948L473.954008,110.122876L457.111674,140.638931L440.248889,164.818152L430.937953,174.324903L395.356716,199.468061L389.884981,207.940633L386.873326,222.413074L384.915936,239.625411L384.539862,253.143190L387.724623,262.152705L396.431812,265.769954L402.017130,260.756701Z " data-code="KJLEN_MOUNTAINS" data-name="KJLEN MOUNTAINS"/>
    <path d="M540.603916,439.104380L538.919362,439.153360L528.316894,437.491561L522.583436,437.254336L516.126975,438.351022L512.707453,439.374549L509.721577,440.255902L504.618702,442.902884L501.186092,447.670264L499.788825,455.928501L500.683283,459.566988L502.945525,462.833575L507.888492,467.680981L510.972868,470.010320L514.239352,471.236256L521.054322,472.513645L522.997093,473.279332L524.555334,474.440088L527.817160,477.290636L530.677660,478.219986L533.561558,477.728365L533.741112,477.697451L534.038336,477.589076L535.151362,477.182203L539.471584,475.587327L539.667774,475.514310L539.890864,475.455449L542.698065,474.709702L545.720867,473.598782L548.581687,471.936533L551.130414,469.478163L554.992224,463.709848L557.276944,462.177702L561.271592,461.883129L566.389566,463.038633L570.929768,465.381476L574.301514,468.454096L575.903146,471.800991L576.193708,474.799137L575.779944,477.244611L574.264689,479.307624L567.381551,483.609886L563.885716,487.101291L561.165230,491.183248L559.643793,495.417505L557.056462,507.102122L555.858234,514.078244L555.530581,520.583636L555.787684,527.069216L555.906395,528.134379L556.422829,532.758326L558.319263,537.216599L558.980841,537.674675L561.275729,539.257382L562.361321,540.002701L566.192417,540.836582L567.487512,541.114917L572.502151,541.023672L572.625651,540.992056L577.419151,539.751975L581.940271,537.445662L585.109222,535.811118L587.957160,534.757709L603.741580,530.075198L609.517913,529.481338L611.955483,529.220655L616.849826,528.301711L621.557402,526.580032L624.290890,524.814740L625.842178,523.806896L629.320895,519.018703L630.777299,512.840557L630.561329,505.859629L629.024642,498.659300L626.911891,492.678028L624.246624,486.971719L621.199652,481.626603L617.937032,476.731398L615.524303,473.540293L613.075250,470.774614L610.501607,468.470467L607.722816,466.659706L603.641256,464.488548L601.614907,463.679016L599.437456,463.204977L593.960354,461.359701L588.666366,457.793077L578.403131,449.345258L568.603765,442.502795L563.563560,439.786671L558.457921,438.102346L552.427938,437.559355L543.644876,439.008024L540.603916,439.104380Z " data-code="CARPATHIAN_MOUNTAINS" data-name="CARPATHIAN MOUNTAINS"/>
    <path d="M478.015465,634.173913L478.627947,633.611605L479.139481,632.816021L479.593567,631.916572L479.750995,631.479857L480.127703,630.433532L480.417751,628.851575L480.543959,627.220598L480.586227,625.590381L480.443610,624.045256L480.020856,622.678993L479.409189,621.393903L478.705075,620.086541L474.718155,613.628581L469.481129,606.471893L464.069137,600.096188L459.503002,596.001044L455.326358,593.387730L450.965476,590.074734L447.223537,585.523875L444.897927,579.203380L442.966160,571.842278L439.664720,564.708407L434.667838,558.079754L427.644226,552.221409L390.190515,529.554701L385.860153,528.103936L382.513424,530.238009L381.967344,532.675887L382.413035,535.137747L382.528406,535.771770L384.123278,538.867929L386.671406,541.302694L388.987993,542.786764L395.213112,546.728368L400.498919,549.339675L408.737248,551.506720L411.663347,553.134032L414.427332,555.289570L421.949930,562.325041L422.958076,563.546594L423.734809,564.914904L425.156355,567.926552L428.435382,573.907838L428.695300,574.639795L429.214937,577.255937L429.814994,582.811245L430.241709,585.511676L430.801501,587.988003L431.475626,590.442451L432.310175,592.794818L433.354888,594.962590L435.974088,598.951215L438.766158,602.075745L441.620900,604.233990L447.632452,606.339893L451.376977,608.088760L455.083748,610.207632L458.159810,612.336608L461.050222,615.238361L463.593103,618.794111L468.191073,626.356788L468.728762,627.052591L470.600474,628.708638L473.621515,632.039718L473.879369,632.245507L475.968583,633.908054L476.572517,634.228491L477.253356,634.369781L478.015465,634.173913Z " data-code="APPENNINI" data-name="APPENNINI"/>
    <path d="M239.186713,533.558493L235.855179,531.514031L234.632725,531.154880L233.106984,531.053603L227.600952,531.389462L226.723354,531.320636L225.001805,531.022576L224.068684,530.714626L223.592491,530.663510L223.161407,530.868423L223.093186,530.940708L223.026727,531.027022L222.963988,531.126674L222.926106,531.199951L222.904384,531.241966L222.770829,531.927858L222.798080,532.112590L222.881192,532.674856L223.113551,533.392539L223.994004,535.475221L224.755157,536.866456L225.999481,538.717667L226.473269,539.420044L228.433544,541.933069L230.540997,544.285508L232.784001,546.428278L235.152764,548.309348L256.464307,558.733548L261.857658,562.066013L264.655214,564.137995L267.728237,565.783136L289.000772,574.034155L291.059167,574.448877L292.069936,574.336220L293.027017,573.791250L293.756899,572.847825L294.087204,571.540139L294.086805,571.423861L294.084842,570.826918L294.050180,570.174860L294.051712,569.511767L294.166910,568.764805L294.573131,564.430301L293.705055,560.779192L291.722740,557.993456L288.783122,556.247452L284.793124,555.022748L280.646171,552.503669L254.060935,539.421390L239.186713,533.558493Z " data-code="PYRENEES" data-name="PYRENEES"/>
    <path d="M470.683188,507.701903L471.451871,505.867637L471.583329,503.548751L471.360483,501.141174L470.809395,497.041647L470.793535,495.514455L471.222981,494.196133L472.303699,492.823003L473.893379,491.360680L477.260709,488.892818L478.970422,487.802140L480.466408,486.046332L481.693497,483.318297L482.527543,480.454716L482.849079,478.286547L482.375683,477.455188L480.887650,475.766678L478.280119,474.435936L474.438826,474.671938L469.015751,475.442049L424.189572,474.380298L416.984728,474.679499L389.731212,479.407277L382.927335,481.086085L375.085962,483.790553L366.886785,487.756718L358.588746,493.028719L353.187506,497.378293L341.749844,507.852143L339.073721,510.633702L336.949523,513.306883L334.925510,516.157334L332.380089,520.735250L329.912653,527.473636L328.941705,534.983606L330.911433,541.877002L334.944674,546.679058L339.280565,549.217180L342.133690,549.709809L344.075147,550.040318L349.489773,549.689139L352.935028,548.954263L357.169932,547.239472L360.565613,544.306916L361.205984,541.328838L361.504077,539.941245L360.967016,534.278220L361.256921,528.233934L362.752029,522.756349L365.825757,518.791802L370.280134,515.545110L375.674255,512.461978L382.042922,510.846265L389.455002,511.993366L412.656290,521.208295L414.378192,521.343227L415.479974,520.698984L417.674101,517.760359L420.121044,515.943375L422.978676,515.130909L425.931817,514.669372L444.918794,508.344341L449.222533,507.301906L453.749643,507.367628L458.246830,508.224556L463.807407,509.916861L465.052804,509.958239L466.285932,509.721492L469.181370,508.660895L470.021533,508.253130L470.683188,507.701903Z " data-code="ALPS" data-name="ALPS"/>
    <path d="M776.218628,497.449841L773.933229,497.576872L771.237927,497.268175L769.830096,497.210883L768.705442,497.508453L768.002569,498.261209L767.855903,498.874643L767.761752,499.267614L767.790479,499.382449L768.025081,500.320557L768.839752,501.208487L769.643902,501.550166L772.511538,502.055912L778.892114,504.081400L780.137050,504.222022L782.678237,504.223063L783.958384,504.464248L792.453748,507.411280L795.847747,508.916278L799.221010,510.663079L803.035392,512.917905L809.163647,517.109472L810.055479,517.487088L810.480420,517.583872L810.875423,517.607717L811.681758,517.587514L812.268008,517.658837L813.269691,517.999485L813.778807,518.129492L819.988406,519.184159L822.194253,519.719292L834.791002,524.048279L835.318880,524.345415L835.815724,524.735672L836.293703,525.193659L836.756389,525.695618L837.527982,526.577037L838.316700,527.393425L839.155848,528.027978L840.080550,528.358072L841.952399,528.325461L850.902761,525.988475L852.373880,525.893883L857.036226,526.561545L858.501906,526.520200L859.948186,526.242437L873.667212,521.227943L875.608389,520.955068L879.890013,521.686700L882.036592,521.772006L884.172920,521.549726L886.318651,521.063837L889.375334,520.902593L892.692541,521.623561L896.085173,522.649492L899.364071,523.401745L901.164795,523.617651L902.834488,523.700726L904.449604,523.558305L906.084985,523.104102L910.390039,521.176510L911.856653,520.699064L915.064961,520.537395L918.509715,521.259792L925.356284,523.686848L928.767440,524.607835L947.416590,527.395410L950.233391,527.483925L952.447363,527.374925L954.924277,526.978031L957.186890,526.054232L958.754008,524.373430L958.711306,521.411572L958.707525,521.405723L958.663497,521.337613L956.702171,518.302396L953.947550,515.550262L946.862809,509.848404L945.223418,508.713152L943.406371,507.753878L941.591174,506.941316L939.831476,505.957620L936.605251,502.976266L935.036951,501.980465L931.480956,500.466786L930.381056,500.072834L922.383114,498.209624L920.638777,497.977841L917.573743,497.886370L915.915793,497.602387L914.564707,496.904249L913.709299,495.810209L912.999299,494.381680L912.813583,493.950587L912.345733,492.864948L912.262062,492.699398L911.658593,491.505461L909.636236,488.866435L908.062111,487.789050L907.568395,487.450461L905.455185,487.229559L903.295135,488.176601L902.667008,488.376901L900.712513,488.997223L894.743441,488.625907L893.857366,488.802216L891.996792,489.169705L889.252626,491.282641L887.001363,493.808080L884.495199,495.756724L881.000807,496.132336L879.625444,495.758382L879.092634,495.520495L878.363975,495.194613L875.973296,493.788121L874.718325,493.208811L869.518283,491.718203L868.952210,491.554133L867.129797,491.211967L865.337187,491.132515L862.031199,491.433897L855.913403,491.962177L855.253288,492.122897L846.952947,494.103018L843.998388,494.300889L843.332905,494.344234L839.759522,494.038236L828.010717,491.853126L826.625204,491.426673L825.535441,490.901838L823.427759,489.535175L822.385601,488.953100L821.220238,488.597783L818.919057,488.451511L817.768228,488.291333L813.416256,486.982897L812.643411,486.748248L810.918619,486.531961L809.286287,486.707223L806.680588,487.548016L804.455700,488.259540L801.083261,488.965552L797.795104,489.642030L795.461299,490.503623L784.103753,494.600157L780.102060,496.399412L778.201064,497.059784L776.218628,497.449841Z " data-code="CAUCASUS_MTS." data-name="CAUCASUS MTS."/>
  </g>
  <g class="" id="city">
    <circle cx="429.040240795" cy="554.101800688" data-code="San_Marino" data-name="San Marino" data-population="29579" data-state-code="sm" r="10"/>
    <circle cx="394.535689254" cy="488.747411756" data-code="Vaduz" data-name="Vaduz" data-population="36281" data-state-code="li" r="10"/>
    <circle cx="357.40218594" cy="435.177047278" data-code="Luxembourg" data-name="Luxembourg" data-population="107260" data-state-code="lu" r="10"/>
    <circle cx="358.291773115" cy="550.647620417" data-code="Monaco" data-name="Monaco" data-population="36371" data-state-code="mc" r="10"/>
    <circle cx="271.965988087" cy="559.661003076" data-code="Andorra" data-name="Andorra" data-population="53998" data-state-code="ad" r="10"/>
    <circle cx="459.674374659" cy="514.620276027" data-code="Ljubljana" data-name="Ljubljana" data-population="314807" data-state-code="si" r="10"/>
    <circle cx="500.028537448" cy="474.766091156" data-code="Bratislava" data-name="Bratislava" data-population="423737" data-state-code="sk" r="10"/>
    <circle cx="525.430636655" cy="584.698353919" data-code="Podgorica" data-name="Podgorica" data-population="145850" data-state-code="me" r="10"/>
    <circle cx="367.077172261" cy="489.592616024" data-code="Bern" data-name="Bern" data-population="275329" data-state-code="ch" r="10"/>
    <circle cx="552.585155378" cy="579.816765116" data-code="Pristina" data-name="Pristina" data-population="465186" data-state-code="xk" r="10"/>
    <circle cx="557.050398605" cy="592.509830549" data-code="Skopje" data-name="Skopje" data-population="494087" data-state-code="mk" r="10"/>
    <circle cx="185.21044092" cy="70.6757107153" data-code="Reykjavik" data-name="Reykjavk" data-population="166212" data-state-code="is" r="10"/>
    <circle cx="650.068222578" cy="485.326991816" data-code="Chisinau" data-name="Chisinau" data-population="688134" data-state-code="md" r="10"/>
    <circle cx="587.639715159" cy="343.010679469" data-code="Vilnius" data-name="Vilnius" data-population="542366" data-state-code="lt" r="10"/>
    <circle cx="569.887422865" cy="300.515616309" data-code="Riga" data-name="Riga" data-population="742572" data-state-code="lv" r="10"/>
    <circle cx="479.635003183" cy="520.184838998" data-code="Zagreb" data-name="Zagreb" data-population="722526" data-state-code="hr" r="10"/>
    <circle cx="571.411586153" cy="251.868731378" data-code="Tallinn" data-name="Tallinn" data-population="394024" data-state-code="ee" r="10"/>
    <circle cx="540.985113437" cy="538.562234422" data-code="Belgrade" data-name="Belgrade" data-population="1099000" data-state-code="rs" r="10"/>
    <circle cx="534.017241093" cy="606.49585938" data-code="Tirana" data-name="Tirana" data-population="895350" data-state-code="al" r="10"/>
    <circle cx="583.323020465" cy="577.490568817" data-code="Sofia" data-name="Sofia" data-population="1185000" data-state-code="bg" r="10"/>
    <circle cx="614.826749664" cy="354.907717703" data-code="Minsk" data-name="Minsk" data-population="1805000" data-state-code="by" r="10"/>
    <circle cx="512.416437849" cy="558.123822055" data-code="Sarajevo" data-name="Sarajevo" data-population="696731" data-state-code="ba" r="10"/>
    <circle cx="520.787193985" cy="487.137869191" data-code="Budapest" data-name="Budapest" data-population="1679000" data-state-code="hu" r="10"/>
    <circle cx="619.361354605" cy="539.891807396" data-code="Bucharest" data-name="Bucharest" data-population="1942000" data-state-code="ro" r="10"/>
    <circle cx="102.222665592" cy="585.631066418" data-code="Lisbon" data-name="Lisbon" data-population="2812000" data-state-code="pt" r="10"/>
    <circle cx="434.217055393" cy="242.971107701" data-code="Oslo" data-name="Oslo" data-population="835000" data-state-code="no" r="10"/>
    <circle cx="541.606293916" cy="394.065336717" data-code="Warsaw" data-name="Warsaw" data-population="1707000" data-state-code="pl" r="10"/>
    <circle cx="230.098154678" cy="328.648263741" data-code="Dublin" data-name="Dublin" data-population="1059000" data-state-code="ie" r="10"/>
    <circle cx="462.136472268" cy="436.39154542" data-code="Prague" data-name="Prague" data-population="1162000" data-state-code="cz" r="10"/>
    <circle cx="571.82697893" cy="237.304847991" data-code="Helsinki" data-name="Helsinki" data-population="1115000" data-state-code="fi" r="10"/>
    <circle cx="445.915609776" cy="326.561860937" data-code="Kobenhavn" data-name="Kbenhavn" data-population="1085000" data-state-code="dk" r="10"/>
    <circle cx="339.336452291" cy="407.906346587" data-code="Brussels" data-name="Brussels" data-population="1743000" data-state-code="be" r="10"/>
    <circle cx="660.180702741" cy="415.914856524" data-code="Kiev" data-name="Kiev" data-population="2709000" data-state-code="ua" r="10"/>
    <circle cx="189.211553182" cy="580.434555997" data-code="Madrid" data-name="Madrid" data-population="5567000" data-state-code="es" r="10"/>
    <circle cx="505.908172875" cy="257.097444805" data-code="Stockholm" data-name="Stockholm" data-population="1264000" data-state-code="se" r="10"/>
    <circle cx="351.450230753" cy="380.080081922" data-code="Amsterdam" data-name="Amsterdam" data-population="1031000" data-state-code="nl" r="10"/>
    <circle cx="451.537586675" cy="388.410857392" data-code="Berlin" data-name="Berlin" data-population="3406000" data-state-code="de" r="10"/>
    <circle cx="596.16729126" cy="667.573471571" data-code="Athens" data-name="Athens" data-population="3242000" data-state-code="gr" r="10"/>
    <circle cx="480.279892452" cy="473.655789069" data-code="Vienna" data-name="Vienna" data-population="2400000" data-state-code="at" r="10"/>
    <circle cx="289.222650556" cy="383.695910012" data-code="London" data-name="London" data-population="8567000" data-state-code="gb" r="10"/>
    <circle cx="716.699293318" cy="296.039334174" data-code="Moscow" data-name="Moscow" data-population="10452000" data-state-code="ru" r="10"/>
    <circle cx="427.110409747" cy="593.535374437" data-code="Rome" data-name="Rome" data-population="3339000" data-state-code="it" r="10"/>
    <circle cx="307.528959447" cy="440.633604627" data-code="Paris" data-name="Paris" data-population="9904000" data-state-code="fr" r="10"/>
  </g>
</svg>
