<?xml version="1.0" encoding="utf-8"?><!DOCTYPE svg  PUBLIC '-//W3C//DTD SVG 1.1//EN'  'http://www.w3.org/Graphics/SVG/1.1/DTD/svg11.dtd'>
<svg enable_background="new 0 0 1000 538" height="538px" pretty_print="False" style="stroke-linejoin: round; stroke:#000; fill: none;" version="1.1" viewBox="0 0 1000 538" width="1000px" xmlns="http://www.w3.org/2000/svg" xmlns:xlink="http://www.w3.org/1999/xlink">
    <defs>
        <style type="text/css">
            <![CDATA[path { fill-rule: evenodd; }]]>
        </style>
    </defs>
    <metadata>
        <views>
            <view h="538.918325175" padding="0" w="1000">
                <proj flip="auto" id="robinson" lon0="-78.3900337838"/>
                <bbox h="1186.98" w="2206.63" x="-2316.58" y="-1308.06"/>
            </view>
        </views>
    </metadata>
    <g class="" id="states">
        <path d="M542.008735,411.472976L542.574641,407.070140L541.202019,400.769934L539.287361,400.463959L537.159146,405.281791L539.291932,407.478795L540.354601,411.850419L542.008735,411.472976Z M543.354133,390.062917L543.492573,388.088704L539.247802,387.860924L536.092375,388.468345L536.069740,391.277897L543.354133,390.062917Z M548.692711,389.986982L544.142535,386.570231L544.005339,387.442120L546.408851,390.442593L545.658099,394.411551L546.700280,395.384878L548.692711,389.986982Z " data-name="bs"/>
        <path d="M459.644317,471.180442L461.259469,468.553050L462.483438,468.311577L464.019235,466.299044L465.243805,462.466092L464.914292,461.740708L465.939113,459.026770L465.506151,457.853563L466.985438,454.572727L467.356084,452.509621L466.109782,452.474737L466.227135,451.361971L464.960208,451.461724L462.014061,456.040271L460.928841,455.142848L460.085204,455.492095L459.995766,456.608244L459.198131,462.621517L457.666416,471.182990L459.644317,471.180442Z " data-name="bz"/>
        <path d="M670.099702,239.456320L669.168577,235.852062L666.190604,238.140655L666.883071,240.622465L673.459224,243.765116L675.819212,243.282640L679.685038,240.248356L674.102736,240.450422L670.099702,239.456320Z M687.167956,220.508932L687.446785,219.152018L682.523268,216.066391L675.513996,214.218054L673.280967,214.837907L677.482886,218.323295L684.275114,220.641286L687.167956,220.508932Z M323.251700,224.915767L323.508143,220.823937L319.716452,217.772357L319.237325,214.270932L319.038972,211.732526L314.138849,210.954645L311.383002,209.841315L306.472267,208.242413L304.730947,209.939898L304.089434,213.939847L309.145377,215.265701L308.734978,217.368249L312.198063,219.954649L312.194179,222.581884L319.629353,225.947511L323.251700,224.915767Z M723.969919,208.855383L728.540481,204.245549L730.298298,202.266790L727.736530,201.947354L721.911138,204.461983L716.958182,208.626215L707.194119,220.357129L700.882595,224.818089L702.820593,226.832388L698.353945,229.444356L698.593164,231.641830L709.995444,231.868496L716.472687,231.425138L721.635351,233.228482L716.472966,236.714779L719.942827,236.972375L728.595832,230.536528L729.980853,231.479598L727.039100,237.550374L730.570095,238.950154L733.332359,238.674306L737.564739,232.145021L736.981532,227.532307L737.320933,223.598178L732.856445,224.865587L736.212091,219.443372L731.052300,217.171197L727.825584,218.971213L723.253861,216.946520L726.083162,214.375415L722.667873,212.797889L718.093042,215.285509L723.969919,208.855383Z M298.565138,183.582290L296.279848,185.876102L294.664235,189.044477L295.662928,191.293690L295.045621,194.624902L295.827036,197.943142L298.098026,197.957221L297.823344,192.127989L306.317917,183.941484L300.419905,184.516683L298.565138,183.582290Z M633.443843,127.457071L632.960104,126.056821L630.910473,125.907462L627.638921,127.956913L627.105616,128.429433L627.245599,130.473567L629.222035,131.056870L633.443843,127.457071Z M622.006795,123.691659L622.948068,122.374075L615.845769,122.309467L609.955354,125.449110L609.920118,127.295543L613.519343,127.453346L622.006795,123.691659Z M618.319283,103.889240L615.043764,103.348849L609.085984,109.445204L604.817488,114.724288L598.067174,118.059938L605.505626,117.411302L604.645208,121.370533L614.324885,117.867527L621.787576,114.279946L622.706589,117.313599L629.712087,118.938942L635.635066,116.812357L633.370878,114.578580L629.250522,115.102768L630.856391,111.907462L626.366676,109.821102L622.316783,107.531446L620.547858,105.785731L617.250064,106.812423L618.319283,103.889240Z M671.447888,94.065930L675.898963,92.138047L677.026400,91.240937L678.747028,88.460226L676.066128,86.669905L670.973986,87.565832L666.492994,91.201442L665.660881,94.393698L671.447888,94.065930Z M583.443846,81.396977L582.553332,78.957077L582.139711,77.748774L580.233757,76.606659L576.705907,74.813002L570.902167,77.558245L564.898440,79.530404L569.029983,82.402022L573.598844,81.701898L578.524808,83.644373L583.443846,81.396977Z M610.252039,78.908502L602.303752,77.622130L609.153778,74.511525L608.687168,67.445866L606.334142,64.706541L601.025360,63.715177L591.341893,68.217268L584.806336,75.152772L588.227787,77.712697L590.122846,81.644307L582.611400,88.114020L578.792841,87.940120L571.435429,93.121964L576.482368,86.978751L570.712382,84.791296L565.400540,85.916699L562.571496,89.943364L555.498772,89.787490L546.944991,90.818983L540.776498,87.894502L534.819162,88.410746L533.048879,84.903414L530.513411,83.368540L526.009004,84.010825L519.780461,84.307039L514.546643,86.512187L517.022878,89.257396L508.622288,92.547480L506.966881,88.650153L501.697831,89.784504L487.630588,90.550756L480.057887,89.158501L490.132939,85.949200L486.780345,82.689108L481.583974,83.102146L475.987262,82.013973L467.064835,79.671732L462.537534,77.001356L457.094670,76.635183L453.234739,78.488116L446.135460,79.532574L450.846038,74.719163L439.598915,79.017249L437.919694,73.339398L435.392701,72.668387L430.859713,75.639003L425.550179,77.118776L425.301578,74.496376L415.569140,76.071505L405.036986,78.859612L398.772915,78.083005L390.520151,80.071880L383.057463,82.739567L378.681457,82.150125L374.782883,79.078127L367.670185,77.545749L367.670138,77.545739L338.700775,101.619274L296.536656,140.207950L301.580443,140.412945L304.827051,142.334137L305.505627,145.380911L305.755196,149.970474L314.831629,146.065613L322.440052,143.809521L321.776101,147.414696L322.659684,150.277748L324.625412,153.439135L323.332336,158.488470L321.631003,166.562574L327.061334,171.088519L323.337373,175.590480L317.285931,179.041445L317.285782,179.041627L314.285391,182.737376L316.795476,187.961694L313.106013,193.786986L317.985421,196.873892L313.742790,201.337195L312.130105,207.803160L320.427244,210.839668L322.349681,214.016420L328.767525,221.267541L329.541064,221.286323L346.170113,221.286323L363.553266,221.286323L369.309200,221.286323L387.157205,221.286323L404.430337,221.286323L421.996233,221.286323L439.571744,221.287359L459.470146,221.286323L479.505446,221.281142L491.621185,221.286323L493.089070,218.444761L495.084163,218.409295L494.065268,222.470836L495.263141,223.724605L499.136489,224.180170L504.557030,225.360636L509.162501,227.659633L514.386289,226.695368L520.729444,228.624096L520.729488,228.624095L524.478067,225.690789L528.354507,224.526608L530.500088,222.720234L532.272106,221.754840L537.029883,223.247688L540.990267,223.425702L541.942306,224.417071L542.027355,228.621489L548.155459,229.736561L546.197883,231.847018L547.601227,234.025221L545.390706,236.843770L547.488845,237.774576L545.201086,240.265140L545.192434,240.274588L546.693271,240.503024L548.267881,239.413675L548.750586,241.054905L552.839645,241.974210L557.341342,242.052077L561.868971,242.807824L566.634664,244.241225L567.667019,246.559453L569.342228,252.200275L566.458977,254.628958L561.962159,253.617979L560.732472,249.068616L559.654088,253.702221L555.166724,257.776742L554.115440,261.253178L552.815853,263.297990L547.941653,265.721698L547.941547,265.721830L543.516305,269.756470L541.186113,272.329455L544.361589,272.793148L549.779261,270.450467L553.222586,268.397073L555.159776,268.062650L558.228195,268.801349L560.277368,267.659871L563.593724,266.733127L569.228073,265.831760L569.228036,265.831938L569.228128,265.831764L569.514809,263.629389L569.194328,263.713589L567.198573,264.092501L565.042284,263.397913L567.809769,260.893272L569.985404,260.027340L574.657377,258.959728L580.139300,257.962290L582.303683,259.348302L584.585641,257.741524L586.876996,256.725890L587.960306,257.263582L587.986953,257.377994L596.037914,252.260206L599.244784,250.906778L608.385277,250.855998L619.452388,250.849963L620.687409,249.032165L622.735869,248.661783L625.677050,247.520178L628.963440,244.158488L632.783078,238.395734L639.265369,232.796406L640.551057,234.746562L644.958421,233.486026L646.854240,235.626882L643.451438,245.727141L645.990275,249.897741L652.947907,249.000395L662.620068,248.759108L650.249993,254.840336L648.498532,261.043602L652.926954,261.581432L661.330237,256.304296L668.225047,253.335253L682.855476,248.956608L691.691095,244.118549L688.635215,241.437391L689.842362,236.060392L681.350847,244.389455L671.147843,245.459561L664.557147,241.764362L664.417119,236.171379L665.185901,228.172632L672.417097,223.193119L668.481317,219.564324L659.471504,220.301507L644.966899,226.472878L632.029693,236.222644L626.556872,237.441763L635.813258,230.591441L647.837571,220.780457L656.484719,217.504405L663.305849,212.218014L669.505712,211.709143L678.195781,211.762129L690.073851,213.310390L700.299510,212.116560L709.622126,206.092813L719.997439,203.496232L724.981815,200.937537L730.060152,198.202754L732.428616,190.063048L731.108324,187.342509L727.047297,186.385592L727.042260,180.304955L724.301765,178.019345L716.098332,176.169072L712.708795,172.088885L706.977264,168.073577L711.058238,163.616822L708.639069,155.148358L705.602140,146.214090L704.327564,140.005634L699.261310,143.232690L690.473567,150.934741L680.774646,154.832038L678.827794,150.698303L674.425311,149.604019L677.057693,140.798304L680.201025,134.988872L671.032962,134.466803L670.859189,131.796532L666.553738,127.823532L662.972287,125.510482L657.622976,127.303744L652.620313,126.639153L644.744924,124.782961L640.170846,126.357597L635.652471,137.083509L634.411077,143.358558L623.960886,150.673646L627.653116,155.957427L628.169100,161.951874L626.145863,166.689613L620.518584,171.647380L611.635321,176.652682L600.941672,180.009407L602.972935,183.787321L600.307127,195.187525L593.666254,202.663036L588.125563,205.039243L582.887465,198.121081L582.829754,190.014884L584.846041,182.775445L589.081176,176.567778L583.381336,175.877209L574.392600,175.464683L570.192735,172.457211L564.367538,170.495060L562.387055,167.134313L558.493486,164.436952L550.169264,161.371539L541.607047,162.769553L542.471060,157.410967L544.326867,150.830982L537.159951,149.663780L542.985509,141.568794L548.843498,136.111474L560.004384,128.373326L570.307986,122.846393L576.958273,121.996210L580.403099,117.594210L586.490081,114.745173L594.161143,114.299491L603.264253,109.761340L606.788991,106.842717L615.590118,101.247642L619.424939,97.937733L623.217370,99.920288L630.899984,98.903742L643.818485,94.314895L646.620684,91.142431L645.555298,87.669504L651.626545,84.231492L653.594420,81.049593L649.385272,77.887080L642.941869,76.953088L636.456784,76.466737L630.891824,83.467661L623.186194,89.036284L614.563317,93.740097L613.032146,89.348069L618.127424,84.556835L615.499286,80.431785L605.031615,85.458731L610.252039,78.908502Z M520.161277,56.356538L516.805676,55.183720L500.032065,58.889670L493.935256,61.329411L484.682682,65.955338L491.112967,67.592057L498.519877,67.505046L484.766535,70.000597L484.766118,72.311821L491.414527,72.438212L502.163531,71.938429L509.897272,73.407601L502.505481,74.504708L496.029613,74.221201L487.478937,75.299477L483.564973,75.973442L484.292337,81.010029L489.335198,80.296002L494.217090,82.038562L493.863697,85.068735L503.164755,84.460485L516.475854,83.496938L527.683789,81.323238L533.701678,80.934679L540.481703,82.662887L548.405221,83.671478L552.152028,81.320680L551.276989,78.868015L559.689111,78.356139L562.739748,75.566513L556.842029,72.580857L551.796330,69.476892L554.654477,65.088781L557.849167,59.093578L555.260806,56.632895L551.717861,55.660713L546.669293,56.550652L543.273745,62.820942L538.251480,65.383080L540.801744,59.333612L538.742044,57.332302L530.046520,60.454336L527.005845,57.367214L514.560579,59.214803L520.161277,56.356538Z M566.858071,54.544875L564.800858,53.214381L558.371855,53.456004L555.871552,54.302683L558.514532,58.559324L566.858071,54.544875Z M695.229562,56.470643L689.909599,53.142331L679.932669,52.491959L677.386764,52.893315L675.373433,55.070970L677.849365,58.297324L678.901687,58.668053L684.639029,57.847260L689.543465,57.976039L694.347258,58.153976L695.229562,56.470643Z M648.176915,56.137727L655.046303,52.226157L641.722809,53.831442L634.719114,56.307814L626.253420,61.776780L622.350227,68.044460L629.066584,68.071666L621.730978,70.921956L623.902903,73.128293L630.920034,74.078019L639.649157,75.931449L656.144517,77.347763L665.481822,76.532019L669.392140,74.665619L671.663892,76.819298L675.665505,77.180510L678.096661,81.140691L673.889557,82.760754L682.346578,84.945852L687.868950,88.077727L688.386593,90.298788L687.978081,93.179431L677.626794,99.568975L673.871917,102.865179L674.137017,105.233945L663.187532,106.083787L653.581591,106.202081L647.147529,111.118135L650.053607,113.421705L665.525063,112.350450L666.599333,110.407260L672.142050,113.660792L677.844290,117.122762L674.967763,119.029675L679.422282,122.332442L688.494931,126.285862L701.308481,129.015303L701.656722,126.627717L698.330601,122.514142L694.096186,116.679513L704.237512,122.098836L709.872847,123.940851L714.107057,119.062894L714.161138,112.393098L712.980787,110.612548L707.694108,107.539198L704.473984,103.673651L707.216569,99.884502L714.167616,99.058516L718.671320,105.424927L723.442284,108.271384L736.261166,100.560690L740.184157,95.943025L732.565264,95.508166L728.671460,89.515710L721.643223,88.092444L712.547913,83.881034L723.271769,80.895779L722.279152,74.949392L719.681690,72.409464L709.757447,69.932969L707.485293,65.965670L697.727543,67.370266L699.022244,64.663265L694.680769,61.723866L686.669542,58.622756L680.371193,61.057151L669.712575,62.842967L673.592291,58.824856L670.877868,52.544835L657.061446,55.027954L648.554830,59.941115L648.176915,56.137727Z M588.637306,51.984732L580.130331,54.908402L581.174951,58.890037L572.444857,58.131916L570.357947,60.088945L577.340196,64.841946L578.367441,67.211330L582.448254,67.731193L592.424125,65.326634L598.470180,59.782625L593.984302,57.153272L601.196923,54.242154L601.769542,52.490270L592.790866,53.254300L588.637306,51.984732Z M615.268632,58.486072L621.908400,57.301143L633.860977,51.907390L626.531965,50.444654L617.222122,50.235321L611.036837,51.873160L606.079598,54.439325L603.057311,57.459371L600.883590,62.843127L606.029576,63.072997L615.268632,58.486072Z M478.444542,67.042112L481.545926,64.336350L492.384704,60.027665L508.850440,55.740007L516.474312,54.210743L514.611296,51.670566L512.329627,49.930250L501.101366,49.597123L496.213986,48.355119L479.589152,49.289266L479.218103,52.972884L470.132914,56.958177L461.351075,61.425206L456.156012,64.035405L463.166277,67.313280L462.519976,70.047887L478.444542,67.042112Z M626.428200,45.193117L626.757497,43.319339L625.073807,41.253361L616.903895,42.839192L611.618554,45.503964L615.458294,47.054832L621.581621,47.499012L626.428200,45.193117Z M616.027589,35.015719L614.789707,35.772347L608.997838,35.439558L599.978146,37.410538L595.441394,37.229414L590.315234,41.743678L598.171503,41.291351L594.138262,44.734255L597.928974,45.683203L606.040910,45.074354L612.962746,40.688637L616.251914,37.693856L616.027589,35.015719Z M569.479968,38.012743L571.562727,35.255457L567.906253,34.589674L561.092318,36.689471L560.284456,42.276916L553.025969,41.829623L549.615770,38.363762L539.822515,36.405798L533.426253,38.028150L519.591884,43.758385L524.496792,44.816824L545.746121,44.111552L533.079607,46.736642L531.249436,48.681834L538.333468,48.546182L552.903953,45.965066L569.300514,45.043096L575.388494,42.239807L578.117272,39.366269L573.776093,39.112794L568.589318,40.090573L569.479968,38.012743Z M635.289959,32.853029L626.718995,32.491528L622.294770,34.837113L625.322828,36.622584L633.660039,37.330061L635.318800,39.873277L632.750120,42.786150L630.933362,46.037831L641.063072,47.957206L647.693510,48.693571L657.133349,48.587596L671.012867,47.667928L676.177783,48.393786L684.079857,47.111793L688.298389,45.530657L689.488565,43.081021L686.742942,40.861416L679.886216,40.449029L670.319158,40.948139L661.959195,42.222660L655.920472,41.729627L650.152309,41.471063L648.760741,40.077381L645.055900,38.755920L648.412981,36.575055L646.694941,34.679520L638.037757,34.692278L635.289959,32.853029Z M545.797105,29.757215L538.643354,30.583822L532.104310,30.505490L517.696549,34.186332L503.897881,38.508138L503.897884,38.508138L508.108543,39.771726L516.486790,38.877175L528.217478,36.392494L532.734377,36.110233L538.934210,34.114986L545.797105,29.757215Z M641.756723,30.461678L643.028867,29.818713L641.225812,28.779091L632.632956,28.697449L631.889078,30.263989L639.590341,30.623145L641.756723,30.461678Z M572.222424,29.467102L575.980623,27.797184L571.143173,26.929429L564.063008,27.493511L558.026074,29.269983L561.889288,31.086563L572.222424,29.467102Z M581.499074,24.466441L577.545352,23.368339L575.626386,23.122392L568.890970,24.746574L567.686635,25.526391L574.778787,25.531772L581.499074,24.466441Z M636.752430,27.460852L640.358811,25.469340L637.627689,23.577222L635.605998,23.219578L630.388102,23.004100L627.840666,25.251515L627.068321,27.317253L628.972825,28.608347L636.752430,27.460852Z M620.458689,25.982672L620.575034,23.389843L611.757116,21.431268L604.483339,20.707036L601.939255,22.754181L605.290581,24.056311L598.971197,25.677540L608.223017,25.881182L612.945083,27.671379L619.186735,28.290929L620.458689,25.982672Z M684.479594,18.821048L685.217657,15.424709L679.600458,14.469602L674.001289,13.399890L672.129648,10.782181L662.321401,11.028768L662.626733,12.146576L657.971527,12.490519L653.114572,14.003583L647.276639,16.250012L646.867662,18.586161L649.259373,20.331796L657.002755,20.291524L651.914230,21.706679L649.442216,23.657454L651.332500,25.880625L659.379478,26.585079L667.418674,26.189007L679.968298,22.104771L687.578179,20.520006L684.479594,18.821048Z M778.023023,2.295001L769.752495,2.020373L761.499213,1.746893L749.278972,2.478614L747.712049,2.010536L735.428724,2.189971L727.759739,2.670402L721.674035,3.371783L715.697877,5.791517L712.933007,4.526794L708.284412,4.293069L700.285930,5.975720L691.463394,6.719434L686.575735,6.869442L679.428062,7.755106L678.211209,9.363598L681.153322,10.769562L682.078385,12.744912L687.282776,14.434716L702.093481,14.115275L710.722508,14.695341L702.165591,16.545420L699.518649,15.991972L688.440101,15.772669L687.088448,18.423545L690.657541,20.474860L687.365016,22.332060L678.391202,23.615879L672.542799,25.724292L678.309859,26.780041L680.316610,30.356190L671.389390,27.942211L668.325169,28.332950L665.991911,32.395198L656.510349,33.684824L654.074748,36.443257L662.096974,36.746300L667.947535,37.447439L681.829423,36.549419L691.826841,38.149750L706.899505,34.682753L708.130645,33.285437L700.443615,33.506338L701.095049,32.217050L708.829679,30.525942L713.035222,28.333452L721.221936,26.763698L727.126302,24.881566L726.254601,22.213170L730.131380,21.259159L724.994999,20.593131L738.299734,20.027253L742.027696,18.956124L751.495384,18.092125L762.585344,13.931121L770.622125,12.526419L783.006756,9.585316L774.145204,9.609938L778.825248,8.548106L789.486115,7.599016L801.112699,5.602033L802.379118,4.398824L796.221143,3.195763L788.253075,2.635479L778.023023,2.295001Z " data-name="ca"/>
        <path d="M491.325994,508.715750L489.622204,510.323175L487.688974,509.817939L486.690542,508.257158L484.621163,507.624340L483.020466,508.613057L478.771432,506.604462L477.698162,507.580440L476.068428,509.045584L477.877115,510.114652L476.834323,512.503842L476.646078,514.813077L477.460930,516.341603L479.557577,517.091037L480.954941,519.195882L482.395398,517.383441L482.103274,515.178384L483.768359,516.533469L484.072253,518.752179L486.311580,519.724447L488.851280,521.215286L490.599524,523.031263L490.750358,524.707117L489.911030,526.023931L491.183263,527.616104L494.721345,529.299216L495.148973,527.793666L495.785528,526.255584L495.598496,524.882914L496.644557,523.984526L495.317865,522.857230L495.451384,519.804407L498.070514,519.126897L495.130886,515.889279L492.743015,512.836812L491.325994,508.715750Z " data-name="cr"/>
        <path d="M526.986715,419.016340L521.175878,416.432417L516.045248,416.346772L510.466377,415.805651L508.767277,416.638984L503.712625,417.364893L500.167782,418.843302L496.978400,420.529740L495.192476,423.265958L491.421557,425.608572L494.134231,426.327442L497.488678,425.498262L498.670886,423.648041L501.401300,423.542234L506.630472,419.601486L513.004206,419.989682L510.299454,421.884550L512.396082,423.363732L520.793090,424.538969L522.562832,426.129553L528.432345,428.162889L532.177062,427.867629L533.218728,432.185963L535.232389,434.374803L539.410772,434.881656L541.863774,436.851294L536.967901,441.081646L546.476482,440.342947L550.943927,440.942919L555.416223,440.566319L559.898660,439.603743L560.874443,437.827412L556.248315,434.723938L551.438048,434.411636L552.158593,432.276871L548.418148,430.730462L546.244127,430.834693L542.556945,427.414648L537.568961,422.718103L535.468976,420.936149L529.240996,421.792846L526.986715,419.016340Z " data-name="cu"/>
        <path d="M575.339292,454.813004L575.451921,456.993167L577.031332,458.199292L580.200079,453.005256L582.493191,451.916392L583.310688,453.756455L585.891908,453.289037L587.221225,451.905614L589.355544,452.266607L592.416486,451.948533L595.392006,453.598297L598.147507,450.510848L595.184201,447.728258L592.278729,447.454297L592.720455,445.194069L589.100099,445.345349L588.180840,442.655094L586.425640,442.845557L582.729028,440.893541L577.594542,440.858468L576.634422,442.151115L576.775109,446.281453L575.966030,449.197045L574.224652,450.475181L575.686673,452.752441L575.339292,454.813004Z " data-name="do"/>
        <path d="M911.319377,0.000000L897.233671,0.403097L891.280684,1.975479L877.553009,1.781650L862.484624,4.401685L860.609505,6.341048L868.541148,8.853038L861.151333,7.328246L855.750666,6.962745L847.405274,5.252156L834.856889,7.782940L831.582447,6.341827L819.217601,6.382577L806.244511,7.107051L795.607139,8.335536L795.398979,10.474650L789.010568,10.992414L771.668724,14.436975L766.189056,16.457333L775.764095,18.309605L772.468499,20.216192L754.714617,22.778158L736.176731,25.390502L733.575639,27.531549L741.223458,29.809625L758.528071,31.274674L749.521847,31.573647L736.521851,33.362358L741.077786,36.979351L744.704282,38.829386L755.868948,38.401484L767.895232,38.166735L776.996999,38.590629L786.571427,42.017469L784.879142,44.489839L789.148171,46.796360L790.790027,53.155384L792.066341,57.347655L793.645887,59.621886L785.326775,65.361083L788.462623,66.899533L793.622879,66.026064L796.784609,68.154761L803.049351,72.128231L794.109388,70.460210L789.642578,70.550624L786.099236,73.893157L784.301735,78.193615L789.250578,80.272864L794.035527,79.363886L797.112003,78.416844L803.663557,76.169081L800.395765,81.140430L797.267340,83.820760L788.813645,86.215656L780.481348,93.803669L782.773327,96.111015L778.829058,100.961420L783.200973,107.084344L781.395223,113.093374L782.213218,117.481150L787.905524,125.922745L788.903519,132.611123L792.666009,136.389094L803.264457,136.424648L809.237453,142.078793L816.908684,141.655499L821.781094,134.901817L825.970413,129.220516L825.596129,123.885412L835.826639,118.457276L839.855225,114.030146L841.443870,109.331229L847.131334,105.209253L854.893765,103.658128L862.111183,102.031662L865.674320,101.759002L877.809136,97.139815L886.660773,90.243281L892.449575,87.745507L897.883798,87.718015L912.814810,85.487919L927.242080,80.431338L941.364236,74.901936L934.811681,74.557477L922.214706,74.289587L928.554258,70.983233L927.932456,66.747876L932.968399,70.330408L936.118704,72.749140L944.894507,71.538649L944.121178,66.511563L938.773484,62.730470L932.808798,61.192104L935.609133,59.550689L944.278946,62.090442L944.814462,59.358515L939.955194,55.231998L946.396790,55.214287L953.108687,54.276291L955.072037,52.145933L950.311337,49.702165L960.532818,49.272143L955.792634,44.150911L960.725247,43.603608L960.809261,38.615679L953.414614,35.545485L961.091479,33.729367L967.984091,33.493256L963.632492,29.794805L965.045214,23.655884L969.332081,20.186409L975.155921,16.396415L965.602885,16.151447L979.071518,15.272784L981.667766,14.115075L999.070491,10.617208L997.152126,8.578376L985.230836,7.670353L965.115261,9.499240L954.197785,11.289724L959.551647,8.504654L956.740110,6.831717L948.426994,8.257752L936.900456,6.653679L922.449189,7.163075L920.802631,6.340084L942.572780,5.893392L957.965425,5.692963L965.886802,3.961644L942.399405,0.526937L911.319377,0.000000Z " data-name="gl"/>
        <path d="M459.995766,456.608244L453.897544,456.524753L447.729413,456.537885L447.180421,460.807964L444.192121,460.826779L446.336576,463.358077L448.567769,465.110305L449.102855,466.754156L450.119787,467.214365L449.643853,469.797655L441.140383,469.820392L437.233982,476.003608L438.017593,477.421064L437.052930,479.199697L436.653314,481.409135L439.900974,484.538917L442.787694,486.043721L446.917776,486.180717L450.197779,487.503830L450.510500,486.391600L452.975105,484.478160L454.305209,483.639322L454.042394,482.745996L455.643265,482.279144L457.219908,480.353320L456.846817,478.864546L457.468896,477.407148L460.842738,475.284489L464.182746,472.390747L462.348042,471.422307L461.649405,472.552643L459.644317,471.180442L457.666416,471.182990L459.198131,462.621517L459.995766,456.608244Z " data-name="gt"/>
        <path d="M497.262072,477.942582L495.726927,475.856021L493.435819,474.694139L491.697996,472.993644L489.827081,471.575776L488.793539,471.408391L485.882397,470.356258L484.493919,471.014429L482.741692,471.192006L481.212929,470.676916L479.145717,470.284326L478.274757,471.133598L476.050820,471.972677L472.966106,472.170834L469.963929,471.486399L468.893889,471.863113L468.348476,471.244730L466.440597,471.353511L464.837993,472.687099L464.182746,472.390747L460.842738,475.284489L457.468896,477.407148L456.846817,478.864546L457.219908,480.353320L455.643265,482.279144L457.536067,482.917096L458.816182,484.430535L460.702303,485.646844L460.851589,486.668335L463.851914,485.764633L465.167470,486.305561L465.993404,487.126751L465.250370,490.165129L467.209743,490.824619L468.149110,493.197596L470.243520,492.885786L471.227981,491.153286L472.209435,491.085867L472.406047,487.355860L473.979852,487.176531L475.360525,487.230624L476.983584,485.206653L478.799718,486.739871L479.568811,485.799127L480.877138,484.896990L483.393579,482.808321L483.655335,481.247049L484.285844,481.312706L485.316080,479.500157L486.031217,479.279467L487.047511,480.438381L488.342863,480.781173L489.903991,479.816688L491.580768,479.811592L493.981687,478.820643L495.003846,477.787578L497.262072,477.942582Z " data-name="hn"/>
        <path d="M576.634422,442.151115L571.051532,440.960162L567.071699,440.625101L565.362144,442.719170L569.389898,443.901934L569.030505,446.798795L571.694562,450.084408L569.142021,451.772936L564.227495,451.164231L558.268803,450.111061L557.424518,452.556069L560.708922,454.919228L563.947152,453.501481L567.917369,454.049841L571.087418,453.523823L575.339292,454.813004L575.686673,452.752441L574.224652,450.475181L575.966030,449.197045L576.775109,446.281453L576.634422,442.151115Z " data-name="ht"/>
        <path d="M540.896668,456.153748L545.554319,456.012441L544.686040,453.935387L541.380210,452.113743L537.015465,451.433699L535.541459,451.178145L532.708405,451.706696L531.721230,453.440335L535.188312,456.204117L538.751976,457.421404L540.896668,456.153748Z " data-name="jm"/>
        <path d="M414.190158,395.682409L409.906285,394.011724L405.320659,391.657588L404.263639,388.088704L404.023196,382.774869L401.217170,378.450142L400.070041,374.006124L398.162279,368.820523L394.427818,365.804315L389.125229,365.950305L383.467157,371.930831L378.715686,369.658704L376.005550,367.372995L375.569228,363.215166L374.583447,359.269115L371.766162,355.947726L369.223416,353.560455L367.729211,350.882135L356.651899,350.879614L355.646572,353.996446L350.567305,353.998561L337.815005,354.053087L324.991608,348.731207L316.630361,345.054182L317.751804,343.573622L309.364435,344.394768L301.909318,344.978038L302.104412,351.779459L303.034220,357.815722L303.814870,362.768759L304.722091,367.491035L307.873748,369.586930L311.277756,374.991550L310.086884,378.412198L306.919073,381.245872L304.367684,380.815536L303.741753,381.388212L306.406051,385.795188L309.942460,387.632662L311.089642,389.611417L312.187651,388.633981L315.831505,392.022401L318.378688,394.376206L318.436087,398.491122L317.028683,404.046325L319.969543,405.974092L323.948990,409.642825L327.405054,413.967195L328.291169,418.578158L329.444846,418.614608L332.700532,415.828582L333.107343,414.470140L331.367652,411.082761L329.414595,407.635139L326.315724,407.384356L326.768017,403.381447L325.708723,399.823850L324.506702,396.498071L323.992404,389.434054L320.866216,385.570204L320.171565,382.882534L318.709070,380.951986L318.731898,376.059904L317.554014,376.165301L317.430086,373.561540L316.601808,373.020546L316.050375,371.236863L312.816504,366.022679L311.572845,362.905649L312.763895,357.233085L312.904498,353.609284L314.969041,350.542040L317.914614,352.623192L320.161481,352.294143L323.800399,355.289720L322.764939,358.190173L323.230152,363.975754L324.994363,369.682597L324.596267,372.048948L326.593606,375.735693L329.276060,379.730296L332.596059,380.347585L332.866807,385.643171L335.802909,389.332621L338.698310,391.103742L336.641146,395.797200L337.430792,397.652166L342.361624,400.752366L344.574264,405.484625L350.011225,411.412097L354.437484,418.952259L355.987650,422.779629L356.081766,425.797254L357.744794,429.202267L357.294649,431.824488L355.472987,433.791345L355.809118,435.953755L353.499153,436.693964L354.488901,440.389384L357.045957,445.171926L363.471329,449.476501L365.700481,452.937251L372.099413,455.338246L375.729147,455.790779L377.105170,457.816521L382.123276,461.442010L389.129427,464.968598L393.949038,466.031504L399.684882,469.511298L404.466864,470.954453L408.899321,472.953660L412.330628,472.205918L418.002136,469.351949L421.769439,468.800795L426.935189,470.779228L430.059003,473.242564L436.653314,481.409135L437.052930,479.199697L438.017593,477.421064L437.233982,476.003608L441.140383,469.820392L449.643853,469.797655L450.119787,467.214365L449.102855,466.754156L448.567769,465.110305L446.336576,463.358077L444.192121,460.826779L447.180421,460.807964L447.729413,456.537885L453.897544,456.524753L459.995766,456.608244L460.085204,455.492095L460.928841,455.142848L462.014061,456.040271L464.960208,451.461724L466.227135,451.361971L467.624578,451.235566L469.050311,453.183599L471.456305,447.265191L472.864577,443.986782L471.821143,442.666068L473.983538,438.049009L478.101450,433.541349L478.802061,429.889173L477.439908,428.281424L473.373073,428.923664L467.596192,428.659558L460.415523,430.418359L455.697535,432.404024L454.261647,434.620686L452.866039,440.991121L450.705705,445.414719L446.100840,448.509386L441.776307,449.810242L436.654510,451.173442L431.520201,451.939518L425.445179,454.059249L423.149709,450.886141L416.425076,448.873890L414.371350,445.139789L413.449066,440.812813L409.893953,435.167313L409.443246,429.286318L407.961936,425.588391L407.460160,421.451502L408.674641,417.747633L410.847894,407.583571L412.970594,402.120244L416.772754,395.454610L414.190158,395.682409Z " data-name="mx"/>
        <path d="M497.262072,477.942582L495.003846,477.787578L493.981687,478.820643L491.580768,479.811592L489.903991,479.816688L488.342863,480.781173L487.047511,480.438381L486.031217,479.279467L485.316080,479.500157L484.285844,481.312706L483.655335,481.247049L483.393579,482.808321L480.877138,484.896990L479.568811,485.799127L478.799718,486.739871L476.983584,485.206653L475.360525,487.230624L473.979852,487.176531L472.406047,487.355860L472.209435,491.085867L471.227981,491.153286L470.243520,492.885786L468.149110,493.197596L467.599089,493.733611L466.600627,492.591811L465.760130,493.764772L468.803537,497.190545L471.415920,499.574461L472.681901,502.131223L475.565175,505.191253L477.698162,507.580440L478.771432,506.604462L483.020466,508.613057L484.621163,507.624340L486.690542,508.257158L487.688974,509.817939L489.622204,510.323175L491.325994,508.715750L490.389643,507.469712L490.223339,505.419765L491.725690,503.480153L491.415687,501.477041L492.285885,498.232775L493.360880,497.487654L493.467542,494.072858L493.273023,492.117725L493.775455,488.775393L494.761124,485.723280L496.529249,483.139546L496.116030,480.363903L496.619392,478.670511L497.262072,477.942582Z " data-name="ni"/>
        <path d="M508.255805,536.918325L511.381834,536.531254L512.396886,535.407279L514.264131,534.438132L511.268625,530.321079L511.999823,528.742621L513.469805,528.477846L516.261334,526.572489L517.749316,523.933962L520.695217,523.450667L523.913063,525.559057L525.035981,528.065300L526.702996,528.585050L524.957428,530.611332L526.203913,534.705652L528.337606,536.893827L529.353454,533.206955L531.482725,533.751401L532.842684,531.496987L531.501322,527.029328L532.365704,525.920255L529.959404,523.824211L527.899126,521.541989L524.999917,520.231845L521.293641,519.973148L521.583261,519.227044L517.924471,518.781968L515.522026,521.048700L511.386390,522.578542L508.445252,524.494279L505.132198,525.042445L503.396513,523.178643L502.733147,523.795598L500.088091,523.454587L500.312615,521.847526L498.070514,519.126897L495.451384,519.804407L495.317865,522.857230L496.644557,523.984526L495.598496,524.882914L495.785528,526.255584L495.148973,527.793666L494.721345,529.299216L495.431234,530.446118L495.719503,528.799848L498.585989,528.788481L500.274832,529.675703L502.989300,530.179579L504.191867,533.231453L506.374610,533.676730L507.304151,532.387150L508.255805,536.918325Z " data-name="pa"/>
        <path d="M615.860107,453.424656L614.812565,451.917960L611.503805,451.249873L606.109686,451.205582L605.066924,452.314034L605.139299,455.559710L609.022733,455.292189L613.989341,455.337070L615.860107,453.424656Z " data-name="pr"/>
        <path d="M465.250370,490.165129L465.993404,487.126751L465.167470,486.305561L463.851914,485.764633L460.851589,486.668335L460.702303,485.646844L458.816182,484.430535L457.536067,482.917096L455.643265,482.279144L454.042394,482.745996L454.305209,483.639322L452.975105,484.478160L450.510500,486.391600L450.197779,487.503830L451.924671,489.132480L455.573631,489.603434L458.184034,491.111345L460.511504,491.837860L464.352271,491.951139L465.250370,490.165129Z " data-name="sv"/>
        <path d="M642.438427,515.001831L642.971201,509.351090L641.584719,509.085620L637.704021,510.071653L637.693311,513.067682L635.662551,515.153529L636.831862,515.836172L642.438427,515.001831Z " data-name="tt"/>
        <path d="M23.584390,446.936412L25.962800,445.751456L28.905948,444.131813L29.160266,443.711438L28.089767,441.054201L27.254787,440.038635L26.237136,439.381013L24.013167,438.099852L23.545457,437.959490L23.000583,438.666683L23.110400,440.157920L21.682626,441.394548L21.160329,442.238448L21.615303,444.999419L20.942172,447.119118L22.332966,448.205199L23.584390,446.936412Z M22.773093,435.102581L23.534667,434.192127L22.088411,433.028873L19.922179,432.308221L19.125589,432.958279L19.072695,433.431890L19.683549,434.048360L20.443160,435.645202L22.773093,435.102581Z M19.259549,431.062017L16.105025,430.737935L15.393573,431.661575L18.861581,431.881774L19.259549,431.062017Z M13.647015,429.960031L12.354615,427.453559L11.924315,426.966437L9.915663,428.011653L10.097383,428.314433L10.518059,430.033810L12.739826,430.300341L13.186492,430.397929L13.647015,429.960031Z M3.758838,424.956641L4.063939,423.190199L2.593219,423.029127L1.406782,423.772145L0.929509,424.324736L2.795256,425.707441L3.758838,424.956641Z M495.084163,218.409295L493.089070,218.444761L491.621185,221.286323L479.505446,221.281142L459.470146,221.286323L439.571744,221.287359L421.996233,221.286323L404.430337,221.286323L387.157205,221.286323L369.309200,221.286323L363.553266,221.286323L346.170113,221.286323L329.541064,221.286323L327.624320,227.362913L324.756678,233.447879L322.081101,235.406961L323.313487,228.401513L316.419247,225.881750L314.769016,227.330031L314.281274,230.774824L312.166688,237.122533L307.153797,247.052143L302.378262,253.733618L297.647999,260.386601L291.193336,267.290749L289.886426,272.921138L286.553218,279.259220L281.877044,285.441066L283.038377,289.554788L280.817859,295.754776L282.593116,302.183025L284.181505,304.728026L283.155222,306.515245L283.711849,317.259956L286.626079,325.005229L285.703317,329.210514L286.826821,330.445313L292.411604,331.199016L293.874534,333.263262L297.284200,333.646121L297.140567,335.830940L299.757637,336.741292L302.248193,341.107640L301.909318,344.978038L309.364435,344.394768L317.751804,343.573622L316.630361,345.054182L324.991608,348.731207L337.815005,354.053087L350.567305,353.998561L355.646572,353.996446L356.651899,350.879614L367.729211,350.882135L369.223416,353.560455L371.766162,355.947726L374.583447,359.269115L375.569228,363.215166L376.005550,367.372995L378.715686,369.658704L383.467157,371.930831L389.125229,365.950305L394.427818,365.804315L398.162279,368.820523L400.070041,374.006124L401.217170,378.450142L404.023196,382.774869L404.263639,388.088704L405.320659,391.657588L409.906285,394.011724L414.190158,395.682409L416.772812,395.454590L416.054676,392.872618L416.484594,389.227650L417.682227,383.989236L419.940118,380.574259L424.309779,376.952446L431.503775,373.683951L438.740942,368.068952L444.600566,366.301084L448.737030,365.770655L452.989445,367.521772L458.836299,366.578206L462.695577,370.578506L467.320741,370.814083L470.073661,369.377499L472.208088,370.494632L473.665817,369.499095L472.645178,368.003559L473.477705,364.935382L472.806462,362.925959L475.752165,361.747193L480.780030,361.226471L486.279720,362.061906L493.770468,361.112390L497.356910,362.981767L499.667316,366.509207L500.734767,366.887279L508.005136,363.455005L510.252885,364.614986L513.890641,370.946097L514.831971,375.113687L512.500003,380.147563L512.900517,383.116090L514.847919,388.923924L517.166797,395.454590L519.352832,397.201176L519.849697,400.532595L522.914137,401.453231L525.010649,400.495392L527.371026,395.858779L528.141031,392.904778L529.223547,387.784998L527.773609,378.981110L528.375580,375.704022L526.594239,370.340216L525.831344,363.866842L525.877459,358.619822L528.121190,353.254276L532.213923,348.775353L536.694418,345.174713L544.908126,340.256842L546.456347,337.708912L550.378583,334.914272L553.670565,334.425758L558.972584,329.949091L566.093383,327.678781L571.562397,321.973602L572.698104,314.247756L572.764986,311.572481L571.112198,311.037944L572.884078,303.690743L569.305551,301.211458L573.074007,302.417420L573.163525,297.545397L575.348442,294.240800L574.196669,300.602388L576.540539,303.543525L573.148981,308.794929L573.634490,309.101780L578.859479,302.939103L581.705054,299.950043L582.447237,297.052138L581.305392,295.691048L581.246125,291.589252L582.703606,293.490587L583.946600,293.887112L583.828918,295.847397L590.082745,289.991579L593.088248,284.583541L591.383968,284.240113L593.918372,282.169411L593.442873,283.085290L597.368362,283.070355L606.684088,280.834509L605.310746,279.426510L595.840321,280.826309L601.653565,278.675952L605.338587,278.310130L608.125480,277.939680L613.072054,276.648627L615.969638,276.792463L620.483095,275.593978L621.642541,273.486904L620.335530,271.851280L620.114093,274.539832L617.634576,274.355449L616.885856,270.454361L618.236624,266.562572L619.817397,264.914029L624.487735,260.564788L631.600549,258.396987L638.641248,255.866740L646.238262,252.309823L645.990275,249.897741L643.451438,245.727141L646.854240,235.626882L644.958421,233.486026L640.551057,234.746562L639.265369,232.796406L632.783078,238.395734L628.963440,244.158488L625.677050,247.520178L622.735869,248.661783L620.687409,249.032165L619.452388,250.849963L608.385277,250.855998L599.244784,250.906778L596.037914,252.260206L587.986953,257.377994L588.226844,258.403210L587.539719,261.253557L582.109806,263.670438L577.365289,263.063707L572.702245,262.791584L569.514809,263.629389L569.228128,265.831764L569.228036,265.831938L569.077793,266.552221L562.205485,270.934895L556.814964,273.063328L553.301813,274.056768L548.924686,276.098034L544.127186,277.081541L541.211832,276.702933L538.008489,275.174640L541.185998,272.329438L541.186113,272.329455L543.516305,269.756470L547.941547,265.721830L547.941653,265.721698L547.941572,265.721738L548.815311,262.718161L549.411036,258.470224L547.469634,257.737548L542.426734,260.960637L541.248444,260.899706L541.682142,259.056449L546.188564,256.124796L548.092983,252.779839L548.964330,249.437464L545.710344,246.560598L541.240641,245.082786L539.232827,247.889167L537.599035,248.639645L535.023097,252.273970L535.495619,249.805818L532.357062,251.567992L529.821308,254.035348L526.740801,257.633218L525.144282,260.740944L525.287984,265.271849L523.162207,270.111228L519.257136,273.696248L517.616083,274.715506L515.643707,275.527544L513.547824,275.567803L513.183167,275.067271L513.090071,271.195890L513.821154,269.286538L514.728140,267.475095L515.456869,263.886386L518.350184,259.741199L521.879289,254.633130L527.405098,248.974148L526.491170,249.000242L520.053950,253.739787L519.610734,252.871156L523.100704,250.220482L528.711726,245.452325L533.059165,244.787094L538.342787,243.307672L542.709832,244.088342L542.896382,244.121595L548.431838,243.454121L546.693259,240.503031L546.693271,240.503024L545.192434,240.274588L545.201086,240.265140L545.192371,240.274628L543.502521,239.975164L543.132816,237.899318L537.017040,238.547101L531.028301,240.197467L528.070563,237.372537L525.122123,236.426500L528.764482,232.513401L522.441013,234.970686L516.605177,237.374070L511.170310,239.260070L508.682182,236.712671L502.025225,238.257808L502.544274,237.169394L508.010157,234.041520L513.580116,231.072872L520.729389,228.624173L520.729488,228.624095L520.729444,228.624096L514.386289,226.695368L509.162501,227.659633L504.557030,225.360636L499.136489,224.180170L495.263141,223.724605L494.065268,222.470836L495.084163,218.409295Z M208.205343,162.566022L216.479822,159.207017L216.482588,157.018366L213.369069,156.542632L209.306435,157.616317L201.658723,160.123999L198.987120,163.437611L199.878678,165.266934L208.205343,162.566022Z M162.060330,142.959613L164.771044,140.296564L161.304057,139.668952L154.583662,140.855048L155.528426,142.741222L157.468836,144.041512L162.060330,142.959613Z M163.533063,116.430968L159.811582,118.975479L160.248091,119.571485L165.336126,119.178645L165.682502,120.407117L167.693825,121.882664L173.506214,120.446697L174.900167,119.708831L170.949198,118.804522L169.139234,117.021605L164.994472,117.715656L163.533063,116.430968Z M312.441720,68.510550L307.180118,67.202786L294.979205,70.529295L291.212831,70.110433L278.056554,72.895775L272.327878,73.615792L263.003663,76.619136L257.351321,79.714738L247.013460,82.627401L238.060750,82.835811L230.449687,86.207354L234.291321,88.250341L235.143612,91.017674L234.170626,94.278181L236.912855,96.773254L235.534408,100.852105L224.571889,101.109159L229.687793,97.817204L225.572505,97.817204L209.994460,101.035754L199.129473,103.804916L200.321354,107.669615L198.878819,110.356422L204.250850,111.962388L212.469572,111.210222L214.591927,112.689274L218.063128,111.208317L225.363904,109.750607L228.594947,109.674590L221.497380,112.258573L222.824585,113.467016L219.887776,116.541636L213.313629,118.637447L210.294799,118.055223L201.986531,121.322494L199.799708,120.237611L194.972481,120.732919L188.687006,124.220713L179.617755,128.029190L172.645851,131.970541L173.085366,134.902815L168.320708,138.814958L169.953690,140.477673L170.564071,143.738028L179.109229,142.405470L179.644900,144.882692L175.688783,147.440076L171.341706,151.605078L174.660819,151.610875L183.275329,148.808258L181.322232,152.300176L185.635127,149.785759L185.155825,153.341482L190.956440,150.791320L191.349271,151.996785L199.967316,149.873287L192.598537,154.014815L185.781814,159.355663L179.015132,161.850773L176.247367,163.268148L164.006227,167.514888L158.133980,170.431573L150.381699,171.237038L140.248766,175.139926L132.416867,177.346825L122.706307,180.694200L122.302807,181.900079L134.111763,179.851570L141.308871,177.455925L149.562895,175.020659L156.879100,173.029677L160.117985,173.578431L169.846104,170.530574L175.149086,167.191230L187.672324,163.528025L192.397941,160.395435L200.196810,158.242277L209.243550,155.294005L219.845463,150.252417L219.627686,146.858186L232.856233,141.905890L241.648671,137.295507L252.725058,133.452913L252.237166,135.180674L244.221066,137.305149L234.269992,144.107327L230.546895,148.216204L238.126277,146.733049L245.406321,144.381064L253.178547,142.930515L256.618939,142.484640L260.748434,137.670182L268.241407,136.208058L271.375169,139.153386L278.495436,142.339770L286.519048,141.747652L293.330411,144.228898L297.130351,145.550603L301.102401,152.809280L305.516724,154.830987L314.002682,155.003234L318.799869,155.457961L315.564435,162.119856L317.481246,167.856441L313.569156,174.070389L316.511895,176.349022L317.285768,179.041635L317.285782,179.041627L323.337392,175.590495L327.061334,171.088519L321.631003,166.562574L323.332336,158.488470L324.625507,153.439099L322.659684,150.277748L321.776101,147.414696L322.440052,143.809521L314.831629,146.065613L305.755196,149.970474L305.505627,145.380911L304.827099,142.334087L301.580582,140.412821L296.536759,140.207903L338.700771,101.619283L367.670181,77.545749L367.670185,77.545749L367.670138,77.545739L363.551044,76.657950L358.696527,74.756330L350.956552,75.783625L348.330285,74.961635L339.876721,74.367983L332.475722,72.378121L326.728384,73.006980L320.889576,71.938390L323.199928,70.496291L315.678824,70.120779L311.833098,71.333401L312.441720,68.510550Z " data-name="us"/>
    </g>
</svg>