<?xml version="1.0" encoding="utf-8"?><!DOCTYPE svg  PUBLIC '-//W3C//DTD SVG 1.1//EN'  'http://www.w3.org/Graphics/SVG/1.1/DTD/svg11.dtd'>
<svg enable_background="new 0 0 1000 721" height="721px" pretty_print="False" style="stroke-linejoin: round; stroke:#000; fill: none;" version="1.1" viewBox="0 0 1000 721" width="1000px" xmlns="http://www.w3.org/2000/svg" xmlns:xlink="http://www.w3.org/1999/xlink">
    <defs>
        <style type="text/css">
            <![CDATA[path { fill-rule: evenodd; }]]>
        </style>
    </defs>
    <metadata>
        <views>
            <view h="721.816306108" padding="0" w="1000">
                <proj flip="auto" id="robinson" lon0="133.065258913"/>
                <bbox h="738.26" w="1024.2" x="1611.38" y="41.92"/>
            </view>
        </views>
    </metadata>
    <g class="" id="states">
        <path d="M356.932115,626.962050L349.153432,625.538609L344.154843,632.891826L342.697118,646.764296L337.440184,657.219803L336.158849,670.739184L343.841446,671.230260L345.945627,672.078637L362.739416,661.074857L364.285414,665.399724L374.493401,652.682862L382.739839,647.221833L394.396207,628.292711L387.142776,627.214350L374.814515,630.298625L366.189078,632.494258L356.932115,626.962050Z M485.514716,184.155010L486.917678,178.216223L487.179762,168.961319L483.106865,160.644329L483.392391,153.777197L480.067584,151.800199L480.325138,141.543487L477.196253,133.545963L471.158152,139.669569L470.244564,144.334087L466.411866,153.316742L461.819159,161.984303L463.312460,167.443911L460.101521,170.765146L456.433889,183.082830L456.643768,192.440187L454.846963,197.197090L455.516167,205.103914L448.889692,218.112814L445.469418,227.078685L441.203186,234.325018L436.713937,243.105647L426.210218,248.693118L413.697557,243.147049L412.502071,238.096015L405.832383,233.909303L401.808741,233.925357L393.278149,224.237086L386.925099,218.607115L376.830395,213.366684L366.970089,204.332545L366.685523,199.716664L373.010202,191.681453L378.427299,183.511195L377.697489,176.975075L382.697462,176.430965L389.044862,169.825635L394.015492,161.074371L388.436988,152.985553L384.692643,156.126787L379.476833,154.703177L370.515548,159.384620L362.240372,154.358469L357.941850,156.012729L346.357243,151.829769L339.504373,145.124884L330.443596,141.072051L322.534808,143.446975L332.444472,148.829635L331.717737,157.184568L319.288616,160.264980L312.185624,158.322613L302.790987,164.089738L295.373091,173.427383L297.066494,177.512427L290.028620,181.785064L281.308981,194.897210L282.986226,203.875433L274.128172,202.341871L265.195081,202.230340L258.682222,192.546647L249.155799,185.043003L241.933477,187.247361L235.313562,189.588604L234.482488,193.698269L228.464193,191.790447L227.590366,196.358925L219.994337,199.143802L215.591619,205.597361L206.550662,213.641294L202.827202,226.082478L197.105131,222.540406L191.331482,230.473723L195.113698,238.199943L188.492606,241.462253L184.844631,227.345692L172.555820,241.240035L170.661957,250.128621L168.886148,256.652900L159.083429,264.952814L153.905037,273.689871L144.892215,280.947201L129.128025,285.733352L121.354920,285.348171L117.337254,286.839741L114.554803,290.421142L105.636879,292.233766L93.400506,298.325266L89.853590,296.309988L83.188174,297.586220L71.317726,303.584711L63.199911,310.555373L50.743688,316.020205L42.754581,327.265702L43.913586,314.816575L35.976459,326.578919L35.725829,336.134545L32.246252,344.313627L28.574554,348.338662L25.151421,357.799154L27.397810,362.694011L27.649526,367.847591L31.721484,380.733848L29.980918,389.117426L27.330877,382.779187L21.462742,378.033013L22.622775,393.218990L18.162056,386.139909L18.433762,393.122565L23.175703,406.077713L21.506881,418.889373L25.870933,425.399995L24.858707,430.200421L27.267199,440.825566L23.827096,450.113501L23.148660,459.411337L24.986112,475.866506L23.184488,485.520535L17.461374,496.865681L15.809547,502.738112L12.116630,506.465461L4.495262,508.696663L0.693658,518.106357L6.852574,521.232126L17.254441,531.775938L26.378610,531.781925L36.052554,532.432051L44.672350,527.175538L53.343252,522.512544L57.028468,523.257796L68.583346,514.482835L78.263720,513.729204L88.796151,511.937625L99.702249,514.931890L108.867584,513.471253L120.631177,513.072495L128.336158,506.409596L134.343130,497.831557L147.709804,494.063011L165.508536,485.698269L178.221113,486.779097L195.986303,481.339585L216.068725,475.508065L241.358280,473.967539L251.511495,481.896072L261.003279,482.361665L274.629371,492.242753L270.478725,496.011438L275.133514,502.136164L278.567599,514.021126L274.286436,522.751850L281.880189,529.543296L292.987480,516.433260L304.015579,510.817625L321.247889,496.859771L317.053840,508.976207L308.191447,517.016891L301.828429,526.523655L290.517329,535.676216L304.025438,532.632263L315.911768,521.204040L313.577820,533.467539L305.353053,541.515235L317.470202,543.517453L320.904134,550.267012L319.947683,558.684725L316.124211,571.335995L319.526777,581.584889L329.980254,586.380934L337.014073,587.565555L343.195350,590.184031L352.302533,594.663373L370.633553,582.680160L379.674954,579.539845L372.877198,588.184991L379.471658,591.101632L386.424715,598.391808L398.550942,591.312600L408.309366,584.900978L424.471652,578.092100L439.861204,577.487391L450.752108,571.707645L452.914572,566.441318L460.752986,554.961921L470.633185,542.505455L480.087514,534.232922L491.261502,519.979629L499.812555,511.855369L510.935115,499.169309L524.902990,491.145698L537.813347,476.322565L545.731871,464.653882L549.460474,455.318513L559.190458,440.778353L564.582805,433.219196L570.856970,418.758417L569.160149,404.859318L573.549443,394.729627L576.206847,385.397217L576.295083,372.242675L569.095911,358.995322L564.255461,352.752905L556.877094,342.711495L558.716561,325.384456L554.663057,327.897582L550.616943,320.813721L544.131657,324.405415L542.715296,306.719934L536.907525,296.471312L539.639890,292.511655L531.692491,285.397163L523.360524,277.629041L509.809599,269.088243L507.555266,258.000481L510.695388,249.524511L509.660856,235.549349L506.463920,233.554423L505.884122,225.391301L505.443830,211.370900L508.193841,204.123845L502.419100,197.738688L498.813310,190.817951L488.627203,196.984169L485.514716,184.155010Z " data-name="au"/>
        <path d="M971.092296,242.629054L966.888952,245.325064L960.913118,243.303018L954.020905,248.919485L953.581409,256.107995L960.908558,258.129926L970.304831,255.883516L974.822143,247.346769L971.092296,242.629054Z M987.372684,233.823161L997.414624,229.798603L999.306342,221.817965L989.734810,226.918186L984.999693,227.816344L977.069179,231.170989L977.421064,237.268059L987.372684,233.823161Z M995.101014,250.327928L998.854992,242.465097L995.720822,243.221311L993.701699,251.201560L995.101014,250.327928Z " data-name="fj"/>
        <path d="M776.872558,303.769682L773.478086,299.193538L768.612618,293.635875L762.029574,288.078884L755.982986,287.844065L756.596334,293.386706L763.135400,304.910761L770.080559,313.569878L778.303691,320.926910L784.920587,325.344753L791.321613,321.421900L785.916159,313.903512L776.872558,303.769682Z " data-name="nc"/>
        <path d="M599.508509,719.816306L609.752358,715.256122L625.841544,708.126299L646.648273,692.038070L658.757723,681.679126L674.841495,675.727018L685.057613,675.532011L686.543599,667.937874L698.455951,661.585921L716.498190,649.929197L727.264256,642.577213L732.513954,635.873130L733.889049,629.114990L719.504509,635.599266L721.556387,628.992344L723.729368,622.156952L708.879873,629.586414L700.100441,638.508783L691.972769,642.536129L676.792130,654.356403L662.333945,662.559763L644.427187,670.827284L630.167328,676.834302L619.340231,679.806048L590.279800,695.430012L573.701315,707.230084L571.046324,713.087182L584.079047,714.209069L587.991881,719.476073L599.508509,719.816306Z M795.511964,550.567345L800.487331,535.758472L792.404810,531.462926L790.258539,522.290293L784.460328,523.583228L783.417865,535.288108L785.409484,549.994230L787.713697,556.871880L785.547030,559.809512L784.042083,570.972921L777.749952,581.725576L767.009215,594.469007L753.418008,600.214787L748.911645,606.155461L758.603931,612.682811L756.398188,621.596852L738.682233,634.798019L742.397129,637.097527L741.365586,641.277708L756.584952,634.922648L771.624748,623.942988L783.170342,615.234382L787.350009,612.211119L791.178192,605.187840L798.269544,600.201198L808.236463,600.539196L818.992440,590.920540L832.115896,576.202026L826.551779,574.280015L814.701243,580.620478L806.492969,579.291733L799.184424,573.873317L805.140614,561.273639L801.851959,556.728065L794.478501,568.107981L795.511964,550.567345Z " data-name="nz"/>
        <path d="M675.538487,70.630252L677.918928,66.052614L671.539354,60.504191L665.302978,50.140711L661.191642,46.432468L659.968636,41.567568L657.867750,43.148365L660.102350,55.602110L665.632259,65.985867L671.371233,72.265121L675.538487,70.630252Z M620.992268,48.690026L626.494958,38.710342L627.345583,29.641271L624.590196,26.957051L615.930822,27.267971L616.934154,36.902272L608.509877,42.732677L604.069847,48.326722L595.758766,49.575476L594.928840,40.895878L592.833267,41.300582L590.145593,49.138665L582.170281,50.417836L569.402383,48.031009L567.867092,53.089393L575.783390,57.649291L587.259057,62.398445L594.913950,62.418722L602.590231,58.593038L610.757563,54.619498L613.349686,50.034254L620.992268,48.690026Z M549.626564,79.917319L547.294764,69.022418L560.686612,67.262503L557.814141,58.591349L534.479669,48.486407L532.895230,38.854819L525.354612,30.634863L515.872645,22.258613L489.658681,12.902300L465.094217,1.637394L462.477149,54.918591L458.508086,108.199959L473.324501,108.881780L481.119321,111.615818L492.957358,105.995658L492.213053,93.936593L501.466563,88.538593L514.051361,83.875639L532.229367,91.025104L538.399158,105.333269L545.673274,114.323661L555.746420,124.754244L569.991397,127.214509L582.130591,129.051258L585.173555,133.289123L594.822523,132.148550L596.966465,127.423192L582.453988,120.544501L587.097890,117.460698L576.286750,114.682735L577.600135,107.440409L569.306739,107.983669L561.577358,90.644059L549.626564,79.917319Z M608.654121,0.000000L604.478552,3.948165L614.688864,8.753893L622.558392,15.729301L628.807333,21.086750L631.805157,27.403998L633.936243,37.055198L638.719907,32.698934L637.492418,24.197637L632.299291,18.965230L626.879756,12.098810L621.005344,8.174299L616.258705,4.577607L608.654121,0.000000Z " data-name="pg"/>
        <path d="M759.242321,130.513728L756.418269,129.924853L748.315721,125.969169L752.519696,136.028187L762.542318,136.132106L759.242321,130.513728Z M742.238394,120.544501L740.377451,116.248297L736.078481,112.817239L726.865699,110.244575L725.244256,116.735792L727.969503,119.254374L736.593943,120.908643L742.238394,120.544501Z M754.654288,116.081856L749.769129,108.234600L745.934581,95.154922L741.040004,95.154922L743.045842,104.924345L752.143105,119.095537L754.654288,116.081856Z M730.864639,95.437959L727.979731,90.250340L716.862111,82.729121L710.581384,78.805441L708.292734,80.470724L713.206898,85.914362L720.544399,91.789729L731.149391,98.723728L730.864639,95.437959Z M698.708548,79.259993L693.421397,73.927027L685.377227,67.022553L684.418143,69.746492L689.780458,76.465087L695.761488,80.191065L698.708548,79.259993Z " data-name="sb"/>
        <path d="M824.337100,228.345277L817.427406,218.951859L815.953896,223.336359L819.152464,230.495692L824.337100,228.345277Z M819.106683,203.289046L813.245528,198.262542L811.043987,210.790417L812.151435,215.305015L815.309745,214.418655L818.716975,216.469368L819.106683,203.289046Z " data-name="vu"/>
    </g>
</svg>