<?xml version="1.0" encoding="utf-8"?>
<!DOCTYPE svg PUBLIC "-//W3C//DTD SVG 1.1//EN" "http://www.w3.org/Graphics/SVG/1.1/DTD/svg11.dtd">
<svg xmlns="http://www.w3.org/2000/svg" xmlns:xlink="http://www.w3.org/1999/xlink" enable_background="new 0 0 1000 690" height="690px" pretty_print="False" style="stroke-linejoin: round; stroke:#000; fill: none;" version="1.1" viewBox="0 0 1000 690" width="1000px">
  <defs>
    <style type="text/css"><![CDATA[path { fill-rule: evenodd; }]]></style>
  </defs>
  <metadata>
    <views>
      <view h="690.899737655" padding="0" w="1000">
        <proj id="laea" lat0="-22.5" lon0="145.0"/>
        <bbox h="597.1" w="865.49" x="567.26" y="724.1"/>
      </view>
    </views>
  </metadata>
  <g class="" id="state">
    <path d="M504.345388,577.682586L497.198755,576.433332L496.937322,582.879185L503.166727,595.110396L504.591367,604.373737L511.004013,616.403933L517.449821,616.910967L519.605443,617.694601L527.159904,608.067545L530.735426,611.985802L532.200157,600.738329L536.031546,595.999821L535.862550,579.311814L529.351937,578.211473L520.778158,580.757720L514.823334,582.607391L504.345388,577.682586Z M480.052733,194.130166L480.508305,188.969401L479.410141,180.945076L474.285659,173.778803L473.639420,167.828861L470.137309,166.155880L469.080255,157.276046L465.049166,150.400047L459.887810,155.788240L459.583566,159.837573L457.025786,167.673662L453.757589,175.257297L455.998539,179.953295L453.371601,182.888270L451.723902,193.621272L453.460933,201.716382L452.533996,205.870318L454.564845,212.702366L450.590053,224.100963L449.042850,231.937140L446.402728,238.307159L443.909766,246.014830L435.068943,251.130767L421.971101,246.735615L419.762527,242.415180L412.515444,239.047546L408.676561,239.219990L398.499388,231.224268L391.260468,226.661961L380.523071,222.646971L369.258372,215.398636L368.082405,211.438845L372.642621,204.164406L376.382443,196.832665L374.536070,191.236120L379.274920,190.507288L384.311514,184.494945L387.730910,176.708926L381.073305,169.999059L377.914772,172.895446L372.631476,171.937610L364.670779,176.463254L355.851362,172.610982L351.945303,174.297626L340.052502,171.432763L332.359039,166.118422L322.945928,163.268584L315.645316,165.903519L326.095068,169.808895L326.746021,177.059860L315.254403,180.641211L308.067184,179.526763L300.011364,185.263228L294.573303,193.934021L296.966666,197.302638L291.038046,201.593941L285.337623,213.656208L288.837872,221.213725L280.070530,220.723869L271.545506,221.495461L263.271274,213.833718L252.631738,208.375449L246.212120,211.045243L240.411630,213.786549L240.505740,217.409270L234.380283,216.452116L234.550369,220.475095L227.977342,223.749568L225.289728,229.809234L218.668110,237.803705L218.233334,248.917202L211.978480,246.608832L208.583386,254.137709L214.121537,260.253694L208.801342,263.898107L201.714309,252.314487L193.903554,265.849381L194.555353,273.697619L194.708915,279.509072L187.981585,287.967832L185.712150,296.157085L179.551552,303.661893L166.562414,310.138836L159.366757,311.037513L156.160318,312.950147L154.714688,316.444889L147.181974,319.451323L138.007251,326.693712L134.182447,325.594722L128.580080,327.843774L119.827018,335.057996L114.822659,342.455050L105.539521,349.422664L102.263040,360.462956L99.081022,349.717787L96.050422,361.209964L99.151910,369.313969L99.009726,376.879909L97.258168,380.989643L97.774431,389.597647L101.574061,393.234680L103.764395,397.480467L112.344811,407.378723L114.231581,414.660654L109.374011,409.943026L102.409491,407.187264L109.597087,419.511045L102.844306,414.567292L105.963174,420.276101L115.514232,429.982169L119.704167,440.813994L126.335530,445.271411L127.658644,449.388194L134.619475,457.572354L136.125384,465.789261L140.070884,473.457686L149.817514,486.389947L153.250762,494.490055L154.415575,504.649190L156.154719,509.632994L155.098174,513.296429L150.035261,516.543867L152.017921,524.686806L158.748234,525.931055L172.989384,532.180905L180.449306,530.503617L188.727670,529.272770L192.985317,523.642688L197.656554,518.478049L201.101204,518.441703L206.078163,509.560913L213.758744,507.390913L221.642064,504.300850L232.322099,505.039534L239.273785,502.519254L248.977620,500.525215L252.141582,494.079882L252.989589,486.298307L262.538209,481.453066L273.775658,472.349026L285.214945,471.721676L298.012697,465.226381L312.775643,458.282862L334.115972,454.610712L346.462063,460.386135L354.939266,460.016667L371.168043,467.310825L369.237651,470.764822L376.020673,475.575181L384.366183,485.287191L384.675626,492.828026L394.325287,497.998298L397.905183,486.439717L404.923783,481.133645L413.784921,468.497967L415.409006,478.942186L411.297906,486.131057L410.085452,494.403016L404.551427,502.597542L414.742700,499.388528L419.832042,489.287358L423.321277,499.653862L419.925916,506.710478L431.201363,507.868178L437.203409,513.355699L440.247884,520.386121L442.905737,531.025307L450.645533,539.455992L461.731893,543.204141L468.205675,544.056387L474.644784,546.160900L484.420348,549.845454L494.182236,539.561088L500.365235,536.881002L498.614185,544.234541L505.503420,546.730537L514.728715,553.025887L521.598404,547.062291L526.892872,541.687751L537.500193,536.132634L550.214154,536.000473L556.958493,531.335755L556.593155,526.849225L558.548721,517.176025L562.003228,506.713806L566.867937,499.852364L571.013262,487.789591L575.351872,480.970975L580.344076,470.204385L589.657026,463.704592L595.845554,451.102260L598.947583,441.067392L599.251667,432.908745L603.433788,420.430228L606.027872,413.976297L607.599161,401.433549L602.392402,388.989779L603.811733,380.230020L603.979644,372.094813L601.058351,360.452023L591.607899,348.405373L585.857602,342.689246L577.010318,333.552263L575.349510,318.368637L572.058548,320.437997L566.942092,314.077610L561.588333,317.036113L556.903748,301.473803L549.531047,292.344508L551.357977,288.938157L542.531252,282.535446L533.178862,275.596741L518.692611,267.979030L514.390549,258.293298L515.746938,250.926443L512.124115,238.744467L508.694866,236.992852L506.641991,229.886520L503.740370,217.690881L505.165247,211.395446L498.548452,205.842045L493.960947,199.837718L485.108598,205.235182L480.052733,194.130166Z " data-name="au" data-realname="Australia"/>
    <path d="M945.349456,293.125733L948.967211,298.315009L945.401204,305.386330L937.112955,305.564710L930.409214,302.197417L930.352727,295.567895L936.220258,291.694699L941.723624,294.791905L945.349456,293.125733Z M959.513801,288.250571L950.745012,289.406229L950.098140,283.626269L957.074484,282.124547L961.295763,282.272561L969.675058,279.515335L968.337340,286.602409L959.513801,288.250571Z M969.543333,286.079074L968.337340,286.602409L969.675058,279.515335L972.455155,279.474285L969.543333,286.079074Z " data-name="fj" data-realname="Fiji"/>
    <path d="M789.093506,335.022821L783.350056,327.435857L773.957094,317.031950L770.324574,312.445346L765.209760,306.798146L758.481835,300.965213L752.864676,300.034617L754.101450,305.116084L761.486960,316.333819L768.856424,325.055641L777.202170,332.809555L783.718778,337.720261L789.093506,335.022821Z " data-name="nc" data-realname="New Caledonia"/>
    <path d="M799.748319,613.737417L799.225424,607.287069L790.080110,612.023918L786.282219,619.427241L781.376430,622.053642L773.846409,631.368354L765.709330,637.211927L755.042451,642.601530L746.394817,646.362134L739.241329,647.654685L723.173883,658.860965L715.270913,668.107701L715.602717,673.477571L725.866474,676.485374L730.835973,682.280832L739.555646,684.425294L745.484727,681.542242L754.867505,677.083667L764.623150,664.427794L770.001855,656.015972L780.040692,652.798895L787.696253,654.468329L786.160323,646.949221L793.003265,642.634521L802.794193,634.074327L808.599371,628.609802L810.453576,622.779820L809.348207,616.185391L800.329932,620.027180L799.748319,613.737417Z M836.217096,551.294622L836.656602,538.029794L829.041685,532.364098L825.043560,523.158068L820.599159,523.339329L822.653175,534.356247L827.933142,548.798646L831.505096,555.834144L830.502579,558.235753L832.130465,568.686568L829.926357,577.852835L824.887274,588.156806L815.815130,591.155309L814.003498,596.131831L823.487595,604.485621L824.421868,612.995724L814.853319,622.886290L818.432597,625.970376L818.967884,630.053112L828.607941,626.609298L836.834983,618.488412L843.217562,612.073184L845.598574,609.906914L846.652436,603.670563L850.827032,600.203385L858.618446,602.692537L864.547394,595.473255L871.280197,583.831148L866.491546,580.716708L858.719457,584.372823L851.964589,581.327089L844.871131,574.529385L846.518498,563.533133L842.798326,558.479101L839.709592,567.988458L836.217096,551.294622Z " data-name="nz" data-realname="New Zealand"/>
    <path d="M654.994145,100.457476L657.124426,96.617736L650.578254,91.414578L643.960181,82.063327L639.733776,78.624899L638.319666,74.343370L636.303667,75.604074L639.057794,86.521705L645.004284,95.842724L650.968555,101.632921L654.994145,100.457476Z M600.001240,78.749279L604.990937,70.332425L605.440843,62.529731L602.589200,60.104911L593.986346,60.055634L595.410949,68.409192L587.319594,73.155931L583.193495,77.846242L575.010040,78.675491L573.734424,71.156659L571.672158,71.448484L569.414315,78.144129L561.566377,79.050238L548.750838,76.722628L547.519131,81.059559L555.645099,85.152639L567.304643,89.527313L574.889615,89.753928L582.276903,86.676084L590.155966,83.508047L592.488417,79.632273L600.001240,78.749279Z M531.219265,103.956783L528.134989,94.516877L541.282685,93.176087L537.876975,85.644544L514.072780,76.698990L511.912844,68.395547L503.927437,61.299851L494.010676,54.102496L467.350534,46.254873L442.251262,36.998585L442.997558,82.827089L443.871911,128.844021L458.512644,129.144331L466.459779,131.389214L477.537886,126.401097L475.665415,115.992222L484.318976,111.258905L496.358914,107.185257L514.899087,113.402413L522.207711,125.825882L530.181814,133.689105L541.064672,142.879402L555.264281,145.293175L567.328138,147.191229L570.713614,150.963110L580.040163,150.266190L581.698290,146.222817L566.857387,139.804571L571.139135,137.253574L560.285439,134.555458L560.957569,128.301145L552.848410,128.584355L543.831158,113.411475L531.219265,103.956783Z M616.872129,65.645498L615.314017,58.246347L609.952012,53.512161L604.314623,47.376193L598.329847,43.776097L593.482756,40.512731L585.756722,36.325939L581.702181,39.593647L592.047312,44.054373L600.133409,50.342557L606.554256,55.202501L609.783493,60.776829L612.306471,69.205988L616.872129,65.645498Z " data-name="pg" data-realname="Papua New Guinea"/>
    <path d="M739.892618,159.572653L737.128671,158.776349L729.054912,154.511018L733.739532,163.796686L743.418364,164.871780L739.892618,159.572653Z M722.847419,149.167839L720.796811,145.215664L716.428971,141.816283L707.322924,138.768967L706.118807,144.339741L708.918377,146.783702L717.392176,148.984848L722.847419,149.167839Z M734.641484,146.383204L729.494711,139.010435L725.139769,127.157263L720.367673,126.724183L722.790879,135.487449L732.369715,148.804189L734.641484,146.383204Z M710.453016,126.102281L707.389577,121.314503L696.163737,113.845360L689.828137,109.940115L687.658985,111.226162L692.730897,116.352296L700.193938,122.064269L710.891405,129.009475L710.453016,126.102281Z M678.195973,109.482696L672.750865,104.468071L664.518278,97.925672L663.698201,100.236700L669.290600,106.438586L675.346615,110.091613L678.195973,109.482696Z " data-name="sb" data-realname="Solomon Is."/>
    <path d="M809.605331,254.847000L802.218894,245.389919L801.273316,249.164776L804.985143,256.088845L809.605331,254.847000Z M802.334683,231.447306L796.375622,226.148018L795.442436,237.168115L796.917063,241.392426L799.794699,241.005796L803.186368,243.314383L802.334683,231.447306Z " data-name="vu" data-realname="Vanuatu"/>
  </g>
</svg>
