<?xml version="1.0" encoding="utf-8"?><!DOCTYPE svg  PUBLIC '-//W3C//DTD SVG 1.1//EN'  'http://www.w3.org/Graphics/SVG/1.1/DTD/svg11.dtd'><svg enable_background="new 0 0 1000 511" height="511px" pretty_print="False" style="stroke-linejoin: round; stroke:#000; fill: none;" version="1.1" viewBox="0 0 1000 511" width="1000px" xmlns="http://www.w3.org/2000/svg" xmlns:xlink="http://www.w3.org/1999/xlink"><defs><style type="text/css"><![CDATA[path { fill-rule: evenodd; }]]></style></defs><metadata><views><view h="511.528060987" padding="0" w="1000"><proj flip="auto" id="robinson" lon0="-72.089261975"/><bbox h="413.36" w="809.67" x="-1698.08" y="-824.9"/></view></views></metadata><g class="" id="states"><path d="M910.454315,163.281974L910.345231,162.977160L910.114419,163.227764L910.454315,163.281974Z M924.305559,160.818337L922.768051,162.383866L920.165562,162.214597L922.187036,163.408158L924.305559,160.818337Z M909.434177,159.840047L910.326294,159.762195L910.510225,159.435783L909.434177,159.840047Z M915.366408,158.770649L912.320805,160.521465L915.784873,161.041088L915.366408,158.770649Z M925.753732,157.116332L926.557388,155.938246L926.874600,155.104616L925.753732,157.116332Z M892.483328,133.544526L891.677553,133.517688L882.902900,133.285530L880.348938,133.223353L879.351819,133.218251L879.207375,133.425951L875.187480,139.674453L874.259808,141.119627L870.783266,146.562172L871.062247,147.052340L873.065402,147.122861L885.924435,147.649859L886.275084,147.509774L898.790229,147.711577L898.732089,147.927601L900.246871,147.900658L905.652139,147.829139L906.154561,153.981097L906.154869,153.980753L907.084967,153.731169L908.258470,152.566238L906.657847,154.638799L906.657787,154.638888L907.604051,154.955247L907.201499,155.781616L906.799867,157.938552L906.801320,157.937594L908.128289,158.055645L914.752283,154.418611L917.436124,156.916390L919.550246,155.430498L927.574639,154.692007L928.640863,149.077479L927.635417,149.318062L926.942386,152.345421L922.370276,153.443975L918.889198,152.363413L919.218011,150.023916L917.459317,149.007675L918.101777,146.982836L917.289675,142.940512L915.696323,142.318624L914.423567,143.277993L917.556126,137.378228L922.859932,135.439855L920.354941,134.985081L919.965678,134.091927L920.806403,130.727248L920.870798,130.586819L914.829105,131.936906L911.536203,134.112552L892.484616,133.545502L892.483328,133.544526Z " data-name="us-ma" data-realname="Massachusetts"/><path d="M542.689071,7.594137L541.138070,14.499074L536.183594,23.358673L535.391115,25.687104L534.590735,34.134431L529.714918,46.492462L529.267728,49.339411L525.362004,57.993169L525.245079,63.260070L523.466630,67.728812L523.072774,69.234931L522.868671,69.443585L519.504420,73.219874L515.083697,75.678075L515.836004,79.961139L517.070420,80.082865L518.228422,83.003993L503.814819,113.768613L501.785940,118.152708L507.154479,118.152708L534.001649,118.146374L560.847235,118.142476L582.325288,118.137117L587.694631,118.136142L587.993905,117.668897L590.606171,110.216180L589.530094,107.812738L585.925469,106.712441L584.697787,105.187768L583.531030,101.469472L577.941592,96.398785L575.556735,96.025592L573.056622,93.025568L574.297859,91.776260L576.152645,87.052224L581.462118,79.973901L580.945199,76.726571L579.475753,76.598841L580.778466,73.784784L583.656430,71.403203L587.517409,69.051859L593.745918,66.380306L599.086121,54.745146L603.016402,52.551375L603.007852,52.464996L616.011752,45.401613L627.519492,37.894989L632.228642,35.406465L637.283283,33.477600L645.415492,31.459524L655.053293,27.715009L649.985576,27.929205L648.424886,25.804090L646.776778,25.290097L637.293313,25.946173L635.880441,23.053109L630.236842,25.467694L625.174995,26.563100L622.301613,25.665665L621.996823,23.856872L619.306482,23.028563L618.635706,20.635911L615.107816,20.937703L612.602475,23.144502L612.735354,19.674732L609.349410,18.351387L611.354426,17.145681L607.058777,15.272248L602.404085,14.907011L598.979170,15.571235L598.447689,16.379552L593.291792,17.204657L592.591246,14.788052L582.971765,13.409738L582.014697,12.966359L582.025294,9.169204L584.038701,1.543424L583.008101,0.481805L579.522983,0.000000L543.817306,7.594137L542.689071,7.594137Z " data-name="us-mn" data-realname="Minnesota"/><path d="M431.578935,7.595179L294.787485,7.596221L245.682902,7.597264L242.347341,7.597264L230.204370,27.569682L231.122181,32.057752L231.298381,35.756431L229.194841,38.538799L230.617921,41.276653L233.000589,42.889652L234.909409,50.777458L235.634693,52.054966L237.980186,53.209966L238.072531,55.054912L241.817088,54.375187L236.227490,62.045999L232.135605,70.517222L228.379454,72.670133L228.559401,73.724314L226.246804,76.590489L228.551852,78.418109L233.200443,76.711833L236.377757,74.280309L237.813851,75.563087L237.005926,83.138852L238.116644,85.731968L239.217392,91.808537L240.098920,92.366497L241.951259,99.306049L243.351681,98.468828L253.188201,97.076700L260.458036,97.411710L265.009173,96.693311L266.932579,94.088236L269.276309,93.127742L270.854676,98.052358L271.480828,98.227642L271.808627,97.620712L276.932391,88.172647L334.730408,88.172158L389.920335,88.171179L391.381299,88.171179L391.663553,88.174341L392.388267,86.768624L393.518055,84.510668L400.123961,71.415992L401.232158,69.229518L403.182992,65.384583L415.438094,41.787667L424.407839,24.917164L433.839509,7.595179L431.578935,7.595179Z " data-name="us-mt" data-realname="Montana"/><path d="M540.309914,7.594137L487.699028,7.594137L484.191223,7.594137L435.085504,7.595179L433.839509,7.595179L424.407839,24.917164L415.438094,41.787667L403.182992,65.384583L401.232158,69.229518L405.573248,69.230010L447.266571,69.230994L504.121780,69.232962L519.282783,69.234931L523.072774,69.234931L523.466630,67.728812L525.245079,63.260070L525.362004,57.993169L529.267728,49.339411L529.714918,46.492462L534.590735,34.134431L535.391115,25.687104L536.183594,23.358673L541.138070,14.499074L542.689071,7.594137L540.309914,7.594137Z " data-name="us-nd" data-realname="North Dakota"/><path d="M242.175094,7.597264L231.652906,7.597264L228.145510,7.597264L226.550299,7.597264L214.863199,26.535643L209.006282,36.303720L194.759253,60.731637L194.487793,64.783712L192.977827,65.947962L193.247396,67.124760L193.106558,68.031057L193.092101,68.121628L192.698091,69.877596L195.681959,72.653413L188.994247,81.623217L185.937615,85.136079L182.458192,87.875932L182.113464,88.843560L169.456606,99.828810L168.370275,102.229121L171.678023,102.816475L169.612591,107.605559L165.629362,112.054380L146.943214,146.087750L145.835808,148.155888L148.931025,148.155398L164.406660,148.151479L192.263635,148.146090L195.358280,148.145110L198.471924,148.145110L220.266979,148.147560L223.380120,148.148540L242.062064,148.150009L245.176118,148.150009L246.773221,145.019226L256.503100,126.284369L258.146203,123.167576L269.798066,101.347977L271.480828,98.227642L270.854676,98.052358L269.276309,93.127742L266.932579,94.088236L265.009173,96.693311L260.458036,97.411710L253.188201,97.076700L243.351681,98.468828L241.951259,99.306049L240.098920,92.366497L239.217392,91.808537L238.116644,85.731968L237.005926,83.138852L237.813851,75.563087L236.377757,74.280309L233.200443,76.711833L228.551852,78.418109L226.246804,76.590489L228.559401,73.724314L228.379454,72.670133L232.135605,70.517222L236.227490,62.045999L241.817088,54.375187L238.072531,55.054912L237.980186,53.209966L235.634693,52.054966L234.909409,50.777458L233.000589,42.889652L230.617921,41.276653L229.194841,38.538799L231.298381,35.756431L231.122181,32.057752L230.204370,27.569682L242.347341,7.597264L242.175094,7.597264Z " data-name="us-id" data-realname="Idaho"/><path d="M83.315639,59.633592L83.730621,58.021802L83.466754,58.207003L83.315639,59.633592Z M112.253294,45.360252L113.318876,44.301332L112.488218,44.387726L112.253294,45.360252Z M110.363908,44.273357L111.509908,42.240120L110.894035,42.240120L110.363908,44.273357Z M120.315286,39.599429L120.624583,37.840816L117.905549,40.649472L120.315286,39.599429Z M121.568837,35.701987L122.504961,33.794435L122.314202,33.411780L121.568837,35.701987Z M124.321947,26.660647L124.562587,25.671016L124.099664,25.688291L124.321947,26.660647Z M130.172887,19.744800L128.976214,19.860726L125.766879,24.600024L127.115803,29.278571L127.868870,26.563573L126.013388,27.299870L125.949578,22.918045L127.924293,22.241212L130.172887,19.744800Z M127.626435,17.913215L128.412298,17.389627L128.616343,17.060038L127.626435,17.913215Z M126.878909,18.314355L127.013034,16.588283L125.422851,18.380939L126.878909,18.314355Z M126.950721,15.924258L125.857095,15.796884L126.502809,16.506920L126.950721,15.924258Z M130.427625,16.659784L130.657853,15.488729L130.176745,15.980961L130.427625,16.659784Z M125.265753,17.264694L124.752527,15.335068L123.411209,15.542963L123.223099,17.966645L125.265753,17.264694Z M131.845637,15.187983L131.508062,15.008856L131.365961,15.051583L131.845637,15.187983Z M124.997388,14.807549L124.465428,14.540519L124.310885,14.506832L124.997388,14.807549Z M129.960182,13.324633L126.321508,14.782900L127.089654,14.739353L129.960182,13.324633Z M127.205959,13.750168L126.698096,13.385422L126.526068,13.492215L127.205959,13.750168Z M130.183043,12.113899L129.617367,12.260095L130.266085,12.235455L130.183043,12.113899Z M92.796631,64.448351L95.321201,65.124049L96.400595,67.059280L95.758816,70.451787L93.895425,74.066965L94.297903,75.600434L100.298073,76.796330L109.802704,73.674660L113.523234,73.512417L118.768105,74.166756L119.004424,75.671196L123.393013,75.277078L127.900789,74.037470L136.006939,73.182505L141.465710,71.326468L146.291403,70.644153L149.926902,69.523797L157.444260,68.776745L158.544809,68.070436L190.897618,68.033026L193.106558,68.031057L193.247396,67.124760L192.977827,65.947962L194.487793,64.783712L194.759253,60.731637L209.006282,36.303720L214.863199,26.535643L226.550299,7.597264L224.637701,7.597264L140.459784,7.597264L135.342025,7.914363L133.599706,10.184936L133.308049,12.856412L136.155919,12.375904L135.065124,13.655693L135.199682,15.453395L133.646313,15.858516L132.564481,18.449990L131.050786,17.210447L129.511566,17.816222L130.986046,22.406510L129.196832,22.596976L129.199115,25.168412L130.413722,22.946830L129.709294,28.302768L125.205367,32.652241L122.531760,36.419593L121.658530,39.959869L117.293784,41.479778L113.091942,45.277153L110.315388,44.530070L107.090277,46.229064L113.997452,39.823264L111.689981,43.722071L113.326400,43.044877L115.468690,40.499702L117.979408,40.373797L120.338726,37.344581L119.949596,35.792511L124.889869,29.555029L123.945369,28.938762L118.372790,34.068468L112.078811,37.292736L108.043703,40.978634L109.592357,38.776498L115.502370,34.720225L119.278259,31.552872L123.055812,30.118654L123.103622,25.688291L119.704398,25.789472L118.552500,26.436884L118.381072,24.063897L116.030487,25.312541L105.061009,24.296436L95.831319,19.807170L96.042555,20.909252L91.839864,27.081857L91.008435,29.507295L92.231529,33.193405L89.193774,40.735439L88.848921,44.076010L85.888836,49.372678L91.464958,48.480684L87.584304,50.067459L86.801500,49.639124L85.090025,52.688006L87.883699,53.101365L84.463712,59.603845L82.622254,60.429204L84.057304,55.091884L80.634682,60.872827L82.893704,62.819042L86.021192,61.903627L86.921569,62.814383L89.402773,62.673775L90.543300,65.004318L92.797642,64.429672L92.796631,64.448351Z " data-name="us-wa" data-realname="Washington"/><path d="M230.284484,251.318312L203.659177,251.296711L193.009867,251.287453L150.409912,251.252994L147.747527,251.250423L147.675684,251.424776L141.002365,267.952499L138.248523,271.414505L135.864241,271.696591L128.878012,270.020856L127.212865,273.722703L127.541016,274.604534L125.903844,278.281182L125.908932,279.807532L124.460580,284.385552L123.563857,289.365579L121.174940,293.047459L121.099149,293.294676L121.053596,293.440564L120.299254,295.892909L121.690035,301.173705L121.861416,304.572311L124.430269,307.394828L124.266112,308.114264L117.697373,312.317286L114.579628,315.425787L114.540165,316.670917L108.937504,325.880314L106.982699,326.654063L105.354728,333.801819L108.166996,335.486681L105.571170,340.016447L101.834799,340.850626L101.832311,340.877798L98.581936,345.236680L149.135290,366.356076L157.873261,369.397796L190.675727,369.393542L191.055700,369.393542L197.005946,351.053741L210.873230,310.756340L220.255217,284.864545L231.498771,255.051556L232.947151,251.320370L230.284484,251.318312Z " data-name="us-az" data-realname="Arizona"/><path d="M37.068155,334.191833L37.308316,337.704177L39.658310,338.665932L37.068155,334.191833Z M23.030437,329.205519L23.541313,330.456376L23.989594,330.290281L23.030437,329.205519Z M41.535300,325.049219L41.409310,327.508028L44.371849,327.964917L41.535300,325.049219Z M31.204740,313.996454L30.072912,313.918145L30.926177,314.164700L31.204740,313.996454Z M19.864399,313.626438L16.351696,314.026859L17.374098,316.387890L20.431382,315.432392L19.864399,313.626438Z M14.566582,313.106753L14.259417,313.903190L15.188311,313.831677L14.566582,313.106753Z M23.731383,312.888850L27.934543,314.327892L26.817457,313.926503L23.731383,312.888850Z M1.343224,236.549210L1.204204,236.654429L1.317042,236.582572L1.343224,236.549210Z M13.209572,234.130961L13.157813,233.867538L13.129232,234.281613L13.209572,234.130961Z M96.151500,148.155888L91.796044,148.155888L26.473149,148.155888L25.994295,148.155888L25.899038,148.517661L24.815624,150.334581L22.784172,157.767087L18.281171,164.621029L15.406480,169.588529L5.406798,179.604283L4.350443,183.726536L6.720821,186.489625L7.668606,195.329596L3.673800,202.156588L2.925582,208.140206L0.979378,211.065799L3.611530,215.899690L4.062209,218.396828L6.428945,220.863405L6.080707,223.518512L7.347322,227.535532L4.543776,230.212142L7.472013,230.793828L8.297118,232.545436L10.497694,234.136287L13.522761,230.592232L13.958427,228.080392L15.542221,227.471747L19.421844,229.395515L21.341488,227.608069L23.470979,229.163055L17.519503,229.118055L15.126482,230.021046L14.078927,234.905631L15.276920,237.329883L14.196874,240.835074L11.269811,238.836223L10.139762,235.483547L7.876549,240.578083L8.581665,240.859047L7.169854,248.818460L8.299166,250.804541L10.592419,252.408527L13.303287,255.953385L12.151552,257.990206L8.416107,261.600103L7.984275,267.344025L9.549689,268.543954L11.347179,272.310886L11.069430,274.762525L12.354459,276.869769L12.276978,279.078359L14.282895,280.775096L15.231317,283.715698L17.063321,284.877216L15.701785,289.120989L18.545862,290.219414L14.927636,302.692354L15.888021,304.844405L19.134297,304.464989L24.304561,304.849363L28.215772,305.944272L35.060649,309.359683L36.235362,312.120822L46.224175,313.749386L46.546835,318.243582L45.743139,318.905743L50.381280,319.216116L52.427046,321.761787L58.219617,327.990051L59.715454,332.678583L59.661776,335.055635L57.760800,341.079865L59.252110,340.805317L59.210357,342.853750L60.239251,344.469815L101.834801,340.850602L101.834799,340.850626L105.571170,340.016447L108.166996,335.486681L105.354728,333.801819L106.982699,326.654063L108.937504,325.880314L114.540165,316.670917L114.579628,315.425787L117.697373,312.317286L124.266112,308.114264L124.430269,307.394828L121.861416,304.572311L121.690035,301.173705L120.299254,295.892909L121.053596,293.440564L121.099149,293.294676L119.046521,290.304031L107.822616,273.261444L99.435728,259.977435L84.212294,236.764233L74.375844,223.041152L64.806914,209.386572L72.808669,192.773565L94.135276,151.834638L96.151500,148.155888Z " data-name="us-ca" data-realname="California"/><path d="M377.412380,187.403194L383.500025,173.377022L385.755825,168.308123L354.776786,168.303178L352.245761,168.303178L350.155713,168.303178L310.726808,168.303178L308.098106,168.303178L271.297904,168.303178L268.669610,168.303178L267.459618,170.837431L261.496611,183.568044L253.414209,201.586901L245.635560,219.807068L233.975447,248.687819L232.947151,251.320370L236.172317,251.320370L284.541044,251.320370L287.766209,251.320370L332.909771,251.320370L336.134520,251.320370L338.242128,251.320370L344.566618,251.320370L346.674643,251.320370L350.891109,251.320370L352.540360,251.320370L353.255180,249.345521L367.375249,211.973651L371.272498,202.228986L376.058150,190.612800L376.867926,188.685553L377.412380,187.403194Z " data-name="us-co" data-realname="Colorado"/><path d="M149.090807,247.961255L165.891773,208.681420L176.335004,186.098571L193.724203,151.280831L195.358280,148.145110L192.263635,148.146090L164.406660,148.151479L148.931025,148.155398L145.835808,148.155888L142.731911,148.155888L121.000158,148.155888L117.895854,148.155888L99.268405,148.155888L96.151500,148.155888L94.135276,151.834638L72.808669,192.773565L64.806914,209.386572L74.375844,223.041152L84.212294,236.764233L99.435728,259.977435L107.822616,273.261444L119.046521,290.304031L121.099149,293.294676L121.174940,293.047459L123.563857,289.365579L124.460580,284.385552L125.908932,279.807532L125.903844,278.281182L127.541016,274.604534L127.212865,273.722703L128.878012,270.020856L135.864241,271.696591L138.248523,271.414505L141.002365,267.952499L147.675684,251.424776L147.747527,251.250423L149.090807,247.961255Z " data-name="us-nv" data-realname="Nevada"/><path d="M333.259557,259.214602L334.212675,256.583442L335.170851,253.952309L336.134520,251.320370L332.909771,251.320370L287.766209,251.320370L284.541044,251.320370L236.172317,251.320370L232.947151,251.320370L231.498771,255.051556L220.255217,284.864545L210.873230,310.756340L197.005946,351.053741L191.055700,369.393542L191.421094,369.393542L204.839948,369.393542L208.347544,360.702194L210.786067,360.130842L238.093431,360.204257L238.264214,360.277672L236.956483,355.888404L245.529654,355.535393L299.682295,355.511758L305.186529,338.312874L310.889564,321.059068L320.807584,292.111498L331.588997,261.859481L332.309817,261.846623L333.259557,259.214602Z " data-name="us-nm" data-realname="New Mexico"/><path d="M25.994295,148.155888L26.473149,148.155888L91.796044,148.155888L96.151500,148.155888L99.268405,148.155888L117.895854,148.155888L121.000158,148.155888L142.731911,148.155888L145.835808,148.155888L146.943214,146.087750L165.629362,112.054380L169.612591,107.605559L171.678023,102.816475L168.370275,102.229121L169.456606,99.828810L182.113464,88.843560L182.458192,87.875932L185.937615,85.136079L188.994247,81.623217L195.681959,72.653413L192.698091,69.877596L193.092101,68.121628L193.106558,68.031057L190.897618,68.033026L158.544809,68.070436L157.444260,68.776745L149.926902,69.523797L146.291403,70.644153L141.465710,71.326468L136.006939,73.182505L127.900789,74.037470L123.393013,75.277078L119.004424,75.671196L118.768105,74.166756L113.523234,73.512417L109.802704,73.674660L100.298073,76.796330L94.297903,75.600434L93.895425,74.066965L95.758816,70.451787L96.400595,67.059280L95.321201,65.124049L92.796631,64.448351L92.496834,64.584962L91.416817,65.294655L85.836408,64.299720L81.799921,65.994779L79.547596,65.640678L78.684043,67.778730L76.755187,69.701473L74.977472,74.015123L66.569017,86.068285L61.590015,92.070535L57.580311,98.223922L57.607451,99.988445L53.392177,104.369422L49.081529,110.536407L47.956181,113.791297L45.624773,114.907046L40.029199,120.898601L38.135370,122.145286L32.160395,129.537290L30.254487,131.223128L29.698587,136.418623L27.330866,139.732365L25.714197,142.956815L26.029400,148.022707L25.994295,148.155888Z M89.136325,63.615091L88.999648,62.921116L88.677265,63.522181L89.136325,63.615091Z " data-name="us-or" data-realname="Oregon"/><path d="M242.062064,148.150009L223.380120,148.148540L220.266979,148.147560L198.471924,148.145110L195.358280,148.145110L193.724203,151.280831L176.335004,186.098571L165.891773,208.681420L149.090807,247.961255L147.747527,251.250423L150.409912,251.252994L193.009867,251.287453L203.659177,251.296711L230.284484,251.318312L232.947151,251.320370L233.975447,248.687819L245.635560,219.807068L253.414209,201.586901L261.496611,183.568044L267.459618,170.837431L268.669610,168.303178L266.573023,168.303178L236.367538,165.769137L239.484077,159.460263L244.538274,149.404451L245.176118,148.150009L242.062064,148.150009Z " data-name="us-ut" data-realname="Utah"/><path d="M372.610675,125.632670L376.301113,118.148810L386.316992,98.181746L390.117540,90.676686L391.381299,88.171179L389.920335,88.171179L334.730408,88.172158L276.932391,88.172647L271.808627,97.620712L271.480828,98.227642L269.798066,101.347977L258.146203,123.167576L256.503100,126.284369L246.773221,145.019226L245.176118,148.150009L244.538274,149.404451L239.484077,159.460263L236.367538,165.769137L266.573023,168.303178L268.669610,168.303178L271.297904,168.303178L308.098106,168.303178L310.726808,168.303178L350.155713,168.303178L352.245761,168.303178L353.419185,165.772594L358.109741,155.682849L364.085042,143.130245L370.160839,130.625278L371.385956,128.128582L372.610675,125.632670Z " data-name="us-wy" data-realname="Wyoming"/><path d="M556.091955,272.368099L544.895519,272.670177L545.915908,271.085646L552.165511,266.225566L552.557983,264.090017L551.899428,261.854338L480.367899,261.854338L475.677861,261.854338L475.092023,264.786826L471.141664,285.277909L469.595967,289.835100L460.550418,317.017466L459.081513,321.524614L459.357775,321.594441L462.934784,323.040278L465.911037,323.390274L463.521141,332.227914L462.815341,334.694766L465.917517,334.691740L493.840819,334.658446L512.456017,334.637764L512.702852,334.624648L513.410520,332.467642L514.670723,331.826154L514.249584,328.304183L516.149676,325.032610L516.413007,320.267507L520.479815,315.653359L520.363164,315.084652L523.966294,312.944293L523.250139,310.945156L528.025848,306.293492L531.154991,305.369722L532.922973,299.956878L535.640372,298.399526L535.913471,296.966227L538.061373,296.211278L540.105673,294.095740L539.770345,293.459972L539.747058,293.367713L539.679963,293.108244L544.450298,290.264147L545.115703,286.113696L549.615135,282.144930L550.740549,277.925041L555.069377,275.883106L556.045839,272.520168L556.121769,272.369127L556.091955,272.368099Z " data-name="us-ar" data-realname="Arkansas"/><path d="M589.664577,137.466913L585.490199,134.097423L584.567480,129.906900L586.587235,124.235820L588.801556,121.800219L587.386169,119.114979L587.677685,118.162940L587.694631,118.136142L582.325288,118.137117L560.847235,118.142476L534.001649,118.146374L507.154479,118.152708L501.785940,118.152708L499.435007,118.177069L499.376965,120.436858L497.446236,123.355682L497.492102,126.755258L491.934178,133.846099L492.865236,135.147751L492.681839,137.055236L492.355189,137.762389L493.039754,137.872281L493.575309,138.195627L491.935664,146.985739L493.078862,148.391053L492.359468,150.835517L492.927404,151.783127L490.437278,157.196279L491.995165,158.862795L488.251048,171.787582L487.774767,176.076159L487.578111,176.412080L487.579545,176.412577L503.447003,176.845010L514.811583,176.940460L532.256367,176.802258L555.446587,176.038894L558.270448,180.750542L558.383020,180.916532L559.484099,180.642882L560.677642,176.803252L565.564937,174.947188L567.160869,173.091343L572.000126,165.331179L570.930495,164.460508L572.302203,161.357161L574.446096,159.537051L579.383586,159.182670L586.273928,156.321226L588.107705,153.600870L591.753299,150.561402L593.571083,147.533284L591.410266,143.522042L591.405243,141.080032L588.874626,138.332397L589.274890,137.893772L589.664577,137.466913Z " data-name="us-ia" data-realname="Iowa"/><path d="M480.120192,248.630741L483.812371,237.879727L495.321344,206.192668L491.870883,203.401472L492.292378,201.371412L490.043910,197.953304L493.396522,194.945773L495.547355,193.995145L495.264598,191.451069L492.566921,191.387264L490.809636,189.515662L490.182433,188.685553L486.655541,188.685553L433.750925,188.685553L430.224033,188.685553L380.846310,188.685553L376.867926,188.685553L376.058150,190.612800L371.272498,202.228986L367.375249,211.973651L353.255180,249.345521L352.540360,251.320370L356.942252,251.320370L416.103615,251.320370L420.047567,251.320370L475.264145,251.320370L479.207681,251.320370L480.120192,248.630741Z " data-name="us-ks" data-realname="Kansas"/><path d="M558.270448,180.750542L555.446587,176.038894L532.256367,176.802258L514.811583,176.940460L503.447003,176.845010L487.579545,176.412577L487.578111,176.412080L487.269158,176.942449L488.090117,178.085338L487.631260,181.758247L489.270549,183.477149L488.929270,187.404697L489.885013,188.292041L490.182433,188.685553L490.809636,189.515662L492.566921,191.387264L495.264598,191.451069L495.547355,193.995145L493.396522,194.945773L490.043910,197.953304L492.292378,201.371412L491.870883,203.401472L495.321344,206.192668L483.812371,237.879727L480.120192,248.630741L479.207681,251.320370L478.319589,253.953852L477.434151,256.587557L476.554231,259.221289L475.677861,261.854338L480.367899,261.854338L551.899428,261.854338L552.557983,264.090017L552.165511,266.225566L545.915908,271.085646L544.895519,272.670177L556.091955,272.368099L556.121769,272.369127L556.483090,271.649321L558.573410,267.077505L560.185855,267.016839L559.985600,265.189980L561.607432,264.765228L562.249603,261.931488L562.203656,261.847651L562.104097,261.664546L563.044258,260.420827L563.540757,260.704759L563.496826,261.545732L563.332454,261.820906L563.226141,261.998866L562.864186,262.731778L563.273533,262.853156L564.430343,261.990123L564.512172,261.872854L564.680514,261.630085L567.902284,260.394594L568.439295,260.154381L572.810700,252.118609L572.847315,251.745201L572.558457,251.593475L570.302922,249.817094L568.973127,250.320054L568.245501,244.857139L570.263707,242.927829L569.929330,239.483340L570.798481,237.026014L568.520066,233.699472L563.171246,229.930402L560.524297,225.935176L561.403544,222.539173L568.017483,213.800539L568.658789,212.352232L564.935351,210.171792L561.339288,211.909543L560.221168,209.466350L561.321239,204.790172L557.765904,199.979017L557.628814,198.620167L554.469864,194.126020L554.616176,188.490537L555.469042,185.100692L558.382200,180.916532L558.383020,180.916532L558.270448,180.750542Z " data-name="us-mo" data-realname="Missouri"/><path d="M490.363648,137.442983L489.678408,134.496151L486.169232,132.752612L484.122272,132.338402L482.132217,130.391175L475.463238,131.073025L474.854591,130.787205L468.473877,132.081305L463.601140,128.172950L374.608262,128.128582L371.385956,128.128582L370.160839,130.625278L364.085042,143.130245L358.109741,155.682849L353.419185,165.772594L352.245761,168.303178L354.776786,168.303178L385.755825,168.308123L383.500025,173.377022L377.412380,187.403194L376.867926,188.685553L380.846310,188.685553L430.224033,188.685553L433.750925,188.685553L486.655541,188.685553L490.182433,188.685553L489.885013,188.292041L488.929270,187.404697L489.270549,183.477149L487.631260,181.758247L488.090117,178.085338L487.269158,176.942449L487.578111,176.412080L487.774767,176.076159L488.251048,171.787582L491.995165,158.862795L490.437278,157.196279L492.927404,151.783127L492.359468,150.835517L493.078862,148.391053L491.935664,146.985739L493.575309,138.195627L493.039754,137.872281L492.355189,137.762389L490.363648,137.442983Z " data-name="us-ne" data-realname="Nebraska"/><path d="M476.554231,259.221289L477.434151,256.587557L478.319589,253.953852L479.207681,251.320370L475.264145,251.320370L420.047567,251.320370L416.103615,251.320370L356.942252,251.320370L352.540360,251.320370L350.891109,251.320370L346.674643,251.320370L344.566618,251.320370L338.242128,251.320370L336.134520,251.320370L335.170851,253.952309L334.212675,256.583442L333.259557,259.214602L332.309817,261.846623L332.872320,261.846623L383.584846,261.853823L377.469533,279.635685L369.925010,302.235254L371.745356,302.340623L374.466813,306.101848L377.398686,305.749027L378.642861,306.300100L380.133586,304.594690L384.148014,309.963902L385.146284,309.722730L389.021600,311.370965L391.473927,310.945156L392.362211,312.494341L395.574908,311.228866L397.789745,311.525744L399.210016,313.631528L401.323967,314.686196L400.660018,316.635449L403.258813,316.538165L406.727413,314.323692L407.304849,316.307104L410.517300,317.662849L413.944542,316.667877L413.046270,318.137439L414.535062,319.556780L419.226310,315.230640L422.556976,316.894861L422.981455,316.251363L426.345750,318.573985L427.508966,320.396072L432.272167,317.493663L435.676767,316.430744L437.930216,317.210486L441.953120,315.290452L445.820839,316.729691L448.053465,315.026357L452.142549,317.428823L455.400142,320.567146L458.996432,321.502856L459.081513,321.524614L460.550418,317.017466L469.595967,289.835100L471.141664,285.277909L475.092023,264.786826L475.677861,261.854338L476.554231,259.221289Z " data-name="us-ok" data-realname="Oklahoma"/><path d="M519.282783,69.234931L504.121780,69.232962L447.266571,69.230994L405.573248,69.230010L401.232158,69.229518L400.123961,71.415992L393.518055,84.510668L392.388267,86.768624L391.663553,88.174341L391.381299,88.171179L390.117540,90.676686L386.316992,98.181746L376.301113,118.148810L372.610675,125.632670L371.385956,128.128582L374.608262,128.128582L463.601140,128.172950L468.473877,132.081305L474.854591,130.787205L475.463238,131.073025L482.132217,130.391175L484.122272,132.338402L486.169232,132.752612L489.678408,134.496151L490.363648,137.442983L492.355189,137.762389L492.681839,137.055236L492.865236,135.147751L491.934178,133.846099L497.492102,126.755258L497.446236,123.355682L499.376965,120.436858L499.435007,118.177069L501.785940,118.152708L503.814819,113.768613L518.228422,83.003993L517.070420,80.082865L515.836004,79.961139L515.083697,75.678075L519.504420,73.219874L522.868671,69.443585L523.072774,69.234931L519.282783,69.234931Z " data-name="us-sd" data-realname="South Dakota"/><path d="M500.702864,415.883384L499.444854,415.990888L498.707273,416.495667L500.702864,415.883384Z M504.659092,416.258813L504.066789,415.905221L503.794793,416.147947L504.659092,416.258813Z M507.070805,415.719610L506.459971,415.719610L505.871056,416.142908L507.070805,415.719610Z M506.173144,414.892376L506.096355,414.624482L505.935563,414.880619L506.173144,414.892376Z M515.283253,410.621932L514.917747,410.724350L515.371804,410.812497L515.283253,410.621932Z M530.150524,406.531039L530.938335,405.743929L530.011911,406.592299L530.150524,406.531039Z M532.856911,404.166535L532.640062,404.283992L532.657707,404.309162L532.856911,404.166535Z M482.398320,407.229250L484.360514,405.503948L480.949014,403.990352L478.741080,405.331098L482.398320,407.229250Z M523.700025,403.064184L523.426133,402.609520L523.273389,402.822589L523.700025,403.064184Z M525.327113,401.410048L524.461437,400.967203L524.458758,401.998861L525.327113,401.410048Z M533.464674,400.760046L533.564610,400.438835L533.449549,400.601536L533.464674,400.760046Z M535.703576,399.679043L535.674515,399.573381L535.693876,399.878629L535.703576,399.679043Z M535.065766,399.445080L534.915745,399.362062L534.681746,399.589314L535.065766,399.445080Z M528.710374,398.293796L529.615298,398.126104L529.718511,397.779830L528.710374,398.293796Z M529.287070,397.832651L529.944760,397.373206L529.937683,397.263379L529.287070,397.832651Z M527.347536,393.780748L527.064205,393.904783L527.190140,393.970154L527.347536,393.780748Z M512.702852,334.624648L512.456017,334.637764L493.840819,334.658446L465.917517,334.691740L462.815341,334.694766L462.098134,337.118041L456.745736,355.583669L459.081516,359.863775L458.135844,363.711804L459.917405,368.511145L459.271926,369.544663L460.492405,372.088400L459.042883,377.832316L453.220801,388.170999L452.454571,393.428393L449.898934,397.013874L450.062992,397.025015L449.516572,399.673967L447.260655,401.871802L447.849110,402.897367L452.953410,401.598931L459.299006,401.399186L467.504662,404.876742L473.626662,406.315388L477.666877,404.185832L478.269072,402.698438L476.748337,401.572765L483.311002,400.194789L482.460462,402.294120L485.772766,401.805102L486.900119,406.230621L489.322764,405.666732L493.600894,410.363373L492.025565,409.495396L489.775668,410.339867L489.764053,411.255764L496.785476,414.579974L499.847411,414.873901L505.592418,409.960435L508.114375,413.235564L508.069179,415.552479L511.693065,412.935801L512.833318,411.044203L512.555893,406.103072L516.846047,408.734925L516.879034,410.570357L522.451500,412.171735L522.487679,414.143296L524.594703,415.142640L523.560323,417.166777L525.748283,415.453377L526.713500,416.723286L528.218422,411.185243L521.669171,409.132781L519.437371,404.928352L523.522167,404.230297L522.279395,403.132972L527.302112,399.741937L525.941055,395.144381L524.173355,396.698499L522.979871,398.967946L521.464326,399.137330L519.600529,397.805821L523.576921,393.821814L522.055304,393.106960L516.879639,395.637245L510.943367,395.356444L509.689735,393.765663L514.150721,389.020647L517.355270,389.297104L522.105754,391.828216L522.004627,392.825389L525.829551,392.746618L525.829798,392.746357L524.691250,389.644240L523.605710,380.719215L526.313226,376.436144L523.588531,376.128678L492.861783,376.126166L494.351872,371.290073L497.389634,368.441305L499.763660,364.334458L501.232366,360.933946L503.444060,358.274694L504.998293,357.721658L509.019559,353.801337L508.660043,353.189716L513.150161,348.863873L510.572754,342.995485L512.593452,340.889708L512.479924,335.302584L512.702852,334.624648Z " data-name="us-la" data-realname="Louisiana"/><path d="M372.372324,477.023045L371.944334,463.714286L372.092368,458.799346L371.304080,462.177784L372.245345,473.316300L372.372324,477.023045Z M378.910769,445.177454L377.588277,445.790558L374.110088,451.474617L373.296828,453.601371L378.910769,445.177454Z M382.572143,440.655719L384.696203,438.349961L386.670430,436.528098L382.572143,440.655719Z M395.798678,430.881194L387.809633,434.483559L387.053496,436.528098L389.817925,434.164830L395.798678,430.881194Z M397.109213,429.549431L399.572176,427.884049L398.767201,428.106818L397.109213,429.549431Z M428.815557,410.057810L422.315829,415.512411L430.293714,410.465824L428.815557,410.057810Z M332.309817,261.846623L331.588997,261.859481L320.807584,292.111498L310.889564,321.059068L305.186529,338.312874L299.682295,355.511758L245.529654,355.535393L236.956483,355.888404L238.264214,360.277672L238.319311,360.358271L240.850748,362.782063L241.409353,365.430724L246.399560,370.196464L247.353196,372.426495L250.699986,377.025728L257.257375,382.507917L259.576892,391.270439L260.342104,392.743266L258.893840,397.906013L259.784611,400.785693L259.938120,403.561821L263.762985,406.476200L266.396289,410.344468L271.001361,412.025872L272.230733,413.758715L274.286539,414.149040L276.704142,416.851279L280.435091,417.648681L286.126713,412.794688L288.727144,407.632589L292.336206,402.703119L297.833696,401.307089L300.632675,399.405382L303.178402,400.795279L306.966394,400.661073L311.398980,401.340642L316.225524,404.836587L317.947563,404.259974L317.695538,406.105252L320.222602,407.009801L322.636512,406.949091L320.465271,409.781569L322.958938,411.752906L324.788819,415.221970L324.491672,418.895290L325.717282,421.368067L326.076337,425.053814L327.367349,430.695539L327.249375,431.871227L330.497795,435.602803L332.444259,441.190410L335.476338,445.586383L337.080323,446.170406L337.334431,449.855470L336.389647,452.448578L335.966274,457.577367L338.613923,460.890421L339.758509,460.202209L339.153714,463.838278L340.372985,463.521557L338.752195,468.189834L342.265391,471.256733L345.763221,473.648934L349.309382,474.601762L353.441643,477.813169L360.847327,478.054854L362.895107,478.656927L366.658566,482.377364L371.002039,480.188311L372.187567,480.080943L371.418115,477.486175L369.974647,477.063467L369.593628,473.459518L370.158742,472.144262L369.356988,468.547176L369.522754,465.566569L368.940260,460.752460L370.028266,461.212970L369.103435,458.811132L371.763844,455.065141L372.528402,453.049452L369.056343,453.619780L367.527188,448.990008L369.719653,452.481075L373.478943,451.288440L377.537469,444.631054L375.970456,443.058499L375.890195,441.371644L374.284963,440.493357L379.666017,441.377533L383.377720,437.241345L383.423870,435.717318L380.209917,436.454084L381.969955,434.950308L386.535041,432.551099L385.261012,435.385952L388.443873,433.273433L388.434531,429.410712L389.649418,428.085802L391.326647,431.396609L396.289823,429.012218L393.344782,424.121873L395.737141,425.340521L398.103026,422.915096L398.616124,424.780770L400.534435,425.876760L407.301578,424.641256L415.770510,419.977604L421.210874,416.397397L422.615407,413.734346L428.108315,409.257009L426.102645,406.154259L427.294361,403.175790L428.367171,403.585842L430.737425,401.495390L432.658029,401.322107L432.291366,403.921982L430.726984,406.523627L433.501897,405.938378L433.547620,406.661950L429.587214,409.223434L438.374992,405.411649L444.142208,403.229445L446.251329,403.274745L449.550407,396.990205L449.898934,397.013874L452.454571,393.428393L453.220801,388.170999L459.042883,377.832316L460.492405,372.088400L459.271926,369.544663L459.917405,368.511145L458.135844,363.711804L459.081516,359.863775L456.745736,355.583669L462.098134,337.118041L462.815341,334.694766L463.521141,332.227914L465.911037,323.390274L462.934784,323.040278L459.357775,321.594441L459.081513,321.524614L458.996432,321.502856L455.400142,320.567146L452.142549,317.428823L448.053465,315.026357L445.820839,316.729691L441.953120,315.290452L437.930216,317.210486L435.676767,316.430744L432.272167,317.493663L427.508966,320.396072L426.345750,318.573985L422.981455,316.251363L422.556976,316.894861L419.226310,315.230640L414.535062,319.556780L413.046270,318.137439L413.944542,316.667877L410.517300,317.662849L407.304849,316.307104L406.727413,314.323692L403.258813,316.538165L400.660018,316.635449L401.323967,314.686196L399.210016,313.631528L397.789745,311.525744L395.574908,311.228866L392.362211,312.494341L391.473927,310.945156L389.021600,311.370965L385.146284,309.722730L384.148014,309.963902L380.133586,304.594690L378.642861,306.300100L377.398686,305.749027L374.466813,306.101848L371.745356,302.340623L369.925010,302.235254L377.469533,279.635685L383.584846,261.853823L332.872320,261.846623L332.309817,261.846623Z " data-name="us-tx" data-realname="Texas"/><path d="M898.790229,147.711577L886.275084,147.509774L885.924435,147.649859L873.065402,147.122861L871.062247,147.052340L870.684280,147.981487L865.804706,160.084982L865.269947,163.557686L860.663763,166.204730L861.331657,168.278192L861.355750,168.263869L870.057710,165.026074L870.799363,165.320593L875.583074,162.130024L875.482586,163.344624L884.648298,162.285283L884.973920,161.804759L889.701834,161.183125L892.922880,162.181424L893.382376,162.015065L894.195552,160.382885L894.774964,159.898384L898.361268,149.085887L898.732089,147.927601L898.790229,147.711577Z " data-name="us-ct" data-realname="Connecticut"/><path d="M933.022227,82.066510L930.653818,83.060032L929.544126,82.305314L927.082621,84.060522L924.148532,87.897675L924.119550,87.897840L920.195033,96.657168L918.679335,98.241801L915.137953,100.214867L910.819449,101.829550L908.297627,106.725604L903.924536,112.474913L899.129496,117.528577L897.827234,120.934831L892.027851,130.573580L892.485301,133.541110L892.483328,133.544526L892.484616,133.545502L911.536203,134.112552L914.829105,131.936906L920.870798,130.586819L920.870890,130.586620L921.888178,129.152060L923.906729,126.959709L923.074894,126.958084L923.413489,126.462488L921.802890,119.851190L923.107381,116.913705L933.032602,82.064902L933.022227,82.066510Z " data-name="us-nh" data-realname="New Hampshire"/><path d="M901.960133,158.939596L903.170758,156.740227L902.323430,157.667085L901.960133,158.939596Z M904.780761,158.193380L906.107518,154.967072L903.446494,157.797417L904.780761,158.193380Z M906.242764,155.255270L905.673161,157.027831L905.447574,158.829697L906.799867,157.938552L907.201499,155.781616L907.604051,154.955247L906.657787,154.638888L906.242764,155.255270Z M898.732089,147.927601L898.361268,149.085887L894.774964,159.898384L894.195552,160.382885L893.382376,162.015065L893.726318,161.890545L900.553516,160.091878L904.068719,153.694348L904.746694,154.985902L906.114551,154.025763L906.154561,153.981097L905.652139,147.829139L900.246871,147.900658L898.732089,147.927601Z " data-name="us-ri" data-realname="Rhode Island"/><path d="M892.485301,133.541110L892.027851,130.573580L897.827234,120.934831L899.129496,117.528577L903.924536,112.474913L908.297627,106.725604L910.819449,101.829550L915.137953,100.214867L918.679335,98.241801L920.195033,96.657168L924.119550,87.897840L922.513389,87.907003L912.701247,87.966078L911.065307,87.977479L894.709548,88.074899L893.858085,88.080293L892.598853,91.977255L890.958827,98.791530L889.382802,102.106667L887.360490,104.694753L885.022426,112.117241L883.069492,115.191850L885.190684,116.957068L879.177567,133.208047L879.351819,133.218251L880.348938,133.223353L882.902900,133.285530L891.677553,133.517688L892.483328,133.544526L892.485301,133.541110Z " data-name="us-vt" data-realname="Vermont"/><path d="M576.312126,293.414517L576.364379,294.259125L577.325259,295.291781L573.859164,303.969530L559.267343,341.113419L552.904471,357.822212L546.492215,388.730237L546.950766,388.605971L548.282337,388.453507L550.782117,390.131537L555.013179,381.577256L556.048482,385.110562L555.214174,388.200521L557.078210,390.268100L554.991262,391.742748L560.149121,391.045620L564.484433,387.457505L564.043739,386.768130L564.152383,386.840790L563.752793,376.136716L606.177778,376.129180L608.953386,376.128678L609.023529,376.040256L608.513639,370.542982L611.192635,363.442935L610.774349,359.172064L614.865073,351.769648L617.312532,350.171727L616.654193,347.816522L616.940178,345.029051L615.670386,338.523077L617.505446,320.195631L620.518092,293.798557L620.531385,293.678551L617.525083,293.629525L601.266562,293.583052L587.801821,293.254837L576.274718,293.165452L576.312126,293.414517Z " data-name="us-al" data-realname="Alabama"/><path d="M633.794607,509.299156L633.626264,509.297472L633.608735,509.356382L633.794607,509.299156Z M633.022703,509.052576L632.991109,509.137574L633.007032,509.171237L633.022703,509.052576Z M633.238194,508.918765L633.213883,508.878370L633.198615,508.922132L633.238194,508.918765Z M639.170642,509.528061L639.997488,509.369847L639.963987,509.172920L639.170642,509.528061Z M620.790951,507.790197L620.757507,507.781781L620.753254,507.838168L620.790951,507.790197Z M620.592919,507.807870L620.594384,507.727077L620.565150,507.838168L620.592919,507.807870Z M620.719916,507.686680L620.690209,507.743909L620.709604,507.759058L620.719916,507.686680Z M619.781989,507.655541L619.735659,507.594103L619.698658,507.708561L619.781989,507.655541Z M646.702688,507.193498L646.591364,507.111020L646.604904,507.353404L646.702688,507.193498Z M649.283360,507.090821L649.337437,506.865267L649.076564,507.148051L649.283360,507.090821Z M648.468490,506.692735L648.163895,506.192806L648.081478,506.269395L648.468490,506.692735Z M647.921436,507.373603L647.335004,505.702971L647.545330,507.073988L647.921436,507.373603Z M658.050008,503.646770L657.999792,503.998597L658.174950,503.853826L658.050008,503.646770Z M659.645807,502.973409L660.022842,502.527299L659.618589,502.823584L659.645807,502.973409Z M660.181226,502.083710L660.110473,502.002062L660.108959,502.107278L660.181226,502.083710Z M658.729232,501.362339L658.659583,501.297524L658.716288,501.380857L658.729232,501.362339Z M659.958462,500.054160L659.848628,500.025540L659.820825,500.160301L659.958462,500.054160Z M657.602347,499.405982L657.546688,499.349581L657.576498,499.423660L657.602347,499.405982Z M661.282941,497.954693L661.103989,497.929438L661.323654,498.084335L661.282941,497.954693Z M661.683986,498.058238L661.590232,497.771173L661.560195,498.054871L661.683986,498.058238Z M661.082623,497.688674L661.081222,497.505994L661.027337,497.709719L661.082623,497.688674Z M664.617871,497.774541L664.607418,497.673520L664.351272,498.032141L664.617871,497.774541Z M660.744260,497.222293L660.617733,497.227344L660.689817,497.387295L660.744260,497.222293Z M662.944024,496.587535L662.714159,496.452837L662.628000,496.547126L662.944024,496.587535Z M663.862129,496.272678L663.853709,496.191859L663.769653,496.221324L663.862129,496.272678Z M656.380721,494.801070L656.420863,494.632690L656.235496,494.810331L656.380721,494.801070Z M657.201073,494.697516L656.989723,494.690781L657.064374,495.284315L657.201073,494.697516Z M655.058802,494.307716L655.312652,493.704909L654.787303,493.651026L655.058802,494.307716Z M654.172132,493.068417L654.479208,493.593776L654.556806,493.395083L654.172132,493.068417Z M654.884489,492.916870L654.300555,492.731646L654.234617,492.933709L654.884489,492.916870Z M670.325348,491.469575L670.632509,491.032601L671.105283,489.754496L670.325348,491.469575Z M672.233096,486.010980L672.259609,484.998872L671.904245,485.296106L672.233096,486.010980Z M651.043572,483.468063L650.773234,483.654995L651.208133,483.853714L651.043572,483.468063Z M649.686357,482.153642L648.748427,482.275738L649.369050,482.527508L649.686357,482.153642Z M647.882889,481.917871L647.898734,481.692204L647.825668,481.736832L647.882889,481.917871Z M646.068168,481.416855L645.414427,481.655996L645.908837,482.240373L646.068168,481.416855Z M648.439661,482.045019L648.495957,481.753673L648.086870,481.549898L648.439661,482.045019Z M640.018492,469.831233L639.379244,469.972690L640.333039,470.629462L640.018492,469.831233Z M638.875699,466.258664L638.578405,464.861010L638.626552,465.832629L638.875699,466.258664Z M641.046378,468.840192L640.887338,465.375444L640.038521,464.861010L641.046378,468.840192Z M638.729834,464.117573L638.820886,463.231020L638.713503,462.754493L638.729834,464.117573Z M635.107886,451.651191L633.951215,449.956150L634.280830,450.792717L635.107886,451.651191Z M677.425623,454.605548L675.266926,441.185720L674.918422,441.058687L677.425623,454.605548Z M674.952239,426.244910L672.738018,426.745038L672.500852,430.805522L674.952239,426.244910Z M639.250352,424.995927L638.997096,424.809345L639.222661,425.047195L639.250352,424.995927Z M638.930095,424.207595L638.879237,424.252977L638.932433,424.349626L638.930095,424.207595Z M638.712948,423.112577L638.732270,423.005012L638.631592,423.073080L638.712948,423.112577Z M639.208181,422.756273L639.426913,423.073921L639.496999,422.824340L639.208181,422.756273Z M639.883789,422.497455L639.526070,422.482330L639.550113,422.573924L639.883789,422.497455Z M639.322406,422.289900L639.157837,421.957147L639.210875,422.026049L639.322406,422.289900Z M639.112126,421.037916L638.907393,421.069004L639.094320,421.120258L639.112126,421.037916Z M640.084323,420.028013L639.745076,419.952400L639.617126,420.023812L640.084323,420.028013Z M640.449659,420.308627L640.185502,419.744885L640.330147,419.875106L640.449659,420.308627Z M638.524513,415.384511L638.417348,415.198068L638.354418,415.346718L638.524513,415.384511Z M634.720138,414.502714L634.562616,414.127341L634.464142,414.616924L634.720138,414.502714Z M602.914415,404.719434L606.482437,402.992879L602.638884,404.540725L602.914415,404.719434Z M610.067354,401.060299L610.509704,400.839721L609.212810,401.105590L610.067354,401.060299Z M577.862777,388.232354L566.511313,390.000839L572.638600,389.228827L577.862777,388.232354Z M608.953386,376.128678L606.177778,376.129180L563.752793,376.136716L564.152383,386.840790L564.406976,387.011042L561.981848,390.844533L565.379165,389.950571L568.121174,387.738959L568.867211,386.326711L569.716862,387.472583L571.932036,384.436352L572.428079,387.316780L571.059406,388.269212L578.897366,387.610796L582.575936,386.768130L586.653071,388.205548L582.504338,388.582515L586.991317,390.413882L591.819228,393.844442L590.744939,390.986969L595.418618,390.824424L592.506410,392.684606L596.198222,393.821814L595.060037,394.842639L593.078325,393.908136L597.254447,398.634219L597.945079,400.881656L597.380097,402.844399L598.512035,403.132972L604.916775,402.280699L612.447234,398.323142L618.562247,394.511572L621.803324,394.521630L626.957184,398.339073L630.767200,406.806290L635.109726,413.734346L639.029658,413.734346L640.703986,419.963322L639.757002,422.293261L638.319039,428.742358L635.094706,433.994957L634.662084,436.797245L632.637083,441.544951L635.426726,444.304586L635.893894,438.602311L638.152121,438.913547L638.040506,441.225260L639.949717,439.431724L638.914341,443.457307L634.617449,447.917868L635.666090,450.508247L635.414110,452.965886L638.178136,461.798086L640.942577,462.446353L639.839567,458.540061L642.486782,459.599101L644.659876,458.760621L641.748522,464.832384L641.551479,467.764965L644.506668,469.113001L644.542950,477.332922L646.596816,481.019410L647.173760,480.467028L651.234552,482.764963L652.428667,485.495665L654.527077,492.797316L657.093618,495.429961L652.793997,494.706777L653.933593,497.553979L657.141562,497.060658L658.254716,496.212906L661.685010,496.766009L664.539221,494.929038L665.794235,495.444273L668.513878,492.131345L668.090827,491.666592L671.809794,484.468396L672.508859,482.304368L673.077443,484.023805L674.778986,476.477401L678.009315,464.571380L678.289442,462.587794L675.476862,448.036525L675.429935,444.903675L672.273758,431.869158L671.719030,421.664734L673.955743,425.691847L674.949291,425.300178L673.345133,433.721649L673.802374,435.805628L674.587400,429.699921L675.855825,427.821842L670.226183,409.849458L669.314160,404.463536L668.794597,395.629119L669.014079,388.244082L668.082487,385.366014L669.950570,382.680993L668.821258,382.215375L668.844793,382.054155L662.733161,380.276571L659.436017,381.750733L658.663361,386.418979L658.017121,387.705081L655.090300,388.838487L655.206317,385.090257L609.844608,381.910514L608.898678,376.197506L608.953386,376.128678Z " data-name="us-fl" data-realname="Florida"/><path d="M669.753236,381.587305L671.099389,377.390404L670.070225,378.098794L669.753236,381.587305Z M676.254591,368.150480L677.402893,365.295629L675.697043,367.662226L676.254591,368.150480Z M679.187228,364.050034L679.743044,361.758366L678.907559,363.042873L679.187228,364.050034Z M663.497366,293.360052L662.190596,293.377233L653.045231,293.500318L651.738611,293.518704L643.899726,293.622376L642.593752,293.639739L641.088345,293.613183L635.372997,293.613183L628.879307,293.645867L622.376203,293.711234L620.531385,293.678551L620.518092,293.798557L617.505446,320.195631L615.670386,338.523077L616.940178,345.029051L616.654193,347.816522L617.312532,350.171727L614.865073,351.769648L610.774349,359.172064L611.192635,363.442935L608.513639,370.542982L609.023529,376.040256L608.953386,376.128678L608.898678,376.197506L609.844608,381.910514L655.206317,385.090257L655.090300,388.838487L658.017121,387.705081L658.663361,386.418979L659.436017,381.750733L662.733161,380.276571L668.844793,382.054155L668.844852,382.053750L669.796196,376.458453L672.621168,371.611149L672.890709,373.213815L674.739396,369.643343L672.130767,368.564775L675.894553,365.379076L678.882214,361.735509L681.728306,359.909220L680.912621,358.290482L683.971967,358.031565L684.203957,356.601129L685.924863,354.919894L685.920511,354.873857L682.800363,353.661513L682.150214,352.606223L682.736591,348.238802L682.290194,344.628733L679.974993,342.677650L680.398853,341.665606L680.362258,335.225413L677.112553,332.210754L674.759798,327.451415L675.293476,326.305363L674.419544,324.259057L671.690700,321.789241L671.405763,320.313062L668.870604,316.759584L666.451206,312.529852L664.832105,304.628259L662.232392,304.189293L660.894639,302.351822L657.993962,300.227897L658.465613,298.210401L663.497333,293.385405L663.497366,293.360052Z " data-name="us-ga" data-realname="Georgia"/><path d="M536.152162,392.313384L535.723404,392.303329L535.670816,392.378745L536.152162,392.313384Z M545.191935,392.263107L543.903835,392.108086L545.038099,392.403884L545.191935,392.263107Z M534.129299,391.840785L533.585083,392.108086L533.679098,392.263107L534.129299,391.840785Z M543.126285,392.178474L539.569533,391.687445L542.936424,392.253051L543.126285,392.178474Z M539.747058,293.367713L539.770345,293.459972L540.105673,294.095740L538.061373,296.211278L535.913471,296.966227L535.640372,298.399526L532.922973,299.956878L531.154991,305.369722L528.025848,306.293492L523.250139,310.945156L523.966294,312.944293L520.363164,315.084652L520.479815,315.653359L516.413007,320.267507L516.149676,325.032610L514.249584,328.304183L514.670723,331.826154L513.410520,332.467642L512.702852,334.624648L512.479924,335.302584L512.593452,340.889708L510.572754,342.995485L513.150161,348.863873L508.660043,353.189716L509.019559,353.801337L504.998293,357.721658L503.444060,358.274694L501.232366,360.933946L499.763660,364.334458L497.389634,368.441305L494.351872,371.290073L492.861783,376.126166L523.588531,376.128678L526.313226,376.436144L523.605710,380.719215L524.691250,389.644240L525.829798,392.746357L525.888218,392.684606L530.714858,388.962843L531.170049,389.401824L538.591808,388.312773L540.372284,389.425282L544.973802,390.046918L546.474711,388.734980L546.492215,388.730237L552.904471,357.822212L559.267343,341.113419L573.859164,303.969530L577.325259,295.291781L576.364379,294.259125L576.312126,293.414517L576.144034,293.414517L553.165322,293.385405L546.456515,293.375190L541.983746,293.370594L539.747058,293.367713Z " data-name="us-ms" data-realname="Mississippi"/><path d="M663.497366,293.360052L663.497333,293.385405L658.465613,298.210401L657.993962,300.227897L660.894639,302.351822L662.232392,304.189293L664.832105,304.628259L666.451206,312.529852L668.870604,316.759584L671.405763,320.313062L671.690700,321.789241L674.419544,324.259057L675.293476,326.305363L674.759798,327.451415L677.112553,332.210754L680.362258,335.225413L680.398853,341.665606L679.974993,342.677650L682.290194,344.628733L682.736591,348.238802L682.150214,352.606223L682.800363,353.661513L685.920511,354.873857L685.920505,354.873795L689.186411,352.413429L689.128051,346.164112L691.263636,348.176764L691.676515,350.136038L694.681158,348.896453L691.978516,345.283867L692.423922,344.708163L697.110025,345.569183L697.520677,344.553739L707.057092,340.943825L706.646397,337.934995L708.651580,339.606766L713.018231,336.694696L714.515948,334.171161L717.048036,334.562972L720.619433,331.656424L721.318903,328.588100L729.622684,320.340600L735.151271,316.786473L735.651133,316.646906L721.938222,297.638867L719.755052,297.397675L702.765600,297.012129L703.269852,294.294864L701.602174,291.004466L699.709762,290.182842L682.433487,289.244350L677.593481,289.180409L669.968669,291.812042L663.812829,293.355966L663.497366,293.360052Z " data-name="us-sc" data-realname="South Carolina"/><path d="M589.274890,137.893772L588.874626,138.332397L591.405243,141.080032L591.410266,143.522042L593.571083,147.533284L591.753299,150.561402L588.107705,153.600870L586.273928,156.321226L579.383586,159.182670L574.446096,159.537051L572.302203,161.357161L570.930495,164.460508L572.000126,165.331179L567.160869,173.091343L565.564937,174.947188L560.677642,176.803252L559.484099,180.642882L558.383020,180.916532L558.382200,180.916532L555.469042,185.100692L554.616176,188.490537L554.469864,194.126020L557.628814,198.620167L557.765904,199.979017L561.321239,204.790172L560.221168,209.466350L561.339288,211.909543L564.935351,210.171792L568.658789,212.352232L568.017483,213.800539L561.403544,222.539173L560.524297,225.935176L563.171246,229.930402L568.520066,233.699472L570.798481,237.026014L569.929330,239.483340L570.263707,242.927829L568.245501,244.857139L568.973127,250.320054L570.302922,249.817094L572.558457,251.593475L572.847315,251.745201L572.474414,251.073499L573.043541,249.357863L576.564491,246.613160L582.126705,248.896079L583.099563,249.696242L585.880289,247.766382L586.403875,243.215084L589.925277,241.879632L593.238731,241.322721L594.226309,240.373934L593.674689,237.842763L596.655571,234.616667L596.820829,234.338614L596.475564,234.177536L596.318938,232.408679L600.668461,225.397888L603.524986,224.118009L604.592690,222.489594L607.350417,220.190551L608.634527,218.306396L611.489117,215.832376L612.580966,211.909543L612.442972,206.910062L615.189288,202.413208L618.894796,195.083283L619.977702,192.097831L634.741828,153.620055L634.287534,152.391373L634.841259,146.440335L634.000296,144.020894L636.149734,138.474519L636.211793,138.293340L606.940466,138.043231L589.279754,137.893772L589.274890,137.893772Z " data-name="us-il" data-realname="Illinois"/><path d="M680.250329,153.001633L676.536248,152.991208L651.964961,152.979428L646.300215,152.975806L642.568257,154.551790L637.770571,155.623849L636.299865,155.380963L634.962022,154.214282L634.741828,153.620055L619.977702,192.097831L618.894796,195.083283L615.189288,202.413208L612.442972,206.910062L612.580966,211.909543L611.489117,215.832376L608.634527,218.306396L607.350417,220.190551L604.592690,222.489594L603.524986,224.118009L600.668461,225.397888L596.318938,232.408679L596.475564,234.177536L596.820829,234.338614L597.225979,234.285263L599.455817,233.855401L599.991926,231.716026L601.171362,232.764540L603.601913,232.235375L603.548836,233.950808L608.627903,231.496106L613.113349,234.365803L614.750977,232.208714L618.954574,230.380310L619.250892,231.880077L621.291543,232.350739L623.311736,231.778057L625.452963,229.093259L628.243286,227.193316L628.325791,226.377871L631.547441,230.631936L634.779764,228.944706L636.111488,226.040598L641.280734,223.076939L642.284367,221.227421L646.248886,218.995364L647.103004,215.072507L650.544683,214.770366L651.427723,215.754899L658.807401,212.543584L659.083680,208.756596L659.961265,207.538905L660.352127,207.343986L660.934138,205.654050L665.661613,192.193841L671.758320,175.547581L679.161736,155.836039L679.774833,154.237701L680.250329,153.001633Z " data-name="us-in" data-realname="Indiana"/><path d="M563.496826,261.545732L563.540757,260.704759L563.044258,260.420827L562.104097,261.664546L562.203656,261.847651L563.332454,261.820906L563.496826,261.545732Z M660.352127,207.343986L659.961265,207.538905L659.083680,208.756596L658.807401,212.543584L651.427723,215.754899L650.544683,214.770366L647.103004,215.072507L646.248886,218.995364L642.284367,221.227421L641.280734,223.076939L636.111488,226.040598L634.779764,228.944706L631.547441,230.631936L628.325791,226.377871L628.243286,227.193316L625.452963,229.093259L623.311736,231.778057L621.291543,232.350739L619.250892,231.880077L618.954574,230.380310L614.750977,232.208714L613.113349,234.365803L608.627903,231.496106L603.548836,233.950808L603.601913,232.235375L601.171362,232.764540L599.991926,231.716026L599.455817,233.855401L597.225979,234.285263L596.820829,234.338614L596.655571,234.616667L593.674689,237.842763L594.226309,240.373934L593.238731,241.322721L589.925277,241.879632L586.403875,243.215084L585.880289,247.766382L583.099563,249.696242L582.126705,248.896079L576.564491,246.613160L573.043541,249.357863L572.474414,251.073499L572.847315,251.745201L572.810700,252.118609L568.439295,260.154381L567.902284,260.394594L564.680514,261.630085L564.512172,261.872854L567.466525,261.873368L588.144131,261.879540L588.973556,257.854020L592.262654,258.184266L592.565141,258.839609L614.654040,258.545374L615.311188,258.411631L633.652830,259.350915L647.249827,259.512433L663.103869,259.878160L663.634443,259.659547L664.579326,259.014503L673.602074,256.584471L676.481086,254.342726L679.118950,253.401927L679.951641,251.739029L682.701481,250.321082L684.793425,247.863561L689.808551,245.727906L697.323754,240.770484L698.518934,239.974844L698.252902,239.802787L695.919530,239.324651L693.829296,236.826341L692.662538,230.480753L691.114869,226.786335L693.541707,221.614184L693.584170,221.491047L693.492975,221.240193L692.507387,219.061720L690.669887,217.995149L690.560035,214.546717L685.018274,217.334015L682.413655,217.401344L680.161253,215.643276L676.665349,217.064208L672.627834,213.760308L671.021932,214.044991L668.914015,211.386074L668.360974,208.756596L666.493784,207.052155L663.361491,207.762274L661.486023,206.781174L660.352127,207.343986Z " data-name="us-ky" data-realname="Kentucky"/><path d="M746.741283,315.936869L745.217106,316.786473L745.259121,316.999264L746.741283,315.936869Z M750.217862,310.621526L749.405796,311.245819L749.120527,312.123683L750.217862,310.621526Z M760.115602,303.343931L758.296187,303.898513L756.956717,304.771721L760.115602,303.343931Z M774.799596,300.844418L774.475687,300.243385L773.396306,299.815451L774.799596,300.844418Z M772.655367,299.530125L771.823929,299.270248L770.127041,299.575983L772.655367,299.530125Z M783.492919,293.526060L785.643837,292.085644L784.994081,291.871018L783.492919,293.526060Z M795.047027,288.484161L796.506762,286.322474L798.661144,280.304259L798.676848,277.270196L797.417698,283.329175L795.047027,288.484161Z M796.928847,260.817910L796.689848,260.815862L796.461738,260.813290L796.459130,260.813278L796.460627,260.841274L796.619242,271.363330L797.648627,275.665107L798.405282,276.704712L796.928833,260.818127L796.928847,260.817910Z M794.986761,260.801435L794.199744,260.794258L794.196423,260.794239L794.263629,260.969864L795.832858,261.403637L795.974162,260.825843L795.975694,260.809804L795.672902,260.807632L795.395293,260.805125L795.395132,260.805268L795.243047,260.937288L795.032699,260.945861L794.986889,260.801839L794.986761,260.801435Z M698.009503,259.542782L696.825262,260.867812L694.829841,265.088679L691.572362,266.188546L688.925947,269.434433L687.139150,270.174520L686.054829,269.042773L678.476137,273.153058L678.402797,271.235690L672.635670,273.517247L671.595244,275.684409L665.287344,278.490542L660.507724,281.272802L656.286143,281.492263L650.570921,284.474184L649.245826,287.052157L644.615841,288.554732L642.957179,292.659220L642.593752,293.639739L643.899726,293.622376L651.738611,293.518704L653.045231,293.500318L662.190596,293.377233L663.497366,293.360052L663.812829,293.355966L669.968669,291.812042L677.593481,289.180409L682.433487,289.244350L699.709762,290.182842L701.602174,291.004466L703.269852,294.294864L702.765600,297.012129L719.755052,297.397675L721.938222,297.638867L735.651133,316.646906L736.167454,316.502732L735.824383,316.928335L746.408523,315.193504L747.533422,312.805173L747.492492,315.078605L750.158333,309.907413L753.891550,306.387736L756.667671,304.463161L762.205545,301.840757L764.231223,299.792524L772.372647,298.838763L774.373391,297.214125L775.899051,298.806483L780.024523,292.799233L777.774779,294.668087L777.383494,293.942253L774.424072,293.942253L773.302997,294.835689L769.664654,293.791615L768.773827,290.363040L771.985220,293.635860L775.920550,291.698964L775.252490,289.797973L779.314159,287.702925L778.673792,286.810566L774.999073,285.320457L770.865482,282.808964L770.754660,282.168207L777.180543,284.187483L777.630052,282.455280L780.907418,282.025516L778.742594,282.943082L779.485984,285.170213L781.036342,283.792090L783.598955,285.539835L787.023121,284.417182L790.829484,281.229937L792.757769,281.295743L793.825364,280.104223L795.197869,275.973161L794.250923,273.210284L792.463813,274.692900L791.092894,274.571361L788.924347,279.717799L790.687917,273.038200L789.651622,272.381494L785.871894,273.266788L783.102518,272.961146L778.549132,273.531323L779.866173,268.554663L781.358475,272.016721L786.555877,270.356998L785.760633,269.090954L788.140721,270.285050L788.603192,269.228020L790.513494,269.279418L790.927633,268.157134L792.737111,268.523821L793.507806,266.392877L795.374890,269.092668L794.917506,263.352921L793.881802,260.841274L793.881153,260.791710L761.906945,260.960397L724.425123,261.012862L698.059643,259.773740L698.009503,259.542782Z " data-name="us-nc" data-realname="North Carolina"/><path d="M744.426705,173.338333L747.426150,164.840019L748.183349,162.721353L753.371014,148.458457L748.550601,149.771778L737.681411,153.580843L729.378692,158.249873L725.229830,157.959256L715.900509,160.303122L713.429734,157.229918L709.685034,157.567874L702.393399,153.586763L702.416543,153.509619L692.458233,153.838976L688.242933,154.026382L680.944419,154.192977L679.774833,154.237701L679.161736,155.836039L671.758320,175.547581L665.661613,192.193841L660.934138,205.654050L660.352127,207.343986L661.486023,206.781174L663.361491,207.762274L666.493784,207.052155L668.360974,208.756596L668.914015,211.386074L671.021932,214.044991L672.627834,213.760308L676.665349,217.064208L680.161253,215.643276L682.413655,217.401344L685.018274,217.334015L690.560035,214.546717L690.669887,217.995149L692.507387,219.061720L693.492975,221.240193L693.584170,221.491047L693.588339,221.502799L698.721268,220.248768L702.462628,213.829566L706.457949,209.303241L708.418135,209.566458L708.246565,211.989423L710.995719,210.677143L713.014496,205.350326L716.356094,203.649136L717.272604,202.220383L719.950238,200.934452L720.193260,201.848461L725.245126,199.952738L726.950294,198.373277L730.758597,196.121835L741.084921,179.041902L740.963722,177.701294L743.401622,175.536157L743.684337,175.469601L744.426705,173.338333Z " data-name="us-oh" data-realname="Ohio"/><path d="M663.103869,259.878160L647.249827,259.512433L633.652830,259.350915L615.311188,258.411631L614.654040,258.545374L592.565141,258.839609L592.262654,258.184266L588.973556,257.854020L588.144131,261.879540L567.466525,261.873368L564.512172,261.872854L564.430343,261.990123L563.273533,262.853156L562.864186,262.731778L563.226141,261.998866L563.332454,261.820906L562.203656,261.847651L562.249603,261.931488L561.607432,264.765228L559.985600,265.189980L560.185855,267.016839L558.573410,267.077505L556.483090,271.649321L556.121769,272.369127L556.045839,272.520168L555.069377,275.883106L550.740549,277.925041L549.615135,282.144930L545.115703,286.113696L544.450298,290.264147L539.679963,293.108244L539.747058,293.367713L541.983746,293.370594L546.456515,293.375190L553.165322,293.385405L576.144034,293.414517L576.312126,293.414517L576.274718,293.165452L587.801821,293.254837L601.266562,293.583052L617.525083,293.629525L620.531385,293.678551L622.376203,293.711234L628.879307,293.645867L635.372997,293.613183L641.088345,293.613183L642.593752,293.639739L642.957179,292.659220L644.615841,288.554732L649.245826,287.052157L650.570921,284.474184L656.286143,281.492263L660.507724,281.272802L665.287344,278.490542L671.595244,275.684409L672.635670,273.517247L678.402797,271.235690L678.476137,273.153058L686.054829,269.042773L687.139150,270.174520L688.925947,269.434433L691.572362,266.188546L694.829841,265.088679L696.825262,260.867812L698.009503,259.542782L696.427387,259.479512L693.066074,259.749050L692.913518,259.807690L665.412808,259.668806L663.634443,259.659547L663.103869,259.878160Z " data-name="us-tn" data-realname="Tennessee"/><path d="M795.395293,260.805125L795.672902,260.807632L795.975694,260.809804L795.975718,260.809555L796.033083,260.252321L795.412465,260.789837L795.395293,260.805125Z M798.172261,249.043856L797.906049,249.523390L798.501189,249.387786L798.172261,249.043856Z M801.696137,246.219746L802.065055,245.402077L802.010408,245.380249L801.696137,246.219746Z M800.514324,247.228950L799.607709,248.353146L799.095734,248.819237L800.514324,247.228950Z M802.685845,244.916236L803.136236,244.446565L802.595361,244.887220L802.685845,244.916236Z M804.730717,242.579052L805.313623,241.984101L803.878734,243.560269L804.730717,242.579052Z M805.558927,241.146760L807.112201,239.207986L806.428571,239.560883L805.558927,241.146760Z M812.575560,232.266947L813.279190,231.500220L813.046432,231.631183L812.575560,232.266947Z M813.475673,229.960962L812.029710,230.093899L809.737409,230.338055L808.587152,230.999627L808.803830,231.119046L805.281087,234.898537L803.956266,237.158316L798.613027,244.653805L798.075266,247.222385L809.521475,234.734888L812.039519,232.671643L813.439328,230.035138L813.475673,229.960962Z M815.808930,229.761812L815.462231,229.804884L815.109984,230.119687L812.969737,232.921177L813.993259,231.978532L815.808930,229.761812Z M698.518934,239.974844L697.323754,240.770484L689.808551,245.727906L684.793425,247.863561L682.701481,250.321082L679.951641,251.739029L679.118950,253.401927L676.481086,254.342726L673.602074,256.584471L664.579326,259.014503L663.634443,259.659547L665.412808,259.668806L692.913518,259.807690L693.066074,259.749050L696.427387,259.479512L698.009503,259.542782L698.059643,259.773740L724.425123,261.012862L761.906945,260.960397L793.881153,260.791710L793.881151,260.791552L793.815682,260.254893L793.881972,259.965127L794.196378,260.794124L794.196423,260.794239L794.199744,260.794258L794.986761,260.801435L794.974439,260.762405L796.097843,257.227685L796.534904,257.506320L796.459114,260.812984L796.459130,260.813278L796.461738,260.813290L796.689848,260.815862L796.928847,260.817910L796.985288,259.942837L796.508197,252.741365L791.449981,252.167192L790.864400,254.429351L788.320070,253.256569L787.376877,250.732038L785.871696,249.902045L784.689243,247.101615L781.758871,246.261895L781.665798,245.249198L777.074153,244.653805L781.728606,244.510746L785.423461,247.156457L786.865565,246.532653L787.855416,249.509852L790.029491,251.772669L792.764667,249.856900L788.340975,245.086719L786.768272,240.042335L789.947705,246.069466L792.290011,245.250054L791.685796,243.086308L794.513402,244.250468L795.401074,241.850555L793.916965,240.329969L795.429094,239.325030L793.298706,238.175664L791.643597,238.371925L789.369510,234.730414L787.631806,230.126550L791.041216,234.093104L792.455233,237.457765L794.661762,238.096083L796.192769,236.597114L796.385576,233.457078L798.019420,232.306641L793.170529,227.909866L787.867502,225.871565L786.602983,222.556568L783.596068,223.363290L783.024729,220.829440L786.516417,216.548010L787.421344,216.954566L790.216801,211.635000L790.205182,211.412424L789.944116,211.381986L789.755585,211.281770L789.536519,210.743194L789.426898,210.398834L787.259062,208.115660L785.318501,207.825737L784.241130,206.197233L785.526727,205.052738L781.953076,202.641489L781.671468,202.493179L781.614830,202.570623L778.764172,206.372243L772.735939,200.216558L771.907812,200.492555L769.198215,205.712367L763.189290,210.919697L758.914872,213.845862L757.270656,212.580228L754.421376,216.205016L749.444661,221.375580L744.769523,217.877294L737.177538,226.895370L734.854887,230.246561L727.896740,237.107632L728.661738,238.230908L726.987188,240.380612L723.602427,242.272172L716.149894,243.755713L713.930255,244.911109L709.027904,245.637947L706.383138,245.426674L702.930983,247.003379L699.348251,245.284286L698.079633,243.420642L698.621287,240.125848L698.518934,239.974844Z " data-name="us-va" data-realname="Virginia"/><path d="M672.233001,82.302838L669.894912,84.218470L667.840543,84.839037L663.751204,88.878324L663.043093,91.279482L669.070380,86.782697L669.698713,86.782697L672.871195,83.266705L672.233001,82.302838Z M625.365999,52.316274L628.109500,50.436243L626.429750,51.257309L625.365999,52.316274Z M629.609987,49.400903L629.448761,48.728481L627.901816,49.341398L629.609987,49.400903Z M603.016402,52.551375L599.086121,54.745146L593.745918,66.380306L587.517409,69.051859L583.656430,71.403203L580.778466,73.784784L579.475753,76.598841L580.945199,76.726571L581.462118,79.973901L576.152645,87.052224L574.297859,91.776260L573.056622,93.025568L575.556735,96.025592L577.941592,96.398785L583.531030,101.469472L584.697787,105.187768L585.925469,106.712441L589.530094,107.812738L590.606171,110.216180L587.993905,117.668897L587.694631,118.136142L587.677685,118.162940L587.386169,119.114979L588.801556,121.800219L586.587235,124.235820L584.567480,129.906900L585.490199,134.097423L589.664577,137.466913L589.274890,137.893772L589.279754,137.893772L606.940466,138.043231L636.211793,138.293340L636.739576,136.755053L639.208253,132.335639L639.222903,127.331811L642.026828,121.290991L647.230662,114.911141L649.473322,109.664393L655.729950,103.774249L655.444960,102.621524L659.188508,96.783503L663.231152,92.553097L662.491857,90.825346L659.046040,91.291277L654.988165,95.051836L650.293891,97.278132L649.806935,96.571501L653.995846,91.768937L660.130546,88.028597L661.472447,86.197954L661.577086,86.066694L660.524546,83.533099L662.671108,80.379800L659.341556,80.848464L663.285905,74.366332L662.476625,73.111209L659.212756,71.839489L660.195765,69.441617L656.602919,68.128027L649.495274,67.342857L644.135598,64.600975L631.352570,61.098818L631.107084,57.793967L628.933381,56.171134L628.399346,56.426085L623.869614,54.410074L621.088330,55.908748L623.289501,52.298427L625.887382,48.966511L620.511249,50.103040L614.678762,52.185396L607.590540,53.809344L604.688595,54.118636L603.036141,52.750537L603.016402,52.551375Z M627.122624,49.400903L627.330779,48.728481L626.323324,49.002215L627.122624,49.400903Z M623.680968,48.419037L624.284615,47.883443L624.176423,47.609687L623.680968,48.419037Z M632.451189,47.550175L632.957026,46.217028L631.634605,47.823931L632.451189,47.550175Z " data-name="us-wi" data-realname="Wisconsin"/><path d="M752.649901,194.414995L737.284781,194.419526L743.680197,175.481521L743.684337,175.469601L743.401622,175.536157L740.963722,177.701294L741.084921,179.041902L730.758597,196.121835L726.950294,198.373277L725.245126,199.952738L720.193260,201.848461L719.950238,200.934452L717.272604,202.220383L716.356094,203.649136L713.014496,205.350326L710.995719,210.677143L708.246565,211.989423L708.418135,209.566458L706.457949,209.303241L702.462628,213.829566L698.721268,220.248768L693.588339,221.502799L693.584170,221.491047L693.541707,221.614184L691.114869,226.786335L692.662538,230.480753L693.829296,236.826341L695.919530,239.324651L698.252902,239.802787L698.518934,239.974844L698.621287,240.125848L698.079633,243.420642L699.348251,245.284286L702.930983,247.003379L706.383138,245.426674L709.027904,245.637947L713.930255,244.911109L716.149894,243.755713L723.602427,242.272172L726.987188,240.380612L728.661738,238.230908L727.896740,237.107632L734.854887,230.246561L737.177538,226.895370L744.769523,217.877294L749.444661,221.375580L754.421376,216.205016L757.270656,212.580228L758.914872,213.845862L763.189290,210.919697L769.198215,205.712367L771.907812,200.492555L772.735939,200.216558L778.764172,206.372243L781.614830,202.570623L781.671468,202.493179L781.651532,202.483056L781.746862,196.999711L776.517219,194.775036L771.786542,196.427343L770.597924,198.299572L767.438337,198.168829L766.129317,196.145527L761.614337,200.023490L758.815703,200.436947L751.273902,205.007622L754.844620,194.413988L752.649901,194.414995Z " data-name="us-wv" data-realname="West Virginia"/><path d="M817.000994,194.423033L816.531206,195.947899L810.940182,219.770039L810.767493,220.632363L821.065913,220.773668L821.090267,220.621288L821.247600,220.618734L821.504039,220.771114L821.508541,220.777073L821.743920,220.769412L821.818535,220.310642L823.125766,213.621484L820.107171,210.873285L820.376281,209.701843L819.696518,202.028797L818.743951,199.764797L821.807782,194.568603L823.607445,192.731022L823.681450,192.665079L821.382612,192.005848L818.972135,192.764513L817.067674,194.423050L817.000994,194.423033Z " data-name="us-de" data-realname="Delaware"/><path d="M789.536519,210.743194L789.755585,211.281770L789.944116,211.381986L790.205182,211.412424L790.326746,211.472215L790.738674,212.023876L790.793326,212.405605L790.384594,213.122230L790.352973,213.479640L792.839484,211.599163L791.981909,210.445443L790.428877,210.067404L789.536519,210.743194Z " data-name="us-dc" data-realname="District of Columbia"/><path d="M816.048289,229.469830L819.669183,224.551940L817.015704,228.101361L815.656577,229.631215L815.462231,229.804884L815.808930,229.761812L816.048289,229.469830Z M821.743920,220.769412L821.508541,220.777073L821.299515,221.418192L820.680747,222.601228L821.740346,220.777073L821.743920,220.769412Z M754.844620,194.413988L751.273902,205.007622L758.815703,200.436947L761.614337,200.023490L766.129317,196.145527L767.438337,198.168829L770.597924,198.299572L771.786542,196.427343L776.517219,194.775036L781.746862,196.999711L781.651532,202.483056L781.671468,202.493179L781.953076,202.641489L785.526727,205.052738L784.241130,206.197233L785.318501,207.825737L787.259062,208.115660L789.426898,210.398834L789.536519,210.743194L790.428877,210.067404L791.981909,210.445443L792.839484,211.599163L790.352973,213.479640L790.340329,213.622858L787.267676,217.387778L785.358971,218.613977L787.404903,221.298130L788.214372,220.192289L788.906461,224.165322L794.437937,226.113823L794.812187,227.515052L797.181940,229.076244L798.193509,227.368359L797.604340,225.120620L798.262459,224.012417L794.374145,220.838781L794.870832,219.684209L796.823240,223.245662L798.265306,222.867313L797.391562,219.886348L798.161455,214.046725L802.375162,208.859243L801.008093,203.864028L802.929258,204.034668L806.032018,202.917091L810.788304,197.956368L812.484372,199.372411L809.439038,201.643606L805.328540,205.877294L805.296354,209.097478L805.940150,207.701205L808.698498,206.331188L805.418338,209.800440L803.481054,209.236885L802.806786,211.109255L804.703134,210.362501L804.786560,211.901715L806.337282,211.911275L804.446649,213.247108L803.210797,212.684771L802.491421,215.320750L806.017305,218.430362L801.875951,217.195659L803.319348,218.193834L800.513193,221.193399L801.118641,223.069818L803.767054,225.209300L807.610298,222.440222L804.727880,227.018438L806.731889,226.939090L805.931250,228.528146L807.832937,227.954560L805.233782,230.419465L808.501587,230.952467L808.587152,230.999627L809.737409,230.338055L812.029710,230.093899L813.475673,229.960962L813.564454,229.779799L817.018851,225.519701L821.045643,220.902220L821.065913,220.773668L810.767493,220.632363L810.940182,219.770039L816.531206,195.947899L817.000994,194.423033L815.122741,194.422547L782.067538,194.418015L780.122772,194.417009L756.788883,194.413988L754.844620,194.413988Z " data-name="us-md" data-realname="Maryland"/><path d="M839.096091,201.032254L839.349155,199.717967L838.664370,200.930274L839.096091,201.032254Z M842.187901,197.898618L844.221156,195.162663L842.184849,197.435705L842.187901,197.898618Z M856.840377,168.485901L852.776712,165.712350L851.424604,164.788689L847.374472,162.020411L846.027740,161.098031L846.023417,161.133007L843.032564,162.779036L836.436626,168.339278L836.791454,170.887452L835.963920,171.582446L832.706311,177.024481L834.308195,177.809234L833.919716,179.396416L837.676221,185.339715L831.771822,188.352892L831.417839,188.633615L827.278225,191.677880L825.827751,191.911563L822.679663,193.868009L820.028312,199.099116L825.515179,205.054970L828.606144,206.317661L825.952872,210.707518L826.479609,210.904139L831.608334,206.782732L835.172484,203.355086L834.235914,202.879964L837.906603,201.952896L839.251869,197.815057L844.079235,193.951980L845.793810,191.803511L847.235527,188.399679L850.466047,184.036803L851.896062,180.605630L847.524832,179.273623L849.438690,175.724952L851.613953,174.023584L851.478186,175.307337L856.840218,168.486357L856.840377,168.485901Z " data-name="us-nj" data-realname="New Jersey"/><path d="M851.702197,175.728974L848.999338,177.229735L848.284767,177.660483L851.702197,175.728974Z M853.371429,174.305040L855.408513,171.254845L854.113901,172.787900L853.371429,174.305040Z M884.540868,167.116092L883.692824,166.464593L882.964909,167.186287L884.540868,167.116092Z M888.112354,166.379750L887.486671,167.201378L887.943486,166.783772L888.112354,166.379750Z M885.565774,165.558492L879.917790,167.817427L875.524261,169.007258L865.440151,170.318036L863.338746,169.777990L859.407802,171.001025L857.909865,172.942302L855.492308,172.585548L852.478068,177.021202L857.531247,176.771891L866.330379,174.092463L871.309626,173.535897L875.417766,172.197491L875.090459,172.965583L891.042316,167.380518L887.383290,168.202006L885.197262,167.407469L880.596150,170.118361L877.775476,170.167865L881.396711,168.619894L885.565774,165.558492Z M891.086380,162.766022L891.714558,162.390950L889.782551,163.254289L891.086380,162.766022Z M787.888125,127.396469L786.464620,126.832201L786.580490,128.607423L787.888125,127.396469Z M839.094500,108.236316L839.907068,107.319415L838.543957,108.001222L839.094500,108.236316Z M844.211814,101.927430L843.650777,101.927430L842.464646,102.827384L844.211814,101.927430Z M768.071420,142.763379L766.094067,148.149519L839.159582,148.197531L840.434398,150.507465L842.470438,151.058655L841.817887,156.267161L843.520561,159.240745L846.070174,160.697085L846.027740,161.098031L847.374472,162.020411L851.424604,164.788689L852.776712,165.712350L856.840377,168.485901L857.020652,167.970439L857.523944,162.561329L858.285893,162.009275L858.493407,164.504626L855.285405,171.994762L857.510841,172.087778L861.178386,168.369314L861.331657,168.278192L860.663763,166.204730L865.269947,163.557686L865.804706,160.084982L870.684280,147.981487L871.062247,147.052340L870.783266,146.562172L874.259808,141.119627L875.187480,139.674453L879.207375,133.425951L879.351819,133.218251L879.177567,133.208047L885.190684,116.957068L883.069492,115.191850L885.022426,112.117241L887.360490,104.694753L889.382802,102.106667L890.958827,98.791530L892.598853,91.977255L893.858085,88.080293L893.073866,88.085262L869.073487,87.970224L852.305584,96.551597L849.874188,99.538596L844.162045,102.868555L837.932605,105.832180L838.500908,106.725729L841.008093,106.631676L838.515618,110.963021L835.269295,117.531191L829.240507,119.205435L826.499352,121.373242L821.632753,122.460160L815.392503,122.189893L811.514444,123.000706L809.769427,121.431993L803.879704,120.268756L799.375374,120.227633L790.875926,121.661122L787.226694,122.938004L786.379572,126.409023L788.146093,126.608855L787.039620,131.682749L780.177049,136.696179L768.283785,142.693927L768.071420,142.763379Z " data-name="us-ny" data-realname="New York"/><path d="M846.070174,160.697085L843.520561,159.240745L841.817887,156.267161L842.470438,151.058655L840.434398,150.507465L839.159582,148.197531L766.094067,148.149519L768.071420,142.763379L765.687122,143.543125L761.943656,144.652129L754.297708,148.205983L753.371014,148.458457L748.183349,162.721353L747.426150,164.840019L744.426705,173.338333L743.684337,175.469601L743.680197,175.481521L737.284781,194.419526L752.649901,194.414995L754.844620,194.413988L756.788883,194.413988L780.122772,194.417009L782.067538,194.418015L815.122741,194.422547L817.000994,194.423033L817.067674,194.423050L818.972135,192.764513L821.382612,192.005848L823.681450,192.665079L824.443703,191.986115L830.631173,188.967139L831.339496,188.500765L831.771822,188.352892L837.676221,185.339715L833.919716,179.396416L834.308195,177.809234L832.706311,177.024481L835.963920,171.582446L836.791454,170.887452L836.436626,168.339278L843.032564,162.779036L846.023417,161.133007L846.027740,161.098031L846.070174,160.697085Z " data-name="us-pa" data-realname="Pennsylvania"/><path d="M924.925786,128.455116L924.824727,128.422814L924.986089,128.566298L924.925786,128.455116Z M946.175749,112.358973L946.251080,111.111466L945.827837,111.605283L946.175749,112.358973Z M945.608561,110.981326L946.321567,110.071792L946.663946,109.499934L945.608561,110.981326Z M951.857381,108.590098L951.695305,108.434118L951.659757,108.668087L951.857381,108.590098Z M964.462990,107.810173L965.378793,106.406135L964.495029,106.874174L964.462990,107.810173Z M961.743169,107.425873L962.599533,106.540211L961.453699,106.267993L961.743169,107.425873Z M967.457707,105.886060L967.115285,105.756035L966.994842,105.990078L967.457707,105.886060Z M961.852043,105.417962L961.233162,104.897817L960.480335,105.678020L961.852043,105.417962Z M968.668330,104.559703L969.021915,105.495980L969.318991,104.663740L968.668330,104.559703Z M966.153365,103.702148L964.099049,104.833609L965.663848,104.753958L966.153365,103.702148Z M962.200770,102.192404L961.437114,102.556664L960.982965,103.467215L962.200770,102.192404Z M969.883796,101.541882L970.318348,100.813207L969.679887,101.125508L969.883796,101.541882Z M969.104603,101.698015L968.869161,100.604995L968.344618,101.281652L969.104603,101.698015Z M962.409522,101.567905L963.026970,100.552941L961.991882,101.281652L962.409522,101.567905Z M973.540846,102.011079L972.469680,99.445850L971.737550,99.719189L970.640550,103.378605L971.653458,102.015144L973.540846,102.011079Z M984.933327,98.965030L985.027629,97.897448L984.493423,97.897448L984.933327,98.965030Z M990.628963,96.126256L990.325588,95.683340L989.983945,95.943885L990.628963,96.126256Z M997.391034,89.981797L996.538329,89.633545L997.254040,90.225633L997.391034,89.981797Z M998.074673,91.173074L999.020622,89.059293L997.247180,90.964367L998.074673,91.173074Z M997.699145,89.450840L998.918761,87.675692L997.341496,88.589371L997.699145,89.450840Z M933.032602,82.064902L923.107381,116.913705L921.802890,119.851190L923.413489,126.462488L923.470241,126.379620L924.619318,126.426741L928.608316,121.512599L935.524870,116.935015L935.895493,114.162672L940.934604,110.940088L942.974157,110.759773L942.549960,113.979142L943.596799,113.414736L944.529293,108.772072L945.058073,110.442998L947.204977,109.068584L948.109658,110.612758L954.762987,108.005972L955.972390,108.200956L960.302842,102.287537L961.561753,101.544322L961.352163,99.761490L966.134361,97.439255L963.363254,101.890734L967.440631,103.435511L969.658964,99.546727L970.089367,99.968109L974.204071,98.859259L975.716377,100.469979L982.309667,96.154750L983.580500,97.224383L989.295413,94.206869L991.092705,95.586446L996.903320,91.804822L996.922809,88.710938L996.013670,85.517869L993.546279,85.085603L991.850188,82.505689L992.961685,81.140208L992.953117,78.268380L994.660228,76.159852L990.966030,75.714337L989.250950,73.284461L991.492412,69.684013L991.331349,68.864238L998.531006,46.347589L994.255541,41.130534L991.029082,41.238177L986.221467,42.907124L981.605537,44.020569L979.856863,42.830837L980.673409,39.133339L978.415423,38.571060L967.069951,48.046939L959.813224,54.712510L957.290649,59.595269L955.010385,60.829531L952.564766,64.365094L949.556950,70.728577L947.445793,72.002977L946.769518,73.765081L941.404685,76.667335L940.242991,77.970055L941.002841,79.970558L938.304746,79.670292L935.536197,83.231299L935.403968,81.507851L933.390678,82.009402L933.032602,82.064902Z " data-name="us-me" data-realname="Maine"/><path d="M685.221620,87.916428L685.196233,87.072075L684.558910,87.951851L685.221620,87.916428Z M688.004247,86.422414L687.652240,84.791760L687.014744,85.323587L688.004247,86.422414Z M693.178571,79.818009L692.723892,78.882791L692.587797,78.989347L693.178571,79.818009Z M699.471893,76.146821L700.904999,72.620446L698.161808,75.815057L699.471893,76.146821Z M646.300215,152.975806L651.964961,152.979428L676.536248,152.991208L680.250329,153.001633L679.774833,154.237701L680.944419,154.192977L688.242933,154.026382L692.458233,153.838976L702.416543,153.509619L702.496428,153.243472L709.361108,147.810243L709.380445,146.835889L712.170885,142.764686L715.858832,140.860606L721.197579,134.818502L722.501114,134.088818L723.016487,136.907071L725.290440,135.195773L729.724700,127.790303L729.945896,122.612921L732.347456,111.932504L731.959206,108.547806L729.687991,106.778634L723.826127,108.395001L720.575461,109.740786L720.752697,110.704482L717.414213,114.100425L716.819080,113.630434L713.542809,115.997944L710.700567,114.746650L713.577257,108.377369L718.264608,107.078419L720.612080,103.568421L722.220980,102.456831L729.521788,91.521270L728.447550,89.108489L729.773072,86.646858L730.676044,87.072075L731.484280,84.732663L731.101179,81.368277L727.876093,79.877192L721.906405,77.894042L720.655504,74.890711L717.073350,74.481799L713.936670,71.997839L712.498074,72.792388L709.819131,72.519649L710.013681,73.586792L706.542054,76.105352L705.890152,78.237470L707.564851,80.226352L704.284920,80.474885L700.383892,81.835589L698.580368,83.615520L695.687296,89.574670L692.374898,92.836059L694.803242,89.014065L691.224395,92.270112L692.514950,88.500579L695.819246,83.828339L692.831866,85.873049L689.512165,88.872422L684.510899,90.748667L683.034780,93.236883L679.811300,94.415524L679.527078,96.477275L677.791267,99.832847L670.311955,107.595670L669.816980,111.726862L666.830423,114.828896L666.301449,128.848461L664.284100,133.941717L657.977124,143.030043L655.082301,145.549053L650.333959,150.634829L647.137927,152.622121L646.300215,152.975806Z M719.666391,72.080858L716.814853,71.819935L717.779553,73.219250L719.666391,72.080858Z M702.411187,71.819935L701.636923,71.683537L702.296581,72.240963L702.411187,71.819935Z M735.613962,66.527168L731.234367,68.017081L733.571351,69.340417L735.214749,69.269215L735.613962,66.527168Z M728.094575,63.047118L728.083385,61.330083L727.658143,61.330083L728.094575,63.047118Z M628.933381,56.171134L631.107084,57.793967L631.352570,61.098818L644.135598,64.600975L649.495274,67.342857L656.602919,68.128027L660.195765,69.441617L659.212756,71.839489L662.476625,73.111209L663.285905,74.366332L659.341556,80.848464L662.671108,80.379800L660.524546,83.533099L661.577086,86.066694L661.623140,86.008922L662.954667,84.342593L668.465595,79.687804L672.237790,75.909849L674.939685,74.102481L678.596418,69.607414L677.309829,73.966156L679.076142,73.474161L685.132757,70.230349L684.215460,72.519649L681.055957,75.216626L682.062586,75.862453L683.660269,73.729057L687.590099,71.956329L690.841074,68.978464L693.803901,68.592746L696.044240,69.476884L696.787996,68.551206L700.698850,68.367236L703.552082,66.081892L706.378979,66.135327L711.463629,67.554126L714.709782,70.942172L717.203892,67.180171L719.161078,67.215787L720.148641,68.367236L728.048656,68.652089L729.732966,67.827156L725.964029,63.439175L727.191866,60.890351L728.813218,59.992282L730.484930,57.436090L722.163808,59.517487L716.768017,57.841155L717.537887,53.440559L719.052174,52.185396L716.237812,52.316274L708.956242,54.255435L703.685004,53.755811L691.204038,57.436876L688.994035,59.101413L686.933234,58.061122L684.437092,58.209744L684.118381,57.014738L679.761066,57.924387L677.533252,57.020684L677.894244,56.003893L676.145231,52.875458L676.098093,51.328703L674.180890,50.043538L667.633569,49.650821L664.340884,48.234557L664.102714,45.336140L662.729420,44.812350L663.491763,43.074223L659.023573,45.264715L654.667808,47.847736L653.406938,47.746566L647.806068,50.620690L641.086587,51.298955L631.129716,55.605466L629.395757,55.950374L628.933381,56.171134Z M679.898284,39.121384L675.134747,38.073591L670.989004,39.026130L663.997099,43.038506L662.999402,44.782588L665.878876,47.127627L669.234688,44.711161L669.770442,43.693297L676.919044,39.609555L679.898284,39.121384Z M674.153745,24.168649L671.897011,24.614929L662.296810,28.364249L660.179119,30.917821L664.873016,28.893985L669.751011,27.388147L674.153745,24.168649Z " data-name="us-mi" data-realname="Michigan"/></g></svg>