<?xml version="1.0" encoding="utf-8"?><!DOCTYPE svg  PUBLIC '-//W3C//DTD SVG 1.1//EN'  'http://www.w3.org/Graphics/SVG/1.1/DTD/svg11.dtd'><svg enable_background="new 0 0 1000 561" height="561px" pretty_print="False" style="stroke-linejoin: round; stroke:#000; fill: none;" version="1.1" viewBox="0 0 1000 561" width="1000px" xmlns="http://www.w3.org/2000/svg" xmlns:xlink="http://www.w3.org/1999/xlink"><defs><style type="text/css"><![CDATA[path { fill-rule: evenodd; }]]></style></defs><metadata><views><view h="561.30029229" padding="0" w="1000"><proj flip="auto" id="lonlat" lon0="-101"/><bbox h="24826.95" w="44310.07" x="-95552.25" y="-49369.49"/></view></views></metadata><g class="" id="states"><path d="M931.633898,182.958925L931.422248,182.618952L931.265419,182.898466L931.633898,182.958925Z M945.138759,180.209600L944.056079,181.957069L941.314275,181.768195L943.785883,183.099648L945.138759,180.209600Z M929.456696,179.116930L930.352924,179.029954L930.435890,178.665249L929.456696,179.116930Z M935.236372,177.921911L930.866544,180.571072L936.409758,180.458322L935.236372,177.921911Z M945.433807,176.072081L945.880410,174.753918L945.935884,173.820753L945.433807,176.072081Z M902.899287,149.590513L902.051163,149.560263L892.835951,149.298587L890.155459,149.228502L889.115783,149.222751L889.039848,149.456864L886.635355,158.121546L886.184538,159.748993L884.944162,164.240283L885.405090,164.790832L887.506652,164.870032L901.021027,165.461831L901.336177,165.304531L914.379512,165.531131L914.392994,165.773680L915.953998,165.743430L921.532744,165.663130L924.125163,172.562557L924.125367,172.562172L925.004529,172.282589L925.829621,170.977259L924.865492,173.299171L924.865459,173.299271L925.949900,173.653514L925.808335,174.949311L926.107913,176.991650L926.109099,176.990580L927.519830,177.122579L934.110033,173.127754L934.209747,175.525749L936.767883,175.848415L938.465817,174.185585L946.525035,173.358754L946.605086,170.683926L945.777873,167.064442L944.815865,167.334433L945.099557,170.729759L940.729027,171.960840L936.767883,170.749926L936.329706,168.126431L934.167614,166.986100L934.153570,164.712772L931.943728,160.169781L930.077967,159.470366L929.083643,160.549280L930.318121,153.909877L935.166853,151.726382L932.404375,151.213966L931.690934,150.207468L931.399518,146.414309L931.417750,146.255951L925.595988,147.778267L922.926482,150.230712L902.900973,149.591613L902.899287,149.590513Z " data-name="us-ma" data-realname="Massachusetts"/><path d="M475.618265,8.489086L477.777479,16.197088L477.279053,26.076168L477.685209,28.671062L481.342298,38.082093L482.610482,51.848565L483.609440,55.020958L483.063405,61.438895L483.898889,64.669038L486.458851,70.546326L486.833829,75.537016L487.176366,77.220012L487.065136,77.453212L481.956588,84.426098L484.901640,89.222638L488.270543,90.606985L488.949295,92.633731L488.950138,127.275959L488.950138,132.224849L494.562168,132.224849L522.624003,132.217699L550.685417,132.213299L573.135223,132.207249L578.747674,132.206149L578.847107,131.678700L578.159085,123.266468L575.920172,120.554423L571.629412,119.313076L569.631496,117.593229L566.667906,113.400588L558.403223,107.687750L555.717285,107.267551L551.659517,103.891108L552.371554,102.485860L552.071572,97.176721L554.289419,89.236938L552.181959,85.599795L550.565340,85.456795L550.586406,82.307502L552.484469,79.643857L555.440897,77.015413L560.758000,74.030569L562.088540,60.955446L563.887983,58.600960L563.836502,58.504670L574.245348,50.633172L582.850806,42.270950L586.663318,39.499016L591.126066,37.350435L598.850151,35.102383L607.343813,30.930680L602.005488,31.169334L599.268549,28.801424L597.239255,28.228655L587.372808,28.959750L584.390624,25.735597L579.544574,28.426563L574.658393,29.647189L571.113482,28.647172L569.862730,26.631422L566.543891,25.708240L564.590399,23.041139L560.947390,23.377583L560.566591,25.461437L559.389859,25.837462L557.737796,21.969526L553.400519,20.493948L554.931743,19.149338L549.316068,17.059663L544.101704,16.652206L540.758340,17.393196L540.612531,18.294842L535.489577,19.215113L533.451364,16.519491L522.332828,14.981630L519.181201,13.052610L519.018447,10.248138L517.421677,5.025697L517.015907,1.726456L511.263787,0.000000L510.978410,8.489086L476.838463,8.489086L475.618265,8.489086Z " data-name="us-mn" data-realname="Minnesota"/><path d="M355.452230,8.490250L207.511713,8.491414L154.405376,8.492578L150.797938,8.492578L150.784460,30.768758L153.994103,34.255751L157.170883,39.888839L156.342982,40.978387L156.670350,42.988083L159.909486,46.037827L163.463772,47.834673L170.374742,56.623655L171.930690,58.047602L175.136541,59.335149L176.358380,61.392145L179.934574,60.634247L178.625522,69.191129L178.611197,71.700774L177.557466,72.554922L179.360310,78.653310L177.777397,79.275908L176.663839,81.060655L177.482892,82.239852L176.740099,85.447445L180.263628,87.493991L184.170983,85.583295L186.093903,82.861901L188.374107,84.297398L191.983586,92.784980L195.601491,97.303221L195.806255,101.328113L200.635887,103.149709L202.295059,107.433650L204.247051,110.988293L206.601407,110.962443L207.591096,110.019195L213.927803,110.638494L217.134497,108.451148L219.249962,108.827347L224.972800,108.828447L229.349510,108.019399L229.885433,105.086805L231.804141,104.006057L236.271435,109.550046L237.029396,109.747495L237.029396,109.063847L237.039508,98.435119L297.994917,98.434569L356.199505,98.433469L357.740286,98.433469L358.039847,98.437319L358.052065,98.155169L357.968643,82.102902L357.955582,79.658157L357.943364,77.213962L357.919770,72.918471L357.919770,16.536437L357.920191,12.777745L357.897061,8.490250L355.452230,8.490250Z " data-name="us-mt" data-realname="Montana"/><path d="M473.045185,8.489086L416.146015,8.489086L412.352291,8.489086L359.244616,8.490250L357.897061,8.490250L357.920191,12.777745L357.919770,16.536437L357.919770,72.918471L357.943364,77.213962L362.548009,77.214512L406.770553,77.215612L467.075018,77.217812L483.156517,77.220012L487.176366,77.220012L486.833829,75.537016L486.458851,70.546326L483.898889,64.669038L483.063405,61.438895L483.609440,55.020958L482.610482,51.848565L481.342298,38.082093L477.685209,28.671062L477.279053,26.076168L477.777479,16.197088L475.618265,8.489086L473.045185,8.489086Z " data-name="us-nd" data-realname="North Dakota"/><path d="M150.611652,8.492578L139.231818,8.492578L135.438540,8.492578L133.713306,8.492578L133.630508,29.616594L133.680801,65.659690L135.940388,72.247473L135.050974,73.547670L136.057937,74.862167L136.462829,75.874715L136.502855,75.975915L137.157170,77.938311L142.009132,81.041955L140.359229,91.085484L139.247778,95.025676L137.225425,98.101819L137.444091,99.189167L134.189367,104.068207L130.711762,111.551492L131.005425,114.256936L134.829357,114.919135L134.907302,118.711927L135.507688,120.320674L133.964380,125.511013L134.080665,163.707334L134.084879,166.029980L137.292836,166.029430L153.331361,166.025030L182.202559,166.018980L185.409674,166.017880L188.637013,166.017880L211.229225,166.020630L214.456564,166.021730L233.821438,166.023380L237.049198,166.023380L237.047934,162.506687L237.041193,141.402680L237.039508,137.885438L237.030239,113.263638L237.029396,109.747495L236.271435,109.550046L231.804141,104.006057L229.885433,105.086805L229.349510,108.019399L224.972800,108.828447L219.249962,108.827347L217.134497,108.451148L213.927803,110.638494L207.591096,110.019195L206.601407,110.962443L204.247051,110.988293L202.295059,107.433650L200.635887,103.149709L195.806255,101.328113L195.601491,97.303221L191.983586,92.784980L188.374107,84.297398L186.093903,82.861901L184.170983,85.583295L180.263628,87.493991L176.740099,85.447445L177.482892,82.239852L176.663839,81.060655L177.777397,79.275908L179.360310,78.653310L177.557466,72.554922L178.611197,71.700774L178.625522,69.191129L179.934574,60.634247L176.358380,61.392145L175.136541,59.335149L171.930690,58.047602L170.374742,56.623655L163.463772,47.834673L159.909486,46.037827L156.670350,42.988083L156.342982,40.978387L157.170883,39.888839L153.994103,34.255751L150.784460,30.768758L150.797938,8.492578L150.611652,8.492578Z " data-name="us-id" data-realname="Idaho"/><path d="M14.509797,66.499074L13.895806,64.700977L13.736396,64.907566L14.509797,66.499074Z M35.985801,50.587090L36.425382,49.407342L35.594673,49.503592L35.985801,50.587090Z M33.248603,49.376176L33.126419,47.111097L32.467750,47.111097L33.248603,49.376176Z M40.794508,44.169520L39.956074,42.210607L38.912596,45.339184L40.794508,44.169520Z M39.540368,39.828195L39.266508,37.703366L38.805158,37.277117L39.540368,39.828195Z M36.399401,29.755883L35.984397,28.653135L35.498470,28.672385L36.399401,29.755883Z M37.963213,22.047649L36.754015,22.176898L36.548971,27.459638L36.963974,27.214888L41.175103,32.672710L39.213842,28.807135L38.651375,30.468131L35.595375,25.585058L37.256794,24.830643L37.963213,22.047649Z M33.955022,20.005320L34.439544,19.421404L34.431117,19.053821L33.955022,20.005320Z M33.426963,20.452652L32.375058,18.527656L31.903878,20.526902L33.426963,20.452652Z M31.846297,17.786991L30.578113,17.644908L31.768352,18.436906L31.846297,17.786991Z M36.106581,18.607406L35.542007,17.301158L35.365051,17.850241L36.106581,18.607406Z M30.960816,19.282071L29.064859,17.129742L27.762970,17.361658L29.246029,20.064903L30.960816,19.282071Z M36.614276,16.965659L36.125540,16.765826L36.001952,16.813493L36.614276,16.965659Z M28.960933,16.541243L28.200444,16.243327L28.010146,16.205744L28.960933,16.541243Z M33.280904,14.886663L30.372367,16.513743L31.170775,16.465160L33.280904,14.886663Z M30.605499,15.361496L29.802176,14.954497L29.691227,15.073663L30.605499,15.361496Z M32.674198,13.535499L32.165801,13.698666L32.849047,13.671166L32.674198,13.535499Z M27.719243,71.873004L30.837008,72.627522L33.229705,74.789017L34.726668,78.580160L35.064148,82.623201L36.468419,84.339198L43.579519,85.677895L51.663033,82.184302L55.501290,82.002803L61.469760,82.734851L62.667583,84.418398L67.065780,83.977299L71.060770,82.590201L79.111421,81.633753L83.735026,79.558058L88.424357,78.795209L91.580071,77.542862L99.088057,76.707963L99.816104,75.918715L134.120270,75.876915L136.462829,75.874715L136.057937,74.862167L135.050974,73.547670L135.940388,72.247473L133.680801,65.659690L133.630508,29.616594L133.713306,8.492578L131.644816,8.492578L40.605699,8.492578L35.294831,8.846759L35.011140,11.382254L40.416721,17.261742L39.022140,17.713658L39.647806,20.603902L37.159890,19.221571L35.919794,19.897153L40.665302,25.014893L38.870025,25.227193L40.627383,28.093053L40.418828,25.617141L41.602747,26.048890L41.832368,28.092136L43.915111,31.464546L43.301383,31.585546L41.396298,36.431036L41.051515,40.627527L42.471376,44.571019L36.827044,50.494507L33.366573,49.662175L31.043676,51.555088L31.429889,49.299176L34.181132,44.418853L34.301209,48.762010L35.602397,48.007595L36.205592,45.172351L38.808669,45.032101L39.319173,41.657858L36.322860,40.076612L37.865607,39.929028L38.971581,32.980709L37.540485,32.294128L37.502566,34.224624L35.019566,38.008616L30.436970,41.600108L28.579635,45.705850L28.767124,43.252855L32.379974,38.734614L34.296996,35.206372L37.383191,33.608625L34.427606,28.672385L30.842143,28.785135L30.045841,29.506550L28.238027,26.862149L26.565897,28.253667L14.070413,27.121306L1.014540,22.117187L2.012895,23.345866L1.779242,30.225215L2.557324,32.927530L6.393559,37.033862L8.248233,45.434945L10.121167,49.156317L10.490030,55.058032L15.849343,54.063999L12.759945,55.832341L11.640739,55.354972L11.833721,58.753271L15.084443,59.214079L15.711613,66.465885L13.323862,67.231872L13.261012,63.099564L12.318645,61.433371L12.468947,67.881838L16.140442,70.054001L18.868387,69.032225L20.417895,70.048800L22.963422,69.891845L25.685565,72.493818L27.708237,71.852147L27.719243,71.873004Z " data-name="us-wa" data-realname="Washington"/><path d="M268.933281,278.661498L242.003121,278.638398L231.231562,278.628498L188.143221,278.591648L185.450121,278.588898L185.449278,278.775347L185.404618,296.449561L184.005824,300.154353L181.716773,300.456303L177.653950,297.878458L174.014557,298.662756L173.810636,302.625498L174.490231,303.569846L174.293894,307.508938L174.898493,309.145185L175.231760,314.056675L176.261897,319.407064L175.283583,323.368706L175.302543,323.634905L175.313076,323.792205L175.496773,326.434399L178.900225,332.132388L180.355476,335.805280L183.984336,338.858874L184.089246,339.637672L179.091927,344.191113L177.132351,347.562606L177.553675,348.913953L175.343411,358.923382L173.677076,359.765431L174.636430,367.551215L178.036511,369.388211L177.063254,374.329951L173.644663,375.240438L173.651791,375.270098L172.048332,380.068202L229.179816,403.126803L238.800571,406.456313L271.236732,406.451656L271.612478,406.451656L271.620904,334.520483L271.623432,310.581782L271.625960,282.653389L271.626381,278.663698L268.933281,278.661498Z " data-name="us-az" data-realname="Arizona"/><path d="M106.834202,367.976389L108.368713,371.806863L111.057938,372.856176L106.834202,367.976389Z M90.997947,362.543201L91.977433,363.905606L92.361335,363.724677L90.997947,362.543201Z M107.866710,358.019104L108.665370,360.694957L111.787515,361.192350L107.866710,358.019104Z M93.338348,346.011954L92.177695,345.927016L93.125286,346.194445L93.338348,346.011954Z M81.869043,345.610639L78.516954,346.044932L80.455986,348.606740L83.137365,347.569774L81.869043,345.610639Z M76.374872,345.047072L76.379205,345.910796L77.278972,345.833233L76.374872,345.047072Z M85.444169,344.810795L90.200979,346.371465L88.929773,345.936082L85.444169,344.810795Z M30.786668,262.854569L30.693977,262.967319L30.775433,262.890319L30.786668,262.854569Z M41.715033,260.262498L41.541409,259.980050L41.702719,260.424022L41.715033,260.262498Z M82.586498,166.029980L78.072016,166.029980L10.364053,166.029980L9.867715,166.029980L9.982413,166.436101L9.929201,168.474945L12.154336,176.799913L11.425362,184.451797L11.261489,189.980381L6.508032,201.077225L7.657729,205.622923L11.571505,208.662264L17.183818,218.343638L16.591154,225.779624L18.830710,232.271479L18.294151,235.437797L23.344283,240.659358L25.011820,243.352241L28.605681,246.009395L29.516215,248.866777L32.699478,253.184673L31.102862,256.058651L34.347747,256.682929L35.997826,258.562181L38.965364,260.268208L40.399283,256.466583L39.672985,253.769901L40.998219,253.116155L45.836152,255.182053L46.955663,253.262589L49.841948,254.932484L52.906250,255.407911L43.774670,254.884169L41.763134,255.853541L42.952766,261.093011L45.275483,263.691055L45.769637,267.445227L41.897504,265.304704L41.389978,260.840657L39.221042,261.712486L39.248392,267.170064L40.090195,267.470893L42.229358,275.987984L44.251452,278.112074L47.277082,279.827311L51.567825,283.617631L51.290049,285.795393L49.080905,289.655265L51.107105,295.798585L53.194900,297.082373L56.598096,301.113901L57.348392,303.739054L59.522283,305.996416L60.363718,308.363437L63.083559,310.182729L65.249504,313.337638L67.566578,314.584528L67.934230,319.144077L71.234500,320.325298L72.625851,333.773055L74.442195,336.099522L77.539467,335.689230L82.864056,336.104884L87.208090,337.289197L95.389638,340.986287L97.636651,343.978135L108.242795,345.743982L110.285259,350.621469L109.735553,351.340634L114.481130,351.677772L117.485230,354.444047L125.590360,361.219714L128.812026,366.326907L129.629882,368.918184L129.928319,375.490671L132.212422,379.321732L173.644657,375.240412L173.644663,375.240438L177.063254,374.329951L178.036511,369.388211L174.636430,367.551215L173.677076,359.765431L175.343411,358.923382L177.553675,348.913953L177.132351,347.562606L179.091927,344.191113L184.089246,339.637672L183.984336,338.858874L180.355476,335.805280L178.900225,332.132388L175.496773,326.434399L175.313076,323.792205L175.302543,323.634905L172.092057,320.416312L165.542161,313.851525L140.247157,287.920179L118.099862,266.189173L82.599138,233.620990L82.586919,170.157171L82.586498,166.029980Z " data-name="us-ca" data-realname="California"/><path d="M392.347383,209.665790L392.338956,188.556833L387.105696,188.556283L360.400101,188.551333L357.790845,188.551333L355.636196,188.551333L314.988582,188.551333L312.278629,188.551333L274.340969,188.551333L271.631437,188.551333L271.631437,191.367877L271.629331,202.631854L271.629331,222.343814L271.626803,275.848253L271.626381,278.663698L274.887426,278.663698L323.794245,278.663698L327.055290,278.663698L372.701065,278.663698L375.961688,278.663698L378.092742,278.663698L384.487592,278.663698L386.619068,278.663698L390.882441,278.663698L392.550040,278.663698L392.543720,276.551702L392.487262,257.542641L392.354124,213.185782L392.348226,211.073237L392.347383,209.665790Z " data-name="us-co" data-realname="Colorado"/><path d="M185.449278,275.071105L185.434111,236.374285L185.428212,215.267528L185.410095,169.536222L185.409674,166.017880L182.202559,166.018980L153.331361,166.025030L137.292836,166.029430L134.084879,166.029980L130.867652,166.029980L108.342429,166.029980L105.124781,166.029980L85.817207,166.029980L82.586498,166.029980L82.586919,170.157171L82.599138,233.620990L118.099862,266.189173L140.247157,287.920179L165.542161,313.851525L172.092057,320.416312L175.302543,323.634905L175.283583,323.368706L176.261897,319.407064L175.231760,314.056675L174.898493,309.145185L174.293894,307.508938L174.490231,303.569846L173.810636,302.625498L174.014557,298.662756L177.653950,297.878458L181.716773,300.456303L184.005824,300.154353L185.404618,296.449561L185.449278,278.775347L185.450121,278.588898L185.449278,275.071105Z " data-name="us-nv" data-realname="Nevada"/><path d="M375.969272,287.104530L375.966322,284.291286L375.963794,281.478042L375.961688,278.663698L372.701065,278.663698L327.055290,278.663698L323.794245,278.663698L274.887426,278.663698L271.626381,278.663698L271.625960,282.653389L271.623432,310.581782L271.620904,334.520483L271.612478,406.451656L271.973806,406.451656L285.981333,406.450492L285.975983,396.305965L315.277907,396.394441L315.470090,396.474769L313.417888,393.877460L312.788852,391.673065L321.174455,391.286966L374.843495,391.261116L375.248808,289.932624L375.971378,289.918874L375.969272,287.104530Z " data-name="us-nm" data-realname="New Mexico"/><path d="M9.867715,166.029980L10.364053,166.029980L78.072016,166.029980L82.586498,166.029980L85.817207,166.029980L105.124781,166.029980L108.342429,166.029980L130.867652,166.029980L134.084879,166.029980L134.080665,163.707334L133.964380,125.511013L135.507688,120.320674L134.907302,118.711927L134.829357,114.919135L131.005425,114.256936L130.711762,111.551492L134.189367,104.068207L137.444091,99.189167L137.225425,98.101819L139.247778,95.025676L140.359229,91.085484L142.009132,81.041955L137.157170,77.938311L136.502855,75.975915L136.462829,75.874715L134.120270,75.876915L99.816104,75.918715L99.088057,76.707963L91.580071,77.542862L88.424357,78.795209L83.735026,79.558058L79.111421,81.633753L71.060770,82.590201L67.065780,83.977299L62.667583,84.418398L61.469760,82.734851L55.501290,82.002803L51.663033,82.184302L43.579519,85.677895L36.468419,84.339198L35.064148,82.623201L34.726668,78.580160L33.229705,74.789017L30.837008,72.627522L27.719243,71.873004L27.489146,72.025543L26.800947,72.818044L20.229704,71.707046L17.043093,73.599959L14.421750,73.204478L14.892939,75.592788L14.092424,77.741451L14.994701,82.565199L13.839630,96.071996L12.421110,102.816822L12.114102,109.743306L13.261012,111.731381L11.603390,116.670276L10.963394,123.627856L11.822125,127.301564L10.078914,128.561014L7.956263,135.324448L9.896157,135.050873L9.733217,133.912828L6.750761,136.731620L5.071433,145.072313L4.117588,146.973475L6.698224,152.829039L6.235742,156.560383L6.489640,160.188114L9.825488,165.880459L9.867715,166.029980Z M23.291173,70.942667L22.695610,70.167944L22.743162,70.838941L23.291173,70.942667Z " data-name="us-or" data-realname="Oregon"/><path d="M233.821438,166.023380L214.456564,166.021730L211.229225,166.020630L188.637013,166.017880L185.409674,166.017880L185.410095,169.536222L185.428212,215.267528L185.434111,236.374285L185.449278,275.071105L185.450121,278.588898L188.143221,278.591648L231.231562,278.628498L242.003121,278.638398L268.933281,278.661498L271.626381,278.663698L271.626803,275.848253L271.629331,222.343814L271.629331,202.631854L271.631437,191.367877L271.631437,188.551333L269.470047,188.551333L237.054675,188.551333L237.051726,178.692603L237.049198,167.431377L237.049198,166.023380L233.821438,166.023380Z " data-name="us-ut" data-realname="Utah"/><path d="M357.795058,140.667332L357.762616,123.774117L357.749555,101.249463L357.740286,98.433469L356.199505,98.433469L297.994917,98.434569L237.039508,98.435119L237.029396,109.063847L237.029396,109.747495L237.030239,113.263638L237.039508,137.885438L237.041193,141.402680L237.047934,162.506687L237.049198,166.023380L237.049198,167.431377L237.051726,178.692603L237.054675,188.551333L269.470047,188.551333L271.631437,188.551333L274.340969,188.551333L312.278629,188.551333L314.988582,188.551333L355.636196,188.551333L357.790845,188.551333L357.804748,185.734789L357.814439,177.284606L357.803484,146.299320L357.801378,143.483326L357.795058,140.667332Z " data-name="us-wy" data-realname="Wyoming"/><path d="M605.057225,301.175151L593.879510,301.498551L594.410378,299.802354L599.177654,294.602115L598.897896,292.317969L597.523117,289.927124L525.353337,289.927124L520.621452,289.927124L521.008227,293.063218L523.328456,311.878129L523.714810,315.014773L523.035215,349.290152L522.937889,354.186242L523.234501,354.262142L524.606331,356.115088L527.237075,355.834039L530.476211,356.287238L530.557105,365.835768L530.580278,368.524713L533.665630,368.521413L561.435910,368.485113L579.949710,368.462563L580.191550,368.448263L580.280871,366.097018L581.351875,365.397969L579.921903,361.561727L580.869881,358.001034L579.745368,352.820045L582.449844,347.809555L581.603827,346.317958L585.132833,344.870911L583.825887,342.703916L587.217121,337.667026L590.071588,336.667678L590.221158,330.818440L592.474396,329.137644L592.316400,327.591597L594.241006,326.777599L595.651597,324.497853L595.123258,323.813105L595.071856,323.713555L594.926078,323.434155L598.849022,320.373412L598.254534,315.912371L601.560239,311.652080L601.393816,307.127239L605.117474,304.939344L605.058068,301.337951L605.087560,301.176251L605.057225,301.175151Z " data-name="us-ar" data-realname="Arkansas"/><path d="M589.472466,154.009754L583.641348,150.213662L580.810896,145.489172L580.363450,139.091035L581.571806,136.342141L578.871965,133.311097L578.742197,132.236399L578.747674,132.206149L573.135223,132.207249L550.685417,132.213299L522.624003,132.217699L494.562168,132.224849L488.950138,132.224849L486.504354,132.252349L487.534069,134.803244L486.921043,138.097737L488.594962,141.933979L486.169402,149.930413L487.751472,151.397260L488.456347,153.546105L488.447920,154.342504L489.210937,154.466253L489.918761,154.830353L492.285757,164.716032L494.113880,166.293979L494.481695,169.036823L495.499613,170.099421L495.359733,176.161509L496.637186,176.210459L497.713668,178.024905L497.502585,180.922299L499.505557,192.422775L500.847052,197.176415L500.787224,197.548215L500.788909,197.548765L523.037322,198.168063L546.910358,197.979964L570.454762,197.135166L575.257851,202.342555L575.439863,202.525704L576.461994,202.223755L576.146001,197.981064L580.423278,195.926268L581.312271,193.869272L583.108795,185.243090L581.643010,184.272892L581.761402,180.811199L583.210755,178.778403L588.163835,178.382404L594.082588,175.182511L594.829595,172.136617L597.312034,168.729374L597.901044,165.330931L593.930069,160.823690L592.863278,158.076996L589.031761,154.984352L589.255063,154.490453L589.472466,154.009754Z " data-name="us-ia" data-realname="Iowa"/><path d="M520.627772,275.787204L520.553619,230.798946L520.721306,230.160948L517.651121,229.035100L516.122559,227.132104L515.765698,224.926058L512.127148,221.205316L514.369010,217.924573L516.193763,216.886175L514.887238,214.103731L512.096812,214.033881L509.539800,211.983485L508.559801,211.073237L504.942738,211.073237L450.685531,211.073237L447.068468,211.073237L396.428323,211.073237L392.348226,211.073237L392.354124,213.185782L392.487262,257.542641L392.543720,276.551702L392.550040,278.663698L397.000902,278.663698L456.820423,278.663698L460.808251,278.663698L516.639102,278.663698L520.626508,278.663698L520.627772,275.787204Z " data-name="us-ks" data-realname="Kansas"/><path d="M575.257851,202.342555L570.454762,197.135166L546.910358,197.979964L523.037322,198.168063L500.788909,197.548765L500.787224,197.548215L500.694111,198.135063L502.021280,199.398961L503.089336,203.454103L505.487088,205.348299L506.752323,209.667440L508.094660,210.641488L508.559801,211.073237L509.539800,211.983485L512.096812,214.033881L514.887238,214.103731L516.193763,216.886175L514.369010,217.924573L512.127148,221.205316L515.765698,224.926058L516.122559,227.132104L517.651121,229.035100L520.721306,230.160948L520.553619,230.798946L520.627772,275.787204L520.626508,278.663698L520.626087,281.479692L520.623980,284.295686L520.623138,287.111680L520.621452,289.927124L525.353337,289.927124L597.523117,289.927124L598.897896,292.317969L599.177654,294.602115L594.410378,299.802354L593.879510,301.498551L605.057225,301.175151L605.087560,301.176251L605.227440,300.405703L605.904507,295.513463L607.510592,295.448563L606.734935,293.494417L608.236533,293.040118L607.990058,290.009624L607.917169,289.919974L607.758752,289.724175L608.313213,288.394278L608.904330,288.697877L609.126368,289.597125L609.047580,289.891375L608.996600,290.081674L608.863041,290.865422L609.314278,290.995222L610.208748,290.072324L610.254251,289.946924L610.347364,289.687325L613.207729,288.366228L613.673713,288.109378L615.527537,279.517296L615.444536,279.117997L615.103686,278.955747L612.249640,277.056051L611.067406,277.593950L608.552104,271.750212L609.962274,269.685516L608.485114,265.997774L608.548312,263.365479L605.120423,259.799836L598.409582,255.756245L594.345073,251.465154L594.058152,247.813161L597.708920,238.393331L597.845008,236.828584L593.262271,234.470739L590.221158,236.350085L588.196277,233.707340L587.608530,228.639651L582.186096,223.411361L581.535151,221.931864L576.594289,217.029175L574.564774,210.859287L574.108902,207.135245L575.439020,202.525704L575.439863,202.525704L575.257851,202.342555Z " data-name="us-mo" data-realname="Missouri"/><path d="M486.227966,153.982804L484.128932,150.663011L479.651526,148.697865L477.323714,148.230916L474.322626,146.035321L467.702790,146.804219L466.931768,146.481920L460.908526,147.941067L460.455182,147.358618L453.944047,143.533376L361.160169,143.483326L357.801378,143.483326L357.803484,146.299320L357.814439,177.284606L357.804748,185.734789L357.790845,188.551333L360.400101,188.551333L387.105696,188.556283L392.338956,188.556833L392.347383,209.665790L392.348226,211.073237L396.428323,211.073237L447.068468,211.073237L450.685531,211.073237L504.942738,211.073237L508.559801,211.073237L508.094660,210.641488L506.752323,209.667440L505.487088,205.348299L503.089336,203.454103L502.021280,199.398961L500.694111,198.135063L500.787224,197.548215L500.847052,197.176415L499.505557,192.422775L497.502585,180.922299L497.713668,178.024905L496.637186,176.210459L495.359733,176.161509L495.499613,170.099421L494.481695,169.036823L494.113880,166.293979L492.285757,164.716032L489.918761,154.830353L489.210937,154.466253L488.447920,154.342504L486.227966,153.982804Z " data-name="us-ne" data-realname="Nebraska"/><path d="M520.623138,287.111680L520.623980,284.295686L520.626087,281.479692L520.626508,278.663698L516.639102,278.663698L460.808251,278.663698L456.820423,278.663698L397.000902,278.663698L392.550040,278.663698L390.882441,278.663698L386.619068,278.663698L384.487592,278.663698L378.092742,278.663698L375.961688,278.663698L375.963794,281.478042L375.966322,284.291286L375.969272,287.104530L375.971378,289.918874L376.538901,289.918874L427.706543,289.926574L427.760051,333.279135L429.616824,333.392985L433.576423,337.459677L436.393392,337.077977L437.817887,337.674176L438.751540,335.829480L444.512298,341.640768L445.432047,341.379518L449.836142,343.165365L452.149630,342.703916L453.534099,344.383062L456.338429,343.011365L458.646440,343.333114L460.737047,345.616160L463.183252,346.760157L463.137749,348.875453L465.701082,348.769853L468.464122,346.366908L469.667000,348.519054L471.988072,350.141550L476.408178,348.910653L475.972108,350.506200L477.900927,352.047847L481.230226,347.350856L485.075646,349.157052L485.298526,348.458554L489.379045,350.980299L491.103523,352.959745L494.958212,349.807151L498.027133,348.653253L500.517577,349.499702L503.939988,347.415756L508.245072,348.977753L509.949326,347.129207L514.769268,349.736751L518.976184,353.145644L522.846462,354.162592L522.937889,354.186242L523.035215,349.290152L523.714810,315.014773L523.328456,311.878129L521.008227,293.063218L520.621452,289.927124L520.623138,287.111680Z " data-name="us-ok" data-realname="Oklahoma"/><path d="M483.156517,77.220012L467.075018,77.217812L406.770553,77.215612L362.548009,77.214512L357.943364,77.213962L357.955582,79.658157L357.968643,82.102902L358.052065,98.155169L358.039847,98.437319L357.740286,98.433469L357.749555,101.249463L357.762616,123.774117L357.795058,140.667332L357.801378,143.483326L361.160169,143.483326L453.944047,143.533376L460.455182,147.358618L460.908526,147.941067L466.931768,146.481920L467.702790,146.804219L474.322626,146.035321L477.323714,148.230916L479.651526,148.697865L484.128932,150.663011L486.227966,153.982804L488.447920,154.342504L488.456347,153.546105L487.751472,151.397260L486.169402,149.930413L488.594962,141.933979L486.921043,138.097737L487.534069,134.803244L486.504354,132.252349L488.950138,132.224849L488.950138,127.275959L488.949295,92.633731L488.270543,90.606985L484.901640,89.222638L481.956588,84.426098L487.065136,77.453212L487.176366,77.220012L483.156517,77.220012Z " data-name="us-sd" data-realname="South Dakota"/><path d="M589.208936,457.292002L587.998333,457.409335L587.388818,457.960251L589.208936,457.292002Z M593.177804,457.701752L592.516326,457.315836L592.304260,457.580752L593.177804,457.701752Z M595.423459,457.113253L594.823775,457.113253L594.341360,457.575252L595.423459,457.113253Z M594.354702,456.210338L594.218474,455.917922L594.118760,456.197505L594.354702,456.210338Z M602.328952,451.548181L601.993298,451.660014L602.459563,451.756264L602.328952,451.548181Z M616.001605,447.080357L616.594969,446.220525L615.879421,447.147273L616.001605,447.080357Z M618.117351,444.497195L617.931267,444.625528L617.954439,444.653028L618.117351,444.497195Z M569.222750,447.843022L570.743026,445.958359L567.027654,444.304696L565.176639,445.769526L569.222750,447.843022Z M608.855255,443.292698L608.479574,442.795866L608.379159,443.028698L608.855255,443.292698Z M610.068667,441.485035L609.112964,441.001036L609.352416,442.128534L610.068667,441.485035Z M617.922840,440.774620L617.946013,440.423537L617.870877,440.601370L617.922840,440.774620Z M619.872866,439.593039L619.819498,439.477539L619.910083,439.811205L619.872866,439.593039Z M619.190322,439.337289L619.023197,439.246540L618.846241,439.494956L619.190322,439.337289Z M612.664020,438.078709L613.515093,437.895376L613.534755,437.516793L612.664020,438.078709Z M613.122560,437.574543L613.661152,437.072211L613.628149,436.952128L613.122560,437.574543Z M610.246325,433.143385L609.997041,433.279052L610.136780,433.350552L610.246325,433.143385Z M580.191550,368.448263L579.949710,368.462563L561.435910,368.485113L533.665630,368.521413L530.580278,368.524713L530.576064,371.167457L530.546150,391.339766L534.052405,396.021906L534.175853,400.232697L537.244774,405.485736L536.885385,406.617084L538.775021,409.401728L538.867291,415.689865L535.808061,427.006092L536.388644,432.757980L534.770939,436.679319L534.935233,436.691501L535.055339,439.587490L533.377679,441.989677L534.208233,443.110412L538.911132,441.691464L545.105165,441.473164L554.019224,445.273141L560.382906,446.844788L563.846661,444.518279L564.081900,442.893032L562.314448,441.662868L568.438386,440.156788L568.107647,442.451200L571.248614,441.916784L573.412111,446.752191L575.660574,446.136192L580.966443,451.265848L579.216545,450.318017L577.202619,451.240181L577.404152,452.240263L585.065921,455.869339L588.139477,456.190171L592.655363,450.825849L595.884106,454.401758L596.365819,456.930836L599.330533,454.074509L598.596728,453.164261L600.018695,452.009263L598.605154,446.612858L603.431416,449.487518L603.884978,451.491865L609.723883,453.240344L610.204894,455.392673L612.498299,456.483504L611.935130,458.692666L613.700476,456.822670L614.931443,458.208667L615.165277,452.163263L608.262593,449.922018L608.304725,449.083269L605.877901,446.990524L605.097751,445.329527L606.884865,444.752028L606.060475,443.815197L608.952159,444.566862L607.474015,443.367864L611.619839,439.661789L609.188100,434.634799L607.818799,436.334296L607.183302,438.815707L605.731842,439.000873L603.580986,437.545210L606.542188,433.188302L604.870938,432.406387L603.296592,433.852884L600.383140,435.173798L594.469863,434.866715L592.849874,433.126885L596.085639,427.935813L599.312276,428.238312L604.611122,431.007556L604.752967,432.098388L608.502045,432.012221L608.502225,432.011936L606.627919,428.618139L603.350022,418.850159L604.943468,414.161419L602.174108,413.824819L571.822379,413.822069L572.033462,408.527780L574.287121,405.409287L575.546036,400.914146L576.089544,397.192854L577.563334,394.283360L578.953701,393.678361L581.875159,389.390570L581.351875,388.721771L584.620504,383.992881L580.434232,377.582094L581.852408,375.283099L580.478050,373.041303L580.162479,369.187461L580.191550,368.448263Z " data-name="us-la" data-realname="Louisiana"/><path d="M476.700131,523.907862L473.602662,509.419062L472.722096,504.067573L472.659600,507.746148L475.843854,519.872629L476.700131,523.907862Z M476.448025,489.231694L475.290063,489.899602L473.130366,496.090943L472.793721,498.407168L476.448025,489.231694Z M479.025097,484.305197L480.586101,481.792619L482.107079,479.807123L479.025097,484.305197Z M489.758315,473.651719L482.758024,477.578711L482.482057,479.807123L484.651873,477.231295L489.758315,473.651719Z M490.735786,472.199722L492.764459,470.383809L492.027142,470.626725L490.735786,472.199722Z M517.239847,450.932182L512.166145,456.887104L518.790785,451.377721L517.239847,450.932182Z M375.971378,289.918874L375.248808,289.932624L374.843495,391.261116L321.174455,391.286966L312.788852,391.673065L313.417888,393.877460L315.470090,396.474769L315.549943,396.562956L318.813900,399.215211L320.188166,402.113980L326.585059,407.330600L328.203679,409.771853L332.889204,414.806863L340.977844,420.808130L345.785547,430.397351L346.956036,432.008555L346.974764,437.654751L348.646892,440.802651L349.557421,443.836464L354.107393,447.020453L357.728999,451.245205L362.697226,453.081092L364.359098,454.972859L366.479802,455.398943L369.554288,458.348353L373.421586,459.218566L377.754849,453.920454L378.955660,448.283571L381.191407,442.898147L386.224735,441.372510L388.466724,439.293895L391.345905,440.813129L395.037072,440.666444L399.579909,441.409181L405.252741,445.229271L406.794510,444.599286L407.030729,446.615238L409.751049,447.603320L412.108152,447.537006L410.707809,450.630526L413.664131,452.783066L416.343103,456.570092L416.973607,460.578892L418.790207,463.276843L420.047647,467.297284L422.675786,473.449310L424.482576,476.875445L426.903817,478.798645L430.105831,484.887806L434.072118,489.677178L435.771892,490.313394L436.843838,494.327432L436.493806,497.151695L437.198092,502.736958L440.492448,506.344451L441.462721,505.595100L441.643060,509.554059L442.765732,509.209225L442.159867,514.291685L446.214889,517.630508L450.108940,520.234744L453.755517,521.272014L458.420085,524.767999L465.679350,525.031101L467.791582,525.686525L472.178354,529.736652L475.983225,527.353608L477.116573,527.236726L475.861659,524.412031L474.372982,523.951865L473.288776,520.028540L473.576681,518.596709L472.069747,514.680718L471.622442,511.435724L470.055820,506.194235L471.213758,506.695651L469.807239,504.080406L471.609802,500.001248L471.924677,497.806095L470.526658,498.708141L468.656041,498.427216L466.157875,493.384761L469.058688,497.187087L472.473515,495.888173L474.984604,488.636438L473.103394,486.923191L472.648365,485.085278L470.880912,484.128280L475.200181,484.236447L476.343372,485.091695L479.045461,480.584454L478.744917,478.923458L475.766159,479.726456L477.146696,478.087460L481.067814,475.472215L480.468130,478.562292L483.102807,476.259630L482.203983,472.048472L483.086656,470.603808L485.495925,474.213634L489.808874,471.613973L486.734616,468.368980L486.271160,467.043482L490.162786,464.964487L491.104444,466.999482L493.411190,465.765652L493.241256,468.194813L496.479830,467.843731L494.001043,469.307644L499.587794,466.847316L506.800854,461.759826L511.292163,457.853001L512.035097,454.946257L516.350855,450.057684L513.622082,446.668774L514.059308,443.414652L515.215967,443.862710L517.029126,441.578306L518.875610,441.388924L519.158343,444.229993L518.258799,447.072260L520.843740,446.432945L521.065465,447.223356L517.795995,450.021017L525.506216,445.857526L530.643555,443.473281L532.729106,443.522781L534.421910,436.653439L534.770939,436.679319L536.388644,432.757980L535.808061,427.006092L538.867291,415.689865L538.775021,409.401728L536.885385,406.617084L537.244774,405.485736L534.175853,400.232697L534.052405,396.021906L530.546150,391.339766L530.576064,371.167457L530.580278,368.524713L530.557105,365.835768L530.476211,356.287238L527.237075,355.834039L524.606331,356.115088L523.234501,354.262142L522.937889,354.186242L522.846462,354.162592L518.976184,353.145644L514.769268,349.736751L509.949326,347.129207L508.245072,348.977753L503.939988,347.415756L500.517577,349.499702L498.027133,348.653253L494.958212,349.807151L491.103523,352.959745L489.379045,350.980299L485.298526,348.458554L485.075646,349.157052L481.230226,347.350856L477.900927,352.047847L475.972108,350.506200L476.408178,348.910653L471.988072,350.141550L469.667000,348.519054L468.464122,346.366908L465.701082,348.769853L463.137749,348.875453L463.183252,346.760157L460.737047,345.616160L458.646440,343.333114L456.338429,343.011365L453.534099,344.383062L452.149630,342.703916L449.836142,343.165365L445.432047,341.379518L444.512298,341.640768L438.751540,335.829480L437.817887,337.674176L436.393392,337.077977L433.576423,337.459677L429.616824,333.392985L427.760051,333.279135L427.706543,289.926574L376.538901,289.918874L375.971378,289.918874Z " data-name="us-tx" data-realname="Texas"/><path d="M914.379512,165.531131L901.336177,165.304531L901.021027,165.461831L887.506652,164.870032L885.405090,164.790832L885.338099,165.834180L884.297851,181.903497L885.069716,183.842793L881.221347,186.216038L882.603751,188.523543L882.623813,188.507613L890.517743,184.903160L893.459266,183.890511L895.251360,181.673820L895.554334,183.028796L904.663729,181.847070L904.839982,181.310821L909.515972,180.616905L913.173326,181.731178L913.592803,181.545531L913.892041,179.723301L914.329796,179.182102L914.403528,167.073877L914.392994,165.773680L914.379512,165.531131Z " data-name="us-ct" data-realname="Connecticut"/><path d="M926.736302,91.582475L924.599545,92.696580L923.149476,91.850233L921.196431,93.818834L919.513601,98.126242L919.483094,98.126428L918.567047,107.978699L917.553343,109.763445L914.553519,111.986541L910.608666,113.806487L909.755486,119.327926L907.270098,125.815712L904.089105,131.520301L903.960601,135.365343L901.369461,146.241020L902.900130,149.586663L902.899287,149.590513L902.900973,149.591613L922.926482,150.230712L925.595988,147.778267L931.417750,146.255951L931.417776,146.255726L931.978136,144.637813L933.317243,142.164651L932.449316,142.162818L932.629081,141.603652L928.619828,134.142145L928.940455,130.826202L926.746673,91.580672L926.736302,91.582475Z " data-name="us-nh" data-realname="New Hampshire"/><path d="M921.436620,178.110744L921.958359,175.651332L921.390275,176.688080L921.436620,178.110744Z M924.105003,177.276579L924.405547,173.666753L922.594558,176.833830L924.105003,177.276579Z M924.641488,173.989419L924.641488,175.973082L925.004529,177.987911L926.107913,176.991650L925.808335,174.949311L925.949900,173.653514L924.865459,173.299271L924.641488,173.989419Z M914.392994,165.773680L914.403528,167.073877L914.329796,179.182102L913.892041,179.723301L913.592803,181.545531L913.906803,181.406565L920.364194,179.398255L921.870583,172.241339L923.003944,173.687836L924.098683,172.612589L924.125163,172.562557L921.532744,165.663130L915.953998,165.743430L914.392994,165.773680Z " data-name="us-ri" data-realname="Rhode Island"/><path d="M902.900130,149.586663L901.369461,146.241020L903.960601,135.365343L904.089105,131.520301L907.270098,125.815712L909.755486,119.327926L910.608666,113.806487L914.553519,111.986541L917.553343,109.763445L918.567047,107.978699L919.483094,98.126428L917.792424,98.136720L907.465362,98.203077L905.744185,98.215883L888.530631,98.325314L887.634663,98.331374L887.777563,102.711910L888.611784,110.382744L888.195937,114.118886L887.038983,117.037180L887.345706,125.412013L886.437333,128.882506L889.305703,130.875152L889.411034,132.185249L888.930756,149.211250L889.115783,149.222751L890.155459,149.228502L892.835951,149.298587L902.051163,149.560263L902.899287,149.590513L902.900130,149.586663Z " data-name="us-vt" data-realname="Vermont"/><path d="M633.266743,430.842557L632.954963,430.134892L629.465000,431.021306L633.266743,430.842557Z M631.746388,323.764155L632.048056,324.673853L633.293488,326.147300L626.522818,393.037612L626.537565,395.902556L627.895529,427.618040L628.317595,427.482064L629.593503,427.315231L632.460610,429.151310L634.560908,419.789413L636.443522,423.656822L636.366280,427.038398L638.698306,429.300727L636.992647,430.914057L641.909494,430.151392L645.327832,426.225316L644.728148,425.470901L644.852705,425.550417L641.849306,413.833619L683.753728,413.825369L686.495280,413.824819L686.543311,413.728019L684.707183,407.709932L685.607551,399.938448L684.125335,395.265108L686.303157,387.169124L688.322139,385.422328L686.626733,379.802989L684.578258,374.668200L683.181149,370.024560L678.367527,338.089975L676.177487,324.177754L676.156421,324.048504L673.128368,323.995704L656.814720,323.945654L643.219029,323.592005L631.635159,323.495755L631.746388,323.764155Z " data-name="us-al" data-realname="Alabama"/><path d="M736.330916,559.050959L736.167302,559.049126L736.158875,559.113293L736.330916,559.050959Z M735.545850,558.782377L735.527592,558.874960L735.547956,558.911626L735.545850,558.782377Z M735.735445,558.636627L735.705952,558.592627L735.697526,558.640294L735.735445,558.636627Z M741.581310,559.300292L742.360758,559.127959L742.299666,558.913460L741.581310,559.300292Z M723.488973,557.407380L723.455267,557.398213L723.459481,557.459629L723.488973,557.407380Z M723.299378,557.426629L723.288844,557.338630L723.276907,557.459629L723.299378,557.426629Z M723.404708,557.294630L723.384344,557.356963L723.405411,557.373463L723.404708,557.294630Z M722.489734,557.260713L722.435664,557.193797L722.416705,557.318463L722.489734,557.260713Z M748.552108,556.757464L748.432031,556.667631L748.480483,556.931631L748.552108,556.757464Z M751.042131,556.645631L751.061792,556.399965L750.849726,556.707964L751.042131,556.645631Z M750.193164,556.212049L749.824506,555.667550L749.755689,555.750966L750.193164,556.212049Z M749.761307,556.953630L748.948152,555.134051L749.352623,556.627298L749.761307,556.953630Z M759.050087,552.894639L759.052896,553.277805L759.201764,553.120138L759.050087,552.894639Z M760.500845,552.161307L760.801389,551.675475L760.452393,551.998141L760.500845,552.161307Z M760.889867,551.192392L760.809113,551.103476L760.823157,551.218059L760.889867,551.192392Z M759.373102,550.406811L759.295860,550.336227L759.363271,550.426977L759.373102,550.406811Z M760.373043,548.982314L760.262095,548.951147L760.255073,549.097813L760.373043,548.982314Z M757.987650,548.276482L757.925153,548.215065L757.965179,548.295732L757.987650,548.276482Z M761.346301,546.696152L761.168643,546.668652L761.405286,546.837318L761.346301,546.696152Z M761.751474,546.808901L761.617352,546.496319L761.630694,546.805235L761.751474,546.808901Z M761.111764,546.406486L761.082974,546.207569L761.061205,546.429402L761.111764,546.406486Z M764.559595,546.499985L764.534316,546.389986L764.339103,546.780485L764.559595,546.499985Z M760.712911,545.898653L760.590727,545.904153L760.684823,546.078320L760.712911,545.898653Z M762.754926,545.207488L762.511261,545.060822L762.441742,545.163488L762.754926,545.207488Z M763.599680,544.864655L763.579316,544.776656L763.502073,544.808739L763.599680,544.864655Z M756.105738,543.262325L756.119080,543.078992L755.965999,543.272409L756.105738,543.262325Z M756.887293,543.149576L756.680845,543.142242L756.843756,543.788491L756.887293,543.149576Z M754.745565,542.725160L754.900050,542.068828L754.381120,542.010161L754.745565,542.725160Z M753.693660,541.375829L754.072852,541.947828L754.117793,541.731495L753.693660,541.375829Z M766.657787,545.401821L766.528581,542.549160L764.879801,545.876653L766.657787,545.401821Z M754.362863,541.210830L753.766690,541.009163L753.733686,541.229163L754.362863,541.210830Z M769.152725,539.635083L769.384453,539.159334L769.647780,537.767837L769.152725,539.635083Z M770.163901,533.692345L770.031184,532.590514L769.732044,532.914097L770.163901,533.692345Z M749.143366,530.924017L748.910233,531.127517L749.365263,531.343850L749.143366,530.924017Z M747.611152,529.493104L746.717946,529.626020L747.362571,529.900103L747.611152,529.493104Z M745.817718,529.236438L745.796652,528.990771L745.732751,529.039355L745.817718,529.236438Z M743.970214,528.691022L743.372637,528.951355L743.948446,529.587520L743.970214,528.691022Z M746.380185,529.374854L746.387910,529.057688L745.956755,528.835855L746.380185,529.374854Z M736.151151,516.078631L735.552169,516.232631L736.593541,516.947630L736.151151,516.078631Z M734.423724,512.189223L733.891452,510.667559L734.107030,511.725390L734.423724,512.189223Z M736.983967,514.999717L736.232607,511.227641L735.315526,510.667559L736.983967,514.999717Z M733.909710,509.858144L733.843702,508.892896L733.655511,508.374064L733.909710,509.858144Z M728.146003,496.283255L726.704374,494.437093L727.180470,495.348257L728.146003,496.283255Z M770.010118,499.500749L765.478783,484.882696L765.114338,484.744279L770.010118,499.500749Z M762.331496,468.596312L760.258584,469.141728L760.812624,473.569219L762.331496,468.596312Z M727.083566,467.234149L726.797768,467.030649L727.066713,467.290065L727.083566,467.234149Z M726.610981,466.374317L726.570253,466.423817L726.641878,466.529233L726.610981,466.374317Z M726.177018,465.179903L726.174209,465.062570L726.089242,465.136820L726.177018,465.179903Z M726.590617,464.791237L726.869393,465.137736L726.887650,464.865487L726.590617,464.791237Z M727.200834,464.508904L726.846922,464.492404L726.889054,464.592321L727.200834,464.508904Z M726.608172,464.282488L726.379253,463.919489L726.445260,463.994655L726.608172,464.282488Z M726.147525,462.916657L725.953014,462.950574L726.146823,463.006491L726.147525,462.916657Z M726.895374,461.814826L726.547080,461.732327L726.436132,461.810243L726.895374,461.814826Z M727.311080,462.120992L726.936804,461.505910L727.105334,461.647993L727.311080,462.120992Z M724.408161,456.747503L724.264209,456.544004L724.233312,456.706254L724.408161,456.747503Z M720.489149,455.785005L720.256017,455.375256L720.261635,455.909672L720.489149,455.785005Z M687.135771,445.101277L690.263396,443.214781L686.825396,444.906028L687.135771,445.101277Z M693.361529,441.102786L693.747742,440.861703L692.530819,441.152286L693.361529,441.102786Z M658.702047,427.073231L647.931612,429.008311L653.788010,428.163604L658.702047,427.073231Z M686.495280,413.824819L683.753728,413.825369L641.849306,413.833619L644.852705,425.550417L645.144556,425.736734L645.236545,427.223564L643.667817,429.931392L646.803869,428.953311L648.980708,426.533316L650.490450,426.241816L651.948230,422.918906L653.126532,426.071317L652.003704,427.113565L659.574889,426.393066L663.002356,425.470901L667.361651,427.043898L663.360481,427.456397L668.212724,429.460226L673.765067,433.213052L672.045365,430.087225L674.174453,430.713307L676.613214,429.909392L674.174453,431.944388L678.073101,433.188302L677.186214,434.304800L675.019909,433.282718L680.209211,438.450874L681.394535,440.907536L681.277266,443.052532L682.454866,443.367864L688.565462,442.436533L695.093169,438.110792L700.257191,433.942717L703.451526,433.953717L709.378847,438.128208L714.974726,447.381023L720.711046,454.946257L724.560539,454.946257L727.490143,461.744243L727.035113,464.286155L726.918547,471.319723L724.793672,477.046128L724.914451,480.100455L723.843587,485.274111L727.094099,488.280772L726.467731,482.067618L728.737261,482.406784L729.068702,484.925779L730.595298,482.971449L730.345312,487.357690L726.978235,492.216930L728.481658,495.038425L728.685297,497.715086L732.965243,507.332733L735.776173,508.038565L734.010125,503.785240L736.781732,504.938404L738.754229,504.025406L736.978350,510.636393L737.292236,513.829136L740.403710,515.296716L741.817251,524.245198L749.216395,530.158602L750.087131,533.054346L750.814616,533.131346L753.997013,541.080663L756.894315,543.947074L752.605241,543.159659L754.145179,546.259819L757.187837,545.722654L758.141433,544.799572L761.558367,545.401821L764.054709,543.401658L765.352386,543.962657L767.492710,540.355581L767.010294,539.849582L767.600147,535.067342L769.510147,532.013015L769.848611,529.657187L770.673703,531.529016L771.124519,523.313866L772.300012,510.352226L772.236111,508.192564L769.732044,500.249664L766.935860,492.346180L766.321430,488.933437L760.794367,474.728800L758.259404,463.600489L761.246588,467.993147L762.144007,467.565981L762.197375,476.748212L763.040022,479.019708L762.643978,472.363805L763.523842,470.315976L754.397532,450.704661L752.375620,444.821695L749.973215,435.164911L748.566152,427.086065L747.004446,423.936404L748.242435,420.997577L747.022704,420.487911L747.009395,420.311438L740.572583,418.365610L737.655338,419.979307L737.951950,425.088796L737.603937,426.496243L734.972771,427.736491L734.242196,423.634599L688.752732,420.154206L686.457782,413.900169L686.495280,413.824819Z " data-name="us-fl" data-realname="Florida"/><path d="M747.800046,419.800413L748.171513,415.206089L747.317630,415.981587L747.800046,419.800413Z M751.122006,405.090941L751.585669,401.966119L750.455834,404.556489L751.122006,405.090941Z M753.056857,400.602863L753.062780,398.094969L752.541149,399.500630L753.056857,400.602863Z M719.143223,323.705305L717.837962,323.724005L708.703246,323.856555L707.398407,323.876355L699.568529,323.988004L698.264112,324.006704L696.747347,323.978104L691.017346,323.978104L684.516323,324.013304L678.015301,324.083704L676.156421,324.048504L676.177487,324.177754L678.367527,338.089975L683.181149,370.024560L684.578258,374.668200L686.626733,379.802989L688.322139,385.422328L686.303157,387.169124L684.125335,395.265108L685.607551,399.938448L684.707183,407.709932L686.543311,413.728019L686.495280,413.824819L686.457782,413.900169L688.752732,420.154206L734.242196,423.634599L734.972771,427.736491L737.603937,426.496243L737.951950,425.088796L737.655338,419.979307L740.572583,418.365610L747.009395,420.311438L747.009362,420.310995L746.670196,414.185841L748.338638,408.879269L748.977645,410.633765L749.973373,406.725106L747.140674,405.544442L750.112826,402.057451L752.204984,398.069958L754.587569,396.071628L753.391712,394.300632L756.360639,394.017383L756.246881,392.452636L757.547367,390.613806L757.531939,390.563458L754.145100,389.237670L753.243889,388.083772L752.756839,383.309782L751.421665,379.365740L748.636294,377.235045L747.144388,369.103311L743.141814,365.817068L739.572360,360.633329L739.806616,359.385931L738.402766,357.159536L735.035127,354.473891L734.362273,352.869545L730.891409,349.010203L727.344708,344.421562L723.864575,337.068627L723.586501,335.865780L720.865594,335.391131L719.023146,333.405085L715.534165,331.111040L715.448215,328.933594L719.150385,323.732805L719.143223,323.705305Z " data-name="us-ga" data-realname="Georgia"/><path d="M618.567465,431.538305L618.142631,431.527305L618.108925,431.609805L618.567465,431.538305Z M627.461606,431.483306L626.155503,431.313723L627.343635,431.637305L627.461606,431.483306Z M616.460847,431.021306L615.988965,431.313723L616.118873,431.483306L616.460847,431.021306Z M625.406249,431.390722L621.784271,430.853557L625.237017,431.472306L625.406249,431.390722Z M595.071856,323.713555L595.123258,323.813105L595.651597,324.497853L594.241006,326.777599L592.316400,327.591597L592.474396,329.137644L590.221158,330.818440L590.071588,336.667678L587.217121,337.667026L583.825887,342.703916L585.132833,344.870911L581.603827,346.317958L582.449844,347.809555L579.745368,352.820045L580.869881,358.001034L579.921903,361.561727L581.351875,365.397969L580.280871,366.097018L580.191550,368.448263L580.162479,369.187461L580.478050,373.041303L581.852408,375.283099L580.434232,377.582094L584.620504,383.992881L581.351875,388.721771L581.875159,389.390570L578.953701,393.678361L577.563334,394.283360L576.089544,397.192854L575.546036,400.914146L574.287121,405.409287L572.033462,408.527780L571.822379,413.822069L602.174108,413.824819L604.943468,414.161419L603.350022,418.850159L606.627919,428.618139L608.502225,432.011936L608.544880,431.944388L612.954733,428.352895L620.006285,427.161231L622.030745,428.378562L626.715863,429.058727L627.879418,427.623230L627.895529,427.618040L626.537565,395.902556L626.522818,393.037612L633.293488,326.147300L632.048056,324.673853L631.746388,323.764155L631.577859,323.764155L608.530616,323.732805L601.801236,323.721805L597.315404,323.716855L595.071856,323.713555Z " data-name="us-ms" data-realname="Mississippi"/><path d="M719.143223,323.705305L719.150385,323.732805L715.448215,328.933594L715.534165,331.111040L719.023146,333.405085L720.865594,335.391131L723.586501,335.865780L723.864575,337.068627L727.344708,344.421562L730.891409,349.010203L734.362273,352.869545L735.035127,354.473891L738.402766,357.159536L739.806616,359.385931L739.572360,360.633329L743.141814,365.817068L747.144388,369.103311L748.636294,377.235045L751.421665,379.365740L752.756839,383.309782L753.243889,388.083772L754.145100,389.237670L757.531939,390.563458L757.531918,390.563390L760.175021,387.872979L760.037389,385.464900L759.108371,384.096320L758.590845,381.042909L761.204455,383.241988L762.092044,385.383317L764.771662,384.028487L761.204455,380.081328L761.504999,379.452496L766.369882,380.392994L766.528581,379.283830L772.452390,376.824418L775.115155,375.342171L773.964240,372.058678L776.370700,373.882841L779.993380,370.705681L779.848024,368.760518L780.857796,367.953853L783.474215,368.381019L783.742458,367.328688L786.306914,365.213025L786.238098,361.870866L792.439981,352.899467L796.796467,349.717724L797.056283,349.039392L797.519824,348.887889L778.875530,328.317045L759.500123,327.641097L759.272608,324.712353L756.590041,321.238010L755.160490,322.334708L754.585805,320.285962L736.994281,319.276714L732.119989,319.207964L725.201856,322.038808L719.458373,323.700905L719.143223,323.705305Z " data-name="us-sc" data-realname="South Carolina"/><path d="M589.255063,154.490453L589.031761,154.984352L592.863278,158.076996L593.930069,160.823690L597.901044,165.330931L597.312034,168.729374L594.829595,172.136617L594.082588,175.182511L588.163835,178.382404L583.210755,178.778403L581.761402,180.811199L581.643010,184.272892L583.108795,185.243090L581.312271,193.869272L580.423278,195.926268L576.146001,197.981064L576.461994,202.223755L575.439863,202.525704L575.439020,202.525704L574.108902,207.135245L574.564774,210.859287L576.594289,217.029175L581.535151,221.931864L582.186096,223.411361L587.608530,228.639651L588.196277,233.707340L590.221158,236.350085L593.262271,234.470739L597.845008,236.828584L597.708920,238.393331L594.058152,247.813161L594.345073,251.465154L598.409582,255.756245L605.120423,259.799836L608.548312,263.365479L608.485114,265.997774L609.962274,269.685516L608.552104,271.750212L611.067406,277.593950L612.249640,277.056051L615.103686,278.955747L615.444536,279.117997L614.851313,278.399698L614.873222,276.564902L617.546520,273.629008L623.912719,276.071003L625.153938,276.926801L627.346927,274.862655L626.404427,269.992965L629.536967,268.563518L632.712904,267.967320L633.404718,266.951472L632.017721,264.240527L633.979403,260.783234L634.055241,260.485135L633.651613,260.312435L632.906292,258.415489L634.977097,250.887655L637.449424,249.511558L637.983662,247.759811L640.007701,245.284816L640.670864,243.254771L642.728608,240.586726L642.835625,235.483287L641.768833,232.348293L640.586599,230.938646L641.761250,228.970750L641.791585,226.058506L642.903879,224.601009L643.102322,172.158110L642.126360,170.781265L640.228994,164.103424L638.341787,161.384541L638.227488,155.144374L638.214911,154.940376L607.682913,154.658753L589.260119,154.490453L589.255063,154.490453Z " data-name="us-il" data-realname="Illinois"/><path d="M689.955571,171.465201L686.106820,171.453518L660.667302,171.440318L654.801998,171.436259L651.582712,173.201734L647.056465,174.402021L645.435956,174.130133L643.574150,172.823743L643.102322,172.158110L642.903879,224.601009L641.791585,226.058506L641.761250,228.970750L640.586599,230.938646L641.768833,232.348293L642.835625,235.483287L642.728608,240.586726L640.670864,243.254771L640.007701,245.284816L637.983662,247.759811L637.449424,249.511558L634.977097,250.887655L632.906292,258.415489L633.651613,260.312435L634.055241,260.485135L634.448758,260.427935L636.569700,259.967036L636.405384,257.672441L637.950378,258.797189L640.242799,258.229590L640.755129,260.069336L645.101503,257.436491L650.597669,260.514285L651.553231,258.200990L655.220853,256.239144L656.014205,257.848440L658.240057,258.353339L660.103993,257.738991L661.398720,254.857547L663.608562,252.817051L663.423180,251.940903L668.093130,256.509193L670.825835,254.698047L671.226935,251.578453L675.506319,248.391760L675.914581,246.401314L679.207646,243.997269L678.762729,239.766678L682.168708,239.440528L683.399395,240.503126L688.311606,238.195881L689.842696,237.035383L688.841631,232.938992L689.321940,231.620095L689.654364,231.408895L689.669532,229.576849L690.024708,185.596739L689.988211,180.242526L689.955571,174.639525L689.955571,172.849973L689.955571,171.465201Z " data-name="us-in" data-realname="Indiana"/><path d="M609.126368,289.597125L608.904330,288.697877L608.313213,288.394278L607.758752,289.724175L607.917169,289.919974L609.047580,289.891375L609.126368,289.597125Z M689.654364,231.408895L689.321940,231.620095L688.841631,232.938992L689.842696,237.035383L688.311606,238.195881L683.399395,240.503126L682.168708,239.440528L678.762729,239.766678L679.207646,243.997269L675.914581,246.401314L675.506319,248.391760L671.226935,251.578453L670.825835,254.698047L668.093130,256.509193L663.423180,251.940903L663.608562,252.817051L661.398720,254.857547L660.103993,257.738991L658.240057,258.353339L656.014205,257.848440L655.220853,256.239144L651.553231,258.200990L650.597669,260.514285L645.101503,257.436491L640.755129,260.069336L640.242799,258.229590L637.950378,258.797189L636.405384,257.672441L636.569700,259.967036L634.448758,260.427935L634.055241,260.485135L633.979403,260.783234L632.017721,264.240527L633.404718,266.951472L632.712904,267.967320L629.536967,268.563518L626.404427,269.992965L627.346927,274.862655L625.153938,276.926801L623.912719,276.071003L617.546520,273.629008L614.873222,276.564902L614.851313,278.399698L615.444536,279.117997L615.527537,279.517296L613.673713,288.109378L613.207729,288.366228L610.347364,289.687325L610.254251,289.946924L613.235115,289.947474L634.099059,289.954074L633.678578,285.649783L637.103096,286.002883L637.613319,286.703581L659.822549,286.388982L660.444844,286.245982L679.248515,287.250280L693.022425,287.422980L703.409315,287.802479L709.134260,287.814029L709.604878,287.580279L710.367053,286.890581L718.756026,284.292386L720.997889,281.895491L723.383423,280.889543L723.728909,279.111397L726.085371,277.595050L727.464363,274.966605L731.897530,272.681910L738.011357,267.376071L738.981243,266.524123L738.659352,266.339873L736.148685,265.827824L733.265146,263.151530L730.115331,256.346944L727.381784,252.379802L728.205050,246.817663L728.208842,246.685113L728.035678,246.415064L726.331846,244.068769L724.115684,242.919271L722.880363,239.199079L718.144265,242.206473L715.513099,242.279073L712.642200,240.382676L709.547157,241.915523L704.341283,238.349881L702.798817,238.657330L699.761074,235.784136L698.310457,232.938992L695.825491,231.092646L692.869485,231.862094L690.619617,230.798946L689.654364,231.408895Z " data-name="us-ky" data-realname="Kentucky"/><path d="M808.410953,348.117227L807.103446,349.039392L807.198946,349.270391L808.410953,348.117227Z M810.539339,342.353239L809.886288,343.029738L809.823792,343.981236L810.539339,342.353239Z M818.584513,334.477255L816.905539,335.076754L815.788329,336.020919L818.584513,334.477255Z M832.646187,331.776761L832.169390,331.127762L830.979853,330.665763L832.646187,331.776761Z M830.165294,330.357764L829.266470,330.077264L827.645077,330.407264L830.165294,330.357764Z M839.494802,323.884277L841.284023,322.333280L840.577604,322.102281L839.494802,323.884277Z M849.798972,318.459455L850.712542,316.136626L851.331888,309.677806L850.562973,306.425480L850.860708,312.922800L849.798972,318.459455Z M844.460758,288.818867L844.219025,288.816677L843.988140,288.813927L843.985504,288.813914L843.994538,288.843849L846.950123,300.099576L849.111513,304.705817L850.143053,305.819564L844.460803,288.819099L844.460758,288.818867Z M842.496495,288.801251L841.700353,288.793577L841.696996,288.793557L841.812082,288.981349L843.512123,289.445181L843.499483,288.827349L843.496717,288.810199L843.190574,288.807877L842.909754,288.805196L842.909630,288.805349L842.791659,288.946516L842.581700,288.955682L842.496733,288.801683L842.496495,288.801251Z M744.268433,287.455430L743.456964,288.872227L742.660662,293.386067L741.577018,293.101718L739.692438,294.562515L737.955321,298.035208L736.366931,298.827206L734.950862,297.616109L728.494921,302.015550L727.872205,299.962954L722.720260,302.405499L722.293459,304.726494L716.750105,307.733338L712.738683,310.716532L708.558732,310.951931L703.668008,314.151825L703.071414,316.920519L698.851437,318.535316L698.351326,322.950706L698.264112,324.006704L699.568529,323.988004L707.398407,323.876355L708.703246,323.856555L717.837962,323.724005L719.143223,323.705305L719.458373,323.700905L725.201856,322.038808L732.119989,319.207964L736.994281,319.276714L754.585805,320.285962L755.160490,322.334708L756.590041,321.238010L759.272608,324.712353L759.500123,327.641097L778.875530,328.317045L797.519824,348.887889L797.998643,348.731393L797.764106,349.193392L807.891321,347.310562L808.410953,344.720068L808.944630,347.185896L810.298483,341.579574L813.134693,337.768998L815.420373,335.687253L820.292278,332.852925L821.796403,330.641013L829.706051,329.611599L830.566956,329.981015L831.295845,327.858936L833.229721,329.576765L834.289349,327.730602L835.831394,323.101445L834.054110,325.114441L833.476195,324.332526L830.509375,324.332526L829.614764,325.295024L825.699264,324.170276L823.919874,320.479784L826.373382,323.101445L827.985647,324.002527L831.433478,321.917114L830.273434,319.872035L833.808338,317.619790L832.934794,316.660959L828.858489,315.060462L824.050484,312.364551L823.771006,311.677052L830.754445,313.844048L830.754445,311.985052L833.935438,311.523969L831.999456,312.508467L833.325221,314.899129L834.524588,313.419632L837.551096,315.296045L840.699788,314.090631L843.699612,310.670554L845.654553,310.741137L846.419255,309.463307L846.726119,305.035816L845.050656,302.076822L843.640626,303.664485L842.229192,303.534319L841.392163,309.048974L841.418847,301.892572L840.202626,301.189490L836.631206,302.137322L833.762695,301.810073L829.330371,302.420571L829.714478,294.071588L829.330371,297.093832L831.756493,300.798991L836.549750,299.022495L835.412177,297.667664L838.126905,298.945495L838.312287,297.814331L840.250376,297.869331L840.369751,296.668500L842.290284,297.060832L842.500946,294.781087L845.098406,297.669498L843.111163,291.529677L841.392163,288.843849L841.378163,288.790852L834.206691,288.741877L775.453119,289.013576L752.902617,288.375578L744.385982,287.702379L744.268433,287.455430Z " data-name="us-nc" data-realname="North Carolina"/><path d="M763.918122,194.143172L763.918122,177.609656L763.918122,175.248511L763.918122,166.369644L759.425258,167.843546L749.626008,172.114181L742.816317,177.339741L738.417068,177.014801L729.669371,179.634213L725.938138,176.199137L722.196745,176.577128L713.106150,172.120812L713.099872,172.034386L702.923036,172.403357L698.634735,172.613282L691.148078,172.799881L689.955571,172.849973L689.955571,174.639525L689.988211,180.242526L690.024708,185.596739L689.669532,229.576849L689.654364,231.408895L690.619617,230.798946L692.869485,231.862094L695.825491,231.092646L698.310457,232.938992L699.761074,235.784136L702.798817,238.657330L704.341283,238.349881L709.547157,241.915523L712.642200,240.382676L715.513099,242.279073L718.144265,242.206473L722.880363,239.199079L724.115684,242.919271L726.331846,244.068769L728.035678,246.415064L728.208842,246.685113L728.216847,246.697763L733.039738,245.347516L734.779383,238.424680L737.373894,233.530791L739.460710,233.815690L740.077949,236.436435L742.454214,235.017438L742.763044,229.247399L745.612455,227.401053L746.073383,225.848956L748.381394,224.450859L748.935013,225.444707L753.468033,223.382761L754.683552,221.662915L757.824098,219.208270L762.515536,200.456059L761.396079,197.359015L763.651003,196.578567L763.918122,196.504867L763.918122,194.143172Z " data-name="us-oh" data-realname="Ohio"/><path d="M709.134260,287.814029L703.409315,287.802479L693.022425,287.422980L679.248515,287.250280L660.444844,286.245982L659.822549,286.388982L637.613319,286.703581L637.103096,286.002883L633.678578,285.649783L634.099059,289.954074L613.235115,289.947474L610.254251,289.946924L610.208748,290.072324L609.314278,290.995222L608.863041,290.865422L608.996600,290.081674L609.047580,289.891375L607.917169,289.919974L607.990058,290.009624L608.236533,293.040118L606.734935,293.494417L607.510592,295.448563L605.904507,295.513463L605.227440,300.405703L605.087560,301.176251L605.058068,301.337951L605.117474,304.939344L601.393816,307.127239L601.560239,311.652080L598.254534,315.912371L598.849022,320.373412L594.926078,323.434155L595.071856,323.713555L597.315404,323.716855L601.801236,323.721805L608.530616,323.732805L631.577859,323.764155L631.746388,323.764155L631.635159,323.495755L643.219029,323.592005L656.814720,323.945654L673.128368,323.995704L676.156421,324.048504L678.015301,324.083704L684.516323,324.013304L691.017346,323.978104L696.747347,323.978104L698.264112,324.006704L698.351326,322.950706L698.851437,318.535316L703.071414,316.920519L703.668008,314.151825L708.558732,310.951931L712.738683,310.716532L716.750105,307.733338L722.293459,304.726494L722.720260,302.405499L727.872205,299.962954L728.494921,302.015550L734.950862,297.616109L736.366931,298.827206L737.955321,298.035208L739.692438,294.562515L741.577018,293.101718L742.660662,293.386067L743.456964,288.872227L744.268433,287.455430L742.653078,287.387780L739.338526,287.675979L739.201596,287.738679L711.402666,287.590179L709.604878,287.580279L709.134260,287.814029Z " data-name="us-tn" data-realname="Tennessee"/><path d="M842.909754,288.805196L843.190574,288.807877L843.496717,288.810199L843.496674,288.809933L843.404685,288.214101L842.922972,288.788849L842.909754,288.805196Z M842.513617,276.229059L842.376463,276.741936L842.941114,276.596905L842.513617,276.229059Z M845.299342,273.208121L845.446272,272.333293L845.384895,272.309938L845.299342,273.208121Z M844.382360,274.287762L843.775370,275.490287L843.385916,275.988815L844.382360,274.287762Z M845.940025,271.813448L846.265691,271.310873L845.840358,271.782400L845.940025,271.813448Z M847.361093,269.312203L847.785749,268.675351L846.771291,270.362398L847.361093,269.312203Z M847.800516,267.778934L848.831971,265.702876L848.237952,266.080816L847.800516,267.778934Z M852.414121,258.263457L852.910315,257.440906L852.711270,257.581416L852.414121,258.263457Z M852.670551,255.789048L851.239845,255.931738L848.981452,256.193793L848.002710,256.903771L848.256928,257.031915L845.758479,261.085406L845.054869,263.507235L841.743266,271.532635L841.912228,274.280739L850.014733,260.909973L851.984989,258.697551L852.654844,255.868667L852.670551,255.789048Z M854.983729,255.575276L854.643852,255.621512L854.375951,255.959417L853.000159,258.965188L853.771473,257.954063L854.983729,255.575276Z M738.981243,266.524123L738.011357,267.376071L731.897530,272.681910L727.464363,274.966605L726.085371,277.595050L723.728909,279.111397L723.383423,280.889543L720.997889,281.895491L718.756026,284.292386L710.367053,286.890581L709.604878,287.580279L711.402666,287.590179L739.201596,287.738679L739.338526,287.675979L742.653078,287.387780L744.268433,287.455430L744.385982,287.702379L752.902617,288.375578L775.453119,289.013576L834.206691,288.741877L841.378163,288.790852L841.378119,288.790683L841.167457,288.216851L841.156222,287.907018L841.696920,288.793433L841.696996,288.793557L841.700353,288.793577L842.496495,288.801251L842.473560,288.759516L842.653325,284.980107L843.170148,285.278023L843.985409,288.813599L843.985504,288.813914L843.988140,288.813927L844.219025,288.816677L844.460758,288.818867L844.282442,287.883185L841.846411,280.183217L836.575607,279.569248L836.604522,281.988113L833.711434,280.734116L832.061250,278.034538L830.308853,277.146905L828.331834,274.151546L825.130477,273.253215L824.751286,272.169717L819.934153,271.532635L824.606631,271.379552L829.090217,274.210213L830.375253,273.542881L832.206432,276.727457L835.030879,279.147369L837.268107,277.098623L835.271033,273.421881L833.847920,273.839167L831.463804,271.995867L828.446294,266.596395L833.365471,273.047342L835.507677,272.170634L834.289349,269.855138L837.479454,271.101028L837.705581,268.532391L835.773111,266.904394L837.021633,265.828230L834.535824,264.597149L832.913470,264.807383L829.565128,260.905177L826.467549,255.966783L831.078162,260.221908L833.476195,263.828067L833.665088,263.001236L835.895294,264.511899L837.021633,262.905903L836.319427,259.539910L837.647390,258.306037L831.447766,253.586751L825.459129,251.396788L823.190152,247.831879L820.371511,248.699808L819.032101,245.972823L821.295730,241.358780L822.340819,241.797281L823.569169,236.053281L823.488995,235.812628L823.213354,235.779716L822.990257,235.671350L822.601132,235.088882L822.383223,234.716374L819.464158,232.244893L817.392932,231.930844L815.783897,230.165897L816.737773,228.924550L812.324409,226.306555L811.989457,226.145406L811.956172,226.229556L810.245598,230.355647L802.125008,223.669861L801.367047,223.970160L800.267392,229.640099L795.777768,235.279787L794.585422,235.178587L792.334712,238.442280L790.262221,237.074983L786.659483,244.527468L781.450239,245.346416L780.771065,243.500620L779.178462,242.792221L774.236758,252.496951L772.896949,256.095594L767.902158,263.452929L769.013609,264.656326L767.956087,266.958622L765.087716,268.983718L757.979145,270.571564L756.074341,271.807962L751.326867,272.585660L748.586578,272.359611L745.561475,274.046457L741.421971,272.207261L739.577838,270.212965L739.130813,266.685822L738.981243,266.524123Z " data-name="us-va" data-realname="Virginia"/><path d="M651.303314,91.847456L649.695506,93.996037L647.805759,94.692336L647.097104,96.787865L645.308957,99.228228L645.641695,101.927217L648.097857,101.177866L649.977444,96.874074L650.640379,96.874074L652.410746,92.928378L651.303314,91.847456Z M587.600572,58.338884L589.617317,56.243355L588.222867,57.158491L587.600572,58.338884Z M590.717129,55.089488L590.219293,54.340137L588.865483,55.023173L590.717129,55.089488Z M563.887983,58.600960L562.088540,60.955446L560.758000,74.030569L555.440897,77.015413L552.484469,79.643857L550.586406,82.307502L550.565340,85.456795L552.181959,85.599795L554.289419,89.236938L552.071572,97.176721L552.371554,102.485860L551.659517,103.891108L555.717285,107.267551L558.403223,107.687750L566.667906,113.400588L569.631496,117.593229L571.629412,119.313076L575.920172,120.554423L578.159085,123.266468L578.847107,131.678700L578.747674,132.206149L578.742197,132.236399L578.871965,133.311097L581.571806,136.342141L580.363450,139.091035L580.810896,145.489172L583.641348,150.213662L589.472466,154.009754L589.255063,154.490453L589.260119,154.490453L607.682913,154.658753L638.214911,154.940376L638.108109,153.207999L638.783744,148.227801L637.628052,146.258269L636.637459,142.584461L636.929557,135.767360L639.566058,128.565637L639.593998,122.643777L643.538590,115.999093L642.725796,114.699334L644.051666,108.120964L646.411309,103.359604L644.856840,101.416597L641.435485,101.940480L638.854864,106.171327L634.917892,108.678004L634.087318,107.882233L636.330122,102.477625L641.107827,98.273304L641.697103,96.217563L641.748251,96.070210L639.491158,93.227179L640.329592,89.691787L637.023045,90.217036L638.243198,82.958151L636.812383,81.554004L632.771047,80.131706L632.710798,77.451012L626.347969,75.699816L624.103578,75.752065L619.972501,74.890217L613.417549,72.043423L598.181224,68.134031L596.346781,64.446839L593.552142,63.564091L593.256576,62.636871L592.810074,62.921196L587.016376,60.673144L584.776112,62.344263L585.378088,58.318990L586.193422,57.516588L586.533779,54.605394L581.349677,55.871995L581.075359,56.382615L576.142714,58.192993L569.378743,60.003371L566.437444,60.348205L564.006681,58.822978L563.887983,58.600960Z M588.062848,55.089488L587.958709,54.340137L587.016376,54.645182L588.062848,55.089488Z M583.912518,53.995303L584.296055,53.398475L584.047137,53.093430L583.912518,53.995303Z M592.853254,53.027115L592.746575,51.541677L592.114119,53.332161L592.853254,53.027115Z " data-name="us-wi" data-realname="Wisconsin"/><path d="M779.666776,217.344874L763.932447,217.349824L763.927391,211.073237L763.918122,196.518067L763.918122,196.504867L763.651003,196.578567L761.396079,197.359015L762.515536,200.456059L757.824098,219.208270L754.683552,221.662915L753.468033,223.382761L748.935013,225.444707L748.381394,224.450859L746.073383,225.848956L745.612455,227.401053L742.763044,229.247399L742.454214,235.017438L740.077949,236.436435L739.460710,233.815690L737.373894,233.530791L734.779383,238.424680L733.039738,245.347516L728.216847,246.697763L728.208842,246.685113L728.205050,246.817663L727.381784,252.379802L730.115331,256.346944L733.265146,263.151530L736.148685,265.827824L738.659352,266.339873L738.981243,266.524123L739.130813,266.685822L739.577838,270.212965L741.421971,272.207261L745.561475,274.046457L748.586578,272.359611L751.326867,272.585660L756.074341,271.807962L757.979145,270.571564L765.087716,268.983718L767.956087,266.958622L769.013609,264.656326L767.902158,263.452929L772.896949,256.095594L774.236758,252.496951L779.178462,242.792221L780.771065,243.500620L781.450239,245.346416L786.659483,244.527468L790.262221,237.074983L792.334712,238.442280L794.585422,235.178587L795.777768,235.279787L800.267392,229.640099L801.367047,223.970160L802.125008,223.669861L810.245598,230.355647L811.956172,226.229556L811.989457,226.145406L811.965863,226.134406L810.305426,220.165818L804.227834,217.738123L799.924435,219.541569L799.317729,221.582615L796.042359,221.440165L794.041072,219.234120L790.688179,223.459761L787.960530,223.909660L781.732947,228.875600L781.914116,217.343774L779.666776,217.344874Z " data-name="us-wv" data-realname="West Virginia"/><path d="M845.573119,217.353655L845.575040,219.018481L847.211576,245.760614L857.735304,245.912771L857.715642,245.748688L857.875043,245.745938L858.180503,245.910021L858.186823,245.916438L858.424168,245.908188L858.366304,245.414154L858.203982,242.915057L857.087870,242.134279L858.041966,240.856921L857.727571,238.199939L853.827648,235.229589L853.749583,233.962212L850.713245,225.640729L849.036778,223.178207L850.541906,217.512663L851.803068,215.504250L851.857944,215.432128L849.292603,214.710929L847.064644,215.540878L845.641413,217.353674L845.573119,217.353655Z " data-name="us-de" data-realname="Delaware"/><path d="M822.601132,235.088882L822.990257,235.671350L823.213354,235.779716L823.488995,235.812628L823.631349,235.877277L824.220675,236.473677L824.393294,236.886268L824.195606,237.660623L824.272480,238.046726L826.233239,236.014535L825.004324,234.766798L823.303377,234.357792L822.601132,235.088882Z " data-name="us-dc" data-realname="District of Columbia"/><path d="M855.143462,255.261835L857.410885,249.978179L855.734719,253.792421L854.791657,255.435085L854.643852,255.621512L854.983729,255.575276L855.143462,255.261835Z M858.424168,245.908188L858.186823,245.916438L858.160841,246.606686L857.875043,247.879934L858.422764,245.916438L858.424168,245.908188Z M781.914116,217.343774L781.732947,228.875600L787.960530,223.909660L790.688179,223.459761L794.041072,219.234120L796.042359,221.440165L799.317729,221.582615L799.924435,219.541569L804.227834,217.738123L810.305426,220.165818L811.965863,226.134406L811.989457,226.145406L812.324409,226.306555L816.737773,228.924550L815.783897,230.165897L817.392932,231.930844L819.464158,232.244893L822.383223,234.716374L822.601132,235.088882L823.303377,234.357792L825.004324,234.766798L826.233239,236.014535L824.272480,238.046726L824.303281,238.201423L822.315333,242.264445L820.741690,243.586276L820.665707,247.704442L823.630565,246.477436L824.123514,245.286689L826.011313,249.562438L832.210260,251.657148L833.000802,253.162673L835.863411,254.839279L836.394541,253.005094L835.138316,250.589595L835.482046,249.397999L830.586661,245.982882L830.748040,244.739422L833.792169,248.573272L835.147558,248.166231L833.374597,244.957165L832.405331,238.659203L833.993935,235.582865L832.068441,232.732921L832.405331,231.863967L834.063697,233.857264L835.122868,233.050131L832.199548,228.741507L832.182589,227.634382L834.198765,227.819642L837.021633,226.605977L840.331130,221.208655L842.511505,222.751057L840.897012,225.276500L840.107375,225.222007L837.220801,229.818965L838.177144,233.308052L838.406680,231.795934L840.802310,230.311136L838.516257,234.068913L836.367177,233.458963L836.250611,235.484792L837.957831,234.677068L838.510708,236.341622L840.095188,236.351957L838.571222,237.795535L837.141008,237.187956L837.203041,240.034612L841.724346,243.388384L837.138199,242.057279L838.906354,243.133443L836.940177,246.364687L838.110052,248.384099L841.430784,250.684928L844.529619,247.706684L842.934207,252.629174L844.948134,252.543924L844.594222,254.250754L846.360972,253.634755L844.430608,256.281166L847.902314,256.853165L848.002710,256.903771L848.981452,256.193793L851.239845,255.931738L852.670551,255.789048L852.708914,255.594584L854.995297,251.018594L857.752157,246.051187L857.735304,245.912771L847.211576,245.760614L845.575040,219.018481L845.573119,217.353655L843.649395,217.353124L809.795203,217.348174L807.803186,217.347074L783.905291,217.343774L781.914116,217.343774Z " data-name="us-md" data-realname="Maryland"/><path d="M870.240890,224.557232L870.097640,223.127235L869.768306,224.446315L870.240890,224.557232Z M872.443107,221.145721L873.679529,218.161392L872.297460,220.641171L872.443107,221.145721Z M878.043112,188.754548L869.503074,183.610143L866.085719,181.551498L864.377673,180.521900L864.385257,180.560950L861.863214,182.397946L860.249544,185.672639L856.959850,188.591483L858.188851,191.423427L857.570769,192.195076L856.038837,198.225813L857.946590,199.093711L858.071301,200.847658L863.866186,207.398144L858.775973,210.708260L858.502815,211.016259L857.479701,213.183255L853.817697,214.607752L851.213215,216.747248L850.143053,222.453486L852.846546,225.885479L853.463785,225.850646L857.587841,228.926973L861.128363,230.296470L859.741507,235.050293L860.337680,235.262960L864.334636,230.800635L866.937713,227.081726L865.835952,226.565644L869.305552,225.558230L869.412989,221.054655L872.015365,219.824491L874.244166,214.489502L874.651140,210.759597L876.577597,205.964520L876.942157,202.182646L872.016769,200.712031L872.822522,196.787611L874.500139,194.902858L874.783672,196.325173L878.043101,188.755055L878.043112,188.754548Z " data-name="us-nj" data-realname="New Jersey"/><path d="M875.152819,196.792063L872.864825,198.452858L872.271033,198.929235L875.152819,196.792063Z M876.402045,195.214792L877.490465,191.831382L876.665373,193.532712L876.402045,195.214792Z M906.149640,187.230601L905.060885,186.505379L904.547534,187.308723L906.149640,187.230601Z M909.591395,186.410917L909.215368,187.325518L909.549683,186.860709L909.591395,186.410917Z M906.694508,185.496312L901.613060,188.011002L897.475184,189.334259L887.515157,190.790968L885.171089,190.190933L881.526132,191.549549L880.625019,193.703973L878.017814,193.308241L876.969674,195.108855L876.374613,198.222186L877.484921,198.561768L881.490982,197.946365L889.671339,194.979201L894.615700,194.362229L898.409851,192.877685L898.322809,193.729795L912.940438,187.524873L909.435920,188.438806L906.922095,187.554864L903.066210,190.569135L900.175930,190.624135L905.701589,185.575145L906.694508,185.496312Z M911.470394,182.383428L911.994954,181.964974L910.285763,182.928049L911.470394,182.383428Z M791.660166,142.657407L789.955838,142.020791L790.768632,144.023480L791.660166,142.657407Z M837.755755,121.032342L838.253591,119.997840L837.087740,120.767085L837.755755,121.032342Z M840.684354,113.916827L840.095078,113.916827L839.198465,114.931434L840.684354,113.916827Z M776.985894,159.970579L776.987579,166.022830L852.738188,166.076729L854.883567,168.668874L857.188207,169.287073L858.348532,175.122011L861.145278,178.447304L864.283296,180.074201L864.377673,180.521900L866.085719,181.551498L869.503074,183.610143L878.043112,188.754548L878.056443,188.181223L876.750339,182.155069L877.349321,181.539070L878.409652,184.322064L878.646296,187.789807L877.609137,192.652714L879.931916,192.755939L882.476127,188.624889L882.603751,188.523543L881.221347,186.216038L885.069716,183.842793L884.297851,181.903497L885.338099,165.834180L885.405090,164.790832L884.944162,164.240283L886.184538,159.748993L886.635355,158.121546L889.039848,149.456864L889.115783,149.222751L888.930756,149.211250L889.411034,132.185249L889.305703,130.875152L886.437333,128.882506L887.345706,125.412013L887.038983,117.037180L888.195937,114.118886L888.611784,110.382744L887.777563,102.711910L887.634663,98.331374L886.809454,98.336956L860.844205,98.318329L854.519549,101.504647L847.108232,107.859820L845.708438,111.224470L840.996772,114.977854L835.606930,118.320091L836.549264,119.328067L839.142585,119.221964L839.442303,121.330756L840.801193,120.786979L838.200252,124.109321L838.680308,130.276543L837.321418,131.523251L831.659799,133.413206L829.625273,135.860200L824.959327,137.087013L818.340134,136.781968L814.603821,137.697104L812.175599,135.926514L805.571646,134.613493L800.849820,134.567073L792.533920,136.185140L789.225405,137.626336L789.701840,141.543328L791.622066,141.768797L792.439940,147.491713L787.232978,153.141684L777.179730,159.892471L776.985894,159.970579Z " data-name="us-ny" data-realname="New York"/><path d="M864.283296,180.074201L861.145278,178.447304L858.348532,175.122011L857.188207,169.287073L854.883567,168.668874L852.738188,166.076729L776.987579,166.022830L776.985894,159.970579L774.809927,160.847396L771.350472,162.094103L764.782079,166.086219L763.918122,166.369644L763.918122,175.248511L763.918122,177.609656L763.918122,194.143172L763.918122,196.504867L763.918122,196.518067L763.927391,211.073237L763.932447,217.349824L779.666776,217.344874L781.914116,217.343774L783.905291,217.343774L807.803186,217.347074L809.795203,217.348174L843.649395,217.353124L845.573119,217.353655L845.641413,217.353674L847.064644,215.540878L849.292603,214.710929L851.857944,215.432128L852.423116,214.689335L857.802716,211.382009L858.379929,210.870510L858.775973,210.708260L863.866186,207.398144L858.071301,200.847658L857.946590,199.093711L856.038837,198.225813L857.570769,192.195076L858.188851,191.423427L856.959850,188.591483L860.249544,185.672639L861.863214,182.397946L864.385257,180.560950L864.377673,180.521900L864.283296,180.074201Z " data-name="us-pa" data-realname="Pennsylvania"/><path d="M934.901057,143.851674L934.784483,143.815236L935.002601,143.977090L934.901057,143.851674Z M951.469969,125.684852L951.110440,124.276855L950.840793,124.834187L951.469969,125.684852Z M950.391594,124.129980L950.818322,123.103524L950.975616,122.458192L950.391594,124.129980Z M956.098911,121.431527L955.874205,121.255528L955.919146,121.519527L956.098911,121.431527Z M969.041971,120.551529L969.513853,118.967532L968.749853,119.495531L969.041971,120.551529Z M966.056191,120.117947L966.645342,119.118782L965.348368,118.811699L966.056191,120.117947Z M971.513736,118.380867L971.109265,118.234201L971.064324,118.498200L971.513736,118.380867Z M965.469147,117.852868L964.637735,117.266203L964.120912,118.146201L965.469147,117.852868Z M972.322677,116.884870L973.019266,117.940868L973.041736,117.002203L972.322677,116.884870Z M969.383945,115.917789L967.622813,117.193786L969.237184,117.103953L969.383945,115.917789Z M964.705147,114.215542L964.031029,114.626208L963.873735,115.652873L964.705147,114.215542Z M972.547383,113.482210L972.749618,112.660879L972.187854,113.012878L972.547383,113.482210Z M971.783383,113.658210L971.154207,112.426213L970.839618,113.188878L971.783383,113.658210Z M964.705147,113.511544L964.997265,112.367546L964.165853,113.188878L964.705147,113.511544Z M976.552064,114.011126L974.533222,111.119965L973.859104,111.427965L973.981990,115.552956L974.571141,114.015709L976.552064,114.011126Z M987.467855,110.578216L987.198208,109.375552L986.636444,109.375552L987.467855,110.578216Z M992.478797,107.380890L992.006915,106.882224L991.737268,107.175557L992.478797,107.380890Z M997.482717,100.468320L996.463816,100.076905L997.422327,100.742403L997.482717,100.468320Z M998.613268,101.807568L998.882915,99.431573L997.669504,101.572902L998.613268,101.807568Z M997.624562,99.871572L998.298680,97.876909L996.950445,98.903574L997.624562,99.871572Z M926.746673,91.580672L928.940455,130.826202L928.619828,134.142145L932.629081,141.603652L932.659276,141.510153L933.874092,141.563319L936.314960,136.017497L938.870287,134.621417L942.051280,129.759427L941.343457,127.720764L945.480854,124.083439L947.553766,123.879939L948.243333,127.513598L949.140752,126.876516L948.481380,121.636860L949.625274,123.522440L951.390620,121.971443L952.698127,124.978103L952.882105,123.714023L958.940036,120.772445L960.276334,120.992445L962.745290,114.322792L963.806323,113.484960L962.958761,111.475631L967.169188,108.859470L965.899599,111.905547L965.820250,113.875460L970.642298,115.617123L971.614151,111.233632L972.213835,111.708464L976.151806,110.459050L978.301961,112.274046L983.735631,107.412973L985.443396,108.617470L989.353278,105.988476L990.176966,107.541306L990.412907,105.220311L991.512562,104.980145L992.780746,106.773141L997.596474,102.517983L995.218103,99.599322L996.550889,99.040157L994.487808,95.454164L991.733476,94.969029L989.044694,92.074916L989.742975,90.544040L988.730780,87.326290L989.799158,84.965365L985.732552,84.466684L983.060491,81.747802L984.163864,77.721935L983.286331,51.687147L976.803826,45.875057L970.671798,46.624779L968.867684,47.854136L964.345804,49.094553L962.033808,47.769152L961.525481,43.650339L958.108989,43.471058L945.643387,59.649449L940.555213,71.585625L940.925757,71.780041L940.074532,78.889592L938.304306,80.314529L938.233854,82.285459L933.617889,85.533477L932.866546,86.992175L934.402674,89.233191L931.440109,88.896748L929.819260,92.888667L929.047852,90.956154L927.104616,91.518446L926.746673,91.580672Z " data-name="us-me" data-realname="Maine"/><path d="M667.521098,98.147307L667.119781,97.199013L666.837843,98.187095L667.521098,98.147307Z M669.794381,96.469557L668.699649,94.639285L668.262772,95.236113L669.794381,96.469557Z M672.329283,89.062259L671.432670,88.014495L671.336150,88.133860L672.329283,89.062259Z M677.355907,84.950778L677.876603,81.648330L677.305107,81.005082L675.821758,84.579418L677.355907,84.950778Z M654.801998,171.436259L660.667302,171.440318L686.106820,171.453518L689.955571,171.465201L689.955571,172.849973L691.148078,172.799881L698.634735,172.613282L702.923036,172.403357L713.099872,172.034386L713.078210,171.736190L718.048955,165.641914L717.683197,164.547729L718.958268,159.972048L722.026566,157.830099L725.148204,151.026261L726.209916,150.203965L727.880605,153.379225L730.038764,149.816300L730.167208,141.191863L729.295994,137.259430L727.388468,125.203506L725.567301,121.383807L722.443123,119.387749L716.977082,121.211390L712.661653,127.650500L711.841239,127.119987L709.407937,129.792450L705.907842,128.379957L706.225340,121.191496L710.589028,119.725952L711.561841,115.766993L715.455633,112.690014L715.790911,102.199105L713.624307,99.486854L713.964664,96.721551L715.100036,97.199013L713.093450,90.799692L709.481596,89.718770L705.633524,87.530401L701.864191,86.907047L701.059017,85.043618L699.227690,83.544917L695.255158,83.087349L690.838130,80.308783L689.664659,81.197394L686.705580,80.892348L687.383755,82.086004L684.820913,84.904358L685.072372,87.291670L687.719033,89.519827L684.361177,89.798347L680.838222,91.323574L679.718090,93.319632L679.288833,100.010736L677.231448,103.677912L678.110282,99.380751L675.770958,103.041296L675.471241,98.803817L676.896170,93.558363L674.645746,95.852835L672.468982,99.221597L668.026554,101.330389L667.571897,104.128849L664.699178,105.455133L665.311314,107.776131L664.965876,111.556041L662.230316,117.318746L660.917145,118.426193L660.525988,120.309517L661.813759,124.971406L660.038311,128.472797L665.514512,144.295368L665.567852,150.038179L662.811971,160.270462L660.851106,163.102079L658.021566,168.811733L655.524764,171.039891L654.801998,171.436259Z M696.946786,80.401623L693.809909,80.109840L695.448197,81.674856L696.946786,80.401623Z M678.544618,80.109840L677.663245,79.957318L678.610658,80.580671L678.544618,80.109840Z M711.424682,74.194613L707.429291,75.859099L710.487429,77.337906L712.199377,77.258329L711.424682,74.194613Z M701.907371,70.308600L701.135216,68.392119L700.683099,68.392119L701.907371,70.308600Z M593.256576,62.636871L593.552142,63.564091L596.346781,64.446839L598.181224,68.134031L613.417549,72.043423L619.972501,74.890217L624.103578,75.752065L626.347969,75.699816L632.710798,77.451012L632.771047,80.131706L636.812383,81.554004L638.243198,82.958151L637.023045,90.217036L640.329592,89.691787L639.491158,93.227179L641.748251,96.070210L641.770763,96.005358L642.423538,94.135297L646.142071,88.916368L648.422975,84.685521L650.465120,82.662938L652.301527,77.636320L652.913663,82.510415L654.562111,81.960007L655.684783,79.168179L657.660888,79.459961L659.515075,78.332620L657.444990,83.909645L658.801340,84.632470L659.532855,82.245158L662.898331,80.262363L665.003976,76.933390L667.973214,76.502347L670.746874,77.490429L671.120252,76.455927L675.186763,76.250353L677.190808,73.697256L680.215926,73.756939L686.245843,75.341848L691.191188,79.128390L692.171621,74.924069L694.264566,74.963857L695.821574,76.250353L704.327973,76.568661L705.752903,75.646894L703.908876,74.824598L702.925903,73.286108L699.816966,70.746273L700.599280,69.824506L699.992224,67.901394L701.960392,64.047661L698.596962,64.607624L694.033427,66.369535L687.541234,64.499474L686.377922,59.592223L687.424395,58.192993L684.483096,58.338884L677.602285,60.500727L671.757787,59.943688L667.782716,60.693039L660.147531,64.048538L658.557502,65.905336L655.887981,64.744837L653.299740,64.910623L652.410746,63.577707L648.191836,64.592314L645.402936,63.584338L645.316577,62.450365L641.999361,58.962238L641.227206,57.238068L638.580545,55.805681L631.410177,55.368007L630.782802,54.645182L627.226827,53.789729L625.596159,50.560227L623.879131,49.976662L623.863891,48.040287L620.135198,50.480650L616.716383,53.358687L615.321933,53.245952L610.716946,56.448929L603.874235,57.204911L595.324656,62.006060L593.643188,62.390682L593.256576,62.636871Z M639.530499,43.637023L633.929839,42.469893L629.947148,43.530920L624.387127,48.000498L624.153449,49.943505L627.031248,49.804245L627.516385,53.550998L630.871701,48.729954L633.503122,47.078730L636.573960,44.180799L639.530499,43.637023Z M626.124475,26.978892L623.917231,27.476249L615.446392,31.654044L614.427859,34.498924L615.205093,34.565238L618.474050,32.244241L622.974898,30.566491L626.124475,26.978892Z " data-name="us-mi" data-realname="Michigan"/></g></svg>