<?xml version="1.0" encoding="utf-8"?>
<!DOCTYPE svg PUBLIC "-//W3C//DTD SVG 1.1//EN" "http://www.w3.org/Graphics/SVG/1.1/DTD/svg11.dtd">
<svg xmlns="http://www.w3.org/2000/svg" xmlns:xlink="http://www.w3.org/1999/xlink" enable_background="new 0 0 1000 690" height="690px" pretty_print="False" style="stroke-linejoin: round; stroke:#000; fill: none;" version="1.1" viewBox="0 0 1000 690" width="1000px">
  <defs>
    <style type="text/css"><![CDATA[path { fill-rule: evenodd; }]]></style>
  </defs>
  <metadata>
    <views>
      <view h="690.011227333" padding="0" w="1000">
        <proj id="laea" lat0="22.5" lon0="92.5"/>
        <bbox h="882.94" w="1281.46" x="359.27" y="512.8"/>
      </view>
    </views>
  </metadata>
  <g class="" id="state">
    <path d="M365.974968,227.407510L358.207847,226.280732L353.164745,224.802564L347.657746,228.328011L344.128081,228.737661L341.100936,230.307482L338.757622,226.700238L341.118343,218.841309L338.968259,218.009300L340.392494,215.248817L336.869114,212.402262L332.965722,215.135655L331.332030,218.818517L329.878835,220.006791L325.488809,218.998207L322.095578,222.894621L320.017976,220.587772L313.919931,222.593106L311.931903,220.987444L306.853545,217.852449L302.766465,216.930478L300.628590,216.164518L297.842590,212.882831L295.793729,216.000245L289.116898,216.447940L285.576381,223.693065L280.614321,225.619039L274.370274,225.672697L271.609630,229.603247L265.647681,229.506937L259.169502,224.007161L252.627804,235.063031L248.535825,241.457944L251.402969,243.704308L246.670708,248.100230L247.004444,256.358123L245.927360,262.580859L251.344457,265.632404L250.356602,271.952868L240.982034,278.929994L252.967538,286.977886L261.269990,287.330712L265.749344,289.597134L267.853282,287.838272L273.225650,289.858597L284.512337,287.980038L286.579858,279.870061L292.192494,275.318446L298.082483,276.472352L299.519833,273.956163L305.827849,273.833870L308.573370,275.257804L312.218973,273.118266L312.954458,267.293247L317.469196,262.113318L322.935324,260.560397L321.163436,253.710924L328.485496,255.277953L331.298819,252.197498L331.703194,248.478376L336.331115,245.107223L336.395545,240.224392L335.411010,235.889393L340.676711,232.479879L349.194103,231.777061L358.092310,231.978622L362.257142,230.775105L366.851045,230.322024L365.974968,227.407510Z " data-code="af" data-name="Afghanistan" data-population="28400000.0"/>
    <path d="M193.824525,309.065195L193.199012,305.342318L186.524161,309.897443L178.853145,314.416963L171.561912,319.396098L166.794672,317.680103L160.256224,315.432335L153.583773,315.040482L154.062345,312.277242L152.513651,312.306198L152.163228,314.654789L152.427459,325.487029L175.514606,337.528743L177.684318,335.924711L178.894477,332.060645L182.300178,328.688119L183.350420,324.718559L187.517157,323.815335L186.432900,322.069811L188.759367,315.929522L192.885029,317.022246L193.824525,309.065195Z " data-code="ae" data-name="United Arab Emirates" data-population="4798491.0"/>
    <path d="M168.732451,160.333530L171.712276,153.862251L169.606062,151.100141L168.183846,147.403611L171.436385,145.269517L169.723396,140.624260L172.158926,138.895339L170.631953,136.238281L170.626249,133.252379L161.399918,130.665364L160.695206,134.370188L157.721995,138.533592L161.116411,142.979495L162.186211,146.797314L163.617066,147.146017L164.226225,150.459817L167.031328,151.691499L166.292410,153.100783L166.269506,159.593973L168.732451,160.333530Z " data-code="am" data-name="Armenia" data-population="2967004.0"/>
    <path d="M163.617066,147.146017L162.186211,146.797314L161.411937,150.724093L162.480050,156.426348L166.269506,159.593973L166.292410,153.100783L167.031328,151.691499L164.226225,150.459817L163.617066,147.146017Z M185.333440,140.152895L183.898672,132.737789L182.331456,131.663705L180.086051,132.207145L180.577784,138.504572L179.184601,139.203817L176.121981,137.169770L172.913126,132.456434L170.626249,133.252379L170.631953,136.238281L172.158926,138.895339L169.723396,140.624260L171.436385,145.269517L168.183846,147.403611L169.606062,151.100141L171.712276,153.862251L168.732451,160.333530L179.604522,156.742094L182.343534,157.066820L182.974087,160.569770L178.590545,164.232883L180.442569,170.763202L182.295846,170.957950L184.211628,166.284353L187.604945,165.076093L190.212220,162.275169L194.649731,155.537624L200.320421,156.891320L199.470214,153.621482L196.674232,152.001821L196.528568,144.161887L195.575155,137.966329L195.575153,137.966320L190.019785,140.088177L187.790078,141.964400L185.333440,140.152895Z " data-code="az" data-name="Azerbaijan" data-population="8238672.0"/>
    <path d="M501.539622,384.052450L496.881231,368.795199L494.448362,368.817422L492.974792,374.956237L488.173526,369.937551L490.935654,364.486676L494.866151,363.952698L498.920555,355.825350L493.901267,354.169609L485.825005,354.247662L477.565421,352.809385L476.929209,346.110919L472.812896,345.553675L466.091595,341.231966L462.842855,347.666857L468.957823,352.926160L463.414214,356.363919L461.368779,359.811248L466.681435,362.538878L465.029617,368.294518L467.901220,375.605319L469.096080,383.557834L472.525073,384.493973L475.030298,385.592191L476.358180,383.865015L480.121420,385.876669L482.991216,380.563996L482.235924,376.589046L490.397386,377.058143L494.077292,382.677574L495.757667,387.313111L496.259777,392.212937L498.817145,397.230394L498.239065,389.492754L501.364041,390.949479L501.539622,384.052450Z " data-code="bd" data-name="Bangladesh" data-population="156050883.0"/>
    <path d="M709.184124,539.394176L713.818651,543.859570L715.611889,540.331415L720.166653,540.067491L720.315326,533.836884L720.415664,529.028480L712.715736,535.330809L709.184124,539.394176Z " data-code="bn" data-name="Brunei" data-population="388190.0"/>
    <path d="M493.157225,328.943296L489.453339,326.333615L484.967480,326.052042L478.940721,323.737295L474.306224,326.084564L468.483649,333.093772L468.612363,335.023690L476.318393,338.846340L481.745249,337.436110L488.984874,338.167022L495.994046,337.924766L496.615009,332.023864L493.157225,328.943296Z " data-code="bt" data-name="Bhutan" data-population="691141.0"/>
    <path d="M661.706648,407.067000L663.182313,401.246315L666.626923,396.522934L664.225714,393.080499L659.096097,393.462920L649.658653,397.274398L645.690232,402.121967L646.745008,410.393612L654.415109,412.589258L661.706648,407.067000Z M717.250474,85.790415L711.086915,77.709632L706.582097,72.869666L702.713290,69.718481L695.153020,61.842177L688.870152,60.104776L679.544621,59.973122L672.391106,62.349586L666.178830,65.887635L663.286892,71.607463L667.203041,72.932791L669.181921,77.903797L667.076437,81.647740L665.272881,92.632384L666.729146,96.634547L660.172027,104.449317L651.768425,102.630207L650.904793,110.207353L649.195298,120.347559L651.906886,123.793609L655.152040,121.870287L661.815541,121.957766L665.581566,117.464348L671.552200,119.236512L679.379308,124.304056L679.771563,127.752478L674.410752,127.912508L665.498559,131.258566L661.740376,134.880699L658.710393,142.019594L649.605781,147.615875L644.186932,153.803857L636.823855,153.119033L632.845076,152.909595L630.629219,159.523703L633.593715,162.775119L635.382087,165.690736L631.231067,169.620188L627.268169,175.420318L619.698761,179.915574L609.170906,181.673971L598.203268,186.315196L590.567833,192.281170L586.990243,189.657862L578.287718,190.475249L567.038571,185.600949L559.843426,184.701527L550.432977,186.613232L535.500892,185.211702L527.613492,185.714366L523.201860,180.217821L519.687439,171.586375L515.328183,170.627359L506.802137,164.857108L497.466275,163.564256L489.271758,161.886589L486.880454,157.764681L489.718333,146.808317L485.282946,139.171256L475.984704,135.413994L470.728405,130.253609L469.403845,123.658063L466.836563,124.319422L461.475835,130.314085L455.993179,130.895555L454.901696,140.272759L450.835977,144.291870L437.940660,140.271981L431.150862,156.681046L427.402507,158.472430L413.327236,160.915906L417.343459,177.909046L412.167066,179.887518L412.004168,185.328411L410.711281,187.363602L398.670124,191.268475L395.528235,194.726296L386.081441,194.721506L382.326005,200.410775L374.860112,198.110274L369.510245,199.251588L361.716854,202.693164L362.291906,205.059528L359.789117,206.910159L359.976116,215.963361L362.592949,215.368426L366.714213,218.177573L365.797516,221.833058L365.974968,227.407510L366.851045,230.322024L371.731090,235.509508L372.838335,243.121970L384.996085,248.506599L391.935139,260.610924L390.163003,268.327327L392.746204,273.547521L391.906290,278.409680L386.290384,276.531248L387.275682,287.325503L394.604968,294.182397L405.362777,301.902605L409.000452,299.886431L415.369195,303.347132L423.267070,310.188562L427.861497,311.866736L430.360437,316.649344L436.778659,318.910710L443.395047,323.475031L452.876485,326.093434L462.743443,327.379855L467.988262,325.508742L468.483649,333.093772L474.306224,326.084564L478.940721,323.737295L484.967480,326.052042L489.453339,326.333615L493.157225,328.943296L500.026538,327.760596L507.719641,320.592146L517.358991,314.374607L524.460294,316.608314L530.341797,312.425964L534.469376,318.287346L531.742702,322.399823L540.920257,323.557333L545.842348,322.663084L548.925163,328.206579L552.745913,330.340937L553.346286,337.684717L553.367651,345.629083L545.493140,353.981669L544.863734,365.426893L554.059837,363.476822L556.541289,372.243063L562.216118,373.853490L560.005343,381.965197L566.780166,385.264009L570.727190,386.838085L577.105466,383.676251L577.596399,387.639751L578.526463,389.854321L583.300959,389.832077L581.294917,378.904721L585.793726,377.204277L590.375563,374.538074L597.410344,374.083507L605.884139,372.307523L612.927070,366.545356L617.471014,369.783417L625.649344,370.793037L624.784965,376.477252L629.351364,379.988408L638.482671,381.591029L642.489377,379.577774L654.642631,381.336171L652.966042,385.311134L656.049090,392.047486L660.902370,390.903149L662.744958,380.341086L671.852351,377.677279L683.422617,371.171580L687.662518,365.660626L691.108238,368.353292L695.767135,363.257509L705.304159,360.608660L715.858817,350.462517L725.893099,339.433328L731.421054,326.411660L735.470632,312.399263L739.106620,300.716592L743.414352,298.870219L743.656853,290.791784L742.983635,282.688630L737.601982,280.757532L734.471547,276.060891L738.749992,272.333046L737.074340,265.189416L729.941299,259.041829L723.031651,251.339438L717.636400,242.626047L708.156276,239.162894L710.322330,231.671876L716.299982,225.286386L718.333518,219.368521L727.925053,214.225186L725.276298,209.563528L720.518588,210.459453L713.023609,208.312866L706.725598,216.935716L700.182701,215.442788L698.814894,211.247254L692.435390,210.966673L686.956397,205.369447L689.491438,200.193412L696.405899,198.218826L699.086359,191.151660L705.098510,182.759815L710.131275,177.967292L715.342399,181.957847L711.759952,189.647664L714.347400,192.948975L711.875617,198.226954L718.752665,193.785165L722.559460,188.073976L731.408059,182.758145L734.955220,175.196429L740.643296,168.012335L742.780259,160.029297L747.050415,161.970427L752.929053,160.502473L749.968449,155.937362L758.438261,148.642813L758.817674,142.602035L765.295272,146.605352L765.295435,146.605452L763.235419,141.939251L766.383749,140.538289L762.445559,129.376315L757.246719,122.146494L760.997069,116.996886L769.125815,115.797835L768.776527,105.410057L765.713509,94.749577L766.218113,90.552566L764.854562,81.283725L756.933848,87.786551L753.777000,93.296584L744.941276,96.656942L738.471390,89.084371L728.581015,85.183921L717.250474,85.790415Z " data-code="cn" data-name="China" data-population="1338612970.0"/>
    <path d="M170.721410,116.225780L165.256480,107.932552L157.695173,102.065007L153.866191,97.948114L152.527237,98.621366L152.904545,102.486137L155.429837,105.215883L156.773970,110.277493L154.629740,117.174112L151.522075,120.580590L158.084291,123.360371L161.399918,130.665364L170.626249,133.252379L172.913126,132.456434L176.121981,137.169770L179.184601,139.203817L180.577784,138.504572L180.086051,132.207145L182.331456,131.663705L179.604575,127.819564L179.747071,123.241424L175.204713,118.723652L170.815022,118.409089L170.721410,116.225780Z " data-code="ge" data-name="Georgia" data-population="4615807.0"/>
    <path d="M775.389746,673.269412L775.998862,670.620274L772.691703,668.142435L767.693642,665.863935L758.738510,668.824731L771.366628,673.953733L775.389746,673.269412Z M810.792228,667.533265L817.058656,659.417466L816.909674,656.512325L815.964677,654.749389L806.573876,659.964705L802.428151,666.419366L801.525098,669.807565L802.644626,670.802016L810.792228,667.533265Z M748.559065,656.115567L745.974202,659.780080L740.695531,660.455071L737.358095,666.287504L742.536420,665.788753L749.209052,663.753696L760.321622,660.522749L757.955741,656.757371L752.020828,658.247523L748.559065,656.115567Z M796.408035,649.906583L787.872685,654.618883L781.522368,656.205382L775.546022,654.121771L767.944407,657.087008L767.962588,660.575715L780.671233,660.119566L795.001745,655.450756L796.408035,649.906583Z M658.580676,652.270865L657.231056,649.025791L653.175328,648.606809L645.263608,645.492014L633.384951,645.724307L626.700280,655.096021L635.670024,655.234403L637.377309,659.154595L655.221200,661.803363L659.284011,660.334273L666.449987,660.722889L677.742678,663.411602L686.850517,664.333043L696.934312,664.136730L705.718229,663.061857L716.359113,665.826836L727.404372,661.086912L715.550210,656.686578L701.008360,656.382896L697.458490,650.590576L679.396830,647.662964L677.270142,651.730253L658.580676,652.270865Z M906.676218,612.004566L906.586229,607.233671L904.425404,604.757243L902.597496,608.542642L901.051695,612.472749L902.079035,619.793632L906.676218,612.004566Z M836.613384,598.314760L834.161267,595.499228L824.694511,597.627743L826.677986,601.515072L833.225058,602.184657L836.613384,598.314760Z M866.461934,589.066167L856.127459,588.185904L844.651021,590.769501L842.662840,596.575274L849.130845,595.731304L854.361512,594.092343L862.155708,593.424968L870.143859,595.959671L866.461934,589.066167Z M899.096797,562.557793L897.401445,559.170743L882.459200,558.364977L877.990583,562.628927L865.752531,567.645397L869.956243,571.739803L878.287892,571.847534L882.268544,576.990216L895.684399,574.095625L896.599836,576.574697L890.061288,577.812245L880.353592,583.501746L887.613816,586.905793L887.833642,591.222511L890.069132,594.431889L893.559237,592.807137L896.058643,587.379660L910.176231,593.600564L917.721223,592.747898L935.601377,597.204237L940.177240,604.673937L942.734827,615.134408L937.074883,619.252834L933.269719,628.330210L944.735788,625.435722L946.948051,622.035455L956.096204,621.934799L964.071794,628.403723L963.499778,595.130707L961.747305,561.840490L952.068502,562.434213L945.202993,560.524268L937.303556,558.956154L929.320979,560.975686L919.360980,569.584503L912.364135,582.016375L902.625760,578.157522L899.096797,562.557793Z M815.219183,553.902456L813.435034,552.008528L804.682604,560.728943L793.917041,562.952463L781.965433,563.514733L774.423146,561.793925L766.795266,570.200627L765.016752,574.479886L760.909215,589.720190L759.846533,597.562248L756.112391,604.398146L759.277873,610.592908L763.299319,610.125669L765.013359,619.209927L762.441088,628.413286L766.597133,630.691532L772.638399,628.486565L771.964194,614.769874L770.830961,603.641287L777.079910,599.799220L776.677973,609.311896L783.697209,613.987158L782.554661,617.892452L784.982744,620.223609L794.221465,615.109601L789.806850,623.704425L793.595555,626.556209L798.612275,622.960239L798.555638,616.587750L789.717493,606.700296L791.342468,603.112528L781.902225,592.053202L790.079406,587.022283L793.912556,580.684901L798.092889,581.436996L798.638182,576.829736L781.189048,582.910110L776.268054,588.063380L767.378381,580.702675L768.362100,573.182520L776.559135,570.548928L792.254821,567.589456L801.418043,568.000697L808.354691,564.925342L815.219183,553.902456Z M847.421075,550.630603L846.241562,546.776223L840.722014,547.001520L839.623134,541.754372L836.848491,545.943697L835.585492,554.165377L839.199696,566.207368L843.332273,571.721593L845.861858,570.040694L841.712924,565.581630L842.724540,559.318804L847.567660,559.344770L847.421075,550.630603Z M745.622433,560.916952L747.001680,556.246423L739.469111,548.058174L744.266138,538.577559L735.965964,538.087328L725.084659,539.533915L722.472824,550.921673L718.997635,554.727236L714.790845,568.690587L707.071310,571.637100L697.873143,569.952912L693.302340,571.283887L687.892941,576.701513L681.714262,576.625511L675.562430,579.164974L668.764372,574.383325L666.911900,568.148435L661.411610,575.001967L660.578660,583.929678L662.177169,592.142254L667.055865,599.877607L671.965864,602.096660L673.743238,614.703661L681.772098,615.081987L688.115549,613.966722L691.749174,618.228252L703.187761,613.661471L708.078510,616.212896L714.978419,616.016967L718.926759,621.429393L729.786658,615.898127L731.280746,619.133187L734.609158,604.056208L734.543799,594.472969L743.495736,586.735018L742.699407,578.064100L745.558984,571.069603L756.764775,568.374589L745.622433,560.916952Z M631.090582,645.459454L631.356611,630.890341L633.659906,619.001850L628.812319,613.336420L621.623572,612.953517L618.132033,607.888359L616.359407,601.392648L612.847191,601.356603L607.190017,598.389118L610.950770,590.438314L603.436950,586.527509L597.634228,578.889515L589.318692,572.800486L579.421410,573.100966L570.017478,563.273248L564.590260,559.520058L556.976452,553.329910L548.265667,544.282201L533.264626,542.789053L527.031454,542.511826L527.922991,547.339522L538.144632,557.622385L545.524346,562.770044L550.711572,570.750955L559.580924,576.456711L563.278649,583.729183L566.254723,591.760877L574.949653,599.318813L582.560635,612.221736L587.508284,619.071393L595.013399,626.395616L599.266044,631.891196L611.927070,638.919159L620.238480,646.303926L631.090582,645.459454Z " data-code="id" data-name="Indonesia" data-population="240271522.0"/>
    <path d="M405.362777,301.902605L394.604968,294.182397L387.275682,287.325503L386.290384,276.531248L391.906290,278.409680L392.746204,273.547521L390.163003,268.327327L391.935139,260.610924L384.996085,248.506599L376.324207,255.650753L367.386622,255.984928L355.933964,252.058464L351.408850,255.628458L352.769402,264.397073L354.463247,271.250084L360.167795,276.836183L352.471350,281.467408L351.536301,288.316732L342.141950,296.854407L335.459643,305.867374L325.197064,314.670847L315.709675,312.444656L304.820493,321.041617L309.533889,326.264007L309.256939,333.835787L313.215983,339.468547L313.622104,348.009108L294.898960,345.000573L288.152754,350.486231L296.854125,360.360476L298.811726,364.560397L294.121872,367.392334L303.761865,380.880176L309.778334,382.946904L323.300706,378.942664L323.870989,388.217780L322.429776,399.918740L323.688150,412.629536L325.451341,431.819490L332.492386,446.054941L333.545315,452.262045L334.820464,464.578908L339.034052,474.361603L341.968624,479.251422L344.888405,489.316187L348.395806,503.195170L356.861588,512.960162L360.820502,510.525130L364.364673,504.264141L373.148948,502.233306L370.432266,498.844782L375.126033,491.859843L380.035321,491.765534L380.961286,475.451118L385.442449,466.616638L385.413008,458.603446L384.256115,445.942206L387.489086,438.813106L391.816698,438.626864L400.303927,435.765055L405.017698,433.698323L405.281581,429.273500L414.737454,423.543215L421.901168,417.865973L432.591336,407.070618L445.849308,401.164240L450.855532,395.653230L450.594891,388.398332L461.667284,386.759363L467.737621,387.039492L469.096080,383.557834L467.901220,375.605319L465.029617,368.294518L466.681435,362.538878L461.368779,359.811248L463.414214,356.363919L468.957823,352.926160L462.842855,347.666857L466.091595,341.231966L472.812896,345.553675L476.929209,346.110919L477.565421,352.809385L485.825005,354.247662L493.901267,354.169609L498.920555,355.825350L494.866151,363.952698L490.935654,364.486676L488.173526,369.937551L492.974792,374.956237L494.448362,368.817422L496.881231,368.795199L501.539622,384.052450L505.927725,381.758907L504.970671,377.679001L506.958487,374.395016L507.245681,364.441246L514.132332,366.575286L517.939148,358.598405L518.310370,353.907215L522.957016,345.764669L522.586380,340.268970L533.522852,333.374133L539.692232,334.928245L538.782753,329.038708L541.699516,327.176439L540.920257,323.557333L531.742702,322.399823L534.469376,318.287346L530.341797,312.425964L524.460294,316.608314L517.358991,314.374607L507.719641,320.592146L500.026538,327.760596L493.157225,328.943296L496.615009,332.023864L495.994046,337.924766L488.984874,338.167022L481.745249,337.436110L476.318393,338.846340L468.612363,335.023690L468.483649,333.093772L467.988262,325.508742L462.743443,327.379855L461.942974,331.497590L462.864233,337.638422L461.753820,341.412436L454.580698,341.330683L444.341390,338.666300L437.763616,337.432955L433.114481,332.282374L421.521476,330.335879L410.875573,324.172339L403.338112,318.835729L395.562501,314.504985L399.687412,305.808619L405.362777,301.902605Z " data-code="in" data-name="India" data-population="1166079220.0"/>
    <path d="M162.480050,156.426348L161.411937,150.724093L162.186211,146.797314L156.548940,147.429872L153.132735,158.918458L150.447829,161.212105L150.323176,170.248931L150.323163,170.249074L149.317090,183.260841L152.414379,187.951636L150.457724,193.652711L145.594702,195.459618L140.748921,202.147535L141.644006,213.138676L148.085810,221.803148L148.856383,230.466200L144.976961,236.931098L147.286561,237.808718L145.411677,242.934319L147.575545,249.484919L151.699484,246.748763L155.219551,251.621186L159.759416,251.480590L160.816581,266.204034L162.859272,277.049872L169.379258,282.195713L174.941228,292.071004L183.597225,298.152874L192.890171,295.771046L199.444950,295.753524L202.764894,298.510946L203.009035,311.290336L211.795394,314.920980L220.104556,319.361258L234.832639,325.929177L240.478252,315.400576L253.379804,313.031342L253.701614,308.442440L250.175744,306.024148L251.936079,297.488368L245.312582,291.496724L243.575215,284.929981L240.982034,278.929994L250.356602,271.952868L251.344457,265.632404L245.927360,262.580859L247.004444,256.358123L246.670708,248.100230L251.402969,243.704308L248.535825,241.457944L252.627804,235.063031L259.169502,224.007161L260.947879,215.868336L255.640852,214.101210L250.138019,203.484056L244.812900,200.833986L238.698599,193.759445L234.051199,191.373318L230.353202,192.167887L225.809950,190.418377L218.843043,194.183201L212.042061,193.974261L210.528000,195.948188L198.718878,194.698429L189.602684,189.544915L186.864770,183.074060L181.334072,178.663780L182.295846,170.957950L180.442569,170.763202L178.590545,164.232883L182.974087,160.569770L182.343534,157.066820L179.604522,156.742094L168.732451,160.333530L166.269506,159.593973L162.480050,156.426348Z " data-code="ir" data-name="Iran" data-population="66429284.0"/>
    <path d="M145.328197,167.011564L138.460435,162.324001L134.986268,162.453837L128.755686,166.664905L124.079291,167.250553L121.235001,174.354386L113.155231,184.477320L93.814570,187.042449L90.832432,199.892968L97.697907,206.418396L104.848757,217.841368L116.706640,245.723704L129.934634,251.889022L138.794691,244.733456L143.397381,247.394111L147.575545,249.484919L145.411677,242.934319L147.286561,237.808718L144.976961,236.931098L148.856383,230.466200L148.085810,221.803148L141.644006,213.138676L140.748921,202.147535L145.594702,195.459618L150.457724,193.652711L152.414379,187.951636L149.317090,183.260841L150.323341,170.249066L150.323163,170.249074L146.441945,170.417610L145.328197,167.011564Z " data-code="iq" data-name="Iraq" data-population="31129225.0"/>
    <path d="M824.130314,213.982001L818.136871,213.817780L816.746362,218.836009L812.269255,219.155593L810.392387,226.177241L811.972316,230.706274L817.693642,231.811926L817.563148,225.586201L820.415405,222.089589L824.514952,224.091889L826.312271,216.899513L824.130314,213.982001Z M854.668714,168.313474L849.795888,158.793584L850.840723,146.763978L847.068749,139.241210L836.883904,128.201055L831.332379,132.944084L831.772228,139.920025L838.153199,149.753843L839.770895,162.846706L837.819188,168.063343L832.446659,181.458696L825.990060,178.804380L826.103271,198.260927L817.920887,199.119355L805.141160,206.920532L802.394867,215.160529L796.965049,222.445238L795.262608,229.634812L789.332038,234.723540L794.521336,240.335007L800.142053,241.651793L801.176367,250.828670L806.026648,253.422800L809.519697,247.871123L808.782020,230.060521L798.920084,225.485556L807.310131,222.508673L814.098038,215.131572L825.548257,208.606863L828.664056,215.571678L834.863711,217.442982L840.381971,202.795744L852.186715,197.296354L858.821086,189.171417L859.198291,181.029850L855.818951,176.861169L854.668714,168.313474Z M837.030828,95.519844L830.891859,94.824817L818.679414,89.012222L821.194715,96.781950L826.759530,109.996424L820.785552,113.540410L821.681969,121.884322L827.374532,130.528233L834.039236,127.206324L831.760927,115.720415L844.538646,117.224634L844.336183,105.640131L851.227609,98.606134L843.683665,89.343245L842.140280,95.276421L837.030828,95.519844Z " data-code="jp" data-name="Japan" data-population="127078679.0"/>
    <path d="M377.854390,57.597925L368.673320,53.559685L362.514444,56.190470L347.689111,56.184568L344.183468,57.712869L322.625803,55.100752L318.813893,57.387698L320.106224,64.702982L313.805426,65.428996L313.782534,68.186392L306.529082,70.897438L313.046244,79.866489L309.842700,83.717484L301.942279,80.880893L299.119938,83.033141L293.919353,76.032859L284.946250,73.191911L277.196673,74.852519L272.439130,68.832046L263.768603,58.037207L255.377562,54.801403L238.933748,59.496198L234.496950,65.590707L232.067352,57.999107L222.008256,65.590279L222.494473,68.119378L215.385146,73.294580L216.523758,81.464794L220.795626,83.101065L221.062912,90.640714L217.961287,94.980988L220.102172,97.698651L226.505770,98.113179L235.285050,96.936383L239.129199,101.112094L245.238265,102.957347L243.584985,108.947145L238.275652,117.389041L233.637571,114.019372L227.796949,113.487005L224.300975,120.028753L218.834745,116.805498L217.559475,119.843954L219.789621,123.493879L218.637239,132.782177L224.462893,138.670900L224.223319,142.320337L220.932287,145.575135L220.287662,147.954606L224.486127,145.928990L232.616619,146.625605L235.882673,150.731444L237.461222,159.540933L241.033939,160.207780L254.964427,126.139722L273.319073,125.968060L274.167760,127.128870L281.423009,136.671292L285.395765,141.673991L288.662994,151.745664L296.882990,152.437221L308.523370,154.553493L314.492239,163.251057L311.223231,172.517818L314.562371,173.334867L313.805540,181.330314L322.634247,183.523378L323.401096,188.374612L326.056130,188.844839L330.857246,182.721505L341.728076,177.933587L346.149943,176.929868L348.685594,173.094193L353.564934,172.575952L364.328310,177.721608L366.583784,172.340385L370.931960,171.007639L380.090472,176.421464L382.830303,175.737801L394.428090,177.509314L404.739128,179.714825L407.803589,183.491001L412.004168,185.328411L412.167066,179.887518L417.343459,177.909046L413.327236,160.915906L427.402507,158.472430L431.150862,156.681046L437.940660,140.271981L450.835977,144.291870L454.901696,140.272759L455.993179,130.895555L461.475835,130.314085L466.836563,124.319422L463.827296,118.445874L455.519860,119.246059L453.178021,115.118219L448.946640,113.012106L446.512279,107.413639L443.277390,105.474457L434.060584,107.091988L426.347522,100.901565L422.296780,105.403510L413.101297,80.308640L407.218874,72.185120L409.935462,69.615666L393.570979,76.034745L387.913910,75.613141L389.694313,70.709495L383.281327,66.278927L376.769598,67.355432L377.854390,57.597925Z " data-code="kz" data-name="Kazakhstan" data-population="15399437.0"/>
    <path d="M412.004168,185.328411L407.803589,183.491001L404.739128,179.714825L394.428090,177.509314L382.830303,175.737801L380.090472,176.421464L370.931960,171.007639L366.583784,172.340385L364.328310,177.721608L353.564934,172.575952L348.685594,173.094193L346.149943,176.929868L348.007566,178.227634L340.672201,183.253172L345.059425,187.741582L350.645811,186.272589L358.027442,192.641530L347.367716,197.922756L342.096553,196.041729L338.795512,198.485789L331.342370,195.459825L329.350381,200.773375L337.363889,201.489801L345.667924,206.126764L359.789117,206.910159L362.291906,205.059528L361.716854,202.693164L369.510245,199.251588L374.860112,198.110274L382.326005,200.410775L386.081441,194.721506L395.528235,194.726296L398.670124,191.268475L410.711281,187.363602L412.004168,185.328411Z " data-code="kg" data-name="Kyrgyzstan" data-population="5431747.0"/>
    <path d="M638.604248,453.048105L630.158604,450.234590L626.420472,457.228317L618.525737,454.073132L609.751734,453.348483L597.848581,456.007494L592.275362,464.367439L595.027601,475.830130L600.236346,485.449631L604.301662,490.204095L612.275206,491.073818L620.241804,486.616748L630.082784,485.145986L625.619206,479.656451L640.881237,470.916815L641.218262,459.273711L638.604248,453.048105Z " data-code="kh" data-name="Cambodia" data-population="14494293.0"/>
    <path d="M751.701914,199.486039L759.314906,206.146693L754.535158,209.261438L760.967991,218.200903L761.919267,225.691735L764.388952,230.631612L770.753954,227.932363L775.285151,222.282414L781.219721,218.472172L782.096166,212.428542L778.113741,201.574557L774.134197,196.025503L764.039631,186.835122L763.877408,189.412835L761.142584,190.939457L756.372626,192.878109L755.119685,197.928006L751.853571,198.505203L751.701914,199.486039Z " data-code="kr" data-name="Korea" data-population="48508972.0"/>
    <path d="M143.397381,247.394111L138.794691,244.733456L129.934634,251.889022L136.137215,255.324108L136.301819,260.605007L141.654874,262.295520L141.891211,254.153329L143.355428,252.204355L143.397381,247.394111Z " data-code="kw" data-name="Kuwait" data-population="2691158.0"/>
    <path d="M638.604248,453.048105L639.554553,443.259360L636.713454,436.668442L629.272293,430.595548L622.882402,422.609483L614.494057,411.856464L603.265169,406.937235L605.607874,403.280582L611.165557,400.305680L607.063266,392.182160L596.062213,392.930045L591.473332,384.460262L585.793726,377.204277L581.294917,378.904721L583.300959,389.832077L578.526463,389.854321L577.596399,387.639751L570.320362,394.314667L568.579701,397.955429L572.617414,400.725316L573.420671,406.480083L579.548218,406.585422L577.837955,416.848832L578.475064,425.460678L587.795636,419.162851L590.617298,420.689157L595.934783,420.062341L597.562297,416.588391L604.471381,416.760152L611.915483,424.055521L613.126357,433.515107L621.127082,441.313696L621.260540,449.495535L618.525737,454.073132L626.420472,457.228317L630.158604,450.234590L638.604248,453.048105Z " data-code="la" data-name="Lao PDR" data-population="6834942.0"/>
    <path d="M391.246862,532.494624L395.369294,530.023860L397.174454,520.158115L392.950760,509.906358L388.816186,502.868050L382.516510,497.082629L377.474193,512.333312L378.558320,526.218161L382.815596,534.136404L391.246862,532.494624Z " data-code="lk" data-name="Sri Lanka" data-population="21324791.0"/>
    <path d="M577.596399,387.639751L577.105466,383.676251L570.727190,386.838085L566.780166,385.264009L560.005343,381.965197L562.216118,373.853490L556.541289,372.243063L554.059837,363.476822L544.863734,365.426893L545.493140,353.981669L553.367651,345.629083L553.346286,337.684717L552.745913,330.340937L548.925163,328.206579L545.842348,322.663084L540.920257,323.557333L541.699516,327.176439L538.782753,329.038708L539.692232,334.928245L533.522852,333.374133L522.586380,340.268970L522.957016,345.764669L518.310370,353.907215L517.939148,358.598405L514.132332,366.575286L507.245681,364.441246L506.958487,374.395016L504.970671,377.679001L505.927725,381.758907L501.539622,384.052450L501.364041,390.949479L498.239065,389.492754L498.817145,397.230394L505.231903,405.064284L510.532985,406.266740L509.447782,409.740073L516.680209,420.756766L518.691158,429.729970L515.632724,441.670238L521.394756,443.850323L526.605323,444.621908L536.991691,437.550828L542.948562,432.567617L547.147269,440.402188L549.149227,452.479958L552.498159,463.865085L556.438973,468.701360L555.960197,479.173629L559.285991,484.728542L556.566153,492.169375L557.655954,499.241479L562.000412,489.235844L566.926104,480.094462L562.974954,471.501296L562.982213,467.039047L561.742606,461.725665L555.286127,454.337204L552.924162,449.599797L556.075890,447.708982L559.189791,439.226710L555.202743,433.030871L549.154682,426.222462L544.490586,417.931063L548.282470,416.059281L552.075690,405.514813L558.439248,404.830859L563.529802,400.427671L568.579701,397.955429L570.320362,394.314667L577.596399,387.639751Z " data-code="mm" data-name="Myanmar" data-population="48137741.0"/>
    <path d="M561.333077,110.339897L559.276950,103.474443L551.759017,101.660709L546.070156,100.962512L538.867033,97.541700L533.221792,107.507157L536.155555,112.868862L530.426415,119.647585L521.092715,117.621420L514.732595,117.440233L510.389730,113.152562L503.809445,113.079256L498.337185,110.224748L488.703573,114.527414L476.266381,122.284330L469.403845,123.658063L470.728405,130.253609L475.984704,135.413994L485.282946,139.171256L489.718333,146.808317L486.880454,157.764681L489.271758,161.886589L497.466275,163.564256L506.802137,164.857108L515.328183,170.627359L519.687439,171.586375L523.201860,180.217821L527.613492,185.714366L535.500892,185.211702L550.432977,186.613232L559.843426,184.701527L567.038571,185.600949L578.287718,190.475249L586.990243,189.657862L590.567833,192.281170L598.203268,186.315196L609.170906,181.673971L619.698761,179.915574L627.268169,175.420318L631.231067,169.620188L635.382087,165.690736L633.593715,162.775119L630.629219,159.523703L632.845076,152.909595L636.823855,153.119033L644.186932,153.803857L649.605781,147.615875L658.710393,142.019594L661.740376,134.880699L665.498559,131.258566L674.410752,127.912508L679.771563,127.752478L679.379308,124.304056L671.552200,119.236512L665.581566,117.464348L661.815541,121.957766L655.152040,121.870287L651.906886,123.793609L649.195298,120.347559L650.904793,110.207353L651.768425,102.630207L644.728217,104.949848L640.632404,102.524565L636.697101,102.261875L629.455884,110.466033L621.642228,113.437198L616.416249,116.683279L608.148736,116.399552L602.318727,117.342088L597.556410,113.123272L590.590346,109.466580L584.133790,109.008308L576.438932,111.107773L570.768336,113.436720L561.333077,110.339897Z " data-code="mn" data-name="Mongolia" data-population="3041142.0"/>
    <path d="M582.729186,533.856546L574.767881,530.035225L573.138003,531.807843L575.361244,535.759653L574.469864,542.742771L578.076110,547.784473L579.590832,555.605300L585.338977,561.709000L586.582438,566.495998L598.248830,573.457421L607.613378,579.981077L614.496007,578.939560L614.601124,575.717285L610.561977,567.544755L607.075151,565.126849L606.212836,559.537402L605.177956,556.319350L606.080073,551.926045L605.328554,545.540335L601.082777,539.391346L595.216965,533.949926L592.977663,533.178012L589.948579,537.262998L583.619715,538.717128L582.729186,533.856546Z M750.968546,534.277978L748.933168,529.792294L755.198632,528.373461L755.563307,524.471435L747.506350,522.725582L741.110041,520.925327L740.341533,516.775951L735.123306,512.566485L731.334488,513.133600L727.190152,521.347389L720.415664,529.028480L720.315326,533.836884L720.166653,540.067491L715.611889,540.331415L713.818651,543.859570L709.184124,539.394176L704.872401,546.034722L698.438572,554.418001L687.063963,557.731287L683.053313,559.959506L681.474110,568.258409L674.104958,570.766201L666.911900,568.148435L668.764372,574.383325L675.562430,579.164974L681.714262,576.625511L687.892941,576.701513L693.302340,571.283887L697.873143,569.952912L707.071310,571.637100L714.790845,568.690587L718.997635,554.727236L722.472824,550.921673L725.084659,539.533915L735.965964,538.087328L744.266138,538.577559L750.968546,534.277978Z " data-code="my" data-name="Malaysia" data-population="25715819.0"/>
    <path d="M462.743443,327.379855L452.876485,326.093434L443.395047,323.475031L436.778659,318.910710L430.360437,316.649344L427.861497,311.866736L423.267070,310.188562L415.369195,303.347132L409.000452,299.886431L405.362777,301.902605L399.687412,305.808619L395.562501,314.504985L403.338112,318.835729L410.875573,324.172339L421.521476,330.335879L433.114481,332.282374L437.763616,337.432955L444.341390,338.666300L454.580698,341.330683L461.753820,341.412436L462.864233,337.638422L461.942974,331.497590L462.743443,327.379855Z " data-code="np" data-name="Nepal" data-population="28563377.0"/>
    <path d="M204.374965,359.280260L208.591746,357.010972L210.524550,354.597378L214.835688,349.520505L215.326436,347.355684L212.611588,345.414924L211.095388,341.647004L208.646181,335.162418L204.190482,332.170181L198.485588,329.356349L194.811207,324.630677L192.885029,317.022246L188.759367,315.929522L186.432900,322.069811L187.517157,323.815335L183.350420,324.718559L182.300178,328.688119L178.894477,332.060645L177.684318,335.924711L179.735960,343.859841L169.551576,361.912273L142.239253,364.700637L145.002786,382.821448L146.252386,390.473180L150.295126,390.986604L156.688655,389.194958L161.193238,391.363741L165.890618,389.708706L166.680789,385.730413L170.534573,384.120160L175.817287,385.548965L178.197051,383.970618L180.026106,379.406525L186.105430,377.072797L190.013215,378.065827L191.065307,377.059968L191.396837,370.272102L193.817689,365.654940L196.075244,363.758743L199.794427,365.201555L204.374965,359.280260Z M195.340584,307.595941L197.175156,303.804227L196.419237,302.691962L193.199012,305.342318L193.824525,309.065195L195.340584,307.595941Z " data-code="om" data-name="Oman" data-population="3418085.0"/>
    <path d="M384.996085,248.506599L372.838335,243.121970L371.731090,235.509508L366.851045,230.322024L362.257142,230.775105L358.092310,231.978622L349.194103,231.777061L340.676711,232.479879L335.411010,235.889393L336.395545,240.224392L336.331115,245.107223L331.703194,248.478376L331.298819,252.197498L328.485496,255.277953L321.163436,253.710924L322.935324,260.560397L317.469196,262.113318L312.954458,267.293247L312.218973,273.118266L308.573370,275.257804L305.827849,273.833870L299.519833,273.956163L298.082483,276.472352L292.192494,275.318446L286.579858,279.870061L284.512337,287.980038L273.225650,289.858597L267.853282,287.838272L265.749344,289.597134L261.269990,287.330712L252.967538,286.977886L240.982034,278.929994L243.575215,284.929981L245.312582,291.496724L251.936079,297.488368L250.175744,306.024148L253.701614,308.442440L253.379804,313.031342L240.478252,315.400576L234.832639,325.929177L246.748843,327.157474L260.252822,329.806318L275.958730,331.000427L281.065650,339.555679L282.345714,346.954231L288.152754,350.486231L294.898960,345.000573L313.622104,348.009108L313.215983,339.468547L309.256939,333.835787L309.533889,326.264007L304.820493,321.041617L315.709675,312.444656L325.197064,314.670847L335.459643,305.867374L342.141950,296.854407L351.536301,288.316732L352.471350,281.467408L360.167795,276.836183L354.463247,271.250084L352.769402,264.397073L351.408850,255.628458L355.933964,252.058464L367.386622,255.984928L376.324207,255.650753L384.996085,248.506599Z " data-code="pk" data-name="Pakistan" data-population="176242949.0"/>
    <path d="M818.951768,483.238725L817.858082,479.755970L816.458011,474.965495L808.515133,471.819055L810.028415,479.298250L803.637394,480.840804L802.681276,485.505456L796.047475,489.519728L792.301569,485.699376L787.726441,490.308806L782.238139,494.101548L779.475927,502.963019L781.293195,505.552381L787.564802,498.896030L791.936482,498.485479L794.380185,493.897142L800.704268,497.434087L798.404927,502.614640L801.728711,509.217179L813.145457,512.852888L815.303802,507.743246L811.595197,501.085226L815.311807,495.261224L819.775831,504.606747L821.871631,494.983789L820.679513,489.578624L818.951768,483.238725Z M794.904020,469.319804L794.531212,459.811730L789.066540,470.559086L789.679177,463.694114L784.756680,465.224338L784.521041,471.479258L782.570368,474.640979L781.003562,477.600786L787.428144,483.318877L789.955083,479.889004L792.051085,473.167127L794.904020,469.319804Z M745.796845,487.491092L749.946920,480.045598L755.425850,473.697958L752.883016,466.035591L749.168225,476.485186L744.345156,484.084977L738.252881,491.103122L734.329639,498.558854L745.796845,487.491092Z M773.835913,457.162228L775.840012,461.548677L775.824395,466.646476L776.704312,471.123620L782.120298,467.126442L785.786409,462.183301L785.420235,458.066233L779.666456,459.173802L773.835913,457.162228Z M806.030715,448.084739L803.023867,444.945017L794.402991,446.500817L800.963796,452.860783L801.607439,456.547038L796.202817,456.837012L798.426349,462.483807L801.212273,462.446754L802.510509,469.263920L806.516845,466.197303L803.484128,460.596924L802.837772,457.345174L810.139333,458.509544L806.030715,448.084739Z M769.086130,446.264353L765.479188,443.327345L757.709687,444.357876L763.300065,450.960518L767.810244,455.127624L769.086130,446.264353Z M759.183902,393.663592L753.893354,394.672700L752.457211,404.023995L753.867521,419.413838L749.814093,416.860130L751.495847,426.114794L753.432576,430.114419L758.641513,434.914818L759.304076,431.194707L762.296976,432.958618L759.845770,435.947943L759.945790,440.056835L764.718586,441.398071L772.670489,438.437867L779.214567,443.189596L781.003211,439.156372L785.056523,443.640932L792.736329,447.050047L793.005510,442.352064L789.741525,440.591804L789.790017,435.095671L777.839894,431.901132L774.063435,433.822366L769.168129,433.650375L766.029802,426.262468L766.238729,418.137878L770.944723,413.893030L771.939380,405.329580L767.776068,398.944630L768.505196,394.620685L767.284137,392.306727L765.033266,395.381550L759.183902,393.663592Z " data-code="ph" data-name="Philippines" data-population="97976603.0"/>
    <path d="M765.295435,146.605452L765.295272,146.605352L758.817674,142.602035L758.438261,148.642813L749.968449,155.937362L752.929053,160.502473L747.050415,161.970427L742.780259,160.029297L740.643296,168.012335L734.955220,175.196429L731.408059,182.758145L735.529475,184.371687L739.926953,184.260015L740.909072,185.663812L740.864409,191.224194L742.068149,192.766654L740.779009,194.331449L740.212465,199.005134L742.613561,199.985258L744.737380,200.340325L745.573786,202.043888L747.397294,200.680988L747.659536,198.670670L751.701914,199.486039L751.853571,198.505203L755.119685,197.928006L756.372626,192.878109L761.142584,190.939457L763.877408,189.412835L764.039631,186.835122L758.615266,183.933582L755.316267,183.247317L755.741223,181.969020L754.463014,177.853960L756.479489,174.432002L760.399619,171.475685L761.861008,167.905804L762.401401,165.877415L765.019269,162.686598L762.053805,156.107943L762.702409,152.299369L764.200750,148.204735L766.890951,147.904018L766.891032,147.904009L766.891058,147.904006L766.891029,147.903983L765.295435,146.605452Z " data-code="kp" data-name="Dem. Rep. Korea" data-population="22665345.0"/>
    <path d="M152.103041,308.111683L155.517226,302.935581L157.098517,297.206073L155.675032,293.402742L153.226944,293.753248L149.549478,298.157900L147.909087,305.403200L149.710740,308.103492L152.103041,308.111683Z " data-code="qa" data-name="Qatar" data-population="833285.0"/>
    <path d="M797.744774,39.135409L813.401368,51.372234L803.950818,52.788314L809.091818,67.036684L820.085866,73.171509L823.885869,79.376900L816.411719,76.290603L817.112908,84.983538L811.500329,78.117600L806.688230,69.270760L800.000686,60.201791L796.865051,53.028858L789.292500,41.441535L780.617682,34.643600L772.891469,22.866247L774.392207,16.594168L769.711134,13.772443L770.868530,11.447537L776.164690,16.261001L783.731124,23.385414L789.631052,31.733460L797.744774,39.135409Z M151.541399,-49.173708L145.534859,-55.750316L142.736164,-61.120273L147.261346,-63.373323L154.255447,-60.630319L156.017792,-55.628311L156.083014,-52.912305L153.428441,-51.312890L151.541399,-49.173708Z M767.732408,-196.514006L770.783484,-197.817655L762.590748,-199.512217L765.023882,-207.582401L775.800704,-211.202690L780.617431,-206.591181L781.422486,-200.754498L792.318971,-197.361396L794.492961,-195.235311L793.773162,-192.079144L789.552795,-190.736571L785.606337,-187.328802L780.700885,-188.230891L778.264024,-185.524912L778.867227,-181.308032L774.637225,-180.965313L770.755334,-183.141445L772.376734,-178.392108L777.854399,-177.885992L781.935937,-174.253427L738.603109,-190.097459L748.541972,-194.373699L760.847273,-198.881193L767.732408,-196.514006Z M718.004164,-196.685739L717.886379,-193.702012L714.272620,-194.365848L710.429189,-198.960473L718.004164,-196.685739Z M718.037908,-200.243012L718.004164,-196.685739L710.429189,-198.960473L710.033930,-199.414694L710.493858,-201.511170L714.342471,-204.267264L715.837206,-203.635677L718.037908,-200.243012Z M641.427495,-133.190120L638.167710,-130.821404L632.741412,-128.562661L631.955600,-128.680933L631.130939,-132.797691L633.123488,-135.244484L639.111265,-134.777008L641.427495,-133.190120Z M639.466112,-156.257338L640.941518,-152.054792L637.322224,-150.126572L630.637896,-149.841972L628.376058,-152.240645L632.919005,-154.019043L639.466112,-156.257338Z M625.552240,-150.857832L630.105004,-144.926782L622.563911,-139.963035L620.861232,-136.110898L611.996025,-138.139567L608.177589,-143.614002L609.384552,-146.499468L614.702407,-149.489267L625.552240,-150.857832Z M383.844477,-92.142179L381.588460,-92.175604L372.693829,-97.431748L374.606445,-101.215812L371.238305,-105.712957L374.276043,-109.992646L378.341444,-110.258831L381.672345,-114.422977L391.975870,-118.456038L390.443973,-120.460581L401.575114,-124.407697L403.636741,-128.136182L411.872753,-129.904687L422.887758,-131.889227L431.390820,-130.714627L436.981106,-132.436288L441.943219,-132.192806L441.940479,-128.559876L439.094838,-126.471853L428.445095,-125.029307L418.753418,-123.779216L406.058730,-119.279461L396.793654,-113.286943L387.086450,-107.654732L382.836484,-100.956613L383.844477,-92.142179Z M534.974805,-127.467695L536.863236,-123.429156L538.453379,-125.840166L545.490400,-127.060774L552.547760,-124.232829L555.862593,-121.622801L557.108967,-117.189754L555.258603,-114.072187L549.924211,-107.954362L548.681277,-105.060812L552.584027,-104.548638L557.562617,-103.295708L559.480136,-105.437970L563.121573,-100.408691L563.480721,-102.872050L567.422175,-105.296005L577.027906,-106.406022L579.714980,-102.788064L592.148923,-105.404141L588.522375,-111.558884L595.046390,-112.260161L599.201792,-113.966847L606.402830,-111.656919L611.316599,-107.233930L612.072633,-103.269587L620.136767,-98.672533L627.062164,-97.574353L623.383938,-106.920330L630.577439,-105.680068L633.401098,-110.101364L640.566627,-110.671090L640.524677,-113.831362L645.667571,-115.339418L637.207485,-120.882164L637.175124,-125.916667L662.136887,-136.369586L668.951706,-134.134941L681.010868,-134.357476L687.225677,-143.726503L692.375988,-146.984200L697.761959,-146.451765L704.449223,-142.009023L709.405705,-143.217688L709.812711,-147.492666L712.526945,-151.830747L717.454139,-155.366468L719.134166,-160.605546L730.642933,-160.667305L728.997523,-165.446315L721.343503,-166.386411L717.290217,-169.574330L723.845851,-176.411630L725.241403,-182.061775L732.816539,-187.862250L738.603109,-190.097459L781.935937,-174.253427L781.987246,-174.206900L785.428979,-168.063919L783.227489,-164.163673L789.882989,-164.669775L799.281062,-162.861275L802.649670,-163.202685L807.163342,-161.672390L809.669761,-159.504169L805.091935,-154.019068L808.819464,-140.444096L808.554174,-136.738898L812.891689,-127.530623L816.114903,-118.929736L819.768284,-114.941968L810.083053,-114.172311L811.565026,-100.506793L807.022663,-101.348294L808.590133,-95.408979L803.914072,-91.917160L808.961696,-86.509823L814.156334,-76.000168L817.779081,-73.333983L823.031087,-75.633307L835.328102,-65.069676L832.809135,-61.573426L838.559099,-54.100265L843.527354,-52.458828L841.973015,-42.561600L850.047501,-32.819416L846.586372,-25.721909L853.400061,-16.850605L854.849920,-4.482837L848.186293,-8.634604L835.449477,-18.581747L816.252473,-33.808512L807.068166,-45.746930L805.157417,-52.796365L801.539253,-56.368911L804.711097,-62.858353L799.459769,-77.339655L795.260606,-89.722226L792.696188,-100.593513L781.584648,-111.967017L779.545182,-107.742581L785.617133,-100.668260L788.712706,-85.638963L775.727609,-91.450600L771.405890,-81.657858L777.503857,-62.599910L785.119612,-60.553915L779.718554,-52.146215L775.124749,-46.991165L769.856396,-52.610331L763.286298,-49.510384L762.484908,-42.465543L749.870045,-35.880554L739.047432,-25.487062L737.699827,-1.997650L733.364548,26.534917L741.659876,24.058614L747.506136,28.250961L753.455260,27.838925L753.668970,22.061197L759.224571,19.924131L772.569602,25.530027L777.782725,32.635702L779.742207,43.204506L786.093732,53.704175L792.571917,68.809218L791.999192,85.552472L793.647306,92.580364L791.565624,106.535519L788.964736,120.396959L787.699180,127.386939L781.993622,136.017249L778.084112,137.648836L772.086332,134.673319L766.568706,144.483886L766.891029,147.903983L766.891032,147.904009L766.891039,147.904089L766.890951,147.904018L765.295370,146.605575L765.295272,146.605352L763.235419,141.939251L766.383749,140.538289L762.445559,129.376315L757.246555,122.146481L760.997069,116.996886L769.125669,115.797638L768.776527,105.410057L765.713380,94.749493L766.218043,90.552484L764.854562,81.283725L756.933848,87.786551L753.777148,93.296630L744.941161,96.657010L738.471390,89.084371L728.581015,85.183921L717.250434,85.790434L711.086915,77.709632L706.582097,72.869666L702.713290,69.718481L695.153020,61.842177L688.870152,60.104776L679.544438,59.973222L672.391106,62.349586L666.178830,65.887635L663.286892,71.607463L667.203041,72.932791L669.181988,77.903832L667.076668,81.647843L665.272986,92.632235L666.729146,96.634547L660.172027,104.449317L651.768425,102.630207L644.728217,104.949848L640.632404,102.524565L636.697101,102.261875L629.455884,110.466033L621.642228,113.437198L616.416249,116.683279L608.148736,116.399552L602.318727,117.342088L597.556410,113.123272L590.590346,109.466580L584.133790,109.008308L576.439119,111.107843L570.768336,113.436720L561.332961,110.339913L559.276885,103.474547L551.759017,101.660709L546.070156,100.962512L538.867033,97.541700L533.221792,107.507157L536.155555,112.868862L530.426627,119.647676L521.092667,117.621482L514.732595,117.440233L510.389730,113.152562L503.809387,113.079258L498.337185,110.224748L488.703573,114.527414L476.266381,122.284330L469.403845,123.658063L466.836563,124.319422L463.827296,118.445874L455.519860,119.246059L453.178021,115.118219L448.946640,113.012106L446.512279,107.413639L443.277390,105.474457L434.060584,107.091988L426.347522,100.901565L422.296780,105.403510L413.101297,80.308640L407.218874,72.185120L409.935462,69.615666L393.570810,76.034822L387.913910,75.613141L389.694313,70.709495L383.281327,66.278927L376.769598,67.355432L377.854390,57.597925L368.673320,53.559685L362.514444,56.190470L347.689021,56.184712L344.183468,57.712869L322.625793,55.100896L318.813893,57.387698L320.106224,64.702982L313.805426,65.428996L313.782534,68.186392L306.529082,70.897438L313.046244,79.866489L309.842700,83.717484L301.942279,80.880893L299.119938,83.033141L293.919463,76.033034L284.946350,73.191960L277.196641,74.852577L272.439130,68.832046L263.768603,58.037207L255.377562,54.801403L238.933748,59.496198L234.496950,65.590707L232.067352,57.999107L222.008256,65.590279L222.494473,68.119378L215.385146,73.294580L216.523820,81.464794L220.795696,83.100904L221.062912,90.640714L217.961367,94.980960L220.102172,97.698651L214.599601,101.873841L208.165532,100.871645L197.291283,107.525498L198.077569,118.501245L194.289858,124.350625L195.575309,137.966270L195.575155,137.966329L190.019785,140.088177L187.790078,141.964400L185.333440,140.152895L183.898672,132.737789L182.331456,131.663705L179.604493,127.819571L179.747071,123.241424L175.204713,118.723652L170.815012,118.409243L170.721261,116.225686L165.256470,107.932639L157.695157,102.065100L153.866191,97.948114L152.527237,98.621366L150.251060,87.143761L146.299142,80.191623L145.254864,72.269374L150.028117,73.226521L159.377761,68.580730L158.871103,63.398742L168.929989,64.437527L170.097905,62.465775L164.516538,61.098308L167.378479,57.370976L171.691719,56.551428L177.065743,58.840892L179.861924,56.437108L182.062365,51.047951L187.264745,47.764856L188.988145,45.225023L183.787199,38.116942L180.905988,36.454968L180.966865,30.654571L176.338941,29.633383L172.794504,22.761435L174.211740,21.202819L175.534841,16.517867L172.324284,13.610565L174.101400,10.814817L176.592234,9.951915L177.779818,3.354692L172.704124,0.840309L171.789804,-0.537670L169.100342,0.468944L167.832539,-1.068712L167.832463,-1.068805L171.473891,-6.966997L172.959555,-10.352825L174.421286,-10.468584L177.437312,-7.610413L180.611101,-8.113452L181.379738,-11.132146L179.972916,-14.652126L181.545971,-15.877794L181.301074,-18.594238L183.811335,-25.660627L186.668875,-27.061301L189.875174,-30.969685L188.120861,-35.855636L185.292897,-36.618660L186.727954,-38.941813L185.008897,-44.185032L188.648614,-49.578884L192.292148,-53.403734L192.583906,-56.606912L196.583413,-57.554670L203.319714,-65.180769L210.324086,-67.116315L211.301760,-68.810647L211.301809,-68.810650L219.398133,-69.364081L220.148877,-75.789393L220.148879,-75.789405L237.168276,-78.637336L244.689315,-80.166466L249.983265,-82.744672L251.444290,-91.384848L258.060202,-94.757133L261.996594,-102.066049L271.086515,-106.062705L278.141352,-116.298536L286.916105,-118.941039L289.398229,-126.673719L296.010188,-130.653833L298.541919,-129.423631L305.748406,-128.235937L305.748566,-128.235913L311.027524,-128.267511L309.539022,-120.975900L314.139855,-113.810403L315.209639,-98.430997L313.818248,-93.503046L309.085453,-88.534391L301.889399,-86.980748L295.046076,-88.520062L288.672071,-103.718101L285.700828,-104.530837L284.081975,-95.768712L280.528541,-92.387160L272.566318,-85.033731L274.041457,-79.787475L274.458075,-76.061354L278.569480,-79.283154L280.058712,-83.776354L284.894242,-85.038747L287.629436,-75.093381L292.094761,-75.055303L295.390037,-81.903826L309.688964,-84.281025L312.107937,-82.024591L312.577200,-77.576878L319.182996,-81.626922L320.813404,-87.650586L326.502208,-91.170864L328.807296,-97.069924L334.697494,-89.720995L332.642773,-84.500806L327.924009,-85.822578L324.137922,-81.618213L324.311679,-77.575823L330.708060,-76.464372L335.642137,-80.938322L345.289544,-81.130484L361.543226,-82.498936L363.655524,-81.029239L356.966650,-77.664081L360.429049,-75.016827L364.704827,-76.720549L371.043756,-74.374469L378.137232,-75.798657L378.945667,-69.457643L386.026021,-73.508579L385.399144,-79.480952L388.717186,-81.552366L396.961603,-75.781424L400.259773,-71.736021L408.535456,-58.555106L412.854041,-62.397172L411.200073,-67.795721L411.898530,-69.613517L408.134607,-71.556671L411.124298,-75.226222L412.482984,-82.234266L413.687743,-84.924241L423.035367,-90.881865L428.466402,-97.929726L431.377394,-99.014150L438.310932,-94.984763L437.162176,-90.157271L431.547645,-83.951249L432.527538,-80.809723L431.395612,-74.634481L426.353882,-63.078300L428.535523,-56.986289L424.977981,-51.536952L413.028380,-40.839598L417.134433,-38.589775L419.793937,-41.393767L424.885549,-42.769917L427.306203,-46.875822L431.933108,-50.399294L431.284662,-55.733457L434.817111,-61.124055L431.096915,-62.582399L431.870432,-67.531938L437.539894,-75.600941L435.697221,-83.407980L443.393292,-88.008175L444.724929,-94.181811L446.298037,-94.088272L446.373509,-89.078154L442.469246,-81.069398L445.502077,-78.881568L445.914745,-85.314996L452.220623,-87.788109L458.885553,-87.278035L463.723201,-81.611086L462.428117,-89.145061L464.214920,-98.334078L469.702229,-99.458134L476.715212,-98.397557L483.251958,-99.069952L481.428399,-103.731864L485.320873,-109.179272L488.497560,-109.255366L494.027767,-113.341523L501.059128,-114.418589L501.906882,-116.776627L508.669455,-117.722391L510.938228,-115.883297L516.213780,-120.759746L520.852417,-120.985500L520.911072,-124.718653L522.538102,-128.553100L527.243251,-132.655176L531.890378,-130.488348L529.250826,-127.964599L534.974805,-127.467695Z M527.551710,-137.977305L515.739669,-133.386661L517.835692,-144.798682L519.303690,-145.909865L520.922998,-145.531825L527.276493,-141.460685L527.551710,-137.977305Z M430.748545,-171.759997L427.918843,-171.939817L426.105975,-172.174774L424.707508,-171.193757L421.822964,-171.110388L422.108215,-173.628059L425.255503,-175.169541L422.580539,-177.296415L426.514969,-176.784059L428.598920,-175.608213L426.878131,-173.653216L429.417265,-174.779033L431.878575,-175.140399L432.356943,-172.504744L430.748545,-171.759997Z M515.618008,-141.584626L511.166579,-140.209817L505.129629,-142.402321L501.631621,-145.570149L500.085302,-151.616674L497.568951,-153.299162L502.197116,-159.037787L505.773225,-161.026832L509.518001,-156.977791L514.906120,-149.185940L515.618008,-141.584626Z " data-code="ru" data-name="Russia" data-population="140041247.0"/>
    <path d="M129.934634,251.889022L116.706640,245.723704L104.848757,217.841368L97.697907,206.418396L90.832432,199.892968L88.875577,200.688712L73.286262,198.635163L75.336697,211.590833L72.345170,212.082099L69.729985,214.719995L63.967511,213.397321L60.727279,216.009806L56.424942,217.439015L49.709873,211.923420L47.039927,215.309080L45.135540,218.517848L41.592883,223.248728L44.976252,225.008698L45.408755,233.489882L46.146592,243.487667L45.771916,252.113007L46.918990,255.313801L46.800660,261.349966L45.507739,263.375663L45.614055,270.133294L48.727135,274.011929L50.667015,279.435473L50.824562,292.283562L48.392133,298.004055L46.830341,305.274411L48.630831,316.908651L51.505696,319.980991L54.638628,329.031618L54.315934,338.041101L56.009140,348.068792L59.072225,353.229763L58.557964,357.453005L60.133568,361.375758L60.010175,366.036859L64.410616,364.150183L64.739650,359.631301L68.228730,355.510848L70.804923,359.317069L73.233673,359.209339L82.616606,362.306738L83.838289,363.822331L91.449371,367.523469L94.711895,368.082776L95.917189,372.077989L100.170798,371.686887L108.703640,363.200139L117.498923,361.212246L142.239253,364.700637L169.551576,361.912273L179.735960,343.859841L177.684318,335.924711L175.514606,337.528743L152.427459,325.487029L152.163228,314.654789L152.513651,312.306198L152.103041,308.111683L149.710740,308.103492L147.909087,305.403200L147.458764,302.635123L147.395931,299.104319L146.004460,295.637850L146.052883,292.046798L147.853604,289.074596L148.676564,284.917539L144.800869,279.056966L144.640344,275.204242L141.673005,271.678852L141.654874,262.295520L136.301819,260.605007L136.137215,255.324108L129.934634,251.889022Z " data-code="sa" data-name="Saudi Arabia" data-population="28686633.0"/>
    <path d="M93.814570,187.042449L113.155231,184.477320L121.235001,174.354386L124.079291,167.250553L128.755686,166.664905L134.986268,162.453837L127.019535,160.364340L123.702963,158.505415L114.632792,158.278777L109.487383,155.607050L107.151711,152.097394L98.959298,150.944663L97.977795,148.029289L94.737668,152.992357L91.957730,154.092764L89.176283,155.189690L85.535784,158.149327L82.183867,165.596660L84.738699,167.646205L83.799638,171.880642L78.470215,173.502704L74.184443,177.775462L72.255759,181.681349L70.639274,182.633930L70.728011,182.766162L75.993756,190.424867L93.814570,187.042449Z " data-code="sy" data-name="Syria" data-population="20178485.0"/>
    <path d="M618.525737,454.073132L621.260540,449.495535L621.127082,441.313696L613.126357,433.515107L611.915483,424.055521L604.471381,416.760152L597.562297,416.588391L595.934783,420.062341L590.617298,420.689157L587.795636,419.162851L578.475064,425.460678L577.837955,416.848832L579.548218,406.585422L573.420671,406.480083L572.617414,400.725316L568.579701,397.955429L563.529802,400.427671L558.439248,404.830859L552.075690,405.514813L548.282470,416.059281L544.490586,417.931063L549.154682,426.222462L555.202743,433.030871L559.189791,439.226710L556.075890,447.708982L552.924162,449.599797L555.286127,454.337204L561.742606,461.725665L562.982213,467.039047L562.974954,471.501296L566.926104,480.094462L562.000412,489.235844L557.655954,499.241479L555.061056,508.507947L554.144281,514.503143L556.071418,519.748206L557.524087,514.082337L562.266444,518.447929L567.491257,523.643478L569.248439,528.304020L573.138003,531.807843L574.767881,530.035225L582.729186,533.856546L583.619715,538.717128L589.948579,537.262998L592.977663,533.178012L587.846955,528.484216L581.996015,527.661486L576.486421,522.441200L574.534683,514.248395L570.412098,505.689812L564.193034,505.641631L563.357380,498.742838L566.206382,490.163575L570.859544,475.945650L571.231713,465.359792L579.467588,464.902004L578.389510,472.512144L586.408473,471.910410L595.027601,475.830130L592.275362,464.367439L597.848581,456.007494L609.751734,453.348483L618.525737,454.073132Z " data-code="th" data-name="Thailand" data-population="65905410.0"/>
    <path d="M342.096553,196.041729L339.074773,195.755427L338.658443,192.946304L341.168412,188.844281L331.141184,189.256997L327.378007,194.866537L322.670244,199.412576L316.782194,197.758401L313.842144,201.529775L318.575034,204.863438L318.411997,212.218506L311.931903,220.987444L313.919931,222.593106L320.017976,220.587772L322.095578,222.894621L325.488809,218.998207L329.878835,220.006791L331.332030,218.818517L332.965722,215.135655L336.869114,212.402262L340.392494,215.248817L338.968259,218.009300L341.118343,218.841309L338.757622,226.700238L341.100936,230.307482L344.128081,228.737661L347.657746,228.328011L353.164745,224.802564L358.207847,226.280732L365.974968,227.407510L365.797516,221.833058L366.714213,218.177573L362.592949,215.368426L359.976116,215.963361L359.789117,206.910159L345.667924,206.126764L337.363889,201.489801L329.350381,200.773375L331.342370,195.459825L338.795512,198.485789L342.096553,196.041729Z " data-code="tj" data-name="Tajikistan" data-population="7349145.0"/>
    <path d="M302.766465,216.930478L304.473961,211.180201L295.908542,205.015438L289.714945,198.656588L286.395272,193.106457L280.376528,184.603092L280.121910,174.058951L278.395022,171.750987L270.887603,170.166149L268.967745,167.525837L270.912346,159.890763L263.816997,152.354948L256.199388,156.041413L249.313070,157.464908L248.573057,162.486649L241.033939,160.207780L237.461222,159.540933L235.882673,150.731444L232.616619,146.625605L224.486127,145.928990L220.287662,147.954606L219.670603,154.675296L223.298076,148.149374L229.510649,147.662976L229.095520,153.600779L231.546133,160.809817L224.512241,161.780047L219.287452,157.307427L214.479362,164.597963L218.650032,166.707882L214.282568,172.475470L218.244455,177.459840L213.350403,186.904024L212.042061,193.974261L218.843043,194.183201L225.809950,190.418377L230.353202,192.167887L234.051199,191.373318L238.698599,193.759445L244.812900,200.833986L250.138019,203.484056L255.640852,214.101210L260.947879,215.868336L259.169502,224.007161L265.647681,229.506937L271.609630,229.603247L274.370274,225.672697L280.614321,225.619039L285.576381,223.693065L289.116898,216.447940L295.793729,216.000245L297.842590,212.882831L300.628590,216.164518L302.766465,216.930478Z " data-code="tm" data-name="Turkmenistan" data-population="4884887.0"/>
    <path d="M817.058656,659.417466L824.990249,655.434286L834.830414,649.631933L838.296733,646.431226L834.739376,645.805360L831.797124,647.495450L825.223565,648.867070L817.088150,652.299214L815.964677,654.749389L816.909674,656.512325L817.058656,659.417466Z " data-code="tl" data-name="Timor-Leste" data-population="1131612.0"/>
    <path d="M123.634206,107.565866L118.023898,95.374160L108.955133,89.798137L101.019709,88.123905L90.642565,89.441826L81.561226,81.093541L74.524812,86.154576L66.386547,80.459668L54.505552,84.404054L54.645605,91.204878L47.130209,96.141096L47.458203,104.087952L44.496781,115.464712L50.609890,119.676276L52.872541,128.343386L57.490669,129.947582L61.211466,127.046132L67.182757,131.457783L68.860443,139.414660L78.454987,143.959043L85.680041,141.138533L89.450536,146.219239L93.587798,147.567490L89.307860,149.709844L89.176283,155.189690L91.957730,154.092764L94.737668,152.992357L97.977795,148.029289L98.959298,150.944663L107.151711,152.097394L109.487383,155.607050L114.632792,158.278777L123.702963,158.505415L127.019535,160.364340L134.986268,162.453837L138.460435,162.324001L145.328197,167.011564L146.441945,170.417610L150.323163,170.249074L150.323341,170.249066L150.447829,161.212105L153.132735,158.918458L156.548940,147.429872L162.186211,146.797314L161.116411,142.979495L157.721995,138.533592L160.695206,134.370188L161.399918,130.665364L158.084291,123.360371L151.522075,120.580590L141.825457,121.655588L137.258972,118.133758L129.666497,115.772528L123.634206,107.565866Z M67.720174,77.741320L71.898607,76.725872L78.278014,80.873394L80.790090,79.428610L78.487597,73.236594L80.438307,69.436125L77.103989,64.911116L70.030939,63.579442L70.605375,67.814497L64.881880,72.006844L62.959081,72.023830L61.509430,73.766515L59.979433,79.112249L67.720174,77.741320Z " data-code="tr" data-name="Turkey" data-population="76805524.0"/>
    <path d="M750.380839,352.277742L752.314618,335.694320L752.525431,329.548691L748.135253,327.475010L742.991260,336.178949L739.915112,346.673535L742.239350,353.664265L748.252367,360.963608L750.380839,352.277742Z " data-code="tw" data-name="Taiwan" data-population="22974347.0"/>
    <path d="M346.149943,176.929868L341.728076,177.933587L330.857246,182.721505L326.056130,188.844839L323.401096,188.374612L322.634247,183.523378L313.805540,181.330314L314.562371,173.334867L311.223231,172.517818L314.492239,163.251057L308.523370,154.553493L296.882990,152.437221L288.662994,151.745664L285.395765,141.673991L281.423009,136.671292L274.167760,127.128870L273.319073,125.968060L254.964427,126.139722L241.033939,160.207780L248.573057,162.486649L249.313070,157.464908L256.199388,156.041413L263.816997,152.354948L270.912346,159.890763L268.967745,167.525837L270.887603,170.166149L278.395022,171.750987L280.121910,174.058951L280.376528,184.603092L286.395272,193.106457L289.714945,198.656588L295.908542,205.015438L304.473961,211.180201L302.766465,216.930478L306.853545,217.852449L311.931903,220.987444L318.411997,212.218506L318.575034,204.863438L313.842144,201.529775L316.782194,197.758401L322.670244,199.412576L327.378007,194.866537L331.141184,189.256997L341.168412,188.844281L338.658443,192.946304L339.074773,195.755427L342.096553,196.041729L347.367716,197.922756L358.027442,192.641530L350.645811,186.272589L345.059425,187.741582L340.672201,183.253172L348.007566,178.227634L346.149943,176.929868Z " data-code="uz" data-name="Uzbekistan" data-population="27606007.0"/>
    <path d="M638.482671,381.591029L629.351364,379.988408L624.784965,376.477252L625.649344,370.793037L617.471014,369.783417L612.927070,366.545356L605.884139,372.307523L597.410344,374.083507L590.375563,374.538074L585.793726,377.204277L591.473332,384.460262L596.062213,392.930045L607.063266,392.182160L611.165557,400.305680L605.607874,403.280582L603.265169,406.937235L614.494057,411.856464L622.882402,422.609483L629.272293,430.595548L636.713454,436.668442L639.554553,443.259360L638.604248,453.048105L641.218262,459.273711L640.881237,470.916815L625.619206,479.656451L630.082784,485.145986L620.241804,486.616748L612.275206,491.073818L619.557995,496.022477L617.213367,502.713028L620.952450,508.612177L632.323370,498.771178L639.562400,490.116795L649.925985,482.948801L657.281612,475.847291L657.237816,458.764799L651.548343,441.353384L645.333864,434.172280L636.557481,429.021708L627.042960,417.210370L619.328213,407.659054L620.767905,400.801068L627.433700,391.016374L638.482671,381.591029Z " data-code="vn" data-name="Vietnam" data-population="86967524.0"/>
    <path d="M146.252386,390.473180L145.002786,382.821448L142.239253,364.700637L117.498923,361.212246L108.703640,363.200139L100.170798,371.686887L95.917189,372.077989L94.711895,368.082776L91.449371,367.523469L83.838289,363.822331L82.616606,362.306738L73.233673,359.209339L70.804923,359.317069L68.228730,355.510848L64.739650,359.631301L64.410616,364.150183L60.010175,366.036859L59.197228,370.539661L57.705248,372.112732L57.338264,377.003735L55.587661,376.897305L56.866256,381.879860L56.616197,389.892516L57.239556,393.338657L55.696401,398.760726L56.488543,405.399237L62.128249,407.883140L65.096477,407.417353L69.180929,409.021484L71.041811,406.895652L73.396163,406.887698L75.814614,404.840558L78.054340,404.963189L85.209555,406.716148L90.992357,406.489041L96.820743,403.884000L99.221860,405.255645L103.059908,405.843661L112.149219,401.105798L126.686757,400.440195L136.038735,398.658045L136.957300,395.344427L139.545114,391.420289L146.252386,390.473180Z " data-code="ye" data-name="Yemen" data-population="23822783.0"/>
  </g>
  <g class="" id="mountains">
    <path d="M185.954071,295.632491L187.406009,295.695910L188.857546,295.592452L190.297904,295.270877L197.855381,292.470947L200.717206,290.627468L202.168055,287.530857L201.745102,285.373069L200.384877,283.293491L198.660105,281.500491L197.131372,280.207662L189.764273,275.174957L188.497534,274.136921L182.447617,268.100916L181.283622,266.671319L180.602946,264.899072L180.536161,264.157804L180.541641,262.632281L180.466526,261.877342L180.185832,260.707900L173.326424,237.027423L172.381007,231.433035L171.348613,227.478575L170.170399,223.715248L166.574617,214.150417L165.252737,207.142822L164.209799,203.864486L162.071634,198.330664L160.079496,190.654278L159.092454,188.614416L157.669119,187.420068L155.954039,187.146211L154.096302,187.870725L153.392528,188.418665L152.697037,189.123500L152.020840,189.989984L151.370770,191.021733L150.762267,192.394297L150.381670,193.820342L149.870735,196.701112L148.164272,203.090331L147.858783,205.200781L147.825853,206.479987L148.017599,210.355016L148.152071,211.446163L148.368668,212.176040L151.605382,217.959890L153.424890,220.389036L154.798825,222.653726L156.165467,224.090207L156.822304,224.936456L157.368677,225.999566L157.817273,227.214208L158.765818,230.555793L158.928507,231.414168L159.026058,232.309712L159.154912,235.256624L159.676505,239.074539L159.842826,241.059541L159.898912,245.354727L160.071274,246.716081L160.262506,247.469998L160.740038,248.917119L161.125401,250.422765L161.581849,251.840267L161.737864,252.515543L161.774816,253.164095L161.705155,254.527116L161.736674,255.185113L162.085096,256.770746L164.490572,263.840701L164.710543,264.663168L164.846092,265.715692L164.958201,267.875730L165.167057,268.915134L165.531937,269.901841L166.424285,271.920219L168.777419,278.165094L171.416264,283.990550L172.496130,285.805125L173.797412,287.504520L174.699538,288.435467L179.446660,292.732017L181.413978,294.127223L183.559802,295.126546L185.954071,295.632491Z " data-code="ZAGROS_MOUNTAINS" data-name="ZAGROS MOUNTAINS"/>
    <path d="M556.620479,171.231295L557.267831,170.651401L557.733291,169.920548L557.958088,169.032145L557.887678,167.981607L557.511963,166.902912L557.462992,166.762163L556.813240,165.711053L556.010171,164.876179L555.831932,164.746436L555.093544,164.208081L551.098675,162.224492L544.380584,157.043233L530.901044,152.931801L520.941672,147.127002L516.218387,146.484924L503.062906,138.578611L499.649881,137.456945L498.282451,136.619191L497.032863,135.457935L490.000274,126.188428L489.140140,125.650907L484.159788,124.380964L483.260451,123.872970L482.474880,123.101523L482.209926,122.678299L481.761199,120.963982L476.026579,115.836650L475.118794,115.011050L474.942333,112.355312L474.842140,110.820833L474.736562,109.181897L473.823920,106.998964L470.710562,102.521439L467.782966,99.792177L464.543563,97.895626L458.661547,96.822282L449.078765,94.954453L444.380972,93.983935L441.572491,94.566286L440.167908,95.318856L439.549428,95.853361L435.657752,101.578462L434.959577,102.905554L434.430690,104.349071L434.104561,105.838934L434.014066,107.306452L434.193820,108.681613L434.678845,109.894635L435.500485,110.874401L439.790007,114.352965L440.868719,115.215447L441.497045,116.292679L441.929877,117.446818L444.276160,127.352992L445.942075,130.423497L446.506450,131.710135L461.373775,134.557983L472.756432,140.111203L476.058537,143.389537L478.699492,147.448847L480.447574,151.247176L481.316035,154.994015L483.300845,160.511358L487.190429,165.690361L490.349918,167.659872L495.988944,168.145621L502.537699,170.204763L516.625798,170.446434L517.582879,170.704501L518.492020,171.246872L520.231252,173.038617L526.764042,179.658361L527.912021,180.342372L529.022123,180.637301L530.087322,180.676330L531.103127,180.482833L532.065152,180.077913L532.970238,179.485558L534.597587,177.825338L535.130641,176.959024L537.096140,173.738888L537.349624,173.451677L537.954838,172.764483L538.439609,172.447510L538.943073,172.285411L540.485108,172.530105L544.146454,173.099376L555.012954,171.955471L556.620479,171.231295Z " data-code="ALTAY_MOUNTAINS" data-name="ALTAY MOUNTAINS"/>
    <path d="M687.424566,158.358273L687.686640,157.176359L688.330156,156.157845L696.573732,147.056103L697.641959,144.886088L699.801928,140.402610L700.774342,136.063046L702.083613,129.882211L702.406736,128.288201L702.997164,125.295665L702.954515,123.013656L702.405553,120.308222L701.951636,119.306082L696.279600,112.561448L695.765379,111.587807L695.391898,109.528535L695.712059,107.681671L698.758925,101.532982L698.688097,100.096222L697.782046,98.619429L695.045534,96.127817L693.791827,94.470044L693.525407,93.994917L693.169842,93.361014L692.981086,92.519520L694.326864,84.558984L694.229215,81.838882L694.088820,78.518407L693.684622,71.013648L692.617969,67.209431L691.855236,65.466142L690.934586,63.897770L689.855215,62.558646L688.609852,61.500913L687.197558,60.775296L682.306124,59.841778L676.862872,60.149306L671.753206,61.700355L666.700639,65.745152L664.721115,68.244482L664.576037,68.875556L664.667168,69.505974L664.987161,70.130096L667.997307,73.850548L668.544006,74.861828L668.957162,76.010793L669.150230,77.083234L669.089051,77.831811L668.839092,78.368277L667.606031,79.825976L667.248478,80.635762L667.023672,81.793749L667.066429,82.616814L669.059595,90.200605L669.148247,92.112529L670.774723,101.004798L670.869338,101.540121L670.573157,130.166120L669.861748,133.151748L669.836296,134.163171L674.367611,162.653982L674.635731,163.414512L674.915539,163.799990L675.218457,163.881636L675.555517,163.730750L676.374829,163.013817L678.540986,161.744834L687.660404,159.769010L687.424566,158.358273Z " data-code="GREATER_KHINGAN_RANGE" data-name="GREATER KHINGAN RANGE"/>
    <path d="M675.592897,21.342664L675.347642,21.364648L675.023988,21.866523L674.734735,22.086612L666.507684,24.399703L665.614441,25.544869L664.647877,27.561818L664.053301,29.871340L664.042711,30.955165L664.302689,31.896102L665.667449,34.073084L667.574741,36.340036L669.850666,38.579571L674.785815,42.502216L678.993076,44.910867L680.345686,45.263045L687.381184,42.824551L693.840184,42.274652L694.619668,42.503858L696.016821,40.987386L696.942262,41.044359L697.704433,40.786073L700.915351,38.224914L709.473380,36.351463L710.943439,36.589815L714.326393,38.195264L715.275176,38.424563L716.217994,38.337883L729.874287,30.514223L731.596461,27.626592L732.147218,25.912287L737.662362,5.775705L737.505740,5.010976L737.137274,4.246162L736.511292,3.507100L736.269563,3.315255L735.849924,2.982115L735.147865,2.424490L733.525773,1.411160L732.023933,0.721276L731.435966,0.577253L731.019046,0.610076L730.408376,1.007673L727.283637,5.392178L727.281438,5.395199L719.829471,8.867444L719.455770,9.523376L719.229557,9.722862L704.681940,13.448327L704.184065,13.755404L700.785977,18.272161L698.192560,19.428396L697.069041,19.922920L690.550462,22.717771L688.264107,22.407922L686.752394,21.706597L685.514679,21.651873L682.336031,20.488270L678.295805,21.163531L677.265883,21.929460L676.971458,21.893355L675.592897,21.342664Z " data-code="STANOVOY_RANGE" data-name="STANOVOY RANGE"/>
    <path d="M617.230200,407.492704L616.535088,405.155159L616.456991,402.534699L616.943697,399.841711L617.965310,397.331533L619.512058,395.199457L622.408169,392.987052L622.667792,392.586548L622.779611,392.076066L622.717099,391.414207L622.450393,390.558056L622.087023,389.862425L621.595802,389.242933L621.003746,388.694072L619.640234,387.787281L616.175888,386.255819L604.451872,383.112927L603.185495,383.229296L601.944975,383.563539L599.621213,384.787360L597.639204,386.587624L596.446490,388.226653L593.998780,393.620640L593.315099,399.144098L590.805633,405.280255L590.502011,406.862008L590.551976,408.545659L591.068777,410.372366L592.196295,412.661594L593.708558,414.773240L594.581246,415.595833L595.516588,416.174286L596.502435,416.441407L597.529825,416.332116L602.681263,413.903516L603.270776,413.842740L603.733412,413.963512L604.173608,414.229919L618.370439,429.280022L623.228460,446.443353L623.878259,447.859772L627.469574,452.401204L630.084841,454.154403L630.379954,454.478317L630.570179,454.830757L632.551028,460.838644L633.267171,465.984934L636.264787,472.311467L636.513243,473.714804L636.240901,477.126952L636.354822,479.073765L636.750987,480.988770L637.419813,482.761304L638.350408,484.277753L639.536368,485.425128L640.962970,486.092716L642.622657,486.165932L643.869258,486.072871L645.690595,485.631710L647.208290,484.791003L648.490290,483.579846L650.507698,480.468493L651.060851,479.831926L651.947691,479.223186L652.367238,479.041254L654.413198,478.602152L654.811969,478.375914L655.207474,478.024966L655.860064,477.098941L656.232954,476.080079L656.383407,474.995510L655.595792,468.328525L655.717228,467.183706L657.448380,460.969161L657.483802,460.840885L657.468401,459.660010L657.260603,458.529798L656.897740,457.442871L656.397149,456.498590L653.596235,451.211765L651.085193,443.810771L648.772609,440.483003L631.224911,423.746740L631.213799,423.736032L621.037455,413.865653L617.230200,407.492704Z " data-code="CHAINE_ANNAMITIQUE" data-name="CHANE ANNAMITIQUE"/>
    <path d="M398.885804,308.032186L395.321470,304.091007L394.158913,303.388941L392.952493,302.961728L390.429755,302.693162L390.217382,302.720270L389.398309,302.824453L388.943159,303.005214L388.551965,303.288601L388.242753,303.696000L388.030808,304.246749L387.935531,304.961150L387.969824,305.326273L387.974146,305.372225L388.007046,305.721496L388.258580,306.513566L389.162844,308.072635L390.203746,309.214726L390.366090,309.392468L391.586710,310.229117L392.040029,310.143044L393.225298,310.907885L401.258512,316.023312L406.303564,319.176640L407.621614,319.993126L407.964907,320.442890L410.739945,324.057118L411.660660,324.858552L420.069435,328.489411L423.984366,329.316375L425.859500,329.707382L427.746881,330.498966L431.189407,331.931722L445.922130,337.905419L455.559881,341.678859L456.495638,341.670402L457.357385,341.387289L458.111405,340.759855L458.764412,339.591808L458.714963,338.610442L458.125860,337.797586L457.362919,337.269523L457.163289,337.131182L453.036123,335.220567L453.035358,335.220211L398.885804,308.032186Z " data-code="Siwalik_Hills" data-name="Siwalik Hills"/>
    <path d="M368.861745,207.915931L364.156321,206.312144L349.471848,204.546135L346.847945,205.323965L346.664163,205.428930L344.116387,206.035916L342.599262,205.676521L342.281646,205.747594L341.939132,206.012069L341.547363,206.534133L341.154899,207.451202L338.088727,220.889715L338.042892,221.496552L338.096635,221.937316L338.219529,222.275193L338.552885,222.896649L339.045570,224.396784L339.169667,224.618095L339.700112,225.019786L340.476585,225.925611L340.559109,226.002323L341.360069,226.745453L342.428935,227.137717L343.609766,227.193929L343.778292,227.145665L346.895186,226.247460L349.427069,225.510044L350.441408,225.212643L351.822933,225.295127L361.433475,225.813805L367.211722,226.079421L370.206855,226.203487L371.682450,225.323891L374.147756,224.927887L377.844376,224.322241L381.038158,223.787474L381.465234,223.611302L381.965343,223.404707L382.546702,222.600628L382.367538,221.605635L381.622567,220.464740L376.774429,215.357697L375.455230,213.037369L374.074349,211.258373L368.861745,207.915931Z " data-code="PAMIRS" data-name="PAMIRS"/>
    <path d="M364.299342,226.789857L364.216158,226.622984L363.876965,226.339638L363.410743,226.115407L361.433475,225.813805L355.780961,224.927385L351.822933,225.295127L349.427069,225.510044L348.683266,225.575588L346.895186,226.247460L344.556744,227.120512L343.901435,227.166456L343.778292,227.145665L342.597681,226.945461L341.156844,226.395309L340.559109,226.002323L339.884080,225.557455L339.404869,225.042825L338.470452,223.536225L337.619466,223.055900L336.588043,222.922480L307.239364,225.594924L306.798842,225.844965L300.612150,231.318362L300.162990,232.019935L299.393202,235.179969L299.126877,238.784168L299.370248,241.882863L299.681045,242.944549L300.116547,243.522083L319.775158,250.579404L332.030730,253.016060L333.267088,252.829835L333.652026,252.667336L333.836422,252.589436L336.454207,250.930652L336.622186,250.823895L337.252273,250.682763L337.933830,250.719382L338.445509,250.891074L340.594397,252.597394L343.280903,253.315799L344.362612,253.602602L348.926984,256.919806L349.059053,256.975544L349.584716,257.197133L350.752554,257.687940L350.819297,257.664136L350.769948,257.564381L350.728364,257.431089L350.815260,257.307438L351.039729,257.259505L351.155513,257.234761L351.626585,257.284083L352.413434,257.365969L352.621986,257.387569L352.826064,257.479806L354.784030,258.361410L355.317127,258.486291L355.927325,258.471869L356.189054,258.399953L356.656317,258.271389L362.623700,254.600151L366.114376,250.555872L366.736285,250.098256L367.235042,249.395492L367.631045,248.527733L368.934085,244.120850L369.485004,239.501415L369.288042,238.027640L368.522826,235.438059L368.300209,234.678342L366.723762,231.601508L364.299342,226.789857Z " data-code="HINDU_KUSH" data-name="HINDU KUSH"/>
    <path d="M391.632934,269.952390L392.076366,269.798221L392.460227,269.540362L392.637870,269.341401L392.791055,269.099776L393.309978,267.960731L393.613778,267.470132L393.784865,267.289378L396.037008,265.796207L398.980270,262.709599L399.150961,262.400943L399.322723,261.897711L399.377508,261.435172L399.338811,261.005537L398.467990,258.606272L398.371578,254.133299L397.666723,250.981016L396.384682,248.042190L394.620268,245.658557L394.337514,245.437545L393.200915,244.546865L390.735384,243.540713L389.799415,242.941786L389.195500,242.224424L387.439404,240.126946L386.456552,239.416766L386.104309,239.039018L381.133010,228.780612L378.780937,225.987614L378.141135,224.649032L377.844376,224.322241L377.780240,224.251555L377.136485,224.100112L376.286229,224.147825L374.147756,224.927887L365.732683,227.944407L365.450787,228.165554L365.337050,228.396406L365.360795,228.640447L366.695683,230.758544L366.743297,231.006901L366.702979,231.399500L366.723762,231.601508L366.731202,231.673724L366.868736,232.086454L367.175065,232.703307L368.522826,235.438059L369.264356,236.929443L369.503946,237.750902L369.585520,238.781237L369.166327,242.217737L369.278701,243.521928L370.919216,251.041288L371.829410,253.501823L372.599541,254.702516L377.457566,259.100126L383.966161,267.505821L384.525449,268.216307L385.360291,268.882489L385.464864,268.965802L386.504361,269.414729L390.645779,270.028846L391.632934,269.952390Z " data-code="KARAKORAM_RA." data-name="KARAKORAM RA."/>
    <path d="M456.242109,233.643668L450.483890,232.546220L447.850838,233.520128L431.668393,239.312631L430.257919,239.802131L429.538261,239.847322L419.636182,240.416853L413.254795,242.481878L412.197263,242.472885L411.858837,242.317862L409.486844,241.226152L408.542637,240.789053L408.243200,240.579264L407.156973,239.816399L401.558020,235.837702L397.290824,234.001655L392.868008,233.214323L390.491510,233.482672L389.425772,233.966037L388.521422,234.758563L387.836922,235.916524L387.574438,236.971873L387.573794,238.100192L387.790880,239.257886L388.183674,240.397373L389.195500,242.224424L389.318264,242.445229L390.616965,243.880375L392.049112,244.695654L394.337514,245.437545L395.196964,245.714412L396.702052,246.504512L405.870270,253.229406L407.938773,253.888027L412.320585,254.377055L416.055871,254.082822L419.601507,253.160039L454.627466,254.015727L459.423663,252.300738L540.171424,255.451223L550.685897,257.510855L552.698417,257.511605L553.323147,257.331766L553.858291,257.039137L554.298848,256.633530L554.634115,256.115048L554.858252,255.482955L554.962669,254.737228L554.936930,253.877339L554.662321,252.162046L554.140698,250.361303L553.351905,248.742036L552.852067,248.084004L552.278170,247.571108L550.826723,246.814065L549.144613,246.375520L547.514378,246.398686L546.804813,246.627859L544.211892,248.565990L544.109743,248.610570L543.191447,249.010648L542.948487,249.116291L542.937479,249.118237L541.407733,249.387337L539.817260,249.664488L526.719326,245.977490L525.415203,245.599589L524.618417,245.680427L522.820604,246.317258L520.735193,247.050713L520.653081,247.037569L519.469714,246.847368L516.870310,246.424470L513.144774,245.806103L503.996236,244.225869L502.795603,243.602741L501.624116,242.992477L501.340258,242.844269L492.539166,236.135381L489.996220,235.241229L477.030429,235.244344L474.764321,235.227508L462.218787,235.040646L456.242109,233.643668Z " data-code="KUNLUN_MOUNTAINS" data-name="KUNLUN MOUNTAINS"/>
    <path d="M372.474046,177.131514L373.406151,177.343834L373.224619,177.258151L371.046640,176.775993L372.474046,177.131514Z M372.474046,177.131514L367.320205,175.936133L371.046640,176.775993L364.986391,175.234675L363.676001,175.371044L362.584387,176.000713L361.779501,177.258440L361.606128,178.047456L362.121148,183.066952L361.982102,184.214936L358.769249,194.635351L355.908019,200.557989L355.490486,202.121053L355.451757,202.638861L355.576251,202.959667L355.878787,203.150085L368.827303,206.015003L386.221303,206.146464L424.894086,193.088659L441.991052,191.168863L457.070183,194.724900L459.098077,194.657300L462.094255,193.656432L470.194763,187.683812L470.452057,187.358500L470.611174,187.043779L470.714928,186.708129L470.983900,185.283914L471.114025,184.938215L471.308910,184.609098L472.121723,183.835379L473.016557,183.538344L473.965284,183.614400L479.536710,186.414193L480.470059,186.544575L482.259024,186.346951L485.873723,185.182713L486.183395,183.591056L487.300795,182.559421L489.001046,181.978851L501.612540,182.215114L503.114895,182.667275L504.572481,183.636398L507.244374,186.363430L508.625129,187.330699L509.461555,187.634888L510.443964,187.789198L514.166691,187.477995L515.804813,186.851931L517.207929,185.874199L518.309956,184.514463L519.048728,182.746550L519.362812,180.540804L519.190500,177.867923L518.955828,176.769866L518.629171,175.978131L518.213275,175.439335L517.711611,175.100686L517.125902,174.910597L497.244060,172.436982L484.462148,175.106369L468.222843,174.398647L459.301945,171.810438L452.047067,172.174382L442.968559,172.542895L437.470283,175.428301L436.930219,175.575046L435.712352,175.904536L385.478692,173.924970L378.253520,177.711584L375.873931,177.900266L373.406151,177.343834L373.487496,177.382207L372.474046,177.131514Z " data-code="TIAN_SHAN" data-name="TIAN SHAN"/>
    <path d="M436.220521,313.717117L433.060522,312.193036L385.360291,268.882489L383.966161,267.505821L380.138724,263.688276L379.284977,263.202733L376.256314,263.294476L371.268711,263.426867L370.344566,263.776281L369.666763,264.394602L368.602029,265.659903L363.976672,269.736280L363.281754,270.908504L362.996827,272.302630L363.124119,273.214932L363.234249,273.999620L364.060807,275.971690L365.639129,277.970880L375.224042,289.816674L390.217382,302.720270L411.237125,319.817393L414.333802,323.231831L415.058352,323.616954L421.866784,324.687630L423.540837,325.540558L425.389269,326.891722L426.460525,327.395994L433.232238,329.028141L438.793488,331.979920L453.035358,335.220211L459.514073,336.631955L463.575237,335.948544L467.059064,334.617413L467.352121,334.504863L468.329600,334.428486L469.178599,334.571123L471.694155,335.779708L473.264198,336.529998L475.029740,337.045483L475.505686,337.066363L492.980514,337.704652L511.393183,335.129706L515.792140,332.980284L520.509550,328.495660L523.996580,325.143947L523.849278,324.853575L523.642355,324.445419L523.509044,323.890883L523.514740,323.442706L523.622913,322.718641L523.562452,322.368556L523.317192,321.977538L520.071720,319.251627L519.577198,318.539389L519.308519,317.761772L519.342296,316.916495L519.752742,316.001686L520.147595,315.541295L520.676305,315.120041L526.263669,312.203221L526.454200,311.969127L526.504881,311.672529L526.441954,311.449365L526.394525,311.281109L526.323827,311.156499L526.101069,310.763677L525.687404,310.250031L525.220067,309.862865L524.716213,309.597632L524.195008,309.450358L523.673563,309.417730L523.169952,309.494104L522.701341,309.677991L522.286865,309.963205L520.178861,312.307132L519.103894,312.918363L515.915454,314.721177L511.807603,316.024928L509.436433,317.829668L508.602147,318.115592L507.300784,318.223388L505.916214,318.044756L499.774059,316.177851L462.701478,313.496694L459.821854,314.009864L457.057017,315.099647L436.220521,313.717117Z " data-code="HIMALAYAS" data-name="HIMALAYAS"/>
  </g>
</svg>
