<?xml version="1.0" encoding="utf-8"?>
<!DOCTYPE svg PUBLIC "-//W3C//DTD SVG 1.1//EN" "http://www.w3.org/Graphics/SVG/1.1/DTD/svg11.dtd">
<svg xmlns="http://www.w3.org/2000/svg" xmlns:xlink="http://www.w3.org/1999/xlink" enable_background="new 0 0 1000 1640" height="1640px" pretty_print="False" style="stroke-linejoin: round; stroke:#000; fill: none;" version="1.1" viewBox="0 0 1000 1640" width="1000px">
  <defs>
    <style type="text/css"><![CDATA[path { fill-rule: evenodd; }]]></style>
  </defs>
  <metadata>
    <views>
      <view h="1640.77572027" padding="0" w="1000">
        <proj flip="auto" id="robinson" lon0="-64.0253434653"/>
        <bbox h="1133.59" w="691.31" x="-1204.37" y="-208.55"/>
      </view>
    </views>
  </metadata>
  <g class="" id="state">
    <path d="M572.188469,1629.373455L575.362164,1617.932533L547.802619,1612.201759L518.474130,1598.418494L502.034349,1581.128696L490.519631,1570.405403L512.862323,1621.814001L532.036768,1621.825675L543.089611,1622.439089L555.729314,1630.516000L572.188469,1629.373455Z M379.950973,836.630201L351.922731,830.727711L336.769927,852.628193L339.973058,858.698387L335.666476,883.887740L314.389639,895.850473L320.449404,936.287808L317.241805,944.099993L324.864689,953.623193L312.568845,968.710337L302.769020,991.449302L299.277094,1013.453926L305.609266,1036.860890L297.930469,1061.690285L316.233269,1103.422478L322.489524,1107.852480L327.462452,1130.219750L321.473351,1154.109635L326.862034,1174.686043L315.636179,1190.815629L321.494285,1213.505877L333.932235,1237.521668L324.486629,1246.406796L325.411955,1268.087019L328.249008,1292.638414L340.834179,1321.469906L334.576057,1326.254216L348.282357,1353.294675L360.067269,1362.166588L357.104426,1371.991431L367.672748,1376.686973L372.798268,1385.526937L365.966337,1389.979217L372.866204,1403.808837L377.030731,1435.138853L374.390769,1455.385102L381.049661,1467.376637L380.810303,1482.402559L370.522779,1492.801397L382.245388,1517.774568L392.299379,1526.278111L403.983862,1524.768569L410.957651,1542.275856L424.380020,1555.850820L469.932209,1558.957975L488.395307,1562.595144L496.582800,1563.767650L478.863511,1550.317254L463.154945,1526.068724L466.455109,1515.084215L479.885143,1505.803662L481.957939,1478.111461L499.502869,1464.746433L498.847482,1443.468829L479.142480,1438.673553L454.657187,1421.325504L454.241840,1403.600312L465.306979,1391.529840L483.410997,1391.462976L483.943236,1378.887616L479.356896,1355.326661L490.449778,1340.767434L506.173035,1333.490442L496.770287,1321.288759L488.283324,1328.699966L473.003198,1321.625515L463.397431,1298.152430L469.209378,1291.932237L490.528862,1300.583550L509.721588,1297.308303L519.226842,1288.934817L512.391385,1276.865356L511.812779,1258.784219L504.069474,1244.248169L526.462350,1246.709780L565.079621,1241.618355L591.625169,1228.458458L604.187973,1196.831346L602.792152,1184.762130L588.113725,1174.002479L587.552237,1157.018194L557.865853,1136.026718L556.822062,1123.297128L555.458841,1107.592969L558.879363,1102.194992L554.368801,1078.097200L555.607539,1053.280445L557.605492,1033.961853L580.138195,1000.984108L600.259887,977.457858L612.901862,967.583481L628.727063,954.208781L626.926807,934.827927L614.962022,920.818857L605.163794,925.469187L604.208409,946.887866L587.675661,965.475057L571.797467,969.372140L548.055100,965.670613L526.292999,959.067494L542.208145,922.178316L538.010138,911.468910L515.504280,901.985297L488.089608,884.069447L470.627296,880.381537L428.141189,840.827076L424.249012,835.639550L400.249049,834.637634L394.062023,854.135056L379.950973,836.630201Z " data-code="ar" data-name="Argentina" data-population="40913584.0"/>
    <path d="M518.376469,790.605581L524.520048,785.596206L521.315339,771.781375L526.185879,761.160872L528.339777,742.067935L522.123600,726.996322L510.034992,720.190030L507.002433,710.623732L509.015552,696.622348L468.369063,695.621349L458.075258,667.393042L464.231510,666.988390L463.208010,656.534042L458.585408,649.455943L456.717357,635.442775L443.920945,628.253387L430.573984,628.491404L421.333188,621.451143L406.666963,616.648261L397.745645,607.591235L373.690658,603.590129L349.313519,581.877321L350.137279,565.626307L347.036342,556.307620L348.418830,538.140306L320.720408,542.245379L309.943549,551.346999L291.828699,561.170526L287.479721,568.502459L276.544025,569.032342L260.593817,566.980454L281.370467,605.997806L277.347066,614.201730L277.500023,631.242381L278.641181,651.871257L271.331587,663.981793L275.882748,672.970498L271.725426,681.120013L282.658981,701.498296L271.808704,727.664042L283.777908,744.151169L288.340707,761.641870L300.423290,771.904122L296.175890,795.354553L310.253531,822.537384L322.032927,855.948835L336.769927,852.628193L351.922731,830.727711L379.950973,836.630201L394.062023,854.135056L400.249049,834.637634L424.249012,835.639550L428.141189,840.827076L433.616914,811.808815L432.932559,798.773450L441.060536,777.446473L477.114633,770.393566L496.695549,770.736762L517.374020,783.133922L518.376469,790.605581Z " data-code="bo" data-name="Bolivia" data-population="9775246.0"/>
    <path d="M530.963856,255.448964L525.744430,256.317091L513.927638,254.260770L506.891512,260.707833L497.159410,264.959524L490.382703,266.008040L487.972338,270.755803L477.473170,269.553203L464.420871,258.179242L463.016971,246.961863L457.731733,234.705355L461.530059,214.069451L467.648138,205.529086L463.000229,194.264060L455.739538,190.592354L458.786836,179.948332L453.955540,174.362465L442.811242,175.434165L445.464388,182.274326L437.410615,191.525627L413.264954,200.600286L397.792368,204.361557L391.484173,210.092091L374.613766,204.032720L358.851839,200.931002L354.787912,203.162085L364.213422,209.446317L362.996105,225.698369L365.682604,240.965145L383.781274,243.048400L384.858937,248.143168L369.468346,255.040581L366.854069,265.307150L357.997567,269.285750L342.021816,274.944857L337.823094,282.363389L321.165151,283.934284L309.476094,271.112824L305.407423,274.100532L301.390109,259.800873L295.550423,252.112375L288.352231,260.468566L246.644565,259.926770L246.739334,275.095181L259.264719,277.601849L258.479913,286.886915L254.211875,284.377742L242.131539,288.371373L241.995483,305.984433L251.522270,314.828545L254.971265,328.709794L254.578319,339.222516L246.320603,405.690077L227.013261,404.552613L224.246722,408.196757L206.850898,412.860613L182.901880,429.358585L181.720946,440.671884L176.555526,449.106440L179.157914,462.214887L166.509139,469.212568L166.936739,479.452273L161.483825,483.884379L171.315667,505.716638L183.862655,520.464738L179.870259,530.873421L194.093827,532.278947L202.826850,545.208845L221.669319,545.835188L238.435494,531.549877L238.971485,568.372180L248.820204,571.155633L260.593817,566.980454L276.544025,569.032342L287.479721,568.502459L291.828699,561.170526L309.943549,551.346999L320.720408,542.245379L348.418830,538.140306L347.036342,556.307620L350.137279,565.626307L349.313519,581.877321L373.690658,603.590129L397.745645,607.591235L406.666963,616.648261L421.333188,621.451143L430.573984,628.491404L443.920945,628.253387L456.717357,635.442775L458.585408,649.455943L463.208010,656.534042L464.231510,666.988390L458.075258,667.393042L468.369063,695.621349L509.015552,696.622348L507.002433,710.623732L510.034992,720.190030L522.123600,726.996322L528.339777,742.067935L526.185879,761.160872L521.315339,771.781375L524.520048,785.596206L518.376469,790.605581L525.753569,804.079554L527.260488,836.977118L549.798115,841.629895L557.928619,836.883188L572.656994,843.442205L577.221667,850.681708L581.206851,872.896174L584.540973,882.229847L592.430161,883.305028L599.888001,879.384102L607.821187,883.783728L609.108221,897.117733L607.747901,911.465149L605.163794,925.469187L614.962022,920.818857L626.926807,934.827927L628.727063,954.208781L612.901862,967.583481L600.259887,977.457858L580.138195,1000.984108L557.605492,1033.961853L570.539505,1031.386768L594.056336,1050.058991L601.564811,1049.354320L625.097723,1064.816133L643.280426,1078.163368L657.764837,1094.616444L650.714472,1106.108865L658.685674,1119.864226L669.770614,1105.977271L675.311719,1082.951054L687.429007,1071.653060L702.565640,1052.505957L719.566359,1009.982679L732.319170,996.657397L735.595816,984.833078L736.695708,960.333801L731.816322,946.934267L732.996036,928.812815L748.353533,904.744621L771.247337,885.431644L794.066736,878.347840L807.959621,867.561491L840.183794,858.246177L862.918014,858.303799L866.840151,843.775362L883.119622,833.272533L885.129338,808.243494L904.554640,776.607304L906.416030,744.203782L912.549673,734.639324L913.915946,718.655374L917.881665,681.287890L914.312546,635.864945L919.529914,618.029996L924.824771,617.556472L939.797693,596.541240L952.468251,569.137567L981.569489,535.408180L992.037596,519.581583L999.695080,479.506139L995.877612,464.839331L988.106347,433.973598L980.238754,426.327008L961.938589,425.354899L945.356715,418.362537L917.638627,391.204958L885.747569,371.142791L853.783687,372.087335L811.977590,359.265852L787.175881,366.737011L790.532324,353.317990L779.952976,339.112278L744.293308,324.307780L717.310326,315.595201L701.129438,331.502079L700.253210,307.204570L662.397614,303.397593L655.740407,296.090553L671.922935,276.134929L671.478801,259.401259L660.069958,255.399482L648.679573,213.005272L643.640532,199.597489L636.330688,200.743095L623.265817,222.927373L616.417616,240.778491L608.093372,249.986529L597.822168,251.719025L594.989527,244.894894L590.215072,243.881452L583.503024,250.454415L574.219647,245.453602L562.030184,240.316868L551.887275,242.795353L543.280153,240.641320L541.039686,247.660875L544.568280,252.480045L542.580580,257.433254L530.963856,255.448964Z " data-code="br" data-name="Brazil" data-population="198739269.0"/>
    <path d="M529.136747,1638.775720L541.240965,1631.686591L543.089611,1622.439089L532.036768,1621.825675L512.862323,1621.814001L490.519631,1570.405403L476.390016,1567.670121L463.699639,1577.228392L464.769560,1593.027546L460.201476,1603.576763L432.499694,1595.320606L400.001997,1579.914181L382.783445,1575.060480L419.713200,1600.891565L443.854230,1613.237032L472.353342,1626.031741L492.592569,1629.337574L508.684181,1636.203052L520.066114,1638.050128L529.136747,1638.775720Z M310.253531,822.537384L296.175890,795.354553L300.423290,771.904122L288.340707,761.641870L283.777908,744.151169L271.808704,727.664042L267.378188,740.092419L257.154520,746.280736L265.045317,780.421105L270.734604,820.089095L270.281989,874.278152L270.166750,924.660256L273.617475,971.600600L266.625902,1001.194343L274.675059,1031.048460L272.514258,1050.965698L284.881944,1087.146301L284.439369,1123.288322L279.838270,1162.451585L277.637445,1202.321254L269.420334,1203.124153L278.593280,1230.892047L291.106009,1254.762712L286.959850,1271.321792L294.455096,1315.428239L299.947185,1348.996816L313.333845,1352.293160L309.303913,1323.025679L324.500210,1329.271447L331.273581,1377.799304L306.902214,1369.552202L314.565890,1408.607455L304.198028,1429.517131L335.595842,1436.428894L322.533717,1454.753875L323.441754,1477.553486L342.358866,1517.764864L358.357816,1533.343233L359.155065,1547.016721L371.514848,1561.743726L400.222784,1575.004500L400.222776,1575.004481L428.322752,1591.082442L452.119100,1598.566999L459.521759,1598.033149L452.872277,1576.487777L465.691340,1568.125020L472.063984,1562.421278L488.395307,1562.595144L469.932209,1558.957975L424.380020,1555.850820L410.957651,1542.275856L403.983862,1524.768569L392.299379,1526.278111L382.245388,1517.774568L370.522779,1492.801397L380.810303,1482.402559L381.049661,1467.376637L374.390769,1455.385102L377.030731,1435.138853L372.866204,1403.808837L365.966337,1389.979217L372.798268,1385.526937L367.672748,1376.686973L357.104426,1371.991431L360.067269,1362.166588L348.282357,1353.294675L334.576057,1326.254216L340.834179,1321.469906L328.249008,1292.638414L325.411955,1268.087019L324.486629,1246.406796L333.932235,1237.521668L321.494285,1213.505877L315.636179,1190.815629L326.862034,1174.686043L321.473351,1154.109635L327.462452,1130.219750L322.489524,1107.852480L316.233269,1103.422478L297.930469,1061.690285L305.609266,1036.860890L299.277094,1013.453926L302.769020,991.449302L312.568845,968.710337L324.864689,953.623193L317.241805,944.099993L320.449404,936.287808L314.389639,895.850473L335.666476,883.887740L339.973058,858.698387L336.769927,852.628193L322.032927,855.948835L310.253531,822.537384Z " data-code="cl" data-name="Chile" data-population="16601707.0"/>
    <path d="M215.484066,0.000000L204.412290,11.678187L195.772055,17.097923L178.254770,29.338492L161.720599,27.315414L159.714559,32.368097L146.267587,32.828456L133.372077,44.077519L128.283916,64.560410L127.645995,72.578287L118.729873,75.158219L101.873590,92.080353L90.886365,91.310565L88.123851,94.855099L92.410767,109.133485L88.064414,116.338464L81.259384,114.598445L78.012792,126.381481L86.134938,139.293863L88.734214,159.796482L83.924759,166.160919L88.007916,188.337468L83.541891,202.406699L91.261445,208.175441L82.730468,220.892970L73.356166,236.126554L62.702883,237.751945L57.503804,246.532184L58.240602,258.675941L50.224816,260.494873L53.025960,268.020515L74.302915,281.862306L78.298250,281.475220L83.455260,291.904007L101.616515,295.267525L107.711643,291.410440L118.203543,299.440292L127.375665,305.181448L133.082281,302.882731L147.353995,314.363790L154.267232,325.806018L164.239759,332.052017L177.222348,357.468214L193.217373,360.504781L204.898693,354.094670L212.702030,358.288739L225.512964,356.205484L242.115168,367.557536L228.871701,392.228424L235.275819,392.803418L246.320603,405.690077L254.578319,339.222516L254.971265,328.709794L251.522270,314.828545L241.995483,305.984433L242.131539,288.371373L254.211875,284.377742L258.479913,286.886915L259.264719,277.601849L246.739334,275.095181L246.644565,259.926770L288.352231,260.468566L295.550423,252.112375L301.390109,259.800873L305.407423,274.100532L309.476094,271.112824L303.263751,246.937435L297.721380,238.461605L290.056971,233.119425L301.155243,221.052065L300.542324,215.624693L294.632139,208.421599L290.747035,192.314210L292.916200,174.928693L297.931615,166.789784L302.190301,153.733323L294.768381,149.567406L282.496903,152.332157L267.147205,151.034340L258.423458,153.626842L244.114957,132.766578L231.821303,129.678005L204.265012,132.009311L199.505693,123.553475L194.329772,121.532845L193.783519,116.473131L196.694973,107.500575L195.435834,97.740085L190.969138,92.406683L188.758557,81.262001L177.826513,79.638500L184.457847,65.462976L188.000975,48.165644L194.707340,39.156992L203.360378,32.206501L209.500334,20.086822L223.425735,16.023748L228.078247,7.861880L222.918223,1.485066L215.484066,0.000000Z " data-code="co" data-name="Colombia" data-population="45644023.0"/>
    <path d="M127.375665,305.181448L118.203543,299.440292L107.711643,291.410440L101.616515,295.267525L83.455260,291.904007L78.298250,281.475220L74.302915,281.862306L53.025960,268.020515L38.200051,277.668242L26.425869,282.868230L27.864289,292.760858L19.754860,308.373345L15.901446,323.474730L8.435228,327.130130L12.355736,349.131438L8.137747,355.964964L21.183276,366.587938L29.130024,355.331093L33.978487,365.917739L23.032426,384.034436L25.851565,394.126283L19.919867,399.898783L20.775747,408.781774L29.555624,406.851342L38.278560,409.472020L47.655061,421.712299L59.420481,411.740686L62.972417,395.385259L75.529928,374.293357L101.053582,364.733928L123.957818,339.351545L130.452210,323.589979L127.375665,305.181448Z " data-code="ec" data-name="Ecuador" data-population="14573101.0"/>
    <path d="M661.817616,1534.666233L653.983205,1544.002355L636.304899,1538.169935L619.253069,1552.153094L632.236479,1562.608048L644.006317,1552.153094L655.157355,1560.287078L677.413758,1553.316109L680.117719,1545.167786L661.817616,1534.666233Z " data-code="fk" data-name="Falkland Is." data-population="3140.0"/>
    <path d="M519.974305,156.698508L511.770164,148.259568L500.664588,136.433908L492.632887,135.859537L492.422273,123.377469L479.739721,107.583881L466.043736,98.667089L448.621782,112.907282L446.453770,121.745807L453.470035,130.741561L448.021226,135.282661L434.753392,139.173602L434.838118,150.367894L428.853136,157.039874L442.811242,175.434165L453.955540,174.362465L458.786836,179.948332L455.739538,190.592354L463.000229,194.264060L467.648138,205.529086L461.530059,214.069451L457.731733,234.705355L463.016971,246.961863L464.420871,258.179242L477.473170,269.553203L487.972338,270.755803L490.382703,266.008040L497.159410,264.959524L506.891512,260.707833L513.927638,254.260770L525.744430,256.317091L530.963856,255.448964L518.189971,234.373387L515.620975,220.687526L508.770853,220.659340L499.650417,203.054978L503.880791,190.547883L502.860460,184.831118L515.996023,178.505828L519.974305,156.698508Z " data-code="gy" data-name="Guyana" data-population="772298.0"/>
    <path d="M246.320603,405.690077L235.275819,392.803418L228.871701,392.228424L242.115168,367.557536L225.512964,356.205484L212.702030,358.288739L204.898693,354.094670L193.217373,360.504781L177.222348,357.468214L164.239759,332.052017L154.267232,325.806018L147.353995,314.363790L133.082281,302.882731L127.375665,305.181448L130.452210,323.589979L123.957818,339.351545L101.053582,364.733928L75.529928,374.293357L62.972417,395.385259L59.420481,411.740686L47.655061,421.712299L38.278560,409.472020L29.555624,406.851342L20.775747,408.781774L19.919867,399.898783L25.851565,394.126283L23.032426,384.034436L6.417298,399.343831L0.304920,416.321864L11.484066,439.442967L4.978006,450.261447L20.593697,460.075244L37.850387,475.897065L45.368122,493.750750L54.622923,504.798402L77.378435,553.065679L101.292510,597.790171L121.695744,629.602567L118.774079,636.587771L129.269859,656.614219L146.968555,671.557338L187.453734,698.071854L231.760517,722.414958L234.589330,732.361850L257.154520,746.280736L267.378188,740.092419L271.808704,727.664042L282.658981,701.498296L271.725426,681.120013L275.882748,672.970498L271.331587,663.981793L278.641181,651.871257L277.500023,631.242381L277.347066,614.201730L281.370467,605.997806L260.593817,566.980454L248.820204,571.155633L238.971485,568.372180L238.435494,531.549877L221.669319,545.835188L202.826850,545.208845L194.093827,532.278947L179.870259,530.873421L183.862655,520.464738L171.315667,505.716638L161.483825,483.884379L166.936739,479.452273L166.509139,469.212568L179.157914,462.214887L176.555526,449.106440L181.720946,440.671884L182.901880,429.358585L206.850898,412.860613L224.246722,408.196757L227.013261,404.552613L246.320603,405.690077Z " data-code="pe" data-name="Peru" data-population="29546963.0"/>
    <path d="M518.376469,790.605581L517.374020,783.133922L496.695549,770.736762L477.114633,770.393566L441.060536,777.446473L432.932559,798.773450L433.616914,811.808815L428.141189,840.827076L470.627296,880.381537L488.089608,884.069447L515.504280,901.985297L538.010138,911.468910L542.208145,922.178316L526.292999,959.067494L548.055100,965.670613L571.797467,969.372140L587.675661,965.475057L604.208409,946.887866L605.163794,925.469187L607.747901,911.465149L609.108221,897.117733L607.821187,883.783728L599.888001,879.384102L592.430161,883.305028L584.540973,882.229847L581.206851,872.896174L577.221667,850.681708L572.656994,843.442205L557.928619,836.883188L549.798115,841.629895L527.260488,836.977118L525.753569,804.079554L518.376469,790.605581Z " data-code="py" data-name="Paraguay" data-population="6995655.0"/>
    <path d="M565.194255,155.434515L547.867640,157.183937L545.455100,161.553420L519.974305,156.698508L515.996023,178.505828L502.860460,184.831118L503.880791,190.547883L499.650417,203.054978L508.770853,220.659340L515.620975,220.687526L518.189971,234.373387L530.963856,255.448964L542.580580,257.433254L544.568280,252.480045L541.039686,247.660875L543.280153,240.641320L551.887275,242.795353L562.030184,240.316868L574.219647,245.453602L579.826653,235.259053L581.891099,224.171315L585.820341,213.741241L577.707559,199.376385L576.381101,182.791697L588.009732,161.949279L565.194255,155.434515Z " data-code="sr" data-name="Suriname" data-population="481267.0"/>
    <path d="M658.685674,1119.864226L650.714472,1106.108865L657.764837,1094.616444L643.280426,1078.163368L625.097723,1064.816133L601.564811,1049.354320L594.056336,1050.058991L570.539505,1031.386768L557.605492,1033.961853L555.607539,1053.280445L554.368801,1078.097200L558.879363,1102.194992L555.458841,1107.592969L556.822062,1123.297128L571.719669,1136.785464L585.292053,1136.001471L605.949456,1146.506827L616.395043,1143.881371L632.208323,1148.782184L652.588605,1135.179797L658.685674,1119.864226Z " data-code="uy" data-name="Uruguay" data-population="3494382.0"/>
    <path d="M466.043736,98.667089L457.895575,92.952863L446.754034,93.500296L444.130220,74.079019L428.479166,62.158999L411.513198,60.337586L404.768984,48.894705L423.208437,41.735007L397.663719,42.071978L371.202719,43.533856L370.653722,49.638172L358.330476,57.210645L342.176472,54.214849L330.525199,43.359107L307.633883,45.850063L288.515632,45.637107L288.115687,37.611186L275.050157,24.093522L260.144573,23.700180L253.559627,6.666190L245.615935,14.313835L247.867744,25.739543L220.771650,35.593746L220.824150,53.944896L226.985834,62.475930L221.330393,79.997399L212.060218,81.571418L204.946687,62.338760L215.103175,48.258969L216.081757,35.581845L209.794120,24.580814L222.464175,21.751635L223.425735,16.023748L209.500334,20.086822L203.360378,32.206501L194.707340,39.156992L188.000975,48.165644L184.457847,65.462976L177.826513,79.638500L188.758557,81.262001L190.969138,92.406683L195.435834,97.740085L196.694973,107.500575L193.783519,116.473131L194.329772,121.532845L199.505693,123.553475L204.265012,132.009311L231.821303,129.678005L244.114957,132.766578L258.423458,153.626842L267.147205,151.034340L282.496903,152.332157L294.768381,149.567406L302.190301,153.733323L297.931615,166.789784L292.916200,174.928693L290.747035,192.314210L294.632139,208.421599L300.542324,215.624693L301.155243,221.052065L290.056971,233.119425L297.721380,238.461605L303.263751,246.937435L309.476094,271.112824L321.165151,283.934284L337.823094,282.363389L342.021816,274.944857L357.997567,269.285750L366.854069,265.307150L369.468346,255.040581L384.858937,248.143168L383.781274,243.048400L365.682604,240.965145L362.996105,225.698369L364.213422,209.446317L354.787912,203.162085L358.851839,200.931002L374.613766,204.032720L391.484173,210.092091L397.792368,204.361557L413.264954,200.600286L437.410615,191.525627L445.464388,182.274326L442.811242,175.434165L428.853136,157.039874L434.838118,150.367894L434.753392,139.173602L448.021226,135.282661L453.470035,130.741561L446.453770,121.745807L448.621782,112.907282L466.043736,98.667089Z " data-code="ve" data-name="Venezuela" data-population="26814843.0"/>
  </g>
</svg>
