<?xml version="1.0" encoding="utf-8"?>
<!DOCTYPE svg PUBLIC "-//W3C//DTD SVG 1.1//EN" "http://www.w3.org/Graphics/SVG/1.1/DTD/svg11.dtd">
<svg xmlns="http://www.w3.org/2000/svg" xmlns:xlink="http://www.w3.org/1999/xlink" enable_background="new 0 0 1000 512" height="512px" pretty_print="False" style="stroke-linejoin: round; stroke:#000; fill: none;" version="1.1" viewBox="0 0 1000 512" width="1000px">
  <defs>
    <style type="text/css"><![CDATA[path { fill-rule: evenodd; }]]></style>
  </defs>
  <metadata>
    <views>
      <view h="512.450680952" padding="0.01" w="1000">
        <proj id="laea" lat0="48.3308361852" lon0="17.1835880096"/>
        <bbox h="24.02" w="46.96" x="996.76" y="983.59"/>
      </view>
    </views>
  </metadata>
  <g class="" id="bg">
    <path d="M-5000.0,-5000.0L-5000.0,5000.0L5000.0,5000.0L5000.0,-5000.0L-5000.0,-5000.0Z "/>
  </g>
  <g class="" id="region_cz">
    <path d="M83.666094,433.655057L83.678667,433.568465L84.641647,426.933039L87.871997,423.005383L88.804281,422.319654L90.650959,421.280088L91.193671,420.737101L91.382982,420.154001L91.055142,419.056692L90.863340,418.040484L90.888080,416.481798L91.158932,415.952787L91.566208,415.803048L92.028500,416.073363L92.870567,415.990628L94.092167,415.459897L96.750069,413.232077L98.676006,412.021828L99.416738,411.274779L99.488534,410.989998L99.197760,410.489157L98.980008,410.259222L98.671889,410.097244L98.373031,410.030113L95.576439,410.272940L95.196060,410.172011L94.815423,409.928760L93.863251,408.961421L92.449489,407.906701L92.258898,407.588514L92.203775,407.093904L92.257004,406.450026L92.472371,405.365388L92.525545,404.701178L92.470265,404.111695L91.463298,402.466606L91.571270,402.100488L91.923709,401.869505L92.547891,401.854912L96.675047,402.843488L98.638092,402.758105L99.361424,402.560011L101.077662,401.404086L102.404377,400.133686L103.135619,399.555870L103.867346,399.194870L104.518124,399.023787L105.629411,398.573608L106.116301,398.016609L106.332085,397.548428L106.276851,397.189410L106.058681,396.769841L105.704722,396.289641L104.834103,395.322861L104.615903,394.862608L104.451896,394.375106L104.368645,393.643430L104.877126,391.012733L105.309252,390.347476L105.904660,389.918954L106.608896,389.639198L107.691516,388.938183L108.242295,388.753646L108.585959,388.833980L108.731738,389.240164L108.805279,389.666887L109.005325,390.079688L109.297301,391.014026L108.524029,392.439396L108.326699,392.982104L108.382184,393.415657L108.581862,393.686153L109.070625,393.874484L111.431138,394.124899L112.246045,394.501850L113.578535,395.541200L114.339064,395.836880L115.179937,395.813738L119.819976,393.716804L125.335185,389.371552L127.284733,388.739886L128.217136,389.088258L128.865270,388.495842L129.456781,387.375054L130.555307,384.496762L130.793709,383.275855L130.790019,382.462654L130.517487,382.125048L130.162333,381.489629L129.944729,381.307632L129.646562,381.288634L128.906904,381.522323L128.507627,381.103913L128.123999,380.122948L128.454690,377.254916L128.485686,376.082393L128.102581,375.189524L124.484369,373.530888L123.698335,373.371426L123.263353,372.953005L122.907976,372.114093L122.546572,369.730087L122.703889,368.428323L123.536627,366.805357L128.329675,361.025001L118.849742,353.398502L117.784490,350.434128L117.809582,349.891895L117.915430,349.254497L119.213674,346.986321L120.687199,343.551743L121.087014,342.113536L121.083013,341.069925L120.675755,340.542890L120.186004,339.623100L119.615563,338.778138L118.629948,337.636495L118.069793,337.096385L117.384492,336.793885L116.384988,336.736413L115.843245,336.277468L115.137988,335.371789L112.202821,329.512730L111.416135,328.268276L110.062435,326.889962L108.869477,325.016337L108.273934,324.360719L106.615255,323.010039L106.289939,322.441683L106.369390,321.899325L106.718677,321.383330L107.120486,320.365699L107.038011,319.810235L106.497627,319.479669L103.395490,319.386179L102.666794,319.211796L102.180536,318.901253L101.180256,317.914234L99.910524,316.961634L99.423886,316.413805L99.045639,316.089354L98.685682,315.900389L98.290070,315.847024L95.908194,315.892552L93.668485,315.022540L93.070140,312.075713L94.547242,309.064184L97.153028,304.898179L98.012748,303.730789L98.711641,303.004181L100.334522,301.923063L90.882602,292.548788L91.767509,290.487233L91.710958,288.833804L93.646752,287.834302L94.049704,287.460855L94.344818,286.985943L95.549285,283.703731L95.898139,283.269341L96.489738,283.173294L97.054736,283.226364L97.646410,283.170927L98.157035,282.952994L98.720629,282.362206L101.785913,278.194278L102.695665,276.382671L103.682751,273.371321L103.595832,270.904809L103.161137,269.035527L102.513200,267.803771L101.839172,266.843116L101.111768,265.990980L100.492740,265.497722L99.874142,265.173853L98.064236,264.642462L97.714449,264.365355L97.364493,264.000142L96.907159,263.655469L96.074063,263.433509L94.947745,264.370874L93.420129,266.325371L88.541893,274.295780L88.372175,274.675514L88.184338,274.919737L87.915668,275.035309L87.566273,275.096770L87.216972,275.232766L86.169484,276.013416L85.390705,276.766566L84.961149,277.315976L84.692881,277.858416L84.317639,278.956658L84.022339,279.424570L83.673128,279.790881L82.329370,280.713845L80.743181,281.420018L79.990482,281.922091L79.336554,282.708673L78.638309,284.389779L77.885517,285.149248L76.540544,285.536266L74.388247,285.638825L71.267436,286.520497L68.917531,287.977534L61.703971,291.112695L60.681015,291.355991L58.976795,290.799016L51.365002,287.131183L49.096789,286.504378L48.047340,286.570466L48.556591,287.797880L48.743929,288.441968L48.635596,288.875506L48.070278,288.989797L40.229401,289.320262L29.715034,292.538762L29.128193,292.612762L28.750427,293.951949L25.886786,296.965236L23.006355,299.279845L21.704666,301.748726L20.775935,305.235379L16.204894,311.791247L14.428995,315.314694L13.694152,319.059192L12.087156,333.053217L11.629941,334.704773L11.194459,335.482201L10.883134,336.673550L10.762364,339.553162L11.295713,341.134507L12.643036,341.960336L16.153921,342.347626L17.142324,342.934364L18.973926,344.459463L20.750128,346.465257L21.535417,348.548592L21.134707,349.712746L20.444240,351.228214L20.114857,352.555245L20.869986,353.100173L21.336679,353.657571L21.926895,354.974394L22.480494,356.480812L22.692674,357.674275L23.264367,359.221384L24.596085,360.086603L26.180923,360.823759L28.105460,362.591859L29.186731,362.967908L29.833477,363.877944L29.992467,365.016915L29.748922,368.018297L29.817368,369.272205L32.516563,378.699699L33.334502,383.445684L33.337120,389.131392L34.573623,393.221083L38.974312,398.084075L41.376862,399.566713L44.179951,400.006073L46.023070,401.195397L48.639502,405.990618L49.469088,407.510204L51.746459,409.959863L49.950915,412.173316L49.041477,414.828417L48.037518,419.706071L48.725280,420.140878L50.824427,421.899181L49.875828,426.201025L53.897096,428.415600L59.569790,430.447361L63.665768,434.143171L70.067799,430.254758L76.396188,431.622066L83.666094,433.655057Z " data-code="sk-bl" data-name="Bratislavský"/>
    <path d="M554.590868,188.890981L552.275556,187.253274L551.524446,187.185799L550.590906,187.247014L547.627422,188.833254L545.578548,189.110820L545.129960,189.276205L528.621800,189.494875L523.741143,188.307540L522.128624,188.322282L514.328937,190.893242L512.302698,192.127770L511.662078,192.162815L510.985412,191.921004L510.075327,191.096994L509.601526,190.522844L509.077297,190.038515L508.425910,189.748269L506.701798,189.357965L506.048924,189.020187L505.070070,187.987914L503.728017,187.015004L492.531924,183.256097L479.418790,182.042936L450.654394,187.855231L445.107842,195.146809L441.533918,197.363331L439.758299,199.840427L439.492109,200.837744L439.298378,202.511011L439.152821,203.043912L438.924382,203.484211L438.588980,203.927495L437.698895,204.630311L436.762853,204.968233L429.760592,206.259306L429.225027,206.246776L428.899508,206.086141L429.270808,204.984510L429.449085,204.654231L429.686389,204.525730L430.299127,204.427657L430.482573,204.287052L430.518578,203.648777L430.411612,202.675424L430.060165,200.590098L429.686521,199.644357L429.269668,199.072667L428.727734,198.816233L428.425241,198.512593L428.132490,197.584955L427.880161,197.157908L426.507655,197.167968L398.105270,202.027002L389.904452,201.753892L388.029468,206.436080L387.537080,207.098722L386.728928,207.985854L383.901474,209.490542L383.541860,210.122753L383.589611,211.002883L384.603353,214.219116L384.800531,215.746466L384.666532,216.861411L384.021535,217.886827L383.527355,218.501892L383.332251,219.306439L383.520610,220.467952L384.555463,222.300797L386.908579,224.346074L387.158067,224.692599L387.285416,225.530142L387.236066,226.819340L386.747694,229.915501L386.384056,231.517273L384.130180,235.936656L369.404889,235.410357L366.468027,234.785058L366.379557,234.427767L365.961300,233.711807L365.632437,233.393783L365.411078,233.086907L365.160507,232.672220L365.014704,232.146733L364.788531,231.623037L364.484722,231.223083L362.383126,231.947576L355.091722,237.326246L355.022263,239.076615L354.818469,239.575838L354.484112,240.240549L353.912925,241.120469L351.941506,245.527982L349.623443,249.264639L349.015238,249.697730L348.215751,249.972126L345.668794,250.120266L344.713296,250.641719L343.904248,251.756577L339.949630,259.680330L339.296158,260.568029L336.868915,262.759058L336.291426,263.434943L336.007425,264.010023L336.429554,266.292632L336.423961,267.350167L335.274144,267.644338L334.307750,267.704293L324.765647,265.342324L320.289750,272.124344L317.766157,275.194734L316.981157,276.361639L316.539243,277.183225L316.285110,277.980980L316.186493,278.464055L316.194295,278.884153L316.228861,279.296977L316.236287,279.696748L316.190808,280.144947L315.631056,281.876948L315.531000,282.285484L315.487993,282.869196L298.534298,285.320219L296.642705,289.588803L299.239422,293.428034L300.438335,294.241001L300.775986,295.075612L300.409882,295.705530L297.905916,298.886843L296.836811,300.958818L296.637509,301.911121L297.074513,302.256123L301.287375,301.248223L302.822679,301.221452L304.295348,301.717512L304.900993,302.445637L305.272285,303.632007L305.240462,304.879721L305.126715,306.067879L304.860351,307.773856L304.953881,308.490674L305.257279,308.878441L306.258061,309.064065L306.371161,309.360290L306.163968,309.838426L304.742474,311.788505L304.289064,312.582734L304.193539,314.306022L304.757860,315.719469L306.261059,318.349882L306.691853,319.819845L306.719663,321.385072L306.556934,322.858789L306.733973,323.709676L307.118212,324.068862L307.631823,324.113945L308.419254,324.377790L309.383456,325.465338L310.751435,327.975708L311.515110,331.384827L311.768773,333.461100L311.638179,335.198649L311.262026,336.805075L310.825885,338.087223L310.143376,339.197559L309.561270,339.885818L308.416633,340.855226L308.128284,341.355166L307.977656,342.001762L307.854875,342.695307L307.514712,343.324938L307.092970,343.928894L305.660218,345.452182L304.816505,346.666740L306.625317,349.576488L307.410715,349.643897L307.957903,348.481904L308.434785,347.931162L309.632648,346.879476L309.975488,346.398860L311.077956,344.569275L312.508031,342.936991L314.691831,342.144801L325.583398,340.239512L331.139734,338.315447L331.557823,337.588766L331.708184,336.989330L331.745458,336.134534L331.864667,335.325579L332.604110,334.463766L332.952924,333.887521L333.156371,333.246351L333.215806,332.608018L333.422027,332.109132L334.408308,330.998318L335.006984,329.868018L335.479503,329.187570L337.939465,326.637179L339.545758,324.632307L340.504192,323.975733L341.280294,323.648162L343.342042,324.155117L348.497582,331.477696L353.095808,335.197279L354.203355,336.461676L361.378117,352.019975L360.079037,359.477615L359.748471,360.460901L359.234018,361.705742L357.142415,363.892823L355.223761,366.604604L354.601210,367.892223L354.512639,368.822769L356.146158,370.489387L356.154837,370.895917L355.919393,371.287324L355.282104,371.890649L355.188206,372.570506L355.506561,373.526282L356.996943,376.070301L357.737802,377.762620L357.781896,378.554770L357.547515,379.000410L356.716640,379.438482L356.004916,380.382353L354.889516,381.470339L353.961042,382.859305L353.714100,384.003329L353.746746,385.548146L354.027958,386.877568L354.376062,387.947981L354.934646,388.708883L355.375916,389.051988L355.839131,389.150583L356.270764,389.039701L356.696751,388.664560L357.037761,388.121760L357.424987,387.205136L357.848267,386.708000L358.411122,386.397650L359.169238,386.340654L360.038409,386.403229L361.019248,386.612456L361.759976,387.003082L365.189506,389.619183L366.040618,390.081717L366.776893,390.255254L367.265405,390.264776L368.210956,390.087882L368.726729,390.103522L370.145749,390.478577L371.016161,390.581095L371.882020,390.480296L373.551207,389.913889L374.345317,389.841668L375.432944,389.952528L375.757386,389.904465L375.916520,389.744924L376.018338,389.451111L376.087944,388.934332L376.285683,388.089242L376.803122,386.992801L377.329156,386.275757L377.889071,385.856183L379.181402,385.446836L379.825038,385.133711L380.465041,384.664723L381.863860,384.178077L383.034496,383.988106L383.948351,383.641352L386.357105,382.296731L389.266958,381.522736L389.884370,381.263973L390.369838,381.157474L391.404352,381.336084L392.000797,381.335329L392.874629,381.219405L393.730265,380.724234L394.634781,380.010892L397.389029,377.340712L399.810971,379.938769L400.038382,380.367040L400.271808,381.039211L400.228617,381.487701L400.247952,382.273611L400.206087,382.776302L400.029717,383.322980L399.271388,384.466966L398.937807,385.241199L398.611479,386.313527L398.170572,388.249603L398.259388,389.664274L399.434521,394.441903L399.397469,396.252850L398.817459,398.063546L397.583924,399.802042L396.580806,400.978926L395.809942,401.662002L394.954800,402.231826L394.318988,402.891207L393.847753,403.621159L393.354110,404.927854L391.442638,407.909050L391.137843,408.797612L391.269385,412.034847L391.508152,414.449255L391.518014,414.548962L394.964084,414.630348L405.410779,412.834928L427.208616,414.937805L429.117713,414.493738L439.399627,407.476101L463.050932,407.306861L472.226275,400.349926L472.457084,398.986938L472.506168,397.602272L472.373178,396.182381L472.058983,394.754357L471.999472,394.579850L471.958449,394.418350L471.990965,394.295330L472.041563,394.171768L473.996241,389.963471L475.334708,379.766014L477.133497,375.894097L480.095246,374.047629L496.026506,369.258262L497.887309,369.259968L499.654380,369.718744L501.694151,371.348390L505.637496,375.933535L507.418744,376.790953L515.420006,374.954170L519.541094,375.494676L522.774112,379.169827L522.951250,381.740759L522.033890,384.036685L521.674759,386.266280L523.402993,388.696732L525.073056,388.857192L531.297557,386.223612L535.645775,387.450034L542.508302,393.259393L546.191585,394.526274L550.259778,392.862188L557.908721,385.159910L561.846338,382.513461L568.416540,380.181891L568.983344,379.803509L575.773382,375.267120L579.028780,373.861944L580.429434,372.662396L581.621655,370.270123L582.397992,365.519708L583.013039,363.651264L585.095732,360.966712L586.581158,360.611016L588.392273,361.205699L591.470944,361.411673L594.341817,359.997177L599.414814,354.913618L601.345328,353.968827L604.894603,355.590988L606.946793,357.686198L609.092618,358.502088L612.992991,356.255078L617.849375,350.928716L621.934334,344.058472L625.258355,336.343321L631.151147,315.256809L632.992091,311.102005L635.450961,307.544797L640.492026,301.711669L640.389704,301.642496L637.389177,299.613379L633.584782,299.808937L632.338331,300.316184L629.393417,302.136249L627.969652,302.284189L625.233817,302.025465L617.924640,302.952396L617.139070,302.876166L617.072947,302.580406L617.190626,302.161771L617.387701,301.705952L617.690534,301.198293L617.807899,300.772880L617.382758,300.274817L614.253675,298.517314L613.384372,297.704899L612.919565,296.889502L612.946028,296.216858L613.053521,295.547689L612.995891,294.797074L612.778145,294.086910L612.136237,292.892061L611.883358,291.979815L611.785897,290.911998L612.040840,289.232876L612.446261,287.941049L613.038796,286.614430L613.946776,285.098502L614.369143,284.009413L615.378260,277.754302L615.774532,276.259207L616.138140,275.280992L616.560186,274.415680L616.990554,273.753517L617.287903,273.130739L617.522243,272.286692L618.053179,268.852618L618.462748,267.044816L618.364781,266.628279L617.976676,266.352615L616.420745,265.813036L614.937439,265.073575L614.338486,264.901438L612.438659,264.714689L611.187712,264.385899L609.596894,263.636683L608.927557,263.053384L608.612325,262.577781L608.561228,261.982916L608.619742,261.437868L608.761553,260.957270L608.903353,260.476670L607.526095,255.702793L603.505025,245.330779L602.479643,243.438812L593.302588,236.417908L592.900124,236.196411L590.945549,235.866518L589.526519,234.592846L588.793750,233.020824L588.055657,229.943170L587.940895,228.387593L588.029045,227.217478L588.404138,226.524485L588.964508,225.769944L589.840795,224.867299L590.629676,223.791675L591.307580,222.625414L591.173144,221.260550L590.562269,218.693527L590.507915,216.640424L590.514799,214.103317L590.596104,213.448946L590.617730,212.640918L590.406596,211.367256L591.095227,209.813922L598.716576,197.274025L602.577801,195.911222L595.376422,192.055650L594.080755,191.096554L593.125993,190.632539L589.707971,189.655363L586.492213,188.140334L585.344809,188.205611L582.767422,190.686929L579.509644,191.057456L554.590868,188.890981Z " data-code="sk-bc" data-name="Banskobystrický"/>
    <path d="M454.874412,10.141434L453.928735,9.784753L452.958320,10.247372L452.347314,11.567143L438.078789,28.291873L436.826742,29.439164L434.444977,30.482488L432.694173,30.816245L427.451215,30.907377L424.199071,31.701540L421.457215,33.145455L419.041021,35.583365L416.818754,39.371481L414.317896,47.952711L414.625268,48.242859L415.192290,49.014219L415.560341,50.251834L415.201953,52.010402L414.459581,52.599534L412.364409,52.709061L411.873957,52.830423L410.810716,57.969837L410.456141,61.246694L409.277165,63.379013L404.077058,65.628507L399.813178,66.591307L398.046307,66.513890L396.384788,65.715023L392.936582,63.319860L391.353733,62.816695L387.654887,63.788682L381.152369,67.795971L376.838715,68.237198L373.490086,67.691982L372.468415,64.760253L372.971590,56.126140L372.439845,52.247583L371.528783,48.716744L371.265250,44.981073L372.658200,40.529080L367.659691,37.621294L350.766175,36.438296L343.801806,36.776721L340.642304,38.062986L333.787437,44.656668L329.021047,45.023618L324.060667,43.603231L318.424936,40.892552L317.240844,40.671128L316.066114,40.937425L311.255822,43.603168L303.700133,42.643206L300.236320,44.928095L299.394228,47.098277L299.058192,51.984119L298.235647,54.302981L296.851177,55.764053L291.298683,58.882464L284.183809,67.920707L280.396911,70.503647L275.403492,69.458255L275.345882,72.640160L275.177542,81.918797L271.198554,85.146569L272.013887,86.319509L275.103524,87.274383L275.188720,89.306290L275.249242,89.779763L275.363746,90.313384L275.556706,90.777994L286.382315,108.218090L286.822042,109.112232L287.045495,109.772734L286.972309,110.160274L286.718034,110.835477L286.696799,111.154378L286.837685,111.640033L287.714634,113.258881L287.909936,113.818175L287.996986,114.257273L287.974522,114.501643L288.249976,115.086708L290.467815,118.987365L291.428235,120.252140L292.400758,121.177757L296.566619,123.844544L296.833663,123.914477L297.418304,123.904337L297.845515,124.012134L298.410484,124.395404L300.517820,126.303712L301.253114,126.785532L301.922574,127.051587L302.883853,127.278535L306.136944,129.246885L307.001984,130.017501L308.420354,131.950585L308.949073,133.221982L309.063914,135.131260L308.976164,136.149548L309.154910,137.190089L309.351947,137.776173L311.469590,140.997542L306.945650,145.946582L306.323964,146.906699L306.572893,147.417335L306.867339,147.500137L307.559528,147.487626L310.031265,148.181449L310.372995,148.419201L310.787738,148.764053L311.168755,149.204404L311.469163,149.605559L311.943924,150.789740L312.162489,151.083941L312.406436,151.309890L313.079008,151.663466L313.375992,151.874860L313.675262,152.208209L313.894648,152.543036L313.955509,152.948585L313.911101,153.423870L313.664476,154.485815L313.619544,154.933997L313.653513,155.326490L313.766390,155.663295L313.800364,156.055789L313.728282,156.477363L313.448869,157.214568L313.299109,157.759582L313.282558,158.302128L313.853784,161.775432L313.508173,163.259445L312.661259,165.037387L310.455329,168.344906L308.516448,170.752502L306.939797,172.082364L301.782525,173.651830L300.727307,174.341388L299.730687,175.334841L298.152229,178.175113L297.182739,179.222116L296.499177,179.830346L291.496626,182.904479L292.502315,184.995417L293.989988,186.095314L297.124374,186.638084L299.541590,187.395967L300.211331,187.506281L301.488108,187.199233L306.041201,184.407250L307.195917,183.281695L307.793684,182.376223L307.838585,181.907733L307.937235,181.458605L308.196762,181.047234L310.394159,178.573995L310.803344,178.566515L311.237432,178.944911L312.344632,181.073200L312.673960,181.555151L314.356440,181.571477L319.876823,179.814003L327.074463,181.525849L330.372911,181.786385L331.345051,182.329717L332.022276,182.811069L335.557108,187.247816L334.718464,188.050977L334.408112,188.558802L333.963654,189.042194L333.622590,189.354045L333.279606,189.571030L333.017687,189.833835L332.890662,190.161726L332.819222,190.596960L332.669814,191.142200L332.440797,191.716137L331.974446,192.450689L331.745509,193.031389L331.818947,194.033111L332.887536,198.011019L332.994311,199.337430L332.961884,200.388709L332.512021,201.963450L332.418758,202.649911L332.433511,203.388448L332.698251,204.589711L332.764464,205.225550L332.723853,205.870295L332.516336,207.535101L332.572854,209.025196L332.964126,209.857913L333.706064,210.825963L337.684422,214.318075L338.145531,214.613745L338.550375,214.774977L339.358012,214.995771L339.817792,215.223628L340.450835,215.630938L340.883058,215.818654L341.610094,216.020630L344.394470,218.586327L345.423953,219.154628L345.941356,219.564095L345.999866,219.800118L345.608536,220.296335L345.515065,220.949015L345.613534,221.814602L346.161163,223.660465L346.804951,224.975576L347.994094,226.733360L354.054937,234.013489L354.581943,234.829148L355.091722,237.326246L362.383126,231.947576L364.484722,231.223083L364.788531,231.623037L365.014704,232.146733L365.160507,232.672220L365.411078,233.086907L365.632437,233.393783L365.961300,233.711807L366.379557,234.427767L366.468027,234.785058L369.404889,235.410357L384.130180,235.936656L386.384056,231.517273L386.747694,229.915501L387.236066,226.819340L387.285416,225.530142L387.158067,224.692599L386.908579,224.346074L384.555463,222.300797L383.520610,220.467952L383.332251,219.306439L383.527355,218.501892L384.021535,217.886827L384.666532,216.861411L384.800531,215.746466L384.603353,214.219116L383.589611,211.002883L383.541860,210.122753L383.901474,209.490542L386.728928,207.985854L387.537080,207.098722L388.029468,206.436080L389.904452,201.753892L398.105270,202.027002L426.507655,197.167968L427.880161,197.157908L428.132490,197.584955L428.425241,198.512593L428.727734,198.816233L429.269668,199.072667L429.686521,199.644357L430.060165,200.590098L430.411612,202.675424L430.518578,203.648777L430.482573,204.287052L430.299127,204.427657L429.686389,204.525730L429.449085,204.654231L429.270808,204.984510L428.899508,206.086141L429.225027,206.246776L429.760592,206.259306L436.762853,204.968233L437.698895,204.630311L438.588980,203.927495L438.924382,203.484211L439.152821,203.043912L439.298378,202.511011L439.492109,200.837744L439.758299,199.840427L441.533918,197.363331L445.107842,195.146809L450.654394,187.855231L479.418790,182.042936L492.531924,183.256097L503.728017,187.015004L505.070070,187.987914L506.048924,189.020187L506.701798,189.357965L508.425910,189.748269L509.077297,190.038515L509.601526,190.522844L510.075327,191.096994L510.985412,191.921004L511.662078,192.162815L512.302698,192.127770L514.328937,190.893242L522.128624,188.322282L523.741143,188.307540L528.621800,189.494875L545.129960,189.276205L545.578548,189.110820L547.627422,188.833254L550.590906,187.247014L551.524446,187.185799L552.275556,187.253274L554.590868,188.890981L560.367529,186.045749L562.155836,184.541208L563.959414,182.506811L564.292490,181.415918L563.869447,180.828161L561.951989,180.533696L561.085818,180.240480L560.530794,179.691458L560.130856,179.000997L559.719062,177.992201L558.928522,175.423989L558.603538,173.157228L557.996981,171.931809L557.130407,170.892336L556.052651,169.914874L549.894768,162.429798L549.694372,161.331642L549.856803,160.667856L550.410416,160.484863L551.651022,160.602226L552.582157,160.527377L554.414291,159.564735L555.555479,159.400541L556.169252,158.686067L556.429739,157.082615L556.466533,153.771550L557.151953,149.982029L557.283316,147.786506L557.228358,144.885767L558.004050,137.125229L557.794529,135.084799L557.274813,134.005408L556.373702,134.120253L555.480395,134.444993L553.180584,135.621863L549.843064,136.354799L549.178131,136.379112L548.602182,135.925405L548.044921,135.253970L547.476798,134.284503L546.961616,134.031976L546.544057,134.264182L546.108794,134.741166L545.568511,134.530188L544.869371,133.612843L543.710658,131.036956L542.808270,129.645347L541.738883,128.781899L540.658420,128.590167L539.414451,128.783985L538.764523,129.214156L538.203310,129.892048L537.901811,130.391101L537.427648,130.530091L536.856972,130.204563L536.007572,128.783506L535.735093,127.118113L535.539836,123.890185L534.814545,121.460975L533.889542,119.391461L530.050534,113.369248L529.838472,112.558078L527.516358,115.139695L523.759363,116.681022L515.842394,116.356308L511.468625,114.917755L509.152353,111.930615L509.155370,111.912326L509.725707,108.452984L515.837761,97.640210L516.576518,96.991107L517.661820,96.642031L518.631633,96.025576L518.987097,94.535040L518.629591,93.408064L518.564892,93.344342L517.219221,92.018798L517.171643,91.924177L516.877326,91.338812L516.859424,91.326431L514.467223,89.671507L513.836353,88.811410L513.837605,88.790882L513.904313,87.696984L515.144093,85.688217L515.372250,84.609001L513.930561,71.963741L512.916589,67.631167L511.159891,62.726984L511.123648,62.701343L509.550121,61.587937L503.915257,64.082413L500.470803,64.549294L496.736552,64.265301L486.822853,61.230348L486.829496,61.151970L487.091899,58.054714L486.853594,53.953304L487.071922,52.522384L487.811209,50.844199L480.991755,50.993592L477.402965,50.143641L474.407978,47.972447L473.468895,46.130241L470.462458,37.869889L466.957214,24.742540L464.738508,19.535278L460.668688,17.000700L459.344641,15.670952L456.328643,10.689754L454.874412,10.141434Z " data-code="sk-zi" data-name="Žilinský"/>
    <path d="M296.642705,289.588803L284.535828,297.224917L279.056689,302.198893L276.521437,303.770238L276.202986,304.086949L276.099108,304.339333L276.050581,304.685747L275.837770,304.865260L275.462667,305.006608L274.279520,304.008164L273.122526,302.358563L272.796380,302.173762L272.422148,302.369234L271.978314,303.304517L271.615650,304.265666L271.511171,304.484133L270.324500,304.420712L266.044697,302.925584L263.991876,297.045606L262.287759,293.437571L261.494873,292.601817L258.070658,290.353107L257.141268,289.349594L256.514497,288.802647L255.837660,288.520694L253.757299,288.597062L253.000646,288.377066L252.536473,287.895470L252.465880,286.676492L251.892677,286.087932L251.454414,285.524616L251.090048,284.458746L251.201127,282.742530L252.563891,280.114539L254.011559,277.830877L254.980939,275.350396L254.869198,273.766017L253.438970,271.440848L251.450712,269.543381L248.430169,268.771051L240.868882,264.560174L239.447273,262.640086L237.495594,259.127105L236.566635,257.864670L232.723597,253.968015L231.290501,253.118044L218.932724,250.592523L218.633290,250.216363L218.459877,249.113624L218.478477,248.381476L218.418420,247.812864L217.904602,247.452645L217.391795,247.180499L213.784913,246.921968L212.561624,247.924665L211.714854,249.024879L211.561649,249.751674L211.597709,250.611988L211.991074,252.254628L212.163907,253.350675L212.256390,254.461138L212.248736,256.243616L212.391063,256.994353L212.583956,257.453127L212.746501,257.586920L212.910808,257.883345L213.076076,258.267861L213.273050,259.099326L214.043461,260.798826L214.153092,261.000949L214.288545,261.107911L214.558496,261.233736L214.640394,261.354832L214.806049,261.766432L214.969412,261.967962L215.186790,262.196008L215.350387,262.417863L215.550992,262.747745L215.855706,264.398032L215.979451,265.874100L215.938878,267.067334L215.616765,268.724512L215.373126,269.377795L215.000198,269.680074L214.243655,269.308799L213.783609,269.015597L213.087178,269.226443L212.633808,269.549853L209.340401,273.258077L209.787989,274.913775L209.980606,275.331930L210.147857,275.892670L209.777126,276.431975L208.896445,277.064719L200.907492,280.412479L199.457228,280.630012L198.380288,280.518481L196.151582,279.021778L195.593464,278.776318L195.073203,278.740568L194.305977,280.089635L189.104860,293.915053L188.786904,294.487170L185.819373,297.928983L193.512977,301.817555L193.998537,301.887586L194.648141,302.213592L198.512609,305.314620L206.326414,313.132250L202.567201,317.399134L190.488805,339.796848L187.624127,342.750087L186.865590,346.646773L186.655998,347.407634L186.484846,348.446016L186.404012,349.510716L185.712013,353.894696L185.447560,354.588241L185.099726,355.024972L184.643921,355.489728L184.867039,356.273948L185.115364,356.841083L189.677746,360.860471L188.506412,363.032783L187.785136,364.103152L187.494286,364.885070L187.517446,365.467693L187.912312,366.250356L187.918759,366.982220L187.412298,367.881244L186.929644,368.414080L186.738091,369.215444L186.908694,370.149186L187.612864,372.223570L188.134124,372.984786L188.598277,373.407636L189.032487,373.505438L189.496264,373.880821L191.245983,375.681342L191.849583,376.522997L192.157123,377.570641L192.142998,378.993954L191.618348,380.896306L191.084978,381.849927L190.359151,382.507065L187.519214,384.199428L185.581657,385.829215L185.121597,385.921276L184.767178,385.687120L182.302511,382.712561L181.812895,382.499792L181.460931,382.543387L180.813775,382.941822L179.598994,383.534637L179.659847,384.347379L180.130514,385.549826L181.645543,388.444626L182.200190,389.924161L182.131410,391.429233L181.708008,392.693291L181.386270,393.143250L180.955685,393.553440L180.469824,393.842085L179.928973,394.043063L179.440918,394.067386L178.951487,393.922277L177.742884,393.166242L176.517841,392.599987L175.893108,392.482949L174.971974,392.612178L172.105599,393.738959L171.433621,394.550517L171.521962,395.471515L179.277022,403.936026L180.241816,405.730817L180.177917,407.872873L178.768261,411.516831L178.450331,412.508841L178.565643,413.334702L179.059834,413.981290L180.263245,414.974461L181.026228,415.252811L181.976366,415.163602L184.847338,414.129594L185.905386,413.964636L186.451470,414.285211L186.785434,415.203988L186.096995,417.283722L186.048377,417.948290L186.323662,418.359308L187.099201,419.003168L187.662566,419.201559L188.895832,419.346579L189.631946,419.611129L189.958406,419.648882L190.556255,419.643533L190.992393,419.788710L191.457426,420.123369L191.901805,421.176566L191.968796,422.572030L191.204600,428.278433L192.510861,437.368171L192.136882,444.162159L193.427071,445.316051L193.652076,446.100125L193.851989,447.114845L193.779234,448.091407L193.541699,448.920385L193.195686,449.804567L192.897185,452.924727L194.086987,454.919832L194.643143,456.134569L194.433942,457.092064L193.326375,458.166230L190.399981,460.090231L186.252899,463.881056L184.287326,466.825499L182.959349,467.826115L182.280471,468.184181L181.925030,468.078701L181.462737,468.245173L180.948438,468.723796L180.002219,469.761636L179.357715,471.020607L178.744448,472.787565L178.735035,478.419275L177.997543,479.495945L176.724361,480.739461L173.441042,483.353771L171.999881,484.150844L170.991924,484.470150L170.581187,484.317344L170.198365,484.245641L169.816045,484.241693L169.460534,484.169768L168.747601,483.761606L168.328203,483.663010L167.930876,484.099615L167.573245,484.996750L166.360711,491.145290L165.691202,493.061119L164.308092,494.561741L164.269311,494.603810L168.295308,496.749181L183.087018,500.665928L193.276878,499.917329L233.639924,496.875971L255.406951,498.852277L261.940055,498.137735L275.051285,492.564161L311.057822,487.754974L318.970395,488.187839L325.432949,490.907425L330.715852,491.836984L335.841271,491.195045L340.086383,488.447151L345.777242,481.642155L348.787953,479.302895L352.750854,478.163177L357.051012,476.534960L357.319473,476.433252L350.449573,471.622482L345.200398,466.673742L343.955801,461.784737L344.280100,456.253789L345.821334,445.390510L345.178867,442.373699L343.941764,441.348251L343.686256,440.384134L345.914682,437.512099L347.491793,436.544286L350.889741,435.890917L352.528085,434.406059L357.017120,424.522920L360.025905,421.950333L376.617239,417.821748L385.023994,415.721048L387.567259,414.454570L391.518014,414.548962L391.508152,414.449255L391.269385,412.034847L391.137843,408.797612L391.442638,407.909050L393.354110,404.927854L393.847753,403.621159L394.318988,402.891207L394.954800,402.231826L395.809942,401.662002L396.580806,400.978926L397.583924,399.802042L398.817459,398.063546L399.397469,396.252850L399.434521,394.441903L398.259388,389.664274L398.170572,388.249603L398.611479,386.313527L398.937807,385.241199L399.271388,384.466966L400.029717,383.322980L400.206087,382.776302L400.247952,382.273611L400.228617,381.487701L400.271808,381.039211L400.038382,380.367040L399.810971,379.938769L397.389029,377.340712L394.634781,380.010892L393.730265,380.724234L392.874629,381.219405L392.000797,381.335329L391.404352,381.336084L390.369838,381.157474L389.884370,381.263973L389.266958,381.522736L386.357105,382.296731L383.948351,383.641352L383.034496,383.988106L381.863860,384.178077L380.465041,384.664723L379.825038,385.133711L379.181402,385.446836L377.889071,385.856183L377.329156,386.275757L376.803122,386.992801L376.285683,388.089242L376.087944,388.934332L376.018338,389.451111L375.916520,389.744924L375.757386,389.904465L375.432944,389.952528L374.345317,389.841668L373.551207,389.913889L371.882020,390.480296L371.016161,390.581095L370.145749,390.478577L368.726729,390.103522L368.210956,390.087882L367.265405,390.264776L366.776893,390.255254L366.040618,390.081717L365.189506,389.619183L361.759976,387.003082L361.019248,386.612456L360.038409,386.403229L359.169238,386.340654L358.411122,386.397650L357.848267,386.708000L357.424987,387.205136L357.037761,388.121760L356.696751,388.664560L356.270764,389.039701L355.839131,389.150583L355.375916,389.051988L354.934646,388.708883L354.376062,387.947981L354.027958,386.877568L353.746746,385.548146L353.714100,384.003329L353.961042,382.859305L354.889516,381.470339L356.004916,380.382353L356.716640,379.438482L357.547515,379.000410L357.781896,378.554770L357.737802,377.762620L356.996943,376.070301L355.506561,373.526282L355.188206,372.570506L355.282104,371.890649L355.919393,371.287324L356.154837,370.895917L356.146158,370.489387L354.512639,368.822769L354.601210,367.892223L355.223761,366.604604L357.142415,363.892823L359.234018,361.705742L359.748471,360.460901L360.079037,359.477615L361.378117,352.019975L354.203355,336.461676L353.095808,335.197279L348.497582,331.477696L343.342042,324.155117L341.280294,323.648162L340.504192,323.975733L339.545758,324.632307L337.939465,326.637179L335.479503,329.187570L335.006984,329.868018L334.408308,330.998318L333.422027,332.109132L333.215806,332.608018L333.156371,333.246351L332.952924,333.887521L332.604110,334.463766L331.864667,335.325579L331.745458,336.134534L331.708184,336.989330L331.557823,337.588766L331.139734,338.315447L325.583398,340.239512L314.691831,342.144801L312.508031,342.936991L311.077956,344.569275L309.975488,346.398860L309.632648,346.879476L308.434785,347.931162L307.957903,348.481904L307.410715,349.643897L306.625317,349.576488L304.816505,346.666740L305.660218,345.452182L307.092970,343.928894L307.514712,343.324938L307.854875,342.695307L307.977656,342.001762L308.128284,341.355166L308.416633,340.855226L309.561270,339.885818L310.143376,339.197559L310.825885,338.087223L311.262026,336.805075L311.638179,335.198649L311.768773,333.461100L311.515110,331.384827L310.751435,327.975708L309.383456,325.465338L308.419254,324.377790L307.631823,324.113945L307.118212,324.068862L306.733973,323.709676L306.556934,322.858789L306.719663,321.385072L306.691853,319.819845L306.261059,318.349882L304.757860,315.719469L304.193539,314.306022L304.289064,312.582734L304.742474,311.788505L306.163968,309.838426L306.371161,309.360290L306.258061,309.064065L305.257279,308.878441L304.953881,308.490674L304.860351,307.773856L305.126715,306.067879L305.240462,304.879721L305.272285,303.632007L304.900993,302.445637L304.295348,301.717512L302.822679,301.221452L301.287375,301.248223L297.074513,302.256123L296.637509,301.911121L296.836811,300.958818L297.905916,298.886843L300.409882,295.705530L300.775986,295.075612L300.438335,294.241001L299.239422,293.428034L296.642705,289.588803Z " data-code="sk-ni" data-name="Nitriansky"/>
    <path d="M355.091722,237.326246L354.581943,234.829148L354.054937,234.013489L347.994094,226.733360L346.804951,224.975576L346.161163,223.660465L345.613534,221.814602L345.515065,220.949015L345.608536,220.296335L345.999866,219.800118L345.941356,219.564095L345.423953,219.154628L344.394470,218.586327L341.610094,216.020630L340.883058,215.818654L340.450835,215.630938L339.817792,215.223628L339.358012,214.995771L338.550375,214.774977L338.145531,214.613745L337.684422,214.318075L333.706064,210.825963L332.964126,209.857913L332.572854,209.025196L332.516336,207.535101L332.723853,205.870295L332.764464,205.225550L332.698251,204.589711L332.433511,203.388448L332.418758,202.649911L332.512021,201.963450L332.961884,200.388709L332.994311,199.337430L332.887536,198.011019L331.818947,194.033111L331.745509,193.031389L331.974446,192.450689L332.440797,191.716137L332.669814,191.142200L332.819222,190.596960L332.890662,190.161726L333.017687,189.833835L333.279606,189.571030L333.622590,189.354045L333.963654,189.042194L334.408112,188.558802L334.718464,188.050977L335.557108,187.247816L332.022276,182.811069L331.345051,182.329717L330.372911,181.786385L327.074463,181.525849L319.876823,179.814003L314.356440,181.571477L312.673960,181.555151L312.344632,181.073200L311.237432,178.944911L310.803344,178.566515L310.394159,178.573995L308.196762,181.047234L307.937235,181.458605L307.838585,181.907733L307.793684,182.376223L307.195917,183.281695L306.041201,184.407250L301.488108,187.199233L300.211331,187.506281L299.541590,187.395967L297.124374,186.638084L293.989988,186.095314L292.502315,184.995417L291.496626,182.904479L296.499177,179.830346L297.182739,179.222116L298.152229,178.175113L299.730687,175.334841L300.727307,174.341388L301.782525,173.651830L306.939797,172.082364L308.516448,170.752502L310.455329,168.344906L312.661259,165.037387L313.508173,163.259445L313.853784,161.775432L313.282558,158.302128L313.299109,157.759582L313.448869,157.214568L313.728282,156.477363L313.800364,156.055789L313.766390,155.663295L313.653513,155.326490L313.619544,154.933997L313.664476,154.485815L313.911101,153.423870L313.955509,152.948585L313.894648,152.543036L313.675262,152.208209L313.375992,151.874860L313.079008,151.663466L312.406436,151.309890L312.162489,151.083941L311.943924,150.789740L311.469163,149.605559L311.168755,149.204404L310.787738,148.764053L310.372995,148.419201L310.031265,148.181449L307.559528,147.487626L306.867339,147.500137L306.572893,147.417335L306.323964,146.906699L306.945650,145.946582L311.469590,140.997542L309.351947,137.776173L309.154910,137.190089L308.976164,136.149548L309.063914,135.131260L308.949073,133.221982L308.420354,131.950585L307.001984,130.017501L306.136944,129.246885L302.883853,127.278535L301.922574,127.051587L301.253114,126.785532L300.517820,126.303712L298.410484,124.395404L297.845515,124.012134L297.418304,123.904337L296.833663,123.914477L296.566619,123.844544L292.400758,121.177757L291.428235,120.252140L290.467815,118.987365L288.249976,115.086708L287.974522,114.501643L287.996986,114.257273L287.909936,113.818175L287.714634,113.258881L286.837685,111.640033L286.696799,111.154378L286.718034,110.835477L286.972309,110.160274L287.045495,109.772734L286.822042,109.112232L286.382315,108.218090L275.556706,90.777994L275.363746,90.313384L275.249242,89.779763L275.188720,89.306290L275.103524,87.274383L272.013887,86.319509L271.198554,85.146569L264.951488,90.208500L242.063377,99.530384L237.085189,104.379688L233.047803,111.153614L229.942624,119.188986L227.868686,127.821133L227.333399,134.862252L227.381923,136.439697L227.742456,148.154128L226.675618,153.927504L223.177400,160.027561L218.167760,164.815458L212.491488,167.507748L203.258386,166.886243L199.105413,167.578292L195.519233,169.944317L193.286648,174.546683L192.255846,178.446291L190.996517,186.576752L189.622945,190.181102L186.480899,193.313120L183.187482,193.531589L179.548743,192.938881L175.315694,193.705319L172.555200,196.044803L166.680709,206.362970L163.650051,208.919396L149.675543,214.543763L130.559840,222.205648L124.236719,221.243762L118.932521,215.666940L116.412551,214.456250L112.313269,215.676314L109.154142,217.768733L108.666800,219.387820L107.115921,223.173685L105.275046,225.699679L99.876731,230.890435L103.685141,232.351792L105.776592,232.840980L106.312535,232.839514L106.740949,232.716347L107.302222,232.199739L110.193995,228.558919L111.051607,228.678257L111.965541,229.651227L114.065029,232.571925L115.706125,234.436719L115.974792,234.625534L116.270460,234.868463L116.619693,235.097643L116.995499,235.258952L118.470962,235.619559L119.017619,236.064805L119.744522,236.909179L121.146068,238.875858L122.064236,240.552904L122.607098,242.204281L122.507020,244.007297L122.241617,244.713132L121.547075,245.434196L121.307570,245.923055L121.069834,246.872722L120.750563,247.558404L120.084652,248.814645L119.792061,249.486649L119.527241,250.416059L119.610239,251.079871L119.934560,251.688557L120.903933,252.538732L121.390172,253.350062L121.911579,256.262034L122.397691,256.992008L123.126278,257.917519L124.797809,259.584564L126.770088,262.395389L130.523128,270.632898L134.563863,267.089883L135.715726,266.399761L136.117009,266.058923L136.410885,265.732166L136.893989,265.641637L137.243218,265.639868L139.731071,267.036584L145.336324,265.277803L145.814259,264.299211L146.347485,263.604911L146.317611,263.083266L146.315223,262.669893L146.366784,262.296869L146.391486,261.924001L146.306103,261.090941L146.380004,259.938452L146.484548,259.443139L146.616562,259.056096L146.911245,258.939181L147.287821,259.052195L148.513012,260.386803L148.943470,260.519781L150.608375,260.509752L151.198439,260.390941L151.680244,260.137235L152.721211,259.127798L158.138483,256.775160L161.005366,255.942540L163.348982,257.085076L164.865854,258.951502L166.771013,262.441390L167.150251,262.879115L167.726129,263.267942L170.961295,264.829494L174.134957,265.306435L180.133322,265.135970L181.125301,264.897273L181.229729,264.537217L181.172644,264.137853L181.088874,263.759044L181.058998,263.400114L181.137011,263.094495L181.323309,262.889622L181.808014,263.034635L182.456648,263.503538L183.810809,264.793165L185.226754,266.976686L186.012770,267.755967L186.659153,267.926498L187.632111,267.551943L188.247034,267.207622L188.862534,266.931038L189.830699,267.030756L190.667143,267.416239L191.779674,268.598830L192.188224,269.191453L192.462075,269.744646L209.340401,273.258077L212.633808,269.549853L213.087178,269.226443L213.783609,269.015597L214.243655,269.308799L215.000198,269.680074L215.373126,269.377795L215.616765,268.724512L215.938878,267.067334L215.979451,265.874100L215.855706,264.398032L215.550992,262.747745L215.350387,262.417863L215.186790,262.196008L214.969412,261.967962L214.806049,261.766432L214.640394,261.354832L214.558496,261.233736L214.288545,261.107911L214.153092,261.000949L214.043461,260.798826L213.273050,259.099326L213.076076,258.267861L212.910808,257.883345L212.746501,257.586920L212.583956,257.453127L212.391063,256.994353L212.248736,256.243616L212.256390,254.461138L212.163907,253.350675L211.991074,252.254628L211.597709,250.611988L211.561649,249.751674L211.714854,249.024879L212.561624,247.924665L213.784913,246.921968L217.391795,247.180499L217.904602,247.452645L218.418420,247.812864L218.478477,248.381476L218.459877,249.113624L218.633290,250.216363L218.932724,250.592523L231.290501,253.118044L232.723597,253.968015L236.566635,257.864670L237.495594,259.127105L239.447273,262.640086L240.868882,264.560174L248.430169,268.771051L251.450712,269.543381L253.438970,271.440848L254.869198,273.766017L254.980939,275.350396L254.011559,277.830877L252.563891,280.114539L251.201127,282.742530L251.090048,284.458746L251.454414,285.524616L251.892677,286.087932L252.465880,286.676492L252.536473,287.895470L253.000646,288.377066L253.757299,288.597062L255.837660,288.520694L256.514497,288.802647L257.141268,289.349594L258.070658,290.353107L261.494873,292.601817L262.287759,293.437571L263.991876,297.045606L266.044697,302.925584L270.324500,304.420712L271.511171,304.484133L271.615650,304.265666L271.978314,303.304517L272.422148,302.369234L272.796380,302.173762L273.122526,302.358563L274.279520,304.008164L275.462667,305.006608L275.837770,304.865260L276.050581,304.685747L276.099108,304.339333L276.202986,304.086949L276.521437,303.770238L279.056689,302.198893L284.535828,297.224917L296.642705,289.588803L298.534298,285.320219L315.487993,282.869196L315.531000,282.285484L315.631056,281.876948L316.190808,280.144947L316.236287,279.696748L316.228861,279.296977L316.194295,278.884153L316.186493,278.464055L316.285110,277.980980L316.539243,277.183225L316.981157,276.361639L317.766157,275.194734L320.289750,272.124344L324.765647,265.342324L334.307750,267.704293L335.274144,267.644338L336.423961,267.350167L336.429554,266.292632L336.007425,264.010023L336.291426,263.434943L336.868915,262.759058L339.296158,260.568029L339.949630,259.680330L343.904248,251.756577L344.713296,250.641719L345.668794,250.120266L348.215751,249.972126L349.015238,249.697730L349.623443,249.264639L351.941506,245.527982L353.912925,241.120469L354.484112,240.240549L354.818469,239.575838L355.022263,239.076615L355.091722,237.326246Z " data-code="sk-tc" data-name="Trenciansky"/>
    <path d="M109.154142,217.768733L105.794989,219.992079L102.798051,220.569130L83.083563,210.587639L74.789633,208.424812L67.068148,210.078948L57.788279,216.850401L56.215556,219.288475L55.192805,224.234356L52.707110,227.389303L46.751547,232.544085L42.484759,239.800577L33.675118,265.076976L31.676756,268.724044L28.925654,272.070341L28.480084,277.049875L30.056532,289.320615L29.128193,292.612762L29.715034,292.538762L40.229401,289.320262L48.070278,288.989797L48.635596,288.875506L48.743929,288.441968L48.556591,287.797880L48.047340,286.570466L49.096789,286.504378L51.365002,287.131183L58.976795,290.799016L60.681015,291.355991L61.703971,291.112695L68.917531,287.977534L71.267436,286.520497L74.388247,285.638825L76.540544,285.536266L77.885517,285.149248L78.638309,284.389779L79.336554,282.708673L79.990482,281.922091L80.743181,281.420018L82.329370,280.713845L83.673128,279.790881L84.022339,279.424570L84.317639,278.956658L84.692881,277.858416L84.961149,277.315976L85.390705,276.766566L86.169484,276.013416L87.216972,275.232766L87.566273,275.096770L87.915668,275.035309L88.184338,274.919737L88.372175,274.675514L88.541893,274.295780L93.420129,266.325371L94.947745,264.370874L96.074063,263.433509L96.907159,263.655469L97.364493,264.000142L97.714449,264.365355L98.064236,264.642462L99.874142,265.173853L100.492740,265.497722L101.111768,265.990980L101.839172,266.843116L102.513200,267.803771L103.161137,269.035527L103.595832,270.904809L103.682751,273.371321L102.695665,276.382671L101.785913,278.194278L98.720629,282.362206L98.157035,282.952994L97.646410,283.170927L97.054736,283.226364L96.489738,283.173294L95.898139,283.269341L95.549285,283.703731L94.344818,286.985943L94.049704,287.460855L93.646752,287.834302L91.710958,288.833804L91.767509,290.487233L90.882602,292.548788L100.334522,301.923063L98.711641,303.004181L98.012748,303.730789L97.153028,304.898179L94.547242,309.064184L93.070140,312.075713L93.668485,315.022540L95.908194,315.892552L98.290070,315.847024L98.685682,315.900389L99.045639,316.089354L99.423886,316.413805L99.910524,316.961634L101.180256,317.914234L102.180536,318.901253L102.666794,319.211796L103.395490,319.386179L106.497627,319.479669L107.038011,319.810235L107.120486,320.365699L106.718677,321.383330L106.369390,321.899325L106.289939,322.441683L106.615255,323.010039L108.273934,324.360719L108.869477,325.016337L110.062435,326.889962L111.416135,328.268276L112.202821,329.512730L115.137988,335.371789L115.843245,336.277468L116.384988,336.736413L117.384492,336.793885L118.069793,337.096385L118.629948,337.636495L119.615563,338.778138L120.186004,339.623100L120.675755,340.542890L121.083013,341.069925L121.087014,342.113536L120.687199,343.551743L119.213674,346.986321L117.915430,349.254497L117.809582,349.891895L117.784490,350.434128L118.849742,353.398502L128.329675,361.025001L123.536627,366.805357L122.703889,368.428323L122.546572,369.730087L122.907976,372.114093L123.263353,372.953005L123.698335,373.371426L124.484369,373.530888L128.102581,375.189524L128.485686,376.082393L128.454690,377.254916L128.123999,380.122948L128.507627,381.103913L128.906904,381.522323L129.646562,381.288634L129.944729,381.307632L130.162333,381.489629L130.517487,382.125048L130.790019,382.462654L130.793709,383.275855L130.555307,384.496762L129.456781,387.375054L128.865270,388.495842L128.217136,389.088258L127.284733,388.739886L125.335185,389.371552L119.819976,393.716804L115.179937,395.813738L114.339064,395.836880L113.578535,395.541200L112.246045,394.501850L111.431138,394.124899L109.070625,393.874484L108.581862,393.686153L108.382184,393.415657L108.326699,392.982104L108.524029,392.439396L109.297301,391.014026L109.005325,390.079688L108.805279,389.666887L108.731738,389.240164L108.585959,388.833980L108.242295,388.753646L107.691516,388.938183L106.608896,389.639198L105.904660,389.918954L105.309252,390.347476L104.877126,391.012733L104.368645,393.643430L104.451896,394.375106L104.615903,394.862608L104.834103,395.322861L105.704722,396.289641L106.058681,396.769841L106.276851,397.189410L106.332085,397.548428L106.116301,398.016609L105.629411,398.573608L104.518124,399.023787L103.867346,399.194870L103.135619,399.555870L102.404377,400.133686L101.077662,401.404086L99.361424,402.560011L98.638092,402.758105L96.675047,402.843488L92.547891,401.854912L91.923709,401.869505L91.571270,402.100488L91.463298,402.466606L92.470265,404.111695L92.525545,404.701178L92.472371,405.365388L92.257004,406.450026L92.203775,407.093904L92.258898,407.588514L92.449489,407.906701L93.863251,408.961421L94.815423,409.928760L95.196060,410.172011L95.576439,410.272940L98.373031,410.030113L98.671889,410.097244L98.980008,410.259222L99.197760,410.489157L99.488534,410.989998L99.416738,411.274779L98.676006,412.021828L96.750069,413.232077L94.092167,415.459897L92.870567,415.990628L92.028500,416.073363L91.566208,415.803048L91.158932,415.952787L90.888080,416.481798L90.863340,418.040484L91.055142,419.056692L91.382982,420.154001L91.193671,420.737101L90.650959,421.280088L88.804281,422.319654L87.871997,423.005383L84.641647,426.933039L83.678667,433.568465L83.666094,433.655057L85.483694,434.162631L96.931145,435.879332L102.474491,440.461677L120.582860,464.639369L122.315873,466.232064L124.136836,466.983868L128.558684,467.900577L130.199840,468.977632L136.189385,477.901684L138.347554,480.106935L140.166985,480.029835L141.927561,479.153143L143.909358,478.844262L146.537021,480.144323L150.210338,482.752410L153.487558,485.849893L154.888043,488.538344L156.740321,490.586741L164.269311,494.603810L164.308092,494.561741L165.691202,493.061119L166.360711,491.145290L167.573245,484.996750L167.930876,484.099615L168.328203,483.663010L168.747601,483.761606L169.460534,484.169768L169.816045,484.241693L170.198365,484.245641L170.581187,484.317344L170.991924,484.470150L171.999881,484.150844L173.441042,483.353771L176.724361,480.739461L177.997543,479.495945L178.735035,478.419275L178.744448,472.787565L179.357715,471.020607L180.002219,469.761636L180.948438,468.723796L181.462737,468.245173L181.925030,468.078701L182.280471,468.184181L182.959349,467.826115L184.287326,466.825499L186.252899,463.881056L190.399981,460.090231L193.326375,458.166230L194.433942,457.092064L194.643143,456.134569L194.086987,454.919832L192.897185,452.924727L193.195686,449.804567L193.541699,448.920385L193.779234,448.091407L193.851989,447.114845L193.652076,446.100125L193.427071,445.316051L192.136882,444.162159L192.510861,437.368171L191.204600,428.278433L191.968796,422.572030L191.901805,421.176566L191.457426,420.123369L190.992393,419.788710L190.556255,419.643533L189.958406,419.648882L189.631946,419.611129L188.895832,419.346579L187.662566,419.201559L187.099201,419.003168L186.323662,418.359308L186.048377,417.948290L186.096995,417.283722L186.785434,415.203988L186.451470,414.285211L185.905386,413.964636L184.847338,414.129594L181.976366,415.163602L181.026228,415.252811L180.263245,414.974461L179.059834,413.981290L178.565643,413.334702L178.450331,412.508841L178.768261,411.516831L180.177917,407.872873L180.241816,405.730817L179.277022,403.936026L171.521962,395.471515L171.433621,394.550517L172.105599,393.738959L174.971974,392.612178L175.893108,392.482949L176.517841,392.599987L177.742884,393.166242L178.951487,393.922277L179.440918,394.067386L179.928973,394.043063L180.469824,393.842085L180.955685,393.553440L181.386270,393.143250L181.708008,392.693291L182.131410,391.429233L182.200190,389.924161L181.645543,388.444626L180.130514,385.549826L179.659847,384.347379L179.598994,383.534637L180.813775,382.941822L181.460931,382.543387L181.812895,382.499792L182.302511,382.712561L184.767178,385.687120L185.121597,385.921276L185.581657,385.829215L187.519214,384.199428L190.359151,382.507065L191.084978,381.849927L191.618348,380.896306L192.142998,378.993954L192.157123,377.570641L191.849583,376.522997L191.245983,375.681342L189.496264,373.880821L189.032487,373.505438L188.598277,373.407636L188.134124,372.984786L187.612864,372.223570L186.908694,370.149186L186.738091,369.215444L186.929644,368.414080L187.412298,367.881244L187.918759,366.982220L187.912312,366.250356L187.517446,365.467693L187.494286,364.885070L187.785136,364.103152L188.506412,363.032783L189.677746,360.860471L185.115364,356.841083L184.867039,356.273948L184.643921,355.489728L185.099726,355.024972L185.447560,354.588241L185.712013,353.894696L186.404012,349.510716L186.484846,348.446016L186.655998,347.407634L186.865590,346.646773L187.624127,342.750087L190.488805,339.796848L202.567201,317.399134L206.326414,313.132250L198.512609,305.314620L194.648141,302.213592L193.998537,301.887586L193.512977,301.817555L185.819373,297.928983L188.786904,294.487170L189.104860,293.915053L194.305977,280.089635L195.073203,278.740568L195.593464,278.776318L196.151582,279.021778L198.380288,280.518481L199.457228,280.630012L200.907492,280.412479L208.896445,277.064719L209.777126,276.431975L210.147857,275.892670L209.980606,275.331930L209.787989,274.913775L209.340401,273.258077L192.462075,269.744646L192.188224,269.191453L191.779674,268.598830L190.667143,267.416239L189.830699,267.030756L188.862534,266.931038L188.247034,267.207622L187.632111,267.551943L186.659153,267.926498L186.012770,267.755967L185.226754,266.976686L183.810809,264.793165L182.456648,263.503538L181.808014,263.034635L181.323309,262.889622L181.137011,263.094495L181.058998,263.400114L181.088874,263.759044L181.172644,264.137853L181.229729,264.537217L181.125301,264.897273L180.133322,265.135970L174.134957,265.306435L170.961295,264.829494L167.726129,263.267942L167.150251,262.879115L166.771013,262.441390L164.865854,258.951502L163.348982,257.085076L161.005366,255.942540L158.138483,256.775160L152.721211,259.127798L151.680244,260.137235L151.198439,260.390941L150.608375,260.509752L148.943470,260.519781L148.513012,260.386803L147.287821,259.052195L146.911245,258.939181L146.616562,259.056096L146.484548,259.443139L146.380004,259.938452L146.306103,261.090941L146.391486,261.924001L146.366784,262.296869L146.315223,262.669893L146.317611,263.083266L146.347485,263.604911L145.814259,264.299211L145.336324,265.277803L139.731071,267.036584L137.243218,265.639868L136.893989,265.641637L136.410885,265.732166L136.117009,266.058923L135.715726,266.399761L134.563863,267.089883L130.523128,270.632898L126.770088,262.395389L124.797809,259.584564L123.126278,257.917519L122.397691,256.992008L121.911579,256.262034L121.390172,253.350062L120.903933,252.538732L119.934560,251.688557L119.610239,251.079871L119.527241,250.416059L119.792061,249.486649L120.084652,248.814645L120.750563,247.558404L121.069834,246.872722L121.307570,245.923055L121.547075,245.434196L122.241617,244.713132L122.507020,244.007297L122.607098,242.204281L122.064236,240.552904L121.146068,238.875858L119.744522,236.909179L119.017619,236.064805L118.470962,235.619559L116.995499,235.258952L116.619693,235.097643L116.270460,234.868463L115.974792,234.625534L115.706125,234.436719L114.065029,232.571925L111.965541,229.651227L111.051607,228.678257L110.193995,228.558919L107.302222,232.199739L106.740949,232.716347L106.312535,232.839514L105.776592,232.840980L103.685141,232.351792L99.876731,230.890435L105.275046,225.699679L107.115921,223.173685L108.666800,219.387820L109.154142,217.768733Z " data-code="sk-ta" data-name="Trnavský"/>
    <path d="M964.131298,180.153126L964.015711,180.131106L955.970153,178.595753L955.121111,178.720826L950.781022,180.330156L945.137782,181.032648L944.235695,180.766443L943.581525,180.198360L943.306519,178.884881L943.086800,177.194034L940.028196,171.071004L939.626128,169.854220L939.526393,168.889217L939.280468,167.872729L938.645470,166.909128L935.546007,165.374202L930.886862,165.748060L925.056438,174.974066L921.504713,176.780510L921.056217,177.298662L920.505254,178.027225L920.470964,178.600103L920.527785,179.201062L920.711737,179.834567L921.561663,182.198149L922.204028,184.663447L922.363589,185.882774L922.202751,186.708419L921.871548,186.974413L921.258796,187.170278L911.360632,188.030354L906.262174,189.204102L903.052806,189.319104L899.353508,188.608284L891.206871,184.343500L890.097932,183.461665L890.126782,183.065910L889.671915,182.645934L888.701632,182.122154L886.281864,181.117703L869.309640,176.712098L862.816415,176.914688L863.031295,183.570879L863.167490,184.051656L863.357889,184.542750L863.510463,185.294195L863.719068,188.745237L863.885990,189.733515L864.771055,192.403523L864.909811,192.924886L864.902453,194.575647L865.023109,195.240722L865.311008,196.011164L866.412046,198.253801L866.743596,199.300036L866.828131,200.252528L866.629776,201.405479L866.181311,202.858763L865.533881,203.685627L864.606802,204.325556L861.402762,205.618315L858.723189,208.359395L854.836619,209.331291L853.711309,209.961802L853.571804,210.323215L853.383464,211.217219L853.140574,211.645877L852.708837,212.058563L852.036352,212.485494L851.093938,212.887612L849.744233,213.211853L848.075042,213.126963L846.166372,212.621336L842.779622,210.402532L841.519314,209.960165L840.093284,209.894040L837.079730,210.212093L832.584871,209.664468L821.500337,205.995376L815.985580,197.196555L815.105343,196.010612L814.012769,194.069382L813.378893,192.496014L813.016281,189.875319L812.757010,188.606710L810.444150,183.692304L808.083948,185.046883L807.681604,185.510733L806.910837,186.090236L805.542845,186.526528L804.223811,186.403223L801.936205,185.396733L801.136771,184.504228L800.636294,183.690146L800.520050,183.044837L800.271133,182.420464L799.976073,182.409667L799.630689,182.937992L799.554123,184.931444L799.398515,185.985584L799.133831,186.522998L798.672124,186.405975L797.933761,185.645689L796.648151,184.671165L795.996325,184.503441L795.161501,184.576587L793.589879,185.206135L793.000186,185.679795L792.813104,186.172073L793.431879,187.197173L793.679778,187.808138L793.778696,188.630950L793.537945,192.038623L793.134099,193.948096L792.688030,195.092721L792.132713,195.713780L791.509417,196.073768L790.957320,196.266901L788.221186,196.701355L786.235761,197.637567L785.459402,197.815485L782.973847,197.936528L782.099832,198.126312L781.447242,198.446652L781.071711,198.935310L780.831589,199.450601L780.728718,200.026376L780.785082,200.573203L780.973976,201.092523L781.263195,201.484240L782.127986,202.109644L782.411758,202.399805L782.449120,202.594654L782.302316,202.853756L781.832190,203.082785L779.546984,203.457056L777.449659,203.338878L775.518092,202.478373L772.210862,199.776637L770.178707,196.843600L770.063577,196.191267L770.009094,195.671475L770.138720,195.087602L770.456035,194.507333L771.378957,193.229606L771.617485,192.680647L771.939368,192.188336L772.927324,191.131028L773.145922,190.712074L773.178307,190.316629L772.836741,189.438807L772.732000,188.982796L772.473947,188.663934L771.987917,188.588015L770.944496,189.105159L769.986147,189.210411L769.118733,189.012091L767.896035,188.174098L766.665474,187.689394L764.999134,187.736675L762.440203,186.934687L758.952452,187.809897L757.914491,187.416144L756.319791,186.101054L755.433488,185.190143L754.860404,184.466525L754.511496,183.934866L754.004593,183.452131L753.339356,183.011534L752.459250,182.554893L751.904728,182.183155L751.253335,182.006457L750.423232,181.995076L747.326585,183.172831L746.518753,183.248291L743.187345,182.991404L736.526695,181.104040L734.165743,181.501607L733.693613,181.688300L733.033634,181.864073L732.354152,181.653940L731.628198,181.052468L730.564790,179.592388L730.175312,178.763567L729.957195,178.150113L729.908706,177.718186L729.392395,177.024656L726.400253,174.418795L725.559617,173.293385L725.125306,172.093410L725.142751,171.373150L725.112279,170.763864L724.999446,170.111172L724.477490,168.759455L723.792726,168.427032L722.773578,168.355495L720.445004,168.823766L719.476017,169.224550L718.906236,169.591999L718.789023,169.923533L718.565148,170.260326L717.784536,170.149489L712.792979,167.197991L709.194076,166.823726L705.600459,163.984874L700.220299,165.424640L699.416768,165.381699L698.310301,165.149610L696.293865,164.322941L695.720218,163.685244L695.662490,163.036552L696.319074,162.245272L696.134563,161.738338L695.203661,161.260142L692.482468,160.758227L688.318729,159.109086L686.378200,158.725261L685.894888,158.856491L685.742188,159.582914L685.899948,160.098008L686.369311,160.992053L686.452590,161.625989L686.409014,162.401586L686.244294,163.440713L686.194948,164.094439L686.217264,164.568381L686.417225,164.844001L686.732056,165.100659L687.613725,165.669976L687.948286,165.966395L687.908398,166.253264L687.616518,166.484116L687.041244,166.748617L676.178317,165.428605L673.042418,165.776357L671.964494,166.151435L671.260951,166.536450L671.090520,166.897068L671.081894,167.290998L671.207805,167.705920L671.734971,168.713150L671.830515,169.048036L671.735690,169.310209L670.899942,170.311902L670.438915,170.746844L669.765765,171.218582L668.016820,172.125974L665.886158,172.480476L663.879213,172.421949L662.791000,171.996083L660.525413,168.569863L660.176176,167.934197L659.276890,167.540295L657.839861,167.265370L654.223394,167.033018L649.982708,164.764729L645.288118,161.449875L644.344358,160.629532L643.937448,159.873890L644.254733,157.980758L644.090315,157.275585L643.196400,156.975395L642.407934,157.254006L641.110290,158.708039L640.669451,159.615931L640.492633,160.458073L641.441726,162.017935L641.515138,162.476076L640.917572,162.854826L636.918890,164.438989L636.449683,164.703443L636.387013,165.106408L636.464942,165.672921L636.815335,166.980735L637.138502,167.658788L637.477792,168.091909L637.781337,168.316255L637.977072,168.518113L638.069396,168.799063L637.740055,168.596189L637.069082,167.906012L634.209382,164.148497L630.203808,161.646890L628.956978,161.415044L628.765445,161.097557L628.314030,160.736839L627.880187,160.578880L627.202404,160.960396L624.647424,163.659895L623.867359,164.154083L623.311085,164.258912L622.928498,164.051142L622.477118,164.110821L622.036019,164.414269L620.879656,165.487118L613.492659,169.145604L611.288423,170.742437L610.444758,171.658977L608.402079,174.822409L606.452965,176.814921L606.395658,177.373493L606.898648,177.909225L608.912536,178.138970L611.192873,178.778037L613.833908,181.877830L608.862825,185.385724L607.942297,186.413728L606.838767,188.202075L605.016653,193.370482L602.577801,195.911222L598.716576,197.274025L591.095227,209.813922L590.406596,211.367256L590.617730,212.640918L590.596104,213.448946L590.514799,214.103317L590.507915,216.640424L590.562269,218.693527L591.173144,221.260550L591.307580,222.625414L590.629676,223.791675L589.840795,224.867299L588.964508,225.769944L588.404138,226.524485L588.029045,227.217478L587.940895,228.387593L588.055657,229.943170L588.793750,233.020824L589.526519,234.592846L590.945549,235.866518L592.900124,236.196411L593.302588,236.417908L602.479643,243.438812L603.505025,245.330779L607.526095,255.702793L608.903353,260.476670L608.761553,260.957270L608.619742,261.437868L608.561228,261.982916L608.612325,262.577781L608.927557,263.053384L609.596894,263.636683L611.187712,264.385899L612.438659,264.714689L614.338486,264.901438L614.937439,265.073575L616.420745,265.813036L617.976676,266.352615L618.364781,266.628279L618.462748,267.044816L618.053179,268.852618L617.522243,272.286692L617.287903,273.130739L616.990554,273.753517L616.560186,274.415680L616.138140,275.280992L615.774532,276.259207L615.378260,277.754302L614.369143,284.009413L613.946776,285.098502L613.038796,286.614430L612.446261,287.941049L612.040840,289.232876L611.785897,290.911998L611.883358,291.979815L612.136237,292.892061L612.778145,294.086910L612.995891,294.797074L613.053521,295.547689L612.946028,296.216858L612.919565,296.889502L613.384372,297.704899L614.253675,298.517314L617.382758,300.274817L617.807899,300.772880L617.690534,301.198293L617.387701,301.705952L617.190626,302.161771L617.072947,302.580406L617.139070,302.876166L617.924640,302.952396L625.233817,302.025465L627.969652,302.284189L629.393417,302.136249L632.338331,300.316184L633.584782,299.808937L637.389177,299.613379L640.389704,301.642496L640.492026,301.711669L640.868485,301.275767L643.051639,297.674504L643.155531,296.747371L643.187032,295.809786L643.129085,294.882839L642.981710,293.966528L642.444980,289.437408L642.404815,287.254609L642.516842,285.268784L647.432169,283.034417L658.157165,281.831334L694.451482,271.645570L697.261631,271.465591L700.016150,272.760186L705.383374,277.227480L707.923855,277.763959L713.400171,278.083443L723.129938,283.417863L729.342917,283.667578L733.664829,283.113114L738.820748,283.777658L743.773217,285.733326L747.446637,289.021695L751.893425,289.819283L764.990713,282.679172L770.676021,281.063740L773.886112,282.278840L776.134139,283.985590L778.152523,284.747090L780.638978,283.161676L782.507133,280.115483L783.343019,277.273797L784.662881,274.752207L787.940230,272.559208L790.809805,271.806317L796.713747,271.355447L805.546334,267.997147L808.114166,268.628550L814.130097,271.795964L817.334462,272.858452L818.898070,274.135059L820.171676,276.317335L822.036007,281.304189L823.305541,283.079087L826.138737,284.194670L832.534082,283.740990L835.530774,284.240932L837.208718,287.131879L840.094349,297.815968L841.674610,300.535629L852.284562,314.978049L856.683786,319.554174L861.488263,322.699274L867.047670,324.242533L872.306643,323.465405L881.033844,318.298773L888.459816,316.717418L893.573232,313.345936L896.044483,312.187696L905.087041,311.148474L908.214757,309.838023L911.345247,309.436868L921.810272,309.804283L924.982558,308.649954L927.862232,306.039480L930.874837,301.598992L929.815989,282.726663L931.457415,278.340266L931.799547,274.187439L929.087856,263.710627L929.101840,258.383431L931.418840,253.952969L942.117036,244.033403L943.063387,242.055031L944.591953,237.761981L945.774022,235.835708L947.802379,234.233667L952.311404,232.452447L954.309078,230.946482L956.829212,227.081278L958.606365,222.055933L959.337425,216.421199L958.744596,210.821199L959.042802,207.281262L960.245440,205.474218L961.779946,204.079503L963.129708,201.813706L964.119128,198.729548L964.390419,196.930770L963.412928,188.081590L962.929461,185.967051L962.915080,183.915842L963.836227,180.645939L964.131298,180.153126Z " data-code="sk-ki" data-name="Košický"/>
    <path d="M808.346467,42.929249L805.312928,44.369583L802.770993,43.766256L796.530163,45.515037L793.714897,45.699175L776.854478,41.901769L767.039049,37.313524L764.650800,36.871220L761.686682,39.174327L756.793234,47.361942L754.015923,50.264093L750.384728,51.065379L747.683465,49.400889L745.110814,46.806125L741.918827,44.840217L739.265477,44.732711L732.419079,46.494966L729.876916,47.872986L726.622472,51.919723L728.822527,54.197490L732.874170,56.394353L735.156841,60.241557L733.887460,62.708939L730.764344,63.505720L727.169809,63.728281L724.518724,64.431841L721.182443,68.033065L716.017930,76.501723L712.488584,79.892800L708.552752,81.538292L705.380902,81.095955L702.510614,79.213175L699.580048,76.436978L696.270407,74.207707L693.568741,73.930041L690.665746,74.244980L686.808273,73.830894L684.014798,71.981379L668.018919,54.527511L665.336619,54.175531L658.935772,55.511593L655.227957,55.122481L653.664691,55.301227L651.964847,56.367884L649.402331,59.860868L647.528106,61.789494L643.555340,63.416896L639.776907,62.660058L625.037828,55.902065L622.403086,56.624678L622.631206,61.132985L613.831146,61.842597L606.740108,59.491239L604.714764,59.615265L603.023933,61.000537L602.456269,62.651736L602.202902,65.076924L601.474815,68.850984L600.406509,72.530298L599.607256,73.729497L586.472038,75.423046L583.935811,76.988327L580.387154,81.590695L578.771465,83.227372L574.992669,82.926494L574.553038,82.536546L573.632388,83.874358L570.649273,91.354902L569.797441,94.507460L568.725170,97.464887L566.702221,100.119246L566.079275,109.312679L564.559115,115.935551L561.310809,118.648707L555.522545,116.070393L546.382818,108.064443L541.533367,105.758021L536.071292,106.564181L533.057389,108.976994L529.838472,112.558078L530.050534,113.369248L533.889542,119.391461L534.814545,121.460975L535.539836,123.890185L535.735093,127.118113L536.007572,128.783506L536.856972,130.204563L537.427648,130.530091L537.901811,130.391101L538.203310,129.892048L538.764523,129.214156L539.414451,128.783985L540.658420,128.590167L541.738883,128.781899L542.808270,129.645347L543.710658,131.036956L544.869371,133.612843L545.568511,134.530188L546.108794,134.741166L546.544057,134.264182L546.961616,134.031976L547.476798,134.284503L548.044921,135.253970L548.602182,135.925405L549.178131,136.379112L549.843064,136.354799L553.180584,135.621863L555.480395,134.444993L556.373702,134.120253L557.274813,134.005408L557.794529,135.084799L558.004050,137.125229L557.228358,144.885767L557.283316,147.786506L557.151953,149.982029L556.466533,153.771550L556.429739,157.082615L556.169252,158.686067L555.555479,159.400541L554.414291,159.564735L552.582157,160.527377L551.651022,160.602226L550.410416,160.484863L549.856803,160.667856L549.694372,161.331642L549.894768,162.429798L556.052651,169.914874L557.130407,170.892336L557.996981,171.931809L558.603538,173.157228L558.928522,175.423989L559.719062,177.992201L560.130856,179.000997L560.530794,179.691458L561.085818,180.240480L561.951989,180.533696L563.869447,180.828161L564.292490,181.415918L563.959414,182.506811L562.155836,184.541208L560.367529,186.045749L554.590868,188.890981L579.509644,191.057456L582.767422,190.686929L585.344809,188.205611L586.492213,188.140334L589.707971,189.655363L593.125993,190.632539L594.080755,191.096554L595.376422,192.055650L602.577801,195.911222L605.016653,193.370482L606.838767,188.202075L607.942297,186.413728L608.862825,185.385724L613.833908,181.877830L611.192873,178.778037L608.912536,178.138970L606.898648,177.909225L606.395658,177.373493L606.452965,176.814921L608.402079,174.822409L610.444758,171.658977L611.288423,170.742437L613.492659,169.145604L620.879656,165.487118L622.036019,164.414269L622.477118,164.110821L622.928498,164.051142L623.311085,164.258912L623.867359,164.154083L624.647424,163.659895L627.202404,160.960396L627.880187,160.578880L628.314030,160.736839L628.765445,161.097557L628.956978,161.415044L630.203808,161.646890L634.209382,164.148497L637.069082,167.906012L637.740055,168.596189L638.069396,168.799063L637.977072,168.518113L637.781337,168.316255L637.477792,168.091909L637.138502,167.658788L636.815335,166.980735L636.464942,165.672921L636.387013,165.106408L636.449683,164.703443L636.918890,164.438989L640.917572,162.854826L641.515138,162.476076L641.441726,162.017935L640.492633,160.458073L640.669451,159.615931L641.110290,158.708039L642.407934,157.254006L643.196400,156.975395L644.090315,157.275585L644.254733,157.980758L643.937448,159.873890L644.344358,160.629532L645.288118,161.449875L649.982708,164.764729L654.223394,167.033018L657.839861,167.265370L659.276890,167.540295L660.176176,167.934197L660.525413,168.569863L662.791000,171.996083L663.879213,172.421949L665.886158,172.480476L668.016820,172.125974L669.765765,171.218582L670.438915,170.746844L670.899942,170.311902L671.735690,169.310209L671.830515,169.048036L671.734971,168.713150L671.207805,167.705920L671.081894,167.290998L671.090520,166.897068L671.260951,166.536450L671.964494,166.151435L673.042418,165.776357L676.178317,165.428605L687.041244,166.748617L687.616518,166.484116L687.908398,166.253264L687.948286,165.966395L687.613725,165.669976L686.732056,165.100659L686.417225,164.844001L686.217264,164.568381L686.194948,164.094439L686.244294,163.440713L686.409014,162.401586L686.452590,161.625989L686.369311,160.992053L685.899948,160.098008L685.742188,159.582914L685.894888,158.856491L686.378200,158.725261L688.318729,159.109086L692.482468,160.758227L695.203661,161.260142L696.134563,161.738338L696.319074,162.245272L695.662490,163.036552L695.720218,163.685244L696.293865,164.322941L698.310301,165.149610L699.416768,165.381699L700.220299,165.424640L705.600459,163.984874L709.194076,166.823726L712.792979,167.197991L717.784536,170.149489L718.565148,170.260326L718.789023,169.923533L718.906236,169.591999L719.476017,169.224550L720.445004,168.823766L722.773578,168.355495L723.792726,168.427032L724.477490,168.759455L724.999446,170.111172L725.112279,170.763864L725.142751,171.373150L725.125306,172.093410L725.559617,173.293385L726.400253,174.418795L729.392395,177.024656L729.908706,177.718186L729.957195,178.150113L730.175312,178.763567L730.564790,179.592388L731.628198,181.052468L732.354152,181.653940L733.033634,181.864073L733.693613,181.688300L734.165743,181.501607L736.526695,181.104040L743.187345,182.991404L746.518753,183.248291L747.326585,183.172831L750.423232,181.995076L751.253335,182.006457L751.904728,182.183155L752.459250,182.554893L753.339356,183.011534L754.004593,183.452131L754.511496,183.934866L754.860404,184.466525L755.433488,185.190143L756.319791,186.101054L757.914491,187.416144L758.952452,187.809897L762.440203,186.934687L764.999134,187.736675L766.665474,187.689394L767.896035,188.174098L769.118733,189.012091L769.986147,189.210411L770.944496,189.105159L771.987917,188.588015L772.473947,188.663934L772.732000,188.982796L772.836741,189.438807L773.178307,190.316629L773.145922,190.712074L772.927324,191.131028L771.939368,192.188336L771.617485,192.680647L771.378957,193.229606L770.456035,194.507333L770.138720,195.087602L770.009094,195.671475L770.063577,196.191267L770.178707,196.843600L772.210862,199.776637L775.518092,202.478373L777.449659,203.338878L779.546984,203.457056L781.832190,203.082785L782.302316,202.853756L782.449120,202.594654L782.411758,202.399805L782.127986,202.109644L781.263195,201.484240L780.973976,201.092523L780.785082,200.573203L780.728718,200.026376L780.831589,199.450601L781.071711,198.935310L781.447242,198.446652L782.099832,198.126312L782.973847,197.936528L785.459402,197.815485L786.235761,197.637567L788.221186,196.701355L790.957320,196.266901L791.509417,196.073768L792.132713,195.713780L792.688030,195.092721L793.134099,193.948096L793.537945,192.038623L793.778696,188.630950L793.679778,187.808138L793.431879,187.197173L792.813104,186.172073L793.000186,185.679795L793.589879,185.206135L795.161501,184.576587L795.996325,184.503441L796.648151,184.671165L797.933761,185.645689L798.672124,186.405975L799.133831,186.522998L799.398515,185.985584L799.554123,184.931444L799.630689,182.937992L799.976073,182.409667L800.271133,182.420464L800.520050,183.044837L800.636294,183.690146L801.136771,184.504228L801.936205,185.396733L804.223811,186.403223L805.542845,186.526528L806.910837,186.090236L807.681604,185.510733L808.083948,185.046883L810.444150,183.692304L812.757010,188.606710L813.016281,189.875319L813.378893,192.496014L814.012769,194.069382L815.105343,196.010612L815.985580,197.196555L821.500337,205.995376L832.584871,209.664468L837.079730,210.212093L840.093284,209.894040L841.519314,209.960165L842.779622,210.402532L846.166372,212.621336L848.075042,213.126963L849.744233,213.211853L851.093938,212.887612L852.036352,212.485494L852.708837,212.058563L853.140574,211.645877L853.383464,211.217219L853.571804,210.323215L853.711309,209.961802L854.836619,209.331291L858.723189,208.359395L861.402762,205.618315L864.606802,204.325556L865.533881,203.685627L866.181311,202.858763L866.629776,201.405479L866.828131,200.252528L866.743596,199.300036L866.412046,198.253801L865.311008,196.011164L865.023109,195.240722L864.902453,194.575647L864.909811,192.924886L864.771055,192.403523L863.885990,189.733515L863.719068,188.745237L863.510463,185.294195L863.357889,184.542750L863.167490,184.051656L863.031295,183.570879L862.816415,176.914688L869.309640,176.712098L886.281864,181.117703L888.701632,182.122154L889.671915,182.645934L890.126782,183.065910L890.097932,183.461665L891.206871,184.343500L899.353508,188.608284L903.052806,189.319104L906.262174,189.204102L911.360632,188.030354L921.258796,187.170278L921.871548,186.974413L922.202751,186.708419L922.363589,185.882774L922.204028,184.663447L921.561663,182.198149L920.711737,179.834567L920.527785,179.201062L920.470964,178.600103L920.505254,178.027225L921.056217,177.298662L921.504713,176.780510L925.056438,174.974066L930.886862,165.748060L935.546007,165.374202L938.645470,166.909128L939.280468,167.872729L939.526393,168.889217L939.626128,169.854220L940.028196,171.071004L943.086800,177.194034L943.306519,178.884881L943.581525,180.198360L944.235695,180.766443L945.137782,181.032648L950.781022,180.330156L955.121111,178.720826L955.970153,178.595753L964.015711,180.131106L964.131298,180.153126L965.311904,178.180853L969.197200,174.395861L970.654168,171.944904L970.882164,170.325510L970.631930,166.944808L970.756773,165.645074L972.567851,160.845366L975.536628,149.604544L978.387573,147.015357L984.918573,145.583004L987.419692,143.124771L987.038150,138.706568L987.411835,132.617972L988.231277,126.552457L989.237636,122.145654L983.100269,119.625455L969.658539,119.971623L963.241024,118.467540L953.972522,110.303845L950.230283,109.102088L940.790828,110.100855L932.595843,108.170740L931.249731,107.158801L930.751367,105.533841L931.116835,103.811234L930.977277,101.972412L928.964611,99.998666L927.532588,99.820951L923.464403,100.590017L921.742545,100.593647L919.705098,99.843090L913.902951,96.604924L901.648597,95.067522L896.580153,91.816210L894.919358,83.552570L892.178922,74.446771L886.772068,66.798689L880.253722,61.364394L870.785772,57.331585L864.175407,51.936524L860.948564,50.340135L857.553291,51.184504L854.776546,54.068784L852.537739,57.096625L850.830077,58.394397L848.075714,56.413352L841.820422,47.903457L838.774656,45.123120L837.054937,44.722176L834.449729,45.473162L833.154217,45.372706L831.357944,44.269316L828.007335,41.355149L826.214416,40.291665L822.981091,39.650994L810.865707,41.732323L808.346467,42.929249Z " data-code="sk-pv" data-name="Prešov"/>
  </g>
  <g class="" id="city">
    <circle cx="407.310630873" cy="280.127146932" data-code="Zvolen" data-name="Zvolen" data-population="42778" r="16"/>
    <circle cx="343.006199316" cy="240.919408404" data-code="Handlova" data-name="Handlová" data-population="17688" r="16"/>
    <circle cx="265.579880986" cy="139.335462863" data-code="Puchov" data-name="Púchov" data-population="18592" r="16"/>
    <circle cx="245.618163075" cy="411.84041165" data-code="Surany" data-name="Šurany" data-population="10445" r="16"/>
    <circle cx="164.874831655" cy="385.128089679" data-code="Galanta" data-name="Galanta" data-population="15886" r="16"/>
    <circle cx="286.730276661" cy="141.100508702" data-code="Povazska_Bystrica" data-name="Považská Bystrica" data-population="41936" r="16"/>
    <circle cx="369.750422145" cy="150.923236295" data-code="Martin" data-name="Martin" data-population="58794" r="16"/>
    <circle cx="626.888869708" cy="125.742543168" data-code="Kezmarok" data-name="Kežmarok" data-population="17013" r="16"/>
    <circle cx="242.016768393" cy="287.732095162" data-code="Topolcany" data-name="Topoľčany" data-population="28673" r="16"/>
    <circle cx="368.160482822" cy="312.088357647" data-code="Banska_Stiavnica" data-name="Banská Štiavnica" data-population="10640" r="16"/>
    <circle cx="276.034210316" cy="269.679945556" data-code="Partizanske" data-name="Partizánske" data-population="24335" r="16"/>
    <circle cx="176.916114279" cy="322.919251562" data-code="Hlohovec" data-name="Hlohovec" data-population="22575" r="16"/>
    <circle cx="655.126111414" cy="153.683977804" data-code="Levoca" data-name="Levoča" data-population="14716" r="16"/>
    <circle cx="135.807833389" cy="237.643375265" data-code="Myjava" data-name="Myjava" data-population="12652" r="16"/>
    <circle cx="890.600506863" cy="213.397384573" data-code="Michalovce" data-name="Michalovce" data-population="39694" r="16"/>
    <circle cx="92.300049881" cy="428.319074369" data-code="Samorin" data-name="Šamorín" data-population="12736" r="16"/>
    <circle cx="882.386785583" cy="165.25693494" data-code="Humenne" data-name="Humenné" data-population="35028" r="16"/>
    <circle cx="741.59762275" cy="129.18587688" data-code="Sabinov" data-name="Sabinov" data-population="12489" r="16"/>
    <circle cx="239.08595509" cy="183.382319301" data-code="Dubnica_nad_Vahom" data-name="Dubnica nad Váhom" data-population="25263" r="16"/>
    <circle cx="924.84358559" cy="148.103961675" data-code="Snina" data-name="Snina" data-population="21167" r="16"/>
    <circle cx="563.454609357" cy="325.879482166" data-code="Rimavska_Sobota" data-name="Rimavská Sobota" data-population="24309" r="16"/>
    <circle cx="41.445606712" cy="321.517625399" data-code="Malacky" data-name="Malacky" data-population="17887" r="16"/>
    <circle cx="431.600945262" cy="112.037081922" data-code="Dolny_Kubin" data-name="Dolný Kubín" data-population="19747" r="16"/>
    <circle cx="649.634064951" cy="251.269794992" data-code="Roznava" data-name="Rožňava" data-population="19043" r="16"/>
    <circle cx="212.766428175" cy="456.260807577" data-code="Kolarovo" data-name="Kolárovo" data-population="10765" r="16"/>
    <circle cx="336.317552095" cy="111.972502646" data-code="Zilina" data-name="Žilina" data-population="85558" r="16"/>
    <circle cx="343.9842667" cy="91.7629705854" data-code="Kysucke_Nove_Mesto" data-name="Kysucké Nové Mesto" data-population="16420" r="16"/>
    <circle cx="66.263484685" cy="223.586289373" data-code="Holic" data-name="Holíč" data-population="11688" r="16"/>
    <circle cx="217.420705704" cy="200.703969689" data-code="Trencin" data-name="Trenčín" data-population="56759" r="16"/>
    <circle cx="651.775191863" cy="175.253300837" data-code="Spisska_Nova_Ves" data-name="Spišská Nová Ves" data-population="38257" r="16"/>
    <circle cx="855.709369678" cy="247.420895378" data-code="Trebisov" data-name="Trebišov" data-population="23305" r="16"/>
    <circle cx="577.595960296" cy="246.627217554" data-code="Revuca" data-name="Revúca" data-population="12975" r="16"/>
    <circle cx="256.064343059" cy="244.988327246" data-code="Banovce_nad_Bebravou" data-name="Bánovce nad Bebravou" data-population="20592" r="16"/>
    <circle cx="668.895072742" cy="81.598414527" data-code="Stara_Lubovna" data-name="Stará Ľubovňa" data-population="16338" r="16"/>
    <circle cx="281.726047094" cy="333.352820641" data-code="Zlate_Moravce" data-name="Zlaté Moravce" data-population="13289" r="16"/>
    <circle cx="236.689276997" cy="498.170808693" data-code="Komarno" data-name="Komárno" data-population="36066" r="16"/>
    <circle cx="502.296113344" cy="341.95354176" data-code="Lucenec" data-name="Lučenec" data-population="27690" r="16"/>
    <circle cx="769.433783408" cy="77.7959220239" data-code="Bardejov" data-name="Bardejov" data-population="33405" r="16"/>
    <circle cx="77.5020518508" cy="213.893068585" data-code="Skalica" data-name="Skalica" data-population="14948" r="16"/>
    <circle cx="448.275809133" cy="375.326774696" data-code="Velky_Krtis" data-name="Veľký Krtíš" data-population="13649" r="16"/>
    <circle cx="180.533640789" cy="280.39578343" data-code="Piestany" data-name="Piešťany" data-population="29587" r="16"/>
    <circle cx="339.797108634" cy="486.002652847" data-code="Sturovo" data-name="Štúrovo" data-population="10901" r="16"/>
    <circle cx="494.253878737" cy="217.540805477" data-code="Brezno" data-name="Brezno" data-population="22116" r="16"/>
    <circle cx="767.516178718" cy="155.414366103" data-code="Presov" data-name="Prešov" data-population="91498" r="16"/>
    <circle cx="530.396518987" cy="356.793387735" data-code="Filakovo" data-name="Fiľakovo" data-population="10342" r="16"/>
    <circle cx="835.121998159" cy="97.938099385" data-code="Stropkov" data-name="Stropkov" data-population="10833" r="16"/>
    <circle cx="146.480897164" cy="438.158400502" data-code="Dunajska_Streda" data-name="Dunajská Streda" data-population="23419" r="16"/>
    <circle cx="181.671912363" cy="234.898774018" data-code="Nove_Mesto_nad_Vahom" data-name="Nové Mesto nad Váhom" data-population="20505" r="16"/>
    <circle cx="343.49469801" cy="54.810173504" data-code="Cadca" data-name="Čadca" data-population="25751" r="16"/>
    <circle cx="84.9661972411" cy="360.696138318" data-code="Pezinok" data-name="Pezinok" data-population="21656" r="16"/>
    <circle cx="139.923926227" cy="336.572174313" data-code="Trnava" data-name="Trnava" data-population="68038" r="16"/>
    <circle cx="433.959918193" cy="146.874280916" data-code="Ruzomberok" data-name="Ružomberok" data-population="29793" r="16"/>
    <circle cx="487.702266377" cy="144.81677509" data-code="Liptovsky_Mikulas" data-name="Liptovský Mikuláš" data-population="32748" r="16"/>
    <circle cx="411.210278983" cy="237.507952307" data-code="Banska_Bystrica" data-name="Banská Bystrica" data-population="80466" r="16"/>
    <circle cx="235.616564681" cy="189.07401417" data-code="Nova_Dubnica" data-name="Nová Dubnica" data-population="11932" r="16"/>
    <circle cx="107.142792846" cy="377.833596977" data-code="Senec" data-name="Senec" data-population="15750" r="16"/>
    <circle cx="457.280789343" cy="287.010864762" data-code="Detva" data-name="Detva" data-population="14977" r="16"/>
    <circle cx="318.702270444" cy="231.007789121" data-code="Prievidza" data-name="Prievidza" data-population="50919" r="16"/>
    <circle cx="241.801019828" cy="438.09912202" data-code="Nove_Zamky" data-name="Nové Zámky" data-population="40840" r="16"/>
    <circle cx="820.083948902" cy="70.8499206466" data-code="Svidnik" data-name="Svidník" data-population="12156" r="16"/>
    <circle cx="165.359424771" cy="359.459314055" data-code="Sered" data-name="Sereď" data-population="17045" r="16"/>
    <circle cx="844.811912966" cy="179.231116268" data-code="Vranov_nad_Toplou" data-name="Vranov nad Topľou" data-population="23109" r="16"/>
    <circle cx="358.924199295" cy="277.418881715" data-code="Ziar_nad_Hronom" data-name="Žiar nad Hronom" data-population="19782" r="16"/>
    <circle cx="604.93151542" cy="148.199906463" data-code="Poprad" data-name="Poprad" data-population="54931" r="16"/>
    <circle cx="56.9178955547" cy="395.296672851" data-code="Bratislava" data-name="Bratislava" data-population="426927" r="16"/>
    <circle cx="227.857661731" cy="352.560105215" data-code="Nitra" data-name="Nitra" data-population="84444" r="16"/>
    <circle cx="317.381397799" cy="376.552210836" data-code="Levice" data-name="Levice" data-population="35830" r="16"/>
    <circle cx="305.389589532" cy="112.542009119" data-code="Bytca" data-name="Bytča" data-population="11600" r="16"/>
    <circle cx="730.81938991" cy="258.041330775" data-code="Moldava_nad_Bodvou" data-name="Moldava nad Bodvou" data-population="10050" r="16"/>
    <circle cx="773.0678616" cy="228.786044515" data-code="Kosice" data-name="Košice" data-population="234237" r="16"/>
    <circle cx="191.1298809" cy="395.325398092" data-code="Sala" data-name="Šaľa" data-population="24099" r="16"/>
    <circle cx="101.467284733" cy="257.513651547" data-code="Senica" data-name="Senica" data-population="20723" r="16"/>
  </g>
</svg>
