<?xml version="1.0" encoding="utf-8"?><!DOCTYPE svg  PUBLIC '-//W3C//DTD SVG 1.1//EN'  'http://www.w3.org/Graphics/SVG/1.1/DTD/svg11.dtd'>
<svg enable_background="new 0 0 1000 1198" height="1198px" pretty_print="False" style="stroke-linejoin: round; stroke:#000; fill: none;" version="1.1" viewBox="0 0 1000 1198" width="1000px" xmlns="http://www.w3.org/2000/svg" xmlns:xlink="http://www.w3.org/1999/xlink">
    <defs>
        <style type="text/css">
            <![CDATA[path { fill-rule: evenodd; }]]>
        </style>
    </defs>
    <metadata>
        <views>
            <view h="1198.30756103" padding="0" w="1000">
                <proj flip="auto" id="robinson" lon0="18.8117633085"/>
                <bbox h="1210.83" w="1011.29" x="-258.56" y="-626.99"/>
            </view>
        </views>
    </metadata>
    <g class="" id="states">
        <path d="M494.372470,716.851088L451.266553,716.631912L446.130897,718.622473L441.901084,718.312545L435.859015,720.539406L434.451136,723.759406L441.699871,734.241312L444.611007,745.331925L448.912438,761.337651L444.375309,767.906004L443.563109,771.349416L447.053199,781.289209L450.834364,791.339952L455.126343,797.262657L455.783016,806.652675L454.108897,818.925305L449.353393,826.297488L440.870016,837.137116L437.320801,843.926411L432.412078,858.861432L431.557511,865.972087L426.337836,881.140669L424.112066,895.710115L425.305144,906.127576L432.307293,902.975909L441.002932,900.153856L450.359748,900.648744L458.826599,908.140484L461.032470,906.976064L519.576131,906.261143L529.369711,914.199668L564.228147,916.544703L590.959539,909.792924L581.862780,899.443202L572.510212,885.887563L574.498100,833.169733L604.741094,833.378632L603.636101,827.659604L605.941187,821.454325L603.553189,813.684067L605.372918,805.649292L603.936350,800.505672L597.325766,799.528829L588.262771,802.009890L581.945544,801.603229L578.315174,803.122857L579.432416,783.408150L574.668303,777.260218L573.748683,767.071263L576.035022,757.084307L573.161709,750.692291L573.021944,740.267780L555.309840,740.412470L556.646597,734.443365L549.197347,734.505864L548.379991,737.376549L539.319422,738.023802L535.554419,747.678638L533.321866,751.821554L525.285219,749.481693L520.446159,751.812136L510.784875,753.152012L505.283189,744.489471L501.979211,739.131665L497.875992,729.196848L494.372470,716.851088Z M437.567981,713.650778L438.065773,706.428253L440.479736,702.169090L445.817103,698.687114L440.368863,693.003116L435.938058,695.789893L430.002282,702.942848L433.842218,715.400760L437.567981,713.650778Z " data-name="ao"/>
        <path d="M702.425527,665.991559L701.631809,659.467702L701.631481,659.467656L693.866835,658.384673L689.310430,667.817725L680.439226,666.515522L684.049087,674.047928L684.154725,676.918093L689.349740,692.706887L689.269440,693.442914L690.818761,693.241126L696.192958,687.239501L701.979381,678.598368L705.623238,675.131814L705.540902,669.746631L702.425527,665.991559Z " data-name="bi"/>
        <path d="M308.400917,426.297353L297.284938,416.763463L292.073803,416.806269L287.203369,421.658834L284.034706,426.612409L276.926509,428.160291L273.970717,435.403570L268.967108,437.278492L267.120675,446.001590L271.572723,450.892238L276.636901,456.693994L277.198638,464.824753L280.138485,468.238194L279.511143,506.286363L283.117680,517.716035L295.186414,515.783264L295.985068,489.077684L295.599075,478.538911L298.328817,468.088797L302.808261,463.010161L309.850864,452.754327L308.303943,448.298160L311.153901,441.628909L307.851038,431.801409L308.400917,426.297353Z " data-name="bj"/>
        <path d="M261.306280,372.142046L252.015962,372.218248L248.401226,369.039659L240.423345,371.398009L226.864619,378.270672L224.085834,383.449711L212.809180,390.876557L210.821470,395.132532L204.725653,398.505783L197.713578,396.272076L193.717924,400.315260L191.537263,411.677153L179.936314,425.407833L180.247125,431.019335L176.247221,438.041730L177.170191,447.659487L183.705527,451.271505L186.231989,456.750499L192.772333,460.248681L197.881531,456.081855L204.709603,455.452595L214.671938,459.724724L212.711525,447.251968L213.075372,437.852526L238.359538,437.071736L244.788800,438.279306L249.489421,435.605188L256.220506,436.924910L268.967108,437.278492L273.970717,435.403570L276.926509,428.160291L284.034706,426.612409L287.203369,421.658834L287.509563,410.312467L270.751550,406.554860L270.292371,398.537461L262.111378,387.719016L260.160765,380.172257L261.306280,372.142046Z " data-name="bf"/>
        <path d="M620.411761,913.328942L617.861443,912.090913L609.596933,915.823815L605.219835,915.860630L595.792604,922.353669L590.509671,915.524158L568.088415,921.324592L557.339507,921.872520L555.086609,980.875342L540.944802,981.452228L539.330882,1029.812504L543.083003,1032.302400L550.886363,1048.060847L549.141897,1058.167557L552.045676,1063.990532L562.280812,1062.298739L569.722094,1054.896714L576.679345,1049.907172L580.521730,1041.962375L587.635856,1038.118487L593.540827,1040.132522L600.114457,1044.777984L611.645504,1045.598261L620.934383,1041.736104L622.633428,1036.562184L625.524123,1028.628465L633.341982,1027.301404L637.928872,1021.074643L643.200148,1010.031259L656.598614,997.662054L677.407743,985.463113L668.610348,977.978964L657.635150,975.436967L653.857622,964.933640L654.063689,959.091373L647.985416,957.310248L632.431806,939.115908L628.269184,929.529644L625.480233,926.574365L620.411761,913.328942Z " data-name="bw"/>
        <path d="M604.224367,476.668704L603.029067,475.896840L597.899582,471.125968L596.882805,465.977120L599.138407,459.082619L598.980027,452.322836L590.396171,441.964940L588.614240,434.875339L579.453266,437.700135L572.185365,444.407049L561.938189,462.482778L548.325628,470.158096L534.233945,469.128583L530.141787,470.651664L531.656416,476.483729L524.117839,482.275571L517.993116,488.743357L499.684821,495.081878L496.004214,491.330219L493.584406,491.006594L490.933519,495.268092L478.877927,496.513366L471.667750,513.303410L468.184479,516.311084L467.144098,529.154271L468.642717,536.131933L467.495404,541.068737L474.454599,549.720585L475.734762,555.668698L481.178674,564.218646L487.894143,569.549464L488.581828,577.106695L490.144514,581.907122L497.741486,566.489157L506.407269,557.709334L516.322241,560.492680L525.733611,561.417322L526.970501,549.863134L532.598858,541.451437L540.381958,536.116522L552.455941,541.746810L561.816909,547.858454L572.525018,549.489424L583.458989,552.723109L587.741473,542.718115L589.737235,541.441163L596.414387,543.105096L612.603308,534.836571L618.405445,538.341032L623.132654,537.844035L625.280791,533.815607L630.696068,532.396102L641.709294,534.139233L651.085419,534.520650L655.889373,532.762965L653.475944,527.510881L642.474601,520.954015L638.659618,511.015335L632.478503,503.846323L622.542900,495.218435L622.331822,489.833666L614.244911,483.138998L604.224367,476.668704Z " data-name="cf"/>
        <path d="M177.170191,447.659487L171.150864,450.114443L167.740127,452.205117L165.519028,445.119348L161.305256,446.987424L158.794926,446.664235L156.089726,451.498808L144.841886,451.362255L140.824379,448.874764L138.916789,450.379843L136.004694,451.664042L134.801176,457.288153L138.120831,464.135559L141.652829,477.398094L136.226251,479.390350L134.820899,481.693390L135.931896,484.892820L135.037561,492.118735L132.723167,492.137570L132.026845,496.955997L133.450208,504.964888L130.243528,512.324824L134.482317,516.873150L139.117577,517.980587L145.279182,524.919727L145.701734,531.447483L144.297101,533.521518L143.131234,547.166255L145.954571,547.601609L160.445898,541.524638L170.605474,536.743022L187.923351,533.851137L197.292250,533.659787L207.483809,536.898842L214.133074,536.730180L214.804906,530.193216L208.489778,515.921533L212.327470,497.212843L218.498475,483.297385L214.671938,459.724724L204.709603,455.452595L197.881531,456.081855L192.772333,460.248681L186.231989,456.750499L183.705527,451.271505L177.170191,447.659487Z " data-name="ci"/>
        <path d="M473.106126,439.034839L473.501214,428.030160L472.383755,417.038282L466.457296,406.429435L462.370126,407.379754L461.974349,412.654435L467.816541,419.253101L466.271040,422.245285L465.572868,427.751918L453.462899,440.571590L449.724474,451.144797L447.751944,459.755116L444.694134,463.447221L441.851168,475.044546L434.104632,481.869328L431.904801,490.252752L428.671579,496.925604L427.350040,503.812076L417.352698,509.394633L409.117914,502.586492L403.585199,502.861317L394.938219,512.558127L390.710582,512.707098L383.830772,528.691948L380.115171,540.416348L379.963379,544.995053L383.715433,547.370876L386.711202,554.794567L393.391974,557.604455L399.142862,568.557615L397.042072,581.638292L420.850519,582.016281L427.799865,580.927688L436.697358,583.146826L445.351179,581.012875L447.175351,581.916112L465.640718,582.565929L477.484898,586.937423L489.123407,590.853018L490.144514,581.907122L488.581828,577.106695L487.894143,569.549464L481.178674,564.218646L475.734762,555.668698L474.454599,549.720585L467.495404,541.068737L468.642717,536.131933L467.144098,529.154271L468.184479,516.311084L471.667750,513.303410L478.877927,496.513366L481.125058,492.025414L476.422843,480.604797L474.303496,473.746629L467.926289,470.934191L459.229330,461.264919L462.315814,453.447366L468.972508,455.111424L473.070246,453.931668L481.208466,454.093906L473.106126,439.034839Z " data-name="cm"/>
        <path d="M641.709294,534.139233L630.696068,532.396102L625.280791,533.815607L623.132654,537.844035L618.405445,538.341032L612.603308,534.836571L596.414387,543.105096L589.737235,541.441163L587.741473,542.718115L583.458989,552.723109L572.525018,549.489424L561.816909,547.858454L552.455941,541.746810L540.381958,536.116522L532.598858,541.451437L526.970501,549.863134L525.733611,561.417322L524.925699,571.423148L520.588741,580.282152L517.771049,590.618433L515.986330,605.300085L516.764028,614.689455L514.380182,620.438485L514.012443,626.514564L512.323913,631.799562L502.672789,639.784852L495.943804,648.318935L489.527572,664.413675L489.948913,678.044438L486.223114,683.346580L477.658478,691.437214L468.994820,701.820635L463.552754,698.885742L462.643355,694.195736L454.681578,694.032211L449.647713,700.374592L445.817103,698.687114L440.479736,702.169090L438.065773,706.428253L437.567981,713.650778L433.842218,715.400760L435.859015,720.539406L441.901084,718.312545L446.130897,718.622473L451.266553,716.631912L494.372470,716.851088L497.875992,729.196848L501.979211,739.131665L505.283189,744.489471L510.784875,753.152012L520.446159,751.812136L525.285219,749.481693L533.321866,751.821554L535.554419,747.678638L539.319422,738.023802L548.379991,737.376549L549.197347,734.505864L556.646597,734.443365L555.309840,740.412470L573.021944,740.267780L573.161709,750.692291L576.035022,757.084307L573.748683,767.071263L574.668303,777.260218L579.432416,783.408150L578.315174,803.122857L581.945544,801.603229L588.262771,802.009890L597.325766,799.528829L603.936350,800.505672L608.949042,800.922607L609.680645,806.072220L616.508436,805.672408L625.715301,807.200597L630.410526,814.722554L642.002268,817.033253L651.017456,811.803149L654.069363,820.484325L665.150395,822.799313L670.315651,829.859028L676.021423,838.976983L687.130406,839.113967L686.429045,821.248852L682.357074,824.261593L672.364675,817.814045L668.510853,814.866384L670.710168,798.236931L673.717729,778.622337L670.599034,771.316026L674.950281,760.740060L678.895182,758.759790L698.537857,755.963608L701.086724,756.715437L701.795679,753.921691L697.651180,749.503953L695.903878,740.406477L687.134157,731.375763L682.292357,719.511163L684.999417,712.526646L681.170451,703.208256L684.091026,676.725110L684.154725,676.918093L684.049087,674.047928L680.439226,666.515522L681.864265,657.452327L683.882871,656.174953L684.486133,646.316405L688.717215,641.698342L688.881793,629.208004L692.281331,622.877649L693.095355,609.579111L696.151153,601.876351L701.706294,593.236534L707.301421,588.836360L711.964448,582.953764L706.083656,580.710226L706.790802,561.338128L706.790691,561.338035L693.796426,550.328453L690.240858,543.252354L682.141297,546.757015L675.369162,545.666705L671.487337,548.448771L664.900875,546.439810L655.889373,532.762965L651.085419,534.520650L641.709294,534.139233Z " data-name="cd"/>
        <path d="M525.733611,561.417322L516.322241,560.492680L506.407269,557.709334L497.741486,566.489157L490.144514,581.907122L489.123407,590.853018L477.484898,586.937423L465.640718,582.565929L447.175351,581.916112L446.132686,589.142862L450.242792,597.703486L461.127556,596.353341L464.786984,599.646086L458.471111,618.834065L465.390451,628.631816L466.965380,641.567352L465.088480,652.582554L460.573172,660.411178L447.660973,659.714273L439.867654,651.758083L438.681670,659.100414L428.804233,661.129487L423.774341,665.295509L429.249762,676.250803L418.079387,685.395350L430.002282,702.942848L435.938058,695.789893L440.368863,693.003116L445.817103,698.687114L449.647713,700.374592L454.681578,694.032211L462.643355,694.195736L463.552754,698.885742L468.994820,701.820635L477.658478,691.437214L486.223114,683.346580L489.948913,678.044438L489.527572,664.413675L495.943804,648.318935L502.672789,639.784852L512.323913,631.799562L514.012443,626.514564L514.380182,620.438485L516.764028,614.689455L515.986330,605.300085L517.771049,590.618433L520.588741,580.282152L524.925699,571.423148L525.733611,561.417322Z " data-name="cg"/>
        <path d="M883.571530,429.579754L877.155997,425.046974L885.301006,421.082657L885.484602,414.203616L881.834856,409.076200L877.618348,413.122315L871.338974,411.684038L866.516857,419.010571L861.887491,426.777255L863.183474,431.351270L863.591332,436.390982L871.730450,436.667818L875.193913,435.493045L878.526875,438.445823L883.571530,429.579754Z " data-name="dj"/>
        <path d="M371.102097,6.812583L361.772402,7.837960L356.103072,3.909205L341.495415,4.039633L328.745060,10.695236L321.793909,8.187036L299.167911,9.557195L275.976493,12.567654L262.788172,17.706999L254.122101,24.668365L239.248687,27.597741L225.957562,36.789377L231.090253,47.515832L231.855683,57.655452L236.564246,75.171378L240.217621,78.687111L237.639212,85.110766L219.371038,87.894467L213.004066,93.999587L204.907316,95.438536L204.176478,107.650976L187.708305,114.179721L182.224331,122.444956L170.652557,126.884090L156.563740,129.403832L133.572767,141.609344L133.281983,161.235320L133.266300,162.345003L132.929573,165.556627L185.762508,205.711257L233.702505,241.871572L282.054688,278.010114L285.492599,285.771039L294.458769,290.508131L301.129359,293.202328L301.343286,303.741322L317.304098,302.119518L337.541659,294.732421L378.772081,262.195604L427.288560,230.622076L420.812587,220.244239L409.402296,212.542762L402.795466,215.579968L397.555580,206.335058L396.885294,199.229072L388.245714,187.139701L393.741204,180.208382L392.283863,169.781108L393.882049,160.707699L392.687251,153.152838L394.846933,139.644969L393.886974,131.959377L388.962999,117.374958L382.200788,87.756652L373.429090,81.088589L373.204650,77.085616L361.586663,67.216950L360.059466,54.697769L368.346811,45.389320L371.210880,31.553866L368.573749,15.480065L371.102097,6.812583Z " data-name="dz"/>
        <path d="M654.250315,105.526211L639.961301,100.652267L626.161858,96.290141L607.587428,96.562868L603.100252,104.478507L605.767287,111.533222L602.851484,121.722565L607.944906,135.034900L611.318610,193.970625L613.988014,255.001700L671.572736,255.001700L727.152020,255.001700L783.966510,255.001700L781.257359,251.608653L763.730058,236.739633L762.624881,225.970724L765.282928,223.081565L751.313995,204.729946L746.111922,195.362883L740.234205,186.344428L727.603106,160.514914L717.605386,143.861434L710.307017,126.409383L711.622261,124.911773L723.664155,148.623042L730.633738,156.016061L735.769594,161.363378L738.837397,158.469587L741.974453,149.842974L743.932712,137.338036L747.288890,130.691482L745.495717,126.398631L735.358762,102.333097L735.358693,102.333141L728.877164,106.487985L717.872229,105.554251L706.288117,101.657145L703.536843,107.046481L698.971582,98.865102L688.839753,96.782134L676.633704,98.142541L671.287467,102.869167L660.946134,108.094707L654.250315,105.526211Z " data-name="eg"/>
        <path d="M832.379584,363.746132L824.041878,355.675837L819.271751,340.467248L809.857357,321.286508L803.063365,330.742964L792.571323,333.466799L788.280921,338.546544L787.398138,349.559417L782.274946,373.905384L784.095186,380.538826L801.123196,384.001717L805.112431,371.636347L814.244044,379.157704L822.570374,375.261348L826.224184,378.725606L836.173064,378.923941L849.097503,385.566728L853.104593,391.287944L859.772046,396.609981L866.153786,406.323011L871.338974,411.684038L877.618348,413.122315L881.834856,409.076200L874.483045,404.093015L869.696950,398.400905L861.407772,388.840596L852.912289,379.396127L832.379584,363.746132Z " data-name="er"/>
        <path d="M805.112431,371.636347L801.123196,384.001717L784.095186,380.538826L782.349233,394.766996L777.034094,411.086787L768.539477,419.294533L762.690548,431.950171L761.422744,438.722635L754.654184,443.362750L750.784386,460.700221L750.857018,462.676616L751.317288,475.594631L749.244512,480.654336L741.512178,481.061565L736.728729,490.498589L745.712434,491.685322L753.260994,499.760190L755.938821,506.385240L762.674972,510.226440L771.607908,528.255653L779.241696,531.035167L779.384432,540.333796L784.458100,545.786208L794.632646,545.786208L813.337758,559.856345L817.961845,560.023594L821.380107,559.566993L824.642974,561.477726L834.412897,562.781258L838.638918,555.877072L851.890474,548.948029L857.874175,554.546699L867.864955,554.549649L871.781149,549.327260L881.148170,549.021423L893.969590,537.341951L912.994787,536.612023L953.098206,486.886369L940.830069,486.987763L892.587332,467.327160L886.846975,461.414272L881.225868,453.438060L875.550971,444.315525L878.526875,438.445823L875.193913,435.493045L871.730450,436.667818L863.591332,436.390982L863.183474,431.351270L861.887491,426.777255L866.516857,419.010571L871.338974,411.684038L866.153786,406.323011L859.772046,396.609981L853.104677,391.287775L849.097503,385.566728L836.173509,378.923762L826.224184,378.725606L822.570374,375.261348L814.244044,379.157704L805.112431,371.636347Z " data-name="et"/>
        <path d="M447.175351,581.916112L445.351179,581.012875L436.697358,583.146826L427.799865,580.927688L420.850519,582.016281L421.018641,601.953404L399.729128,601.783887L394.792841,602.741060L391.852333,615.025065L388.295773,627.086470L385.097007,632.383455L384.621948,637.887628L393.478815,655.002030L403.111057,668.673019L418.079387,685.395350L429.249762,676.250803L423.774341,665.295509L428.804233,661.129487L438.681670,659.100414L439.867654,651.758083L447.660973,659.714273L460.573172,660.411178L465.088480,652.582554L466.965380,641.567352L465.390451,628.631816L458.471111,618.834065L464.786984,599.646086L461.127556,596.353341L450.242792,597.703486L446.132686,589.142862L447.175351,581.916112Z " data-name="ga"/>
        <path d="M256.220506,436.924910L249.489421,435.605188L244.788800,438.279306L238.359538,437.071736L213.075372,437.852526L212.711525,447.251968L214.671938,459.724724L218.498475,483.297385L212.327470,497.212843L208.489778,515.921533L214.804906,530.193216L214.133074,536.730180L227.156882,541.435598L240.329715,536.629787L248.456441,530.948344L271.359936,521.250245L268.097320,515.432668L264.201412,504.922509L263.039644,496.682028L266.260036,481.759313L262.599477,475.716193L261.206706,462.664708L261.227995,450.633687L255.149267,442.089935L256.220506,436.924910Z " data-name="gh"/>
        <path d="M88.532236,413.328216L86.423909,414.262689L78.513705,412.952799L77.401925,414.795206L74.193288,415.165485L63.796009,411.126656L56.784382,410.955856L56.446427,416.572116L54.832179,418.304077L56.001581,423.794027L53.682098,425.990002L50.472969,426.016542L46.645077,428.797252L42.233772,428.489901L35.662936,436.564908L39.861981,439.279264L41.949213,442.928513L43.520103,450.248427L47.120802,453.541113L50.828471,455.687176L56.431241,462.171999L62.735916,471.974836L70.592210,464.690767L72.312043,460.093720L74.832484,456.521054L78.851049,456.144353L82.273772,453.023152L93.924339,453.041559L97.932321,458.966184L101.039455,465.930032L100.533299,470.746696L102.843202,475.081361L102.640523,481.155728L106.663259,480.206259L109.779938,479.836831L113.601277,477.972141L119.640982,488.120079L118.641223,494.774091L121.462692,498.302726L125.588902,498.383633L128.598139,491.712919L132.723167,492.137570L135.037561,492.118735L135.931896,484.892820L134.820899,481.693390L136.226251,479.390350L141.652829,477.398094L138.120831,464.135559L134.801176,457.288153L136.004694,451.664042L138.916789,450.379843L134.498450,445.603918L135.302627,440.670473L133.496655,438.737763L130.384764,440.367403L130.990372,434.977218L134.003696,430.712841L128.094353,423.772623L126.397844,419.203445L123.197685,415.563589L120.292199,415.129100L116.778800,417.449227L112.061903,419.665329L108.042054,423.250383L101.830049,421.926804L97.834683,417.720193L95.430980,417.167558L91.613603,419.375528L89.307524,419.394363L88.532236,413.328216Z " data-name="gn"/>
        <path d="M11.294988,401.591780L24.508057,401.941517L28.034746,399.620922L30.638782,399.484794L36.080555,395.658640L42.254286,399.159456L48.558857,399.451404L54.895499,395.732698L52.033949,390.944194L47.206582,393.733997L42.703760,393.656514L37.040653,389.578611L32.436089,389.845735L29.093908,393.768671L13.277550,394.242983L11.294988,401.591780Z " data-name="gm"/>
        <path d="M56.784382,410.955856L29.940359,410.260242L26.016472,412.125770L21.212270,411.592395L13.471497,414.291370L14.341446,417.835771L18.721848,421.351483L18.600219,423.872791L21.873387,428.543409L27.983678,429.638827L35.662936,436.564908L42.233772,428.489901L46.645077,428.797252L50.472969,426.016542L53.682098,425.990002L56.001581,423.794027L54.832179,418.304077L56.446427,416.572116L56.784382,410.955856Z " data-name="gw"/>
        <path d="M420.850519,582.016281L397.042072,581.638292L392.049292,600.242821L394.792841,602.741060L399.729128,601.783887L421.018641,601.953404L420.850519,582.016281Z " data-name="gq"/>
        <path d="M867.864955,554.549649L857.874175,554.546699L851.890474,548.948029L838.638918,555.877072L834.412897,562.781258L824.642974,561.477726L821.380107,559.566993L817.961845,560.023594L813.337758,559.856345L794.632646,545.786208L784.458100,545.786208L779.384432,540.333796L779.241696,531.035167L771.607908,528.255653L761.868523,539.171464L753.013072,549.066239L760.090395,560.568831L761.894726,568.883406L768.503724,587.901233L763.252693,599.977267L756.089245,610.943937L751.906180,617.656849L751.913486,618.485639L755.454538,624.766310L754.488924,637.034798L807.266913,670.785500L808.143564,680.396816L828.883404,696.958566L834.856344,691.487294L837.873743,680.463749L842.660824,673.779084L844.875924,662.105785L850.372168,660.891388L854.053996,653.978768L864.358285,647.363373L855.776370,633.695870L855.339467,573.343710L867.864955,554.549649Z " data-name="ke"/>
        <path d="M132.723167,492.137570L128.598139,491.712919L125.588902,498.383633L121.462692,498.302726L118.641223,494.774091L119.640982,488.120079L113.601277,477.972141L109.779938,479.836831L106.663259,480.206259L99.823983,487.939003L93.185253,496.931169L92.380980,501.750029L88.860590,507.050481L98.635284,517.740007L111.037075,526.804981L124.262816,539.415077L139.301401,547.312229L143.131234,547.166255L144.297101,533.521518L145.701734,531.447483L145.279182,524.919727L139.117577,517.980587L134.482317,516.873150L130.243528,512.324824L133.450208,504.964888L132.026845,496.955997L132.723167,492.137570Z " data-name="lr"/>
        <path d="M607.587428,96.562868L603.778405,91.113633L589.767945,89.177031L585.124429,86.360015L579.927034,86.290149L574.653108,78.901145L555.591997,75.515886L546.159990,77.772779L536.608813,85.518607L532.713994,93.549207L536.707867,106.186141L530.414976,113.773305L523.801788,118.054384L508.435211,109.851106L488.354003,102.946360L475.644862,99.745009L468.428458,85.074569L449.612408,77.687421L437.871618,74.926324L432.085970,76.350274L415.537346,70.650608L415.202624,83.359196L408.566559,88.101398L404.439679,93.390272L395.035240,99.748149L396.721046,106.580825L395.705000,113.550489L388.962999,117.374958L393.886974,131.959377L394.846933,139.644969L392.687251,153.152838L393.882049,160.707699L392.283863,169.781108L393.741204,180.208382L388.245714,187.139701L396.885294,199.229072L397.555580,206.335058L402.795466,215.579968L409.402296,212.542762L420.812587,220.244239L427.288560,230.622076L450.048109,237.765712L458.297590,246.863992L468.274975,240.707235L482.475809,231.648522L540.461585,263.364429L598.773258,295.075922L598.705930,288.126908L615.234744,288.076555L613.988014,255.001700L611.318610,193.970625L607.944906,135.034900L602.851484,121.722565L605.767287,111.533222L603.100252,104.478507L607.587428,96.562868Z " data-name="ly"/>
        <path d="M650.073378,1125.507584L653.064751,1120.234891L661.092257,1117.656797L663.900798,1112.267637L668.832067,1104.227279L664.316820,1099.234698L658.528388,1094.135249L651.698262,1097.511495L643.605074,1103.984550L635.352006,1114.451473L644.927800,1127.147037L650.073378,1125.507584Z " data-name="ls"/>
        <path d="M225.957562,36.789377L219.970186,36.609764L205.736430,32.899926L192.620170,34.062457L184.440007,26.918184L174.317235,26.837203L169.775667,37.167645L160.166589,54.479554L149.727949,61.357545L135.605178,68.939332L126.344899,80.123178L124.227250,88.823266L118.514823,103.019669L121.463945,123.549167L109.356500,137.351835L102.171125,141.760728L90.735992,153.078786L77.543132,154.908813L70.241469,161.273082L69.975104,161.505133L60.485938,178.438895L50.851000,184.484215L45.415029,194.737499L44.821682,203.572772L40.780929,213.243517L35.907113,215.914467L27.673980,226.451482L22.444734,238.142408L23.218657,243.748909L18.309917,252.380784L12.689942,256.894133L11.813494,264.569834L12.063277,264.595939L44.385242,263.273168L46.241582,257.304974L52.276629,249.864247L57.523687,226.987547L77.772616,209.101292L84.964656,188.192300L89.434002,186.977697L94.373848,174.051675L106.341392,172.270878L111.421025,174.424471L117.858421,174.424471L122.506204,170.651282L131.274949,170.117006L131.128261,161.235320L131.128535,161.235320L133.281983,161.235320L133.572767,141.609344L156.563740,129.403832L170.652557,126.884090L182.224331,122.444956L187.708305,114.179721L204.176478,107.650976L204.907316,95.438536L213.004066,93.999587L219.371038,87.894467L237.639212,85.110766L240.217621,78.687111L236.564246,75.171378L231.855683,57.655452L231.090253,47.515832L225.957562,36.789377Z " data-name="ma"/>
        <path d="M982.468743,844.059971L979.430040,833.117508L975.910967,826.068899L971.164770,818.956982L966.014271,826.367691L965.271469,836.329768L956.688874,847.842489L950.626255,845.851056L952.235188,852.931549L947.433811,861.266455L934.936824,871.470563L926.137105,880.912059L919.766982,881.134676L914.233653,884.132307L905.965026,887.528940L898.720321,888.139426L896.160292,898.648639L890.551311,907.917875L890.751733,923.184118L892.812425,933.631154L895.641411,941.474272L893.654168,952.024090L885.965093,964.580163L885.562903,970.092854L878.769815,972.960898L875.407083,984.901615L875.896885,996.819678L879.976730,1010.027834L879.789918,1024.721122L883.009612,1033.469452L893.802811,1039.402316L901.618539,1043.637154L914.668362,1036.622172L926.597304,1032.694839L934.682064,1013.471969L941.972795,990.435423L953.142712,959.055425L961.880130,936.228458L968.929727,916.916277L970.810404,902.882583L975.056510,899.055339L976.810020,892.030093L974.843525,879.755305L977.870696,874.851746L982.172608,884.561275L985.045009,879.686807L986.982441,871.741126L983.694503,863.991708L982.468743,844.059971Z " data-name="mg"/>
        <path d="M317.304098,302.119518L301.343286,303.741322L301.129359,293.202328L294.458769,290.508131L285.492599,285.771039L282.054688,278.010114L233.702505,241.871572L185.762508,205.711257L163.964265,206.009449L170.136134,277.512844L176.504569,349.008867L178.995613,351.050954L175.695823,362.651888L117.597922,362.903615L115.381759,366.588332L109.796218,365.488528L101.586605,368.764816L91.535049,364.150265L86.939510,364.532137L84.365642,374.292812L79.445440,377.312598L79.969820,387.619700L82.709914,397.107256L88.089228,401.760441L89.258116,408.166977L88.532236,413.328216L89.307524,419.394363L91.613603,419.375528L95.430980,417.167558L97.834683,417.720193L101.830049,421.926804L108.042054,423.250383L112.061903,419.665329L116.778800,417.449227L120.292199,415.129100L123.197685,415.563589L126.397844,419.203445L128.094353,423.772623L134.003696,430.712841L130.990372,434.977218L130.384764,440.367403L133.496655,438.737763L135.302627,440.670473L134.498450,445.603918L138.916789,450.379843L140.824379,448.874764L144.841886,451.362255L156.089726,451.498808L158.794926,446.664235L161.305256,446.987424L165.519028,445.119348L167.740127,452.205117L171.150864,450.114443L177.170191,447.659487L176.247221,438.041730L180.247125,431.019335L179.936314,425.407833L191.537263,411.677153L193.717924,400.315260L197.713578,396.272076L204.725653,398.505783L210.821470,395.132532L212.809180,390.876557L224.085834,383.449711L226.864619,378.270672L240.423345,371.398009L248.401226,369.039659L252.015962,372.218248L261.306280,372.142046L270.592043,371.491335L275.939504,365.603260L295.695062,364.178949L308.545610,361.551220L309.729858,351.342070L317.575648,340.275029L317.304098,302.119518Z " data-name="ml"/>
        <path d="M845.157747,797.831982L843.035229,790.404266L843.035210,790.404201L843.035175,790.404229L831.151562,800.009118L815.031049,806.442923L806.310418,806.170675L800.966319,811.140504L790.826110,811.567713L786.961720,813.661808L769.626294,808.993332L764.083911,809.669235L760.120658,825.282964L761.723720,844.260192L762.562534,844.220073L767.598954,849.561668L773.198737,861.543860L773.501542,882.847975L767.078988,886.337079L762.128451,897.833526L753.167617,887.598294L752.608597,875.918591L755.979228,868.215266L755.407498,861.576395L749.847431,857.383663L745.799514,858.905953L737.746964,850.953796L693.254960,864.609880L694.196158,876.401497L694.895859,882.582546L706.979044,882.252901L713.542868,885.749711L716.490252,889.849300L723.325217,891.053146L730.601906,896.377107L729.677876,917.346924L726.326495,928.828498L725.118188,941.208049L727.193621,946.114675L725.097789,955.865476L722.854922,957.372729L718.491082,969.317432L702.473855,988.116575L708.122701,1011.433884L711.178197,1023.208345L707.530505,1041.694107L708.365294,1047.649413L709.977201,1055.087859L710.694026,1062.419583L721.440047,1062.558426L723.269794,1053.828697L719.716448,1052.712672L718.964446,1045.725117L725.600750,1039.592580L743.298708,1030.617027L755.411804,1025.014091L761.745841,1019.117511L764.295389,1012.222559L761.101242,1009.385622L763.874486,1001.688335L765.209149,985.441369L762.632611,986.269549L762.727390,981.314426L760.422648,971.600908L754.272881,959.057993L756.095004,947.247996L762.218625,943.418282L772.880572,931.647616L778.582043,928.623033L795.810549,910.840892L812.509577,902.799531L826.052372,896.501258L835.799813,886.226627L842.003486,874.719889L846.901463,862.881227L844.727513,854.766329L845.252963,828.874467L843.999170,814.337295L845.157747,797.831982Z " data-name="mz"/>
        <path d="M185.762508,205.711257L132.929573,165.556627L132.417833,190.677214L85.796319,189.809768L85.316943,232.230524L71.897236,233.717765L68.219418,242.226840L70.449160,266.147223L14.288513,266.043662L11.016457,271.568339L18.403380,278.721358L21.925178,286.594445L20.290711,294.854829L21.831138,303.089430L23.039636,319.461192L20.891933,335.060307L16.676177,343.229821L17.733333,352.158049L22.798986,346.845627L29.955413,348.275942L37.083578,344.664839L45.158778,344.482893L51.974548,349.353496L61.496820,353.742916L70.053301,365.932474L79.445440,377.312598L84.365642,374.292812L86.939510,364.532137L91.535049,364.150265L101.586605,368.764816L109.796218,365.488528L115.381759,366.588332L117.597922,362.903615L175.695823,362.651888L178.995613,351.050954L176.504569,349.008867L170.136134,277.512844L163.964265,206.009449L185.762508,205.711257Z " data-name="mr"/>
        <path d="M757.034974,852.209797L757.329924,845.987186L754.163502,841.137912L754.544792,833.934270L750.620743,821.740274L755.122342,812.535996L754.770465,792.565930L749.895470,781.866246L750.409252,780.029673L750.409253,780.029671L747.615542,775.494856L733.396392,772.404184L740.106814,779.795248L743.462791,793.857830L740.864098,798.347372L737.567128,811.777465L739.948122,825.504704L735.192478,831.271663L730.268836,846.662697L737.746964,850.953796L745.799514,858.905953L749.847431,857.383663L755.407498,861.576395L755.979228,868.215266L752.608597,875.918591L753.167617,887.598294L762.128451,897.833526L767.078988,886.337079L773.501542,882.847975L773.198737,861.543860L767.598954,849.561668L762.562534,844.220073L761.723720,844.260192L761.905132,846.468349L764.613682,847.160983L767.235811,856.017202L766.806592,858.068607L761.909334,851.619040L759.216281,855.761205L757.034974,852.209797Z " data-name="mw"/>
        <path d="M590.959539,909.792924L564.228147,916.544703L529.369711,914.199668L519.576131,906.261143L461.032470,906.976064L458.826599,908.140484L450.359748,900.648744L441.002932,900.153856L432.307293,902.975909L425.305144,906.127576L425.970779,918.839201L437.409516,935.011994L440.356202,945.411907L447.522563,965.281982L454.643132,978.965815L460.068550,985.792652L461.695762,994.827639L461.540443,1014.649482L465.630193,1040.178803L468.774008,1052.194945L471.381034,1068.342201L476.493500,1080.448756L486.509570,1092.963116L493.603887,1084.772153L498.995797,1089.307362L501.071999,1096.386768L507.344933,1097.592744L516.063374,1100.721631L523.691793,1099.513461L536.692059,1091.048947L539.330882,1029.812504L540.944802,981.452228L555.086609,980.875342L557.339507,921.872520L568.088415,921.324592L590.509671,915.524158L595.792604,922.353669L605.219835,915.860630L609.596933,915.823815L617.861443,912.090913L617.801757,910.715890L612.235314,906.981202L602.904335,906.027402L590.959539,909.792924Z " data-name="na"/>
        <path d="M450.048109,237.765712L427.288560,230.622076L378.772081,262.195604L337.541659,294.732421L317.304098,302.119518L317.575648,340.275029L309.729858,351.342070L308.545610,361.551220L295.695062,364.178949L275.939504,365.603260L270.592043,371.491335L261.306280,372.142046L260.160765,380.172257L262.111378,387.719016L270.292371,398.537461L270.751550,406.554860L287.509563,410.312467L287.203369,421.658834L292.073803,416.806269L297.284938,416.763463L308.400917,426.297353L309.361463,411.507210L313.501314,404.827160L315.504660,395.299054L319.268022,391.716025L334.852950,389.753697L349.439609,395.936035L354.927280,402.193224L362.340513,402.475753L369.191183,398.408610L386.840618,406.971802L394.245905,406.566846L402.743861,399.506625L411.261382,400.009186L415.425293,397.683020L423.250711,398.649617L434.552845,403.483867L445.785327,394.223292L449.201383,394.882534L459.276259,413.020434L461.974349,412.654435L462.370126,407.379754L466.457296,406.429435L467.795515,398.625645L458.478709,398.244229L458.353197,387.587166L452.221228,381.449679L458.117573,359.625156L476.269911,344.001699L476.575535,322.452168L481.365238,288.836009L484.324019,281.706724L478.215850,276.029171L477.862980,270.761678L472.395681,266.454483L468.274975,240.707235L458.297590,246.863992L450.048109,237.765712Z " data-name="ne"/>
        <path d="M461.974349,412.654435L459.276259,413.020434L449.201383,394.882534L445.785327,394.223292L434.552845,403.483867L423.250711,398.649617L415.425293,397.683020L411.261382,400.009186L402.743861,399.506625L394.245905,406.566846L386.840618,406.971802L369.191183,398.408610L362.340513,402.475753L354.927280,402.193224L349.439609,395.936035L334.852950,389.753697L319.268022,391.716025L315.504660,395.299054L313.501314,404.827160L309.361463,411.507210L308.400917,426.297353L307.851038,431.801409L311.153901,441.628909L308.303943,448.298160L309.850864,452.754327L302.808261,463.010161L298.328817,468.088797L295.599075,478.538911L295.985068,489.077684L295.186414,515.783264L308.075040,515.791825L319.049214,515.587204L329.414876,526.502759L334.253080,538.494712L342.102431,548.858012L353.797508,549.220164L359.408756,545.507460L364.959119,546.378595L380.115171,540.416348L383.830772,528.691948L390.710582,512.707098L394.938219,512.558127L403.585199,502.861317L409.117914,502.586492L417.352698,509.394633L427.350040,503.812076L428.671579,496.925604L431.904801,490.252752L434.104632,481.869328L441.851168,475.044546L444.694134,463.447221L447.751944,459.755116L449.724474,451.144797L453.462899,440.571590L465.572868,427.751918L466.271040,422.245285L467.816541,419.253101L461.974349,412.654435Z " data-name="ng"/>
        <path d="M701.018821,638.274607L692.251159,643.388378L688.717215,641.698342L684.486133,646.316405L683.882871,656.174953L681.864265,657.452327L680.439226,666.515522L689.310430,667.817725L693.866835,658.384673L701.631481,659.467656L701.631809,659.467702L705.870315,657.370137L706.782084,647.622887L701.018821,638.274607Z " data-name="rw"/>
        <path d="M133.281983,161.235320L131.128535,161.235320L131.128261,161.235320L131.274949,170.117006L122.506204,170.651282L117.858421,174.424471L111.421025,174.424471L106.341392,172.270878L94.373848,174.051675L89.434002,186.977697L84.964656,188.192300L77.772616,209.101292L57.523687,226.987547L52.276629,249.864247L46.241582,257.304974L44.385242,263.273168L12.063277,264.595939L11.813494,264.569834L11.016457,271.568339L14.288513,266.043662L70.449160,266.147223L68.219418,242.226840L71.897236,233.717765L85.316943,232.230524L85.796319,189.809768L132.417833,190.677214L132.929573,165.556627L133.266300,162.345003L133.281983,161.235320Z " data-name="eh"/>
        <path d="M787.398578,349.559650L788.280921,338.546544L792.571323,333.466799L803.063365,330.742964L809.857357,321.286508L801.631243,315.163994L795.918981,311.084727L789.553958,291.307682L786.528712,274.256586L789.509051,271.252036L783.966510,255.001700L727.152020,255.001700L671.572736,255.001700L613.988014,255.001700L615.234744,288.076555L598.705930,288.126908L598.773258,295.075922L601.666423,360.843397L589.149981,359.685565L582.878145,371.887193L579.310633,382.117600L582.431446,385.988548L577.785438,391.069909L579.590280,397.931578L575.983978,404.837908L574.650084,410.922770L579.733066,409.964020L582.914624,416.355841L583.270595,425.979382L588.712701,430.862540L588.614240,434.875339L590.396171,441.964940L598.980027,452.322836L599.138407,459.082619L596.882805,465.977120L597.899582,471.125968L603.029067,475.896840L604.224367,476.668704L608.674972,474.863403L613.632136,471.734791L617.135343,456.945062L620.995413,449.266116L631.452018,446.990802L634.041349,451.541433L641.728008,461.211317L645.757371,462.633404L650.957577,459.789231L661.475573,460.358065L663.543323,463.771075L678.055531,463.771075L678.487115,460.358065L685.926592,457.229479L687.322936,452.394678L692.747807,448.981702L705.218058,458.651563L712.684263,456.945062L719.653446,444.999903L727.416803,435.898667L725.894571,425.944186L722.261042,421.109140L730.972953,420.255895L731.860603,416.558495L738.633561,417.696158L737.245144,429.925981L739.319921,441.871352L746.989141,448.412873L748.882960,454.100899L748.831863,462.348987L750.857018,462.676616L750.784386,460.700221L754.654184,443.362750L761.422744,438.722635L762.690548,431.950171L768.539477,419.294533L777.034094,411.086787L782.349233,394.766996L784.095186,380.538826L782.275390,373.905228L787.398578,349.559650Z " data-name="sd"/>
        <path d="M748.882960,454.100899L746.989141,448.412873L739.319921,441.871352L737.245144,429.925981L738.633561,417.696158L731.860603,416.558495L730.972953,420.255895L722.261042,421.109140L725.894571,425.944186L727.416803,435.898667L719.653446,444.999903L712.684263,456.945062L705.218058,458.651563L692.747807,448.981702L687.322936,452.394678L685.926592,457.229479L678.487115,460.358065L678.055531,463.771075L663.543323,463.771075L661.475573,460.358065L650.957577,459.789231L645.757371,462.633404L641.728008,461.211317L634.041349,451.541433L631.452018,446.990802L620.995413,449.266116L617.135343,456.945062L613.632136,471.734791L608.674972,474.863403L604.224367,476.668704L614.244911,483.138998L622.331822,489.833666L622.542900,495.218435L632.478503,503.846323L638.659618,511.015335L642.474601,520.954015L653.475944,527.510881L655.889373,532.762965L664.900875,546.439810L671.487337,548.448771L675.369162,545.666705L682.141297,546.757015L690.240858,543.252354L693.796277,550.328437L706.790656,561.338062L706.790691,561.338035L712.761946,556.819599L722.101923,560.524596L733.828872,556.646966L744.117383,556.685402L753.013072,549.066239L761.868523,539.171464L771.607908,528.255653L762.674972,510.226440L755.938821,506.385240L753.260994,499.760190L745.712434,491.685322L736.728729,490.498589L741.512178,481.061565L749.244512,480.654336L751.317288,475.594631L750.857018,462.676616L748.831863,462.348987L748.882960,454.100899Z " data-name="ss"/>
        <path d="M79.445440,377.312598L70.053301,365.932474L61.496820,353.742916L51.974548,349.353496L45.158778,344.482893L37.083578,344.664839L29.955413,348.275942L22.798986,346.845627L17.733333,352.158049L14.114353,360.666319L6.856722,372.298303L0.417604,375.445248L7.533084,381.343941L13.277550,394.242983L29.093908,393.768671L32.436089,389.845735L37.040653,389.578611L42.703760,393.656514L47.206582,393.733997L52.033949,390.944194L54.895499,395.732698L48.558857,399.451404L42.254286,399.159456L36.080555,395.658640L30.638782,399.484794L28.034746,399.620922L24.508057,401.941517L11.294988,401.591780L13.471497,414.291370L21.212270,411.592395L26.016472,412.125770L29.940359,410.260242L56.784382,410.955856L63.796009,411.126656L74.193288,415.165485L77.401925,414.795206L78.513705,412.952799L86.423909,414.262689L88.532236,413.328216L89.258116,408.166977L88.089228,401.760441L82.709914,397.107256L79.969820,387.619700L79.445440,377.312598Z " data-name="sn"/>
        <path d="M106.663259,480.206259L102.640523,481.155728L102.843202,475.081361L100.533299,470.746696L101.039455,465.930032L97.932321,458.966184L93.924339,453.041559L82.273772,453.023152L78.851049,456.144353L74.832484,456.521054L72.312043,460.093720L70.592210,464.690767L62.735916,471.974836L64.421821,484.219886L66.928241,490.272016L74.467908,499.147322L84.934410,505.821471L88.860590,507.050481L92.380980,501.750029L93.185253,496.931169L99.823983,487.939003L106.663259,480.206259Z " data-name="sl"/>
        <path d="M898.323404,446.420238L891.515515,439.484735L888.417459,432.633566L883.571530,429.579754L878.526875,438.445823L875.550971,444.315525L881.225868,453.438060L886.846760,461.414315L892.587332,467.327160L940.829903,486.987820L953.098206,486.886369L962.857423,473.058716L969.106070,462.884308L968.806511,454.240305L968.178171,437.527197L967.951411,430.702567L968.030335,430.431675L968.030356,430.431603L959.769652,431.013770L954.694630,434.035905L947.520626,435.126613L934.905493,440.273657L919.131608,442.237189L905.554751,446.475458L898.323404,446.420238Z " data-name="xs"/>
        <path d="M864.358285,647.363373L867.691669,643.440525L871.116931,634.704332L887.165380,614.635168L900.762836,602.033456L922.521346,585.583111L937.001358,572.171227L953.833971,549.571300L965.941502,531.020622L977.907120,506.739952L986.345475,485.582008L992.777125,467.075998L996.234752,449.167375L999.074149,443.183659L998.660017,434.475825L999.582396,424.839729L999.043618,420.259074L993.532331,420.304468L986.904906,425.975903L979.265722,427.643716L972.665893,430.105092L968.030335,430.431675L967.951411,430.702567L968.178171,437.527197L968.806511,454.240305L969.106070,462.884308L962.857423,473.058716L953.098206,486.886369L912.994787,536.612023L893.969590,537.341951L881.148170,549.021423L871.781149,549.327260L867.864955,554.549649L855.339467,573.343710L855.776370,633.695870L864.358285,647.363373Z " data-name="so"/>
        <path d="M708.365294,1047.649413L701.385284,1044.611701L697.201385,1045.793688L695.554893,1050.623762L691.276726,1056.851006L691.031772,1062.585851L698.871643,1071.574247L707.288412,1069.784333L710.694026,1062.419583L709.977201,1055.087859L708.365294,1047.649413Z " data-name="sz"/>
        <path d="M598.773258,295.075922L540.461585,263.364429L482.475809,231.648522L468.274975,240.707235L472.395681,266.454483L477.862743,270.761796L478.215850,276.029171L484.324019,281.706724L481.365238,288.836009L476.575535,322.452168L476.269911,344.001699L458.117112,359.625089L452.221228,381.449679L458.353197,387.587166L458.478709,398.244229L467.795515,398.625645L466.457296,406.429435L472.383378,417.038245L473.501214,428.030160L473.106126,439.034839L481.208466,454.093906L473.070246,453.931668L468.972508,455.111424L462.315814,453.447366L459.229330,461.264919L467.926289,470.934191L474.303496,473.746629L476.422843,480.604797L481.125058,492.025414L478.877927,496.513366L490.933519,495.268092L493.584406,491.006594L496.004214,491.330219L499.684821,495.081878L517.993116,488.743357L524.117839,482.275571L531.656416,476.483729L530.141787,470.651664L534.233945,469.128583L548.325628,470.158096L561.938189,462.482778L572.185365,444.407049L579.453266,437.700135L588.614240,434.875339L588.712701,430.862540L583.270595,425.979382L582.914624,416.355841L579.733066,409.964020L574.650084,410.922770L575.983978,404.837908L579.590280,397.931578L577.785438,391.069909L582.431446,385.988548L579.310633,382.117600L582.878145,371.887193L589.149981,359.685565L601.666423,360.843397L598.773258,295.075922Z " data-name="td"/>
        <path d="M268.967108,437.278492L256.220506,436.924910L255.149267,442.089935L261.227995,450.633687L261.206706,462.664708L262.599477,475.716193L266.260036,481.759313L263.039644,496.682028L264.201412,504.922509L268.097320,515.432668L271.359936,521.250245L283.117680,517.716035L279.511143,506.286363L280.138485,468.238194L277.198638,464.824753L276.636901,456.693994L271.572723,450.892238L267.120675,446.001590L268.967108,437.278492Z " data-name="tg"/>
        <path d="M385.770982,0.000000L371.102097,6.812583L368.573749,15.480065L371.210880,31.553866L368.346811,45.389320L360.059466,54.697769L361.586663,67.216950L373.204650,77.085616L373.429090,81.088589L382.200788,87.756652L388.962999,117.374958L395.705000,113.550489L396.721046,106.580825L395.035240,99.748149L404.439679,93.390272L408.566559,88.101398L415.202624,83.359196L415.537346,70.650608L410.161413,68.058967L406.392186,60.166283L399.212667,59.883641L396.278210,50.807091L405.084183,42.404671L406.366625,27.865000L401.451786,23.677197L401.257582,15.871396L407.791943,7.596664L406.690297,4.352843L395.316369,10.568253L395.407134,2.024982L385.770982,0.000000Z " data-name="tn"/>
        <path d="M706.159409,636.284703L701.018821,638.274607L706.782084,647.622887L705.870315,657.370137L701.631431,659.467246L701.631481,659.467656L702.425279,665.991361L705.540858,669.747049L705.622908,675.131491L701.979093,678.598576L696.192777,687.239209L690.818761,693.241126L689.269440,693.442914L688.486504,700.597192L691.260514,702.990793L690.678503,710.048933L693.406274,716.577974L689.968456,722.925511L701.566957,734.168539L702.508140,744.426972L709.537788,761.357173L709.537790,761.357179L710.264189,761.866969L716.021496,764.641522L725.230345,767.429988L733.396392,772.404184L747.615411,775.494840L750.409252,780.029673L750.409253,780.029671L751.313926,776.791909L758.799437,785.650099L759.548953,803.051798L764.152994,809.395712L764.083911,809.669235L769.626294,808.993332L786.961720,813.661808L790.826110,811.567713L800.966398,811.140655L806.310336,806.171019L815.031049,806.442923L831.151113,800.009549L843.035229,790.404266L843.035175,790.404229L837.799136,786.781028L832.225115,770.445438L827.396328,760.059977L828.540038,752.145682L827.818019,747.110641L832.053473,737.105484L831.704957,732.797908L822.476614,726.761665L821.787544,717.372630L828.883404,696.958566L808.143564,680.396816L807.266913,670.785500L754.488924,637.034798L754.488915,637.034905L747.234633,644.426886L742.391436,651.914758L748.132778,657.596160L739.752189,661.675710L737.941035,659.742526L729.467030,660.727953L722.902115,664.448777L718.881428,658.065330L721.712152,646.469655L722.202404,636.497244L722.202367,636.496915L722.201966,636.496932L706.159409,636.284703Z " data-name="tz"/>
        <path d="M753.013072,549.066239L744.117383,556.685402L733.828872,556.646966L722.101923,560.524596L712.761946,556.819599L706.790691,561.338035L706.790656,561.338062L706.083263,580.710116L711.964448,582.953764L707.301421,588.836360L701.706294,593.236534L696.151153,601.876351L693.095355,609.579111L692.281284,622.877481L688.881793,629.208004L688.717215,641.698342L692.251159,643.388378L701.018821,638.274607L706.159409,636.284703L722.201966,636.496932L722.202367,636.496915L721.475559,630.086411L728.187151,620.405952L737.455269,618.038704L743.682168,614.091864L751.273785,617.352930L751.913486,618.485639L751.906180,617.656849L756.089245,610.943937L763.252693,599.977267L768.503724,587.901233L761.894726,568.883406L760.090395,560.568831L753.013072,549.066239Z " data-name="ug"/>
        <path d="M526.708335,1196.307561L533.015153,1195.905260L541.977618,1189.587152L553.970518,1186.945491L568.724492,1180.371459L574.397713,1181.242301L582.947041,1179.213908L597.715484,1182.419624L604.830239,1179.253431L613.050465,1181.711793L615.223960,1177.095941L622.367717,1176.230637L637.429085,1169.792855L648.586524,1162.257469L659.288714,1152.340987L676.564357,1135.314717L685.525869,1123.495320L690.155515,1115.013125L696.807468,1106.618313L699.753890,1104.227279L710.046702,1095.871834L714.293142,1088.397534L717.018989,1074.629377L721.440047,1062.558426L710.694026,1062.419583L707.288412,1069.784333L698.871643,1071.574247L691.031772,1062.585851L691.276726,1056.851006L695.554893,1050.623762L697.201385,1045.793688L701.385284,1044.611701L708.365294,1047.649413L707.530505,1041.694107L711.178197,1023.208345L708.122701,1011.433884L702.473855,988.116575L694.942901,986.461149L690.022367,988.449548L683.226286,985.643717L677.407743,985.463113L656.598614,997.662054L643.200148,1010.031259L637.928872,1021.074643L633.341982,1027.301404L625.524123,1028.628465L622.633428,1036.562184L620.934383,1041.736104L611.645504,1045.598261L600.114457,1044.777984L593.540827,1040.132522L587.635856,1038.118487L580.521730,1041.962375L576.679345,1049.907172L569.722094,1054.896714L562.280812,1062.298739L552.045676,1063.990532L549.141897,1058.167557L550.886363,1048.060847L543.083003,1032.302400L539.330882,1029.812504L536.692059,1091.048947L523.691793,1099.513461L516.063374,1100.721631L507.344933,1097.592744L501.071999,1096.386768L498.995797,1089.307362L493.603887,1084.772153L486.509570,1092.963116L495.695467,1114.451473L495.714498,1114.495860L502.101064,1128.476907L510.466428,1143.915425L510.135215,1156.588488L505.472553,1159.599924L509.363118,1170.695872L508.717086,1180.432487L510.292134,1184.906700L511.084411,1182.597686L516.591239,1190.040080L521.245055,1190.345533L526.708335,1196.307561Z M650.073378,1125.507584L644.927800,1127.147037L635.352006,1114.451473L643.605074,1103.984550L651.698262,1097.511495L658.528388,1094.135249L664.316820,1099.234698L668.832067,1104.227279L663.900798,1112.267637L661.092257,1117.656797L653.064751,1120.234891L650.073378,1125.507584Z " data-name="za"/>
        <path d="M705.139718,761.597920L700.183514,760.270035L701.086724,756.715437L698.537857,755.963608L678.895182,758.759790L674.950281,760.740060L670.599034,771.316026L673.717729,778.622337L670.710168,798.236931L668.510853,814.866384L672.364675,817.814045L682.357074,824.261593L686.429045,821.248852L687.130406,839.113967L676.021423,838.976983L670.315651,829.859028L665.150395,822.799313L654.069363,820.484325L651.017456,811.803149L642.002268,817.033253L630.410526,814.722554L625.715301,807.200597L616.508436,805.672408L609.680645,806.072220L608.949042,800.922607L603.936350,800.505672L605.372918,805.649292L603.553189,813.684067L605.941187,821.454325L603.636101,827.659604L604.741094,833.378632L574.498100,833.169733L572.510212,885.887563L581.862780,899.443202L590.959539,909.792924L602.904335,906.027402L612.235314,906.981202L617.801757,910.715890L617.861443,912.090913L620.411761,913.328942L636.471523,915.143164L641.085429,917.051550L645.970439,916.667134L654.374415,905.944351L667.458864,892.317782L672.684059,891.014616L674.659988,885.270227L683.146031,878.669618L694.196158,876.401497L693.254960,864.609880L737.746964,850.953796L730.268836,846.662697L735.192478,831.271663L739.948122,825.504704L737.567128,811.777465L740.864098,798.347372L743.462791,793.857830L740.106814,779.795248L733.396392,772.404184L725.230345,767.429988L716.021496,764.641522L710.264189,761.866969L709.537788,761.357173L709.537790,761.357179L710.676011,764.108999L708.223377,765.047335L705.139718,761.597920Z " data-name="zm"/>
        <path d="M702.473855,988.116575L718.491082,969.317432L722.854922,957.372729L725.097789,955.865476L727.193621,946.114675L725.118188,941.208049L726.326495,928.828498L729.677876,917.346924L730.601906,896.377107L723.325217,891.053146L716.490252,889.849300L713.542868,885.749711L706.979044,882.252901L694.895859,882.582546L694.196158,876.401497L683.146031,878.669618L674.659988,885.270227L672.684059,891.014616L667.458864,892.317782L654.374415,905.944351L645.970439,916.667134L641.085429,917.051550L636.471523,915.143164L620.411761,913.328942L625.480233,926.574365L628.269184,929.529644L632.431806,939.115908L647.985416,957.310248L654.063689,959.091373L653.857622,964.933640L657.635150,975.436967L668.610348,977.978964L677.407743,985.463113L683.226286,985.643717L690.022367,988.449548L694.942901,986.461149L702.473855,988.116575Z " data-name="zw"/>
    </g>
</svg>