<?xml version="1.0" encoding="utf-8"?><!DOCTYPE svg  PUBLIC '-//W3C//DTD SVG 1.1//EN'  'http://www.w3.org/Graphics/SVG/1.1/DTD/svg11.dtd'>
<svg enable_background="new 0 0 1000 876" height="876px" pretty_print="False" style="stroke-linejoin: round; stroke:#000; fill: none;" version="1.1" viewBox="0 0 1000 876" width="1000px" xmlns="http://www.w3.org/2000/svg" xmlns:xlink="http://www.w3.org/1999/xlink">
    <defs>
        <style type="text/css">
            <![CDATA[path { fill-rule: evenodd; }]]>
        </style>
    </defs>
    <metadata>
        <views>
            <view h="876.001834484" padding="0" w="1000">
                <proj flip="auto" id="robinson" lon0="19.9770504442"/>
                <bbox h="692.17" w="791.05" x="-271.98" y="-1277.71"/>
            </view>
        </views>
    </metadata>
    <g class="" id="states">
        <path d="M695.459659,726.498143L693.609246,719.049089L689.337348,716.948054L685.195891,711.446581L680.789319,713.260731L679.352417,709.406223L672.893408,719.503260L674.621161,726.042519L677.781140,729.286267L676.009701,735.689822L675.768161,749.837782L678.088558,759.788621L688.212994,766.843055L688.939125,771.485261L691.995814,772.965288L699.156527,762.741605L699.595280,755.933218L704.912627,752.905685L704.759472,747.435109L697.182874,742.380591L693.940458,733.510979L695.459659,726.498143Z " data-name="al"/>
        <path d="M623.152508,597.526043L620.884286,590.352477L621.968127,587.725369L614.073315,583.820131L606.476901,584.893473L593.256492,578.586004L587.627495,580.128719L579.070744,588.587610L566.414028,581.931412L561.310357,591.467941L555.591781,594.096175L558.824127,607.591307L557.518275,611.112038L552.097021,606.870256L544.153158,606.234325L532.583648,609.949345L517.981407,609.066082L515.919962,614.533632L507.268257,608.780226L502.344250,609.922579L503.162623,613.599035L500.877838,618.669890L508.553440,622.440847L517.036158,623.003701L527.237577,625.947537L528.945910,622.009059L545.096412,618.409256L549.239724,625.612163L573.320428,630.956892L587.156151,632.559895L595.188187,627.865417L609.659634,627.349885L612.539794,623.855957L616.930750,610.521057L613.359977,606.030914L622.639670,605.990232L623.152508,597.526043Z " data-name="at"/>
        <path d="M397.295739,531.238821L384.471457,535.261865L386.913710,542.445342L394.422542,542.782468L402.095515,551.001576L413.624793,560.683772L421.918491,559.082581L436.413373,568.466568L437.811184,556.925705L442.013663,556.150893L443.373657,542.304795L434.347501,537.531870L423.889280,528.605765L409.102877,532.839557L397.295739,531.238821Z " data-name="be"/>
        <path d="M725.522656,677.772230L721.871899,682.413573L724.193980,689.881972L733.373229,698.706922L727.600560,705.101975L725.432754,711.616802L727.532354,714.054595L725.035108,716.948054L734.257385,723.538731L736.883811,737.168908L749.608468,737.766717L762.690972,732.091407L775.548967,739.309875L790.889152,737.356940L789.866449,727.084670L806.453364,720.617363L821.480889,723.373024L814.474846,711.666561L818.745378,697.030036L826.374655,688.560325L816.154327,686.413426L802.891817,678.978306L783.661076,683.734151L775.938877,688.949113L751.005729,687.873595L737.671341,684.684720L731.299474,686.182028L725.522656,677.772230Z " data-name="bg"/>
        <path d="M662.848493,664.958196L654.849224,660.411941L643.289661,660.696590L628.602228,657.282341L620.818550,657.738416L617.529379,662.003730L611.147210,657.282341L608.298939,665.810329L617.272630,675.393235L621.426106,681.734983L629.798614,689.372758L636.614394,693.898545L643.719770,702.441391L659.405551,710.189504L660.900583,698.932903L665.977890,694.180886L668.967651,692.314200L672.865003,691.409385L674.421357,681.791638L665.563788,673.920410L668.925320,664.901417L662.848493,664.958196Z " data-name="ba"/>
        <path d="M714.074030,479.311628L716.081523,488.208952L721.608874,495.876337L722.701203,503.928519L713.744636,508.058616L719.997170,517.451244L721.569943,526.500055L729.128464,525.706610L737.116432,520.196467L749.451375,519.745602L765.872545,521.337801L784.545191,526.218201L797.250753,526.626792L803.781149,529.569366L809.203035,526.019970L814.228615,530.781231L828.560901,529.805178L835.304558,531.774421L834.486590,521.530511L838.596785,517.071533L852.095020,515.867638L845.674917,502.898301L840.643226,496.193851L843.327031,494.308976L856.258929,495.008916L861.529634,490.599874L855.876567,485.231520L844.514730,481.692309L844.730239,478.063458L837.586571,474.401692L825.122507,461.286916L827.384450,455.894926L823.952209,446.529771L807.812238,441.780363L800.135731,444.156918L796.968267,439.216150L779.712953,434.231479L764.491053,441.902756L755.645551,445.252061L758.671840,454.185030L746.963465,460.583180L745.201639,471.887108L729.326536,479.448147L714.074030,479.311628Z " data-name="by"/>
        <path d="M502.344250,609.922579L484.383151,603.587931L481.192678,608.088607L467.158016,607.943539L462.758980,611.482470L455.170546,609.575698L455.881550,614.839807L444.146474,626.477052L444.181663,635.844390L452.019647,632.604254L458.034396,641.668409L465.361801,646.090230L473.368475,645.109148L482.432354,638.104661L485.454472,641.379170L493.361925,640.722721L496.590850,632.386195L509.013762,634.977874L516.160324,631.489305L517.036158,623.003701L508.553440,622.440847L500.877838,618.669890L503.162623,613.599035L502.344250,609.922579Z " data-name="ch"/>
        <path d="M621.968127,587.725369L623.880418,583.175893L631.163045,583.526316L636.549409,581.387768L636.808431,579.465671L639.843288,578.484595L640.456717,573.786839L644.112031,572.889539L646.267158,569.177034L651.121874,569.152001L642.602195,559.015661L630.410814,557.773969L628.239959,551.347009L616.917524,549.054707L615.000488,554.350447L605.809836,550.107438L606.299727,544.472849L594.065466,542.693164L585.844666,536.115572L578.837393,538.245787L574.392831,535.899357L570.670460,539.786534L559.393920,543.746481L553.774472,548.847696L542.325857,553.312230L545.585010,559.416673L547.899874,568.097006L556.559460,573.053204L566.414028,581.931412L579.070744,588.587610L587.627495,580.128719L593.256492,578.586004L606.476901,584.893473L614.073315,583.820131L621.968127,587.725369Z " data-name="cz"/>
        <path d="M498.983942,457.861850L489.173647,460.905065L477.206192,458.268723L478.554184,469.617470L482.566856,477.136802L472.386015,487.047865L469.232042,482.611743L456.092639,483.704961L453.195343,487.966509L456.453254,494.780626L453.279571,513.296590L449.534127,520.936664L439.913533,520.945064L443.373657,542.304795L442.013663,556.150893L445.412903,560.792175L444.801788,569.820504L452.684889,575.222459L476.371503,579.025819L468.674549,593.187926L467.158016,607.943539L481.192678,608.088607L484.383151,603.587931L502.344250,609.922579L507.268257,608.780226L515.919962,614.533632L517.981407,609.066082L532.583648,609.949345L544.153158,606.234325L552.097021,606.870256L557.518275,611.112038L558.824127,607.591307L555.591781,594.096175L561.310357,591.467941L566.414028,581.931412L556.559460,573.053204L547.899874,568.097006L545.585010,559.416673L542.325857,553.312230L553.774472,548.847696L559.393920,543.746481L570.670460,539.786534L574.392831,535.899357L578.837393,538.245787L585.844666,536.115572L578.127401,523.108299L578.761522,516.105658L573.856395,505.268451L567.451760,498.065604L571.397365,492.680809L566.786435,482.436151L558.780229,476.038173L540.375733,468.120277L531.979137,473.610660L516.256946,477.379600L515.925019,470.259592L499.759749,465.591531L498.983942,457.861850Z " data-name="de"/>
        <path d="M541.176889,445.353974L535.396065,435.378200L513.180135,441.969611L515.951458,450.240140L533.137868,461.522038L541.176889,445.353974Z M512.321776,428.485780L503.748064,425.485253L501.513168,419.940573L505.598556,413.502479L505.376830,403.362154L493.483208,408.920106L488.467910,414.364888L475.034798,415.591008L470.969985,421.524608L468.701709,426.872007L470.273496,447.192469L477.206192,458.268723L489.173647,460.905065L498.983942,457.861850L494.120326,448.143715L504.331056,433.816816L509.089838,435.974798L512.321776,428.485780Z " data-name="dk"/>
        <path d="M189.810021,725.980321L196.210733,720.756918L203.279885,717.764414L207.178680,727.826126L217.265096,727.801655L220.274297,725.203243L230.195131,725.922378L234.666994,736.263177L226.589531,741.865425L225.885762,758.111096L223.000263,761.177604L222.016818,771.128179L214.505472,772.868541L221.062195,785.599787L215.880277,799.648869L221.702044,806.031582L219.158471,811.879162L212.479118,819.957623L213.741909,827.099435L229.978595,830.441533L234.663580,842.856312L241.006806,850.143518L249.563918,851.931890L256.412766,843.783415L267.511926,836.162674L284.194573,836.571454L306.422745,836.242422L318.905543,819.652370L332.090314,815.357674L335.884929,801.379931L345.934532,791.823427L339.183353,779.643698L345.842147,762.449168L356.394723,750.856351L357.902122,743.863169L379.832157,739.483669L395.874765,725.742710L394.797696,713.815731L375.101546,716.473696L355.916936,707.205577L349.751130,711.632682L318.522354,702.329870L311.835719,694.379762L284.503343,693.703102L270.435916,694.775411L252.522054,691.283868L229.822553,691.413281L209.277820,687.724624L184.726302,702.481032L191.276990,711.361663L189.810021,725.980321Z " data-name="es"/>
        <path d="M714.627698,402.114102L727.001770,398.637979L734.101846,401.049519L748.558068,408.359150L761.171628,408.395831L766.521114,402.144102L758.475345,383.842747L766.971140,372.590854L764.022678,369.190952L748.643695,369.766876L731.753150,366.550763L713.365669,369.376543L695.294406,374.805290L698.473097,386.031315L709.257760,392.996902L714.415100,390.524668L714.627698,402.114102Z " data-name="ee"/>
        <path d="M732.523565,189.658811L735.068221,177.176164L716.017229,170.149207L696.601702,176.134876L692.970002,189.170556L681.729636,197.094168L666.177638,192.761835L648.571335,193.648248L631.668218,184.208407L624.410973,188.918183L644.197397,197.681449L668.003186,209.954256L673.913897,238.047284L680.044327,245.215609L701.392860,253.957358L704.471367,261.813069L695.769072,265.707515L666.840820,286.025310L655.788684,297.878112L650.679263,308.923001L660.570905,326.134118L660.313423,345.068614L675.722331,351.408603L686.103061,361.979112L709.710078,357.887057L734.598874,350.789101L761.280372,349.251466L787.581373,324.704253L798.612878,313.674894L801.759998,303.979685L777.240879,291.018620L780.206549,278.759981L764.037627,264.843889L769.726779,248.927945L748.332909,227.994596L757.713908,214.261082L733.648542,202.217272L732.523565,189.658811Z " data-name="fi"/>
        <path d="M506.916713,720.391328L503.248365,702.821419L492.648806,710.637609L489.522119,718.255910L494.020053,732.097269L501.955599,736.300552L506.916713,720.391328Z M402.095515,551.001576L394.422542,542.782468L386.913710,542.445342L384.471457,535.261865L370.430419,539.384256L365.717012,556.168934L327.869325,572.221614L312.568510,563.382148L317.519382,586.744043L290.098366,581.424614L268.783251,585.922100L270.081522,601.016723L295.113382,608.984714L307.164227,619.466218L324.115654,641.177441L320.666461,682.116036L311.835719,694.379762L318.522354,702.329870L349.751130,711.632682L355.916936,707.205577L375.101546,716.473696L394.797696,713.815731L396.564196,701.487430L421.112637,694.853062L454.657807,700.389303L469.600795,688.838710L471.210186,679.962153L461.989115,677.366101L457.130538,661.502600L462.723746,655.238293L457.542463,647.500689L458.034396,641.668409L452.019647,632.604254L444.181663,635.844390L444.146474,626.477052L455.881550,614.839807L455.170546,609.575698L462.758980,611.482470L467.158016,607.943539L468.674549,593.187926L476.371503,579.025819L452.684889,575.222459L444.801788,569.820504L440.114009,570.256288L436.413373,568.466568L421.918491,559.082581L413.624793,560.683772L402.095515,551.001576Z " data-name="fr"/>
        <path d="M255.249313,466.433236L238.988952,454.071544L225.874324,454.894907L228.576023,465.607567L224.822668,476.350405L234.568775,476.074478L246.300540,480.214401L255.249313,466.433236Z M298.544542,385.595801L280.243683,387.243602L268.209561,385.693419L255.810426,401.613796L249.412055,422.018679L256.792907,432.128878L256.984927,451.311702L265.686693,441.889386L270.617164,447.376829L264.667500,456.293350L268.217196,461.702911L287.129822,465.223761L287.363016,465.505550L297.623204,477.855383L295.078699,489.531734L295.051035,489.529587L271.588022,487.707955L268.191238,500.918616L276.614352,511.818537L259.737061,518.105871L264.023385,526.194539L289.013683,529.587003L289.139763,529.604105L274.647040,534.007274L250.338020,555.501469L258.837291,559.604183L270.443291,551.763484L285.376337,554.091657L296.252501,544.490296L303.727024,548.521059L331.290901,542.892385L352.889134,543.081578L367.322013,532.387544L360.834832,521.856619L368.940525,515.901715L370.750911,502.949491L351.468588,499.100719L346.932996,491.131975L337.251040,468.240363L326.536138,465.024113L312.892468,441.473086L311.690919,439.382144L295.692603,438.113471L309.884267,420.336259L314.107972,404.252461L297.390777,404.149682L281.769250,406.848457L298.544542,385.595801Z " data-name="gb"/>
        <path d="M780.100490,874.001834L805.340239,872.180870L806.986118,865.851623L797.611733,868.427810L797.713804,864.690973L784.482163,863.165572L770.882300,864.390057L760.674931,857.141584L758.150368,866.281139L779.985050,870.465952L780.100490,874.001834Z M798.840513,732.540691L789.866449,727.084670L790.889152,737.356940L775.548967,739.309875L762.690972,732.091407L749.608468,737.766717L736.883811,737.168908L733.690807,737.855245L731.236980,741.463351L721.911179,741.061898L715.811619,745.595374L704.759472,747.435109L704.912627,752.905685L699.595280,755.933218L699.156527,762.741605L691.995814,772.965288L693.657194,779.001071L703.509569,791.150757L711.070034,800.994604L715.247159,815.300902L723.134234,832.555029L738.223816,841.943079L749.844470,841.673223L741.656004,822.629164L752.551003,820.365392L746.470069,809.380517L763.082592,815.084952L761.734815,802.933398L752.571904,796.713641L742.025110,786.861290L748.125748,782.194061L738.552783,772.239569L733.514442,759.667340L736.300512,755.076457L746.458878,765.874594L756.059423,765.853382L764.469601,762.426926L751.341606,750.672821L771.556623,745.267573L780.725899,747.231014L791.248916,747.821883L795.060641,745.491823L798.840513,732.540691Z " data-name="gr"/>
        <path d="M657.910711,643.367214L651.959523,646.450617L637.832789,642.481603L624.634425,633.618568L619.143932,631.071824L606.350686,636.565505L605.378468,644.909706L599.740617,647.022058L600.235867,652.783245L593.646420,652.384026L587.720303,649.019372L584.907926,652.497941L573.211438,651.794169L572.637879,652.127439L572.740554,659.274155L578.154431,666.150700L582.680627,657.282341L593.677514,660.525591L594.495519,667.456214L602.794608,676.073500L599.510844,677.603012L614.832319,692.654058L630.790011,698.730697L641.224874,706.094992L657.836844,713.672737L659.405551,710.189504L643.719770,702.441391L636.614394,693.898545L629.798614,689.372758L621.426106,681.734983L617.272630,675.393235L608.298939,665.810329L611.147210,657.282341L617.529379,662.003730L620.818550,657.738416L628.602228,657.282341L643.289661,660.696590L654.849224,660.411941L662.848493,664.958196L668.575009,657.225992L662.709110,651.357574L657.910711,643.367214Z " data-name="hr"/>
        <path d="M612.539794,623.855957L615.346390,624.084927L619.143932,631.071824L624.634425,633.618568L637.832789,642.481603L651.959523,646.450617L657.910711,643.367214L670.159103,637.937520L680.638735,638.852194L693.581422,634.953298L702.122036,620.918559L708.388078,606.869185L717.953428,602.523873L716.157881,596.972256L706.385444,591.340666L703.125719,593.458039L684.858041,587.169482L679.623385,588.431512L676.293854,593.300784L668.849507,595.886153L666.938140,594.562633L659.258547,597.776994L652.785175,598.390211L651.861487,602.549564L638.272446,605.087744L631.994942,602.828956L623.152508,597.526043L622.639670,605.990232L613.359977,606.030914L616.930750,610.521057L612.539794,623.855957Z " data-name="hu"/>
        <path d="M246.300540,480.214401L234.568775,476.074478L224.822668,476.350405L228.576023,465.607567L225.874324,454.894907L213.576019,464.232859L191.291045,479.937162L198.346555,500.421123L184.181907,521.578296L206.699835,524.651597L235.617761,512.654383L248.354274,494.596649L246.300540,480.214401Z " data-name="ie"/>
        <path d="M141.021783,236.947324L117.983773,235.644934L93.751287,245.456926L76.874131,240.244868L53.885776,250.294373L34.175496,237.782208L12.431758,240.504109L0.571427,252.533284L29.425782,256.846924L29.059916,262.305534L3.229467,265.916611L32.607236,275.055074L17.040001,283.347298L56.184946,289.306024L74.752000,292.083377L87.667898,288.644237L130.733596,275.767473L150.876376,261.529378L136.350381,248.876755L141.021783,236.947324Z " data-name="is"/>
        <path d="M613.847798,802.693752L600.753513,804.568144L583.131107,806.908509L562.674251,804.943934L560.749483,815.991113L585.634819,826.953926L594.640551,829.282259L608.446636,837.411312L611.518843,826.313372L608.537683,819.631203L613.847798,802.693752Z M501.761989,739.816862L493.443708,746.245257L483.970259,745.206419L488.316845,757.118489L489.886703,782.580534L496.636228,788.232775L503.446798,781.120842L511.365964,782.462879L512.669906,754.575152L501.761989,739.816862Z M549.239724,625.612163L545.096412,618.409256L528.945910,622.009059L527.237577,625.947537L517.036158,623.003701L516.160324,631.489305L509.013762,634.977874L496.590850,632.386195L493.361925,640.722721L485.454472,641.379170L482.432354,638.104661L473.368475,645.109148L465.361801,646.090230L458.034396,641.668409L457.542463,647.500689L462.723746,655.238293L457.130538,661.502600L461.989115,677.366101L471.210186,679.962153L469.600795,688.838710L476.564302,687.340044L485.933865,677.847847L493.567084,675.082168L507.573034,681.836458L516.077938,684.214465L522.355199,704.427886L534.510189,716.226736L550.824429,729.604589L564.712403,738.924908L577.464355,740.266202L585.391438,748.607523L596.664016,752.393775L602.313069,761.420439L609.631177,764.036900L615.578019,774.678223L623.115335,786.996853L619.631966,791.557758L616.782574,803.049344L617.101002,809.620639L624.260413,807.963448L632.392400,789.578695L639.550412,788.312733L640.851171,777.208396L627.832604,769.364803L634.134980,755.782021L649.336102,759.225077L659.638109,769.040409L662.283547,761.506092L660.196264,757.593082L644.621302,746.719810L631.560374,740.445967L615.686068,732.974603L620.182893,728.867932L615.690262,724.319596L602.331208,724.446573L582.271814,707.916460L572.644219,691.008139L556.170515,680.709601L550.025996,670.285676L551.730293,664.442146L550.187939,654.236042L563.313603,646.920782L576.803327,649.924988L572.210853,641.139016L573.320428,630.956892L549.239724,625.612163Z " data-name="it"/>
        <path d="M698.010230,722.458454L707.766312,719.276322L711.502617,718.487652L710.781608,716.948249L712.572288,714.508499L713.972492,709.519822L711.570824,709.633068L707.885931,705.838039L704.998098,704.875431L702.452846,701.620696L699.157970,700.347425L696.465350,697.461898L693.538639,698.593458L691.855634,705.384958L687.936539,706.857284L685.195891,711.446581L689.337120,716.948249L693.609246,719.049089L695.459350,726.498023L697.644611,726.668825L698.010230,722.458454Z " data-name="-99"/>
        <path d="M700.996597,470.982620L709.371716,473.127616L714.074030,479.311628L729.326536,479.448147L745.201639,471.887108L746.963465,460.583180L758.671840,454.185030L755.645551,445.252061L739.067054,435.598961L730.619889,434.322834L727.760386,430.193575L712.911060,432.155551L686.810334,430.882660L669.986378,436.974646L675.639447,453.719756L692.480992,457.218336L699.855007,460.390991L698.992298,465.869838L700.996597,470.982620Z " data-name="lt"/>
        <path d="M442.013663,556.150893L437.811184,556.925705L436.413373,568.466568L440.114009,570.256288L444.801788,569.820504L445.412903,560.792175L442.013663,556.150893Z " data-name="lu"/>
        <path d="M669.986378,436.974646L686.810334,430.882660L712.911060,432.155551L727.760386,430.193575L730.619889,434.322834L739.067054,435.598961L755.645551,445.252061L764.491053,441.902756L779.712953,434.231479L772.539498,422.527143L769.407098,412.939225L761.171628,408.395831L748.558068,408.359150L734.101846,401.049519L727.001770,398.637979L714.627698,402.114102L714.218754,417.257336L701.966445,417.641987L687.487063,402.902343L674.120549,409.631500L668.396849,422.041185L669.986378,436.974646Z " data-name="lv"/>
        <path d="M781.352677,595.512727L786.642418,597.530859L792.594644,603.671966L799.047264,612.407473L810.317966,624.723664L812.121310,633.806130L811.589432,642.629927L815.880042,652.042261L819.774404,649.803541L821.695487,642.724895L825.316932,636.137119L823.610438,632.434297L826.847213,630.783689L828.898552,633.646890L838.783908,634.252305L842.956787,632.722902L839.547539,630.625452L840.261555,627.541341L833.690353,622.278192L830.013528,613.618840L823.495804,610.229848L823.637926,603.209511L815.374424,597.636803L808.498393,596.862036L795.461283,590.412364L784.844751,592.459462L781.352677,595.512727Z " data-name="md"/>
        <path d="M695.459350,726.498023L693.940027,733.510959L697.182853,742.380722L704.759472,747.435109L715.811619,745.595374L721.911179,741.061898L731.236980,741.463351L733.690807,737.855245L736.883811,737.168908L734.257385,723.538731L725.035108,716.948054L717.179529,717.289002L711.502617,718.487652L707.766312,719.276322L698.010230,722.458454L697.644611,726.668825L695.459350,726.498023Z " data-name="mk"/>
        <path d="M680.789319,713.260731L685.195891,711.446581L687.936539,706.857284L689.164197,705.101951L682.293936,700.856673L676.519339,698.653372L673.781460,695.821334L668.967651,692.314200L665.977890,694.180886L660.900583,698.932903L659.405551,710.189504L657.836552,713.672560L665.544259,717.743047L670.909363,724.449034L674.621176,726.042467L672.893484,719.503366L679.352417,709.406223L680.789319,713.260731Z " data-name="me"/>
        <path d="M440.033685,487.397922L418.651653,495.834629L405.453822,525.643521L397.295749,531.239347L409.102877,532.839557L423.889280,528.605765L434.347501,537.531870L443.373657,542.304795L439.913533,520.945064L449.534127,520.936664L453.279571,513.296590L456.453254,494.780626L453.195343,487.966509L440.033685,487.397922Z " data-name="nl"/>
        <path d="M717.190147,152.263891L694.254774,155.734540L669.858407,154.963128L652.715388,169.481735L630.472759,168.546624L602.406208,176.273914L568.631205,198.644953L547.463097,212.224252L517.978072,247.564727L494.402115,273.483984L467.502788,292.883251L430.104801,308.788412L417.162970,321.052509L423.544916,365.536976L429.753665,386.512933L451.178760,396.501338L471.179927,391.899914L499.472359,369.299589L510.487469,381.269898L516.221115,370.027967L527.528788,356.712264L530.347075,334.030748L520.043492,324.315153L516.834614,299.040492L524.503331,281.354754L538.770804,281.676041L542.946731,274.244233L537.052364,267.858729L555.975971,241.768475L567.294519,221.457347L574.610412,208.544797L587.825808,208.605992L589.911588,198.569745L616.163500,201.450634L616.114985,189.652349L624.410973,188.918183L631.668218,184.208407L648.571335,193.648248L666.177638,192.761835L681.729636,197.094168L692.970002,189.170556L696.601702,176.134876L716.017229,170.149207L735.068221,177.176164L732.523565,189.658811L743.072961,188.013771L764.202612,180.872490L746.404410,169.760341L762.336846,165.054240L717.190147,152.263891Z M641.756411,41.482422L623.345282,37.980277L616.885626,32.210827L592.996779,35.280471L601.575484,40.219742L594.328654,44.242868L616.663444,47.888209L641.756411,41.482422Z M557.166985,13.603749L541.281941,8.562625L524.338910,9.061285L520.938268,14.003298L504.333642,14.206166L497.031302,9.141937L466.086627,14.322812L476.906061,25.928412L502.173449,38.825435L521.010926,43.326219L511.028028,48.906665L539.022663,58.610058L553.661132,57.985822L556.641083,44.854942L566.557673,41.905513L570.490115,30.569624L598.771408,24.624187L557.166985,13.603749Z M607.424937,0.000000L597.068321,4.198419L579.346093,0.822169L544.756940,4.746594L559.053804,11.310578L575.836890,11.563835L578.992639,15.572946L614.268999,18.023082L647.712134,16.290729L662.198283,8.483186L637.711462,3.497972L607.424937,0.000000Z " data-name="no"/>
        <path d="M585.844666,536.115572L594.065466,542.693164L606.299727,544.472849L605.809836,550.107438L615.000488,554.350447L616.917524,549.054707L628.239959,551.347009L630.410814,557.773969L642.602195,559.015661L651.121874,569.152001L652.168772,570.396943L658.575442,567.599164L667.569968,574.909379L676.725999,570.487518L684.659224,572.605405L696.058477,569.690523L712.505091,577.622169L716.217321,578.827257L710.878710,569.553089L723.460813,552.447130L731.177337,550.060831L732.128629,544.315826L721.569943,526.500055L719.997170,517.451244L713.744636,508.058616L722.701203,503.928519L721.608874,495.876337L716.081523,488.208952L714.074030,479.311628L709.371716,473.127616L700.996597,470.982620L672.157781,471.283575L652.524949,469.007550L637.360998,468.754393L635.589764,463.870899L619.574429,460.491734L600.600644,467.263213L577.010853,476.536097L566.786435,482.436151L571.397365,492.680809L567.451760,498.065604L573.856395,505.268451L578.761522,516.105658L578.127401,523.108299L585.844666,536.115572Z " data-name="pl"/>
        <path d="M189.810021,725.980321L190.278384,732.925557L193.405475,740.348057L193.447058,749.142422L189.382583,761.706692L187.841182,770.215668L180.665960,777.900778L178.766369,791.846626L182.624655,799.961411L190.333560,801.940549L191.534935,815.163984L188.329654,832.040861L197.428057,829.665330L206.561536,832.700023L213.741909,827.099435L212.479118,819.957623L219.158471,811.879162L221.702044,806.031582L215.880277,799.648869L221.062195,785.599787L214.505472,772.868541L222.016818,771.128179L223.000263,761.177604L225.885762,758.111096L226.589531,741.865425L234.666994,736.263177L230.195131,725.922378L220.274297,725.203243L217.265096,727.801655L207.178680,727.826126L203.279885,717.764414L196.210733,720.756918L189.810021,725.980321Z " data-name="pt"/>
        <path d="M717.953428,602.523873L708.388078,606.869185L702.122036,620.918559L693.581422,634.953298L680.638735,638.852194L690.491420,646.964491L693.034310,653.523551L703.729462,658.364489L705.935008,666.831343L716.364161,672.786683L721.140783,668.193841L725.565695,670.746383L722.049603,674.203889L725.522656,677.772230L731.299474,686.182028L737.671341,684.684720L751.005729,687.873595L775.938877,688.949113L783.661076,683.734151L802.891817,678.978306L816.154327,686.413426L826.374655,688.560325L827.645697,663.857051L833.013276,665.779578L840.511819,661.361378L839.354738,656.057333L831.261018,652.523491L823.870731,655.836637L815.880042,652.042261L811.589432,642.629927L812.121310,633.806130L810.317966,624.723664L799.047264,612.407473L792.594644,603.671966L786.642418,597.530859L781.352677,595.512727L774.420762,595.509517L770.937394,600.349888L759.048501,602.340291L753.832072,605.520786L745.546913,600.459063L734.988041,600.381998L724.533337,598.088415L717.953428,602.523873Z " data-name="ro"/>
        <path d="M693.034310,653.523551L690.491420,646.964491L680.638735,638.852194L670.159103,637.937520L657.910405,643.367166L662.709110,651.357574L668.575009,657.225992L662.848395,664.958272L668.925320,664.901417L665.563788,673.920410L674.421357,681.791638L672.865003,691.409385L668.967651,692.314200L673.781460,695.821334L676.519339,698.653372L682.293936,700.856673L689.164197,705.101951L687.936539,706.857284L691.855634,705.384958L693.538639,698.593458L696.465350,697.461898L699.157970,700.347425L702.452846,701.620696L704.998098,704.875431L707.885931,705.838039L711.570824,709.633068L713.972492,709.519822L712.572288,714.508499L710.781608,716.948249L711.502617,718.487652L717.179529,717.289002L725.035108,716.948054L727.532354,714.054595L725.432754,711.616802L727.600560,705.101975L733.373229,698.706922L724.193980,689.881972L721.871899,682.413573L725.522656,677.772230L722.049603,674.203889L725.565695,670.746383L721.140783,668.193841L716.364161,672.786683L705.935008,666.831343L703.729462,658.364489L693.034310,653.523551Z " data-name="rs"/>
        <path d="M651.121874,569.152001L646.267158,569.177034L644.112031,572.889539L640.456717,573.786839L639.843288,578.484595L636.808431,579.465671L636.549409,581.387768L631.163045,583.526316L623.880418,583.175893L621.968127,587.725369L620.884286,590.352477L623.152508,597.526043L631.994942,602.828956L638.272446,605.087744L651.861487,602.549564L652.785175,598.390211L659.258547,597.776994L666.938140,594.562633L668.849507,595.886153L676.293854,593.300784L679.623385,588.431512L684.858041,587.169482L703.125719,593.458039L706.385444,591.340666L708.612559,583.001757L712.505091,577.622169L696.058477,569.690523L684.659224,572.605405L676.725999,570.487518L667.569968,574.909379L658.575442,567.599164L652.168772,570.396943L651.121874,569.152001Z " data-name="sk"/>
        <path d="M573.320428,630.956892L572.210853,641.139016L576.803327,649.924988L573.211438,651.794169L584.907926,652.497941L587.720303,649.019372L593.646420,652.384026L600.235867,652.783245L599.740617,647.022058L605.378468,644.909706L606.350686,636.565505L619.143932,631.071824L615.346390,624.084927L612.539794,623.855957L609.659634,627.349885L595.188187,627.865417L587.156151,632.559895L573.320428,630.956892Z " data-name="si"/>
        <path d="M656.807155,250.449292L680.044327,245.215609L673.913897,238.047284L668.003186,209.954256L644.197397,197.681449L624.410973,188.918183L616.114985,189.652349L616.163500,201.450634L589.911588,198.569745L587.825808,208.605992L574.610412,208.544797L567.294519,221.457347L555.975971,241.768475L537.052364,267.858729L542.946731,274.244233L538.770804,281.676041L524.503331,281.354754L516.834614,299.040492L520.043492,324.315153L530.347075,334.030748L527.528788,356.712264L516.221115,370.027967L510.487469,381.269898L524.264586,409.040869L538.999139,431.492382L545.529803,450.302498L563.471918,449.384229L570.739379,433.600779L589.697453,435.519383L596.415874,416.952403L598.397850,383.935759L613.538129,379.362424L624.417514,357.410267L608.739403,346.681597L596.445937,333.116723L603.542930,306.224818L629.128904,289.948521L649.518847,274.840239L645.352038,263.403420L656.807155,250.449292Z " data-name="se"/>
        <path d="M852.095020,515.867638L838.596785,517.071533L834.486590,521.530511L835.304558,531.774421L828.560901,529.805178L814.228615,530.781231L809.203035,526.019970L803.781149,529.569366L797.250753,526.626792L784.545191,526.218201L765.872545,521.337801L749.451375,519.745602L737.116432,520.196467L729.128464,525.706610L721.569943,526.500055L732.128629,544.315826L731.177337,550.060831L723.460813,552.447130L710.878710,569.553089L716.217321,578.827257L712.505091,577.622169L708.612559,583.001757L706.385444,591.340666L716.157881,596.972256L717.953428,602.523873L724.533337,598.088415L734.988041,600.381998L745.546913,600.459063L753.832072,605.520786L759.048501,602.340291L770.937394,600.349888L774.420762,595.509517L781.352677,595.512727L784.844751,592.459462L795.461283,590.412364L808.498393,596.862036L815.374424,597.636803L823.637926,603.209511L823.495804,610.229848L830.013528,613.618840L833.690353,622.278192L840.261555,627.541341L839.547539,630.625452L842.956787,632.722902L838.783908,634.252305L828.898552,633.646890L826.847213,630.783689L823.610438,632.434297L825.316932,636.137119L821.695487,642.724895L819.774404,649.803541L815.880042,652.042261L823.870731,655.836637L831.261018,652.523491L839.354738,656.057333L850.038221,640.816123L854.486646,629.430013L869.466916,626.881389L871.826176,634.596399L898.532384,639.820636L904.137804,644.550263L889.270786,651.405496L886.946845,655.354247L906.215088,661.374120L904.086254,671.015371L914.118043,675.181627L934.924163,663.320666L952.649340,659.761827L954.608460,652.419159L937.774123,653.654992L928.740320,648.683711L925.551775,635.840117L938.507299,628.129055L953.843273,627.037557L963.625740,620.339030L976.526127,618.682734L975.268356,609.480412L982.629639,603.696052L998.259747,602.177048L999.428573,595.270916L993.429004,583.861266L997.764169,573.045740L996.258148,566.991725L970.843851,560.293761L961.399681,560.515859L949.368272,550.899861L937.615066,554.148398L915.593239,546.940218L915.132987,542.913524L907.597909,534.056816L894.569187,533.069274L891.968888,526.745120L895.137816,522.626587L882.567141,511.135237L866.409533,513.093334L861.360312,512.075135L858.222539,516.687668L852.095020,515.867638Z " data-name="ua"/>
    </g>
</svg>