<?xml version="1.0" encoding="utf-8"?>
<!DOCTYPE svg PUBLIC "-//W3C//DTD SVG 1.1//EN" "http://www.w3.org/Graphics/SVG/1.1/DTD/svg11.dtd">
<svg xmlns="http://www.w3.org/2000/svg" xmlns:xlink="http://www.w3.org/1999/xlink" enable_background="new 0 0 1000 520" height="520px" pretty_print="False" style="stroke-linejoin: round; stroke:#000; fill: none;" version="1.1" viewBox="0 0 1000 520" width="1000px">
  <defs>
    <style type="text/css"><![CDATA[path { fill-rule: evenodd; }]]></style>
  </defs>
  <metadata>
    <views>
      <view h="520.138038714" padding="0" w="1000">
        <proj id="laea" lat0="47.2159692385" lon0="9.87418994656"/>
        <bbox h="32.66" w="62.92" x="997.04" y="976.49"/>
      </view>
    </views>
  </metadata>
  <g class="" id="bg">
    <path d="M-10000.0,-10000.0L-10000.0,10000.0L10000.0,10000.0L10000.0,-10000.0Z "/>
    <path d="M962.934296,60.473090L952.114728,40.823261L929.593827,36.837649L914.415453,28.796815L898.304530,26.604804L885.109943,39.742244L866.078232,41.235864L844.986080,39.921407L813.478395,20.844418L797.569011,22.842592L784.175878,18.750123L757.955561,6.715319L745.932626,4.298423L727.185396,11.043410L724.057181,6.732455L702.385175,5.318679L701.232991,36.052576L698.770644,47.272957L685.777546,47.594316L672.203311,68.487333L671.118576,82.821596L637.296841,81.523899L629.555970,89.830419L606.551219,90.677872L588.101145,86.995877L579.356852,69.825462L556.152379,56.420926L554.155879,91.715101L540.534268,105.019617L515.573274,94.687605L512.269869,98.229192L507.269882,131.862320L496.586502,144.670178L442.252859,171.928793L431.725172,180.733291L425.273672,197.603317L452.002231,232.898053L452.736720,249.106812L445.964171,266.203192L464.035647,270.021118L467.084790,278.442228L463.248389,313.295446L435.676225,301.807116L429.950447,282.972218L418.462434,277.528516L391.938231,284.727176L375.834654,275.286676L353.806487,271.873333L352.849638,289.443392L291.171377,298.145479L272.454502,305.178554L236.442390,330.349663L202.638160,337.135592L194.522878,336.269143L179.656009,316.373148L179.930039,312.564556L162.543720,312.007811L151.537538,307.602432L128.304752,308.871172L106.086973,353.731688L88.886781,360.591900L91.113348,344.015896L73.331183,338.214888L69.027762,322.518156L31.323974,302.566182L24.213931,308.904483L28.894437,312.083332L5.579013,315.101816L15.004472,323.768511L12.731253,338.492445L1.818276,362.148120L5.499354,378.855046L11.504927,389.336082L13.954748,403.951512L44.013317,413.814130L48.342380,427.456350L64.284906,437.691334L82.587861,444.271412L88.777338,442.126813L111.339212,418.047926L120.118376,421.977301L125.324640,441.413463L157.008775,444.763845L166.566834,455.051866L175.876598,458.479644L202.117380,453.871891L216.258321,426.395633L230.898583,418.414234L256.080877,416.498355L268.618238,413.429352L301.796118,414.892975L327.394554,403.737428L353.809570,394.683535L349.206340,413.889331L352.604212,423.489034L368.412256,442.480514L385.351865,468.052271L397.746549,473.548584L491.119366,489.592231L534.463728,491.026755L568.996964,497.462675L580.785410,497.475815L617.376112,505.232208L672.271810,510.925784L678.707513,513.943654L705.378756,492.805924L715.652675,476.193984L722.400804,470.769802L765.335827,460.645886L795.307902,461.169132L809.169113,455.261495L820.235490,445.848252L838.016461,441.997737L864.038386,446.609960L864.731506,422.242484L879.286740,408.924637L898.819859,385.991151L908.881370,379.210585L924.970554,376.961121L926.669163,350.548534L920.686770,349.970029L916.567288,335.071190L921.796951,324.856058L917.104551,300.405615L934.036879,294.015256L945.600950,271.105159L939.516563,257.307912L911.450920,250.392148L909.727916,246.966064L925.522517,231.285631L930.703198,230.214412L957.507864,241.998148L993.796235,233.012463L986.670842,208.178818L991.741230,195.159731L992.076240,182.780324L998.900426,173.810429L990.283625,168.004314L987.135184,159.696629L972.679931,138.431010L955.405500,102.852207L954.083665,92.250882L962.934296,60.473090Z "/>
  </g>
  <g class="" id="bundesland">
    <path d="M87.821491,361.855536L85.819804,362.108693L85.228191,361.766852L85.759151,360.540729L86.972555,358.325587L87.506400,357.954276L89.260980,357.421315L89.903392,356.781337L90.227393,355.474880L90.153995,354.301568L89.846960,353.017914L92.216458,345.764017L92.297253,342.237774L89.852707,340.927673L84.033274,342.011976L82.463277,343.762581L81.902793,344.199483L81.217483,344.196656L79.844314,343.366314L79.186225,343.282330L77.448124,344.122122L76.435980,344.878704L75.545149,344.921594L74.253504,343.670426L73.536185,341.800535L73.407657,339.696461L73.046500,337.663775L71.590691,335.967518L74.597484,333.607915L75.208159,331.547453L74.038758,329.253862L67.505965,319.707556L66.003107,320.398279L64.828818,321.432234L63.667163,321.939939L62.216259,321.071977L62.009561,319.929015L61.967723,319.332156L61.966912,318.740299L60.760466,316.106342L59.104755,314.449055L57.722695,312.619253L57.350782,309.382094L55.753589,310.668326L53.759256,311.064230L49.824572,310.752094L45.849374,309.274970L45.180011,309.456927L43.554059,310.508564L42.488447,310.589000L39.798276,309.191070L39.294605,307.121695L39.556010,304.739308L39.121072,302.422109L37.580271,300.731112L35.711278,300.051222L33.732121,300.271273L31.819868,301.290307L28.933760,304.644318L27.288344,308.202165L27.305053,308.206499L29.091516,309.823568L30.719528,313.457138L25.154720,313.100595L23.480394,313.442554L23.128451,314.133285L22.382496,316.724855L21.679805,317.472295L20.822775,317.642976L18.058826,317.462466L17.281492,316.999143L17.053070,315.269535L16.197742,314.921158L15.184577,315.263782L13.583006,316.929880L12.646833,317.445404L10.661141,317.438432L8.794006,316.970479L7.045665,316.041608L5.634388,315.061433L5.652441,315.147784L9.539291,321.071466L14.455035,323.344709L18.234265,326.705069L18.100866,335.000852L16.804712,337.971519L11.645292,344.465219L11.022256,346.218373L10.324305,349.665869L9.811971,351.009603L5.263538,356.465370L0.963135,363.700948L2.163631,365.497081L2.683978,365.984589L4.393572,367.585783L3.859851,369.192512L3.489016,370.308580L4.072599,372.031009L5.329945,373.741011L6.459951,376.462085L6.316881,377.857707L4.984691,380.796441L4.991435,382.496183L6.990891,383.691580L8.944550,384.858960L12.094054,389.301658L12.608876,391.233014L13.220903,393.528050L13.426571,394.299047L12.486560,399.384900L11.995485,400.005092L9.734767,402.858973L8.790060,404.050946L11.282838,404.722681L18.274806,403.874797L20.507066,404.219828L45.705048,412.227906L45.483804,414.458707L46.049473,414.944448L46.877449,414.878797L47.387999,415.485866L47.387946,416.639230L46.835692,418.510876L46.503792,423.104056L46.075312,425.213431L46.296045,427.049741L47.995378,429.467873L51.312695,432.016843L65.626324,436.630957L70.808817,441.553023L73.829086,443.296247L79.618531,445.141861L81.478388,445.207428L81.459236,445.126157L81.332973,444.590348L78.899255,438.213859L75.857125,433.234638L75.541004,431.308143L75.971903,429.642705L77.686189,427.472860L79.318950,425.990952L80.770036,423.983261L81.611607,421.552428L81.952603,418.141795L81.883639,416.037624L81.460845,413.312384L81.308378,410.940369L81.546784,407.874062L83.071810,400.058465L84.423182,396.396400L89.564192,388.515907L91.525881,383.646471L91.771126,378.192185L91.659848,376.260240L90.036184,367.474987L87.821491,361.855536Z " data-code="at-vo" data-name="Vorarlberg"/>
    <path d="M999.036865,173.898789L995.735088,171.436747L991.379891,170.322973L988.237938,168.957545L988.638861,165.691344L986.956213,164.530630L986.414876,164.255423L986.816187,160.557071L987.304091,158.518472L988.481075,156.746258L986.617231,155.083845L985.894001,154.011740L985.893664,154.012167L984.438617,155.855601L983.575329,156.413513L982.475123,156.830535L980.912557,156.649450L979.732418,155.985450L978.290589,155.421689L977.379260,155.902113L975.833206,157.879586L975.595827,160.819743L975.802962,162.183667L976.345074,163.649049L976.310353,165.258871L975.549089,167.159008L974.063019,168.266161L971.898441,167.381055L967.634921,164.607198L965.512848,163.874614L962.871541,164.439145L959.993161,166.132507L955.067433,170.489174L949.802232,173.602514L948.245778,173.502073L946.757230,173.934132L944.097102,175.465827L941.122461,178.437349L939.717159,183.511170L938.610393,186.058019L936.939106,187.912171L932.707545,191.503857L930.397284,194.316915L925.523331,197.381579L916.095512,195.127748L911.545343,195.815402L907.888018,197.253549L901.978393,202.710284L900.119591,205.111655L898.456098,209.121859L898.827154,216.710791L898.510134,219.023246L897.885062,220.833065L896.430271,222.828774L894.993323,224.228404L890.530372,225.141816L891.457970,237.073106L892.694852,239.398856L894.994876,242.682806L899.873527,247.550006L904.244697,253.240178L900.625657,262.046234L899.894751,263.371953L898.827028,265.832972L898.258849,268.135546L898.206325,272.447486L898.845700,275.198434L899.773262,277.458106L899.890376,279.856176L899.828435,281.832253L893.550137,289.808020L891.544448,291.689722L888.392937,293.745994L885.091076,294.645268L877.487214,295.119547L870.516300,303.764254L868.190412,305.331163L867.651318,304.510845L867.136722,303.221377L866.334178,302.193471L864.746582,302.512602L863.504084,303.982195L861.718335,306.921427L861.397158,308.592004L861.714617,310.262888L864.492055,315.669308L866.350810,320.386508L868.040978,325.736437L869.654625,333.052443L870.081663,336.085584L874.845390,349.954799L875.266439,355.232931L874.352354,361.430161L874.653063,363.386635L875.404832,366.063748L876.754201,368.175110L882.072824,373.939159L882.555424,375.560993L882.517585,376.899661L881.734816,379.039633L878.651293,384.425986L872.888475,393.527824L868.447817,398.078379L867.644742,400.025472L867.334759,401.903201L867.387744,403.904672L867.064926,407.215246L867.255863,408.413761L867.977576,409.306476L869.735749,410.503354L870.337587,411.278450L870.601541,411.724761L870.956664,413.859814L871.061507,414.663965L871.072979,414.751959L871.541649,414.595416L874.200679,412.713706L879.423816,409.013440L881.480019,407.838552L883.057032,406.051631L887.360373,399.032469L888.773282,397.303392L891.958268,394.536560L894.641713,393.119803L895.505493,392.328218L896.284180,390.832432L896.256539,389.641123L896.058272,388.565319L896.305261,387.346512L897.558491,386.075925L898.854737,385.675247L899.854311,384.694307L900.189528,381.685302L901.277184,379.422037L903.070889,379.025546L908.114566,379.619667L913.474113,378.508717L916.320028,378.621534L918.759872,380.164701L919.519256,380.639475L920.222495,380.773463L920.854930,380.557741L921.387320,379.974455L921.385628,379.954276L923.563421,379.354223L927.022934,379.021180L929.485918,378.197533L928.716265,376.134077L926.657657,374.530407L924.708587,374.055165L920.864582,373.906853L922.400128,372.263579L928.140814,369.334176L929.555525,368.243556L930.000144,367.128610L929.447481,366.154391L927.815414,365.490322L925.063501,364.819252L923.858102,362.325072L924.481815,359.401812L927.131908,357.419252L929.820625,353.141157L930.256714,350.802345L928.438238,348.569290L926.241789,348.542646L921.943439,351.081188L920.062526,350.051096L920.012809,348.968085L920.814741,345.547356L920.629130,343.835674L919.632786,342.649636L918.514704,342.637181L917.467928,342.816739L916.616129,342.197445L915.880228,339.013005L917.560136,334.563622L916.836054,331.195362L916.835630,331.190318L916.834357,331.175184L920.762658,328.593082L922.490014,326.709256L923.143541,324.022048L922.338633,320.859031L917.607484,312.739312L917.219719,312.380852L916.613489,312.203382L915.985553,311.931181L915.554057,311.215647L915.538674,310.053539L916.067766,309.480583L916.694005,309.082291L916.932108,308.483026L915.972962,301.024607L917.100572,298.439938L918.711916,297.846353L920.575134,298.928070L922.376376,301.376404L935.997239,293.654242L940.612843,289.337437L942.319796,287.739478L941.103830,279.922776L942.458714,278.163279L946.153525,276.203954L947.336036,273.589715L947.221651,270.570767L945.987254,268.214177L944.002683,266.512667L941.663476,265.446547L942.066562,261.599895L940.608024,257.753132L938.043079,254.856351L935.063641,253.783783L930.797697,254.904944L928.390261,254.150690L921.845091,252.096658L918.277145,253.224028L910.666587,250.856133L908.175420,249.679105L909.205343,248.119091L910.924828,244.702257L911.804880,243.642271L912.646073,244.541487L913.348912,245.096727L913.969994,245.171119L914.792184,244.557770L916.231598,243.012941L921.227749,239.787405L922.246720,238.612863L922.820815,236.871683L922.369428,234.319014L922.993050,232.365218L927.612655,229.762615L933.171533,229.982886L944.028856,233.176683L945.784357,234.196359L946.643793,235.889355L947.313322,237.903982L948.118652,239.219045L948.494586,239.832810L950.093898,241.231626L951.580803,241.974366L959.074596,242.487803L960.202299,242.107575L961.524226,240.540728L963.729485,236.190182L965.330828,234.556947L967.702781,239.498044L972.760629,239.966377L982.916915,236.402605L992.350271,234.237360L994.928909,232.727105L993.351815,231.927596L992.103189,230.543223L991.270828,228.637179L990.436200,222.287218L989.190365,218.415962L988.703355,215.074541L990.460303,212.700120L989.493990,211.543794L987.899001,208.015009L986.800148,207.333460L983.939476,206.310748L983.034406,205.509316L982.797563,203.385454L984.352124,202.372917L988.782042,200.941784L990.770311,199.038814L991.882507,196.947313L992.399776,194.321118L992.615051,190.797484L992.309009,190.434413L991.600374,190.276581L990.916242,189.943536L990.702371,189.109129L991.001294,188.522006L992.137337,187.577328L992.362927,187.225803L992.570521,185.518226L993.090030,184.239233L993.030727,183.024327L991.506058,181.549258L999.036865,173.898789Z " data-code="at-bu" data-name="Burgenland"/>
    <path d="M877.487214,295.119547L872.629005,291.513801L871.005290,288.795080L870.017309,286.731181L869.784340,285.876371L869.551830,284.513699L869.048184,283.101623L868.588254,282.234485L868.092963,281.695163L867.438952,281.483343L864.473639,283.298957L863.222637,283.850329L862.279080,283.874443L861.203384,283.528101L859.885608,282.459448L856.511129,280.928350L845.619470,279.922463L843.659088,275.576407L841.820064,272.601663L838.169991,270.253858L834.987766,270.498708L833.971531,270.358396L833.091578,269.943564L832.668417,268.706829L832.764198,267.816169L833.213760,265.923688L833.247159,264.489523L833.107905,263.210739L832.799170,262.127705L832.545738,261.497324L831.633937,260.034034L830.901096,259.298171L829.838197,258.800697L828.170113,259.232568L823.948135,262.020536L822.548232,262.212824L821.240302,261.453822L820.047007,258.955100L819.410155,256.764598L818.202398,251.170492L817.472491,249.819405L816.482999,249.005543L814.749101,248.815956L813.686125,249.108809L812.403621,249.204782L810.872243,248.984174L808.262897,247.848760L806.315958,246.714364L804.586126,244.639845L801.678899,241.941490L792.766405,241.823784L787.433131,238.506742L776.219706,233.974552L770.340791,229.257521L768.165724,228.533549L765.506979,228.472326L757.613182,231.018438L756.734647,231.109947L751.250700,230.652361L747.965934,235.535270L747.354986,237.048304L746.176434,238.630547L744.832218,239.589822L739.857874,241.064286L733.353380,244.115043L729.384170,245.587674L728.116197,245.682276L725.890857,245.419283L723.922702,245.640936L721.317091,246.528062L716.194807,249.156594L713.079893,251.347730L709.791864,252.362303L707.031761,252.165232L702.848041,249.117401L701.541540,247.872363L700.782120,247.505054L687.112632,248.439730L682.316871,245.057288L674.360805,252.341895L655.890637,261.080530L654.581286,263.145361L654.173188,264.543311L652.808165,266.028183L650.615164,267.363871L646.538487,268.819366L643.347612,270.971958L637.703845,275.829597L634.535516,277.014836L630.669977,277.240172L627.950188,276.598536L625.012574,275.476835L617.305721,270.697510L616.066216,270.492596L614.295735,271.046666L609.518116,273.625430L603.195987,275.707816L600.645047,277.761079L599.831510,277.865675L599.076536,276.016094L598.791011,274.516264L597.121454,270.876188L590.779876,264.119818L585.023326,265.223799L583.000736,264.873590L579.477741,263.719312L575.483682,263.191087L573.664034,262.529700L570.365467,260.793436L569.172700,260.651551L567.740173,261.018217L554.048003,268.755941L551.928115,270.699343L550.382679,272.968748L549.783745,275.774203L549.576492,278.226115L549.539535,282.067890L549.715096,283.979296L550.264497,285.994010L551.425574,287.943288L552.973020,289.822820L554.749253,291.619950L555.851269,293.176571L557.209308,295.753908L557.981952,298.922489L558.173144,301.532209L557.785225,303.638684L557.398644,304.534265L556.876615,305.183218L553.713874,308.206442L553.321011,308.985628L551.721874,309.454046L550.524663,310.166034L538.166784,308.370577L537.239696,311.322280L536.468529,314.975649L536.355525,316.490524L537.957169,323.384704L542.512831,336.368434L546.331724,343.418838L550.701229,347.138450L553.042688,348.665766L555.042924,349.104932L556.842230,348.388415L558.626297,346.811087L560.779457,345.762272L564.486305,345.162399L566.394231,343.759830L568.376307,343.021911L570.181316,344.086061L572.569397,348.378129L575.721962,352.798014L576.493868,354.587683L576.927733,356.217248L577.671518,358.256556L578.813788,360.011954L583.496461,365.430605L587.618664,368.059401L588.722317,369.684143L588.538546,371.710368L586.125306,375.119153L582.404386,379.131738L581.380703,380.942521L581.279959,383.415179L581.749219,387.322847L581.174062,389.561443L579.858238,393.383222L574.648219,404.333508L569.870681,411.170337L575.223509,415.192218L577.153205,416.426960L578.402223,416.915763L580.830338,416.513332L583.159389,415.664475L591.048661,408.826670L595.905743,406.145255L597.735069,402.562667L598.260381,401.126242L598.768471,400.151807L599.855330,398.761559L601.818101,397.096568L615.991253,389.288326L619.860263,388.361638L624.570273,388.177464L628.091038,389.562836L633.677987,393.055904L643.334027,395.523478L645.689089,396.483284L647.115595,397.506231L647.476888,398.022714L648.654599,398.198104L651.056826,398.160546L664.355899,392.514701L667.987107,392.603015L676.651414,391.504877L680.340208,392.766692L696.646622,390.479470L711.174253,386.033385L713.238832,386.246251L714.656866,387.037765L716.727772,388.527526L722.389044,394.673551L733.928574,410.088175L734.043506,415.958911L733.414947,418.419514L732.653039,420.224397L732.082881,422.635387L731.949018,423.770091L732.310609,425.486003L733.149555,428.032798L735.449295,432.649190L737.455860,439.435052L738.195301,445.939182L740.120824,450.498487L749.114146,459.577953L750.296384,460.929183L750.359861,461.001722L759.401082,461.366318L763.766951,461.539575L780.846490,459.452777L788.236778,458.540972L792.288998,459.750737L794.822077,461.683591L795.482539,462.187345L798.652026,463.873841L802.619354,462.873541L804.971852,460.724868L805.276582,459.882745L805.692040,458.734343L805.916821,456.856127L805.961575,456.482032L807.076491,453.605172L809.011699,451.886469L811.821664,450.920610L814.669517,450.671828L816.731958,451.099130L818.425627,450.477258L819.070494,449.914191L819.733194,449.335446L820.410100,447.565004L820.212074,445.057222L820.410419,442.078622L822.664505,443.236560L833.025237,444.001970L836.550372,443.533763L840.372871,441.638666L845.342894,439.171536L849.036537,438.564250L852.810998,439.015516L862.234556,442.916057L865.117729,443.201331L867.744093,443.460489L869.290229,444.374985L872.036323,447.335024L872.056072,447.356303L872.054662,447.346476L871.412777,442.872713L869.669343,439.968434L866.679394,438.365003L864.773548,433.705921L864.396894,430.292966L864.347680,427.443986L864.337404,426.850132L864.789698,420.711783L864.571547,419.337668L863.944507,418.950093L863.786941,418.530847L864.976212,417.051619L865.726955,416.535799L871.072979,414.751959L871.061507,414.663965L870.956664,413.859814L870.601541,411.724761L870.337587,411.278450L869.735749,410.503354L867.977576,409.306476L867.255863,408.413761L867.064926,407.215246L867.387744,403.904672L867.334759,401.903201L867.644742,400.025472L868.447817,398.078379L872.888475,393.527824L878.651293,384.425986L881.734816,379.039633L882.517585,376.899661L882.555424,375.560993L882.072824,373.939159L876.754201,368.175110L875.404832,366.063748L874.653063,363.386635L874.352354,361.430161L875.266439,355.232931L874.845390,349.954799L870.081663,336.085584L869.654625,333.052443L868.040978,325.736437L866.350810,320.386508L864.492055,315.669308L861.714617,310.262888L861.397158,308.592004L861.718335,306.921427L863.504084,303.982195L864.746582,302.512602L866.334178,302.193471L867.136722,303.221377L867.651318,304.510845L868.190412,305.331163L870.516300,303.764254L877.487214,295.119547Z " data-code="at-st" data-name="Steiermark"/>
    <path d="M677.675171,518.138039L679.953813,516.962568L680.457853,515.402631L681.015960,513.674677L681.917943,509.823394L683.736183,506.829267L685.012043,506.214829L687.918140,505.775108L689.257236,505.288106L690.593444,504.294111L693.120185,501.300480L693.722273,501.101339L694.527212,501.195956L695.536038,501.314450L696.347993,498.840973L697.802406,496.839844L698.388137,495.470201L699.137197,494.490956L701.312214,493.337004L702.560093,494.116336L705.970968,493.325559L708.859754,491.775437L709.568727,491.066619L710.498495,488.504898L711.709348,485.166342L712.506131,482.110647L713.348827,478.876296L714.667544,475.486461L716.707701,472.070728L718.353804,471.240556L720.254576,471.352236L722.516927,470.898301L723.004182,470.800466L725.807703,468.762533L727.619747,467.444492L729.570097,467.683092L732.389536,471.232201L736.914556,463.754495L744.468711,460.759947L747.677483,460.892048L750.359861,461.001722L750.296384,460.929183L749.114146,459.577953L740.120824,450.498487L738.195301,445.939182L737.455860,439.435052L735.449295,432.649190L733.149555,428.032798L732.310609,425.486003L731.949018,423.770091L732.082881,422.635387L732.653039,420.224397L733.414947,418.419514L734.043506,415.958911L733.928574,410.088175L722.389044,394.673551L716.727772,388.527526L714.656866,387.037765L713.238832,386.246251L711.174253,386.033385L696.646622,390.479470L680.340208,392.766692L676.651414,391.504877L667.987107,392.603015L664.355899,392.514701L651.056826,398.160546L648.654599,398.198104L647.476888,398.022714L647.115595,397.506231L645.689089,396.483284L643.334027,395.523478L633.677987,393.055904L628.091038,389.562836L624.570273,388.177464L619.860263,388.361638L615.991253,389.288326L601.818101,397.096568L599.855330,398.761559L598.768471,400.151807L598.260381,401.126242L597.735069,402.562667L595.905743,406.145255L591.048661,408.826670L583.159389,415.664475L580.830338,416.513332L578.402223,416.915763L577.153205,416.426960L575.223509,415.192218L569.870681,411.170337L565.718700,406.199766L553.824847,397.858067L548.988857,395.619928L545.529470,394.712022L539.593013,394.518092L526.083072,392.250500L523.182886,392.180817L510.758711,389.489526L505.458537,388.123687L502.988134,388.384045L500.966523,388.978777L497.776138,392.368614L494.802819,394.917502L487.937383,398.623297L482.791244,399.973881L472.805179,400.958394L468.792023,400.690969L466.263275,400.094104L464.003166,398.959301L453.100259,392.498252L446.577394,390.669330L442.279130,390.377529L434.020371,388.652150L427.813039,385.853286L422.420740,382.641830L420.681610,381.960169L419.460584,381.897592L418.853018,382.238240L418.459300,382.783854L418.291430,383.291028L418.211660,383.951999L418.065649,384.493827L417.635371,385.177393L417.177576,385.669541L415.475815,386.828411L416.000793,390.571247L417.136045,392.075065L418.942345,393.443487L430.573355,396.864819L431.752672,398.365544L431.662522,400.414232L430.152238,404.570611L429.854027,406.039618L429.718947,407.441883L429.728953,408.281929L429.866205,409.203380L430.369997,411.083434L431.342256,412.738683L432.716393,414.419536L433.936380,416.591962L436.721070,419.014915L438.124692,419.959911L439.856620,421.727789L440.989691,423.735678L441.732766,426.396111L442.141904,428.998231L443.170813,432.068028L444.653331,433.940862L451.050177,440.288333L459.524788,451.188759L460.373830,452.684486L460.316914,453.355087L460.208533,453.774546L459.979460,454.300018L459.580209,454.730904L459.106743,454.860888L458.018965,454.711114L453.095555,451.307806L451.663148,450.836554L450.113359,451.098709L444.796499,453.681134L432.903929,455.927217L430.109389,457.462240L429.796051,460.870697L429.277798,463.228495L428.381655,466.085975L424.236397,475.003738L423.700277,476.531555L423.683391,476.579667L424.752898,477.020188L427.262319,478.787828L428.517464,479.289197L429.779289,479.202916L431.900312,478.280158L432.950100,478.099984L434.122899,478.448371L434.122958,478.448389L437.531498,479.460043L445.354774,484.174299L476.902256,485.207889L488.022849,487.310632L496.790016,492.221975L499.674055,493.243063L505.106712,493.281934L518.680813,489.740906L524.604990,490.512419L532.775857,489.536283L533.723266,489.852193L535.727037,491.937473L536.788842,492.612511L542.510973,492.557865L559.041340,497.086951L561.081612,497.200469L563.160982,496.683513L565.206228,496.755460L574.198082,498.483191L576.032622,498.371077L584.692122,496.489248L588.786309,496.958623L601.395432,502.160698L603.621433,502.317127L605.775609,501.809586L608.112890,501.258353L610.480600,501.192968L612.713158,501.732243L614.741490,502.621566L622.663548,508.765032L624.122856,509.080178L624.386839,509.137163L636.857929,508.805417L653.020443,508.353521L657.500026,507.091810L658.951954,507.332137L659.645074,508.214457L660.140011,509.290728L660.944109,510.156395L663.311208,511.090963L665.218200,511.843370L667.494150,512.064729L672.078749,510.679142L674.065965,513.111172L675.781444,516.370158L677.675171,518.138039Z " data-code="at-ka" data-name="Kärnten"/>
    <path d="M671.252558,85.302159L669.373201,87.439900L667.240540,87.429855L666.145800,86.214698L665.270163,84.423193L663.766980,82.665141L662.914278,82.529909L660.981088,83.342886L659.972830,83.292961L659.508169,82.494960L659.414486,81.192695L659.177403,79.954945L658.304777,79.273038L656.326042,79.555608L652.569290,81.658694L650.659938,82.209663L649.115304,81.927298L643.799308,79.527693L640.484086,76.054338L638.680454,77.468663L636.242027,85.352277L634.323103,87.578354L627.773373,90.873535L625.289446,93.120171L624.297085,93.582680L623.062192,93.795427L609.972308,89.975745L591.539359,88.923870L587.043221,87.311919L585.908594,86.399957L583.527340,83.730413L582.908708,82.689239L582.164108,80.053586L582.373879,79.474900L583.093288,79.162886L583.861969,77.287539L584.233662,76.983894L584.867429,77.071554L585.444730,76.858180L585.618573,75.622616L585.220327,74.448159L584.416979,73.943986L583.503489,73.628059L582.816528,73.046605L581.902834,71.484079L579.578003,68.294072L578.378597,67.121412L569.446952,62.787833L566.498332,60.580200L564.057429,58.862347L561.536556,57.644560L556.283645,56.514873L552.850882,64.855331L552.652537,66.729635L553.306706,66.453444L554.819045,69.102492L555.489677,69.666305L557.143260,70.362502L555.507354,72.097141L555.293491,74.448522L556.297853,80.730265L556.372772,84.019461L556.116534,86.859358L555.446263,89.466887L553.473490,94.399509L552.905528,95.355181L551.890001,96.475136L550.882905,96.971435L548.216975,97.540268L547.770589,97.461177L546.785820,99.744187L545.896713,105.021311L545.600762,104.737084L540.175734,102.598022L538.045091,99.642539L535.868191,98.178196L533.548245,97.064790L519.956573,93.944401L515.652767,94.733375L511.502222,96.521295L510.389180,97.656480L509.743537,99.048613L509.856661,99.752481L510.285461,100.614029L510.971362,104.117680L512.263704,105.947250L512.624989,107.652611L512.352400,109.574656L510.783845,113.359472L510.250912,115.181977L510.094103,117.012507L510.591433,122.525508L510.417658,124.574609L509.903241,125.945444L509.359837,126.983298L509.151667,128.005782L508.605146,132.188949L506.933340,135.319204L494.730592,147.028891L490.470767,149.672549L472.682493,153.580377L459.413093,159.516605L457.374983,161.103122L452.717746,165.968979L448.610031,168.486743L446.654569,170.204375L446.848152,170.662569L439.681805,172.354754L437.755441,173.487197L436.619919,174.837049L434.379072,178.699647L432.755134,180.725787L427.700554,184.571574L427.198750,185.238370L425.446444,188.235004L424.663773,188.628586L423.811976,188.619651L422.985902,188.938767L422.241734,190.373639L422.083114,193.022182L422.840502,195.576217L424.089771,197.889267L425.377744,199.775486L434.948786,209.096026L437.077659,213.389288L437.504625,215.480429L440.074502,214.322550L446.115385,212.351504L447.685294,211.277348L448.016538,210.403586L448.893639,207.412131L450.445428,206.079985L452.848798,205.230190L458.378602,204.694677L461.688976,205.021371L465.012735,206.814913L468.994595,210.722197L469.669127,211.139891L470.290463,211.417963L475.520683,213.017610L480.543878,213.377698L488.040339,212.155058L496.792001,207.640418L500.882181,210.335884L502.251532,210.953526L503.464876,211.714720L504.643059,213.044602L504.589219,214.556294L503.456325,216.045385L501.630872,216.613048L499.714568,216.515880L496.150309,215.640161L495.223298,215.832840L494.577965,216.418240L494.153371,217.399084L493.799979,219.075677L493.577974,221.430201L493.494306,226.938852L493.729439,229.511421L494.207255,232.042996L496.189099,239.107170L496.815159,240.821859L498.087734,242.396644L500.213369,243.730998L524.193031,247.960172L527.399958,250.626622L525.886222,252.733699L523.785964,253.226677L518.635547,253.697887L517.772649,254.466908L517.570522,255.398021L518.269356,256.824665L518.728369,257.477219L519.471157,258.081234L520.750095,258.792149L523.542740,259.832871L526.823672,260.090252L527.888500,261.879111L528.619516,263.516391L524.499493,278.610729L526.863535,282.330029L527.331215,284.010139L527.037515,286.049954L526.373949,287.630849L524.509536,291.151705L523.892538,293.753405L524.288643,296.693131L525.441628,299.293840L530.332992,303.877736L538.166784,308.370577L550.524663,310.166034L551.721874,309.454046L553.321011,308.985628L553.713874,308.206442L556.876615,305.183218L557.398644,304.534265L557.785225,303.638684L558.173144,301.532209L557.981952,298.922489L557.209308,295.753908L555.851269,293.176571L554.749253,291.619950L552.973020,289.822820L551.425574,287.943288L550.264497,285.994010L549.715096,283.979296L549.539535,282.067890L549.576492,278.226115L549.783745,275.774203L550.382679,272.968748L551.928115,270.699343L554.048003,268.755941L567.740173,261.018217L569.172700,260.651551L570.365467,260.793436L573.664034,262.529700L575.483682,263.191087L579.477741,263.719312L583.000736,264.873590L585.023326,265.223799L590.779876,264.119818L597.121454,270.876188L598.791011,274.516264L599.076536,276.016094L599.831510,277.865675L600.645047,277.761079L603.195987,275.707816L609.518116,273.625430L614.295735,271.046666L616.066216,270.492596L617.305721,270.697510L625.012574,275.476835L627.950188,276.598536L630.669977,277.240172L634.535516,277.014836L637.703845,275.829597L643.347612,270.971958L646.538487,268.819366L650.615164,267.363871L652.808165,266.028183L654.173188,264.543311L654.581286,263.145361L655.890637,261.080530L674.360805,252.341895L682.316871,245.057288L684.234680,240.110993L684.316729,237.722760L684.154909,233.179557L685.469449,225.836527L687.592263,222.306273L687.422310,218.640735L686.415316,217.213134L684.909775,215.629036L682.036092,213.658485L679.109575,212.238080L674.905065,211.210041L667.840080,208.225583L645.801647,193.495261L643.259665,190.821088L643.368282,189.907361L644.363121,189.554970L644.954726,189.140020L645.505833,188.499305L647.145116,184.980987L647.267953,184.314739L647.187676,183.305642L647.278424,182.783225L647.417424,182.389753L648.830909,180.562309L649.466685,179.313068L649.442574,178.569314L649.187592,178.036956L648.810721,177.501678L648.541934,176.736940L647.626378,171.245419L647.802588,170.119758L648.374012,168.484024L648.615428,166.756302L648.915388,158.896346L649.090797,157.654090L649.267166,157.217786L649.486897,156.829593L649.824634,156.383678L650.726474,155.554357L651.505786,155.046561L653.171246,153.456600L659.040526,153.215053L661.334769,153.877125L663.360204,155.102605L665.179422,156.918270L669.049205,161.857839L671.389189,163.757199L674.159037,164.407588L692.517580,158.716706L694.224364,157.111869L695.940931,154.202816L697.756893,152.220091L700.055394,151.027392L706.459459,150.287553L707.922913,150.577516L709.585726,151.432385L711.695920,153.637129L711.488661,149.278963L711.259157,132.374955L709.109403,122.798966L708.330334,121.095314L705.786123,119.354970L704.647903,113.105209L701.377582,112.146684L698.136071,108.218651L697.424754,106.276736L697.325509,104.548816L697.476863,103.367599L697.375246,101.604336L697.450148,100.899675L697.673516,100.515035L698.148067,100.377834L701.111651,100.408695L701.491652,100.059414L701.558937,99.243624L701.224352,97.216586L699.820509,95.157615L697.896153,93.750900L695.694614,93.127490L690.962391,92.792868L686.664831,90.861536L682.320319,89.321902L674.073510,87.974162L671.587649,85.867748L671.252558,85.302159Z " data-code="at-oo" data-name="Oberösterreich"/>
    <path d="M538.166784,308.370577L530.332992,303.877736L525.441628,299.293840L524.288643,296.693131L523.892538,293.753405L524.509536,291.151705L526.373949,287.630849L527.037515,286.049954L527.331215,284.010139L526.863535,282.330029L524.499493,278.610729L528.619516,263.516391L527.888500,261.879111L526.823672,260.090252L523.542740,259.832871L520.750095,258.792149L519.471157,258.081234L518.728369,257.477219L518.269356,256.824665L517.570522,255.398021L517.772649,254.466908L518.635547,253.697887L523.785964,253.226677L525.886222,252.733699L527.399958,250.626622L524.193031,247.960172L500.213369,243.730998L498.087734,242.396644L496.815159,240.821859L496.189099,239.107170L494.207255,232.042996L493.729439,229.511421L493.494306,226.938852L493.577974,221.430201L493.799979,219.075677L494.153371,217.399084L494.577965,216.418240L495.223298,215.832840L496.150309,215.640161L499.714568,216.515880L501.630872,216.613048L503.456325,216.045385L504.589219,214.556294L504.643059,213.044602L503.464876,211.714720L502.251532,210.953526L500.882181,210.335884L496.792001,207.640418L488.040339,212.155058L480.543878,213.377698L475.520683,213.017610L470.290463,211.417963L469.669127,211.139891L468.994595,210.722197L465.012735,206.814913L461.688976,205.021371L458.378602,204.694677L452.848798,205.230190L450.445428,206.079985L448.893639,207.412131L448.016538,210.403586L447.685294,211.277348L446.115385,212.351504L440.074502,214.322550L437.504625,215.480429L437.561822,215.760515L438.344431,217.781078L439.460163,219.292625L442.674471,221.062243L445.421928,223.694666L446.500754,224.224699L448.794311,226.312004L453.651087,236.489795L456.655874,240.623286L457.291159,241.215597L449.362872,255.190884L448.703267,256.755967L448.493962,258.009722L448.502439,259.265081L448.322195,260.568325L447.533711,261.986448L447.534107,261.996559L447.507710,262.017842L445.208255,265.904671L447.442621,268.010194L454.828771,269.091850L456.787751,268.674660L460.061142,267.070097L462.114612,267.316456L463.796986,268.483861L465.496089,270.384561L468.249139,274.697784L469.414260,277.495818L469.885254,279.988095L469.901486,282.367403L469.712883,284.744996L469.403371,285.183057L467.995433,289.124609L467.935818,289.668865L465.923543,292.556180L465.563682,292.439150L465.853566,296.873271L466.135486,296.750412L465.996975,297.039608L464.870753,300.260225L464.563989,300.784078L464.702239,304.191371L464.860676,305.400229L465.204538,306.459792L465.668476,307.443586L466.058165,308.617734L466.165346,310.243884L462.576509,314.885412L461.693092,315.720953L460.274483,315.843619L459.434312,315.370840L458.665308,314.621733L457.367365,313.989806L455.988952,314.084979L454.919455,314.724746L453.814318,315.158202L452.342568,314.623637L445.675873,309.971756L439.384732,303.534575L438.231246,302.677156L436.972360,302.279272L434.925440,302.002032L431.564960,299.485022L430.688928,294.682625L432.128237,290.087544L435.659326,288.162650L432.947067,285.723057L429.442478,283.585665L427.277275,281.114230L428.512124,277.646073L426.262794,278.022880L418.799893,276.381608L414.103061,276.550289L409.446169,277.849386L406.985192,279.201365L402.515651,283.494306L406.124625,289.290427L408.931820,291.687954L413.694337,294.698839L414.949807,296.010860L415.433977,296.945324L415.323330,297.860530L414.804566,299.397795L414.984856,301.001242L415.598535,303.257469L418.393279,309.698120L418.745079,310.920733L418.486462,311.714737L417.903061,313.178532L417.057548,314.778240L414.592647,318.177085L413.293828,320.531669L410.698719,326.728528L409.825305,328.186779L408.801568,329.467956L407.687689,330.529418L406.356851,331.466661L404.859256,332.146248L398.366968,333.057005L397.065270,333.470617L396.095455,333.974123L395.369665,335.010975L394.463949,336.818177L393.372560,340.463954L392.121147,342.626677L390.551239,344.303705L388.895610,345.269564L386.377288,346.298837L382.073088,347.071468L380.074970,347.024442L378.268285,346.525487L375.227527,344.961889L373.655066,344.692637L371.731354,345.031422L367.166637,348.038128L352.482179,353.805166L348.403695,353.772475L346.556953,354.240912L342.928116,356.258020L343.329010,360.204388L341.694158,367.958895L341.446159,370.855792L341.561149,374.435782L341.937682,376.560902L342.675852,378.574533L343.515333,379.785584L345.774073,381.522827L346.815670,382.560818L347.987566,385.244894L348.505173,387.193679L349.088610,394.510462L349.003136,395.368276L348.993010,395.469889L355.283731,394.035588L358.455661,395.024529L358.489836,397.506089L362.106921,395.426285L373.808152,389.620095L381.476166,381.683057L383.691948,380.589193L386.400779,380.065960L389.585305,379.992074L394.184411,378.989357L397.734183,378.936211L401.642529,380.114942L405.200707,380.291839L407.778857,380.790071L410.120085,381.989480L415.475815,386.828411L417.177576,385.669541L417.635371,385.177393L418.065649,384.493827L418.211660,383.951999L418.291430,383.291028L418.459300,382.783854L418.853018,382.238240L419.460584,381.897592L420.681610,381.960169L422.420740,382.641830L427.813039,385.853286L434.020371,388.652150L442.279130,390.377529L446.577394,390.669330L453.100259,392.498252L464.003166,398.959301L466.263275,400.094104L468.792023,400.690969L472.805179,400.958394L482.791244,399.973881L487.937383,398.623297L494.802819,394.917502L497.776138,392.368614L500.966523,388.978777L502.988134,388.384045L505.458537,388.123687L510.758711,389.489526L523.182886,392.180817L526.083072,392.250500L539.593013,394.518092L545.529470,394.712022L548.988857,395.619928L553.824847,397.858067L565.718700,406.199766L569.870681,411.170337L574.648219,404.333508L579.858238,393.383222L581.174062,389.561443L581.749219,387.322847L581.279959,383.415179L581.380703,380.942521L582.404386,379.131738L586.125306,375.119153L588.538546,371.710368L588.722317,369.684143L587.618664,368.059401L583.496461,365.430605L578.813788,360.011954L577.671518,358.256556L576.927733,356.217248L576.493868,354.587683L575.721962,352.798014L572.569397,348.378129L570.181316,344.086061L568.376307,343.021911L566.394231,343.759830L564.486305,345.162399L560.779457,345.762272L558.626297,346.811087L556.842230,348.388415L555.042924,349.104932L553.042688,348.665766L550.701229,347.138450L546.331724,343.418838L542.512831,336.368434L537.957169,323.384704L536.355525,316.490524L536.468529,314.975649L537.239696,311.322280L538.166784,308.370577Z " data-code="at-sz" data-name="Salzburg"/>
    <path d="M397.734183,378.936211L394.184411,378.989357L389.585305,379.992074L386.400779,380.065960L383.691948,380.589193L381.476166,381.683057L373.808152,389.620095L362.106921,395.426285L358.489836,397.506089L358.526695,400.184986L355.802137,404.127678L347.854533,408.884221L346.545937,412.353244L347.484474,414.269801L348.128154,416.488322L349.072384,420.980726L350.005093,423.135139L350.983885,424.959167L351.021895,426.749725L349.116458,428.758455L350.542392,429.294219L353.709225,429.768864L355.223642,430.478557L356.789602,431.991259L357.558398,433.198403L358.402068,434.124901L360.246949,434.748160L365.879364,434.775759L368.039082,436.172613L369.400673,440.412862L369.515908,442.818591L369.185688,444.245950L368.728961,445.616436L368.438273,447.892878L368.487709,450.422096L368.846587,451.737209L369.631668,452.482471L370.947453,453.353049L373.778410,454.348549L376.574257,454.645905L378.849494,456.016861L380.162113,460.262556L382.897748,466.462148L387.675419,470.428819L393.199854,472.485909L396.440894,472.947631L396.440911,472.947634L400.526379,473.528170L404.770719,476.219568L407.027738,477.215824L409.005234,477.340402L416.783476,476.037452L423.441248,476.479910L423.683391,476.579667L423.700277,476.531555L424.236397,475.003738L428.381655,466.085975L429.277798,463.228495L429.796051,460.870697L430.109389,457.462240L432.903929,455.927217L444.796499,453.681134L450.113359,451.098709L451.663148,450.836554L453.095555,451.307806L458.018965,454.711114L459.106743,454.860888L459.580209,454.730904L459.979460,454.300018L460.208533,453.774546L460.316914,453.355087L460.373830,452.684486L459.524788,451.188759L451.050177,440.288333L444.653331,433.940862L443.170813,432.068028L442.141904,428.998231L441.732766,426.396111L440.989691,423.735678L439.856620,421.727789L438.124692,419.959911L436.721070,419.014915L433.936380,416.591962L432.716393,414.419536L431.342256,412.738683L430.369997,411.083434L429.866205,409.203380L429.728953,408.281929L429.718947,407.441883L429.854027,406.039618L430.152238,404.570611L431.662522,400.414232L431.752672,398.365544L430.573355,396.864819L418.942345,393.443487L417.136045,392.075065L416.000793,390.571247L415.475815,386.828411L410.120085,381.989480L407.778857,380.790071L405.200707,380.291839L401.642529,380.114942L397.734183,378.936211Z M358.152918,276.485957L357.365981,274.348511L357.760163,272.970042L358.568307,271.771355L358.983870,270.209971L359.260355,268.111219L359.641131,267.203778L359.316683,267.279437L357.424349,268.181998L356.303334,268.934493L353.212644,271.679110L351.155792,272.590423L351.461828,274.180731L351.915967,275.250397L352.920802,276.506144L354.028446,277.546161L354.709131,277.976294L355.109125,279.042394L355.484122,284.264591L355.402839,286.099230L354.963323,287.362524L351.345092,292.318704L350.301556,292.567083L319.951925,292.088942L308.937273,294.641627L307.473134,295.569341L306.233803,298.930373L304.880714,299.419701L297.406568,298.070334L286.654062,298.279924L280.870013,297.258796L278.426127,297.232886L277.988620,297.809415L274.375605,301.097676L273.520409,303.191088L272.582061,307.745427L271.952351,309.570643L269.606124,312.303213L266.761239,313.507578L260.578852,314.669219L257.566590,313.779667L254.305399,313.400220L251.313223,314.168077L245.219690,321.486519L246.855635,321.900359L248.309991,322.818388L248.844454,324.265209L247.746776,326.229472L245.616534,327.196425L239.872273,327.441447L237.423810,328.275989L234.908146,330.709999L233.198666,333.108704L231.345496,335.175729L228.479357,336.551815L225.295781,336.242663L225.491749,330.916680L222.638645,329.801661L219.314382,330.773136L210.758541,336.922131L208.182348,337.756722L194.359056,337.759458L192.494787,336.703032L191.102127,334.071399L191.416765,334.046797L191.828658,333.140528L192.110902,331.780722L192.051448,330.466157L191.642101,329.581442L184.936602,322.529081L178.085439,319.450805L177.163527,317.909260L181.390909,314.936290L182.480308,313.576397L179.417359,311.324161L178.000056,310.542817L176.167906,310.439312L174.302963,310.998622L169.003764,313.510839L165.101001,314.031504L163.962869,313.700371L163.296492,312.776999L162.847932,311.770215L162.308219,311.159026L144.799434,304.721559L141.604180,304.710666L139.786085,306.006941L137.142252,309.778789L135.473615,311.148874L133.918444,311.435152L128.282843,310.620668L126.212750,309.685562L125.127831,308.924820L124.424516,308.029608L124.179858,306.351912L124.662154,305.103870L125.296792,304.158187L125.454814,303.388064L124.854100,301.566357L124.387313,301.205606L123.380248,301.612685L121.171922,302.028287L119.198147,302.826257L119.401028,304.514470L120.563174,306.666420L121.452840,308.850545L121.301871,310.662657L120.017792,318.477386L121.884448,319.480973L123.028538,320.737394L123.752330,322.457138L124.317388,324.876122L124.375909,329.074476L123.203704,333.484228L121.301366,337.458939L119.116445,340.413367L117.984499,341.190035L115.195687,342.184903L113.831282,343.119443L113.044180,344.353705L110.133164,350.315640L107.765558,353.546954L105.185975,355.939145L99.262745,359.627657L96.371776,360.769676L87.821491,361.855536L90.036184,367.474987L91.659848,376.260240L91.771126,378.192185L91.525881,383.646471L89.564192,388.515907L84.423182,396.396400L83.071810,400.058465L81.546784,407.874062L81.308378,410.940369L81.460845,413.312384L81.883639,416.037624L81.952603,418.141795L81.611607,421.552428L80.770036,423.983261L79.318950,425.990952L77.686189,427.472860L75.971903,429.642705L75.541004,431.308143L75.857125,433.234638L78.899255,438.213859L81.332973,444.590348L81.459236,445.126157L81.478388,445.207428L82.386742,445.239331L85.843033,444.240931L91.670280,441.238624L93.031260,439.234670L93.384382,437.735777L93.487844,436.086203L94.112968,433.604713L96.129287,430.160763L98.297006,429.745835L100.898433,430.415880L104.228176,430.241635L104.277572,426.583931L106.587068,422.079075L109.933431,418.184741L113.798201,415.930140L114.528705,415.778795L115.274880,415.920705L115.981716,416.376460L115.995517,416.376370L115.995715,416.406721L117.385739,417.884825L120.205135,422.367957L124.774971,425.957381L125.973611,427.375063L126.716896,430.672864L125.107473,437.337164L125.456434,441.513124L129.828050,445.015890L135.382648,445.588105L148.964735,441.707014L151.327866,441.420855L153.394665,441.946580L163.700310,447.989296L165.023592,449.952636L164.387883,451.315531L161.436882,453.771173L160.823985,454.744056L161.645937,456.450148L163.087312,456.484994L165.903495,455.558224L167.460938,456.061646L171.337969,458.212306L172.654921,458.247306L175.195677,457.488258L176.567605,457.491742L177.780766,458.104102L180.091751,460.043192L181.471018,460.597387L182.800227,460.479189L187.256665,458.903169L189.552597,458.548612L194.228696,458.944768L196.512064,459.676587L198.420655,459.381221L200.262809,457.376452L203.193150,452.173000L203.739281,451.638726L205.210898,450.943843L205.782956,450.302825L206.003568,449.317995L205.820707,447.286919L205.920177,446.536643L208.346937,440.463965L209.651655,433.558118L210.720133,431.133280L219.230420,422.365824L221.595499,420.889854L230.793328,417.717243L240.122633,415.981046L244.903370,416.934156L249.096754,418.888150L253.186835,419.015942L257.640016,414.520257L257.653408,414.499749L258.643773,412.956765L259.811884,412.027375L261.143702,411.691569L263.500361,412.204756L264.380046,412.697583L265.167866,413.414891L265.891340,414.351064L267.023405,415.015497L268.242401,415.212457L269.493192,414.953200L270.734432,414.248715L270.748230,414.248420L270.775394,414.227600L270.789192,414.227305L274.641679,413.005749L277.808233,412.637871L284.710311,413.890145L284.779297,413.888579L284.946013,413.935393L285.955295,414.003488L286.959270,413.838837L289.504037,414.043329L293.898325,417.158970L296.419003,418.050578L297.956321,417.654563L300.526786,415.441969L301.980190,414.455307L308.013275,413.334972L312.528225,409.547393L318.116852,406.327128L323.949848,404.129680L333.448328,403.418165L346.753120,395.979579L348.993010,395.469889L349.003136,395.368276L349.088610,394.510462L348.505173,387.193679L347.987566,385.244894L346.815670,382.560818L345.774073,381.522827L343.515333,379.785584L342.675852,378.574533L341.937682,376.560902L341.561149,374.435782L341.446159,370.855792L341.694158,367.958895L343.329010,360.204388L342.928116,356.258020L346.556953,354.240912L348.403695,353.772475L352.482179,353.805166L367.166637,348.038128L371.731354,345.031422L373.655066,344.692637L375.227527,344.961889L378.268285,346.525487L380.074970,347.024442L382.073088,347.071468L386.377288,346.298837L388.895610,345.269564L390.551239,344.303705L392.121147,342.626677L393.372560,340.463954L394.463949,336.818177L395.369665,335.010975L396.095455,333.974123L397.065270,333.470617L398.366968,333.057005L404.859256,332.146248L406.356851,331.466661L407.687689,330.529418L408.801568,329.467956L409.825305,328.186779L410.698719,326.728528L413.293828,320.531669L414.592647,318.177085L417.057548,314.778240L417.903061,313.178532L418.486462,311.714737L418.745079,310.920733L418.393279,309.698120L415.598535,303.257469L414.984856,301.001242L414.804566,299.397795L415.323330,297.860530L415.433977,296.945324L414.949807,296.010860L413.694337,294.698839L408.931820,291.687954L406.124625,289.290427L402.515651,283.494306L401.297381,284.663458L399.271386,285.649214L396.510172,286.289991L393.795938,286.310859L391.911872,285.457888L387.882369,282.423249L386.777476,281.179099L386.002619,279.600016L384.489843,275.473670L383.840205,274.366162L381.662096,274.012056L376.553874,276.171289L374.332792,276.606623L366.671363,275.217640L363.811857,275.721119L360.918531,277.353524L359.495503,277.614466L358.152918,276.485957Z " data-code="at-tr" data-name="Tirol"/>
    <path d="M706.121861,0.000000L703.339577,0.549307L702.950771,0.899549L702.796066,1.569041L702.856839,2.477883L703.046928,3.530334L701.573541,7.765680L701.891468,13.333394L702.820446,19.276763L703.167372,24.680328L701.258728,37.098718L700.491701,39.623759L700.369279,41.001021L700.703457,42.216552L701.364279,43.725110L702.019811,44.949991L702.322552,45.285136L701.072863,48.805377L698.481090,49.218041L691.649677,46.912429L684.871830,46.414293L682.977869,47.285445L682.339076,49.192043L681.972608,51.598490L680.828586,53.973079L680.415510,57.751414L674.015431,64.157602L671.827000,68.279511L671.692743,73.586199L672.135584,79.556620L671.801021,84.678040L671.252558,85.302159L671.587649,85.867748L674.073510,87.974162L682.320319,89.321902L686.664831,90.861536L690.962391,92.792868L695.694614,93.127490L697.896153,93.750900L699.820509,95.157615L701.224352,97.216586L701.558937,99.243624L701.491652,100.059414L701.111651,100.408695L698.148067,100.377834L697.673516,100.515035L697.450148,100.899675L697.375246,101.604336L697.476863,103.367599L697.325509,104.548816L697.424754,106.276736L698.136071,108.218651L701.377582,112.146684L704.647903,113.105209L705.786123,119.354970L708.330334,121.095314L709.109403,122.798966L711.259157,132.374955L711.488661,149.278963L711.695920,153.637129L709.585726,151.432385L707.922913,150.577516L706.459459,150.287553L700.055394,151.027392L697.756893,152.220091L695.940931,154.202816L694.224364,157.111869L692.517580,158.716706L674.159037,164.407588L671.389189,163.757199L669.049205,161.857839L665.179422,156.918270L663.360204,155.102605L661.334769,153.877125L659.040526,153.215053L653.171246,153.456600L651.505786,155.046561L650.726474,155.554357L649.824634,156.383678L649.486897,156.829593L649.267166,157.217786L649.090797,157.654090L648.915388,158.896346L648.615428,166.756302L648.374012,168.484024L647.802588,170.119758L647.626378,171.245419L648.541934,176.736940L648.810721,177.501678L649.187592,178.036956L649.442574,178.569314L649.466685,179.313068L648.830909,180.562309L647.417424,182.389753L647.278424,182.783225L647.187676,183.305642L647.267953,184.314739L647.145116,184.980987L645.505833,188.499305L644.954726,189.140020L644.363121,189.554970L643.368282,189.907361L643.259665,190.821088L645.801647,193.495261L667.840080,208.225583L674.905065,211.210041L679.109575,212.238080L682.036092,213.658485L684.909775,215.629036L686.415316,217.213134L687.422310,218.640735L687.592263,222.306273L685.469449,225.836527L684.154909,233.179557L684.316729,237.722760L684.234680,240.110993L682.316871,245.057288L687.112632,248.439730L700.782120,247.505054L701.541540,247.872363L702.848041,249.117401L707.031761,252.165232L709.791864,252.362303L713.079893,251.347730L716.194807,249.156594L721.317091,246.528062L723.922702,245.640936L725.890857,245.419283L728.116197,245.682276L729.384170,245.587674L733.353380,244.115043L739.857874,241.064286L744.832218,239.589822L746.176434,238.630547L747.354986,237.048304L747.965934,235.535270L751.250700,230.652361L756.734647,231.109947L757.613182,231.018438L765.506979,228.472326L768.165724,228.533549L770.340791,229.257521L776.219706,233.974552L787.433131,238.506742L792.766405,241.823784L801.678899,241.941490L804.586126,244.639845L806.315958,246.714364L808.262897,247.848760L810.872243,248.984174L812.403621,249.204782L813.686125,249.108809L814.749101,248.815956L816.482999,249.005543L817.472491,249.819405L818.202398,251.170492L819.410155,256.764598L820.047007,258.955100L821.240302,261.453822L822.548232,262.212824L823.948135,262.020536L828.170113,259.232568L829.838197,258.800697L830.901096,259.298171L831.633937,260.034034L832.545738,261.497324L832.799170,262.127705L833.107905,263.210739L833.247159,264.489523L833.213760,265.923688L832.764198,267.816169L832.668417,268.706829L833.091578,269.943564L833.971531,270.358396L834.987766,270.498708L838.169991,270.253858L841.820064,272.601663L843.659088,275.576407L845.619470,279.922463L856.511129,280.928350L859.885608,282.459448L861.203384,283.528101L862.279080,283.874443L863.222637,283.850329L864.473639,283.298957L867.438952,281.483343L868.092963,281.695163L868.588254,282.234485L869.048184,283.101623L869.551830,284.513699L869.784340,285.876371L870.017309,286.731181L871.005290,288.795080L872.629005,291.513801L877.487214,295.119547L885.091076,294.645268L888.392937,293.745994L891.544448,291.689722L893.550137,289.808020L899.828435,281.832253L899.890376,279.856176L899.773262,277.458106L898.845700,275.198434L898.206325,272.447486L898.258849,268.135546L898.827028,265.832972L899.894751,263.371953L900.625657,262.046234L904.244697,253.240178L899.873527,247.550006L894.994876,242.682806L892.694852,239.398856L891.457970,237.073106L890.530372,225.141816L894.993323,224.228404L896.430271,222.828774L897.885062,220.833065L898.510134,219.023246L898.827154,216.710791L898.456098,209.121859L900.119591,205.111655L901.978393,202.710284L907.888018,197.253549L911.545343,195.815402L916.095512,195.127748L925.523331,197.381579L930.397284,194.316915L932.707545,191.503857L936.939106,187.912171L938.610393,186.058019L939.717159,183.511170L941.122461,178.437349L944.097102,175.465827L946.757230,173.934132L948.245778,173.502073L949.802232,173.602514L955.067433,170.489174L959.993161,166.132507L962.871541,164.439145L965.512848,163.874614L967.634921,164.607198L971.898441,167.381055L974.063019,168.266161L975.549089,167.159008L976.310353,165.258871L976.345074,163.649049L975.802962,162.183667L975.595827,160.819743L975.833206,157.879586L977.379260,155.902113L978.290589,155.421689L979.732418,155.985450L980.912557,156.649450L982.475123,156.830535L983.575329,156.413513L984.438617,155.855601L985.893664,154.012167L985.894001,154.011740L983.612765,150.628525L982.160264,149.873139L980.047922,149.742875L978.159308,148.808570L974.548293,145.500172L973.341282,142.545098L972.937629,138.316446L971.994898,134.843927L969.324235,128.021497L969.184750,127.093701L969.153342,124.844331L968.954737,124.008374L968.410148,123.376910L967.580679,123.173085L966.026595,121.993095L964.797661,121.556039L963.747615,121.005981L963.213668,119.895448L962.971683,119.022711L962.454037,117.941177L961.922608,117.003224L961.536631,116.621418L960.937362,116.269127L961.088035,115.259054L961.493485,114.083492L961.708637,113.189549L960.978079,111.695216L959.517205,110.328107L958.049206,109.322404L957.273740,108.955407L954.639338,108.913806L953.580424,108.394195L953.072426,107.255558L952.958203,105.105462L953.105012,104.197581L953.373321,103.588824L953.595859,102.328436L953.797698,91.808060L954.077963,88.971638L955.146883,86.226506L958.076248,81.029829L958.518601,78.371541L959.310044,76.443986L961.284684,74.520280L963.197263,72.078131L963.382752,71.055625L963.838472,68.542003L961.796906,59.526865L956.872894,54.739856L953.904515,41.985623L950.468012,37.966277L948.340981,37.996028L943.559078,40.205981L941.114869,40.730262L938.669326,40.054522L933.740376,37.373129L931.713708,36.872048L926.843138,37.506130L924.764984,37.323304L922.972212,36.281575L921.837605,34.053691L921.111017,31.291948L919.893933,29.030524L917.350150,28.246859L914.949486,28.171692L907.082295,26.597839L904.769698,25.374559L903.553681,25.072727L902.386794,25.335584L900.150313,26.523186L898.828486,26.697256L895.078984,26.468434L892.977664,28.150843L887.415580,39.919316L886.119233,41.359331L884.149445,42.124145L883.412028,41.952291L881.593012,40.702555L878.955661,41.329100L878.820506,41.472431L860.615565,40.281093L848.791770,41.958937L841.733656,39.537625L828.054047,31.113332L827.791406,30.159122L827.684276,28.806883L826.940935,28.022301L824.808560,28.757541L824.513320,26.709230L823.488484,25.905777L822.037129,25.957848L820.448110,26.467137L821.624714,24.619210L820.555415,24.773364L819.565930,24.413553L818.078739,23.493155L815.609907,23.501195L814.705076,23.195316L813.990363,22.245259L813.285909,19.883164L812.499179,19.375135L808.574107,19.686273L807.481048,20.043919L803.104286,22.813592L800.994208,23.663827L798.035222,23.887331L795.103615,23.417633L784.715319,18.518461L776.854503,16.101404L776.853341,16.101046L773.826368,15.168335L767.084912,10.117353L764.212884,8.731601L758.375809,7.212634L751.989325,4.501598L749.070103,3.886313L743.065819,4.237552L742.398636,3.837817L741.800265,2.905635L741.094257,2.143282L740.115142,2.221762L739.655059,3.055366L739.522490,5.702538L739.171246,6.761875L737.546646,9.025722L736.913923,9.495747L727.317536,12.814616L724.768956,12.937793L725.424830,10.093169L725.294366,7.434016L724.567830,4.815508L723.437355,2.123034L713.410764,1.978726L706.121861,0.000000Z M907.082804,125.908881L907.510772,126.410928L907.606108,126.341824L907.892578,125.433319L908.613709,123.928775L911.030474,123.305294L912.493832,124.460174L913.315679,126.000281L914.792600,127.382380L915.339058,128.778391L916.039129,131.243446L917.110233,132.141976L917.514446,132.828651L917.717460,133.298938L917.670290,133.922920L917.039052,138.098210L916.896168,143.471166L918.004533,146.190688L921.325712,151.859339L912.178026,150.969169L906.109619,151.791258L904.221668,152.510278L903.252354,153.527165L902.904910,154.217016L902.568989,155.281824L901.964811,156.059376L900.694468,157.126784L897.775601,157.281092L896.499501,157.083462L894.070606,156.220224L892.189847,155.107491L888.758250,155.434140L885.324011,156.379528L877.333241,156.337260L875.721774,155.590654L875.114987,154.385809L874.217670,153.595777L873.010824,151.754227L873.660851,146.088897L873.221617,144.941413L872.552162,143.706069L871.475623,142.696916L870.262852,141.013132L870.157844,139.239030L870.460561,137.741499L870.747273,137.037554L871.486543,135.677031L872.366264,134.548740L875.639185,135.824663L877.373557,135.479008L878.986267,134.889108L879.991717,134.064619L881.387605,132.577902L881.998514,131.399748L890.243605,124.984038L894.639495,122.380210L896.804027,121.568010L897.774482,120.602174L898.106205,119.029760L902.159214,119.093013L902.984661,119.988222L907.082804,125.908881Z " data-code="at-no" data-name="Niederösterreich"/>
    <path d="M907.082804,125.908881L902.984661,119.988222L902.159214,119.093013L898.106205,119.029760L897.774482,120.602174L896.804027,121.568010L894.639495,122.380210L890.243605,124.984038L881.998514,131.399748L881.387605,132.577902L879.991717,134.064619L878.986267,134.889108L877.373557,135.479008L875.639185,135.824663L872.366264,134.548740L871.486543,135.677031L870.747273,137.037554L870.460561,137.741499L870.157844,139.239030L870.262852,141.013132L871.475623,142.696916L872.552162,143.706069L873.221617,144.941413L873.660851,146.088897L873.010824,151.754227L874.217670,153.595777L875.114987,154.385809L875.721774,155.590654L877.333241,156.337260L885.324011,156.379528L888.758250,155.434140L892.189847,155.107491L894.070606,156.220224L896.499501,157.083462L897.775601,157.281092L900.694468,157.126784L901.964811,156.059376L902.568989,155.281824L902.904910,154.217016L903.252354,153.527165L904.221668,152.510278L906.109619,151.791258L912.178026,150.969169L921.325712,151.859339L918.004533,146.190688L916.896168,143.471166L917.039052,138.098210L917.670290,133.922920L917.717460,133.298938L917.514446,132.828651L917.110233,132.141976L916.039129,131.243446L915.339058,128.778391L914.792600,127.382380L913.315679,126.000281L912.493832,124.460174L911.030474,123.305294L908.613709,123.928775L907.892578,125.433319L907.606108,126.341824L907.510772,126.410928L907.082804,125.908881Z " data-code="at-wi" data-name="Wien"/>
  </g>
  <g class="" id="city">
    <circle cx="33.6558338251" cy="314.08937009" data-code="Bregenz" data-name="Bregenz" data-population="26928" data-state-code="at" r="16"/>
    <circle cx="921.761477779" cy="214.709184098" data-code="Eisenstadt" data-name="Eisenstadt" data-population="13165" data-state-code="at" r="16"/>
    <circle cx="884.95964219" cy="221.204977172" data-code="Wiener_Neustadt" data-name="Wiener Neustadt" data-population="82762" data-state-code="at" r="16"/>
    <circle cx="785.196049082" cy="373.887133684" data-code="Graz" data-name="Graz" data-population="263234" data-state-code="at" r="16"/>
    <circle cx="643.965987448" cy="472.684267973" data-code="Klagenfurt" data-name="Klagenfurt" data-population="90610" data-state-code="at" r="16"/>
    <circle cx="622.25537667" cy="140.660886465" data-code="Linz" data-name="Linz" data-population="349161" data-state-code="at" r="16"/>
    <circle cx="513.119969088" cy="97.7005133122" data-code="Passau" data-name="Passau" data-population="50560" data-state-code="at" r="16"/>
    <circle cx="463.988770521" cy="248.123263465" data-code="Salzburg" data-name="Salzburg" data-population="206279" data-state-code="at" r="16"/>
    <circle cx="251.837206474" cy="358.353115222" data-code="Innsbruck" data-name="Innsbruck" data-population="155214" data-state-code="at" r="16"/>
    <circle cx="893.643575887" cy="144.603846835" data-code="Vienna" data-name="Vienna" data-population="2400000" data-state-code="at" r="16"/>
  </g>
  <g class="" id="river">
    <path d="M697.432016,358.421963L696.999710,358.226575L696.688125,358.315134L696.579851,358.523243 M518.129580,378.891067L522.959529,382.216304L527.007895,382.807855L530.238487,384.525830L535.267821,385.674713L540.656819,387.851138L543.697472,387.424225L545.178869,385.725942L549.445405,384.829896L556.642703,385.660685L559.667589,383.856073L564.112104,380.170965L570.909455,377.468193L572.837932,379.736023L573.428511,383.478760L572.772016,386.716256L577.859813,387.003626L584.473209,388.354726L589.373040,384.545387L593.051673,384.355962L597.302784,382.377145L601.308825,378.665260L607.729698,379.768266L616.080697,378.907620L618.549339,377.446813L623.332820,378.575792L626.802236,377.082331L631.105731,372.460554L640.459213,371.171269L643.135401,372.425527L650.622758,367.015496L652.609177,366.768604L652.662916,363.851230L654.673302,358.551043L661.808765,356.058744L662.153792,355.595075L665.811489,357.056680L666.413831,355.750210L669.699783,356.313568L670.462570,355.586740L674.136360,357.092370L677.763705,360.481757L678.416811,359.995341L683.524483,362.053091L689.836016,360.956787L690.881957,358.929307L692.742866,359.000717L692.912895,361.160081L696.579851,358.523243 M696.579851,358.523243L697.185601,358.390193L697.432016,358.421963 M697.432016,358.421963L698.876790,358.963449L699.565121,357.521949L701.228278,357.971750L702.845642,356.095800L706.194584,355.549153L708.743072,353.962073L707.823079,347.705831L708.709309,348.181240L711.988133,344.654760L716.101041,344.046319L717.390781,342.114003L717.476035,339.145462L721.833970,331.464716L722.468168,331.842672L726.988920,328.554195L731.382390,325.993860L734.502326,325.419766L734.039865,323.194587L739.080783,322.247525L738.310116,317.323069L739.055231,316.128923L740.134550,317.772682L743.720157,316.107255L746.230217,313.207612L758.593126,311.824195 M758.593126,311.824195L758.699037,311.891048L758.828489,311.934480L758.893089,311.933301 M758.893089,311.933301L758.943674,311.932382L759.062080,311.941369 M759.062080,311.941369L759.263369,311.951878L759.388553,311.886783L759.560342,311.675252 M759.560342,311.675252L767.327443,313.111748L767.888130,317.022415L771.654494,318.246646L773.959360,322.588253L774.191295,324.262324L776.742255,327.373189L776.552489,330.429919L772.890965,332.322472L769.008973,333.727176L772.195883,336.038149L770.065016,338.580226L770.035914,342.892530L771.128888,344.420698L774.050333,345.599340L773.450440,347.379874L774.801302,350.627818L772.108813,357.014060L771.815143,359.420582L773.541536,364.541331L778.922731,366.275470L785.160432,369.600285L787.998334,373.206147L789.061988,378.320054L799.355588,398.282002L799.862476,400.901131L799.235007,408.048451L801.168702,409.091885L804.330437,412.920532L807.886901,419.749577L812.202493,423.595753L812.631541,429.067053L811.403802,431.787456L810.941664,436.603554L814.603322,440.738918L822.212204,444.284736L825.639185,443.766339L828.226242,444.927624L832.074278,445.466267L834.186755,444.587115L838.472926,444.369330L843.463321,440.437065L855.335654,440.294009L856.695069,440.511577L863.021847,444.654588L869.933581,445.989879L871.934263,448.833780L873.514495,449.258328L882.659624,457.095015L893.183102,460.958013L896.822369,461.835798L902.205146,465.684067L903.165591,467.477800L905.192998,468.994038L912.826132,472.935712 M759.062080,311.941369L759.130679,311.926208L759.211658,311.877695L759.560342,311.675252 M758.593126,311.824195L758.680381,311.800230L758.893089,311.933301 " data-code="Mura" data-name="Mura"/>
    <path d="M411.454561,353.947336L411.545290,353.950244 M411.545290,353.950244L411.636492,353.958659 M411.636492,353.958659L411.731181,353.979354 M411.731181,353.979354L411.814676,354.008180 M411.814676,354.008180L411.981071,354.078763 M411.981071,354.078763L412.069510,354.107590 M412.069510,354.107590L412.191410,354.138276 M412.191410,354.138276L412.323811,354.162967 M412.323811,354.162967L412.466852,354.185285 M412.466852,354.185285L412.550598,354.195855 M412.550598,354.195855L412.602925,354.199499 M412.602925,354.199499L412.680448,354.197905 M412.680448,354.197905L412.747093,354.186643 M412.747093,354.186643L412.829082,354.161281 M412.829082,354.161281L412.912420,354.120706 M412.912420,354.120706L413.377647,353.869302 M413.377647,353.869302L413.492995,353.800927 M413.492995,353.800927L413.527034,353.781955 M413.527034,353.781955L413.603081,353.740123 M413.603081,353.740123L413.747776,353.659991 M413.747776,353.659991L413.857244,353.611510 M413.857244,353.611510L413.926022,353.591172 M413.926022,353.591172L413.992146,353.581840 M413.992146,353.581840L414.064878,353.589163 M414.064878,353.589163L414.343952,353.648768 M414.343952,353.648768L414.436934,353.662014 M414.436934,353.662014L414.519165,353.662492 M414.519165,353.662492L414.595759,353.651610 M414.595759,353.651610L414.838258,353.598819 M414.838258,353.598819L414.912134,353.592635 M414.912134,353.592635L414.981164,353.596693 M414.981164,353.596693L415.038670,353.608527 M415.038670,353.608527L415.436875,353.727086 M415.436875,353.727086L415.550363,353.754563 M415.550363,353.754563L415.646327,353.772375 M415.646327,353.772375L415.725325,353.778660 M415.725325,353.778660L415.798549,353.771318 M415.798549,353.771318L415.862151,353.756812 M415.862151,353.756812L415.899976,353.744281 M415.899976,353.744281L415.938020,353.726686 M415.938020,353.726686L415.978931,353.695921 M415.978931,353.695921L416.014528,353.656234 M416.014528,353.656234L416.047479,353.599300 M416.047479,353.599300L416.137041,353.419935 M416.137041,353.419935L416.177831,353.340622 M416.177831,353.340622L416.236815,353.241989 M416.236815,353.241989L416.308780,353.156060 M416.308780,353.156060L416.414053,353.047276 M416.414053,353.047276L416.545601,352.950290 M416.545601,352.950290L416.965827,352.832359 M416.965827,352.832359L417.297099,352.761356 M417.297099,352.761356L417.433857,352.797583 M417.433857,352.797583L417.625650,352.871343 M417.625650,352.871343L417.801098,352.993667 M417.801098,352.993667L417.888084,353.073752 M417.888084,353.073752L417.962062,353.160885 M417.962062,353.160885L418.125229,353.344931 M418.125229,353.344931L418.221927,353.406249 M418.221927,353.406249L418.403384,353.450603 M418.403384,353.450603L418.591480,353.438365 M418.591480,353.438365L418.726781,353.409794 M418.726781,353.409794L418.821758,353.370262 M418.821758,353.370262L419.251660,353.137996 M419.251660,353.137996L424.015024,353.931010L429.868422,352.634698L445.732502,352.089380L447.576209,351.249631L453.996412,350.808343L455.901231,350.013685L458.685758,350.271054L463.946396,346.860271L467.162308,347.049924L469.917313,348.514495L476.842371,347.098074L477.435466,346.442163L484.129939,342.801563L486.613144,342.991554L488.696425,339.754900L489.790337,334.722198L490.087859,330.388103L491.857574,327.428603L490.386776,321.842575L489.609428,317.350622L488.245338,316.699104L485.595947,310.362953L483.210666,306.649844L483.376986,300.044958L482.625032,296.012996L486.008784,293.144026L483.055910,292.113536L481.488590,287.704575L478.707498,284.611457L478.121155,282.335839L476.237263,279.655618L474.715177,274.644636L472.568818,272.916179 M472.568818,272.916179L471.804711,272.550824L471.680856,272.490523L471.337159,272.104327 M471.337159,272.104327L469.719367,268.663358L470.135582,262.433623L468.921781,256.506931L468.972970,253.522331L466.421734,250.800660L463.746095,249.156127L462.833406,245.257275L455.984985,235.792187L450.116804,225.208523L446.176743,220.171616L442.891736,219.903293L437.944927,209.496284L431.779636,203.759493L427.519473,200.311993L425.330630,198.053972L423.855774,193.580084L424.644247,187.898197L428.465547,188.127735L430.680909,183.037191L434.183105,181.611693L434.471522,179.834191L435.962522,179.463297L438.638740,172.617188L446.830442,170.916789 M356.798895,364.305805L362.668864,362.744545L365.470966,363.064349L368.549372,360.970691L370.117272,360.797517L377.471417,356.613552L384.105277,355.170525L385.581830,355.295771L390.988603,354.078921L398.226391,353.687563L406.340589,354.282491L411.454561,353.947336 M472.568818,272.916179L472.476197,272.702727L471.337159,272.104327 " data-code="Salzach" data-name="Salzach"/>
    <path d="M339.244055,311.172018L339.361848,308.268012L343.218167,305.898024L345.202783,302.752380L347.041486,301.148251L348.003240,298.631921L350.528352,297.186119L353.030761,292.322205L355.681341,291.472194L354.562938,285.429863L348.980708,272.301608L345.815163,266.684298L345.112712,260.717859L343.732350,256.406849L347.293654,246.934041L359.167708,224.672719L367.991253,214.960662L373.928478,203.235640L382.775803,195.256839L397.570364,184.269692L409.332319,174.067561L416.341528,168.220730L424.285265,162.683671L430.342080,162.806350L437.837723,163.641517L438.817969,163.278480L442.540919,166.377154L443.742750,168.214672L446.830442,170.916789L449.223572,170.885199L455.428613,164.451389L458.494845,160.493375L462.894439,158.753614L466.193264,156.445293L469.467820,156.465025L479.034729,152.454497L488.289575,152.394853L497.987198,145.588333L502.392642,139.957403L508.377568,134.356955L510.821032,124.398686L508.993199,119.542015L512.524838,108.710552L510.676434,105.312711L511.253424,104.445696L509.382733,100.195546L511.816753,97.477685L515.404045,96.105520 M126.136335,439.116117L128.768693,432.382284L129.273635,432.129597L133.490730,423.406072L134.596915,423.168889L136.612689,420.646033L140.962750,417.644950L148.323021,408.221336L148.440996,407.230825L152.096708,403.205721L152.267238,393.118021L147.304124,392.358031L142.106885,390.459795L141.922434,385.350789L140.813123,384.648638L147.094193,379.110146L149.638408,378.414712L151.273848,375.984069L155.804789,374.825331L158.419672,372.591534L164.396374,372.208350L166.038770,371.504791L173.689660,370.359614L175.678221,369.778307L178.595372,367.043187L179.349928,365.213536L183.574947,362.716892L187.482044,360.966476L191.378401,360.677582L194.259834,358.498051L197.809914,357.574965L212.438837,353.139219L224.619245,358.860573L227.846291,360.043771L229.302509,362.050514L232.253597,361.366703L240.855175,362.501066L243.288606,363.937729L244.328962,363.507391L251.413969,358.370215L257.374834,360.842400L262.956067,359.667279L270.603515,357.452505L273.007362,354.360113L280.708244,351.994929L289.048127,348.374374L290.686999,346.087140L293.189467,341.218735L297.709156,337.222726L303.690318,333.610445L307.757010,332.343623L314.905431,325.823838L317.741919,322.605189L320.624808,321.290481L327.489136,317.369137L336.635812,313.892874L339.230298,311.186020 " data-code="Inn" data-name="Inn"/>
    <path d="M72.503143,427.632068L74.464353,423.950202L74.133128,421.852622L63.607776,413.146623L60.710592,411.618180L57.258420,406.998034L55.451257,402.567545L46.880176,396.104059L45.251597,389.615316L42.119385,388.214480L40.143021,385.413928L34.854566,381.178125L30.318766,380.637892L28.130301,379.484849L26.302361,377.419092L21.040233,375.347800L16.781679,370.961947L12.433480,370.531663L10.551723,368.798289L5.756159,357.420239 M5.756159,357.420239L5.760236,357.266782L5.820312,357.059359L6.050934,356.402268 M5.756159,357.420239L5.666011,357.339151L5.668774,357.153111L5.567151,356.923768 " data-code="Ill" data-name="Ill"/>
    <path d="M505.829384,95.697787L517.169089,95.458284L517.677754,93.991542L520.096754,93.078039L524.785338,97.119162L527.283267,98.509088L529.804314,96.506697L538.374133,102.169510L543.270662,104.710435 M544.516557,105.358221L545.196562,105.785640L545.464220,105.904305L545.730928,105.987505 M543.270662,104.710435L545.719658,106.240078L546.965494,106.494307 M546.965494,106.494307L553.762265,113.798520L558.767132,116.405546L564.659334,121.993310L566.959333,122.655378L567.036161,121.362606L564.355426,119.226663L565.330051,118.001599L568.141882,118.983121L570.427195,117.447766L572.821015,117.873315L573.049841,119.960303L575.908745,126.499140L577.930629,123.846742L582.275111,123.077434L583.022046,123.489633L586.332959,128.625664 M543.270662,104.710435L543.466686,104.811016L544.029678,105.069490L544.516557,105.358221 M544.516557,105.358221L544.854639,105.526712L545.230489,105.731437L545.730928,105.987505 M545.730928,105.987505L546.435222,106.309201L546.965494,106.494307 M586.332959,128.625664L586.584053,129.371529L586.859305,129.769592L586.994775,130.008880 M603.465879,142.115179L603.765752,141.992018L604.125469,141.769878L604.526674,141.472221 M675.872038,167.157983L676.296871,167.030571L676.689944,166.867847L677.194102,166.594182 M640.837539,152.610426L641.309831,152.900393L641.701760,153.110563L641.972614,153.215932 M754.389892,150.692172L754.895247,150.609351L755.345179,150.505311L755.736596,150.372203 M725.514133,159.178957L725.629040,159.337944L726.179595,159.789637 M824.107408,115.266016L824.649873,115.508438L825.062904,115.676502L825.464859,115.786522 M874.342706,116.745996L874.924821,116.691605L875.893145,116.517106L876.081927,116.445861 M908.294930,147.915993L908.567619,148.191331L908.996545,148.549875L909.217468,148.686795 M586.332959,128.625664L586.528070,129.407349L586.800238,129.808127L586.994775,130.008880 M586.994775,130.008880L587.908004,138.903608L589.274752,140.276888L594.011707,142.518501L600.418003,143.883935L603.465879,142.115179 M603.465879,142.115179L603.734313,141.941107L604.091891,141.710064L604.526674,141.472221 M604.526674,141.472221L608.492630,139.078834L613.980590,143.075222L617.916296,142.848336L620.173682,143.548484L625.128360,139.924196L626.135867,140.322334L631.462006,148.726585L635.322518,150.136658L637.594064,151.848735L640.837539,152.610426 M640.837539,152.610426L641.341882,152.845895L641.744881,153.059829L641.972614,153.215932 M641.972614,153.215932L645.252061,155.846569L661.680330,157.097433L665.667941,162.328346L671.648896,167.120478L674.077248,167.723250L675.872038,167.157983 M675.872038,167.157983L676.273961,166.972220L676.666776,166.808120L677.194102,166.594182 M677.194102,166.594182L686.382779,164.304549L696.425533,159.127014L697.250689,157.675769L697.363194,154.412869L702.705772,153.428005L708.269153,153.140305L711.069976,157.978818L716.951259,159.430371L721.938169,158.492065L725.514133,159.178957 M725.514133,159.178957L725.669516,159.294243L726.179595,159.789637 M726.179595,159.789637L728.199417,162.176264L731.067926,162.827989L731.903968,161.202302L730.776127,157.104229L732.440102,155.326927L745.950148,153.258588L747.295752,152.456728L754.389892,150.692172 M754.389892,150.692172L754.879714,150.552298L755.331192,150.447992L755.736596,150.372203 M755.736596,150.372203L756.746843,150.005636L762.613494,145.123664L767.650409,136.669655L768.034377,133.767501L767.193975,124.979037L769.275416,122.142721L772.364479,120.157272L777.282436,113.565505L780.453522,114.789931L782.404676,117.480748L784.527790,117.045981L794.522265,112.851221L799.201615,115.757313L801.476292,116.675424L805.904604,114.972096L809.790681,117.545988L813.011493,117.416779L817.519965,115.408861L819.183766,115.700097L824.107408,115.266016 M824.107408,115.266016L824.676747,115.446732L825.084886,115.615271L825.464859,115.786522 M825.464859,115.786522L832.289845,120.560887L836.586428,122.110718L845.254133,121.332638L846.250274,121.944642L853.736557,121.546788L857.469411,121.632971L874.342706,116.745996 M874.342706,116.745996L874.915926,116.628312L876.081927,116.445861 M876.081927,116.445861L881.654797,116.667703L886.948872,119.887468L890.846082,128.770000L894.896079,134.879506L896.863865,137.275920L908.294930,147.915993 M908.294930,147.915993L908.612174,148.144589L909.035893,148.501648L909.217468,148.686795 M909.217468,148.686795L914.775450,151.765908L917.929485,154.135753L932.402873,155.891803L938.246063,157.238036L943.267202,154.767965L946.029281,154.983611L951.303676,156.491813L960.470170,153.167509L969.686387,147.668314L970.569614,145.335090L973.366962,143.372249L981.524015,149.011291L984.913908,148.043627L988.940332,148.418893 " data-code="Dunaj" data-name="Dunaj"/>
    <path d="M811.697584,219.281253L811.280342,223.296151L813.972135,229.115101L817.933601,234.871747 M817.933601,234.871747L817.997138,234.937952L818.033036,235.055042L818.048423,235.105529 M818.048423,235.105529L820.101115,236.803456L820.351167,238.920409L826.188232,241.624095L828.462548,245.023339L828.151221,246.531704L833.789179,248.555940L834.188811,249.337975L843.188228,251.152102L844.658556,251.830195L850.174384,251.525642L853.284291,248.660752L855.767738,247.677273L860.742922,241.115737L862.339583,240.772127L868.649296,241.387433L873.859927,240.622787L882.945699,237.261586 M817.933601,234.871747L817.964163,235.024640L817.978752,235.057271L818.048423,235.105529 M882.582066,237.395211L882.824707,237.516843L882.784058,237.483861L882.945699,237.261586 M882.945699,237.261586L886.633458,233.683315L888.724859,227.773098L888.309695,226.289808L888.890283,221.909732L894.347750,216.074067L893.694517,212.906243L894.400012,211.371578L900.671256,208.714794L902.362785,204.821541L905.703986,203.804510L907.599694,197.387704L911.128746,194.726297L911.746787,195.129905L916.914071,194.034626L920.307441,189.872388L920.615368,188.460237L924.494534,180.473511L926.008853,179.115575L930.255104,177.732306L933.793484,178.239517L937.570628,177.663031L940.784437,178.476868L945.117263,178.547113L947.835444,177.596241L951.823841,175.326993L953.529847,175.132538L956.720280,173.166494L957.022283,171.370443L960.679826,166.552378L964.298900,163.821191L967.733484,164.544357L967.783915,166.541486L969.426634,167.736963L974.802905,169.157234L975.589382,172.901484L978.667883,174.108868L984.366966,181.017776L986.920015,181.277327L991.117233,184.830338L996.639231,186.537430L1000.000000,188.386229 " data-code="Litava" data-name="Litava"/>
    <path d="M756.513213,16.347204L756.445385,16.384065L756.241632,16.569419 M757.692702,16.990308L757.439020,16.957045L757.336098,17.077260 M748.454125,16.085039L748.172097,16.090476L748.339165,16.487075L748.471109,16.548269 M960.956487,57.169339L958.020397,55.637951L957.834315,47.106069L955.811023,40.151083L952.140591,38.032894L951.067579,35.657729L952.432865,33.656188L951.533383,31.721647L950.910311,26.253971L948.421228,24.447798L946.415896,21.583089L945.022789,21.348481L943.361976,19.593049L935.510418,17.985091L934.046061,18.297030L930.148513,15.296854L930.127169,13.394244L927.645421,12.311481L922.821695,8.385071L919.315465,6.798053L914.366362,6.599462L908.945340,7.843176L904.309782,9.647778L899.105058,15.007940L898.954959,18.600064L897.664227,20.745700L896.981008,25.350707L895.072734,26.565065L893.040861,29.364915L891.297456,33.549083L881.742426,40.960717L880.910891,41.043594L876.143084,37.704630L873.216947,37.257713L872.676366,35.748523L866.542593,33.427907L862.439225,28.743604L859.659525,26.936191L859.006121,25.726705L854.744437,23.828317L851.892448,23.357694L848.887093,21.565862L844.493659,23.111088L841.930261,21.632608L839.478930,22.108534L836.439639,24.454029L834.044319,29.747807L829.814951,26.985760L828.257851,28.621863L826.109695,24.982434L821.296355,24.530713L820.041414,21.876387L818.949153,22.745826L816.508354,20.613424L816.550861,17.857093L814.052479,15.948273L811.267126,15.310418L812.386507,12.902155L809.184280,10.976070L809.116907,9.898693L806.517151,7.754553L798.085001,8.208096L795.965661,14.210520L794.416745,15.915873L791.985241,16.537942L791.569463,18.127115L789.371702,18.536661L786.631663,22.231664L787.008434,23.251408L781.504059,25.854159L780.473616,30.291657L774.359615,30.562795L774.515620,29.782216L770.147908,27.055926L769.025257,25.553996L768.059120,28.373117L763.710692,25.298920L763.419763,23.261059L759.558441,21.830182L758.758490,19.686053L759.573649,18.974755L757.692702,16.990308 M757.692702,16.990308L757.544934,17.039952L757.336682,17.077139L757.336098,17.077260 M757.336098,17.077260L756.761687,17.208319L756.241632,16.569419 M756.241632,16.569419L756.395783,16.372185L756.513213,16.347204 M756.513213,16.347204L757.175155,15.341232L753.670660,12.893307L752.031375,12.614205L748.964977,17.596352L746.139363,19.017374L746.845760,20.614167L744.117051,22.778583L746.058817,24.045987L746.597406,31.119037L745.214459,33.411667L746.545721,34.684935L745.201048,36.172477L746.733555,37.984524L746.590906,39.815851L745.274493,42.068086L745.068396,46.017476L742.060928,50.649390L739.249207,52.711592L737.009130,51.873610L732.481042,48.239010 " data-code="Dyje" data-name="Dyje"/>
    <path d="M547.289577,288.089021L547.654512,288.111216 M563.763622,283.121922L563.256828,284.767056L558.865267,285.138576L555.111176,286.993068L555.799328,293.217640L552.679817,294.719536L549.743304,294.567284L547.496177,293.072440L547.654512,288.111216 M547.654512,288.111216L546.771102,286.140885L542.905040,283.091414L542.103423,281.719311L542.989126,280.161543L539.847705,276.703359L539.755489,272.840470L540.884027,271.673725L540.213493,265.736023L553.339127,252.871196L559.748452,243.992070L562.859726,241.832411L563.286893,240.350235L563.444118,234.794262L563.056318,221.338057L562.560305,218.700502L563.513082,214.263887L563.643725,209.049488L561.289742,207.217051L561.133106,204.343774L564.276393,200.624858L564.261486,199.257489L567.056568,195.419503L567.121811,191.684912L568.720041,188.950750L571.963744,189.023467L572.501617,188.264917L576.317330,188.129433L580.411328,184.999033L583.987911,178.375633L593.470762,174.017891L598.962354,170.879154L605.715513,167.916560L607.457655,166.247076L612.781767,164.535499L624.423287,156.949928L626.882782,155.567462L630.514642,150.565689 " data-code="Travna" data-name="Travna"/>
    <path d="M687.326170,263.803371L687.206820,264.000625 M687.206820,264.000625L687.124817,264.070168 M687.326170,263.803371L689.796435,263.760665L691.552945,262.773380L694.030640,259.000090L696.693474,255.968907L700.507809,255.157235L705.761226,257.006462L706.236175,258.391288L713.206645,259.527798L716.210954,262.037119L717.634134,261.182794L721.936811,263.773895L728.214376,262.808367L729.368990,263.828053L732.342374,263.077713L735.909372,264.828307L742.395344,264.736572L743.942653,261.818169L747.346211,259.244453L748.801178,254.192984L751.681839,253.568301L752.709839,252.189422L754.904204,252.237282L757.104210,249.235660L759.748579,248.262394L762.120359,245.550595L762.264758,241.041019L765.055747,241.991227L766.184677,240.241989L773.316335,240.577402L780.275105,238.799533L780.767028,237.707804L779.590993,231.220968L781.792892,225.837980L779.482220,225.104539 " data-code="Salza" data-name="Salza"/>
    <path d="M514.656805,338.229534L514.616378,338.187294L514.605880,338.152131 M516.110352,347.473503L515.099337,344.406633L514.733577,343.689101L514.656805,338.229534 M514.656805,338.229534L514.661133,338.209541L514.605880,338.152131 M514.605880,338.152131L514.804831,335.299990L514.036540,333.632656L514.067599,330.734494L515.957823,328.211257L526.445729,328.730770L527.930743,328.609257L534.900755,325.450519L539.030294,325.376442L541.435865,327.456547L542.870035,327.751914L552.178424,326.285323L559.791346,322.175010L569.951503,319.559519L572.838627,319.989253L575.910955,319.606721L582.199201,317.474431L586.641919,314.105378L586.803827,313.434745L591.106919,311.014274L591.271463,310.386280L596.222680,305.229214L597.779017,304.420961L601.395114,301.064916L603.670053,300.715188L605.073294,297.317673L606.846563,297.465294L608.902891,296.385292L610.662361,294.237883L612.908226,292.980446L616.181518,292.964787L617.607392,292.195832L625.400843,291.007846L629.970638,288.796493L632.453573,288.610010L633.836081,286.854752L642.656446,283.942484L647.766344,284.981281L649.004561,283.883203L653.754552,283.792619L659.145244,281.182120L665.657104,283.256569 M665.657104,283.256569L666.001970,283.315221L666.099989,283.253891 M666.099989,283.253891L669.305355,282.306139L671.586463,282.824543L674.719178,280.575026L683.176388,279.783222L687.969277,278.052661L688.075787,276.826669L691.291665,272.779211L691.864525,268.969723L687.418093,264.586742L685.539460,264.808430L680.685472,258.673886L681.661911,257.937992L678.474698,255.632270L675.850309,256.442547L675.012463,254.194161L676.148514,253.848757L674.633068,250.248608L676.157552,243.570348L674.967088,241.758342L674.791699,238.395007L674.028028,237.049285L674.256803,232.855680L673.442274,229.586599L671.190310,229.567206L669.777095,227.907326L668.216360,224.615059L659.212782,224.068989L658.254830,223.376685L653.469565,222.306623L649.798956,222.899535L649.315537,221.543035L647.435162,221.054900L646.858421,217.969170L645.882958,217.158302L638.102175,216.713324L634.745420,214.891753L635.206737,206.382818L636.144304,204.052241L639.010039,204.093395L641.056949,202.127185L642.365464,198.123997L642.476301,194.885073L643.823129,189.912447L647.100132,187.566120L646.977209,184.080874L648.498747,181.866653L648.936368,175.602865L647.452833,172.519317L648.959148,164.573790L648.544745,162.671856L649.433756,158.511791 M665.657104,283.256569L665.752317,283.288846L666.099989,283.253891 " data-code="Ene" data-name="Ene"/>
    <path d="M963.786048,48.554469L964.159172,51.319768L962.890324,55.671766L960.883982,57.428368L960.377995,60.259186L961.197265,66.113390L962.606625,68.418712L962.384389,69.568041L964.043656,71.440580L963.073814,75.628230L960.057490,76.528558L959.667528,80.148437L956.699813,82.092809L957.015484,84.986873L955.917056,84.899324L954.058195,89.645009L952.426671,90.637532L953.981242,95.820550L954.606222,96.543092L953.068367,98.914357L953.566111,103.640315L951.450936,104.752671L953.333408,110.238485L956.918813,110.165302L957.041563,112.294399L962.194803,114.731782L960.897541,117.999943L962.800477,121.790554L966.011413,124.701215L967.994741,124.637792L969.528163,125.843948L968.845153,131.913303L971.212366,135.704458L973.585230,141.635121 " data-code="Morava" data-name="Morava"/>
    <path d="M864.077835,290.247833L864.663831,292.768530L867.326473,297.263181L871.727819,300.914729L875.709456,311.197753L878.270509,316.198236L884.873603,323.812477L890.764333,327.935046L893.368806,330.992794L901.439332,337.497189L903.032282,338.352289L907.933860,342.975746L910.359492,341.476583L914.376167,337.638246L916.595100,338.951936L919.745946,337.534847L922.476004,343.045482L923.760566,347.018820L923.865701,353.846075L926.215656,357.534563 M926.215656,357.534563L926.282471,357.616653L926.220318,357.659305L926.080358,357.787523 M926.080358,357.787523L925.129913,366.586090L925.828882,369.181066L929.569336,375.283462L934.310967,377.467013L943.275642,376.984498 M926.215656,357.534563L926.197006,357.576317L926.080358,357.787523 " data-code="Pinka" data-name="Pinka"/>
    <path d="M682.300590,388.204768L685.613100,389.669660L689.370295,389.892904L690.036189,390.622407L694.442087,391.137992L702.285785,399.035167L704.146135,402.724668L707.279803,404.125988L711.856616,410.697648 M711.856616,410.697648L711.959275,413.616263L715.741152,414.686166L716.084921,417.924974L714.243806,421.846469 M714.243806,421.846469L714.168577,422.314453L713.877732,422.721734L713.674390,422.856076 M713.674390,422.856076L713.039346,423.660217L713.186569,424.154873L712.814889,425.832462 M712.814889,425.832462L712.701639,426.038505L712.428179,426.494299L712.321602,426.748742 M712.321602,426.748742L712.851423,429.831391L712.212152,438.916810L711.689012,439.695062L714.548384,445.495427L716.393838,447.833217 M716.393838,447.833217L716.448338,447.876663L716.433567,448.018601 M716.433567,448.018601L719.538668,452.102538L723.040410,452.943300L724.208694,456.157356L730.192445,461.430753L728.985270,461.959982L728.781753,463.906617 M711.897378,410.728063L711.861286,410.703474L711.856616,410.697648 M712.814889,425.832462L712.499931,426.615280L712.464641,426.699995L712.321602,426.748742 M716.393838,447.833217L716.385992,447.874325L716.386115,447.936964L716.433567,448.018601 M714.243806,421.846469L714.032071,422.269391L713.997310,422.299694L713.674390,422.856076 " data-code="Lavant" data-name="Lavant"/>
    <path d="M370.542764,462.327947L375.872118,463.390610L376.630757,462.757098L385.711957,459.875245L386.599600,460.051601L395.226773,458.863422L397.659956,459.256651L410.223526,454.313906L418.961669,451.844504L425.370995,450.480046L430.542491,448.657025L433.730061,445.744867L435.095497,442.264524L436.827654,441.814763L445.765176,445.574163L450.824579,449.676747L455.322997,452.511920L457.904744,453.518801L460.282401,456.895612L464.682316,456.666324L465.358616,457.604958L470.168383,458.008301L471.090328,458.688986L479.910813,458.640977L483.995595,456.523189L485.010067,457.992306L490.681223,457.582511L495.306451,454.922538L499.295215,454.903088L502.412081,453.459388L505.699174,453.463581L510.764836,452.391934L513.139201,448.842324L514.815352,445.009905L514.841481,442.188271L512.798501,438.252692L520.891310,439.817063L523.262501,439.289977L529.500272,441.669354L529.247498,444.407986L534.994321,447.112145L541.356579,449.506584L543.410545,452.353219L546.538977,453.753028L548.615791,453.797716L554.613798,457.771410L558.924473,461.619732L561.004247,462.277990L561.214126,465.281397L565.586174,467.373613L569.865110,468.414702L570.629692,470.187217L574.602060,470.461842L580.062389,475.243869L580.040593,475.814220L586.162829,476.788311L587.704093,478.443486L590.752078,478.542260L592.762855,476.943715L595.528909,479.258260L602.075225,481.447055L606.095989,479.729338L607.373061,479.976375L606.636158,484.488524L609.008344,483.546362L610.716279,484.166943L610.932036,486.047551L612.554541,486.539256L616.236394,490.369731L617.882880,490.106964L622.844495,490.798102L626.724443,490.537803L629.821565,488.903462L635.718309,487.820004L642.419970,486.971430L645.317712,487.416651L652.983113,486.125729L654.891987,485.008300L668.489178,482.308072L674.888710,471.137475L677.031081,470.266414L680.447790,467.105643L686.925525,464.748455L687.848362,463.993941L690.377038,468.405319L697.261917,467.655440L711.631747,463.302317L713.290379,463.447250L715.185502,459.002662L718.575873,460.293288L719.231602,461.529014L722.370687,461.675517L725.182239,461.130667L731.878488,465.748881L733.401243,469.798756L739.940432,473.210462 " data-code="Drava" data-name="Dráva"/>
    <path d="M4.514182,421.273357L4.493760,420.559763L4.398995,420.339975L0.000000,414.423971 M0.000000,398.099360L0.593382,395.195808L0.517447,394.494854L0.000000,391.524399 M0.000000,368.919376L5.419681,357.294701L9.287518,353.982466L10.022414,352.807430L11.450519,347.552436L16.787741,340.752041L17.767883,338.540339L18.308101,333.688596L17.534345,329.500941L20.575460,325.562734L20.977000,317.447103L20.296744,315.711785L17.481682,312.395978 " data-code="Ryn" data-name="Rýn"/>
    <path d="M645.544302,79.111260L640.304823,74.029668L642.978138,70.857949L640.752081,70.295196L641.564486,66.290456L642.784846,64.131380L644.971340,62.183252L646.162177,58.153473L644.068690,56.255663L646.046024,52.083566L645.700604,46.742377L643.078338,46.539976L641.297968,42.058782L641.939215,40.939740L640.789288,39.675676L642.864429,34.050860L643.756485,26.481803L640.370580,23.742993L641.314155,18.551886L639.181234,12.657177L638.165094,11.550582 " data-code="Male" data-name="Male"/>
    <path d="M603.238674,232.099471L605.717322,231.592578L606.801809,230.332357L606.073405,226.580168L603.517965,224.238781L601.963172,218.386697L603.076898,215.764507L602.392793,214.874195L603.100762,210.808927L603.414081,196.242359L605.635962,192.305887L609.669949,190.217729L612.702388,186.810918L612.171420,184.844285L613.182716,181.218624L614.089621,180.945503L616.613005,177.789177L616.997097,174.869038L616.599444,172.520312L618.817960,167.410362L619.824736,166.905683L621.019947,163.628320L621.126319,159.657187 " data-code="Kreme" data-name="Kreme"/>
    <path d="M800.268774,234.328054L788.900472,240.924214L788.152384,241.051357L786.011513,246.854127L785.184221,248.057777L785.423568,253.470733L787.223797,255.461311L791.955405,258.720640L794.896201,256.153649L798.289374,257.636443L807.655032,260.558070L811.565856,265.039020L811.089196,266.561932L811.404618,270.522829L804.152926,277.868383L801.627723,277.402128L797.159220,281.241982L795.486551,280.101271L792.713915,282.987053L790.434176,283.544484L790.102531,284.992718L786.977101,285.962790L787.141910,287.931393L784.990697,288.658536L784.824470,289.768383L779.110910,293.535516L776.904164,295.536410L775.631356,298.241068L770.646584,299.158938L768.364961,300.645446L769.091883,301.270848L761.697618,306.516653L763.126751,307.900697 " data-code="Murz" data-name="Mürz"/>
    <path d="M411.626575,465.814803L414.940288,467.728900L416.555474,467.165112L429.727845,466.544999L440.492792,467.658078L442.752343,469.122848L444.404540,469.076062 M444.404540,469.076062L450.018468,469.316421L451.937516,470.051232L455.818587,469.569291L458.989624,470.377524L460.238613,469.745317L465.005123,471.970443L469.679784,471.500785L473.223937,473.128788L485.967803,476.485440L490.992493,476.477560L494.611675,478.685650L499.905749,478.389479L501.548433,479.118357L510.377677,479.254026L516.990713,480.407248L520.823056,481.441680L527.886282,482.236922L532.443043,479.617190L540.278062,482.502363L544.292096,484.803008L549.624494,483.242495L553.316211,485.941568L555.046499,485.913391L556.926238,487.124823L558.928312,487.305758L563.651714,486.109082L567.806393,486.718380L571.867547,488.628175L574.670095,487.461351L581.763075,485.650903L581.082409,484.285783L585.883870,479.071214 M444.404540,469.076062L444.371286,469.105123L444.310128,469.204074L444.256689,469.278201 " data-code="Gail" data-name="Gail"/>
    <path d="M657.399891,471.859981L657.415522,471.858564 " data-code="Raba" data-name="Rába"/>
    <path d="M157.861752,321.008930L157.875453,320.982175L157.650912,320.764280L157.638836,320.638219 M68.557128,378.666632L70.119874,377.320500L74.338581,376.193575L78.606644,376.666967L83.095034,374.518475L88.931831,366.309566 M88.931831,366.309566L88.965230,366.253186L88.976625,366.234541L89.051699,366.197671 M89.051699,366.197671L93.368337,365.139931L95.955519,367.142163L98.689941,366.271303L101.351264,367.736051L105.536758,367.247645L108.073294,365.289134L113.491909,364.191625L119.390478,361.457371L119.845818,360.029933L122.410411,359.433298L125.267909,356.968440L128.341662,357.085796L130.102189,354.651349L135.580026,349.099536L137.792447,342.743301L137.430616,340.619248L141.045583,335.173345L141.285112,332.365041L143.277481,330.479210L146.485976,330.264388L151.526284,328.052533L153.474037,325.339083L157.638836,320.638219 M88.931831,366.309566L89.044014,366.314036L89.066268,366.295544L89.051699,366.197671 M157.638836,320.638219L158.324267,319.522927L158.575098,316.031469L158.605841,313.734596 M158.605841,313.734596L158.729829,312.580802L158.431878,312.444989L157.847803,311.931836 M157.847803,311.931836L157.701341,311.842902L157.672179,311.825905L157.601166,311.787170 M157.601166,311.787170L156.213841,311.213977L151.911135,307.530373L156.224602,304.536581 M157.847803,311.931836L157.826130,311.890716L157.652851,311.782625L157.601166,311.787170 M158.998498,314.097993L158.750011,313.826048L158.673899,313.753953L158.605841,313.734596 " data-code="Lech" data-name="Lech"/>
  </g>
</svg>
