<?xml version="1.0" encoding="utf-8"?>
<!DOCTYPE svg PUBLIC "-//W3C//DTD SVG 1.1//EN" "http://www.w3.org/Graphics/SVG/1.1/DTD/svg11.dtd">
<svg xmlns="http://www.w3.org/2000/svg" xmlns:xlink="http://www.w3.org/1999/xlink" enable_background="new 0 0 1000 701" height="701px" pretty_print="False" style="stroke-linejoin: round; stroke:#000; fill: none;" version="1.1" viewBox="0 0 1000 701" width="1000px">
  <defs>
    <style type="text/css"><![CDATA[path { fill-rule: evenodd; }]]></style>
  </defs>
  <metadata>
    <views>
      <view h="701.141302995" padding="0" w="1000">
        <proj id="laea" lat0="50.171538188" lon0="12.7912078857"/>
        <bbox h="6.71" w="9.58" x="994.36" y="996.65"/>
      </view>
    </views>
  </metadata>
  <g class="" id="bg">
    <path d="M-10000.0,-10000.0L-10000.0,10000.0L10000.0,10000.0L10000.0,-10000.0Z "/>
    <path d="M405.857634,699.141303L413.688407,697.779199L419.850067,694.292226L442.362967,671.657948L446.770450,669.675963L451.355655,669.474325L475.754649,678.622548L490.236241,680.201322L502.066724,678.226679L506.000442,675.660525L531.027612,646.300139L536.522400,643.351978L600.790852,644.671907L618.859110,663.697372L621.970884,665.518389L625.045760,666.180685L628.083421,665.458205L648.680005,650.012446L655.243772,648.197126L658.008562,648.504892L680.213681,659.722486L693.589078,662.865993L698.843660,661.330846L702.400728,656.803051L713.440652,602.412803L716.698314,595.878444L721.087501,591.983627L797.534556,549.991441L815.257440,530.331477L823.877419,524.915869L827.685911,524.081684L884.732369,535.009750L914.445219,568.289580L925.130126,572.428535L936.281703,572.084015L940.793089,570.023758L943.897937,566.643140L945.105418,561.860438L935.174339,523.767869L934.442575,516.283427L934.787233,509.796114L936.409583,504.658008L939.583908,501.277191L987.433157,490.402662L991.056705,486.903218L990.445248,482.159720L984.590740,468.746462L982.545488,460.875372L981.696488,452.869415L982.481314,445.192106L985.373726,438.320721L990.829280,432.718252L999.285858,428.875621L989.623663,420.165047L972.259638,407.856174L966.079381,401.578621L963.500484,397.539279L964.863442,392.345447L966.385561,389.510218L978.221773,373.851476L981.500777,368.447259L984.269760,362.650526L982.410184,352.164311L976.836735,338.112784L959.265775,311.304969L952.929887,298.315650L950.318787,287.960144L952.199645,281.929890L953.698559,275.576878L954.417289,268.790480L953.325923,255.515356L950.283212,239.115054L948.802788,223.962953L948.499435,215.388201L949.851644,187.502956L949.534390,176.582816L948.079305,165.485696L943.902128,148.498356L939.651032,140.214861L934.403760,134.169165L921.722755,127.288005L898.537099,121.433384L873.556854,120.283454L853.054449,116.122823L842.582330,108.367970L836.564497,100.409715L831.149034,89.438962L826.928544,84.029986L821.958160,80.234327L768.366669,74.170883L754.362893,66.227647L726.802262,43.296079L726.801319,43.297015L720.211228,49.837733L692.166906,48.296987L616.240107,2.057433L609.382616,0.000000L602.018544,1.530698L590.506370,9.175044L585.426608,11.168815L570.780301,9.106227L557.657416,9.898637L544.277293,14.742038L533.769060,25.167677L515.613375,53.327500L506.451527,62.155023L495.773123,63.336117L451.982141,55.279290L390.626269,59.697680L357.544168,69.351471L334.751555,88.800454L328.625412,94.091559L325.715530,100.459285L323.991629,106.964924L321.761716,112.737262L321.919752,115.396339L323.003536,119.720926L323.490567,124.773975L321.688757,129.484806L318.372543,131.264703L310.993478,130.965914L308.016505,132.680327L298.219181,141.407440L274.053711,154.846145L265.181636,163.572758L239.454642,209.887528L230.053814,219.669496L220.840243,226.061682L214.067015,236.056295L211.732446,256.445410L195.363104,277.211498L190.863118,289.278402L188.162760,312.123377L190.526915,328.089299L195.204777,341.876750L195.131718,353.307524L183.582958,361.606688L169.545449,359.718298L161.291453,346.635206L151.668140,311.143885L150.864657,304.492062L149.472102,296.972031L146.129979,288.573969L142.593149,283.696746L128.330142,269.036575L126.227119,266.030028L125.398498,263.165950L126.183136,260.579869L128.411819,258.137535L129.438853,257.214763L130.549374,256.491979L131.657395,256.101461L132.933928,255.911560L136.642399,248.694683L137.110870,242.783080L134.425769,238.110997L128.586652,234.810935L104.968612,234.031309L93.017495,230.214160L83.907700,222.031621L80.762457,211.969956L81.199915,189.908275L76.459371,177.972223L60.765669,166.607094L21.396051,163.336248L0.714142,161.607709L19.456723,181.590380L25.973997,193.082041L28.863529,211.452077L27.183737,227.919394L21.605782,233.849743L13.056172,239.353036L2.625119,254.806625L10.981493,270.172174L51.400036,295.993880L71.372258,318.363444L80.528476,332.795513L86.701927,348.132384L88.928625,367.490856L82.897841,396.684772L83.251009,415.961572L90.252546,435.491863L101.847655,446.284827L115.005391,454.030363L126.866723,464.488279L134.108414,477.236155L135.718118,490.407307L135.803041,502.105096L138.389156,510.298735L262.997812,578.206258L263.852310,578.210751L276.435927,590.770023L306.847770,594.106050L320.722250,607.459605L322.778905,626.276570L316.973384,643.597372L315.971144,657.549511L349.776097,677.626855L361.570391,682.256858L366.672793,691.579644L405.857634,699.141303Z "/>
  </g>
  <g class="" id="soorp">
    <path d="M104.162615,379.086462L118.330733,384.128368L143.928825,380.324547L150.638792,394.823478L161.156855,394.436990L162.457791,386.540827L184.437511,357.277774L180.441966,342.592291L180.103333,342.696614L176.686630,333.028410L165.628228,320.707850L164.958076,311.861564L168.067478,310.613889L175.345464,298.628083L170.010879,295.202916L179.184437,282.737987L174.532953,281.673804L173.628835,277.481774L163.922206,267.216610L157.452662,268.981955L147.198288,262.237644L145.414089,256.686737L134.524887,249.339988L143.536401,238.735561L151.959133,244.337890L156.897725,234.226009L146.893721,218.557164L138.641819,221.321860L127.330046,218.055337L109.989922,218.002362L103.574886,212.366251L104.191701,195.059737L99.429269,188.659424L100.471918,170.342489L88.953746,158.225402L87.632430,151.636501L57.760118,153.214041L45.264994,156.860624L32.374243,158.312843L33.635532,154.435278L22.212680,156.407266L24.313430,160.744998L37.849458,166.531499L42.425281,172.200358L36.965314,180.213699L42.300340,195.068713L49.612199,200.775890L52.986953,208.619525L42.410719,219.398585L35.856670,223.370356L33.562253,221.250448L18.783741,228.580277L17.940073,240.038100L12.870753,242.069991L14.665148,245.732455L25.708379,249.193874L29.510142,260.120548L38.170181,264.933633L54.668770,269.214179L58.515619,263.261323L61.276247,266.773257L57.380929,270.309602L68.005261,275.192448L68.843414,294.793796L72.899547,292.093703L83.025390,296.504029L84.188507,302.249648L88.849472,303.048282L87.654933,310.465351L94.666224,312.657318L101.116915,322.289163L107.275691,341.291691L109.079569,349.885608L114.736153,350.507815L104.089959,378.959692L104.162615,379.086462Z " data-code="soorp-As" data-name="Aš"/>
    <path d="M252.347675,196.132665L239.131576,206.407828L233.891852,215.848196L227.624582,231.459478L233.161246,255.811191L229.561476,262.366221L222.868459,261.057143L207.691065,265.672364L212.679186,266.519320L209.079711,276.682007L212.892272,282.719061L212.534904,288.224582L203.550188,300.683081L205.979964,307.504417L215.563069,319.575080L203.456905,333.846483L214.716894,344.285854L207.694000,346.186629L180.458109,342.590990L180.441966,342.592291L184.437511,357.277774L162.457791,386.540827L161.156855,394.436990L150.638792,394.823478L143.928825,380.324547L118.330733,384.128368L104.162615,379.086462L104.332350,379.382576L97.334997,382.575183L98.414355,405.902816L101.712794,425.695776L108.204319,435.016421L118.349898,433.409962L126.372972,445.356635L137.409463,445.209961L144.031817,449.283961L144.583189,454.079155L154.693799,465.526267L161.377727,470.697466L152.783731,480.984327L149.810902,488.543799L160.314767,488.417968L169.461810,494.669821L180.458636,492.274510L196.716458,499.092066L198.793134,504.804609L196.684785,510.010731L201.397905,514.698578L207.356670,525.340132L214.878268,516.801409L222.751001,521.525435L224.275496,527.759403L232.193406,534.863398L238.461074,545.280258L244.850316,543.086396L250.917022,551.029672L267.242322,551.885259L264.055755,555.200444L267.295606,561.440277L281.072301,565.076865L290.915633,564.802246L286.651820,580.040122L291.135516,588.049023L313.927563,574.811768L320.694509,577.351021L328.441497,592.910660L339.486560,591.851509L347.167888,604.056152L347.377807,604.171454L355.531703,590.612381L360.606745,576.447025L360.518812,564.647916L364.427949,564.092802L366.265091,570.481652L379.088863,573.100373L397.638322,580.454048L408.724388,566.000130L413.993300,563.731224L424.575127,568.436600L417.874808,555.351606L418.437617,554.551885L418.240097,554.482844L434.423503,540.490036L440.279359,531.103553L448.634827,530.320185L452.850817,514.848832L449.535356,510.175910L440.258216,513.296499L430.604738,512.527133L425.869002,502.569397L424.452477,494.599055L424.466882,494.472606L424.439511,494.471608L417.026603,491.666852L411.391360,492.252356L410.784093,480.087991L415.571132,468.412499L407.412588,462.038662L398.903753,458.980707L398.747700,458.916845L398.742644,458.918827L386.779275,457.647605L384.262941,459.135019L370.051684,445.035545L372.519204,435.019216L364.889175,422.994966L354.976891,423.416451L352.066235,418.214347L337.204371,418.982516L334.344008,416.535953L338.879250,396.774376L336.765555,372.339652L357.807354,362.710240L357.932366,362.659274L357.931072,362.558883L357.458928,352.562693L350.553795,335.052034L338.777090,334.158438L347.132373,325.363502L353.876484,312.969456L345.703758,305.831925L345.291476,299.021891L352.195841,287.239475L343.880740,275.407001L337.083994,269.099076L329.540574,254.743406L324.804045,250.867131L322.033304,238.153126L322.069685,238.098573L322.269738,237.799009L314.036938,229.490386L298.643835,222.841606L295.664388,218.287138L278.340567,220.876056L278.441586,217.665566L260.484593,203.812924L252.667314,196.063011L252.347675,196.132665Z " data-code="soorp-Cheb" data-name="Cheb"/>
    <path d="M978.328807,320.825465L978.617712,320.626784L982.546877,319.651268L974.161433,304.997375L960.112033,301.701653L958.997084,293.036041L964.462002,293.521344L965.348514,278.409874L970.671551,272.890840L963.627105,271.926932L956.915654,267.975976L946.733485,265.218312L944.705878,260.058893L950.949117,252.085927L954.198590,251.254153L955.480785,242.639470L951.298119,229.195701L949.253715,229.547236L951.144204,216.261487L941.903685,215.830975L942.191780,202.768420L947.684220,186.639491L952.819881,186.310344L952.373560,178.025311L943.770213,173.778478L941.317047,165.249322L955.088088,149.096319L953.088784,143.247577L954.850978,136.746722L948.503530,132.772989L941.974737,114.642067L931.189182,112.092734L928.860993,104.247802L921.500151,111.987715L900.049603,113.915688L885.408917,112.528444L883.910682,109.090695L869.169361,105.202916L856.483274,117.587373L855.927483,120.302088L850.335339,113.377363L836.446461,111.933858L836.430326,111.943430L829.050213,110.581068L818.293983,126.398163L821.004267,134.018920L817.988788,132.249899L806.544272,139.732456L795.456390,148.558604L795.171198,156.664684L791.634281,164.535364L796.287123,167.007205L795.078111,179.603887L787.421610,173.439337L780.571556,174.293458L773.027211,190.446055L770.838432,202.106861L775.530628,204.903119L769.946334,211.525792L769.025761,217.310302L768.919676,217.267584L767.582866,216.781129L758.876225,208.622605L743.400117,200.457788L739.529053,205.671671L726.108898,206.076492L714.756743,209.637660L711.948816,216.263495L703.897347,223.995108L698.999224,216.948914L675.952424,209.345786L674.248470,213.025875L659.612375,207.422390L658.670711,204.423571L652.198695,206.099349L636.915139,206.145262L630.804353,204.215732L625.302660,195.176899L627.459827,189.652493L615.216617,181.235953L618.221761,176.976806L609.543354,166.629965L609.472782,166.584366L609.380335,166.387689L614.102832,160.977772L610.802125,148.045720L603.546953,146.179459L582.150150,120.686391L580.801905,113.461925L568.382826,108.868316L564.128667,99.232704L564.571711,90.794570L556.159975,86.412123L548.158941,75.062843L524.328127,63.442352L519.747882,57.660920L519.746438,57.670169L492.007953,32.518057L477.512602,39.662862L463.327110,38.222108L463.211988,38.195952L471.935248,52.838408L475.947575,52.461278L484.156172,64.023091L490.139139,64.893347L481.504973,81.526545L484.060808,91.876403L477.559588,93.016749L477.680508,113.331578L487.034839,123.797349L488.627919,142.842561L481.640144,154.214917L488.899559,170.476820L494.007693,164.342637L501.432005,167.760916L498.613566,169.953138L505.487668,175.958666L512.794766,172.721076L515.753739,177.612904L506.356244,186.590691L505.829201,186.657525L506.501544,186.612010L521.137731,206.564725L531.849459,210.700770L531.262169,220.466046L551.478203,213.558706L551.591908,213.482971L551.598079,213.487252L550.461499,218.172877L555.922703,240.580151L570.629690,245.871035L561.530880,258.330883L566.507668,273.784927L566.442293,283.609565L571.979921,282.778505L571.956134,294.583512L565.323800,308.516170L564.833611,309.219095L564.882780,309.246930L570.750135,308.502478L573.806365,313.433849L586.429162,319.948959L590.602637,327.906659L592.020521,318.742973L594.997369,316.933958L605.737491,319.820834L605.800574,319.820205L606.487355,319.813958L607.816582,320.377386L609.489521,320.780418L609.684687,320.668433L616.611336,320.443240L629.140741,329.888781L625.128430,336.471357L617.913718,342.287046L609.815418,343.907296L609.761932,343.907323L609.827199,344.715002L609.546890,352.902045L617.317440,351.852806L624.331204,344.514088L628.199844,344.028327L633.116868,350.459512L630.725839,353.777967L633.622029,370.350243L629.518651,372.129434L627.792769,379.611624L635.331316,389.220295L641.827058,389.897718L649.218464,395.586826L653.484545,405.526546L653.315041,405.584876L652.668295,405.329510L644.787198,396.839815L636.919020,397.629113L635.574382,402.776796L624.396465,405.908063L618.176419,409.608493L621.881655,418.749828L628.695209,416.944680L636.152299,423.367278L637.358849,417.132440L645.999248,416.664706L646.122673,416.757578L646.150693,416.830028L650.004103,418.276743L649.225951,418.993870L648.109326,425.361268L648.189836,425.362998L648.279648,425.908631L639.640073,431.046100L637.966702,427.741537L632.693531,431.610087L633.305403,439.816562L628.601977,443.655361L627.454811,448.893072L611.216591,456.242659L608.608598,462.398665L599.722052,466.118408L603.597167,472.513868L615.146515,475.535061L619.693005,492.178724L624.470295,497.020681L614.731864,502.878932L618.697427,511.342422L614.906537,514.308571L618.863975,518.667264L618.840026,519.172583L618.937991,519.172451L621.594429,524.423460L635.202049,530.755856L642.844680,531.917678L652.501306,539.257906L657.170938,558.068907L663.190100,559.485788L669.379201,555.033798L695.338500,550.512432L704.530223,551.963494L713.357867,568.092970L712.385424,586.900221L702.127702,588.585023L695.846026,610.564008L708.415930,611.389973L713.185544,604.191014L725.901463,603.245306L725.911633,603.177975L730.842044,599.830067L741.989698,597.103648L751.320025,598.726730L763.120259,582.035108L768.401124,581.944889L775.709329,585.971668L777.464985,578.581702L784.292762,573.776153L790.071674,573.333216L792.099591,566.366769L802.946737,561.150582L805.917720,555.393340L817.892384,556.508542L819.722336,552.439624L816.366402,548.500724L819.411282,544.116631L830.368549,544.456631L829.448546,533.685082L829.969585,533.168224L830.462345,533.434242L841.169437,523.034442L845.775068,528.102240L846.959258,534.364927L853.699650,533.250688L859.943855,539.190174L865.751394,533.245901L869.963364,535.643492L882.008589,535.460114L907.383768,545.941081L910.400819,552.802731L913.623024,551.125199L931.481492,567.777341L934.797033,569.406238L955.062562,566.124737L952.793480,562.990032L950.760637,550.900187L958.376056,537.238543L961.077678,537.011678L957.743676,521.631161L949.232904,513.170551L954.226242,509.494290L968.913188,508.940526L973.403807,500.969681L986.382597,498.444325L992.147373,500.314289L1000.000000,491.065895L1000.000000,469.741374L990.681161,467.994444L1000.000000,449.092786L993.291091,441.345049L1000.000000,439.687507L1000.000000,417.978812L993.392473,420.197019L991.077008,408.419492L979.812422,402.638375L965.703304,406.891825L961.274853,405.408000L949.852447,395.679833L958.848161,394.820417L955.634405,388.659329L968.840203,380.993353L981.400917,384.433651L987.353618,389.453553L992.244399,384.766778L988.500481,378.978188L991.182415,376.839423L980.565952,370.424492L986.589221,362.822026L994.281504,363.209564L997.221295,351.111222L990.608660,343.945866L986.476696,328.514683L978.491072,321.422611L978.328807,320.825465Z " data-code="soorp-Karlovy_Vary" data-name="Karlovy Vary"/>
    <path d="M424.674251,44.189729L423.056669,44.577608L421.570420,44.933652L420.573460,44.966356L419.202021,44.997282L398.424034,54.415719L375.795819,55.556515L373.836177,57.669109L360.447347,57.249360L346.486200,80.754023L341.735429,84.881417L338.470375,91.757389L343.411185,112.064577L336.459785,121.843517L324.283755,111.849704L307.937564,122.909533L285.646677,152.743702L269.972429,151.243760L265.877754,154.663462L267.834294,158.813972L266.056815,171.339794L267.498812,188.770256L266.279147,191.130296L253.043309,195.974715L252.667314,196.063011L260.484593,203.812924L278.441586,217.665566L278.340567,220.876056L295.664388,218.287138L298.643835,222.841606L314.036938,229.490386L322.269738,237.799009L322.069685,238.098573L322.096230,238.112702L333.645491,234.777329L342.149759,234.753150L353.366390,229.304146L363.716907,239.769273L363.436006,247.973397L367.013751,242.757825L371.571787,244.740034L373.149753,255.604254L382.132621,260.518857L387.096821,257.562038L388.731594,261.440890L406.420983,257.878493L417.966547,257.926569L418.469580,254.406360L435.076183,257.242097L434.485628,253.369096L441.054149,233.985813L455.600696,238.977465L465.834181,249.341487L463.822150,231.553939L469.528443,225.173422L477.908863,228.362964L481.803420,232.030987L493.689258,238.289539L493.763967,238.432847L493.912953,238.334473L487.469397,211.533081L488.865958,207.054040L483.938271,200.298496L491.820563,202.876386L492.005201,191.937497L499.980041,191.075196L505.591784,186.695714L505.829201,186.657525L506.356244,186.590691L515.753739,177.612904L512.794766,172.721076L505.487668,175.958666L498.613566,169.953138L501.432005,167.760916L494.007693,164.342637L488.899559,170.476820L481.640144,154.214917L488.627919,142.842561L487.034839,123.797349L477.680508,113.331578L477.559588,93.016749L484.060808,91.876403L481.504973,81.526545L490.139139,64.893347L484.156172,64.023091L475.947575,52.461278L471.935248,52.838408L463.211988,38.195952L463.174541,38.187436L450.721739,33.821028L446.551992,33.917763L438.960250,39.806089L438.016887,43.111447L429.038880,46.775945L426.051231,44.415436L424.674251,44.189729Z " data-code="soorp-Kraslice" data-name="Kraslice"/>
    <path d="M725.901463,603.245306L713.185544,604.191014L708.415930,611.389973L695.846026,610.564008L702.127702,588.585023L712.385424,586.900221L713.357867,568.092970L704.530223,551.963494L695.338500,550.512432L669.379201,555.033798L663.190100,559.485788L657.170938,558.068907L652.501306,539.257906L642.844680,531.917678L635.202049,530.755856L621.594429,524.423460L618.937991,519.172451L618.840026,519.172583L618.737143,519.531518L602.015304,509.540639L588.883708,503.479230L586.932275,498.419108L579.778526,505.854917L571.914159,505.091061L571.567502,500.236572L560.611539,486.473082L548.938904,479.382152L538.365318,481.454508L533.636329,476.302489L535.898944,472.074021L532.957668,467.910113L532.547445,467.629241L532.501536,467.613063L501.639012,474.397975L502.476111,487.125735L493.639523,497.188913L480.383406,494.740092L475.168293,486.563759L467.951401,469.889652L466.859406,484.213332L461.995264,495.163144L454.954506,494.996821L452.097331,500.482748L443.347578,505.651613L435.707757,504.143934L434.446146,494.730399L427.583723,492.410852L424.473240,494.330115L424.466882,494.472606L424.452477,494.599055L425.869002,502.569397L430.604738,512.527133L440.258216,513.296499L449.535356,510.175910L452.850817,514.848832L448.634827,530.320185L440.279359,531.103553L434.423503,540.490036L418.240097,554.482844L418.437618,554.551886L417.874808,555.351606L424.575127,568.436600L413.993300,563.731224L408.724388,566.000130L397.638322,580.454048L379.088863,573.100373L366.265091,570.481652L364.427949,564.092802L360.518812,564.647916L360.606745,576.447025L355.531703,590.612381L347.377807,604.171454L347.029671,604.377304L343.602265,606.223385L337.410741,622.281136L334.843275,621.712769L322.639373,635.537918L328.860673,649.844983L342.589905,650.736647L350.655129,658.743006L372.528451,663.622641L385.746568,669.254617L389.405915,690.192574L415.114555,692.869299L419.147008,696.420801L439.391118,696.680916L441.890483,684.108268L451.391026,679.047085L467.653026,676.192683L478.676930,678.900695L484.299834,683.500442L488.109996,699.141303L498.489374,699.141303L492.120999,686.474692L508.232191,681.059281L523.787003,680.579596L521.222133,669.972039L515.519623,663.898980L521.801533,663.824856L531.915135,668.961084L544.198249,663.338917L550.506924,655.754498L555.048552,658.797445L566.924989,652.351028L573.987468,658.408447L588.984999,648.411978L586.521338,645.304254L596.319665,649.068067L608.881702,647.950982L608.802748,653.073659L625.475154,654.458451L628.889416,653.576898L640.169978,666.310720L654.705034,662.698693L670.886273,653.027948L692.145534,665.453386L696.594577,669.962901L701.403497,668.019700L699.891025,663.198291L708.199672,665.368719L722.323691,647.701505L725.740934,649.120915L733.167020,639.284821L727.514415,633.945965L735.490780,628.777657L735.260363,620.041685L725.742022,610.117012L725.904868,603.488592L725.901463,603.245306Z " data-code="soorp-Marianske_Lazne" data-name="Mariánské Lázně"/>
    <path d="M519.747882,57.660920L524.328127,63.442352L548.158941,75.062843L556.159975,86.412123L564.571711,90.794570L564.128667,99.232704L568.382826,108.868316L580.801905,113.461925L582.150150,120.686391L603.546953,146.179459L610.802125,148.045720L614.102832,160.977772L609.380335,166.387689L609.472782,166.584366L609.543354,166.629965L618.221761,176.976806L615.216617,181.235953L627.459827,189.652493L625.302660,195.176899L630.804353,204.215732L636.915139,206.145262L652.198695,206.099349L658.670711,204.423571L659.612375,207.422390L674.248470,213.025875L675.952424,209.345786L698.999224,216.948914L703.897347,223.995108L711.948816,216.263495L714.756743,209.637660L726.108898,206.076492L739.529053,205.671671L743.400117,200.457788L758.876225,208.622605L767.582866,216.781129L768.919676,217.267584L769.025761,217.310302L769.946334,211.525792L775.530628,204.903119L770.838432,202.106861L773.027211,190.446055L780.571556,174.293458L787.421610,173.439337L795.078111,179.603887L796.287123,167.007205L791.634281,164.535364L795.171198,156.664684L795.456390,148.558604L806.544272,139.732456L817.988788,132.249899L821.004267,134.018920L818.293983,126.398163L829.050213,110.581068L836.430326,111.943430L836.423087,111.896575L836.806529,107.767992L842.928379,93.471811L849.038937,89.916521L838.990727,76.192066L829.688447,78.958820L820.694183,71.879422L798.551270,68.153295L797.434042,74.201229L778.982872,63.916059L777.376570,59.949368L757.007249,65.205087L748.598284,63.069127L745.760891,64.520662L734.368942,56.761042L717.356203,48.020626L708.491482,46.036009L706.357279,37.720847L698.137246,33.162238L690.842099,26.496239L683.918079,25.023513L674.554316,17.250080L655.500893,5.704167L647.991856,0.000000L601.970846,0.510318L604.519459,14.307055L595.952283,0.000000L571.933088,0.000000L540.538998,17.553765L539.699940,23.442762L530.690041,31.785931L520.528180,43.212506L519.750854,57.641472L519.747882,57.660920Z " data-code="soorp-Ostrov" data-name="Ostrov"/>
    <path d="M505.829201,186.657525L505.591784,186.695714L499.980041,191.075196L492.005201,191.937497L491.820563,202.876386L483.938271,200.298496L488.865958,207.054040L487.469397,211.533081L493.912953,238.334473L493.763967,238.432847L493.689258,238.289539L481.803420,232.030987L477.908863,228.362964L469.528443,225.173422L463.822150,231.553939L465.834181,249.341487L455.600696,238.977465L441.054149,233.985813L434.485628,253.369096L435.076183,257.242097L418.469580,254.406360L417.966547,257.926569L406.420983,257.878493L388.731594,261.440890L387.096821,257.562038L382.132621,260.518857L373.149753,255.604254L371.571787,244.740034L367.013751,242.757825L363.436006,247.973397L363.716907,239.769273L353.366390,229.304146L342.149759,234.753150L333.645491,234.777329L322.096230,238.112702L322.069685,238.098573L322.033304,238.153126L324.804045,250.867131L329.540574,254.743406L337.083994,269.099076L343.880740,275.407001L352.195841,287.239475L345.291476,299.021891L345.703758,305.831925L353.876484,312.969456L347.132373,325.363502L338.777090,334.158438L350.553795,335.052034L357.458928,352.562693L357.931072,362.558883L357.932366,362.659274L357.807354,362.710240L336.765555,372.339652L338.879250,396.774376L334.344008,416.535953L337.204371,418.982516L352.066235,418.214347L354.976891,423.416451L364.889175,422.994966L372.519204,435.019216L370.051684,445.035545L384.262941,459.135019L386.779275,457.647605L398.742644,458.918827L398.747700,458.916845L398.903753,458.980707L407.412588,462.038662L415.571132,468.412499L410.784093,480.087991L411.391360,492.252356L417.026603,491.666852L424.439511,494.471608L424.466882,494.472606L424.473240,494.330115L427.583723,492.410852L434.446146,494.730399L435.707757,504.143934L443.347578,505.651613L452.097331,500.482748L454.954506,494.996821L461.995264,495.163144L466.859406,484.213332L467.951401,469.889652L475.168293,486.563759L480.383406,494.740092L493.639523,497.188913L502.476111,487.125735L501.639012,474.397975L532.501536,467.613063L532.547445,467.629241L532.957668,467.910113L535.898944,472.074021L533.636329,476.302489L538.365318,481.454508L548.938904,479.382152L560.611539,486.473082L571.567502,500.236572L571.914159,505.091061L579.778526,505.854917L586.932275,498.419108L588.883708,503.479230L602.015304,509.540639L618.737143,519.531518L618.840026,519.172583L618.863975,518.667264L614.906537,514.308571L618.697427,511.342422L614.731864,502.878932L624.470295,497.020681L619.693005,492.178724L615.146515,475.535061L603.597167,472.513868L599.722052,466.118408L608.608598,462.398665L611.216591,456.242659L627.454811,448.893072L628.601977,443.655361L633.305403,439.816562L632.693531,431.610087L637.966702,427.741537L639.640073,431.046100L648.279648,425.908631L648.189836,425.362998L648.109326,425.361268L649.225951,418.993870L650.004103,418.276743L646.150693,416.830028L646.122673,416.757578L645.999248,416.664706L637.358849,417.132440L636.152299,423.367278L628.695209,416.944680L621.881655,418.749828L618.176419,409.608493L624.396465,405.908063L635.574382,402.776796L636.919020,397.629113L644.787198,396.839815L652.668295,405.329510L653.315041,405.584876L653.484545,405.526546L649.218464,395.586826L641.827058,389.897718L635.331316,389.220295L627.792769,379.611624L629.518651,372.129434L633.622029,370.350243L630.725839,353.777967L633.116868,350.459512L628.199844,344.028327L624.331204,344.514088L617.317440,351.852806L609.546890,352.902045L609.827199,344.715002L609.761932,343.907323L609.815418,343.907296L617.913718,342.287046L625.128430,336.471357L629.140741,329.888781L616.611336,320.443240L609.684687,320.668433L609.489521,320.780418L607.816582,320.377386L606.487355,319.813958L605.800574,319.820205L605.737491,319.820834L594.997369,316.933958L592.020521,318.742973L590.602637,327.906659L586.429162,319.948959L573.806365,313.433849L570.750135,308.502478L564.882780,309.246930L564.833611,309.219095L565.323800,308.516170L571.956134,294.583512L571.979921,282.778505L566.442293,283.609565L566.507668,273.784927L561.530880,258.330883L570.629690,245.871035L555.922703,240.580151L550.461499,218.172877L551.598079,213.487252L551.591908,213.482971L551.478203,213.558706L531.262169,220.466046L531.849459,210.700770L521.137731,206.564725L506.501544,186.612010L505.829201,186.657525Z " data-code="soorp-Sokolov" data-name="Sokolov"/>
  </g>
  <g class="" id="soopu">
    <path d="M104.162615,379.086462L118.330733,384.128368L143.928825,380.324547L150.638792,394.823478L161.156855,394.436990L162.457791,386.540827L184.437511,357.277774L180.441966,342.592291L180.103333,342.696614L176.686630,333.028410L165.628228,320.707850L164.958076,311.861564L168.067478,310.613889L175.345464,298.628083L170.010879,295.202916L179.184437,282.737987L174.532953,281.673804L173.628835,277.481774L163.922206,267.216610L157.452662,268.981955L147.198288,262.237644L145.414089,256.686737L134.524887,249.339988L143.536401,238.735561L151.959133,244.337890L156.897725,234.226009L146.893721,218.557164L138.641819,221.321860L127.330046,218.055337L109.989922,218.002362L103.574886,212.366251L104.191701,195.059737L99.429269,188.659424L100.471918,170.342489L88.953746,158.225402L87.632430,151.636501L57.760118,153.214041L45.264994,156.860624L32.374243,158.312843L33.635532,154.435278L22.212680,156.407266L24.313430,160.744998L37.849458,166.531499L42.425281,172.200358L36.965314,180.213699L42.300340,195.068713L49.612199,200.775890L52.986953,208.619525L42.410719,219.398585L35.856670,223.370356L33.562253,221.250448L18.783741,228.580277L17.940073,240.038100L12.870753,242.069991L14.665148,245.732455L25.708379,249.193874L29.510142,260.120548L38.170181,264.933633L54.668770,269.214179L58.515619,263.261323L61.276247,266.773257L57.380929,270.309602L68.005261,275.192448L68.843414,294.793796L72.899547,292.093703L83.025390,296.504029L84.188507,302.249648L88.849472,303.048282L87.654933,310.465351L94.666224,312.657318L101.116915,322.289163L107.275691,341.291691L109.079569,349.885608L114.736153,350.507815L104.089959,378.959692L104.162615,379.086462Z " data-code="soopu-As" data-name="Aš"/>
    <path d="M252.347675,196.132665L239.131576,206.407828L233.891852,215.848196L227.624582,231.459478L233.161246,255.811191L229.561476,262.366221L222.868459,261.057143L207.691065,265.672364L212.679186,266.519320L209.079711,276.682007L212.892272,282.719061L212.534904,288.224582L203.550188,300.683081L205.979964,307.504417L215.563069,319.575080L203.456905,333.846483L214.716894,344.285854L207.694000,346.186629L180.458109,342.590990L180.441966,342.592291L184.437511,357.277774L162.457791,386.540827L161.156855,394.436990L150.638792,394.823478L143.928825,380.324547L118.330733,384.128368L104.162615,379.086462L104.332350,379.382576L97.334997,382.575183L98.414355,405.902816L101.712794,425.695776L108.204319,435.016421L118.349898,433.409962L126.372972,445.356635L137.409463,445.209961L144.031817,449.283961L144.583189,454.079155L154.693799,465.526267L161.377727,470.697466L152.783731,480.984327L149.810902,488.543799L160.314767,488.417968L169.461810,494.669821L180.458636,492.274510L196.716458,499.092066L198.793134,504.804609L196.684785,510.010731L201.397905,514.698578L207.356670,525.340132L214.878268,516.801409L222.751001,521.525435L224.275496,527.759403L232.193406,534.863398L238.461074,545.280258L244.850316,543.086396L250.917022,551.029672L267.242322,551.885259L264.055755,555.200444L267.295606,561.440277L281.072301,565.076865L290.915633,564.802246L286.651820,580.040122L291.135516,588.049023L313.927563,574.811768L320.694509,577.351021L328.441497,592.910660L339.486560,591.851509L347.167888,604.056152L347.377807,604.171454L355.531703,590.612381L360.606745,576.447025L360.518812,564.647916L364.427949,564.092802L366.265091,570.481652L379.088863,573.100373L397.638322,580.454048L408.724388,566.000130L413.993300,563.731224L424.575127,568.436600L417.874808,555.351606L418.437617,554.551885L418.240097,554.482844L434.423503,540.490036L440.279359,531.103553L448.634827,530.320185L452.850817,514.848832L449.535356,510.175910L440.258216,513.296499L430.604738,512.527133L425.869002,502.569397L424.452477,494.599055L424.466882,494.472606L424.439511,494.471608L417.026603,491.666852L411.391360,492.252356L410.784093,480.087991L415.571132,468.412499L407.412588,462.038662L398.903753,458.980707L398.747700,458.916845L398.742644,458.918827L386.779275,457.647605L384.262941,459.135019L370.051684,445.035545L372.519204,435.019216L364.889175,422.994966L354.976891,423.416451L352.066235,418.214347L337.204371,418.982516L334.344008,416.535953L338.879250,396.774376L336.765555,372.339652L357.807354,362.710240L357.932366,362.659274L357.931072,362.558883L357.458928,352.562693L350.553795,335.052034L338.777090,334.158438L347.132373,325.363502L353.876484,312.969456L345.703758,305.831925L345.291476,299.021891L352.195841,287.239475L343.880740,275.407001L337.083994,269.099076L329.540574,254.743406L324.804045,250.867131L322.033304,238.153126L322.069685,238.098573L322.269738,237.799009L314.036938,229.490386L298.643835,222.841606L295.664388,218.287138L278.340567,220.876056L278.441586,217.665566L260.484593,203.812924L252.667314,196.063011L252.347675,196.132665Z " data-code="soopu-Cheb" data-name="Cheb"/>
    <path d="M551.591908,213.482971L551.598079,213.487252L550.461499,218.172877L555.922703,240.580151L570.629690,245.871035L561.530880,258.330883L566.507668,273.784927L566.442293,283.609565L571.979921,282.778505L571.956134,294.583512L565.323800,308.516170L564.833611,309.219095L564.882780,309.246930L570.750135,308.502478L573.806365,313.433849L586.429162,319.948959L590.602637,327.906659L592.020521,318.742973L594.997369,316.933958L605.737491,319.820834L605.800574,319.820205L606.487355,319.813958L607.816582,320.377386L609.489521,320.780418L609.684687,320.668433L616.611336,320.443240L629.140741,329.888781L625.128430,336.471357L617.913718,342.287046L609.815418,343.907296L609.761932,343.907323L609.827199,344.715002L609.546890,352.902045L617.317440,351.852806L624.331204,344.514088L628.199844,344.028327L633.116868,350.459512L630.725839,353.777967L633.622029,370.350243L629.518651,372.129434L627.792769,379.611624L635.331316,389.220295L641.827058,389.897718L649.218464,395.586826L653.484545,405.526546L653.315041,405.584876L653.976931,405.549249L655.448329,405.270693L658.661689,408.280783L646.090490,416.426859L646.122673,416.757578L646.150693,416.830028L650.004103,418.276743L649.225951,418.993870L648.109326,425.361268L648.189836,425.362998L648.293971,425.347355L664.829484,428.029580L666.082795,421.866758L672.154257,425.119393L692.805400,423.236986L697.609349,414.651314L708.699518,404.662358L713.508897,410.602510L718.227633,409.076610L725.237714,411.993627L736.326233,407.526013L744.562619,418.051898L748.543851,418.447214L748.746395,429.364475L750.967500,438.671730L787.365710,450.874850L788.555138,445.310275L791.846207,448.148584L799.272009,442.941487L808.160258,455.974958L808.175398,455.990801L808.432977,456.006538L814.637429,455.168496L829.015101,448.079397L826.325452,442.814321L833.992715,434.538796L834.048319,430.836584L843.737350,422.033849L844.193246,394.004823L851.305230,394.771898L852.699031,381.200206L843.056142,367.729605L852.140546,361.434020L852.188111,361.423232L852.160870,361.335900L834.085714,349.784900L830.601148,351.177066L825.017329,347.922649L818.672212,355.407396L807.885534,359.368521L793.984003,342.198094L770.321586,344.544545L768.642360,341.568825L771.661733,332.893868L775.999090,329.875052L773.215631,318.847823L762.877595,317.672418L759.454579,312.290212L749.334031,311.245309L737.874423,308.283442L738.069049,308.014264L738.058971,307.986953L741.115591,287.710791L743.870576,286.373628L744.013500,286.276600L744.175023,286.166947L747.741131,278.295822L754.317819,272.384248L753.148528,264.423678L758.789964,265.049102L756.412812,252.008899L757.020675,240.715228L765.409009,235.512630L759.469048,225.872767L759.266992,225.584162L759.284397,225.395984L763.035460,216.107716L763.791326,216.692118L768.825728,217.325862L768.919676,217.267584L767.582866,216.781129L758.876225,208.622605L743.400117,200.457788L739.529053,205.671671L726.108898,206.076492L714.756743,209.637660L711.948816,216.263495L703.897347,223.995108L698.999224,216.948914L675.952424,209.345786L674.248470,213.025875L659.612375,207.422390L658.670711,204.423571L652.198695,206.099349L636.915139,206.145262L630.804353,204.215732L625.302660,195.176899L627.459827,189.652493L615.216617,181.235953L618.221761,176.976806L609.543354,166.629965L609.472782,166.584366L609.067632,166.688330L590.741789,172.375239L594.057444,184.512782L589.747819,197.774932L582.554220,206.607492L577.554556,205.016167L575.674112,208.383421L570.453761,201.638207L567.254819,202.465377L559.272647,190.309171L541.608572,190.801851L540.226937,194.834759L551.425014,213.435369L551.591908,213.482971Z " data-code="soopu-Karlovy_Vary" data-name="Karlovy Vary"/>
    <path d="M463.211988,38.195952L471.935248,52.838408L475.947575,52.461278L484.156172,64.023091L490.139139,64.893347L481.504973,81.526545L484.060808,91.876403L477.559588,93.016749L477.680508,113.331578L487.034839,123.797349L488.627919,142.842561L481.640144,154.214917L488.899559,170.476820L494.007693,164.342637L501.432005,167.760916L498.613566,169.953138L505.487668,175.958666L512.794766,172.721076L515.753739,177.612904L506.356244,186.590691L505.829201,186.657525L506.501544,186.612010L521.137731,206.564725L531.849459,210.700770L531.262169,220.466046L551.478203,213.558706L551.591908,213.482971L551.425014,213.435369L540.226937,194.834759L541.608572,190.801851L559.272647,190.309171L567.254819,202.465377L570.453761,201.638207L575.674112,208.383421L577.554556,205.016167L582.554220,206.607492L589.747819,197.774932L594.057444,184.512782L590.741789,172.375239L609.067632,166.688330L609.472782,166.584366L609.380335,166.387689L614.102832,160.977772L610.802125,148.045720L603.546953,146.179459L582.150150,120.686391L580.801905,113.461925L568.382826,108.868316L564.128667,99.232704L564.571711,90.794570L556.159975,86.412123L548.158941,75.062843L524.328127,63.442352L519.747882,57.660920L519.746438,57.670169L492.007953,32.518057L477.512602,39.662862L463.327110,38.222108L463.211988,38.195952Z " data-code="soopu-Nejdek" data-name="Nejdek"/>
    <path d="M648.189836,425.362998L648.279648,425.908631L639.640073,431.046100L637.966702,427.741537L632.693531,431.610087L633.305403,439.816562L628.601977,443.655361L627.454811,448.893072L611.216591,456.242659L608.608598,462.398665L599.722052,466.118408L603.597167,472.513868L615.146515,475.535061L619.693005,492.178724L624.470295,497.020681L614.731864,502.878932L618.697427,511.342422L614.906537,514.308571L618.863975,518.667264L618.840026,519.172583L618.937991,519.172451L621.594429,524.423460L635.202049,530.755856L642.844680,531.917678L652.501306,539.257906L657.170938,558.068907L663.190100,559.485788L669.379201,555.033798L695.338500,550.512432L704.530223,551.963494L713.357867,568.092970L712.385424,586.900221L702.127702,588.585023L695.846026,610.564008L708.415930,611.389973L713.185544,604.191014L725.901463,603.245306L725.911633,603.177975L730.842044,599.830067L741.989698,597.103648L751.320025,598.726730L763.120259,582.035108L768.401124,581.944889L775.709329,585.971668L777.464985,578.581702L784.292762,573.776153L790.071674,573.333216L792.099591,566.366769L802.946737,561.150582L805.917720,555.393340L817.892384,556.508542L819.722336,552.439624L816.366402,548.500724L819.411282,544.116631L830.368549,544.456631L829.448546,533.685082L829.969585,533.168224L829.425369,532.867357L825.772533,523.133343L826.780842,511.181911L812.599793,502.245313L814.329879,495.186679L811.527467,494.151557L811.084885,481.162429L798.370311,475.011726L813.955984,463.494689L808.146245,456.038690L808.175398,455.990801L808.160258,455.974958L799.272009,442.941487L791.846207,448.148584L788.555138,445.310275L787.365710,450.874850L750.967500,438.671730L748.746395,429.364475L748.543851,418.447214L744.562619,418.051898L736.326233,407.526013L725.237714,411.993627L718.227633,409.076610L713.508897,410.602510L708.699518,404.662358L697.609349,414.651314L692.805400,423.236986L672.154257,425.119393L666.082795,421.866758L664.829484,428.029580L648.293971,425.347355L648.189836,425.362998Z M646.122673,416.757578L646.090490,416.426859L658.661689,408.280783L655.448329,405.270693L653.976931,405.549249L653.315041,405.584876L652.668295,405.329510L644.787198,396.839815L636.919020,397.629113L635.574382,402.776796L624.396465,405.908063L618.176419,409.608493L621.881655,418.749828L628.695209,416.944680L636.152299,423.367278L637.358849,417.132440L645.999248,416.664706L646.122673,416.757578Z " data-code="soopu-Touzim" data-name="Toužim"/>
    <path d="M978.328807,320.825465L978.253445,320.963678L975.375413,336.687631L972.624209,339.080392L966.879606,332.296940L959.703168,342.376996L938.647678,349.663484L934.224219,352.789053L929.294864,352.010597L913.225641,363.029535L898.184092,367.959785L894.092949,360.204024L887.820251,360.806696L885.352335,353.339264L875.328586,355.513726L869.910900,363.694978L852.372940,361.401680L852.188111,361.423232L852.140546,361.434020L843.056142,367.729605L852.699031,381.200206L851.305230,394.771898L844.193246,394.004823L843.737350,422.033849L834.048319,430.836584L833.992715,434.538796L826.325452,442.814321L829.015101,448.079397L814.637429,455.168496L808.432977,456.006538L808.175398,455.990801L808.146245,456.038690L813.955984,463.494689L798.370311,475.011726L811.084885,481.162429L811.527467,494.151557L814.329879,495.186679L812.599793,502.245313L826.780842,511.181911L825.772533,523.133343L829.425369,532.867357L829.969585,533.168224L830.462345,533.434242L841.169437,523.034442L845.775068,528.102240L846.959258,534.364927L853.699650,533.250688L859.943855,539.190174L865.751394,533.245901L869.963364,535.643492L882.008589,535.460114L907.383768,545.941081L910.400819,552.802731L913.623024,551.125199L931.481492,567.777341L934.797033,569.406238L955.062562,566.124737L952.793480,562.990032L950.760637,550.900187L958.376056,537.238543L961.077678,537.011678L957.743676,521.631161L949.232904,513.170551L954.226242,509.494290L968.913188,508.940526L973.403807,500.969681L986.382597,498.444325L992.147373,500.314289L1000.000000,491.065895L1000.000000,469.741374L990.681161,467.994444L1000.000000,449.092786L993.291091,441.345049L1000.000000,439.687507L1000.000000,417.978812L993.392473,420.197019L991.077008,408.419492L979.812422,402.638375L965.703304,406.891825L961.274853,405.408000L949.852447,395.679833L958.848161,394.820417L955.634405,388.659329L968.840203,380.993353L981.400917,384.433651L987.353618,389.453553L992.244399,384.766778L988.500481,378.978188L991.182415,376.839423L980.565952,370.424492L986.589221,362.822026L994.281504,363.209564L997.221295,351.111222L990.608660,343.945866L986.476696,328.514683L978.491072,321.422611L978.328807,320.825465Z " data-code="soopu-Zlutice" data-name="Žlutice"/>
    <path d="M768.919676,217.267584L768.825728,217.325862L763.791326,216.692118L763.035460,216.107716L759.284397,225.395984L759.266990,225.584162L759.469048,225.872767L765.409009,235.512630L757.020675,240.715228L756.412812,252.008899L758.789964,265.049102L753.148528,264.423678L754.317819,272.384248L747.741131,278.295822L744.175023,286.166947L744.013500,286.276599L743.870576,286.373628L741.115591,287.710791L738.058971,307.986953L738.069048,308.014263L737.874423,308.283442L749.334031,311.245309L759.454579,312.290212L762.877595,317.672418L773.215631,318.847823L775.999090,329.875052L771.661733,332.893868L768.642360,341.568825L770.321586,344.544545L793.984003,342.198094L807.885534,359.368521L818.672212,355.407396L825.017329,347.922649L830.601148,351.177066L834.085714,349.784900L852.160870,361.335900L852.188111,361.423232L852.372940,361.401680L869.910900,363.694978L875.328586,355.513726L885.352335,353.339264L887.820251,360.806696L894.092949,360.204024L898.184092,367.959785L913.225641,363.029535L929.294864,352.010597L934.224219,352.789053L938.647678,349.663484L959.703168,342.376996L966.879606,332.296940L972.624209,339.080392L975.375413,336.687631L978.253445,320.963678L978.328807,320.825465L978.617712,320.626784L982.546877,319.651268L974.161433,304.997375L960.112033,301.701653L958.997084,293.036041L964.462002,293.521344L965.348514,278.409874L970.671551,272.890840L963.627105,271.926932L956.915654,267.975976L946.733485,265.218312L944.705878,260.058893L950.949117,252.085927L954.198590,251.254153L955.480785,242.639470L951.298119,229.195701L949.253715,229.547236L951.144204,216.261487L941.903685,215.830975L942.191780,202.768420L947.684220,186.639491L952.819881,186.310344L952.373560,178.025311L943.770213,173.778478L941.317047,165.249322L955.088088,149.096319L953.088784,143.247577L954.850978,136.746722L948.503530,132.772989L941.974737,114.642067L931.189182,112.092734L928.860993,104.247802L921.500151,111.987715L900.049603,113.915688L885.408917,112.528444L883.910682,109.090695L869.169361,105.202916L856.483274,117.587373L855.927483,120.302088L850.335339,113.377363L836.446461,111.933858L836.430326,111.943430L829.050213,110.581068L818.293983,126.398163L821.004267,134.018920L817.988788,132.249899L806.544272,139.732456L795.456390,148.558604L795.171198,156.664684L791.634281,164.535364L796.287123,167.007205L795.078111,179.603887L787.421610,173.439337L780.571556,174.293458L773.027211,190.446055L770.838432,202.106861L775.530628,204.903119L769.946334,211.525792L769.025761,217.310302L768.919676,217.267584Z " data-code="soopu-Vojensky_ujezd_Hradiste" data-name="Vojenský újezd Hradiště"/>
    <path d="M424.674251,44.189729L423.056669,44.577608L421.570420,44.933652L420.573460,44.966356L419.202021,44.997282L398.424034,54.415719L375.795819,55.556515L373.836177,57.669109L360.447347,57.249360L346.486200,80.754023L341.735429,84.881417L338.470375,91.757389L343.411185,112.064577L336.459785,121.843517L324.283755,111.849704L307.937564,122.909533L285.646677,152.743702L269.972429,151.243760L265.877754,154.663462L267.834294,158.813972L266.056815,171.339794L267.498812,188.770256L266.279147,191.130296L253.043309,195.974715L252.667314,196.063011L260.484593,203.812924L278.441586,217.665566L278.340567,220.876056L295.664388,218.287138L298.643835,222.841606L314.036938,229.490386L322.269738,237.799009L322.069685,238.098573L322.096230,238.112702L333.645491,234.777329L342.149759,234.753150L353.366390,229.304146L363.716907,239.769273L363.436006,247.973397L367.013751,242.757825L371.571787,244.740034L373.149753,255.604254L382.132621,260.518857L387.096821,257.562038L388.731594,261.440890L406.420983,257.878493L417.966547,257.926569L418.469580,254.406360L435.076183,257.242097L434.485628,253.369096L441.054149,233.985813L455.600696,238.977465L465.834181,249.341487L463.822150,231.553939L469.528443,225.173422L477.908863,228.362964L481.803420,232.030987L493.689258,238.289539L493.763967,238.432847L493.912953,238.334473L487.469397,211.533081L488.865958,207.054040L483.938271,200.298496L491.820563,202.876386L492.005201,191.937497L499.980041,191.075196L505.591784,186.695714L505.829201,186.657525L506.356244,186.590691L515.753739,177.612904L512.794766,172.721076L505.487668,175.958666L498.613566,169.953138L501.432005,167.760916L494.007693,164.342637L488.899559,170.476820L481.640144,154.214917L488.627919,142.842561L487.034839,123.797349L477.680508,113.331578L477.559588,93.016749L484.060808,91.876403L481.504973,81.526545L490.139139,64.893347L484.156172,64.023091L475.947575,52.461278L471.935248,52.838408L463.211988,38.195952L463.174541,38.187436L450.721739,33.821028L446.551992,33.917763L438.960250,39.806089L438.016887,43.111447L429.038880,46.775945L426.051231,44.415436L424.674251,44.189729Z " data-code="soopu-Kraslice" data-name="Kraslice"/>
    <path d="M725.901463,603.245306L713.185544,604.191014L708.415930,611.389973L695.846026,610.564008L702.127702,588.585023L712.385424,586.900221L713.357867,568.092970L704.530223,551.963494L695.338500,550.512432L669.379201,555.033798L663.190100,559.485788L657.170938,558.068907L652.501306,539.257906L642.844680,531.917678L635.202049,530.755856L621.594429,524.423460L618.937991,519.172451L618.840026,519.172583L618.737143,519.531518L602.015304,509.540639L588.883708,503.479230L586.932275,498.419108L579.778526,505.854917L571.914159,505.091061L571.567502,500.236572L560.611539,486.473082L548.938904,479.382152L538.365318,481.454508L533.636329,476.302489L535.898944,472.074021L532.957668,467.910113L532.547445,467.629241L532.501536,467.613063L501.639012,474.397975L502.476111,487.125735L493.639523,497.188913L480.383406,494.740092L475.168293,486.563759L467.951401,469.889652L466.859406,484.213332L461.995264,495.163144L454.954506,494.996821L452.097331,500.482748L443.347578,505.651613L435.707757,504.143934L434.446146,494.730399L427.583723,492.410852L424.473240,494.330115L424.466882,494.472606L424.452477,494.599055L425.869002,502.569397L430.604738,512.527133L440.258216,513.296499L449.535356,510.175910L452.850817,514.848832L448.634827,530.320185L440.279359,531.103553L434.423503,540.490036L418.240097,554.482844L418.437618,554.551886L417.874808,555.351606L424.575127,568.436600L413.993300,563.731224L408.724388,566.000130L397.638322,580.454048L379.088863,573.100373L366.265091,570.481652L364.427949,564.092802L360.518812,564.647916L360.606745,576.447025L355.531703,590.612381L347.377807,604.171454L347.029671,604.377304L343.602265,606.223385L337.410741,622.281136L334.843275,621.712769L322.639373,635.537918L328.860673,649.844983L342.589905,650.736647L350.655129,658.743006L372.528451,663.622641L385.746568,669.254617L389.405915,690.192574L415.114555,692.869299L419.147008,696.420801L439.391118,696.680916L441.890483,684.108268L451.391026,679.047085L467.653026,676.192683L478.676930,678.900695L484.299834,683.500442L488.109996,699.141303L498.489374,699.141303L492.120999,686.474692L508.232191,681.059281L523.787003,680.579596L521.222133,669.972039L515.519623,663.898980L521.801533,663.824856L531.915135,668.961084L544.198249,663.338917L550.506924,655.754498L555.048552,658.797445L566.924989,652.351028L573.987468,658.408447L588.984999,648.411978L586.521338,645.304254L596.319665,649.068067L608.881702,647.950982L608.802748,653.073659L625.475154,654.458451L628.889416,653.576898L640.169978,666.310720L654.705034,662.698693L670.886273,653.027948L692.145534,665.453386L696.594577,669.962901L701.403497,668.019700L699.891025,663.198291L708.199672,665.368719L722.323691,647.701505L725.740934,649.120915L733.167020,639.284821L727.514415,633.945965L735.490780,628.777657L735.260363,620.041685L725.742022,610.117012L725.904868,603.488592L725.901463,603.245306Z " data-code="soopu-Marianske_Lazne" data-name="Mariánské Lázně"/>
    <path d="M519.747882,57.660920L524.328127,63.442352L548.158941,75.062843L556.159975,86.412123L564.571711,90.794570L564.128667,99.232704L568.382826,108.868316L580.801905,113.461925L582.150150,120.686391L603.546953,146.179459L610.802125,148.045720L614.102832,160.977772L609.380335,166.387689L609.472782,166.584366L609.543354,166.629965L618.221761,176.976806L615.216617,181.235953L627.459827,189.652493L625.302660,195.176899L630.804353,204.215732L636.915139,206.145262L652.198695,206.099349L658.670711,204.423571L659.612375,207.422390L674.248470,213.025875L675.952424,209.345786L698.999224,216.948914L703.897347,223.995108L711.948816,216.263495L714.756743,209.637660L726.108898,206.076492L739.529053,205.671671L743.400117,200.457788L758.876225,208.622605L767.582866,216.781129L768.919676,217.267584L769.025761,217.310302L769.946334,211.525792L775.530628,204.903119L770.838432,202.106861L773.027211,190.446055L780.571556,174.293458L787.421610,173.439337L795.078111,179.603887L796.287123,167.007205L791.634281,164.535364L795.171198,156.664684L795.456390,148.558604L806.544272,139.732456L817.988788,132.249899L821.004267,134.018920L818.293983,126.398163L829.050213,110.581068L836.430326,111.943430L836.423087,111.896575L836.806529,107.767992L842.928379,93.471811L849.038937,89.916521L838.990727,76.192066L829.688447,78.958820L820.694183,71.879422L798.551270,68.153295L797.434042,74.201229L778.982872,63.916059L777.376570,59.949368L757.007249,65.205087L748.598284,63.069127L745.760891,64.520662L734.368942,56.761042L717.356203,48.020626L708.491482,46.036009L706.357279,37.720847L698.137246,33.162238L690.842099,26.496239L683.918079,25.023513L674.554316,17.250080L655.500893,5.704167L647.991856,0.000000L601.970846,0.510318L604.519459,14.307055L595.952283,0.000000L571.933088,0.000000L540.538998,17.553765L539.699940,23.442762L530.690041,31.785931L520.528180,43.212506L519.750854,57.641472L519.747882,57.660920Z " data-code="soopu-Ostrov" data-name="Ostrov"/>
    <path d="M609.761932,343.907323L609.769786,343.791060L594.701713,349.408696L579.981314,350.147231L580.640441,362.308668L573.258069,367.704255L574.156709,371.853486L560.101819,386.136614L554.933003,374.851256L550.340116,372.613096L538.359663,379.273030L537.773548,379.257985L537.764414,379.280530L528.947002,388.754329L525.477040,386.773876L531.420172,399.747361L541.846604,400.025823L540.446151,405.787220L549.488196,409.238563L545.437544,426.472603L547.481471,429.593930L556.360968,432.089722L556.744912,444.085002L548.630025,456.380289L540.209135,460.025297L532.624295,467.301885L532.547445,467.629241L532.957668,467.910113L535.898944,472.074021L533.636329,476.302489L538.365318,481.454508L548.938904,479.382152L560.611539,486.473082L571.567502,500.236572L571.914159,505.091061L579.778526,505.854917L586.932275,498.419108L588.883708,503.479230L602.015304,509.540639L618.737143,519.531518L618.840026,519.172583L618.863975,518.667264L614.906537,514.308571L618.697427,511.342422L614.731864,502.878932L624.470295,497.020681L619.693005,492.178724L615.146515,475.535061L603.597167,472.513868L599.722052,466.118408L608.608598,462.398665L611.216591,456.242659L627.454811,448.893072L628.601977,443.655361L633.305403,439.816562L632.693531,431.610087L637.966702,427.741537L639.640073,431.046100L648.279648,425.908631L648.189836,425.362998L648.109326,425.361268L649.225951,418.993870L650.004103,418.276743L646.150693,416.830028L646.122673,416.757578L645.999248,416.664706L637.358849,417.132440L636.152299,423.367278L628.695209,416.944680L621.881655,418.749828L618.176419,409.608493L624.396465,405.908063L635.574382,402.776796L636.919020,397.629113L644.787198,396.839815L652.668295,405.329510L653.315041,405.584876L653.484545,405.526546L649.218464,395.586826L641.827058,389.897718L635.331316,389.220295L627.792769,379.611624L629.518651,372.129434L633.622029,370.350243L630.725839,353.777967L633.116868,350.459512L628.199844,344.028327L624.331204,344.514088L617.317440,351.852806L609.546890,352.902045L609.827199,344.715002L609.761932,343.907323Z " data-code="soopu-Horni_Slavkov" data-name="Horní Slavkov"/>
    <path d="M505.829201,186.657525L505.591784,186.695714L499.980041,191.075196L492.005201,191.937497L491.820563,202.876386L483.938271,200.298496L488.865958,207.054040L487.469397,211.533081L493.912953,238.334473L493.763967,238.432847L493.661927,238.571474L485.762802,249.089117L479.955470,250.428881L477.561050,255.782334L478.956644,283.261692L491.065615,282.669690L504.021747,288.342678L506.531172,282.698960L511.405788,279.830583L517.455961,289.994723L522.364795,303.918363L517.478221,304.072374L513.319011,318.792820L513.305745,326.567049L513.297033,326.597372L513.729447,326.770569L521.415606,330.608727L531.374051,332.007535L538.548569,319.406592L542.906593,314.556975L555.605201,313.372210L564.554313,309.632549L564.833611,309.219095L565.323800,308.516170L571.956134,294.583512L571.979921,282.778505L566.442293,283.609565L566.507668,273.784927L561.530880,258.330883L570.629690,245.871035L555.922703,240.580151L550.461499,218.172877L551.598079,213.487252L551.591908,213.482971L551.478203,213.558706L531.262169,220.466046L531.849459,210.700770L521.137731,206.564725L506.501544,186.612010L505.829201,186.657525Z " data-code="soopu-Chodov" data-name="Chodov"/>
    <path d="M398.747700,458.916845L398.818708,458.809192L408.675685,442.396934L415.641938,437.514395L412.864649,430.708333L412.535871,415.771104L431.107858,395.868840L437.577643,387.717007L430.116415,386.803652L430.443939,384.160150L419.196936,386.146612L406.221729,399.014575L400.875146,395.939630L398.767765,383.914245L385.296281,384.048537L378.590575,394.654242L369.324924,394.543974L372.321233,383.175598L368.567414,376.679845L360.127738,375.684455L358.364400,362.436102L357.932366,362.659274L357.807354,362.710240L336.765555,372.339652L338.879250,396.774376L334.344008,416.535953L337.204371,418.982516L352.066235,418.214347L354.976891,423.416451L364.889175,422.994966L372.519204,435.019216L370.051684,445.035545L384.262941,459.135019L386.779275,457.647605L398.742644,458.918827L398.747700,458.916845Z " data-code="soopu-Kynsperk_nad_Ohri" data-name="Kynšperk nad Ohří"/>
    <path d="M564.833611,309.219095L564.554313,309.632549L555.605201,313.372210L542.906593,314.556975L538.548569,319.406592L531.374051,332.007535L521.415606,330.608727L513.729447,326.770569L513.297033,326.597372L512.780667,326.447007L503.361780,329.625312L508.237734,335.393923L508.691386,347.770255L515.313118,351.228331L522.961602,351.665764L523.035737,354.048694L546.274833,362.082780L545.954826,366.448380L537.782752,379.233672L537.773548,379.257985L538.359663,379.273030L550.340116,372.613096L554.933003,374.851256L560.101819,386.136614L574.156709,371.853486L573.258069,367.704255L580.640441,362.308668L579.981314,350.147231L594.701713,349.408696L609.769786,343.791060L609.761932,343.907323L609.815418,343.907296L617.913718,342.287046L625.128430,336.471357L629.140741,329.888781L616.611336,320.443240L609.684687,320.668433L609.489521,320.780418L607.816582,320.377386L606.487355,319.813958L605.800574,319.820205L605.737491,319.820834L594.997369,316.933958L592.020521,318.742973L590.602637,327.906659L586.429162,319.948959L573.806365,313.433849L570.750135,308.502478L564.882780,309.246930L564.833611,309.219095Z " data-code="soopu-Loket" data-name="Loket"/>
    <path d="M322.069685,238.098573L322.033304,238.153126L324.804045,250.867131L329.540574,254.743406L337.083994,269.099076L343.880740,275.407001L352.195841,287.239475L345.291476,299.021891L345.703758,305.831925L353.876484,312.969456L347.132373,325.363502L338.777090,334.158438L350.553795,335.052034L357.458928,352.562693L357.931072,362.558883L357.932366,362.659274L358.364400,362.436102L360.127738,375.684455L368.567414,376.679845L372.321233,383.175598L369.324924,394.543974L378.590575,394.654242L385.296281,384.048537L398.767765,383.914245L400.875146,395.939630L406.221729,399.014575L419.196936,386.146612L430.443939,384.160150L430.116415,386.803652L437.577643,387.717007L431.107858,395.868840L412.535871,415.771104L412.864649,430.708333L415.641938,437.514395L408.675685,442.396934L398.818708,458.809192L398.747700,458.916845L398.903753,458.980707L407.412588,462.038662L415.571132,468.412499L410.784093,480.087991L411.391360,492.252356L417.026603,491.666852L424.439511,494.471608L424.466882,494.472606L424.473240,494.330115L427.583723,492.410852L434.446146,494.730399L435.707757,504.143934L443.347578,505.651613L452.097331,500.482748L454.954506,494.996821L461.995264,495.163144L466.859406,484.213332L467.951401,469.889652L475.168293,486.563759L480.383406,494.740092L493.639523,497.188913L502.476111,487.125735L501.639012,474.397975L532.501536,467.613063L532.547445,467.629241L532.624295,467.301885L540.209135,460.025297L548.630025,456.380289L556.744912,444.085002L556.360968,432.089722L547.481471,429.593930L545.437544,426.472603L549.488196,409.238563L540.446151,405.787220L541.846604,400.025823L531.420172,399.747361L525.477040,386.773876L528.947002,388.754329L537.764414,379.280530L537.773548,379.257985L537.782752,379.233672L545.954826,366.448380L546.274833,362.082780L523.035737,354.048694L522.961602,351.665764L515.313118,351.228331L508.691386,347.770255L508.237734,335.393923L503.361780,329.625312L512.780667,326.447007L513.297033,326.597372L513.305745,326.567049L513.319011,318.792820L517.478221,304.072374L522.364795,303.918363L517.455961,289.994723L511.405788,279.830583L506.531172,282.698960L504.021747,288.342678L491.065615,282.669690L478.956644,283.261692L477.561050,255.782334L479.955470,250.428881L485.762802,249.089117L493.661927,238.571474L493.763967,238.432847L493.689258,238.289539L481.803420,232.030987L477.908863,228.362964L469.528443,225.173422L463.822150,231.553939L465.834181,249.341487L455.600696,238.977465L441.054149,233.985813L434.485628,253.369096L435.076183,257.242097L418.469580,254.406360L417.966547,257.926569L406.420983,257.878493L388.731594,261.440890L387.096821,257.562038L382.132621,260.518857L373.149753,255.604254L371.571787,244.740034L367.013751,242.757825L363.436006,247.973397L363.716907,239.769273L353.366390,229.304146L342.149759,234.753150L333.645491,234.777329L322.096230,238.112702L322.069685,238.098573Z " data-code="soopu-Sokolov" data-name="Sokolov"/>
  </g>
  <g class="" id="mzchu">
    <path d="M553.701587,482.988661L553.633553,484.759189L556.852183,483.731446L553.701587,482.988661Z " data-code="Krizky" data-name="Křížky"/>
    <path d="M609.670266,320.667349L608.409600,319.912809L608.313319,319.511915L605.797625,319.789994L605.800574,319.820205L606.487355,319.813958L607.816582,320.377386L609.489521,320.780418L609.670266,320.667349Z " data-code="Svatosske_skaly" data-name="Svatošské skály"/>
    <path d="M758.314025,259.251533L762.500059,257.114945L759.228995,256.564406L758.314025,259.251533Z " data-code="Skalky_skritku" data-name="Skalky skřítků"/>
    <path d="M42.078727,172.710490L36.771910,181.096193L39.356428,191.389967L41.439957,194.453406L49.720032,200.901396L52.577225,211.005076L56.901710,215.262194L59.469109,214.104819L54.337659,207.162104L49.942461,197.541390L43.847188,187.969413L41.478228,175.781332L42.078727,172.710490Z " data-code="Luzni_potok" data-name="Lužní potok"/>
    <path d="M572.280939,505.467021L579.046701,504.835974L585.250512,499.795856L586.906205,496.812321L582.332693,492.392593L576.276445,494.397501L571.981011,501.938218L572.280939,505.467021Z " data-code="Pluhuv_bor" data-name="Pluhův bor"/>
    <path d="M258.331511,371.923305L257.638547,372.598405L268.585772,378.594042L275.603927,388.438056L284.941298,376.418908L284.623927,373.466371L278.031011,364.524511L274.766940,366.830048L269.790853,367.826546L269.199483,370.842746L261.701431,369.730995L258.331511,371.923305Z " data-code="Soos" data-name="Soos"/>
    <path d="M631.469963,47.806857L638.010191,50.971139L635.708331,58.087528L644.701534,62.764308L662.526128,65.793378L666.880432,64.403172L678.631968,68.867103L688.327095,63.447115L690.018626,55.414128L694.503166,46.512068L694.645765,42.936916L691.388912,42.475986L675.683616,35.442336L663.517034,36.820460L655.603732,40.951184L655.172489,38.778823L641.679558,33.538198L644.296047,38.411408L635.228648,41.978459L631.469963,47.806857Z " data-code="Bozidarske_raseliniste" data-name="Božídarské rašeliniště"/>
    <path d="M504.569862,502.691531L502.031293,492.733791L490.640283,494.418466L489.552616,499.118107L504.569862,502.691531Z M476.398029,532.602444L472.360969,529.997249L468.140360,531.416782L466.488179,529.683432L464.764108,532.860308L469.517609,535.976346L476.398029,532.602444Z M510.949969,509.503639L507.182187,511.888749L508.189478,514.375845L510.949969,509.503639Z M496.913198,541.424163L499.606008,548.630217L501.186228,547.192931L509.667285,544.777197L502.590494,534.656513L505.827445,525.029368L499.021359,524.727111L494.746270,532.078692L496.913198,541.424163Z " data-code="Kladske_raseliny" data-name="Kladské rašeliny"/>
    <path d="M424.674251,44.189729L423.056669,44.577608L421.570420,44.933652L420.573460,44.966356L419.653884,45.014873L420.259623,51.623695L428.926185,56.841670L420.689704,56.815459L424.997462,61.239094L425.754301,65.259023L430.188255,71.839005L435.615008,63.390165L444.488440,62.066571L446.113622,63.269331L451.668912,60.213695L464.726100,57.045293L469.505362,54.717108L466.944002,50.329583L457.907869,51.647977L459.107405,44.135060L464.520405,42.793532L464.520000,39.374743L460.749845,37.413274L456.246498,37.412315L452.546653,34.993160L449.531844,36.944116L447.039503,43.148034L444.449495,41.940738L437.327793,44.017120L437.255083,48.070066L428.427699,51.941583L424.281900,52.206052L423.926597,47.806128L425.813081,44.403623L424.674251,44.189729Z M464.639418,70.111866L462.013086,62.960337L469.505907,65.821708L470.662023,70.083855L474.737869,69.891172L469.740962,55.109114L468.331747,55.965029L451.246418,60.372208L444.901478,66.633728L451.338116,65.713105L457.133511,66.647028L457.876847,68.219103L464.639418,70.111866Z " data-code="Rolavska_vrchoviste" data-name="Rolavská vrchoviště"/>
  </g>
</svg>
