<?xml version="1.0" encoding="utf-8"?>
<!DOCTYPE svg PUBLIC "-//W3C//DTD SVG 1.1//EN" "http://www.w3.org/Graphics/SVG/1.1/DTD/svg11.dtd">
<svg xmlns="http://www.w3.org/2000/svg" xmlns:xlink="http://www.w3.org/1999/xlink" enable_background="new 0 0 1000 809" height="809px" pretty_print="False" style="stroke-linejoin: round; stroke:#000; fill: none;" version="1.1" viewBox="0 0 1000 809" width="1000px">
  <defs>
    <style type="text/css"><![CDATA[path { fill-rule: evenodd; }]]></style>
  </defs>
  <metadata>
    <views>
      <view h="809.286743577" padding="0" w="1000">
        <proj id="laea" lat0="50.4012426293" lon0="15.6873263536"/>
        <bbox h="9.37" w="11.59" x="995.51" y="995.3"/>
      </view>
    </views>
  </metadata>
  <g class="" id="bg">
    <path d="M-10000.0,-10000.0L-10000.0,10000.0L10000.0,10000.0L10000.0,-10000.0Z "/>
    <path d="M730.522419,807.286744L740.394858,799.741149L750.962415,795.366875L811.961232,789.157647L821.284576,784.148070L825.303570,780.281045L828.653155,775.426296L831.152986,769.550473L834.216646,756.179603L837.040291,751.492478L840.909769,748.104576L911.165721,713.753319L915.099129,708.606262L916.484033,701.989806L917.367318,687.526190L918.694548,681.214075L920.692198,676.028333L923.423797,672.318768L926.953414,670.470188L999.381408,692.977363L987.217581,677.402780L980.652362,664.178650L972.488195,627.997289L964.870362,607.967873L944.023211,586.655405L935.205339,571.086953L925.222068,557.782916L907.610546,526.418142L897.709400,512.723278L882.510066,502.266530L852.152944,491.452225L839.937470,475.459095L838.100665,466.186891L838.575499,456.509300L837.996342,446.621266L833.140877,436.771155L826.673394,434.794230L795.757561,435.053694L787.856264,437.700166L783.051960,441.970077L778.082379,443.107991L769.334884,436.139814L766.063876,430.008758L757.100859,402.649428L735.075356,398.903713L728.571830,379.931537L733.778013,363.022972L747.310767,366.006033L746.027550,362.772457L742.654079,350.979664L746.780589,350.565685L752.980699,346.563884L756.678825,345.052967L767.039839,336.237110L778.879070,329.056473L788.953096,320.238270L794.087892,306.456630L804.687816,302.907298L826.415836,308.768340L838.000818,306.082766L844.282597,297.067292L858.065967,283.144708L863.789974,274.956383L861.908884,275.578749L861.779863,269.314239L862.610768,261.116981L863.607643,255.721224L866.482821,249.538104L868.340241,246.552391L868.306555,243.035108L865.646153,235.035958L886.786194,226.091256L880.443292,205.872655L822.409666,145.346035L801.611127,133.760286L779.546320,128.276644L755.085922,127.967311L746.389710,129.898998L741.517860,140.596098L736.733910,154.205036L728.578437,164.648785L717.230120,167.362761L706.948699,162.592700L685.515307,146.346269L657.060924,143.594315L615.426156,184.416329L586.777474,189.814309L585.369637,186.632187L584.868137,183.281595L585.412725,179.871927L586.724211,176.404258L596.385733,168.450750L597.866817,155.803736L594.111364,141.144984L588.199244,126.769439L579.356112,110.096191L570.269216,101.336532L559.121351,99.782078L519.258425,114.961566L500.591043,115.556669L496.268793,114.027342L462.119701,55.997376L459.953446,49.515323L458.482250,42.262768L441.786686,40.689741L385.863525,54.293763L378.767343,52.039637L373.829143,47.202063L364.931178,33.513871L357.284316,28.398547L276.784568,0.000000L286.243188,30.628741L308.524966,76.097687L310.065668,84.489447L308.857335,90.493294L306.375824,96.343159L304.645063,104.449232L303.755343,114.040577L304.683505,134.735074L306.638353,144.331120L309.663406,152.433176L317.962756,163.148289L321.023986,168.597363L323.062221,174.512311L324.210798,180.753216L324.499244,187.179964L324.075736,193.652549L319.298221,216.337231L319.500236,220.543870L320.355504,224.622862L343.461644,278.010993L344.882671,284.216613L345.144547,290.795120L344.038581,297.921617L341.446879,303.808200L337.608484,306.947599L332.701533,307.935625L280.896383,298.668203L273.223722,293.428381L259.098902,278.227861L255.270911,276.208194L251.380246,275.496715L247.382816,275.812863L229.936722,281.743479L226.152775,284.781078L224.009318,290.452759L221.593706,324.341309L220.021932,331.872538L217.072553,337.541241L213.029577,340.915840L208.606536,342.243991L203.892555,341.701182L198.976768,339.462931L188.895681,330.707490L168.308658,303.946232L155.394538,293.418895L125.970339,281.309278L118.704098,281.340999L112.091854,284.039337L82.632759,316.959838L78.681727,318.676714L74.461801,318.159848L69.882126,315.759132L32.695629,283.926627L21.920715,280.028440L18.071751,280.093747L15.168153,280.913599L13.138770,282.055296L11.567740,283.492465L12.904436,287.568735L12.666807,291.528082L10.543064,295.274667L8.317875,298.634805L7.778627,299.179915L5.432670,304.689005L4.952353,313.098360L6.688411,319.456354L11.235157,327.891915L13.399646,332.827338L14.733978,337.429343L20.608836,380.425532L21.068925,390.851640L19.947948,399.571943L17.595418,405.548972L11.736457,416.173746L5.790846,424.144769L3.963621,429.272177L1.692616,437.808071L0.618592,453.457395L1.518977,460.498511L2.950117,464.470571L4.729628,465.804484L38.228555,480.559988L42.431115,483.381545L46.610546,487.487905L52.336815,496.944094L54.803423,505.349985L56.618981,517.560675L58.911040,523.231005L62.557700,527.320855L66.460053,528.864816L71.399544,529.363364L76.180133,529.007474L88.739440,526.279051L94.947900,526.806161L113.498149,531.362058L141.335115,527.883275L146.275767,528.257663L150.835698,530.230559L156.396929,535.374131L159.430441,541.569013L161.404884,547.595398L163.848822,565.798997L163.889788,580.194439L165.435808,588.941234L168.331837,600.276114L178.659261,630.547485L180.011438,636.488743L179.566660,639.127600L178.718694,641.542786L177.872001,643.630799L174.995831,647.848569L163.854461,659.344796L162.792460,662.518263L162.558457,668.020600L164.220653,671.381393L166.111569,673.855113L176.966604,681.484606L182.157584,686.682120L188.687014,694.641891L197.610357,708.066457L200.238117,714.724662L200.641576,719.119483L198.622075,722.103202L236.186650,736.425806L241.435375,736.032256L283.076283,697.016086L296.271826,690.428287L306.638914,689.628040L333.227851,702.843549L343.266424,702.981890L364.140864,696.768206L367.690969,697.949856L395.424864,716.951987L400.685692,718.131048L405.061594,716.704269L408.372078,712.520059L417.361886,683.632018L420.502814,676.876561L424.797019,671.709148L458.639212,661.718172L462.204479,663.196980L464.829842,666.733416L471.178207,694.158193L475.976291,705.285255L478.665424,709.218134L481.487245,711.736824L484.351226,712.631156L488.228863,710.730776L531.535693,667.861917L537.919619,664.641912L566.349358,664.047395L585.265646,669.655917L589.050023,672.445308L591.072629,676.456687L591.799346,682.155770L592.065767,703.747506L593.516772,710.565348L596.627151,716.254650L602.024414,720.251613L641.272604,727.922879L645.410943,731.056870L650.533364,741.756991L657.364123,751.781559L665.503325,759.180765L673.266056,763.227343L679.244411,764.595566L681.882642,766.835486L692.765989,780.477329L696.005964,782.724598L703.896079,784.557387L730.522419,807.286744Z "/>
  </g>
  <g class="" id="soorp">
    <path d="M637.669855,182.286764L642.872149,200.296549L647.822342,197.539783L644.001718,180.830536L652.267281,178.879851L654.822088,181.995131L664.560377,183.290065L676.646386,188.238724L679.210312,185.836920L680.900024,193.848642L677.716460,194.756448L678.918808,209.708240L676.289170,214.104610L680.358929,218.536974L690.879006,224.534802L692.908663,239.130236L692.929260,239.203346L693.477664,238.683827L699.190516,227.228443L720.245256,239.653010L724.210714,237.685389L731.077181,241.854912L730.150673,236.159882L739.735016,222.880644L737.966157,214.890273L752.854901,203.211877L751.507069,194.698108L746.386485,192.653705L746.373319,192.648843L746.460229,192.399428L752.238850,191.464872L758.541210,194.021771L764.841134,207.680244L769.459105,204.313451L780.163087,226.405783L783.333443,227.917799L788.654662,236.652272L791.642182,236.652380L801.919155,246.897702L800.766118,262.426569L811.709288,271.396863L812.711894,270.297609L817.186780,289.686602L817.726261,290.070309L833.051405,302.252454L846.466968,293.214924L853.717046,279.507543L870.374454,268.309180L875.244268,247.163489L876.009770,232.095119L874.054052,223.749340L887.567016,222.009518L900.177551,211.529767L897.025952,201.083148L876.071252,177.262923L866.348709,171.228342L860.877332,165.148177L845.889442,143.443841L845.847581,141.234651L836.586136,140.388786L831.614937,130.303080L816.588748,120.550180L807.380639,126.867517L801.359302,126.901080L801.362797,126.915777L801.112929,126.963864L790.274771,127.041019L788.079116,119.067079L773.875410,120.281601L757.123736,116.321911L754.723948,119.914174L750.381258,135.538567L747.554724,154.634701L745.765728,157.153899L720.918292,161.000362L721.284745,156.320885L714.620317,144.042386L699.667991,135.572605L691.782506,136.211768L681.905281,127.885371L675.171138,129.521021L669.762402,125.311918L661.366323,137.079373L659.743580,136.483056L652.411348,145.688286L644.780517,152.356988L640.140514,165.783429L637.918300,181.724613L637.669855,182.286764Z " data-code="soorp-Broumov" data-name="Broumov"/>
    <path d="M792.021110,439.437351L794.677434,446.215603L787.891638,449.669542L770.526209,461.625127L764.246273,460.409643L755.643726,447.573165L755.653591,447.334760L755.605892,447.326268L747.704747,457.590114L749.122575,467.540704L737.568434,472.788085L725.324082,470.030732L719.446323,481.735127L711.600724,485.596057L701.078855,481.383134L684.603338,491.729518L688.489471,497.381111L688.316009,506.643610L678.786910,512.784310L655.316027,509.821684L648.490204,521.459082L648.488226,521.472997L648.413849,521.443936L639.891081,516.939293L637.574183,498.943882L635.272458,497.176275L618.214245,492.841347L618.021744,492.636525L617.999342,492.676312L611.855642,508.693531L581.445202,509.358958L581.052365,509.517353L581.059345,509.535484L585.139697,514.387666L594.245705,531.030997L593.143407,540.240263L601.482267,547.373816L601.877910,547.377080L602.020869,547.374165L615.399113,552.444331L614.807518,559.547201L623.370406,571.610213L630.304659,574.469976L635.091222,580.646983L632.453082,581.156427L644.629904,587.857151L644.708456,588.024886L644.779014,588.008562L656.133776,591.709090L661.363293,590.599214L666.230231,597.519802L667.362324,604.694086L678.442449,607.449071L678.881308,607.840755L678.898730,607.769110L680.643202,588.915704L683.942249,587.701885L688.417668,592.189580L700.065692,588.726969L700.979376,600.901680L708.996185,598.629426L714.778787,600.428767L724.615230,590.864737L723.519596,588.498935L728.162087,573.588095L723.750859,567.511697L731.519339,559.755199L731.686371,559.681662L731.718625,559.716677L743.357063,559.763941L748.987713,561.811578L757.643950,555.535762L773.109597,556.715098L772.829281,561.681931L781.863318,559.040146L786.419049,563.004050L797.214515,565.396197L800.597407,563.312863L801.455966,555.176277L794.807166,551.199154L796.526136,548.049358L816.346114,532.669155L816.290264,530.033243L824.606810,543.225633L838.231036,539.351326L840.251983,532.235345L843.788821,529.982295L860.233453,540.607884L868.346959,513.083843L873.802007,515.586491L880.732976,510.956907L881.312622,510.602939L881.476456,510.401400L884.185919,507.794007L877.566880,486.888051L877.587196,486.918824L872.259934,489.607292L861.235271,479.478020L855.695637,465.198920L848.488552,460.321916L846.037846,453.172884L850.575130,438.990431L836.087562,425.201410L832.699301,427.491001L819.651622,423.303812L818.089657,424.648897L803.979490,424.550558L799.909489,432.001291L792.035827,439.401575L792.021110,439.437351Z " data-code="soorp-Dobruska" data-name="Dobruška"/>
    <path d="M320.434619,284.301852L328.387965,298.162274L336.080786,298.993304L365.866581,309.149678L366.024449,319.745401L358.331907,338.428245L359.625283,340.738021L359.662345,340.934737L359.723821,340.930783L369.231109,351.919476L380.148823,353.375189L383.074213,360.529383L391.080402,359.862341L390.055255,367.222036L386.469745,371.004142L394.639762,380.165215L391.075143,384.500536L395.717161,391.934612L399.583073,391.451832L409.854114,400.579849L413.426094,405.577198L411.774430,413.900459L408.056647,416.351415L409.786725,433.324694L411.361196,432.875339L412.654995,448.305103L416.208435,459.306034L424.472308,469.490191L424.874019,470.111936L424.958676,470.148235L435.747531,462.939615L444.849710,462.366716L449.205224,458.019722L456.950345,464.754573L458.477465,459.643009L464.366293,462.705536L464.593092,462.533779L464.481204,462.172342L460.081315,451.983101L467.050801,453.277345L466.248251,450.317572L487.062042,450.435364L499.024767,440.142071L505.243969,440.024677L508.750537,436.738599L507.157554,428.815438L515.829457,425.154653L520.725505,417.822566L524.050154,418.542574L532.267266,397.588684L537.038759,399.391503L552.887385,411.563964L558.120701,404.488295L567.426288,397.969824L562.898861,395.252286L558.751663,386.617894L553.479829,367.114863L553.493927,367.083498L553.511350,367.046241L556.773189,343.864020L566.407787,339.999748L562.585294,336.409538L562.349103,336.228685L561.957386,336.048408L553.631470,337.303814L540.632126,333.997603L529.460067,341.238993L526.863315,334.356114L526.414528,324.806811L517.652114,319.495847L511.934521,332.919046L512.888105,322.068237L492.352808,319.980395L496.069268,314.062430L491.523726,299.837074L484.271898,302.267519L466.477413,292.873483L455.511417,297.039106L451.625436,302.461755L445.481177,301.843242L431.125501,304.457422L418.948102,299.519139L411.946760,293.732303L409.445915,303.875220L403.648335,306.150835L404.391714,296.442808L387.363307,291.171246L374.605940,282.966225L361.305992,289.362153L351.498341,275.382821L351.331808,275.387705L322.877432,279.248584L320.445891,284.187716L320.434619,284.301852Z " data-code="soorp-Dvur_Kralove_nad_Labem" data-name="Dvůr Králové nad Labem"/>
    <path d="M359.662345,340.934737L359.639085,340.936196L354.029672,345.489069L352.026347,356.003935L342.715148,351.674624L342.318568,360.171560L342.306904,360.286422L342.462587,360.384742L341.039816,364.397905L345.970052,378.951825L335.294225,393.100530L321.533593,391.509622L319.348112,397.756294L323.475957,403.834857L315.055501,415.287852L298.641064,413.360583L283.225903,414.824198L277.112799,414.061725L272.920145,405.536011L267.276872,404.745036L266.701340,404.714628L266.425317,404.784447L258.512821,409.258555L258.727954,413.561930L251.894759,417.786448L256.173481,423.083537L249.431728,420.466325L247.849453,437.840448L230.576114,442.122578L237.071652,450.240750L233.915843,465.355151L238.564777,468.104142L242.010119,480.943980L242.004555,480.963240L242.191979,481.149909L258.937899,495.870805L258.531521,489.407982L261.326520,489.446996L262.452171,475.272927L270.482861,473.364476L269.526423,468.698298L286.563847,474.612000L290.454464,482.769637L287.897818,485.596989L297.515976,489.761568L301.448364,497.563506L308.544097,502.394240L327.706449,503.498695L329.740331,505.940260L323.264628,512.942653L338.546454,518.006009L339.450502,517.879626L339.475832,517.802598L343.596572,512.436850L341.488151,508.941735L353.418597,499.992121L355.742844,500.736796L364.425165,480.993854L367.451145,485.034437L378.483376,490.097145L378.343317,490.504994L378.807332,490.576109L404.761229,487.232902L418.516926,489.017666L418.723857,488.874793L418.811951,488.762931L420.247257,488.137540L422.108661,478.186345L425.568714,470.973091L424.874019,470.111936L424.472308,469.490191L416.208435,459.306034L412.654995,448.305103L411.361196,432.875339L409.786725,433.324694L408.056647,416.351415L411.774430,413.900459L413.426094,405.577198L409.854114,400.579849L399.583073,391.451832L395.717161,391.934612L391.075143,384.500536L394.639762,380.165215L386.469745,371.004142L390.055255,367.222036L391.080402,359.862341L383.074213,360.529383L380.148823,353.375189L369.231109,351.919476L359.723821,340.930783L359.662345,340.934737Z " data-code="soorp-Horice" data-name="Hořice"/>
    <path d="M424.874019,470.111936L425.568714,470.973091L422.108661,478.186345L420.247257,488.137540L418.811951,488.762931L418.723857,488.874793L418.516926,489.017666L404.761229,487.232902L378.807332,490.576109L378.343317,490.504994L378.483376,490.097145L367.451145,485.034437L364.425165,480.993854L355.742844,500.736796L353.418597,499.992121L341.488151,508.941735L343.596572,512.436850L339.475832,517.802598L339.450502,517.879626L339.451651,517.923600L341.033598,529.213177L343.903135,531.555311L332.060884,535.228193L334.363311,536.747781L317.889887,537.403331L308.519274,534.657751L308.839547,539.272810L314.045804,550.168679L330.300960,559.008678L333.320580,567.459168L325.059953,574.332891L326.467062,582.531671L321.950153,600.426108L322.112890,606.301635L330.655926,617.132442L318.681368,635.583424L318.678130,635.585260L318.684076,635.429179L314.511348,622.861662L311.285330,628.559395L293.151703,625.999652L281.142831,622.996521L280.471490,625.727894L267.730999,642.415366L261.321530,646.244142L246.269128,643.096623L236.630551,638.489785L226.265973,638.503589L226.128379,633.714314L211.547562,630.637217L201.233108,621.803058L191.362540,620.575516L191.310054,620.694909L187.922768,632.296873L166.824535,657.638278L175.871178,661.866303L175.212528,665.260893L161.939827,674.930892L195.986695,687.046166L196.747056,683.838854L220.254375,694.346529L225.127829,698.388845L217.554905,707.638594L227.516647,728.594015L229.399599,729.286376L257.618920,709.761474L266.988929,709.135232L271.315307,702.893698L275.891699,707.027997L274.265426,700.132853L293.308606,682.769829L295.071290,687.324038L309.474788,679.634510L307.866470,671.994734L308.774223,671.378105L309.103721,671.696732L316.064428,674.435984L319.890650,686.995338L329.256539,684.849867L339.570023,686.317974L347.603135,684.868654L357.229445,689.620637L360.998838,685.086222L388.337526,696.124547L396.718907,685.712457L400.160646,685.152193L415.685599,689.098762L418.787338,680.792320L424.991407,678.077838L425.702420,659.863977L434.580894,657.134117L435.652133,652.139469L442.799081,653.347797L449.293365,644.537196L465.743869,658.131688L469.606926,682.400804L478.007849,686.749115L493.654992,689.609630L501.203297,681.506685L501.387279,674.287148L525.048690,674.699566L525.295130,662.816038L529.693906,657.744113L542.016896,657.746204L545.239627,649.657049L545.247401,649.619413L545.347538,649.639008L560.892481,660.003744L567.713817,656.989497L577.566457,663.495518L595.609095,663.595332L596.518145,663.602466L596.648605,642.139293L613.201852,650.034089L607.417215,633.126341L612.840702,620.689861L614.932314,621.804077L629.606053,620.677636L635.099330,621.612327L641.543779,613.037694L641.854923,612.437971L642.074122,612.015470L638.736470,604.903941L646.727874,599.427876L644.448494,588.343501L644.708456,588.024886L644.629904,587.857151L632.453082,581.156427L635.091222,580.646983L630.304659,574.469976L623.370406,571.610213L614.807518,559.547201L615.399113,552.444331L602.020869,547.374165L601.877910,547.377080L601.482267,547.373816L593.143407,540.240263L594.245705,531.030997L585.139697,514.387666L581.059345,509.535484L581.052365,509.517353L580.980001,509.329130L579.854626,508.990498L579.617113,509.242534L579.538393,509.325239L579.527329,509.313091L572.229079,498.549921L568.096860,510.806080L563.184336,511.650328L550.039655,507.481291L541.122759,510.195046L531.072779,511.214683L521.260073,506.217692L523.381869,496.113750L523.032720,488.043888L517.050163,480.620393L509.315199,478.209626L499.939032,485.580591L494.306607,476.882171L482.197752,466.639416L473.609791,474.469228L467.861914,471.416075L464.840256,463.174660L464.593092,462.533779L464.366293,462.705536L458.477465,459.643009L456.950345,464.754573L449.205224,458.019722L444.849710,462.366716L435.747531,462.939615L424.958676,470.148235L424.874019,470.111936Z " data-code="soorp-Hradec_Kralove" data-name="Hradec Králové"/>
    <path d="M553.493927,367.083498L553.479829,367.114863L558.751663,386.617894L562.898861,395.252286L567.426288,397.969824L558.120701,404.488295L552.887385,411.563964L537.038759,399.391503L532.267266,397.588684L524.050154,418.542574L520.725505,417.822566L515.829457,425.154653L507.157554,428.815438L508.750537,436.738599L505.243969,440.024677L499.024767,440.142071L487.062042,450.435364L466.248251,450.317572L467.050801,453.277345L460.081315,451.983101L464.481204,462.172342L464.593092,462.533779L464.840256,463.174660L467.861914,471.416075L473.609791,474.469228L482.197752,466.639416L494.306607,476.882171L499.939032,485.580591L509.315199,478.209626L517.050163,480.620393L523.032720,488.043888L523.381869,496.113750L521.260073,506.217692L531.072779,511.214683L541.122759,510.195046L550.039655,507.481291L563.184336,511.650328L568.096860,510.806080L572.229079,498.549921L579.527329,509.313091L579.538393,509.325239L579.617113,509.242534L579.854626,508.990498L580.980001,509.329130L581.052365,509.517353L581.445202,509.358958L611.855642,508.693531L617.999342,492.676312L618.021744,492.636525L617.951624,492.562935L619.479611,488.400086L632.748331,470.373680L632.736290,470.320622L632.732787,470.297063L605.213461,461.517563L600.373227,454.585807L602.991731,450.347575L603.918100,439.780508L611.045811,435.944106L609.969308,426.136936L601.007074,423.389534L606.939298,421.665932L608.331681,417.404973L615.930658,416.670098L603.242925,390.325766L592.951078,386.455416L586.336762,375.626821L580.142583,379.804444L569.174515,371.835222L558.836571,371.704367L554.730746,367.693070L553.493927,367.083498Z " data-code="soorp-Jaromer" data-name="Jaroměř"/>
    <path d="M160.304718,510.815969L160.205363,511.329481L165.750900,522.540994L171.162535,522.760143L179.067784,537.905063L179.093207,538.150493L196.172366,531.029407L194.865138,521.650099L196.897948,512.594657L204.347118,512.180652L211.806652,517.418676L217.438147,517.612311L230.492079,502.458244L226.375559,497.797045L226.643401,488.317991L238.413641,480.095761L241.719108,480.888186L242.004555,480.963240L242.010119,480.943980L238.564777,468.104142L233.915843,465.355151L237.071652,450.240750L230.576114,442.122578L247.849453,437.840448L249.431728,420.466325L256.173481,423.083537L251.894759,417.786448L258.727954,413.561930L258.512821,409.258555L266.425317,404.784447L266.701340,404.714628L267.276872,404.745036L272.920145,405.536011L277.112799,414.061725L283.225903,414.824198L298.641064,413.360583L315.055501,415.287852L323.475957,403.834857L319.348112,397.756294L321.533593,391.509622L335.294225,393.100530L345.970052,378.951825L341.039816,364.397905L342.462587,360.384742L342.306904,360.286422L342.173918,360.313164L323.007817,338.791903L323.720115,337.164498L312.974944,331.715379L298.279850,332.104515L294.448483,340.492734L285.312683,338.918859L282.090347,348.382766L271.411898,349.664970L271.072804,349.666218L270.867250,349.716549L255.088356,341.709797L249.003144,347.932175L240.831463,348.760864L242.724958,338.442794L235.173442,341.848130L227.354640,333.240322L226.513300,329.519230L218.986193,324.582900L213.158337,316.173428L213.072404,316.184087L204.728140,319.677801L187.647328,319.574086L185.285012,311.986250L181.069535,309.610499L184.741851,302.214006L182.664956,292.572565L175.052914,295.063772L172.697264,304.668344L166.579324,297.627160L157.575180,295.083059L151.572579,285.166045L146.243479,282.566971L141.959070,285.993064L139.877949,282.584074L128.013161,279.746205L114.718269,273.278131L109.579425,276.399527L101.879006,275.650403L89.699214,289.827733L87.735655,299.589775L87.734380,299.607168L87.735016,299.630880L74.029961,303.715820L53.088819,293.699755L45.456733,287.271514L19.075424,275.947605L16.746326,280.978414L1.677210,289.982413L0.516090,293.428933L14.394662,309.119510L12.375834,318.298249L18.544180,322.980259L20.306987,328.200772L14.697055,342.941682L14.073453,354.212354L21.712523,353.721506L27.973734,364.173693L24.644782,371.231848L32.990072,375.683484L27.945997,396.659920L25.601291,399.169052L25.404764,399.406777L25.026793,399.192146L15.633314,400.342310L18.748360,408.298072L10.748674,418.894069L0.225986,421.182176L0.637891,436.146159L3.632232,441.330184L11.333958,443.655583L4.928753,449.746201L6.168117,454.572990L18.412589,465.876032L24.971491,468.874368L36.654682,463.814081L43.030243,467.066355L48.149957,474.068551L47.334660,481.480527L53.857799,480.611045L57.163468,484.611164L69.859822,492.090473L68.953561,495.691806L61.092781,502.584205L63.691444,503.151208L76.761498,524.040959L78.636010,521.468526L91.282713,522.204678L101.929788,517.712775L107.817133,523.319755L109.918780,519.423382L115.594092,521.091240L130.232656,531.418983L138.370252,520.046192L144.510483,521.118728L148.149571,518.010265L154.651808,518.119080L160.274618,510.879704L160.304718,510.815969Z " data-code="soorp-Jicin" data-name="Jičín"/>
    <path d="M644.708456,588.024886L644.448494,588.343501L646.727874,599.427876L638.736470,604.903941L642.074122,612.015470L641.854924,612.437971L641.543779,613.037694L635.099330,621.612327L629.606053,620.677636L614.932314,621.804077L612.840702,620.689861L607.417215,633.126341L613.201852,650.034089L596.648605,642.139293L596.518145,663.602466L596.518150,663.622500L602.246192,675.569678L608.366804,675.607412L608.555696,709.651365L609.532796,711.154708L645.481099,711.194859L656.017682,739.836471L671.223551,742.451961L681.256618,742.984033L686.715714,749.052895L690.219761,757.944954L697.227658,763.702565L713.139549,764.805925L713.163469,764.810740L713.144205,764.863059L722.135179,767.643592L727.489750,776.128124L731.971501,779.360377L735.833730,788.957243L748.720242,782.401086L758.222991,783.334010L767.095707,779.332155L766.681697,771.951498L773.589482,773.264188L773.484165,784.536795L788.704492,780.140721L788.658126,779.253801L776.247057,770.044759L776.938576,761.565503L789.107167,750.727098L791.150985,741.524394L789.519971,739.967455L793.345366,725.631871L791.025240,714.842089L785.844992,704.797733L780.379052,698.357530L774.993231,696.288367L780.341474,687.196798L785.771787,684.826510L796.269195,674.737578L796.318219,674.655563L796.254282,674.747759L781.252563,678.391016L781.193597,672.969117L770.806000,672.781074L765.750501,675.847612L761.864734,673.917958L757.449619,680.983349L739.089026,685.965046L731.512363,669.653784L732.507757,658.962833L730.624260,651.252670L714.029079,651.139898L703.804445,647.497402L694.238362,650.606521L694.228256,650.604756L694.205796,650.585701L690.053640,642.518510L693.819173,641.881115L689.518106,626.453606L677.361151,619.567045L677.063296,614.218207L681.761051,612.565250L678.943928,608.142080L678.881308,607.840755L678.442449,607.449071L667.362324,604.694086L666.230231,597.519802L661.363293,590.599214L656.133776,591.709090L644.779014,588.008562L644.708456,588.024886Z " data-code="soorp-Kostelec_nad_Orlici" data-name="Kostelec nad Orlicí"/>
    <path d="M746.373319,192.648843L746.386485,192.653705L751.507069,194.698108L752.854901,203.211877L737.966157,214.890273L739.735016,222.880644L730.150673,236.159882L731.077181,241.854912L724.210714,237.685389L720.245256,239.653010L699.190516,227.228443L693.477664,238.683827L692.929260,239.203346L692.724656,239.274182L692.899467,242.201661L692.974970,242.422417L693.827240,244.116311L693.814806,244.154311L693.622471,244.739752L680.414806,258.938342L685.864011,262.611452L673.861551,268.700667L673.589983,268.581878L673.510016,268.728479L669.913125,280.651912L675.674281,284.784422L679.644436,293.844444L679.952640,293.901218L679.937683,293.937405L669.418431,293.419821L667.906994,296.539163L673.292139,304.415906L664.046273,303.664796L655.371220,309.635822L644.857389,308.668364L644.689226,316.278733L633.110409,319.610106L632.115650,323.056555L623.309655,323.802016L616.592869,319.887427L612.830325,328.870389L612.823245,328.924983L611.296341,329.822224L603.626552,332.395022L588.539631,326.661383L585.983583,320.205335L574.984169,324.055835L574.362589,323.462710L574.316021,323.597962L571.219470,333.689720L566.224165,332.864639L562.598704,335.719129L562.349103,336.228685L562.585294,336.409538L566.407787,339.999748L556.773189,343.864020L553.511350,367.046241L553.493927,367.083498L554.730746,367.693070L558.836571,371.704367L569.174515,371.835222L580.142583,379.804444L586.336762,375.626821L592.951078,386.455416L603.242925,390.325766L615.930658,416.670098L608.331681,417.404973L606.939298,421.665932L601.007074,423.389534L609.969308,426.136936L611.045811,435.944106L603.918100,439.780508L602.991731,450.347575L600.373227,454.585807L605.213461,461.517563L632.732787,470.297063L632.736290,470.320622L633.197507,470.234196L630.680141,461.896033L631.637439,454.175922L638.872175,449.245436L642.367086,443.805046L658.446102,433.156626L635.453436,424.749005L646.529340,419.683589L658.213025,416.187041L649.180503,406.483385L642.233536,394.531191L652.477302,396.163906L652.264387,396.034561L652.407994,395.818050L662.215875,393.988192L659.381862,400.437528L665.234378,403.708971L661.504410,405.049635L666.869884,412.535671L672.560854,414.280852L694.157502,406.719376L701.104731,417.854486L709.408413,424.922047L711.531056,422.393037L716.534795,425.512786L720.574550,423.955994L727.152031,426.798485L735.480147,424.698082L748.119562,431.607653L755.653455,447.304053L755.653591,447.334760L755.643726,447.573165L764.246273,460.409643L770.526209,461.625127L787.891638,449.669542L794.677434,446.215603L792.021110,439.437351L792.011865,439.428355L788.654836,429.683083L782.451789,426.339237L782.144935,418.531298L779.145757,411.297376L768.525848,408.610825L772.008547,398.382507L761.399902,389.617703L758.026833,390.876793L745.800011,389.065871L742.620773,375.967104L733.136406,370.212004L739.372822,353.132620L739.316639,353.165409L739.317822,353.146486L745.372433,349.679982L749.932443,353.129029L752.881686,359.547917L757.625011,358.368159L759.057831,352.807387L756.726378,348.239075L749.753000,343.118134L753.130936,340.426130L760.481042,339.933692L758.564918,333.530591L764.683264,336.942482L776.192023,319.286622L776.201604,319.286428L776.743272,319.336664L781.824005,323.314824L786.321684,322.928824L785.547209,315.312839L792.401959,319.474149L801.241728,316.555114L804.007492,307.163266L807.054341,307.115446L810.845372,300.074240L810.896507,291.452981L817.123308,289.664318L817.186780,289.686602L812.711894,270.297609L811.709288,271.396863L800.766118,262.426569L801.919155,246.897702L791.642182,236.652380L788.654662,236.652272L783.333443,227.917799L780.163087,226.405783L769.459105,204.313451L764.841134,207.680244L758.541210,194.021771L752.238850,191.464872L746.460229,192.399428L746.373319,192.648843Z " data-code="soorp-Nachod" data-name="Náchod"/>
    <path d="M213.158337,316.173428L218.986193,324.582900L226.513300,329.519230L227.354640,333.240322L235.173442,341.848130L242.724958,338.442794L240.831463,348.760864L249.003144,347.932175L255.088356,341.709797L270.867250,349.716549L271.072804,349.666218L271.411898,349.664970L282.090347,348.382766L285.312683,338.918859L294.448483,340.492734L298.279850,332.104515L312.974944,331.715379L323.720115,337.164498L323.007817,338.791903L342.173918,360.313164L342.306904,360.286422L342.318568,360.171560L342.715148,351.674624L352.026347,356.003935L354.029672,345.489069L359.639085,340.936196L359.662345,340.934737L359.625283,340.738021L358.331907,338.428245L366.024449,319.745401L365.866581,309.149678L336.080786,298.993304L328.387965,298.162274L320.434619,284.301852L320.300472,284.241286L316.365895,279.770412L304.433937,270.993594L302.565586,275.515045L293.464460,277.375825L292.205276,283.482183L285.547811,284.451318L274.882514,281.139234L261.213303,255.670587L252.366872,251.094331L247.187701,264.720756L239.335126,264.520617L238.475009,271.376898L220.312302,274.739469L223.095330,295.705216L229.816320,297.123173L229.832552,300.826298L219.615354,313.743532L216.091111,308.044650L213.181619,316.007277L213.158337,316.173428Z " data-code="soorp-Nova_Paka" data-name="Nová Paka"/>
    <path d="M632.736290,470.320622L632.748331,470.373680L619.479611,488.400086L617.951624,492.562935L618.021744,492.636525L618.214245,492.841347L635.272458,497.176275L637.574183,498.943882L639.891081,516.939293L648.413849,521.443936L648.488226,521.472997L648.490204,521.459082L655.316027,509.821684L678.786910,512.784310L688.316009,506.643610L688.489471,497.381111L684.603338,491.729518L701.078855,481.383134L711.600724,485.596057L719.446323,481.735127L725.324082,470.030732L737.568434,472.788085L749.122575,467.540704L747.704747,457.590114L755.605892,447.326268L755.653591,447.334760L755.653455,447.304053L748.119562,431.607653L735.480147,424.698082L727.152031,426.798485L720.574550,423.955994L716.534795,425.512786L711.531056,422.393037L709.408413,424.922047L701.104731,417.854486L694.157502,406.719376L672.560854,414.280852L666.869884,412.535671L661.504410,405.049635L665.234378,403.708971L659.381862,400.437528L662.215875,393.988192L652.407994,395.818050L652.264387,396.034561L652.477302,396.163906L642.233536,394.531191L649.180503,406.483385L658.213025,416.187041L646.529340,419.683589L635.453436,424.749005L658.446102,433.156626L642.367086,443.805046L638.872175,449.245436L631.637439,454.175922L630.680141,461.896033L633.197507,470.234196L632.736290,470.320622Z " data-code="soorp-Nove_Mesto_nad_Metuji" data-name="Nové Město nad Metují"/>
    <path d="M242.004555,480.963240L241.719108,480.888186L238.413641,480.095761L226.643401,488.317991L226.375559,497.797045L230.492079,502.458244L217.438147,517.612311L211.806652,517.418676L204.347118,512.180652L196.897948,512.594657L194.865138,521.650099L196.172366,531.029407L179.093207,538.150493L179.114007,538.722323L180.717790,562.626842L175.672748,564.180310L178.698633,591.836144L187.099602,599.271160L189.692812,612.066027L194.720654,609.976838L191.354664,620.419914L191.362540,620.575516L201.233108,621.803058L211.547562,630.637217L226.128379,633.714314L226.265973,638.503589L236.630551,638.489785L246.269128,643.096623L261.321530,646.244142L267.730999,642.415366L280.471490,625.727894L281.142831,622.996521L293.151703,625.999652L311.285330,628.559395L314.511348,622.861662L318.684076,635.429179L318.678130,635.585260L318.681368,635.583424L330.655926,617.132442L322.112890,606.301635L321.950153,600.426108L326.467062,582.531671L325.059953,574.332891L333.320580,567.459168L330.300960,559.008678L314.045804,550.168679L308.839547,539.272810L308.519274,534.657751L317.889887,537.403331L334.363311,536.747781L332.060884,535.228193L343.903135,531.555311L341.033598,529.213177L339.451651,517.923600L339.450502,517.879626L338.546454,518.006009L323.264628,512.942653L329.740331,505.940260L327.706449,503.498695L308.544097,502.394240L301.448364,497.563506L297.515976,489.761568L287.897818,485.596989L290.454464,482.769637L286.563847,474.612000L269.526423,468.698298L270.482861,473.364476L262.452171,475.272927L261.326520,489.446996L258.531521,489.407982L258.937899,495.870805L242.191979,481.149909L242.004555,480.963240Z " data-code="soorp-Novy_Bydzov" data-name="Nový Bydžov"/>
    <path d="M877.566880,486.888051L884.185919,507.794007L881.476456,510.401400L881.312622,510.602939L880.732976,510.956907L873.802007,515.586491L868.346959,513.083843L860.233453,540.607884L843.788821,529.982295L840.251983,532.235345L838.231036,539.351326L824.606810,543.225633L816.290264,530.033243L816.346114,532.669155L796.526136,548.049358L794.807166,551.199154L801.455966,555.176277L800.597407,563.312863L797.214515,565.396197L786.419049,563.004050L781.863318,559.040146L772.829281,561.681931L773.109597,556.715098L757.643950,555.535762L748.987713,561.811578L743.357063,559.763941L731.718625,559.716677L731.686371,559.681662L731.519339,559.755199L723.750859,567.511697L728.162087,573.588095L723.519596,588.498935L724.615230,590.864737L714.778787,600.428767L708.996185,598.629426L700.979376,600.901680L700.065692,588.726969L688.417668,592.189580L683.942249,587.701885L680.643202,588.915704L678.898730,607.769110L678.881308,607.840755L678.943928,608.142080L681.761051,612.565250L677.063296,614.218207L677.361151,619.567045L689.518106,626.453606L693.819173,641.881115L690.053640,642.518510L694.205796,650.585701L694.228256,650.604756L694.238362,650.606521L703.804445,647.497402L714.029079,651.139898L730.624260,651.252670L732.507757,658.962833L731.512363,669.653784L739.089026,685.965046L757.449619,680.983349L761.864734,673.917958L765.750501,675.847612L770.806000,672.781074L781.193597,672.969117L781.252563,678.391016L796.254282,674.747759L796.318219,674.655563L796.269195,674.737578L785.771787,684.826510L780.341474,687.196798L774.993231,696.288367L780.379052,698.357530L785.844992,704.797733L791.025240,714.842089L793.345366,725.631871L789.519971,739.967455L791.150985,741.524394L789.107167,750.727098L776.938576,761.565503L776.247057,770.044759L788.658126,779.253801L788.871798,778.712275L803.959812,778.886262L814.166537,783.993579L827.948026,786.841880L819.091989,763.846779L818.495641,757.232380L831.097020,756.170518L842.627731,748.394077L834.129228,738.276164L833.418134,735.307271L861.210458,718.566940L869.661488,707.772508L869.776365,707.484018L869.781823,707.469488L870.585395,703.495607L896.165228,699.359404L892.684436,695.360804L898.491782,689.880323L901.666794,692.511431L912.973935,688.292209L912.875947,687.854240L912.896111,687.846987L925.235959,681.161331L927.346087,669.230179L927.870193,654.777565L942.494524,652.163945L944.133317,654.190547L956.560254,658.492140L959.007232,667.299733L964.644793,669.538376L969.910203,668.363002L985.782275,677.956277L994.102665,678.884035L1000.000000,672.271455L999.952514,664.974604L983.874390,653.084202L984.942704,635.038959L979.148405,619.844556L983.692227,606.610516L981.745411,604.476140L979.891425,593.143745L967.141841,574.057609L957.174276,573.677926L951.199252,560.672163L947.200598,559.510052L946.649564,553.548035L928.942390,539.815582L919.635978,524.717310L918.792905,520.246043L909.913736,507.151831L905.637615,504.357885L902.615969,495.686108L892.983512,483.039255L882.812270,483.978036L877.459904,486.862645L877.566880,486.888051Z " data-code="soorp-Rychnov_nad_Kneznou" data-name="Rychnov nad Kněžnou"/>
    <path d="M396.895340,45.559419L393.794177,56.237326L385.592363,68.922780L377.477134,73.285951L383.746597,86.298028L402.334381,108.246078L412.673695,117.665321L419.814005,118.262130L417.977885,153.362005L417.982268,153.417716L418.045034,153.511738L421.493643,158.509064L432.259882,163.888877L435.468049,167.931127L452.287805,168.417348L457.696431,173.134945L457.796784,173.270848L458.005447,174.039280L461.355523,178.137678L465.171543,197.768998L463.696598,203.470555L454.308696,206.549247L449.322643,214.455867L437.198740,221.345122L431.789616,221.562257L428.055102,229.907919L428.804453,243.296310L432.912612,256.596856L426.885522,264.799600L426.501421,280.988169L423.337647,279.894277L424.387533,270.986850L421.027363,266.734726L406.056237,264.818582L397.145577,259.363373L394.423692,251.580114L385.954560,247.019829L385.812172,246.987418L385.629834,247.035044L377.016909,256.900525L360.911980,264.603174L351.727067,272.594782L351.733912,272.642205L351.770938,273.072271L351.457116,274.999392L351.498341,275.382821L361.305992,289.362153L374.605940,282.966225L387.363307,291.171246L404.391714,296.442808L403.648335,306.150835L409.445915,303.875220L411.946760,293.732303L418.948102,299.519139L431.125501,304.457422L445.481177,301.843242L451.625436,302.461755L455.511417,297.039106L466.477413,292.873483L484.271898,302.267519L491.523726,299.837074L496.069268,314.062430L492.352808,319.980395L512.888105,322.068237L511.934521,332.919046L517.652114,319.495847L526.414528,324.806811L526.863315,334.356114L529.460067,341.238993L540.632126,333.997603L553.631470,337.303814L561.957386,336.048408L562.349103,336.228685L562.598704,335.719129L566.224165,332.864639L571.219470,333.689720L574.316021,323.597962L574.362589,323.462710L574.984169,324.055835L585.983583,320.205335L588.539631,326.661383L603.626552,332.395022L611.296341,329.822224L612.823245,328.924983L612.830325,328.870389L616.592869,319.887427L623.309655,323.802016L632.115650,323.056555L633.110409,319.610106L644.689226,316.278733L644.857389,308.668364L655.371220,309.635822L664.046273,303.664796L673.292139,304.415906L667.906994,296.539163L669.418431,293.419821L679.937683,293.937405L679.952640,293.901218L679.644436,293.844444L675.674281,284.784422L669.913125,280.651912L673.510016,268.728479L673.589983,268.581878L673.861551,268.700667L685.864011,262.611452L680.414806,258.938342L693.622471,244.739752L693.814806,244.154311L693.827240,244.116311L692.974970,242.422417L692.899467,242.201661L692.724656,239.274182L692.929260,239.203346L692.908663,239.130236L690.879006,224.534802L680.358929,218.536974L676.289170,214.104610L678.918808,209.708240L677.716460,194.756448L680.900024,193.848642L679.210312,185.836920L676.646386,188.238724L664.560377,183.290065L654.822088,181.995131L652.267281,178.879851L644.001718,180.830536L647.822342,197.539783L642.872149,200.296549L637.669855,182.286764L637.127065,181.988767L628.558324,177.509193L616.630451,194.172106L608.373039,185.764913L605.587146,187.725083L590.574802,177.241407L590.584485,177.134115L590.822599,176.628200L598.671089,168.441693L602.675544,132.028055L597.961502,115.161586L593.065502,110.978022L591.334794,102.482479L573.765630,95.142007L560.753047,100.346248L535.549257,108.573506L522.036368,116.538393L505.988937,113.922412L505.806040,113.894895L505.819640,113.607441L507.009730,108.861717L500.461634,86.120188L499.505746,79.352279L484.827017,60.879282L486.090843,41.376133L481.476867,37.839009L475.481265,27.936208L458.851518,30.798392L457.880459,35.485336L448.311417,41.799130L439.366105,40.212709L423.820618,48.509672L411.746683,44.778572L401.136018,47.220606L396.948712,45.580808L396.895340,45.559419Z " data-code="soorp-Trutnov" data-name="Trutnov"/>
    <path d="M351.727067,272.594782L360.911980,264.603174L377.016909,256.900525L385.629834,247.035044L385.812172,246.987418L385.954560,247.019829L394.423692,251.580114L397.145577,259.363373L406.056237,264.818582L421.027363,266.734726L424.387533,270.986850L423.337647,279.894277L426.501421,280.988169L426.885522,264.799600L432.912612,256.596856L428.804453,243.296310L428.055102,229.907919L431.789616,221.562257L437.198740,221.345122L449.322643,214.455867L454.308696,206.549247L463.696598,203.470555L465.171543,197.768998L461.355523,178.137678L458.005447,174.039280L457.796784,173.270848L457.696431,173.134945L452.287805,168.417348L435.468049,167.931127L432.259882,163.888877L421.493643,158.509064L418.045034,153.511738L417.982268,153.417716L417.977885,153.362005L419.814005,118.262130L412.673695,117.665321L402.334381,108.246078L383.746597,86.298028L377.477134,73.285951L385.592363,68.922780L393.794177,56.237326L396.895340,45.559419L395.708665,45.148723L389.625627,41.311409L385.285733,29.695992L362.707939,23.526781L347.572846,17.911481L339.920769,9.138244L328.052303,4.979636L302.090936,5.047482L289.849429,1.453582L286.355111,3.598930L286.570605,19.466101L293.062777,29.933184L306.634488,37.729972L310.408943,42.719460L311.167980,51.440963L302.033637,73.778165L306.332208,89.607613L303.970323,105.607777L306.594144,109.116870L312.702311,142.837464L308.643780,149.144591L311.660085,156.583735L317.968830,159.987867L323.246807,172.527768L329.803867,177.056214L317.121518,194.243189L319.223251,197.132028L310.284537,213.174186L324.086101,220.226217L320.341944,227.674810L328.190390,238.312030L332.720134,240.088988L340.929386,255.314118L345.203775,258.990609L351.567768,272.603126L351.727067,272.594782Z " data-code="soorp-Vrchlabi" data-name="Vrchlabí"/>
  </g>
  <g class="" id="soopu">
    <path d="M801.362797,126.915777L801.402977,127.136643L805.250566,135.890337L798.847182,153.024645L791.207894,155.770924L785.405655,163.414350L785.677083,166.284383L767.768521,169.193656L769.348198,172.884009L756.229558,179.299793L762.716700,181.740276L755.313133,188.293405L746.361601,192.645636L746.373319,192.648843L746.460229,192.399428L752.238850,191.464872L758.541210,194.021771L764.841134,207.680244L769.459105,204.313451L780.163087,226.405783L783.333443,227.917799L788.654662,236.652272L791.642182,236.652380L801.919155,246.897702L800.766118,262.426569L811.709288,271.396863L812.711894,270.297609L817.186780,289.686602L817.726261,290.070309L833.051405,302.252454L846.466968,293.214924L853.717046,279.507543L870.374454,268.309180L875.244268,247.163489L876.009770,232.095119L874.054052,223.749340L887.567016,222.009518L900.177551,211.529767L897.025952,201.083148L876.071252,177.262923L866.348709,171.228342L860.877332,165.148177L845.889442,143.443841L845.847581,141.234651L836.586136,140.388786L831.614937,130.303080L816.588748,120.550180L807.380639,126.867517L801.359302,126.901080L801.362797,126.915777Z " data-code="soopu-Broumov" data-name="Broumov"/>
    <path d="M637.669855,182.286764L642.872149,200.296549L647.822342,197.539783L644.001718,180.830536L652.267281,178.879851L654.822088,181.995131L664.560377,183.290065L676.646386,188.238724L679.210312,185.836920L680.900024,193.848642L677.716460,194.756448L678.918808,209.708240L676.289170,214.104610L680.358929,218.536974L690.879006,224.534802L692.908663,239.130236L692.929260,239.203346L693.477664,238.683827L699.190516,227.228443L720.245256,239.653010L724.210714,237.685389L731.077181,241.854912L730.150673,236.159882L739.735016,222.880644L737.966157,214.890273L752.854901,203.211877L751.507069,194.698108L746.386485,192.653705L746.373319,192.648843L746.361601,192.645636L755.313133,188.293405L762.716700,181.740276L756.229558,179.299793L769.348198,172.884009L767.768521,169.193656L785.677083,166.284383L785.405655,163.414350L791.207894,155.770924L798.847182,153.024645L805.250566,135.890337L801.402977,127.136643L801.362797,126.915777L801.112929,126.963864L790.274771,127.041019L788.079116,119.067079L773.875410,120.281601L757.123736,116.321911L754.723948,119.914174L750.381258,135.538567L747.554724,154.634701L745.765728,157.153899L720.918292,161.000362L721.284745,156.320885L714.620317,144.042386L699.667991,135.572605L691.782506,136.211768L681.905281,127.885371L675.171138,129.521021L669.762402,125.311918L661.366323,137.079373L659.743580,136.483056L652.411348,145.688286L644.780517,152.356988L640.140514,165.783429L637.918300,181.724613L637.669855,182.286764Z " data-code="soopu-Teplice_nad_Metuji" data-name="Teplice nad Metují"/>
    <path d="M792.021110,439.437351L794.677434,446.215603L787.891638,449.669542L770.526209,461.625127L764.246273,460.409643L755.643726,447.573165L755.653591,447.334760L755.605892,447.326268L747.704747,457.590114L749.122575,467.540704L737.568434,472.788085L725.324082,470.030732L719.446323,481.735127L711.600724,485.596057L701.078855,481.383134L684.603338,491.729518L688.489471,497.381111L688.316009,506.643610L678.786910,512.784310L655.316027,509.821684L648.490204,521.459082L648.488226,521.472997L648.476241,521.518749L647.983892,526.780052L670.691850,532.253417L685.099113,528.890602L688.821945,538.495479L701.646158,539.847810L705.976045,545.906455L729.374115,550.375035L731.923192,558.938781L731.686371,559.681662L731.718625,559.716677L743.357063,559.763941L748.987713,561.811578L757.643950,555.535762L773.109597,556.715098L772.829281,561.681931L781.863318,559.040146L786.419049,563.004050L797.214515,565.396197L800.597407,563.312863L801.455966,555.176277L794.807166,551.199154L796.526136,548.049358L816.346114,532.669155L816.290264,530.033243L824.606810,543.225633L838.231036,539.351326L840.251983,532.235345L843.788821,529.982295L860.233453,540.607884L868.346959,513.083843L873.802007,515.586491L880.732976,510.956907L881.312622,510.602939L881.476456,510.401400L884.185919,507.794007L877.566880,486.888051L877.587196,486.918824L872.259934,489.607292L861.235271,479.478020L855.695637,465.198920L848.488552,460.321916L846.037846,453.172884L850.575130,438.990431L836.087562,425.201410L832.699301,427.491001L819.651622,423.303812L818.089657,424.648897L803.979490,424.550558L799.909489,432.001291L792.035827,439.401575L792.021110,439.437351Z " data-code="soopu-Dobruska" data-name="Dobruška"/>
    <path d="M618.021744,492.636525L617.999342,492.676312L611.855642,508.693531L581.445202,509.358958L581.052365,509.517353L581.059345,509.535484L585.139697,514.387666L594.245705,531.030997L593.143407,540.240263L601.482267,547.373816L601.877910,547.377080L602.020869,547.374165L615.399113,552.444331L614.807518,559.547201L623.370406,571.610213L630.304659,574.469976L635.091222,580.646983L632.453082,581.156427L644.629904,587.857151L644.708456,588.024886L644.779014,588.008562L656.133776,591.709090L661.363293,590.599214L666.230231,597.519802L667.362324,604.694086L678.442449,607.449071L678.881308,607.840755L678.898730,607.769110L680.643202,588.915704L683.942249,587.701885L688.417668,592.189580L700.065692,588.726969L700.979376,600.901680L708.996185,598.629426L714.778787,600.428767L724.615230,590.864737L723.519596,588.498935L728.162087,573.588095L723.750859,567.511697L731.519339,559.755199L731.686371,559.681662L731.923192,558.938781L729.374115,550.375035L705.976045,545.906455L701.646158,539.847810L688.821945,538.495479L685.099113,528.890602L670.691850,532.253417L647.983892,526.780052L648.476241,521.518749L648.488226,521.472997L648.413849,521.443936L639.891081,516.939293L637.574183,498.943882L635.272458,497.176275L618.214245,492.841347L618.021744,492.636525Z " data-code="soopu-Opocno" data-name="Opočno"/>
    <path d="M320.434619,284.301852L328.387965,298.162274L336.080786,298.993304L365.866581,309.149678L366.024449,319.745401L358.331907,338.428245L359.625283,340.738021L359.662345,340.934737L359.723821,340.930783L369.231109,351.919476L380.148823,353.375189L383.074213,360.529383L391.080402,359.862341L390.055255,367.222036L386.469745,371.004142L394.639762,380.165215L391.075143,384.500536L395.717161,391.934612L399.583073,391.451832L409.854114,400.579849L413.426094,405.577198L411.774430,413.900459L408.056647,416.351415L409.786725,433.324694L411.361196,432.875339L412.654995,448.305103L416.208435,459.306034L424.472308,469.490191L424.874019,470.111936L424.958676,470.148235L435.747531,462.939615L444.849710,462.366716L449.205224,458.019722L456.950345,464.754573L458.477465,459.643009L464.366293,462.705536L464.593092,462.533779L464.481204,462.172342L460.081315,451.983101L467.050801,453.277345L466.248251,450.317572L487.062042,450.435364L499.024767,440.142071L505.243969,440.024677L508.750537,436.738599L507.157554,428.815438L515.829457,425.154653L520.725505,417.822566L524.050154,418.542574L532.267266,397.588684L537.038759,399.391503L552.887385,411.563964L558.120701,404.488295L567.426288,397.969824L562.898861,395.252286L558.751663,386.617894L553.479829,367.114863L553.493927,367.083498L553.511350,367.046241L556.773189,343.864020L566.407787,339.999748L562.585294,336.409538L562.349103,336.228685L561.957386,336.048408L553.631470,337.303814L540.632126,333.997603L529.460067,341.238993L526.863315,334.356114L526.414528,324.806811L517.652114,319.495847L511.934521,332.919046L512.888105,322.068237L492.352808,319.980395L496.069268,314.062430L491.523726,299.837074L484.271898,302.267519L466.477413,292.873483L455.511417,297.039106L451.625436,302.461755L445.481177,301.843242L431.125501,304.457422L418.948102,299.519139L411.946760,293.732303L409.445915,303.875220L403.648335,306.150835L404.391714,296.442808L387.363307,291.171246L374.605940,282.966225L361.305992,289.362153L351.498341,275.382821L351.331808,275.387705L322.877432,279.248584L320.445891,284.187716L320.434619,284.301852Z " data-code="soopu-Dvur_Kralove_nad_Labem" data-name="Dvůr Králové nad Labem"/>
    <path d="M359.662345,340.934737L359.639085,340.936196L354.029672,345.489069L352.026347,356.003935L342.715148,351.674624L342.318568,360.171560L342.306904,360.286422L342.462587,360.384742L341.039816,364.397905L345.970052,378.951825L335.294225,393.100530L321.533593,391.509622L319.348112,397.756294L323.475957,403.834857L315.055501,415.287852L298.641064,413.360583L283.225903,414.824198L277.112799,414.061725L272.920145,405.536011L267.276872,404.745036L266.701340,404.714628L266.425317,404.784447L258.512821,409.258555L258.727954,413.561930L251.894759,417.786448L256.173481,423.083537L249.431728,420.466325L247.849453,437.840448L230.576114,442.122578L237.071652,450.240750L233.915843,465.355151L238.564777,468.104142L242.010119,480.943980L242.004555,480.963240L242.191979,481.149909L258.937899,495.870805L258.531521,489.407982L261.326520,489.446996L262.452171,475.272927L270.482861,473.364476L269.526423,468.698298L286.563847,474.612000L290.454464,482.769637L287.897818,485.596989L297.515976,489.761568L301.448364,497.563506L308.544097,502.394240L327.706449,503.498695L329.740331,505.940260L323.264628,512.942653L338.546454,518.006009L339.450502,517.879626L339.475832,517.802598L343.596572,512.436850L341.488151,508.941735L353.418597,499.992121L355.742844,500.736796L364.425165,480.993854L367.451145,485.034437L378.483376,490.097145L378.343317,490.504994L378.807332,490.576109L404.761229,487.232902L418.516926,489.017666L418.723857,488.874793L418.811951,488.762931L420.247257,488.137540L422.108661,478.186345L425.568714,470.973091L424.874019,470.111936L424.472308,469.490191L416.208435,459.306034L412.654995,448.305103L411.361196,432.875339L409.786725,433.324694L408.056647,416.351415L411.774430,413.900459L413.426094,405.577198L409.854114,400.579849L399.583073,391.451832L395.717161,391.934612L391.075143,384.500536L394.639762,380.165215L386.469745,371.004142L390.055255,367.222036L391.080402,359.862341L383.074213,360.529383L380.148823,353.375189L369.231109,351.919476L359.723821,340.930783L359.662345,340.934737Z " data-code="soopu-Horice" data-name="Hořice"/>
    <path d="M378.343317,490.504994L377.950598,490.364497L379.194253,498.584766L384.776682,498.718397L383.073470,508.628814L386.257039,513.274322L388.679023,522.929072L372.119704,539.269861L368.361051,547.663780L375.578862,551.582840L381.022978,558.406555L378.933080,568.629225L399.966803,565.165392L402.023678,559.829978L411.589063,559.536795L418.811821,567.360854L421.391516,578.839734L416.788907,584.689844L408.189584,590.234376L405.499703,597.699006L386.269238,601.985921L384.275235,605.872612L367.429383,601.194925L363.848782,601.698996L361.177251,612.887424L365.895964,618.336165L363.140622,622.390987L359.096142,621.415844L354.466960,625.977105L343.799570,645.975585L339.069964,642.558609L314.210888,644.219887L314.013046,644.225761L314.017336,644.271091L311.429673,652.995128L308.649390,656.763652L308.764219,671.337991L308.774223,671.378105L309.103721,671.696732L316.064428,674.435984L319.890650,686.995338L329.256539,684.849867L339.570023,686.317974L347.603135,684.868654L357.229445,689.620637L360.998838,685.086222L388.337526,696.124547L396.718907,685.712457L400.160646,685.152193L415.685599,689.098762L418.787338,680.792320L424.991407,678.077838L425.702420,659.863977L434.580894,657.134117L435.652133,652.139469L442.799081,653.347797L449.293365,644.537196L465.743869,658.131688L469.606926,682.400804L478.007849,686.749115L493.654992,689.609630L501.203297,681.506685L501.387279,674.287148L525.048690,674.699566L525.295130,662.816038L529.693906,657.744113L542.016896,657.746204L545.239627,649.657049L545.247401,649.619413L545.255092,649.581883L552.039439,637.520490L552.557580,629.960970L550.854905,614.075134L552.845224,613.899200L552.895032,613.870839L552.921275,613.855823L557.382246,613.702821L551.928331,605.669597L543.669491,600.484677L554.996123,585.605615L582.903949,591.420704L582.042805,588.405197L584.973293,576.231783L602.459866,577.978860L603.643962,570.672330L601.485282,563.181246L601.874375,547.398022L601.877910,547.377080L601.482267,547.373816L593.143407,540.240263L594.245705,531.030997L585.139697,514.387666L581.059345,509.535484L581.052365,509.517353L580.980001,509.329130L579.854626,508.990498L579.617113,509.242534L579.538393,509.325239L579.505073,509.343710L564.648333,511.679066L565.264645,521.667565L561.914262,524.759445L550.777048,525.068061L548.708750,528.663040L542.824453,525.429927L533.867658,529.693600L530.415167,528.139626L522.271506,534.174573L521.787065,542.806874L524.631510,546.240494L516.523060,552.363499L512.180289,547.817376L509.615862,553.748620L494.411030,550.796248L490.118967,547.817397L493.614980,537.067219L496.889877,536.704224L488.020353,531.298610L481.933318,521.302671L476.599558,519.053511L472.410716,530.153489L462.411382,531.863845L454.157430,526.828822L451.086747,517.026110L442.214257,516.982842L437.767130,514.279084L429.738870,492.459603L418.763836,488.922169L418.723857,488.874793L418.516926,489.017666L404.761229,487.232902L378.807332,490.576109L378.343317,490.504994Z " data-code="soopu-Hradec_Kralove" data-name="Hradec Králové"/>
    <path d="M191.310054,620.694909L187.922768,632.296873L166.824535,657.638278L175.871178,661.866303L175.212528,665.260893L161.939827,674.930892L195.986695,687.046166L196.747056,683.838854L220.254375,694.346529L225.127829,698.388845L217.554905,707.638594L227.516647,728.594015L229.399599,729.286376L257.618920,709.761474L266.988929,709.135232L271.315307,702.893698L275.891699,707.027997L274.265426,700.132853L293.308606,682.769829L295.071290,687.324038L309.474788,679.634510L307.866470,671.994734L308.774223,671.378105L308.764219,671.337991L308.649390,656.763652L311.429673,652.995128L314.017336,644.271091L314.013046,644.225761L313.993700,644.206232L314.238193,637.351116L318.668323,635.619578L318.678130,635.585260L318.684076,635.429179L314.511348,622.861662L311.285330,628.559395L293.151703,625.999652L281.142831,622.996521L280.471490,625.727894L267.730999,642.415366L261.321530,646.244142L246.269128,643.096623L236.630551,638.489785L226.265973,638.503589L226.128379,633.714314L211.547562,630.637217L201.233108,621.803058L191.362540,620.575516L191.310054,620.694909Z " data-code="soopu-Chlumec_nad_Cidlinou" data-name="Chlumec nad Cidlinou"/>
    <path d="M339.450502,517.879626L339.451651,517.923600L341.033598,529.213177L343.903135,531.555311L332.060884,535.228193L334.363311,536.747781L317.889887,537.403331L308.519274,534.657751L308.839547,539.272810L314.045804,550.168679L330.300960,559.008678L333.320580,567.459168L325.059953,574.332891L326.467062,582.531671L321.950153,600.426108L322.112890,606.301635L330.655926,617.132442L318.681368,635.583424L318.678130,635.585260L318.668323,635.619578L314.238193,637.351116L313.993700,644.206232L314.013046,644.225761L314.210888,644.219887L339.069964,642.558609L343.799570,645.975585L354.466960,625.977105L359.096142,621.415844L363.140622,622.390987L365.895964,618.336165L361.177251,612.887424L363.848782,601.698996L367.429383,601.194925L384.275235,605.872612L386.269238,601.985921L405.499703,597.699006L408.189584,590.234376L416.788907,584.689844L421.391516,578.839734L418.811821,567.360854L411.589063,559.536795L402.023678,559.829978L399.966803,565.165392L378.933080,568.629225L381.022978,558.406555L375.578862,551.582840L368.361051,547.663780L372.119704,539.269861L388.679023,522.929072L386.257039,513.274322L383.073470,508.628814L384.776682,498.718397L379.194253,498.584766L377.950598,490.364497L378.343317,490.504994L378.483376,490.097145L367.451145,485.034437L364.425165,480.993854L355.742844,500.736796L353.418597,499.992121L341.488151,508.941735L343.596572,512.436850L339.475832,517.802598L339.450502,517.879626Z " data-code="soopu-Nechanice" data-name="Nechanice"/>
    <path d="M424.874019,470.111936L425.568714,470.973091L422.108661,478.186345L420.247257,488.137540L418.811951,488.762931L418.723857,488.874793L418.763836,488.922169L429.738870,492.459603L437.767130,514.279084L442.214257,516.982842L451.086747,517.026110L454.157430,526.828822L462.411382,531.863845L472.410716,530.153489L476.599558,519.053511L481.933318,521.302671L488.020353,531.298610L496.889877,536.704224L493.614980,537.067219L490.118967,547.817397L494.411030,550.796248L509.615862,553.748620L512.180289,547.817376L516.523060,552.363499L524.631510,546.240494L521.787065,542.806874L522.271506,534.174573L530.415167,528.139626L533.867658,529.693600L542.824453,525.429927L548.708750,528.663040L550.777048,525.068061L561.914262,524.759445L565.264645,521.667565L564.648333,511.679066L579.505073,509.343710L579.538393,509.325239L579.527329,509.313091L572.229079,498.549921L568.096860,510.806080L563.184336,511.650328L550.039655,507.481291L541.122759,510.195046L531.072779,511.214683L521.260073,506.217692L523.381869,496.113750L523.032720,488.043888L517.050163,480.620393L509.315199,478.209626L499.939032,485.580591L494.306607,476.882171L482.197752,466.639416L473.609791,474.469228L467.861914,471.416075L464.840256,463.174660L464.593092,462.533779L464.366293,462.705536L458.477465,459.643009L456.950345,464.754573L449.205224,458.019722L444.849710,462.366716L435.747531,462.939615L424.958676,470.148235L424.874019,470.111936Z " data-code="soopu-Smirice" data-name="Smiřice"/>
    <path d="M601.877910,547.377080L601.874375,547.398022L601.485282,563.181246L603.643962,570.672330L602.459866,577.978860L584.973293,576.231783L582.042805,588.405197L582.903949,591.420704L554.996123,585.605615L543.669491,600.484677L551.928331,605.669597L557.382246,613.702821L552.921275,613.855823L552.895031,613.870839L552.845224,613.899200L550.854905,614.075134L552.557580,629.960970L552.039439,637.520490L545.255092,649.581883L545.247401,649.619413L545.347538,649.639008L560.892481,660.003744L567.713817,656.989497L577.566457,663.495518L595.609095,663.595332L596.518145,663.602466L596.648605,642.139293L613.201852,650.034089L607.417215,633.126341L612.840702,620.689861L614.932314,621.804077L629.606053,620.677636L635.099330,621.612327L641.543779,613.037694L641.854923,612.437971L642.074122,612.015470L638.736470,604.903941L646.727874,599.427876L644.448494,588.343501L644.708456,588.024886L644.629904,587.857151L632.453082,581.156427L635.091222,580.646983L630.304659,574.469976L623.370406,571.610213L614.807518,559.547201L615.399113,552.444331L602.020869,547.374165L601.877910,547.377080Z " data-code="soopu-Trebechovice_pod_Orebem" data-name="Třebechovice pod Orebem"/>
    <path d="M553.493927,367.083498L553.479829,367.114863L558.751663,386.617894L562.898861,395.252286L567.426288,397.969824L558.120701,404.488295L552.887385,411.563964L537.038759,399.391503L532.267266,397.588684L524.050154,418.542574L520.725505,417.822566L515.829457,425.154653L507.157554,428.815438L508.750537,436.738599L505.243969,440.024677L499.024767,440.142071L487.062042,450.435364L466.248251,450.317572L467.050801,453.277345L460.081315,451.983101L464.481204,462.172342L464.593092,462.533779L464.840256,463.174660L467.861914,471.416075L473.609791,474.469228L482.197752,466.639416L494.306607,476.882171L499.939032,485.580591L509.315199,478.209626L517.050163,480.620393L523.032720,488.043888L523.381869,496.113750L521.260073,506.217692L531.072779,511.214683L541.122759,510.195046L550.039655,507.481291L563.184336,511.650328L568.096860,510.806080L572.229079,498.549921L579.527329,509.313091L579.538393,509.325239L579.617113,509.242534L579.854626,508.990498L580.980001,509.329130L581.052365,509.517353L581.445202,509.358958L611.855642,508.693531L617.999342,492.676312L618.021744,492.636525L617.951624,492.562935L619.479611,488.400086L632.748331,470.373680L632.736290,470.320622L632.732787,470.297063L605.213461,461.517563L600.373227,454.585807L602.991731,450.347575L603.918100,439.780508L611.045811,435.944106L609.969308,426.136936L601.007074,423.389534L606.939298,421.665932L608.331681,417.404973L615.930658,416.670098L603.242925,390.325766L592.951078,386.455416L586.336762,375.626821L580.142583,379.804444L569.174515,371.835222L558.836571,371.704367L554.730746,367.693070L553.493927,367.083498Z " data-code="soopu-Jaromer" data-name="Jaroměř"/>
    <path d="M87.734380,299.607168L88.249798,300.069287L105.500670,308.669431L108.977013,312.209061L109.889682,323.116438L117.101746,326.330780L119.898976,331.859030L106.666667,333.672298L107.948834,348.627637L111.518640,352.041995L109.664001,358.222579L97.997804,366.295269L89.307583,362.857920L86.266801,374.139642L87.210791,379.965132L81.599621,377.433115L76.576397,384.141086L76.484700,388.544313L76.757360,389.480705L76.992167,389.403539L82.993920,392.939594L87.447567,389.538663L95.477187,395.627019L101.424350,410.489462L99.271019,415.252667L104.082383,416.425037L101.460146,419.591419L112.241197,427.313807L112.739392,432.976771L119.934910,439.292182L121.843359,444.065881L128.812985,446.467169L133.349348,460.808901L132.702469,467.869441L139.232624,473.207448L151.873030,470.872020L153.742007,479.839080L170.825645,496.009717L160.390872,510.387749L160.304718,510.815969L160.205363,511.329481L165.750900,522.540994L171.162535,522.760143L179.067784,537.905063L179.093207,538.150493L196.172366,531.029407L194.865138,521.650099L196.897948,512.594657L204.347118,512.180652L211.806652,517.418676L217.438147,517.612311L230.492079,502.458244L226.375559,497.797045L226.643401,488.317991L238.413641,480.095761L241.719108,480.888186L242.004555,480.963240L242.010119,480.943980L238.564777,468.104142L233.915843,465.355151L237.071652,450.240750L230.576114,442.122578L247.849453,437.840448L249.431728,420.466325L256.173481,423.083537L251.894759,417.786448L258.727954,413.561930L258.512821,409.258555L266.425317,404.784447L266.701340,404.714628L266.684344,404.397790L266.243210,400.215325L257.159466,388.383119L261.299097,380.018292L256.721772,375.861142L264.277936,370.489741L263.024280,362.111962L271.012607,349.897693L271.072804,349.666218L270.867250,349.716549L255.088356,341.709797L249.003144,347.932175L240.831463,348.760864L242.724958,338.442794L235.173442,341.848130L227.354640,333.240322L226.513300,329.519230L218.986193,324.582900L213.158337,316.173428L213.072404,316.184087L204.728140,319.677801L187.647328,319.574086L185.285012,311.986250L181.069535,309.610499L184.741851,302.214006L182.664956,292.572565L175.052914,295.063772L172.697264,304.668344L166.579324,297.627160L157.575180,295.083059L151.572579,285.166045L146.243479,282.566971L141.959070,285.993064L139.877949,282.584074L128.013161,279.746205L114.718269,273.278131L109.579425,276.399527L101.879006,275.650403L89.699214,289.827733L87.735655,299.589775L87.734380,299.607168Z " data-code="soopu-Jicin" data-name="Jičín"/>
    <path d="M160.304718,510.815969L160.390872,510.387749L170.825645,496.009717L153.742007,479.839080L151.873030,470.872020L139.232624,473.207448L132.702469,467.869441L133.349348,460.808901L128.812985,446.467169L121.843359,444.065881L119.934910,439.292182L112.739392,432.976771L112.241197,427.313807L101.460146,419.591419L104.082383,416.425037L99.271019,415.252667L101.424350,410.489462L95.477187,395.627019L87.447567,389.538663L82.993920,392.939594L76.992167,389.403539L76.757360,389.480705L76.903468,390.186096L76.399794,401.715484L73.209397,402.897386L57.572217,401.241498L54.743975,395.945652L49.345909,399.299320L36.835548,394.134906L27.440774,400.729467L25.573059,399.458126L25.404764,399.406777L25.026793,399.192146L15.633314,400.342310L18.748360,408.298072L10.748674,418.894069L0.225986,421.182176L0.637891,436.146159L3.632232,441.330184L11.333958,443.655583L4.928753,449.746201L6.168117,454.572990L18.412589,465.876032L24.971491,468.874368L36.654682,463.814081L43.030243,467.066355L48.149957,474.068551L47.334660,481.480527L53.857799,480.611045L57.163468,484.611164L69.859822,492.090473L68.953561,495.691806L61.092781,502.584205L63.691444,503.151208L76.761498,524.040959L78.636010,521.468526L91.282713,522.204678L101.929788,517.712775L107.817133,523.319755L109.918780,519.423382L115.594092,521.091240L130.232656,531.418983L138.370252,520.046192L144.510483,521.118728L148.149571,518.010265L154.651808,518.119080L160.274618,510.879704L160.304718,510.815969Z " data-code="soopu-Kopidlno" data-name="Kopidlno"/>
    <path d="M271.072804,349.666218L271.012607,349.897693L263.024280,362.111962L264.277936,370.489741L256.721772,375.861142L261.299097,380.018292L257.159466,388.383119L266.243210,400.215325L266.684344,404.397790L266.701340,404.714628L267.276872,404.745036L272.920145,405.536011L277.112799,414.061725L283.225903,414.824198L298.641064,413.360583L315.055501,415.287852L323.475957,403.834857L319.348112,397.756294L321.533593,391.509622L335.294225,393.100530L345.970052,378.951825L341.039816,364.397905L342.462587,360.384742L342.306904,360.286422L342.173918,360.313164L323.007817,338.791903L323.720115,337.164498L312.974944,331.715379L298.279850,332.104515L294.448483,340.492734L285.312683,338.918859L282.090347,348.382766L271.411898,349.664970L271.072804,349.666218Z " data-code="soopu-Lazne_Belohrad" data-name="Lázně Bělohrad"/>
    <path d="M25.404764,399.406777L25.573059,399.458126L27.440774,400.729467L36.835548,394.134906L49.345909,399.299320L54.743975,395.945652L57.572217,401.241498L73.209397,402.897386L76.399794,401.715484L76.903468,390.186096L76.757360,389.480705L76.484700,388.544313L76.576397,384.141086L81.599621,377.433115L87.210791,379.965132L86.266801,374.139642L89.307583,362.857920L97.997804,366.295269L109.664001,358.222579L111.518640,352.041995L107.948834,348.627637L106.666667,333.672298L119.898976,331.859030L117.101746,326.330780L109.889682,323.116438L108.977013,312.209061L105.500670,308.669431L88.249798,300.069287L87.734380,299.607168L87.735016,299.630880L74.029961,303.715820L53.088819,293.699755L45.456733,287.271514L19.075424,275.947605L16.746326,280.978414L1.677210,289.982413L0.516090,293.428933L14.394662,309.119510L12.375834,318.298249L18.544180,322.980259L20.306987,328.200772L14.697055,342.941682L14.073453,354.212354L21.712523,353.721506L27.973734,364.173693L24.644782,371.231848L32.990072,375.683484L27.945997,396.659920L25.601291,399.169052L25.404764,399.406777Z " data-code="soopu-Sobotka" data-name="Sobotka"/>
    <path d="M694.228256,650.604756L693.994678,651.069391L696.123535,670.316393L694.059985,672.234691L698.041592,686.835298L689.768372,692.814165L685.537027,691.870407L682.859747,700.242994L691.205099,712.150344L695.716721,729.724398L693.540114,731.208116L701.959313,734.321369L701.935894,727.402861L708.824461,727.312343L720.633157,734.686203L724.748629,734.854780L723.212437,747.351958L713.289268,752.903846L716.536847,760.311829L713.171307,764.790433L713.163469,764.810740L713.144205,764.863059L722.135179,767.643592L727.489750,776.128124L731.971501,779.360377L735.833730,788.957243L748.720242,782.401086L758.222991,783.334010L767.095707,779.332155L766.681697,771.951498L773.589482,773.264188L773.484165,784.536795L788.704492,780.140721L788.658126,779.253801L776.247057,770.044759L776.938576,761.565503L789.107167,750.727098L791.150985,741.524394L789.519971,739.967455L793.345366,725.631871L791.025240,714.842089L785.844992,704.797733L780.379052,698.357530L774.993231,696.288367L780.341474,687.196798L785.771787,684.826510L796.269195,674.737578L796.318219,674.655563L796.254282,674.747759L781.252563,678.391016L781.193597,672.969117L770.806000,672.781074L765.750501,675.847612L761.864734,673.917958L757.449619,680.983349L739.089026,685.965046L731.512363,669.653784L732.507757,658.962833L730.624260,651.252670L714.029079,651.139898L703.804445,647.497402L694.238362,650.606521L694.228256,650.604756Z " data-code="soopu-Kostelec_nad_Orlici" data-name="Kostelec nad Orlicí"/>
    <path d="M644.708456,588.024886L644.448494,588.343501L646.727874,599.427876L638.736470,604.903941L642.074122,612.015470L641.854924,612.437971L641.543779,613.037694L635.099330,621.612327L629.606053,620.677636L614.932314,621.804077L612.840702,620.689861L607.417215,633.126341L613.201852,650.034089L596.648605,642.139293L596.518145,663.602466L596.518150,663.622500L602.246192,675.569678L608.366804,675.607412L608.555696,709.651365L609.532796,711.154708L645.481099,711.194859L656.017682,739.836471L671.223551,742.451961L681.256618,742.984033L686.715714,749.052895L690.219761,757.944954L697.227658,763.702565L713.139549,764.805925L713.163469,764.810740L713.171307,764.790433L716.536847,760.311829L713.289268,752.903846L723.212437,747.351958L724.748629,734.854780L720.633157,734.686203L708.824461,727.312343L701.935894,727.402861L701.959313,734.321369L693.540114,731.208116L695.716721,729.724398L691.205099,712.150344L682.859747,700.242994L685.537027,691.870407L689.768372,692.814165L698.041592,686.835298L694.059985,672.234691L696.123535,670.316393L693.994678,651.069391L694.228256,650.604756L694.205796,650.585701L690.053640,642.518510L693.819173,641.881115L689.518106,626.453606L677.361151,619.567045L677.063296,614.218207L681.761051,612.565250L678.943928,608.142080L678.881308,607.840755L678.442449,607.449071L667.362324,604.694086L666.230231,597.519802L661.363293,590.599214L656.133776,591.709090L644.779014,588.008562L644.708456,588.024886Z " data-code="soopu-Tyniste_nad_Orlici" data-name="Týniště nad Orlicí"/>
    <path d="M612.823245,328.924983L612.779152,329.393447L616.905006,363.402316L625.020428,364.736982L631.951145,368.435955L643.087744,358.817346L643.239480,358.822810L643.239978,358.785383L658.588262,355.187445L664.322855,363.129279L667.893842,361.915133L673.963706,365.996132L677.620680,359.910649L685.333841,353.076441L686.116252,357.617228L691.137964,359.617313L701.227384,355.004232L719.429725,341.501131L719.501914,341.358546L719.530655,341.163713L706.457866,333.117212L704.522916,325.154467L692.015378,315.456813L693.058106,312.797950L686.816331,300.401725L680.345029,293.982400L679.952640,293.901218L679.937683,293.937405L669.418431,293.419821L667.906994,296.539163L673.292139,304.415906L664.046273,303.664796L655.371220,309.635822L644.857389,308.668364L644.689226,316.278733L633.110409,319.610106L632.115650,323.056555L623.309655,323.802016L616.592869,319.887427L612.830325,328.870389L612.823245,328.924983Z " data-code="soopu-Cerveny_Kostelec" data-name="Červený Kostelec"/>
    <path d="M574.362589,323.462710L574.316021,323.597962L571.219470,333.689720L566.224165,332.864639L562.598704,335.719129L562.349103,336.228685L562.585294,336.409538L566.407787,339.999748L556.773189,343.864020L553.511350,367.046241L553.493927,367.083498L554.730746,367.693070L558.836571,371.704367L569.174515,371.835222L580.142583,379.804444L586.336762,375.626821L592.951078,386.455416L603.242925,390.325766L615.930658,416.670098L608.331681,417.404973L606.939298,421.665932L601.007074,423.389534L609.969308,426.136936L611.045811,435.944106L603.918100,439.780508L602.991731,450.347575L600.373227,454.585807L605.213461,461.517563L632.732787,470.297063L632.736290,470.320622L633.197507,470.234196L630.680141,461.896033L631.637439,454.175922L638.872175,449.245436L642.367086,443.805046L658.446102,433.156626L635.453436,424.749005L646.529340,419.683589L658.213025,416.187041L649.180503,406.483385L642.233536,394.531191L652.477302,396.163906L652.264387,396.034561L652.080029,395.967836L652.405733,386.009045L650.452597,383.763039L649.974745,372.836555L643.215655,359.463150L643.239480,358.822810L643.087744,358.817346L631.951145,368.435955L625.020428,364.736982L616.905006,363.402316L612.779152,329.393447L612.823245,328.924983L611.296341,329.822224L603.626552,332.395022L588.539631,326.661383L585.983583,320.205335L574.984169,324.055835L574.362589,323.462710Z " data-code="soopu-Ceska_Skalice" data-name="Česká Skalice"/>
    <path d="M673.589983,268.581878L673.510016,268.728479L669.913125,280.651912L675.674281,284.784422L679.644436,293.844444L679.952640,293.901218L680.345029,293.982400L686.816331,300.401725L693.058106,312.797950L692.015378,315.456813L704.522916,325.154467L706.457866,333.117212L719.530655,341.163713L719.501914,341.358546L719.681378,341.439726L723.176692,352.068020L725.940789,350.198753L732.748028,354.204068L739.166891,353.202854L739.316639,353.165409L739.317822,353.146486L745.372433,349.679982L749.932443,353.129029L752.881686,359.547917L757.625011,358.368159L759.057831,352.807387L756.726378,348.239075L749.753000,343.118134L753.130936,340.426130L760.481042,339.933692L758.564918,333.530591L764.683264,336.942482L776.192023,319.286622L776.201604,319.286428L776.135285,319.059838L771.555068,311.797984L771.005205,306.082729L762.247286,307.713065L734.834523,297.930701L729.446622,298.786645L726.546364,284.907830L728.232145,276.886470L723.194270,272.991439L714.690534,262.393909L706.498671,256.883213L691.874797,251.032415L694.126874,244.242494L693.814806,244.154311L693.622471,244.739752L680.414806,258.938342L685.864011,262.611452L673.861551,268.700667L673.589983,268.581878Z " data-code="soopu-Hronov" data-name="Hronov"/>
    <path d="M643.239480,358.822810L643.215655,359.463150L649.974745,372.836555L650.452597,383.763039L652.405733,386.009045L652.080029,395.967836L652.264387,396.034561L652.407994,395.818050L662.215875,393.988192L659.381862,400.437528L665.234378,403.708971L661.504410,405.049635L666.869884,412.535671L672.560854,414.280852L694.157502,406.719376L701.104731,417.854486L709.408413,424.922047L711.531056,422.393037L716.534795,425.512786L720.574550,423.955994L727.152031,426.798485L735.480147,424.698082L748.119562,431.607653L755.653455,447.304053L755.653591,447.334760L755.643726,447.573165L764.246273,460.409643L770.526209,461.625127L787.891638,449.669542L794.677434,446.215603L792.021110,439.437351L792.011865,439.428355L788.654836,429.683083L782.451789,426.339237L782.144935,418.531298L779.145757,411.297376L768.525848,408.610825L772.008547,398.382507L761.399902,389.617703L758.026833,390.876793L745.800011,389.065871L742.620773,375.967104L733.136406,370.212004L739.372822,353.132620L739.316639,353.165409L739.166891,353.202854L732.748028,354.204068L725.940789,350.198753L723.176692,352.068020L719.681378,341.439726L719.501914,341.358546L719.429725,341.501131L701.227384,355.004232L691.137964,359.617313L686.116252,357.617228L685.333841,353.076441L677.620680,359.910649L673.963706,365.996132L667.893842,361.915133L664.322855,363.129279L658.588262,355.187445L643.239978,358.785383L643.239480,358.822810Z " data-code="soopu-Nachod" data-name="Náchod"/>
    <path d="M746.373319,192.648843L746.386485,192.653705L751.507069,194.698108L752.854901,203.211877L737.966157,214.890273L739.735016,222.880644L730.150673,236.159882L731.077181,241.854912L724.210714,237.685389L720.245256,239.653010L699.190516,227.228443L693.477664,238.683827L692.929260,239.203346L692.724656,239.274182L692.899467,242.201661L692.974970,242.422417L693.827240,244.116311L693.814806,244.154311L694.126874,244.242494L691.874797,251.032415L706.498671,256.883213L714.690534,262.393909L723.194270,272.991439L728.232145,276.886470L726.546364,284.907830L729.446622,298.786645L734.834523,297.930701L762.247286,307.713065L771.005205,306.082729L771.555068,311.797984L776.135285,319.059838L776.201604,319.286428L776.743272,319.336664L781.824005,323.314824L786.321684,322.928824L785.547209,315.312839L792.401959,319.474149L801.241728,316.555114L804.007492,307.163266L807.054341,307.115446L810.845372,300.074240L810.896507,291.452981L817.123308,289.664318L817.186780,289.686602L812.711894,270.297609L811.709288,271.396863L800.766118,262.426569L801.919155,246.897702L791.642182,236.652380L788.654662,236.652272L783.333443,227.917799L780.163087,226.405783L769.459105,204.313451L764.841134,207.680244L758.541210,194.021771L752.238850,191.464872L746.460229,192.399428L746.373319,192.648843Z " data-code="soopu-Police_nad_Metuji" data-name="Police nad Metují"/>
    <path d="M213.158337,316.173428L218.986193,324.582900L226.513300,329.519230L227.354640,333.240322L235.173442,341.848130L242.724958,338.442794L240.831463,348.760864L249.003144,347.932175L255.088356,341.709797L270.867250,349.716549L271.072804,349.666218L271.411898,349.664970L282.090347,348.382766L285.312683,338.918859L294.448483,340.492734L298.279850,332.104515L312.974944,331.715379L323.720115,337.164498L323.007817,338.791903L342.173918,360.313164L342.306904,360.286422L342.318568,360.171560L342.715148,351.674624L352.026347,356.003935L354.029672,345.489069L359.639085,340.936196L359.662345,340.934737L359.625283,340.738021L358.331907,338.428245L366.024449,319.745401L365.866581,309.149678L336.080786,298.993304L328.387965,298.162274L320.434619,284.301852L320.300472,284.241286L316.365895,279.770412L304.433937,270.993594L302.565586,275.515045L293.464460,277.375825L292.205276,283.482183L285.547811,284.451318L274.882514,281.139234L261.213303,255.670587L252.366872,251.094331L247.187701,264.720756L239.335126,264.520617L238.475009,271.376898L220.312302,274.739469L223.095330,295.705216L229.816320,297.123173L229.832552,300.826298L219.615354,313.743532L216.091111,308.044650L213.181619,316.007277L213.158337,316.173428Z " data-code="soopu-Nova_Paka" data-name="Nová Paka"/>
    <path d="M632.736290,470.320622L632.748331,470.373680L619.479611,488.400086L617.951624,492.562935L618.021744,492.636525L618.214245,492.841347L635.272458,497.176275L637.574183,498.943882L639.891081,516.939293L648.413849,521.443936L648.488226,521.472997L648.490204,521.459082L655.316027,509.821684L678.786910,512.784310L688.316009,506.643610L688.489471,497.381111L684.603338,491.729518L701.078855,481.383134L711.600724,485.596057L719.446323,481.735127L725.324082,470.030732L737.568434,472.788085L749.122575,467.540704L747.704747,457.590114L755.605892,447.326268L755.653591,447.334760L755.653455,447.304053L748.119562,431.607653L735.480147,424.698082L727.152031,426.798485L720.574550,423.955994L716.534795,425.512786L711.531056,422.393037L709.408413,424.922047L701.104731,417.854486L694.157502,406.719376L672.560854,414.280852L666.869884,412.535671L661.504410,405.049635L665.234378,403.708971L659.381862,400.437528L662.215875,393.988192L652.407994,395.818050L652.264387,396.034561L652.477302,396.163906L642.233536,394.531191L649.180503,406.483385L658.213025,416.187041L646.529340,419.683589L635.453436,424.749005L658.446102,433.156626L642.367086,443.805046L638.872175,449.245436L631.637439,454.175922L630.680141,461.896033L633.197507,470.234196L632.736290,470.320622Z " data-code="soopu-Nove_Mesto_nad_Metuji" data-name="Nové Město nad Metují"/>
    <path d="M242.004555,480.963240L241.719108,480.888186L238.413641,480.095761L226.643401,488.317991L226.375559,497.797045L230.492079,502.458244L217.438147,517.612311L211.806652,517.418676L204.347118,512.180652L196.897948,512.594657L194.865138,521.650099L196.172366,531.029407L179.093207,538.150493L179.114007,538.722323L180.717790,562.626842L175.672748,564.180310L178.698633,591.836144L187.099602,599.271160L189.692812,612.066027L194.720654,609.976838L191.354664,620.419914L191.362540,620.575516L201.233108,621.803058L211.547562,630.637217L226.128379,633.714314L226.265973,638.503589L236.630551,638.489785L246.269128,643.096623L261.321530,646.244142L267.730999,642.415366L280.471490,625.727894L281.142831,622.996521L293.151703,625.999652L311.285330,628.559395L314.511348,622.861662L318.684076,635.429179L318.678130,635.585260L318.681368,635.583424L330.655926,617.132442L322.112890,606.301635L321.950153,600.426108L326.467062,582.531671L325.059953,574.332891L333.320580,567.459168L330.300960,559.008678L314.045804,550.168679L308.839547,539.272810L308.519274,534.657751L317.889887,537.403331L334.363311,536.747781L332.060884,535.228193L343.903135,531.555311L341.033598,529.213177L339.451651,517.923600L339.450502,517.879626L338.546454,518.006009L323.264628,512.942653L329.740331,505.940260L327.706449,503.498695L308.544097,502.394240L301.448364,497.563506L297.515976,489.761568L287.897818,485.596989L290.454464,482.769637L286.563847,474.612000L269.526423,468.698298L270.482861,473.364476L262.452171,475.272927L261.326520,489.446996L258.531521,489.407982L258.937899,495.870805L242.191979,481.149909L242.004555,480.963240Z " data-code="soopu-Novy_Bydzov" data-name="Nový Bydžov"/>
    <path d="M877.566880,486.888051L884.185919,507.794007L881.476456,510.401400L881.312622,510.602939L881.405428,510.750160L896.566658,524.358454L901.059311,524.515209L901.042720,529.637524L897.480211,533.499748L905.095324,554.091506L910.555169,571.776720L900.154021,594.573979L895.230569,595.219297L895.298686,599.034620L885.722203,610.777663L871.732498,616.629485L873.942063,627.258448L871.941506,635.474202L878.064547,646.117132L869.740606,664.374714L883.112662,670.189149L895.228984,678.904242L901.702940,679.625245L912.811552,687.862696L912.875947,687.854240L912.896111,687.846987L925.235959,681.161331L927.346087,669.230179L927.870193,654.777565L942.494524,652.163945L944.133317,654.190547L956.560254,658.492140L959.007232,667.299733L964.644793,669.538376L969.910203,668.363002L985.782275,677.956277L994.102665,678.884035L1000.000000,672.271455L999.952514,664.974604L983.874390,653.084202L984.942704,635.038959L979.148405,619.844556L983.692227,606.610516L981.745411,604.476140L979.891425,593.143745L967.141841,574.057609L957.174276,573.677926L951.199252,560.672163L947.200598,559.510052L946.649564,553.548035L928.942390,539.815582L919.635978,524.717310L918.792905,520.246043L909.913736,507.151831L905.637615,504.357885L902.615969,495.686108L892.983512,483.039255L882.812270,483.978036L877.459904,486.862645L877.566880,486.888051Z " data-code="soopu-Rokytnice_v_Orlickych_horach" data-name="Rokytnice v Orlických horách"/>
    <path d="M881.312622,510.602939L880.732976,510.956907L873.802007,515.586491L868.346959,513.083843L860.233453,540.607884L843.788821,529.982295L840.251983,532.235345L838.231036,539.351326L824.606810,543.225633L816.290264,530.033243L816.346114,532.669155L796.526136,548.049358L794.807166,551.199154L801.455966,555.176277L800.597407,563.312863L797.214515,565.396197L786.419049,563.004050L781.863318,559.040146L772.829281,561.681931L773.109597,556.715098L757.643950,555.535762L748.987713,561.811578L743.357063,559.763941L731.718625,559.716677L731.686371,559.681662L731.519339,559.755199L723.750859,567.511697L728.162087,573.588095L723.519596,588.498935L724.615230,590.864737L714.778787,600.428767L708.996185,598.629426L700.979376,600.901680L700.065692,588.726969L688.417668,592.189580L683.942249,587.701885L680.643202,588.915704L678.898730,607.769110L678.881308,607.840755L678.943928,608.142080L681.761051,612.565250L677.063296,614.218207L677.361151,619.567045L689.518106,626.453606L693.819173,641.881115L690.053640,642.518510L694.205796,650.585701L694.228256,650.604756L694.238362,650.606521L703.804445,647.497402L714.029079,651.139898L730.624260,651.252670L732.507757,658.962833L731.512363,669.653784L739.089026,685.965046L757.449619,680.983349L761.864734,673.917958L765.750501,675.847612L770.806000,672.781074L781.193597,672.969117L781.252563,678.391016L796.254282,674.747759L796.318219,674.655563L796.419356,674.662703L799.195430,679.921020L806.594544,687.398615L821.143086,686.098664L836.851449,683.122235L838.882736,690.621728L857.407482,689.705672L869.458545,707.162957L869.776365,707.484018L869.781823,707.469488L870.585395,703.495607L896.165228,699.359404L892.684436,695.360804L898.491782,689.880323L901.666794,692.511431L912.973935,688.292209L912.875947,687.854240L912.811552,687.862696L901.702940,679.625245L895.228984,678.904242L883.112662,670.189149L869.740606,664.374714L878.064547,646.117132L871.941506,635.474202L873.942063,627.258448L871.732498,616.629485L885.722203,610.777663L895.298686,599.034620L895.230569,595.219297L900.154021,594.573979L910.555169,571.776720L905.095324,554.091506L897.480211,533.499748L901.042720,529.637524L901.059311,524.515209L896.566658,524.358454L881.405428,510.750160L881.312622,510.602939Z " data-code="soopu-Rychnov_nad_Kneznou" data-name="Rychnov nad Kněžnou"/>
    <path d="M796.318219,674.655563L796.269195,674.737578L785.771787,684.826510L780.341474,687.196798L774.993231,696.288367L780.379052,698.357530L785.844992,704.797733L791.025240,714.842089L793.345366,725.631871L789.519971,739.967455L791.150985,741.524394L789.107167,750.727098L776.938576,761.565503L776.247057,770.044759L788.658126,779.253801L788.871798,778.712275L803.959812,778.886262L814.166537,783.993579L827.948026,786.841880L819.091989,763.846779L818.495641,757.232380L831.097020,756.170518L842.627731,748.394077L834.129228,738.276164L833.418134,735.307271L861.210458,718.566940L869.661488,707.772508L869.776365,707.484018L869.458545,707.162957L857.407482,689.705672L838.882736,690.621728L836.851449,683.122235L821.143086,686.098664L806.594544,687.398615L799.195430,679.921020L796.419356,674.662703L796.318219,674.655563Z " data-code="soopu-Vamberk" data-name="Vamberk"/>
    <path d="M396.895340,45.559419L393.794177,56.237326L385.592363,68.922780L377.477134,73.285951L383.746597,86.298028L402.334381,108.246078L412.673695,117.665321L419.814005,118.262130L417.977885,153.362005L417.982268,153.417716L418.045034,153.511738L421.493643,158.509064L432.259882,163.888877L435.468049,167.931127L452.287805,168.417348L457.696431,173.134945L457.796784,173.270848L458.174331,173.404493L459.169080,169.942775L466.997999,166.343173L474.387183,169.325647L476.868722,174.769890L486.041839,153.974852L497.605639,136.462245L497.793924,136.329063L497.522525,136.173172L498.821269,124.278442L504.340909,128.357319L505.706263,113.872560L505.806040,113.894895L505.819640,113.607441L507.009730,108.861717L500.461634,86.120188L499.505746,79.352279L484.827017,60.879282L486.090843,41.376133L481.476867,37.839009L475.481265,27.936208L458.851518,30.798392L457.880459,35.485336L448.311417,41.799130L439.366105,40.212709L423.820618,48.509672L411.746683,44.778572L401.136018,47.220606L396.948712,45.580808L396.895340,45.559419Z " data-code="soopu-Svoboda_nad_Upou" data-name="Svoboda nad Úpou"/>
    <path d="M497.793924,136.329063L497.605639,136.462245L486.041839,153.974852L476.868722,174.769890L474.387183,169.325647L466.997999,166.343173L459.169080,169.942775L458.174331,173.404493L457.796784,173.270848L458.005447,174.039280L461.355523,178.137678L465.171543,197.768998L463.696598,203.470555L454.308696,206.549247L449.322643,214.455867L437.198740,221.345122L431.789616,221.562257L428.055102,229.907919L428.804453,243.296310L432.912612,256.596856L426.885522,264.799600L426.501421,280.988169L423.337647,279.894277L424.387533,270.986850L421.027363,266.734726L406.056237,264.818582L397.145577,259.363373L394.423692,251.580114L385.954560,247.019829L385.812172,246.987418L385.629834,247.035044L377.016909,256.900525L360.911980,264.603174L351.727067,272.594782L351.733912,272.642205L351.770938,273.072271L351.457116,274.999392L351.498341,275.382821L361.305992,289.362153L374.605940,282.966225L387.363307,291.171246L404.391714,296.442808L403.648335,306.150835L409.445915,303.875220L411.946760,293.732303L418.948102,299.519139L431.125501,304.457422L445.481177,301.843242L451.625436,302.461755L455.511417,297.039106L466.477413,292.873483L484.271898,302.267519L491.523726,299.837074L496.069268,314.062430L492.352808,319.980395L512.888105,322.068237L511.934521,332.919046L517.652114,319.495847L526.414528,324.806811L526.863315,334.356114L529.460067,341.238993L540.632126,333.997603L553.631470,337.303814L561.957386,336.048408L562.349103,336.228685L562.598704,335.719129L566.224165,332.864639L571.219470,333.689720L574.316021,323.597962L574.362589,323.462710L574.445735,323.191391L571.960868,308.058300L569.521829,304.702309L570.952017,291.836713L568.295425,284.677332L577.580584,277.108147L588.496393,256.500320L587.160002,254.370509L596.373962,247.849808L599.151402,240.895635L590.070173,238.768240L585.624700,232.224389L579.382649,234.903308L579.717429,225.308209L595.304316,227.242995L607.176282,218.071434L629.027224,239.542249L637.355128,244.233198L639.373597,249.535953L647.269978,255.528924L657.485884,256.862496L673.687305,268.303942L673.589983,268.581878L673.861551,268.700667L685.864011,262.611452L680.414806,258.938342L693.622471,244.739752L693.814806,244.154311L693.827240,244.116311L692.974970,242.422417L692.899467,242.201661L692.724656,239.274182L692.929260,239.203346L692.908663,239.130236L690.879006,224.534802L680.358929,218.536974L676.289170,214.104610L678.918808,209.708240L677.716460,194.756448L680.900024,193.848642L679.210312,185.836920L676.646386,188.238724L664.560377,183.290065L654.822088,181.995131L652.267281,178.879851L644.001718,180.830536L647.822342,197.539783L642.872149,200.296549L637.669855,182.286764L637.127065,181.988767L628.558324,177.509193L616.630451,194.172106L608.373039,185.764913L605.587146,187.725083L590.574802,177.241407L590.584485,177.134115L590.322524,176.779385L585.299053,172.850020L582.623448,164.452689L569.835445,159.318790L560.733184,149.300231L552.574453,153.292757L553.108595,158.416322L513.350876,142.271128L511.817453,151.267922L508.731502,146.498695L498.041733,136.235691L497.793924,136.329063Z " data-code="soopu-Trutnov" data-name="Trutnov"/>
    <path d="M574.362589,323.462710L574.984169,324.055835L585.983583,320.205335L588.539631,326.661383L603.626552,332.395022L611.296341,329.822224L612.823245,328.924983L612.830325,328.870389L616.592869,319.887427L623.309655,323.802016L632.115650,323.056555L633.110409,319.610106L644.689226,316.278733L644.857389,308.668364L655.371220,309.635822L664.046273,303.664796L673.292139,304.415906L667.906994,296.539163L669.418431,293.419821L679.937683,293.937405L679.952640,293.901218L679.644436,293.844444L675.674281,284.784422L669.913125,280.651912L673.510016,268.728479L673.589983,268.581878L673.687305,268.303942L657.485884,256.862496L647.269978,255.528924L639.373597,249.535953L637.355128,244.233198L629.027224,239.542249L607.176282,218.071434L595.304316,227.242995L579.717429,225.308209L579.382649,234.903308L585.624700,232.224389L590.070173,238.768240L599.151402,240.895635L596.373962,247.849808L587.160002,254.370509L588.496393,256.500320L577.580584,277.108147L568.295425,284.677332L570.952017,291.836713L569.521829,304.702309L571.960868,308.058300L574.445735,323.191391L574.362589,323.462710Z " data-code="soopu-Upice" data-name="Úpice"/>
    <path d="M505.806040,113.894895L505.706263,113.872560L504.340909,128.357319L498.821269,124.278442L497.522525,136.173172L497.793924,136.329063L498.041733,136.235691L508.731502,146.498695L511.817453,151.267922L513.350876,142.271128L553.108595,158.416322L552.574453,153.292757L560.733184,149.300231L569.835445,159.318790L582.623448,164.452689L585.299053,172.850020L590.322524,176.779385L590.584485,177.134115L590.822599,176.628200L598.671089,168.441693L602.675544,132.028055L597.961502,115.161586L593.065502,110.978022L591.334794,102.482479L573.765630,95.142007L560.753047,100.346248L535.549257,108.573506L522.036368,116.538393L505.988937,113.922412L505.806040,113.894895Z " data-code="soopu-Zacler" data-name="Žacléř"/>
    <path d="M417.982268,153.417716L417.890119,153.538139L405.533610,177.735689L406.943776,181.248463L401.116448,194.801705L402.258960,200.634679L398.838000,199.054586L386.277941,212.591677L382.111387,220.115684L375.299140,224.847837L364.925120,225.282300L357.263221,235.524895L360.083697,237.427805L366.484163,232.294817L362.798838,245.781326L362.809822,245.789487L363.136275,246.032019L365.334893,248.661589L385.830328,246.966640L385.812172,246.987418L385.954560,247.019829L394.423692,251.580114L397.145577,259.363373L406.056237,264.818582L421.027363,266.734726L424.387533,270.986850L423.337647,279.894277L426.501421,280.988169L426.885522,264.799600L432.912612,256.596856L428.804453,243.296310L428.055102,229.907919L431.789616,221.562257L437.198740,221.345122L449.322643,214.455867L454.308696,206.549247L463.696598,203.470555L465.171543,197.768998L461.355523,178.137678L458.005447,174.039280L457.796784,173.270848L457.696431,173.134945L452.287805,168.417348L435.468049,167.931127L432.259882,163.888877L421.493643,158.509064L418.045034,153.511738L417.982268,153.417716Z " data-code="soopu-Hostinne" data-name="Hostinné"/>
    <path d="M351.727067,272.594782L360.911980,264.603174L377.016909,256.900525L385.629834,247.035044L385.812172,246.987418L385.830328,246.966640L365.334893,248.661589L363.136275,246.032019L362.809822,245.789486L362.798838,245.781326L366.484163,232.294817L360.083697,237.427805L357.263221,235.524895L364.925120,225.282300L375.299140,224.847837L382.111387,220.115684L386.277941,212.591677L398.838000,199.054586L402.258960,200.634679L401.116448,194.801705L406.943776,181.248463L405.533610,177.735689L417.890119,153.538139L417.982268,153.417716L417.977885,153.362005L419.814005,118.262130L412.673695,117.665321L402.334381,108.246078L383.746597,86.298028L377.477134,73.285951L385.592363,68.922780L393.794177,56.237326L396.895340,45.559419L395.708665,45.148723L389.625627,41.311409L385.285733,29.695992L362.707939,23.526781L347.572846,17.911481L339.920769,9.138244L328.052303,4.979636L302.090936,5.047482L289.849429,1.453582L286.355111,3.598930L286.570605,19.466101L293.062777,29.933184L306.634488,37.729972L310.408943,42.719460L311.167980,51.440963L302.033637,73.778165L306.332208,89.607613L303.970323,105.607777L306.594144,109.116870L312.702311,142.837464L308.643780,149.144591L311.660085,156.583735L317.968830,159.987867L323.246807,172.527768L329.803867,177.056214L317.121518,194.243189L319.223251,197.132028L310.284537,213.174186L324.086101,220.226217L320.341944,227.674810L328.190390,238.312030L332.720134,240.088988L340.929386,255.314118L345.203775,258.990609L351.567768,272.603126L351.727067,272.594782Z " data-code="soopu-Vrchlabi" data-name="Vrchlabí"/>
  </g>
</svg>
