<?xml version="1.0" encoding="utf-8"?>
<!DOCTYPE svg PUBLIC "-//W3C//DTD SVG 1.1//EN" "http://www.w3.org/Graphics/SVG/1.1/DTD/svg11.dtd">
<svg xmlns="http://www.w3.org/2000/svg" xmlns:xlink="http://www.w3.org/1999/xlink" enable_background="new 0 0 1000 686" height="686px" pretty_print="False" style="stroke-linejoin: round; stroke:#000; fill: none;" version="1.1" viewBox="0 0 1000 686" width="1000px">
  <defs>
    <style type="text/css"><![CDATA[path { fill-rule: evenodd; }]]></style>
  </defs>
  <metadata>
    <views>
      <view h="686.628265262" padding="0" w="1000">
        <proj id="laea" lat0="50.7425779427" lon0="14.9779340035"/>
        <bbox h="6.9" w="10.07" x="995.0" y="996.57"/>
      </view>
    </views>
  </metadata>
  <g class="" id="bg">
    <path d="M-10000.0,-10000.0L-10000.0,10000.0L10000.0,10000.0L10000.0,-10000.0Z "/>
    <path d="M842.739992,684.628265L847.814425,683.051459L852.429067,679.124246L855.760224,672.569537L857.485864,663.887017L859.892536,624.869193L862.296353,618.319913L866.616641,614.783277L886.624362,607.767592L891.220206,607.359826L895.704515,608.135596L900.131103,610.417224L916.549902,627.751022L925.435467,633.695338L985.142779,643.787608L990.777690,642.596751L995.159487,638.942344L998.076657,632.140821L999.270742,623.929050L998.897057,616.362852L997.193790,609.238460L970.021057,548.065838L968.992110,543.382061L968.713366,538.544219L973.960429,512.391056L974.376422,504.939165L973.973767,497.547858L972.583518,490.379857L970.173246,483.596699L966.591083,477.360839L956.924111,465.123706L953.354335,455.834979L950.999431,444.815502L949.703482,421.015045L950.621454,409.969620L952.523457,400.623848L955.314108,393.865750L956.638186,386.944514L954.772999,377.306090L928.635048,325.235934L917.414465,290.099295L855.108291,268.683367L822.910219,271.595469L815.765891,280.615748L808.481439,293.683186L799.972680,302.772123L798.673197,302.367207L788.997354,299.351127L783.987910,289.258288L784.568998,277.619408L786.665293,265.340462L786.365201,253.453070L776.982544,230.544170L765.194184,220.862046L751.189697,214.728802L735.724934,202.400898L727.447461,189.154880L718.268891,168.954956L711.006157,147.418411L708.628202,130.036740L713.964555,107.503758L720.609554,94.640610L721.359719,82.812066L708.935263,62.813191L688.351866,52.641669L644.472606,52.077035L637.181648,34.135918L633.554468,15.552793L624.551610,11.020645L614.619464,18.061561L607.727011,34.074664L607.727259,34.201139L605.203698,46.663897L596.527804,48.450477L585.690157,43.093282L576.600919,34.127030L570.057528,22.057441L531.053399,13.494227L516.406368,0.000000L514.261463,10.087143L510.682107,15.716320L499.541274,23.875709L495.163690,24.824352L490.785848,26.910939L486.885091,30.135553L483.381700,34.308558L483.302094,34.308539L486.563581,48.158279L499.065347,58.087398L510.776766,75.223097L511.662618,110.762551L509.272610,116.960455L501.699789,125.562020L499.547193,129.735881L498.829826,136.565611L499.308566,141.245193L500.186120,144.723226L501.146818,187.219036L499.550994,197.779883L411.342553,191.203199L383.387862,198.996278L366.942709,198.392251L354.646347,231.183686L347.260239,245.330259L339.725726,253.973757L327.249050,257.353098L310.468190,256.668643L281.801966,250.117979L252.331990,227.486885L241.336372,221.304739L214.538129,213.590237L210.830684,204.402200L210.355981,207.653235L208.181009,214.781332L206.124258,218.589159L203.271652,221.908839L199.489790,224.255554L176.163904,226.159784L172.974632,228.575293L170.556405,232.729371L169.025765,239.026121L167.473140,257.947139L164.888300,267.114850L160.933530,274.983760L155.917045,281.125192L150.096616,285.096758L143.730204,286.496460L137.127391,284.882383L97.031351,242.696188L91.664348,240.171191L87.340911,241.417677L84.359345,247.365719L75.290267,297.784578L65.427796,306.880504L62.007958,311.573771L59.228227,317.011188L57.599600,323.116097L57.908865,336.052318L56.814095,341.247051L54.653799,345.559650L37.046896,361.743219L33.760211,366.126686L19.273535,402.900592L8.313439,409.692175L4.702778,413.533472L1.970206,418.242592L0.729258,423.824958L1.593826,430.285955L44.140469,568.311326L99.224395,614.604258L105.052165,642.716510L113.518277,640.312986L148.210591,639.699368L162.957443,642.193108L174.901110,641.440826L180.335855,642.290987L183.815623,644.084631L185.373168,647.091174L186.808029,650.675127L187.390893,653.649486L187.851183,657.160960L188.189396,661.115446L189.146174,664.602670L190.944916,667.462452L193.109913,669.046878L199.864735,669.996217L213.423936,668.894649L283.328113,650.951164L314.940445,629.938230L343.483972,616.455686L350.370286,611.230260L359.555104,602.151000L365.478581,598.050804L378.431338,591.060853L384.953727,585.252457L390.519954,578.366029L398.748897,562.005413L401.882546,557.237917L406.844318,551.653020L422.880784,538.070108L427.377923,532.482851L436.441529,517.784952L439.329508,514.252041L443.068792,512.480982L447.522887,512.740379L455.098107,515.905721L461.481180,516.098168L470.306859,512.056114L475.973352,510.606419L481.400055,511.428189L488.857088,517.694681L495.240415,520.733568L513.827909,519.399944L517.805267,520.541361L521.902994,523.322655L536.714644,540.953072L541.430794,545.439961L547.204414,547.586235L552.431007,548.724144L572.540683,543.323320L579.456779,579.223453L587.682056,594.335825L615.385989,619.197532L617.177784,617.526708L619.500199,616.190808L622.832004,615.215601L627.259822,615.098157L639.700063,619.464847L682.835953,655.681473L688.131613,658.393309L692.992646,658.941602L697.519744,656.922781L731.052759,618.721547L738.630970,615.544194L746.990976,615.427771L780.978868,629.037041L795.953276,641.007402L819.934385,671.571601L831.629666,681.534427L837.310245,684.055599L842.739992,684.628265Z "/>
  </g>
  <g class="" id="soorp">
    <path d="M86.507210,302.524769L75.246473,300.757517L71.944373,307.354950L71.093817,315.207494L62.733860,339.123121L71.435597,344.210486L71.950538,347.528857L62.397387,350.951253L60.735690,345.418911L56.819469,346.184139L53.057356,356.885840L41.789728,361.534470L31.425187,363.807982L24.941006,382.078934L25.250730,392.904472L30.676153,396.580742L31.618351,402.409707L27.602894,406.744253L10.477967,418.726670L5.363413,427.510905L4.805503,433.143791L19.778426,442.529725L17.332474,448.027001L21.577842,461.520121L17.624951,477.832462L24.406401,485.473764L22.987081,487.402640L34.553030,507.342634L32.872122,509.913824L44.413248,523.978458L51.987756,526.959786L53.424341,532.967976L59.047418,543.871370L59.199646,543.813928L59.381386,543.865588L69.208363,572.742922L72.522968,574.821726L79.208484,586.845426L76.175036,591.699295L81.722065,593.349474L79.987460,598.569933L106.516316,606.628317L107.742381,615.614237L115.220995,628.184515L116.074588,634.472709L125.972712,644.831177L130.059971,629.984475L133.335638,623.258848L143.629930,624.014333L150.331107,636.845190L161.906185,640.299228L169.162772,629.460959L179.123561,621.799880L187.234886,622.651656L187.325806,636.536084L184.571097,641.128707L188.792286,659.227276L195.010666,667.529503L196.976133,661.175447L212.592424,667.551045L212.226828,661.434038L227.001184,659.352985L227.052871,652.689664L240.929802,660.108649L240.657954,654.416491L246.189143,653.426278L267.399056,656.500345L274.268753,654.217080L271.703241,645.932964L288.750555,640.852751L296.248337,636.509601L300.757414,612.231031L312.591347,614.480866L322.524616,613.820586L325.778586,596.564992L319.492824,578.576983L320.412217,566.673276L320.418531,566.366789L328.619192,568.003716L358.169010,573.835181L369.923798,581.034228L379.784678,589.070308L402.398106,568.509025L405.089328,567.190186L396.070902,556.594126L399.774044,547.590099L408.244634,544.967631L416.251472,539.281866L428.543218,534.771606L431.165536,539.347281L443.155243,530.728604L439.935112,519.015217L433.167512,511.255068L450.084428,505.544671L445.171242,495.544115L444.800747,495.343100L441.991418,491.988741L442.442182,477.829745L430.982103,460.191224L433.936875,455.585985L432.843285,447.157166L437.051872,442.615895L443.055585,443.527687L447.901197,438.038383L447.471518,430.520934L430.541958,410.017558L419.833364,401.845976L415.713242,391.795379L425.241037,377.353766L423.573966,363.552897L394.338593,362.482836L390.356784,361.476293L389.343621,344.081318L384.871656,332.132919L377.227726,327.949895L377.151639,327.939063L376.577710,327.933737L371.550038,324.582379L364.672507,324.837710L360.663395,319.225820L354.377685,323.167558L354.046673,328.480999L346.168917,346.146612L343.600587,357.988474L338.583054,361.734213L329.274493,359.046006L327.572632,363.008010L311.635814,359.828586L306.435554,357.098371L316.726338,341.916361L314.684283,337.634255L327.324432,333.950576L328.820032,328.335961L320.703405,327.834861L322.407867,321.336034L307.992220,309.706818L310.790344,305.802886L303.025017,303.679757L296.055653,309.685438L295.901370,309.706424L295.719898,309.903574L287.306965,324.225258L280.089335,326.126899L277.163337,334.676643L266.690587,339.463669L261.345099,351.686740L261.014017,352.903524L260.856663,352.481475L239.808045,359.858372L224.068821,357.283684L225.688380,359.738882L218.921990,365.304192L218.919891,365.797051L218.876920,366.087994L199.703455,381.109766L193.001225,378.241474L183.908673,377.907074L179.392100,374.298749L170.345446,372.794775L163.137877,374.241636L162.645760,358.992340L157.041389,355.405551L150.593731,360.024115L146.239237,357.050890L131.155761,355.013397L120.589902,348.096835L108.023273,352.166728L100.760329,349.893583L107.219184,339.494364L102.813621,333.888105L93.833213,329.046221L92.805890,324.789916L96.330941,315.512665L92.362372,313.848530L87.425927,303.112036L86.507210,302.524769Z " data-code="soorp-Ceska_Lipa" data-name="Česká Lípa"/>
    <path d="M509.977786,184.131540L520.202334,191.289556L525.586878,203.114689L531.589948,201.296433L543.196628,205.828377L578.304086,184.329407L582.191652,186.228986L593.441788,185.459213L599.570335,195.411645L618.090617,199.622489L626.568858,202.615671L628.433821,215.604806L631.347838,218.747091L631.755299,219.250546L631.847962,219.332098L661.061285,235.784816L665.276122,231.654504L680.735581,229.296827L686.366853,238.598633L693.487170,235.784155L693.563002,235.752086L693.691187,235.697996L700.117770,235.269241L703.378896,238.585454L739.065963,256.026282L738.449598,243.160683L729.572438,227.195177L734.349704,225.433389L753.270679,204.210933L757.481615,195.153594L757.523957,195.019396L755.366565,194.430430L754.902836,193.740532L754.079404,193.241503L754.034591,193.244016L753.688755,193.263685L740.178409,175.104686L728.250911,157.167435L728.057587,147.089432L720.279982,121.392009L722.074638,104.246616L732.558906,92.310985L737.974465,88.101341L739.492225,80.604315L726.493896,62.885988L726.548334,51.033047L723.207426,49.151285L707.312058,47.494650L705.845743,48.681478L705.769968,48.752360L705.448979,48.245886L696.523097,25.537556L682.317791,29.756185L678.494600,33.487855L666.145307,37.822265L668.439271,43.574302L661.874398,47.930652L646.320121,40.569878L649.525402,37.916255L648.826187,10.242046L644.650069,0.000000L624.059853,14.435656L617.914099,27.814420L623.749296,33.410613L607.046562,32.334233L602.818006,33.858485L592.220720,31.874722L589.591284,19.608826L596.911273,13.348513L573.734473,4.492845L558.374632,0.965398L550.338582,9.977542L540.181773,6.405859L540.117739,0.000000L526.341954,1.473895L525.814813,3.926095L513.042273,11.262838L503.087011,10.980907L489.857926,36.471748L502.489667,48.220346L506.810389,49.726295L518.939520,40.814193L522.526351,45.981555L530.946271,64.394139L523.087146,69.428737L526.192302,85.873136L525.395130,97.888356L506.206479,120.150735L513.350151,135.861491L511.737690,152.853180L515.849101,184.844774L509.963356,184.127762L509.977786,184.131540Z " data-code="soorp-Frydlant" data-name="Frýdlant"/>
    <path d="M631.755299,219.250546L631.439442,219.207951L626.315063,228.631120L625.296300,234.195742L617.334877,237.159235L613.842158,251.405060L614.116008,255.998790L609.919139,260.056894L609.319248,260.657682L609.283244,260.842533L602.892424,274.309988L604.588882,281.602712L613.581257,280.599830L627.780165,299.164495L624.742639,304.896068L620.277230,302.175966L610.508542,325.119392L612.302594,336.274595L609.114485,334.833856L603.245644,339.275186L595.422672,348.451111L612.090751,361.546312L609.576651,370.109220L605.341808,369.951002L596.694948,378.953633L599.182035,380.785847L595.588540,392.082172L595.984193,408.324058L595.831229,408.697453L595.837985,408.726526L595.392567,426.466450L602.364616,426.702702L602.144188,431.494726L601.982275,431.855422L602.509180,432.207220L608.068230,435.581788L619.264189,433.666382L629.989700,434.491522L632.430149,438.144945L646.674408,439.559493L650.920490,442.469003L657.650278,417.126653L664.224926,417.488954L669.196328,414.044153L669.265311,413.861095L669.481317,413.589980L677.683668,402.023891L677.882852,394.443010L669.587407,386.388219L678.867481,382.822415L695.802709,380.123153L695.918097,379.812460L695.439468,379.759580L691.555176,377.759192L695.391277,371.307858L687.822657,349.890632L697.969730,341.839252L699.895973,326.556389L698.048323,316.216820L700.000875,306.472718L703.493095,303.575079L716.890967,307.694154L714.176462,297.037340L705.753998,287.739307L704.281898,275.580649L699.585907,259.930559L696.761244,256.571858L693.904268,236.477931L693.563002,235.752086L693.487170,235.784155L686.366853,238.598633L680.735581,229.296827L665.276122,231.654504L661.061285,235.784816L631.847962,219.332098L631.755299,219.250546Z " data-code="soorp-Jablonec_nad_Nisou" data-name="Jablonec nad Nisou"/>
    <path d="M928.821645,310.745703L928.821455,310.721211L928.963442,298.475176L921.253441,295.170718L908.867940,278.974852L901.027806,281.230902L900.953173,281.238080L905.028688,293.407113L897.395245,320.037112L899.695016,321.041655L887.390965,330.171227L865.665128,327.680970L860.823986,330.552237L845.934708,322.811487L844.548769,321.916838L844.526927,321.902738L831.623652,322.386525L820.596134,315.114289L805.199764,319.424464L805.067629,319.326094L804.831884,319.303242L799.257203,326.419305L803.343469,334.138087L800.627833,338.662869L805.534027,345.131590L805.951523,360.465848L806.014046,360.722727L806.210593,360.749579L831.460891,370.141690L833.163224,377.730802L832.165895,383.952784L838.512992,388.026467L837.526853,398.565759L846.761553,399.031880L853.287055,402.880500L863.066035,411.425672L862.971800,421.851201L863.056269,421.886561L863.077469,421.902435L854.689843,420.809822L849.690676,424.823307L853.673259,442.314914L852.544442,460.272919L857.078698,461.250890L859.492727,479.920853L857.725768,481.145725L848.724758,498.598943L851.835716,505.195389L851.910587,505.429702L852.027252,505.622842L861.671529,512.025217L867.212597,532.046896L875.135463,541.161786L872.978140,550.374808L867.132793,548.455467L861.213614,564.980957L867.061777,569.633423L873.727778,579.917590L877.006694,591.652287L877.175001,591.747943L886.277839,595.007445L890.748405,578.112832L902.315688,584.440104L918.323272,613.593170L930.630868,617.286516L938.280077,616.098131L939.661674,609.058435L950.112666,606.817220L952.212582,601.594364L958.637160,602.310634L958.167899,605.809623L970.820198,615.457789L969.244891,612.106728L978.013176,613.871187L989.650466,607.553865L1000.000000,606.755452L999.271701,585.821037L994.030489,583.151836L983.985355,567.311673L979.186300,563.729970L970.039053,551.577493L974.264951,542.966046L958.307706,535.004202L980.368233,493.232523L972.774036,488.094448L966.563257,473.724455L953.055544,466.349911L960.314850,454.049580L966.827557,448.423643L956.985870,436.875354L952.915437,415.318634L949.857892,411.310057L952.399028,392.874534L947.278749,374.708841L957.542077,348.907362L956.572576,338.880917L952.174808,333.181707L936.473733,324.360467L931.520988,318.739165L928.854040,310.736155L928.821645,310.745703Z " data-code="soorp-Jilemnice" data-name="Jilemnice"/>
    <path d="M354.310670,244.366675L354.190030,244.209218L350.059173,239.929908L343.689998,244.381350L333.860771,245.229882L328.356091,238.781197L320.461783,237.863033L316.757016,232.682522L300.162436,241.374768L299.701118,241.673263L281.173820,252.375638L283.429469,275.843687L295.735610,309.251086L295.901370,309.706424L296.055653,309.685438L303.025017,303.679757L310.790344,305.802886L307.992220,309.706818L322.407867,321.336034L320.703405,327.834861L328.820032,328.335961L327.324432,333.950576L314.684283,337.634255L316.726338,341.916361L306.435554,357.098371L311.635814,359.828586L327.572632,363.008010L329.274493,359.046006L338.583054,361.734213L343.600587,357.988474L346.168917,346.146612L354.046673,328.480999L354.377685,323.167558L360.663395,319.225820L364.672507,324.837710L371.550038,324.582379L376.577710,327.933737L377.151639,327.939063L377.227726,327.949895L384.871656,332.132919L389.343621,344.081318L390.356784,361.476293L394.338593,362.482836L423.573966,363.552897L425.241037,377.353766L415.713242,391.795379L419.833364,401.845976L430.541958,410.017558L447.471518,430.520934L447.901197,438.038383L443.055585,443.527687L437.051872,442.615895L432.843285,447.157166L433.936875,455.585985L430.982103,460.191224L442.442182,477.829745L441.991418,491.988741L444.800747,495.343100L444.852822,495.299258L442.985128,492.430063L455.146079,490.727180L461.153364,495.870386L461.458913,505.418383L468.242626,508.659542L469.865961,505.216140L475.433919,505.714711L478.179499,511.813183L472.070113,515.077348L489.472727,520.978397L488.012963,516.804126L493.663867,516.437583L494.217130,509.333952L494.198005,509.271763L492.278743,501.106879L498.361425,503.088258L492.193873,495.717007L500.649792,495.771742L498.527367,489.436896L525.298407,479.812463L529.551448,483.616423L533.381707,477.766394L541.453230,480.831169L543.596113,476.417555L549.368206,476.713786L549.781636,468.011973L565.019211,456.980316L568.301244,446.776379L568.619394,446.880028L568.724887,446.911988L588.964967,456.779828L603.184896,449.888584L600.848275,447.653866L604.832581,441.853933L601.082192,431.520864L601.982275,431.855422L602.144188,431.494726L602.364616,426.702702L595.392567,426.466450L595.837985,408.726526L595.831229,408.697453L595.984193,408.324058L595.588540,392.082172L599.182035,380.785847L596.694948,378.953633L605.341808,369.951002L609.576651,370.109220L612.090751,361.546312L595.422672,348.451111L603.245644,339.275186L609.114485,334.833856L612.302594,336.274595L610.508542,325.119392L620.277230,302.175966L624.742639,304.896068L627.780165,299.164495L613.581257,280.599830L604.588882,281.602712L602.892424,274.309988L609.283244,260.842533L609.319248,260.657682L609.919139,260.056894L614.116008,255.998790L613.842158,251.405060L617.334877,237.159235L625.296300,234.195742L626.315063,228.631120L631.439442,219.207951L631.755299,219.250546L631.347838,218.747091L628.433821,215.604806L626.568858,202.615671L618.090617,199.622489L599.570335,195.411645L593.441788,185.459213L582.191652,186.228986L578.304086,184.329407L543.196628,205.828377L531.589948,201.296433L525.586878,203.114689L520.202334,191.289556L509.977786,184.131540L509.514838,184.308778L496.606563,186.429915L491.495678,190.358866L483.928827,193.159777L483.873980,193.161709L483.455737,193.187910L474.223761,190.404043L468.128047,185.246727L448.172701,178.648844L437.259346,176.019055L435.018059,186.543960L419.228459,175.111490L411.499881,174.825457L409.214800,182.557110L389.069167,183.153866L384.181952,179.661982L378.332045,182.401293L378.824570,187.064589L374.610391,198.601262L366.318234,211.161654L361.805658,224.388709L361.121529,237.882132L354.343243,244.356774L354.310670,244.366675Z " data-code="soorp-Liberec" data-name="Liberec"/>
    <path d="M174.572505,268.326698L174.324308,268.331622L160.143558,271.146327L159.192728,275.066086L144.277324,269.057883L141.166184,269.786807L124.498773,254.551462L114.416742,254.977336L115.227141,248.704887L102.406204,250.064106L96.456815,256.445484L88.472400,250.645776L83.557941,253.828208L87.748731,255.089972L90.646713,261.491435L89.215450,272.405768L93.817825,276.008356L87.510177,286.837161L94.447588,291.956195L87.852262,302.614962L87.425927,303.112036L92.362372,313.848530L96.330941,315.512665L92.805890,324.789916L93.833213,329.046221L102.813621,333.888105L107.219184,339.494364L100.760329,349.893583L108.023273,352.166728L120.589902,348.096835L131.155761,355.013397L146.239237,357.050890L150.593731,360.024115L157.041389,355.405551L162.645760,358.992340L163.137877,374.241636L170.345446,372.794775L179.392100,374.298749L183.908673,377.907074L193.001225,378.241474L199.703455,381.109766L218.876920,366.087994L218.919891,365.797051L218.921990,365.304192L225.688380,359.738882L224.068821,357.283684L239.808045,359.858372L260.856663,352.481475L261.014017,352.903524L261.345099,351.686740L266.690587,339.463669L277.163337,334.676643L280.089335,326.126899L287.306965,324.225258L295.719898,309.903574L295.901370,309.706424L295.735610,309.251086L283.429469,275.843687L281.173820,252.375638L299.701118,241.673263L299.778696,241.246367L295.350670,239.845924L297.988018,229.162178L289.354116,218.931000L274.736572,222.073489L253.946927,207.901150L245.128348,209.050859L224.473945,198.691886L218.728108,199.718134L211.896192,214.571985L199.037505,222.002276L186.079806,220.243527L182.335217,232.243352L179.102501,234.983105L173.648656,251.178006L176.641667,260.038834L174.510856,268.144577L174.572505,268.326698Z " data-code="soorp-Novy_Bor" data-name="Nový Bor"/>
    <path d="M806.014046,360.722727L805.979139,361.011500L807.149014,367.717617L805.566480,388.004894L807.274976,388.528674L807.648369,410.347474L800.668297,415.136127L795.745427,413.608025L789.662313,406.890638L786.237058,407.966970L776.752884,416.377844L778.706182,418.644992L765.374935,424.608821L765.276592,424.632846L765.454238,425.196453L767.368259,430.907012L764.187430,438.136891L766.156351,450.013440L763.730513,453.443150L754.519119,455.540494L758.342580,462.944353L746.992146,472.140741L738.476607,470.085311L736.439619,479.106906L716.949390,474.110719L702.569651,479.584860L706.397654,484.590646L704.908150,490.995210L704.830625,491.143108L705.011215,491.382171L716.299547,507.365234L718.547958,523.289443L730.713857,531.487685L731.358228,535.458392L740.706520,538.453163L748.563281,538.397441L758.362387,546.742769L758.150138,547.142662L757.992574,547.380657L757.055536,559.918200L739.432417,564.677976L739.400287,576.370814L746.406718,577.703377L747.026651,593.697988L763.929932,604.308956L770.330562,616.651816L770.567132,616.782401L777.976132,621.071677L783.506158,630.927788L793.894065,633.755889L801.010630,641.789955L803.615365,630.713293L809.454317,626.037489L812.346180,627.763220L814.841823,638.833533L810.697885,647.384133L815.574222,650.071218L818.375666,658.775568L827.618063,659.472414L829.358987,657.536790L838.029531,658.706935L839.708861,655.259228L846.913610,656.921275L844.591266,648.527825L850.380637,644.732579L855.093100,651.715285L859.475858,648.012580L866.706672,636.740605L866.647270,632.480068L858.898696,630.922589L859.108625,626.249271L855.466020,606.830599L863.325061,606.484911L876.326505,602.761760L876.871066,591.721563L877.006694,591.652287L873.727778,579.917590L867.061777,569.633423L861.213614,564.980957L867.132793,548.455467L872.978140,550.374808L875.135463,541.161786L867.212597,532.046896L861.671529,512.025217L852.027252,505.622842L851.910587,505.429702L851.835716,505.195389L848.724758,498.598943L857.725768,481.145725L859.492727,479.920853L857.078698,461.250890L852.544442,460.272919L853.673259,442.314914L849.690676,424.823307L854.689843,420.809822L863.077469,421.902435L863.056269,421.886561L862.971800,421.851201L863.066035,411.425672L853.287055,402.880500L846.761553,399.031880L837.526853,398.565759L838.512992,388.026467L832.165895,383.952784L833.163224,377.730802L831.460891,370.141690L806.210593,360.749579L806.014046,360.722727Z " data-code="soorp-Semily" data-name="Semily"/>
    <path d="M757.481615,195.153594L753.270679,204.210933L734.349704,225.433389L729.572438,227.195177L738.449598,243.160683L739.065963,256.026282L703.378896,238.585454L700.117770,235.269241L693.691187,235.697996L693.563002,235.752086L693.904268,236.477931L696.761244,256.571858L699.585907,259.930559L704.281898,275.580649L705.753998,287.739307L714.176462,297.037340L716.890967,307.694154L703.493095,303.575079L700.000875,306.472718L698.048323,316.216820L699.895973,326.556389L697.969730,341.839252L687.822657,349.890632L695.391277,371.307858L691.555176,377.759192L695.439468,379.759580L695.918097,379.812460L695.973787,379.514097L708.063519,376.565296L728.226060,376.163286L728.214483,378.974215L736.732451,382.044088L742.971123,379.633682L762.971643,399.489854L765.618795,405.890138L759.098899,415.212559L765.219293,424.240485L765.276592,424.632846L765.374935,424.608821L778.706182,418.644992L776.752884,416.377844L786.237058,407.966970L789.662313,406.890638L795.745427,413.608025L800.668297,415.136127L807.648369,410.347474L807.274976,388.528674L805.566480,388.004894L807.149014,367.717617L805.979139,361.011500L806.014046,360.722727L805.951523,360.465848L805.534027,345.131590L800.627833,338.662869L803.343469,334.138087L799.257203,326.419305L804.831884,319.303242L805.067629,319.326093L805.199764,319.424464L820.596134,315.114289L831.623652,322.386525L844.526927,321.902738L844.548769,321.916836L845.934708,322.811487L860.823986,330.552237L865.665128,327.680970L887.390965,330.171227L899.695016,321.041655L897.395245,320.037112L905.028688,293.407113L900.953173,281.238080L899.476398,281.619197L896.335209,282.053899L884.260712,275.874230L880.655708,271.724827L863.158336,262.877481L862.592953,259.169149L853.707588,256.836498L843.392338,260.236870L834.609277,277.551025L825.340106,291.245644L817.874889,297.672672L805.071152,295.596429L800.880759,291.155693L802.207270,284.361203L798.695487,266.930177L803.398605,255.368446L800.768743,251.016999L804.175727,242.614258L795.840375,220.046674L791.089177,210.423764L757.535102,195.268315L757.481615,195.153594Z " data-code="soorp-Tanvald" data-name="Tanvald"/>
    <path d="M669.265311,413.861095L669.196328,414.044153L664.224926,417.488954L657.650278,417.126653L650.920490,442.469003L646.674408,439.559493L632.430149,438.144945L629.989700,434.491522L619.264189,433.666382L608.068230,435.581788L602.509180,432.207220L601.982275,431.855422L601.082192,431.520864L604.832581,441.853933L600.848275,447.653866L603.184896,449.888584L588.964967,456.779828L568.724887,446.911988L568.619394,446.880028L568.301244,446.776379L565.019211,456.980316L549.781636,468.011973L549.368206,476.713786L543.596113,476.417555L541.453230,480.831169L533.381707,477.766394L529.551448,483.616423L525.298407,479.812463L498.527367,489.436896L500.649792,495.771742L492.193873,495.717007L498.361425,503.088258L492.278743,501.106879L494.198005,509.271763L494.294382,509.256429L498.807968,506.047562L503.714584,512.337010L514.838326,511.076366L517.927117,508.937186L528.177134,530.422130L536.847393,535.395622L546.004655,551.123823L545.129381,555.648821L553.334905,553.649282L563.757766,548.889395L572.832156,562.084372L587.551493,568.942306L587.077287,576.096205L590.390080,593.707176L604.644208,595.688990L606.560658,599.556912L611.597268,597.578888L622.425977,601.953743L647.120274,621.341234L654.419482,623.173086L663.271462,630.485307L687.475978,641.779234L700.430512,640.545706L704.736029,628.064051L719.209858,609.181822L728.078009,609.959049L733.956308,606.311145L749.324206,613.606876L757.232769,621.841270L763.006736,616.741523L765.438709,620.640911L770.288472,616.795655L770.330562,616.651816L763.929932,604.308956L747.026651,593.697988L746.406718,577.703377L739.400287,576.370814L739.432417,564.677976L757.055536,559.918200L757.992574,547.380657L758.150138,547.142662L758.362387,546.742769L748.563281,538.397441L740.706520,538.453163L731.358228,535.458392L730.713857,531.487685L718.547958,523.289443L716.299547,507.365234L705.011215,491.382171L704.830625,491.143108L704.620865,491.190199L702.503864,491.298195L697.830561,491.538608L696.468840,490.655271L696.323901,490.445399L696.209052,490.558888L692.076147,496.829656L685.113445,480.494175L677.383110,485.026397L674.660024,497.402899L666.293035,499.138238L668.525125,490.926989L655.723298,485.945598L674.220668,465.163295L672.385437,460.750792L676.255650,459.115925L676.316276,458.849636L675.866986,458.779063L679.566417,448.113005L679.187560,443.637170L670.480022,428.982256L669.373721,414.198869L669.265311,413.861095Z " data-code="soorp-Turnov" data-name="Turnov"/>
    <path d="M695.918097,379.812460L695.802709,380.123153L678.867481,382.822415L669.587407,386.388219L677.882852,394.443010L677.683668,402.023891L669.481317,413.589980L669.265311,413.861095L669.373721,414.198869L670.480022,428.982256L679.187560,443.637170L679.566417,448.113005L675.866986,458.779063L676.316276,458.849637L676.255650,459.115925L672.385437,460.750792L674.220668,465.163295L655.723298,485.945598L668.525125,490.926989L666.293035,499.138238L674.660024,497.402899L677.383110,485.026397L685.113445,480.494175L692.076147,496.829656L696.209052,490.558888L696.323901,490.445398L696.468840,490.655271L697.830561,491.538608L702.503864,491.298195L704.620865,491.190199L704.830625,491.143108L704.908150,490.995210L706.397654,484.590646L702.569651,479.584860L716.949390,474.110719L736.439619,479.106906L738.476607,470.085311L746.992146,472.140741L758.342580,462.944353L754.519119,455.540494L763.730513,453.443150L766.156351,450.013440L764.187430,438.136891L767.368259,430.907012L765.454238,425.196453L765.276592,424.632846L765.219293,424.240485L759.098899,415.212559L765.618795,405.890138L762.971643,399.489854L742.971123,379.633682L736.732451,382.044088L728.214483,378.974215L728.226060,376.163286L708.063519,376.565296L695.973787,379.514097L695.918097,379.812460Z " data-code="soorp-Zelezny_Brod" data-name="Železný Brod"/>
  </g>
  <g class="" id="soopu">
    <path d="M86.507210,302.524769L75.246473,300.757517L71.944373,307.354950L71.093817,315.207494L62.733860,339.123121L71.435597,344.210486L71.950538,347.528857L62.397387,350.951253L60.735690,345.418911L56.819469,346.184139L53.057356,356.885840L41.789728,361.534470L31.425187,363.807982L24.941006,382.078934L25.250730,392.904472L30.676153,396.580742L31.618351,402.409707L27.602894,406.744253L10.477967,418.726670L5.363413,427.510905L4.805503,433.143791L19.778426,442.529725L17.332474,448.027001L21.577842,461.520121L17.624951,477.832462L24.406401,485.473764L22.987081,487.402640L34.553030,507.342634L32.872122,509.913824L44.413248,523.978458L51.987756,526.959786L53.424341,532.967976L59.047418,543.871370L59.199646,543.813928L59.199010,543.791931L63.417221,544.492516L63.349526,539.773863L68.369526,536.809949L67.240700,528.138710L86.837198,526.636308L90.403622,516.950951L96.585129,516.119632L107.495724,520.217489L122.232848,519.338388L123.855775,509.190179L132.073551,508.448721L132.829519,525.206682L145.511388,533.410951L153.609231,535.833036L165.659715,528.201552L167.335768,521.461303L179.088261,525.637195L178.369692,519.478192L192.697346,523.773905L202.219479,516.727213L206.631663,515.947137L210.059503,504.554435L217.160905,503.490245L215.795429,497.693171L223.329476,491.917379L232.707601,488.177092L235.481047,482.594715L235.847753,482.529965L235.729035,482.473650L230.444615,478.521980L247.550610,472.229544L253.750931,466.433172L261.701012,478.667474L269.302725,485.681435L278.157743,485.685807L274.366491,481.031396L269.843997,417.425856L278.713158,407.873048L276.228108,405.426639L270.476358,383.538849L272.950093,380.247754L261.260440,353.217118L261.014017,352.903524L260.856663,352.481475L239.808045,359.858372L224.068821,357.283684L225.688380,359.738882L218.921990,365.304192L218.919891,365.797051L218.876920,366.087994L199.703455,381.109766L193.001225,378.241474L183.908673,377.907074L179.392100,374.298749L170.345446,372.794775L163.137877,374.241636L162.645760,358.992340L157.041389,355.405551L150.593731,360.024115L146.239237,357.050890L131.155761,355.013397L120.589902,348.096835L108.023273,352.166728L100.760329,349.893583L107.219184,339.494364L102.813621,333.888105L93.833213,329.046221L92.805890,324.789916L96.330941,315.512665L92.362372,313.848530L87.425927,303.112036L86.507210,302.524769Z " data-code="soopu-Ceska_Lipa" data-name="Česká Lípa"/>
    <path d="M59.199646,543.813928L59.381386,543.865588L69.208363,572.742922L72.522968,574.821726L79.208484,586.845426L76.175036,591.699295L81.722065,593.349474L79.987460,598.569933L106.516316,606.628317L107.742381,615.614237L115.220995,628.184515L116.074588,634.472709L125.972712,644.831177L130.059971,629.984475L133.335638,623.258848L143.629930,624.014333L150.331107,636.845190L161.906185,640.299228L169.162772,629.460959L179.123561,621.799880L187.234886,622.651656L187.325806,636.536084L184.571097,641.128707L188.792286,659.227276L195.010666,667.529503L196.976133,661.175447L212.592424,667.551045L212.226828,661.434038L227.001184,659.352985L227.052871,652.689664L240.929802,660.108649L240.657954,654.416491L246.189143,653.426278L267.399056,656.500345L274.268753,654.217080L271.703241,645.932964L288.750555,640.852751L296.248337,636.509601L300.757414,612.231031L312.591347,614.480866L322.524616,613.820586L325.778586,596.564992L319.492824,578.576983L320.412217,566.673276L320.418531,566.366789L320.423493,566.309448L314.732197,552.734867L312.016677,553.237145L316.340217,542.125046L314.977013,539.066312L300.744870,525.730938L299.563150,518.143873L291.719795,516.450033L280.683970,519.867546L263.485255,514.454301L270.162421,506.908525L250.344529,493.917863L242.269655,491.293322L236.065711,482.794580L235.847753,482.529965L235.481047,482.594715L232.707601,488.177092L223.329476,491.917379L215.795429,497.693171L217.160905,503.490245L210.059503,504.554435L206.631663,515.947137L202.219479,516.727213L192.697346,523.773905L178.369692,519.478192L179.088261,525.637195L167.335768,521.461303L165.659715,528.201552L153.609231,535.833036L145.511388,533.410951L132.829519,525.206682L132.073551,508.448721L123.855775,509.190179L122.232848,519.338388L107.495724,520.217489L96.585129,516.119632L90.403622,516.950951L86.837198,526.636308L67.240700,528.138710L68.369526,536.809949L63.349526,539.773863L63.417221,544.492516L59.199010,543.791931L59.199646,543.813928Z " data-code="soopu-Doksy" data-name="Doksy"/>
    <path d="M295.901370,309.706424L295.719898,309.903574L287.306965,324.225258L280.089335,326.126899L277.163337,334.676643L266.690587,339.463669L261.345099,351.686740L261.014017,352.903524L261.260440,353.217118L272.950093,380.247754L270.476358,383.538849L276.228108,405.426639L278.713158,407.873048L269.843997,417.425856L274.366491,481.031396L278.157743,485.685807L269.302725,485.681435L261.701012,478.667474L253.750931,466.433172L247.550610,472.229544L230.444615,478.521980L235.729035,482.473650L235.847753,482.529965L236.065711,482.794580L242.269655,491.293322L250.344529,493.917863L270.162421,506.908525L263.485255,514.454301L280.683970,519.867546L291.719795,516.450033L299.563150,518.143873L300.744870,525.730938L314.977013,539.066312L316.340217,542.125046L312.016677,553.237145L314.732197,552.734867L320.423493,566.309448L320.418531,566.366789L328.619192,568.003716L358.169010,573.835181L369.923798,581.034228L379.784678,589.070308L402.398106,568.509025L405.089328,567.190186L396.070902,556.594126L399.774044,547.590099L408.244634,544.967631L416.251472,539.281866L428.543218,534.771606L431.165536,539.347281L443.155243,530.728604L439.935112,519.015217L433.167512,511.255068L450.084428,505.544671L445.171242,495.544115L444.800747,495.343100L441.991418,491.988741L442.442182,477.829745L430.982103,460.191224L433.936875,455.585985L432.843285,447.157166L437.051872,442.615895L443.055585,443.527687L447.901197,438.038383L447.471518,430.520934L430.541958,410.017558L419.833364,401.845976L415.713242,391.795379L425.241037,377.353766L423.573966,363.552897L394.338593,362.482836L390.356784,361.476293L389.343621,344.081318L384.871656,332.132919L377.227726,327.949895L377.151639,327.939063L376.577710,327.933737L371.550038,324.582379L364.672507,324.837710L360.663395,319.225820L354.377685,323.167558L354.046673,328.480999L346.168917,346.146612L343.600587,357.988474L338.583054,361.734213L329.274493,359.046006L327.572632,363.008010L311.635814,359.828586L306.435554,357.098371L316.726338,341.916361L314.684283,337.634255L327.324432,333.950576L328.820032,328.335961L320.703405,327.834861L322.407867,321.336034L307.992220,309.706818L310.790344,305.802886L303.025017,303.679757L296.055653,309.685438L295.901370,309.706424Z " data-code="soopu-Mimon" data-name="Mimoň"/>
    <path d="M509.977786,184.131540L520.202334,191.289556L525.586878,203.114689L531.589948,201.296433L543.196628,205.828377L578.304086,184.329407L582.191652,186.228986L593.441788,185.459213L599.570335,195.411645L618.090617,199.622489L626.568858,202.615671L628.433821,215.604806L631.347838,218.747091L631.755299,219.250546L631.847962,219.332098L661.061285,235.784816L665.276122,231.654504L680.735581,229.296827L686.366853,238.598633L693.487170,235.784155L693.563002,235.752086L693.691187,235.697996L700.117770,235.269241L703.378896,238.585454L739.065963,256.026282L738.449598,243.160683L729.572438,227.195177L734.349704,225.433389L753.270679,204.210933L757.481615,195.153594L757.523957,195.019396L755.366565,194.430430L754.902836,193.740532L754.079404,193.241503L754.034591,193.244016L753.935383,193.484020L738.409061,182.584677L736.116296,179.037639L699.096910,178.592632L695.065411,176.310797L696.763241,163.255363L691.983026,160.955846L675.255387,168.213050L662.404342,164.540720L651.204418,165.143441L651.358942,160.769180L659.460185,152.840204L664.418398,145.141660L651.397100,141.155488L651.020972,132.264168L655.524383,125.166517L651.894332,122.427140L639.877154,119.454334L653.291554,115.563762L653.548541,107.856729L662.394807,99.204264L666.099835,98.743132L668.619192,91.240771L677.218177,89.308896L682.193152,96.076544L690.515013,76.843530L694.212005,59.080081L705.493693,49.150637L705.769968,48.752360L705.448979,48.245886L696.523097,25.537556L682.317791,29.756185L678.494600,33.487855L666.145307,37.822265L668.439271,43.574302L661.874398,47.930652L646.320121,40.569878L649.525402,37.916255L648.826187,10.242046L644.650069,0.000000L624.059853,14.435656L617.914099,27.814420L623.749296,33.410613L607.046562,32.334233L602.818006,33.858485L592.220720,31.874722L589.591284,19.608826L596.911273,13.348513L573.734473,4.492845L558.374632,0.965398L550.338582,9.977542L540.181773,6.405859L540.117739,0.000000L526.341954,1.473895L525.814813,3.926095L513.042273,11.262838L503.087011,10.980907L489.857926,36.471748L502.489667,48.220346L506.810389,49.726295L518.939520,40.814193L522.526351,45.981555L530.946271,64.394139L523.087146,69.428737L526.192302,85.873136L525.395130,97.888356L506.206479,120.150735L513.350151,135.861491L511.737690,152.853180L515.849101,184.844774L509.963356,184.127762L509.977786,184.131540Z " data-code="soopu-Frydlant" data-name="Frýdlant"/>
    <path d="M705.769968,48.752360L705.493693,49.150637L694.212005,59.080081L690.515013,76.843530L682.193152,96.076544L677.218177,89.308896L668.619192,91.240771L666.099835,98.743132L662.394807,99.204264L653.548541,107.856729L653.291554,115.563762L639.877154,119.454334L651.894332,122.427140L655.524383,125.166517L651.020972,132.264168L651.397100,141.155488L664.418398,145.141660L659.460185,152.840204L651.358942,160.769180L651.204418,165.143441L662.404342,164.540720L675.255387,168.213050L691.983026,160.955846L696.763241,163.255363L695.065411,176.310797L699.096910,178.592632L736.116296,179.037639L738.409061,182.584677L753.935383,193.484020L754.034591,193.244016L753.688755,193.263685L740.178409,175.104686L728.250911,157.167435L728.057587,147.089432L720.279982,121.392009L722.074638,104.246616L732.558906,92.310985L737.974465,88.101341L739.492225,80.604315L726.493896,62.885988L726.548334,51.033047L723.207426,49.151285L707.312058,47.494650L705.845743,48.681478L705.769968,48.752360Z " data-code="soopu-Nove_Mesto_pod_Smrkem" data-name="Nové Město pod Smrkem"/>
    <path d="M631.755299,219.250546L631.439442,219.207951L626.315063,228.631120L625.296300,234.195742L617.334877,237.159235L613.842158,251.405060L614.116008,255.998790L609.919139,260.056894L609.319248,260.657682L609.283244,260.842533L602.892424,274.309988L604.588882,281.602712L613.581257,280.599830L627.780165,299.164495L624.742639,304.896068L620.277230,302.175966L610.508542,325.119392L612.302594,336.274595L609.114485,334.833856L603.245644,339.275186L595.422672,348.451111L612.090751,361.546312L609.576651,370.109220L605.341808,369.951002L596.694948,378.953633L599.182035,380.785847L595.588540,392.082172L595.984193,408.324058L595.831229,408.697453L595.837985,408.726526L595.392567,426.466450L602.364616,426.702702L602.144188,431.494726L601.982275,431.855422L602.509180,432.207220L608.068230,435.581788L619.264189,433.666382L629.989700,434.491522L632.430149,438.144945L646.674408,439.559493L650.920490,442.469003L657.650278,417.126653L664.224926,417.488954L669.196328,414.044153L669.265311,413.861095L669.481317,413.589980L677.683668,402.023891L677.882852,394.443010L669.587407,386.388219L678.867481,382.822415L695.802709,380.123153L695.918097,379.812460L695.439468,379.759580L691.555176,377.759192L695.391277,371.307858L687.822657,349.890632L697.969730,341.839252L699.895973,326.556389L698.048323,316.216820L700.000875,306.472718L703.493095,303.575079L716.890967,307.694154L714.176462,297.037340L705.753998,287.739307L704.281898,275.580649L699.585907,259.930559L696.761244,256.571858L693.904268,236.477931L693.563002,235.752086L693.487170,235.784155L686.366853,238.598633L680.735581,229.296827L665.276122,231.654504L661.061285,235.784816L631.847962,219.332098L631.755299,219.250546Z " data-code="soopu-Jablonec_nad_Nisou" data-name="Jablonec nad Nisou"/>
    <path d="M928.821645,310.745703L928.485292,311.279445L924.418718,320.754555L912.894498,326.770715L907.217263,361.823404L911.258455,370.792840L920.221018,368.604409L922.577023,374.125757L915.395827,381.990149L912.519148,394.966365L903.021312,403.458481L898.284590,405.751704L894.252719,402.631168L879.713502,404.794305L877.752006,411.436598L868.917661,413.022423L863.060294,421.850203L863.056269,421.886561L863.077469,421.902435L854.689843,420.809822L849.690676,424.823307L853.673259,442.314914L852.544442,460.272919L857.078698,461.250890L859.492727,479.920853L857.725768,481.145725L848.724758,498.598943L851.835716,505.195389L851.910587,505.429702L852.027252,505.622842L861.671529,512.025217L867.212597,532.046896L875.135463,541.161786L872.978140,550.374808L867.132793,548.455467L861.213614,564.980957L867.061777,569.633423L873.727778,579.917590L877.006694,591.652287L877.175001,591.747943L886.277839,595.007445L890.748405,578.112832L902.315688,584.440104L918.323272,613.593170L930.630868,617.286516L938.280077,616.098131L939.661674,609.058435L950.112666,606.817220L952.212582,601.594364L958.637160,602.310634L958.167899,605.809623L970.820198,615.457789L969.244891,612.106728L978.013176,613.871187L989.650466,607.553865L1000.000000,606.755452L999.271701,585.821037L994.030489,583.151836L983.985355,567.311673L979.186300,563.729970L970.039053,551.577493L974.264951,542.966046L958.307706,535.004202L980.368233,493.232523L972.774036,488.094448L966.563257,473.724455L953.055544,466.349911L960.314850,454.049580L966.827557,448.423643L956.985870,436.875354L952.915437,415.318634L949.857892,411.310057L952.399028,392.874534L947.278749,374.708841L957.542077,348.907362L956.572576,338.880917L952.174808,333.181707L936.473733,324.360467L931.520988,318.739165L928.854040,310.736155L928.821645,310.745703Z " data-code="soopu-Jilemnice" data-name="Jilemnice"/>
    <path d="M900.953173,281.238080L905.028688,293.407113L897.395245,320.037112L899.695016,321.041655L887.390965,330.171227L865.665128,327.680970L860.823986,330.552237L845.934708,322.811487L844.548769,321.916838L844.526927,321.902738L831.623652,322.386525L820.596134,315.114289L805.199764,319.424464L805.067629,319.326094L804.831884,319.303242L799.257203,326.419305L803.343469,334.138087L800.627833,338.662869L805.534027,345.131590L805.951523,360.465848L806.014046,360.722727L806.210593,360.749579L831.460891,370.141690L833.163224,377.730802L832.165895,383.952784L838.512992,388.026467L837.526853,398.565759L846.761553,399.031880L853.287055,402.880500L863.066035,411.425672L862.971800,421.851201L863.056269,421.886561L863.060294,421.850203L868.917661,413.022423L877.752006,411.436598L879.713502,404.794305L894.252719,402.631168L898.284590,405.751704L903.021312,403.458481L912.519148,394.966365L915.395827,381.990149L922.577023,374.125757L920.221018,368.604409L911.258455,370.792840L907.217263,361.823404L912.894498,326.770715L924.418718,320.754555L928.485292,311.279445L928.821645,310.745703L928.821455,310.721211L928.963442,298.475176L921.253441,295.170718L908.867940,278.974852L901.027806,281.230902L900.953173,281.238080Z " data-code="soopu-Rokytnice_nad_Jizerou" data-name="Rokytnice nad Jizerou"/>
    <path d="M437.540660,284.539967L437.280211,284.779024L430.204072,286.526764L425.815881,290.728811L402.783600,301.810960L397.439478,299.453176L396.978250,299.213510L397.449411,300.010569L403.398437,306.167408L402.130354,316.776530L392.895742,321.232952L385.001932,316.165592L377.209018,327.722687L377.151639,327.939063L377.227726,327.949895L384.871656,332.132919L389.343621,344.081318L390.356784,361.476293L394.338593,362.482836L423.573966,363.552897L425.241037,377.353766L415.713242,391.795379L419.833364,401.845976L430.541958,410.017558L447.471518,430.520934L447.901197,438.038383L443.055585,443.527687L437.051872,442.615895L432.843285,447.157166L433.936875,455.585985L430.982103,460.191224L442.442182,477.829745L441.991418,491.988741L444.800747,495.343100L444.852822,495.299258L442.985128,492.430063L455.146079,490.727180L461.153364,495.870386L461.458913,505.418383L468.242626,508.659542L469.865961,505.216140L475.433919,505.714711L478.179499,511.813183L472.070113,515.077348L489.472727,520.978397L488.012963,516.804126L493.663867,516.437583L494.217130,509.333952L494.198005,509.271763L492.278743,501.106879L498.361425,503.088258L492.193873,495.717007L500.649792,495.771742L498.527367,489.436896L525.298407,479.812463L529.551448,483.616423L533.381707,477.766394L541.453230,480.831169L543.596113,476.417555L549.368206,476.713786L549.781636,468.011973L565.019211,456.980316L568.301244,446.776379L568.619394,446.880028L568.680669,446.524791L568.840677,440.563061L564.968496,434.395620L568.491215,420.753148L573.978206,418.866622L570.228517,413.207796L563.040813,409.613554L555.379117,402.269572L555.348551,402.202774L554.772005,402.547719L545.315725,404.530906L536.578171,398.689240L540.204985,386.003550L537.515193,381.044448L519.496282,371.138048L514.158869,359.334487L504.988445,355.214105L500.507391,346.516459L500.474239,346.219689L500.425796,346.209582L487.287756,338.016718L485.241002,333.378565L472.025311,333.792693L457.647403,323.950460L444.329599,311.895085L438.954272,301.328966L440.084522,283.163727L437.760776,284.489989L437.540660,284.539967Z " data-code="soopu-Cesky_Dub" data-name="Český Dub"/>
    <path d="M555.348551,402.202774L555.379117,402.269572L563.040813,409.613554L570.228517,413.207796L573.978206,418.866622L568.491215,420.753148L564.968496,434.395620L568.840677,440.563061L568.680669,446.524791L568.619394,446.880028L568.724887,446.911988L588.964967,456.779828L603.184896,449.888584L600.848275,447.653866L604.832581,441.853933L601.082192,431.520864L601.982275,431.855422L602.144188,431.494726L602.364616,426.702702L595.392567,426.466450L595.837985,408.726526L595.831229,408.697453L595.823916,408.665789L592.314587,402.837556L572.908640,402.465411L572.681543,402.078311L572.393526,401.556703L563.333636,401.542903L557.721994,399.382090L555.351253,402.128868L555.348551,402.202774Z " data-code="soopu-Hodkovice_nad_Mohelkou" data-name="Hodkovice nad Mohelkou"/>
    <path d="M354.310670,244.366675L354.319249,244.379092L362.286165,256.429814L364.140356,264.782138L358.150229,272.827906L358.921151,280.813084L355.106385,283.586167L368.236888,290.914082L369.128750,303.211386L381.869117,298.372081L382.195176,298.165173L382.214059,298.153190L389.830796,297.545729L392.000886,298.842552L396.702422,298.963334L396.978250,299.213510L397.439478,299.453176L402.783600,301.810960L425.815881,290.728811L430.204072,286.526764L437.280211,284.779024L437.540660,284.539967L437.365992,284.113316L425.926841,279.981459L418.016786,272.896817L413.307498,266.352012L410.900658,255.531059L421.077146,242.835308L419.307384,236.857560L427.144794,236.031437L438.684221,218.249133L445.668846,220.525571L450.320980,226.890869L468.624321,229.910363L473.981009,220.892806L484.666960,196.938293L483.739783,193.934426L483.873980,193.161709L483.455737,193.187910L474.223761,190.404043L468.128047,185.246727L448.172701,178.648844L437.259346,176.019055L435.018059,186.543960L419.228459,175.111490L411.499881,174.825457L409.214800,182.557110L389.069167,183.153866L384.181952,179.661982L378.332045,182.401293L378.824570,187.064589L374.610391,198.601262L366.318234,211.161654L361.805658,224.388709L361.121529,237.882132L354.343243,244.356774L354.310670,244.366675Z " data-code="soopu-Hradek_nad_Nisou" data-name="Hrádek nad Nisou"/>
    <path d="M483.873980,193.161709L483.739783,193.934426L484.666960,196.938293L473.981009,220.892806L468.624321,229.910363L450.320980,226.890869L445.668846,220.525571L438.684221,218.249133L427.144794,236.031437L419.307384,236.857560L421.077146,242.835308L410.900658,255.531059L413.307498,266.352012L418.016786,272.896817L425.926841,279.981459L437.365992,284.113316L437.540660,284.539967L437.760776,284.489989L440.084522,283.163727L438.954272,301.328966L444.329599,311.895085L457.647403,323.950460L472.025311,333.792693L485.241002,333.378565L487.287756,338.016718L500.425796,346.209582L500.474239,346.219689L500.413691,345.676542L497.899447,333.787963L500.634873,329.665819L493.784942,321.809963L490.473940,308.178281L478.134205,293.574525L491.953630,282.126159L481.998142,278.134152L485.963186,273.123042L492.929078,276.711367L493.463197,270.801514L505.384429,264.605674L512.330848,268.732766L515.861741,263.851011L522.589364,261.204552L529.756705,248.164275L546.302680,241.943828L552.308305,244.899694L565.475928,256.936552L574.774046,259.770995L609.217794,260.620982L609.319248,260.657682L609.919139,260.056894L614.116008,255.998790L613.842158,251.405060L617.334877,237.159235L625.296300,234.195742L626.315063,228.631120L631.439442,219.207951L631.755299,219.250546L631.347838,218.747091L628.433821,215.604806L626.568858,202.615671L618.090617,199.622489L599.570335,195.411645L593.441788,185.459213L582.191652,186.228986L578.304086,184.329407L543.196628,205.828377L531.589948,201.296433L525.586878,203.114689L520.202334,191.289556L509.977786,184.131540L509.514838,184.308778L496.606563,186.429915L491.495678,190.358866L483.928827,193.159777L483.873980,193.161709Z " data-code="soopu-Chrastava" data-name="Chrastava"/>
    <path d="M299.701118,241.673263L281.173820,252.375638L283.429469,275.843687L295.735610,309.251086L295.901370,309.706424L296.055653,309.685438L303.025017,303.679757L310.790344,305.802886L307.992220,309.706818L322.407867,321.336034L320.703405,327.834861L328.820032,328.335961L327.324432,333.950576L314.684283,337.634255L316.726338,341.916361L306.435554,357.098371L311.635814,359.828586L327.572632,363.008010L329.274493,359.046006L338.583054,361.734213L343.600587,357.988474L346.168917,346.146612L354.046673,328.480999L354.377685,323.167558L360.663395,319.225820L364.672507,324.837710L371.550038,324.582379L376.577710,327.933737L377.151639,327.939063L377.209018,327.722687L385.001932,316.165592L392.895742,321.232952L402.130354,316.776530L403.398437,306.167408L397.449411,300.010569L396.978250,299.213510L396.702422,298.963334L392.000886,298.842552L389.830796,297.545729L382.214059,298.153190L382.195174,298.165173L381.869117,298.372081L369.128750,303.211386L368.236888,290.914082L355.106385,283.586167L358.921151,280.813084L358.150229,272.827906L364.140356,264.782138L362.286165,256.429814L354.319249,244.379092L354.310670,244.366675L354.190030,244.209218L350.059173,239.929908L343.689998,244.381350L333.860771,245.229882L328.356091,238.781197L320.461783,237.863033L316.757016,232.682522L300.162436,241.374768L299.701118,241.673263Z " data-code="soopu-Jablonne_v_Podjestedi" data-name="Jablonné v Podještědí"/>
    <path d="M500.474239,346.219689L500.507391,346.516459L504.988445,355.214105L514.158869,359.334487L519.496282,371.138048L537.515193,381.044448L540.204985,386.003550L536.578171,398.689240L545.315725,404.530906L554.772005,402.547719L555.348551,402.202774L555.351253,402.128868L557.721994,399.382090L563.333636,401.542903L572.393526,401.556703L572.681542,402.078312L572.908640,402.465411L592.314587,402.837556L595.823916,408.665789L595.831229,408.697453L595.984193,408.324058L595.588540,392.082172L599.182035,380.785847L596.694948,378.953633L605.341808,369.951002L609.576651,370.109220L612.090751,361.546312L595.422672,348.451111L603.245644,339.275186L609.114485,334.833856L612.302594,336.274595L610.508542,325.119392L620.277230,302.175966L624.742639,304.896068L627.780165,299.164495L613.581257,280.599830L604.588882,281.602712L602.892424,274.309988L609.283244,260.842533L609.319248,260.657682L609.217794,260.620982L574.774046,259.770995L565.475928,256.936552L552.308305,244.899694L546.302680,241.943828L529.756705,248.164275L522.589364,261.204552L515.861741,263.851011L512.330848,268.732766L505.384429,264.605674L493.463197,270.801514L492.929078,276.711367L485.963186,273.123042L481.998142,278.134152L491.953630,282.126159L478.134205,293.574525L490.473940,308.178281L493.784942,321.809963L500.634873,329.665819L497.899447,333.787963L500.413691,345.676542L500.474239,346.219689Z " data-code="soopu-Liberec" data-name="Liberec"/>
    <path d="M174.572505,268.326698L174.621368,268.829546L179.575382,274.776889L184.037172,292.898130L183.865182,298.229034L196.017714,290.952241L205.652189,295.438701L207.240104,303.355147L216.359490,324.387970L214.563737,333.752143L218.667650,336.744401L216.696024,342.906661L217.927185,348.969583L211.840416,350.088518L212.279369,358.263821L218.889306,365.793269L218.919891,365.797051L218.921990,365.304192L225.688380,359.738882L224.068821,357.283684L239.808045,359.858372L260.856663,352.481475L261.014017,352.903524L261.345099,351.686740L266.690587,339.463669L277.163337,334.676643L280.089335,326.126899L287.306965,324.225258L295.719898,309.903574L295.901370,309.706424L295.735610,309.251086L283.429469,275.843687L281.173820,252.375638L299.701118,241.673263L299.778696,241.246367L295.350670,239.845924L297.988018,229.162178L289.354116,218.931000L274.736572,222.073489L253.946927,207.901150L245.128348,209.050859L224.473945,198.691886L218.728108,199.718134L211.896192,214.571985L199.037505,222.002276L186.079806,220.243527L182.335217,232.243352L179.102501,234.983105L173.648656,251.178006L176.641667,260.038834L174.510856,268.144577L174.572505,268.326698Z " data-code="soopu-Cvikov" data-name="Cvikov"/>
    <path d="M87.425927,303.112036L92.362372,313.848530L96.330941,315.512665L92.805890,324.789916L93.833213,329.046221L102.813621,333.888105L107.219184,339.494364L100.760329,349.893583L108.023273,352.166728L120.589902,348.096835L131.155761,355.013397L146.239237,357.050890L150.593731,360.024115L157.041389,355.405551L162.645760,358.992340L163.137877,374.241636L170.345446,372.794775L179.392100,374.298749L183.908673,377.907074L193.001225,378.241474L199.703455,381.109766L218.876920,366.087994L218.919891,365.797051L218.889306,365.793269L212.279369,358.263821L211.840416,350.088518L217.927185,348.969583L216.696024,342.906661L218.667650,336.744401L214.563737,333.752143L216.359490,324.387970L207.240104,303.355147L205.652189,295.438701L196.017714,290.952241L183.865182,298.229034L184.037172,292.898130L179.575382,274.776889L174.621368,268.829546L174.572505,268.326698L174.324308,268.331622L160.143558,271.146327L159.192728,275.066086L144.277324,269.057883L141.166184,269.786807L124.498773,254.551462L114.416742,254.977336L115.227141,248.704887L102.406204,250.064106L96.456815,256.445484L88.472400,250.645776L83.557941,253.828208L87.748731,255.089972L90.646713,261.491435L89.215450,272.405768L93.817825,276.008356L87.510177,286.837161L94.447588,291.956195L87.852262,302.614962L87.425927,303.112036Z " data-code="soopu-Novy_Bor" data-name="Nový Bor"/>
    <path d="M851.910587,505.429702L851.808554,505.612083L846.651960,508.386363L843.483986,516.675754L837.207811,522.196322L825.745455,521.211891L823.061973,528.045462L806.748717,514.009490L797.924189,539.612727L788.575851,542.243097L780.774294,552.724764L765.983911,547.598148L764.196477,551.220123L758.707197,547.670474L758.150138,547.142662L757.992574,547.380657L757.055536,559.918200L739.432417,564.677976L739.400287,576.370814L746.406718,577.703377L747.026651,593.697988L763.929932,604.308956L770.330562,616.651816L770.567132,616.782401L777.976132,621.071677L783.506158,630.927788L793.894065,633.755889L801.010630,641.789955L803.615365,630.713293L809.454317,626.037489L812.346180,627.763220L814.841823,638.833533L810.697885,647.384133L815.574222,650.071218L818.375666,658.775568L827.618063,659.472414L829.358987,657.536790L838.029531,658.706935L839.708861,655.259228L846.913610,656.921275L844.591266,648.527825L850.380637,644.732579L855.093100,651.715285L859.475858,648.012580L866.706672,636.740605L866.647270,632.480068L858.898696,630.922589L859.108625,626.249271L855.466020,606.830599L863.325061,606.484911L876.326505,602.761760L876.871066,591.721563L877.006694,591.652287L873.727778,579.917590L867.061777,569.633423L861.213614,564.980957L867.132793,548.455467L872.978140,550.374808L875.135463,541.161786L867.212597,532.046896L861.671529,512.025217L852.027252,505.622842L851.910587,505.429702Z " data-code="soopu-Lomnice_nad_Popelkou" data-name="Lomnice nad Popelkou"/>
    <path d="M806.014046,360.722727L805.979139,361.011500L807.149014,367.717617L805.566480,388.004894L807.274976,388.528674L807.648369,410.347474L800.668297,415.136127L795.745427,413.608025L789.662313,406.890638L786.237058,407.966970L776.752884,416.377844L778.706182,418.644992L765.374935,424.608821L765.276592,424.632846L765.454238,425.196453L767.368259,430.907012L764.187430,438.136891L766.156351,450.013440L763.730513,453.443150L754.519119,455.540494L758.342580,462.944353L746.992146,472.140741L738.476607,470.085311L736.439619,479.106906L716.949390,474.110719L702.569651,479.584860L706.397654,484.590646L704.908150,490.995210L704.830625,491.143108L705.011215,491.382171L716.299547,507.365234L718.547958,523.289443L730.713857,531.487685L731.358228,535.458392L740.706520,538.453163L748.563281,538.397441L758.362387,546.742769L758.150138,547.142662L758.707197,547.670474L764.196477,551.220123L765.983911,547.598148L780.774294,552.724764L788.575851,542.243097L797.924189,539.612727L806.748717,514.009490L823.061973,528.045462L825.745455,521.211891L837.207811,522.196322L843.483986,516.675754L846.651960,508.386363L851.808554,505.612083L851.910587,505.429702L851.835716,505.195389L848.724758,498.598943L857.725768,481.145725L859.492727,479.920853L857.078698,461.250890L852.544442,460.272919L853.673259,442.314914L849.690676,424.823307L854.689843,420.809822L863.077469,421.902435L863.056269,421.886561L862.971800,421.851201L863.066035,411.425672L853.287055,402.880500L846.761553,399.031880L837.526853,398.565759L838.512992,388.026467L832.165895,383.952784L833.163224,377.730802L831.460891,370.141690L806.210593,360.749579L806.014046,360.722727Z " data-code="soopu-Semily" data-name="Semily"/>
    <path d="M757.481615,195.153594L753.270679,204.210933L734.349704,225.433389L729.572438,227.195177L738.449598,243.160683L739.065963,256.026282L703.378896,238.585454L700.117770,235.269241L693.691187,235.697996L693.563002,235.752086L693.904268,236.477931L696.761244,256.571858L699.585907,259.930559L704.281898,275.580649L705.753998,287.739307L714.176462,297.037340L716.890967,307.694154L703.493095,303.575079L700.000875,306.472718L698.048323,316.216820L699.895973,326.556389L697.969730,341.839252L687.822657,349.890632L695.391277,371.307858L691.555176,377.759192L695.439468,379.759580L695.918097,379.812460L695.973787,379.514097L708.063519,376.565296L728.226060,376.163286L728.214483,378.974215L736.732451,382.044088L742.971123,379.633682L762.971643,399.489854L765.618795,405.890138L759.098899,415.212559L765.219293,424.240485L765.276592,424.632846L765.374935,424.608821L778.706182,418.644992L776.752884,416.377844L786.237058,407.966970L789.662313,406.890638L795.745427,413.608025L800.668297,415.136127L807.648369,410.347474L807.274976,388.528674L805.566480,388.004894L807.149014,367.717617L805.979139,361.011500L806.014046,360.722727L805.951523,360.465848L805.534027,345.131590L800.627833,338.662869L803.343469,334.138087L799.257203,326.419305L804.831884,319.303242L805.067629,319.326093L805.199764,319.424464L820.596134,315.114289L831.623652,322.386525L844.526927,321.902738L844.548769,321.916836L845.934708,322.811487L860.823986,330.552237L865.665128,327.680970L887.390965,330.171227L899.695016,321.041655L897.395245,320.037112L905.028688,293.407113L900.953173,281.238080L899.476398,281.619197L896.335209,282.053899L884.260712,275.874230L880.655708,271.724827L863.158336,262.877481L862.592953,259.169149L853.707588,256.836498L843.392338,260.236870L834.609277,277.551025L825.340106,291.245644L817.874889,297.672672L805.071152,295.596429L800.880759,291.155693L802.207270,284.361203L798.695487,266.930177L803.398605,255.368446L800.768743,251.016999L804.175727,242.614258L795.840375,220.046674L791.089177,210.423764L757.535102,195.268315L757.481615,195.153594Z " data-code="soopu-Tanvald" data-name="Tanvald"/>
    <path d="M669.265311,413.861095L669.196328,414.044153L664.224926,417.488954L657.650278,417.126653L650.920490,442.469003L646.674408,439.559493L632.430149,438.144945L629.989700,434.491522L619.264189,433.666382L608.068230,435.581788L602.509180,432.207220L601.982275,431.855422L601.082192,431.520864L604.832581,441.853933L600.848275,447.653866L603.184896,449.888584L588.964967,456.779828L568.724887,446.911988L568.619394,446.880028L568.301244,446.776379L565.019211,456.980316L549.781636,468.011973L549.368206,476.713786L543.596113,476.417555L541.453230,480.831169L533.381707,477.766394L529.551448,483.616423L525.298407,479.812463L498.527367,489.436896L500.649792,495.771742L492.193873,495.717007L498.361425,503.088258L492.278743,501.106879L494.198005,509.271763L494.294382,509.256429L498.807968,506.047562L503.714584,512.337010L514.838326,511.076366L517.927117,508.937186L528.177134,530.422130L536.847393,535.395622L546.004655,551.123823L545.129381,555.648821L553.334905,553.649282L563.757766,548.889395L572.832156,562.084372L587.551493,568.942306L587.077287,576.096205L590.390080,593.707176L604.644208,595.688990L606.560658,599.556912L611.597268,597.578888L622.425977,601.953743L647.120274,621.341234L654.419482,623.173086L663.271462,630.485307L687.475978,641.779234L700.430512,640.545706L704.736029,628.064051L719.209858,609.181822L728.078009,609.959049L733.956308,606.311145L749.324206,613.606876L757.232769,621.841270L763.006736,616.741523L765.438709,620.640911L770.288472,616.795655L770.330562,616.651816L763.929932,604.308956L747.026651,593.697988L746.406718,577.703377L739.400287,576.370814L739.432417,564.677976L757.055536,559.918200L757.992574,547.380657L758.150138,547.142662L758.362387,546.742769L748.563281,538.397441L740.706520,538.453163L731.358228,535.458392L730.713857,531.487685L718.547958,523.289443L716.299547,507.365234L705.011215,491.382171L704.830625,491.143108L704.620865,491.190199L702.503864,491.298195L697.830561,491.538608L696.468840,490.655271L696.323901,490.445399L696.209052,490.558888L692.076147,496.829656L685.113445,480.494175L677.383110,485.026397L674.660024,497.402899L666.293035,499.138238L668.525125,490.926989L655.723298,485.945598L674.220668,465.163295L672.385437,460.750792L676.255650,459.115925L676.316276,458.849636L675.866986,458.779063L679.566417,448.113005L679.187560,443.637170L670.480022,428.982256L669.373721,414.198869L669.265311,413.861095Z " data-code="soopu-Turnov" data-name="Turnov"/>
    <path d="M695.918097,379.812460L695.802709,380.123153L678.867481,382.822415L669.587407,386.388219L677.882852,394.443010L677.683668,402.023891L669.481317,413.589980L669.265311,413.861095L669.373721,414.198869L670.480022,428.982256L679.187560,443.637170L679.566417,448.113005L675.866986,458.779063L676.316276,458.849637L676.255650,459.115925L672.385437,460.750792L674.220668,465.163295L655.723298,485.945598L668.525125,490.926989L666.293035,499.138238L674.660024,497.402899L677.383110,485.026397L685.113445,480.494175L692.076147,496.829656L696.209052,490.558888L696.323901,490.445398L696.468840,490.655271L697.830561,491.538608L702.503864,491.298195L704.620865,491.190199L704.830625,491.143108L704.908150,490.995210L706.397654,484.590646L702.569651,479.584860L716.949390,474.110719L736.439619,479.106906L738.476607,470.085311L746.992146,472.140741L758.342580,462.944353L754.519119,455.540494L763.730513,453.443150L766.156351,450.013440L764.187430,438.136891L767.368259,430.907012L765.454238,425.196453L765.276592,424.632846L765.219293,424.240485L759.098899,415.212559L765.618795,405.890138L762.971643,399.489854L742.971123,379.633682L736.732451,382.044088L728.214483,378.974215L728.226060,376.163286L708.063519,376.565296L695.973787,379.514097L695.918097,379.812460Z " data-code="soopu-Zelezny_Brod" data-name="Železný Brod"/>
  </g>
</svg>
