<?xml version="1.0" encoding="utf-8"?>
<!DOCTYPE svg PUBLIC "-//W3C//DTD SVG 1.1//EN" "http://www.w3.org/Graphics/SVG/1.1/DTD/svg11.dtd">
<svg xmlns="http://www.w3.org/2000/svg" xmlns:xlink="http://www.w3.org/1999/xlink" enable_background="new 0 0 1000 850" height="850px" pretty_print="False" style="stroke-linejoin: round; stroke:#000; fill: none;" version="1.1" viewBox="0 0 1000 850" width="1000px">
  <defs>
    <style type="text/css"><![CDATA[path { fill-rule: evenodd; }]]></style>
  </defs>
  <metadata>
    <views>
      <view h="850.041132582" padding="0" w="1000">
        <proj id="laea" lat0="49.8477744422" lon0="17.8609331153"/>
        <bbox h="11.56" w="13.61" x="994.21" y="994.23"/>
      </view>
    </views>
  </metadata>
  <g class="" id="bg">
    <path d="M-10000.0,-10000.0L-10000.0,10000.0L10000.0,10000.0L10000.0,-10000.0Z "/>
    <path d="M517.357133,245.434665L507.681370,243.028325L510.306046,263.522550L513.375688,264.826917L518.003298,263.366467L522.994976,263.495981L527.098949,269.758069L528.142739,278.788414L525.204103,282.773412L506.263035,288.475694L482.917369,289.214767L472.329959,291.988762L455.190160,307.354868L434.001849,313.822861L412.810414,309.328919L375.108197,271.673027L368.563871,262.585417L364.008794,251.767997L360.778876,240.577668L356.827706,230.556019L350.411224,222.823128L344.953995,217.337563L343.161625,212.139201L345.032850,207.181691L350.446177,202.557959L350.687516,201.903147L350.808825,201.201327L350.690171,200.358689L350.451506,199.469042L342.288208,197.722550L326.513967,189.826838L318.894539,187.749568L312.707438,189.184844L307.776888,192.026717L301.890075,193.086852L292.836645,188.941630L264.753278,153.043341L263.578218,146.439879L267.869625,137.329233L274.236928,134.122509L302.240497,133.134479L317.724490,127.091366L342.451699,112.309443L354.214373,102.127530L359.687364,88.423245L350.672167,71.653627L344.576618,65.558470L343.276962,56.429688L344.429645,48.147951L350.742048,31.217070L352.062843,28.364424L352.486109,25.650641L352.191195,23.216457L350.759442,21.154741L340.143197,6.720230L336.921217,3.671658L327.126010,0.000000L323.354586,2.424961L321.845364,8.599203L318.598708,15.985989L301.369246,39.762194L291.412619,47.876078L277.996760,51.342674L226.274463,41.962686L198.679361,44.354419L181.569891,64.948236L178.565286,66.943744L175.508379,67.581470L172.399457,66.861404L169.477709,64.878548L164.191957,47.998076L151.630937,37.670752L160.433849,91.217537L159.834916,95.432754L158.175765,100.119059L155.662793,104.800006L152.451610,108.998817L148.749019,112.239048L144.711142,114.043969L140.532594,113.937151L132.527389,108.799316L129.001673,108.317675L125.782467,109.579156L122.795680,112.195257L109.313015,131.751001L62.084760,157.670575L54.330429,166.550491L51.438318,172.028293L49.508334,178.310273L48.150813,192.089818L46.691240,196.982703L40.708512,206.542359L39.351887,209.764246L38.919588,213.859998L45.288322,240.642972L45.455063,244.962921L44.703806,249.026097L42.765099,252.919645L7.672253,301.315256L5.375959,305.880419L3.818445,310.771025L3.129375,315.839149L3.361985,320.906235L4.569249,325.823513L6.880961,330.442885L23.046618,346.595242L24.380835,349.174740L24.611926,351.913251L23.546137,354.958269L6.590709,376.759928L4.817080,381.230605L3.652453,386.333978L0.588900,419.260613L1.063261,423.275292L2.454244,426.741598L5.031805,429.632182L12.596817,433.156992L37.826066,436.730912L40.352510,438.464678L41.691893,440.904347L43.229175,450.112015L44.462215,453.028287L46.829592,455.476717L96.642861,481.361606L100.753551,481.521588L117.263624,472.615790L121.379006,471.987805L125.479028,473.588193L170.159353,522.577386L178.751869,526.964791L208.417143,528.753254L222.075003,518.231679L225.232257,516.793471L228.626134,517.027721L249.966452,531.575707L264.935456,532.807071L286.183405,525.834924L303.048634,533.984509L316.604450,545.721439L319.206690,549.837175L320.149544,553.789611L316.755306,583.661328L317.281636,589.602799L319.008697,594.502429L322.246941,597.942905L326.276545,599.195923L330.117576,598.388507L340.849699,591.485224L344.226660,590.357284L347.548568,591.129439L350.840248,594.607700L368.723655,632.364812L372.612481,636.469046L391.096256,645.133866L406.773112,658.784723L413.079396,666.836477L415.258932,671.672726L417.876870,681.702838L418.972351,693.165393L435.718815,697.463038L443.223164,703.351030L452.036580,713.535366L477.948315,713.939949L480.300936,715.330081L482.357980,717.795069L484.003657,721.623658L486.460856,732.824010L488.780439,737.328082L492.042215,740.626672L496.168671,742.779395L501.120887,743.815926L592.819947,734.469058L598.346917,736.716362L616.119533,749.259850L620.107609,750.715056L664.794672,749.778997L674.925715,753.593521L677.892082,756.850263L690.306574,783.105701L694.292493,787.559208L704.450789,793.924067L708.126843,798.119593L710.722094,803.207372L712.519752,808.976801L717.376034,834.845374L719.536372,840.293726L722.411756,844.095403L725.693141,846.550867L729.071194,847.930805L735.582744,848.041133L735.879455,837.055594L753.089333,840.816181L766.244646,832.011446L791.089557,801.016438L810.357754,790.415666L815.183118,785.412181L818.094542,777.429762L819.404958,760.568709L822.379316,753.100256L834.409785,745.314610L860.469475,748.856676L877.160896,739.796197L881.225324,738.911935L885.307097,739.712085L904.683634,749.241407L921.767885,754.294854L938.237166,753.170577L962.108815,730.607371L973.057797,726.260335L997.115639,725.299939L999.411100,710.151675L997.467749,691.454363L988.534285,652.954178L985.821318,644.797682L978.707398,629.067154L975.869894,620.396786L971.542547,589.277839L969.031864,582.241233L960.168761,575.797106L951.042145,577.498594L941.942849,581.584946L933.409873,582.386463L925.969023,578.025299L914.309354,564.536189L906.611242,558.349271L898.229122,555.912807L880.171783,554.512081L872.306741,549.116643L868.545977,542.368065L862.413284,516.078512L848.348437,487.759199L837.934549,460.337439L837.464417,436.050397L853.341509,417.223092L837.752899,408.994752L835.114829,397.926902L836.431883,384.013651L832.660594,367.620622L823.992661,362.458454L801.155227,377.404022L787.589451,377.565312L744.062533,353.894091L721.470040,346.002875L697.990300,349.057489L699.255655,349.049576L700.283232,349.557955L701.073057,350.582645L701.745660,352.122896L685.500369,366.497512L677.070991,368.231765L665.444713,358.796204L662.156970,352.682983L658.044706,338.664264L655.548670,333.716405L648.595428,328.604209L634.910202,325.817066L628.030422,322.760575L609.596625,306.976236L600.727885,302.098525L563.507784,295.165095L555.898642,286.389722L559.637756,269.670006L525.604139,247.483771L517.357133,245.434665Z "/>
  </g>
  <g class="" id="soorp">
    <path d="M462.226280,482.707854L462.215723,482.725340L464.352421,496.755240L478.956305,512.060152L483.205597,518.706037L494.012910,522.677183L500.398033,530.010659L495.573536,543.932494L489.481594,535.065431L470.506151,546.286529L480.290611,557.256593L480.242247,557.308456L480.466167,557.497129L483.984147,560.282465L485.722995,561.520741L501.875734,567.909289L501.899265,567.851605L502.260495,568.182340L515.506503,576.592177L529.082390,565.843957L535.196530,564.305440L552.869373,569.299524L552.957782,569.425785L553.162389,569.354205L561.498399,564.394124L570.073582,562.988052L578.055808,550.480764L573.438830,541.532786L584.163118,536.202412L586.832350,530.845140L586.860831,530.825684L586.932093,530.934704L587.605959,530.899279L589.010871,529.505428L590.416865,529.918103L590.478674,529.808009L590.646345,529.718634L594.457539,525.181536L600.194699,523.311075L604.775119,515.917676L611.384218,510.494653L606.515582,501.823362L601.217636,502.934659L597.764314,496.929597L585.495611,498.809242L577.063803,497.471961L566.092096,485.165987L557.329356,489.216379L550.019331,490.037275L546.435153,466.043355L541.726163,456.393787L534.170031,449.307164L534.208177,449.282816L534.099771,448.927217L533.053451,445.778276L516.430039,444.887327L505.650387,442.731811L493.671883,450.368623L488.235282,450.658022L484.787895,455.164334L485.714813,464.912387L478.201451,476.756816L470.339377,477.803071L462.282159,482.677630L462.226280,482.707854Z " data-code="soorp-Bilovec" data-name="Bílovec"/>
    <path d="M695.000120,360.242712L695.121227,360.341266L694.524323,361.503637L694.514951,361.521586L694.075183,362.160862L693.914069,362.753010L696.961153,369.011927L687.952781,396.135173L704.368255,390.782831L709.373790,399.566663L711.357688,407.544106L709.357509,422.263749L721.310734,427.100314L721.375011,427.219452L721.483571,427.166079L741.693250,422.897997L740.542335,414.540861L743.873769,399.646984L743.880713,399.544296L743.860307,399.293738L737.601129,388.242642L755.900163,385.497339L763.512764,388.455022L763.581934,388.475829L763.689373,388.180434L768.654509,372.661159L773.674373,369.240608L779.198769,358.578936L779.181433,358.539968L776.466918,353.440105L762.479600,348.496063L758.275213,339.621852L739.212403,343.305060L717.199187,337.610653L715.170870,334.720088L702.323271,334.365737L702.101797,337.278131L709.417911,338.187168L711.994542,342.085825L699.734411,347.303449L695.025274,360.221681L695.000120,360.242712Z " data-code="soorp-Bohumin" data-name="Bohumín"/>
    <path d="M84.622732,138.921524L76.791268,149.877822L65.498439,154.709298L71.098951,173.814032L67.951875,179.420492L54.123088,190.669472L60.492092,206.280641L60.612248,206.532203L69.761599,197.817191L83.897939,191.966465L86.707078,201.080118L89.757430,198.532276L91.150299,205.147124L102.028949,211.289967L100.159799,216.429476L100.179582,216.424640L100.181772,216.473828L109.805139,241.835638L116.166362,244.908397L110.805394,249.995838L117.128896,252.660836L116.833154,265.976542L114.359554,272.442725L116.255662,279.845791L108.578123,285.396397L112.252899,295.428719L130.009591,315.907574L129.686118,325.814514L141.748404,331.621731L150.833269,334.335304L155.288151,355.588891L158.240646,357.606633L172.472698,357.772525L169.613040,370.317090L160.883047,372.994042L157.330510,379.257437L151.342903,404.533152L157.607272,410.351460L145.370513,422.217750L145.353218,422.233807L131.843691,450.161720L141.909750,466.514844L149.189520,473.124913L153.414707,454.618787L157.223562,455.654311L165.550694,451.752843L161.821061,446.800252L175.172528,441.484223L176.295233,433.623089L179.078459,443.848129L188.798882,432.558781L192.544716,433.739881L194.195395,427.592625L189.564741,423.472321L185.170103,406.402164L181.246709,404.651320L186.623082,398.143346L192.795858,400.917400L200.624891,398.587456L199.198741,410.446734L207.857464,418.259817L208.797352,431.250309L203.966402,430.453970L207.513794,443.547533L218.759096,451.002987L214.798487,459.129575L215.706103,468.241124L229.457394,474.162554L229.807973,474.235127L238.769152,469.532854L240.950987,465.763509L245.087656,457.370699L245.126445,457.365020L245.157595,457.360533L253.918068,451.939534L260.490561,433.946602L263.871701,432.512744L259.502105,427.186142L260.674403,420.063724L272.421383,414.860080L272.831238,409.973891L272.838506,409.926532L272.802659,409.856136L269.299367,405.497877L276.636171,402.984177L273.182368,396.686466L278.501702,388.772531L276.026156,385.126331L271.458921,386.540699L271.160796,378.001496L275.140183,374.856836L278.952698,365.412144L278.974079,365.413212L279.000414,365.492001L287.303362,366.779900L294.649387,358.367483L309.048246,355.626093L313.217180,347.715114L321.248545,346.300245L320.453860,341.740245L343.144626,328.835521L337.487394,333.452824L333.428734,325.353507L313.640362,320.599460L314.662733,314.552461L311.386519,311.975273L311.385699,304.057298L293.654628,306.428562L288.998918,302.605729L288.991719,302.583083L288.981790,302.551939L286.039299,297.593871L286.680935,295.351379L286.855293,295.043415L286.571770,294.884901L272.248905,287.495112L260.760956,293.710371L258.957241,299.017041L259.027342,299.323149L257.776659,298.082719L248.120300,287.604492L258.647892,277.360768L248.519620,270.807329L250.772551,259.571860L257.090589,252.206702L240.379712,245.509274L235.145831,247.347860L228.242136,239.542413L228.011777,239.191129L228.004841,239.182115L224.318896,228.354791L230.036987,225.479839L229.642635,216.228505L229.607555,216.194267L229.451655,216.117285L216.590331,210.769763L214.858071,207.839417L201.455945,206.068686L202.459926,190.396226L215.989193,187.706939L206.659802,181.527661L205.674295,178.042174L213.175632,171.605001L213.476929,171.491245L213.472438,171.470561L203.704818,170.606650L192.570477,165.745044L184.474947,158.325551L161.856636,156.007602L153.800711,150.438777L152.859143,136.590669L145.542698,135.368959L139.075633,137.396088L127.114037,136.360070L116.859279,146.493706L106.443608,139.060784L95.759688,146.500858L84.904616,138.495577L84.622732,138.921524Z " data-code="soorp-Bruntal" data-name="Bruntál"/>
    <path d="M857.276969,471.411017L854.815445,479.029516L849.770067,475.337081L844.297461,479.885497L836.007699,482.095825L835.758499,482.129799L835.584047,482.265352L829.591211,492.298055L824.232388,493.923124L816.512824,502.202128L820.159836,503.378912L827.038314,514.810184L824.731795,531.207735L824.661523,531.375117L824.683110,531.902233L828.915964,538.773325L827.818918,540.385827L831.644463,549.967928L831.661019,549.954551L831.779085,549.845346L835.187529,545.634843L841.080904,544.762355L848.818911,549.097550L858.398197,560.599826L847.281570,574.778463L854.122652,581.656683L859.646963,571.754160L869.810528,566.536567L872.866722,563.090139L874.996175,546.118379L877.920348,537.455175L877.672695,537.278272L873.823350,534.068711L873.817802,508.670847L866.201700,503.021014L864.801757,490.711845L856.835709,477.788118L857.293372,471.437970L857.276969,471.411017Z " data-code="soorp-Cesky_Tesin" data-name="Český Těšín"/>
    <path d="M638.093958,648.622563L638.026633,648.600602L617.937569,662.447319L591.923471,665.708454L590.800324,681.811088L591.743121,685.827779L580.549241,689.889295L577.304722,693.000569L562.720824,691.241920L562.014506,691.668789L562.039440,691.699872L563.461003,696.742835L560.690885,705.427813L565.243786,718.035170L565.089173,722.108994L565.899800,722.153610L577.724093,719.762050L584.358006,722.692859L588.540202,728.902678L605.369895,722.778860L611.176282,732.452903L620.851593,743.147765L628.963156,746.041055L635.182989,743.728721L643.374195,748.286272L655.502524,752.588384L671.205802,743.178160L678.891123,744.440241L679.690038,744.630096L675.804162,724.802105L680.435712,719.113828L687.931453,718.376978L692.445495,707.823815L687.492982,702.850011L685.942321,695.835939L689.002843,695.832840L686.479651,686.389376L686.156290,685.946565L685.882064,686.098059L679.260539,677.684280L671.069776,677.423365L665.647012,673.857314L653.492709,671.226317L638.078521,648.643769L638.093958,648.622563Z " data-code="soorp-Frenstat_pod_Radhostem" data-name="Frenštát pod Radhoštěm"/>
    <path d="M682.194152,509.774062L682.033089,509.639829L665.335226,516.384754L663.951557,523.635896L665.547770,528.295697L654.977927,530.557212L652.826700,525.153075L637.132685,518.645638L631.466933,520.678056L642.388198,540.968233L637.292989,543.107854L623.728418,557.858743L623.704470,558.263369L623.851128,558.363926L623.458292,582.624494L621.362220,590.581392L615.657389,601.230885L616.336739,606.947589L620.991930,606.598591L621.616016,623.453531L621.579238,623.482173L621.630744,623.527419L630.821176,636.585104L629.724172,644.067130L638.241866,648.297582L638.093958,648.622563L638.078521,648.643769L653.492709,671.226317L665.647012,673.857314L671.069776,677.423365L679.260539,677.684280L685.882064,686.098059L686.156290,685.946565L686.304221,685.880335L694.829005,647.565312L688.425426,639.486862L688.194089,626.579857L706.377684,621.558111L714.144181,627.742117L731.871292,626.346626L737.687374,615.322525L749.982668,615.107934L759.987078,617.887892L766.434942,637.752064L756.131614,643.361186L752.698593,649.672071L763.605692,664.367842L762.342857,667.324488L766.051140,679.431082L774.581379,697.255257L789.968811,704.192340L791.730702,707.039641L792.919179,720.263265L795.176279,726.109476L808.535641,722.614835L819.212662,722.918990L822.433437,730.882352L828.850692,735.983581L829.112976,735.475038L845.128689,728.251759L847.316213,729.811433L858.739005,726.439775L859.323299,726.378740L866.701118,712.744937L865.950722,709.961908L872.349052,693.191126L871.231832,687.629188L877.385855,676.954483L877.777005,676.419490L877.955134,675.728859L876.820095,666.047208L864.473617,652.100473L845.263016,645.364963L840.958204,636.254970L835.097067,630.658153L812.831694,625.242127L804.816950,619.842542L796.169971,602.852309L801.531094,597.051651L806.365853,595.467471L815.616951,567.889488L818.964274,566.069055L825.275865,555.527485L831.602689,555.886656L831.668503,549.990992L831.661019,549.954551L831.644463,549.967928L827.818918,540.385827L828.915964,538.773325L824.683110,531.902233L824.661523,531.375117L824.609475,531.372203L809.503748,535.426468L805.437472,538.754198L787.420867,521.577055L785.374932,518.135086L771.942719,515.695761L771.789528,515.692602L771.759955,515.691992L748.214499,523.397947L743.965793,522.431054L741.151218,503.244163L741.094191,503.318983L741.084728,503.330563L738.778393,505.438477L735.562513,513.025130L717.184566,518.296455L717.165618,518.294349L717.146751,518.292235L711.594304,516.283848L710.299606,504.110008L706.787291,502.214880L705.003684,515.336898L699.112908,515.814604L682.362484,509.918259L682.194152,509.774062Z " data-code="soorp-Frydek-Mistek" data-name="Frýdek-Místek"/>
    <path d="M686.156290,685.946565L686.479651,686.389376L689.002843,695.832840L685.942321,695.835939L687.492982,702.850011L692.445495,707.823815L687.931453,718.376978L680.435712,719.113828L675.804162,724.802105L679.690038,744.630096L679.851950,744.678717L685.681766,746.674964L689.035949,768.997207L694.862102,774.319330L698.325535,781.717794L715.339317,786.311445L727.171447,804.858337L724.224582,820.812470L737.185944,827.170738L750.599264,827.942827L756.795458,830.470911L773.582187,832.792513L774.638795,826.675975L789.810380,816.277954L788.972078,811.734659L793.961136,803.326071L799.134976,801.570742L797.039206,796.610122L803.241482,794.301985L812.329110,782.927980L815.866590,782.289905L817.518048,775.165289L830.677147,765.032995L823.085180,751.228739L828.718291,736.461401L828.850692,735.983581L822.433437,730.882352L819.212662,722.918990L808.535641,722.614835L795.176279,726.109476L792.919179,720.263265L791.730702,707.039641L789.968811,704.192340L774.581379,697.255257L766.051140,679.431082L762.342857,667.324488L763.605692,664.367842L752.698593,649.672071L756.131614,643.361186L766.434942,637.752064L759.987078,617.887892L749.982668,615.107934L737.687374,615.322525L731.871292,626.346626L714.144181,627.742117L706.377684,621.558111L688.194089,626.579857L688.425426,639.486862L694.829005,647.565312L686.304221,685.880335L686.156290,685.946565Z " data-code="soorp-Frydlant_nad_Ostravici" data-name="Frýdlant nad Ostravicí"/>
    <path d="M747.276918,453.858392L747.172578,453.858799L746.363488,453.988418L742.484804,454.502487L741.235799,455.653398L741.135598,455.802009L741.150975,455.863320L738.356102,466.292272L741.661127,473.568476L750.998566,480.541384L746.864728,489.452319L741.660932,488.415743L741.062986,503.300500L741.094191,503.318983L741.151218,503.244163L743.965793,522.431054L748.214499,523.397947L771.759955,515.691992L771.789529,515.692602L771.942719,515.695761L785.374932,518.135086L787.420867,521.577055L805.437472,538.754198L809.503748,535.426468L824.609475,531.372203L824.661523,531.375117L824.731795,531.207735L827.038314,514.810184L820.159836,503.378912L816.512824,502.202128L824.232388,493.923124L829.591211,492.298055L835.584047,482.265352L835.758499,482.129799L835.685995,481.853507L834.561611,470.775640L831.798087,466.690438L822.245076,463.808926L814.850884,464.891580L803.829179,470.156868L799.103183,454.908121L793.338521,448.873770L779.219498,450.428938L772.212093,448.499225L771.962315,448.168373L771.708574,448.192782L760.017711,448.424414L754.004135,452.015933L747.798934,453.868757L747.276918,453.858392Z " data-code="soorp-Havirov" data-name="Havířov"/>
    <path d="M596.906101,300.554240L579.307932,303.303652L575.782136,313.171208L576.121873,322.420202L571.385573,328.018462L567.130329,327.737994L562.696011,343.082635L547.233787,346.500304L544.993940,353.096699L546.442170,368.499346L546.424143,368.546708L546.510010,368.584305L553.365981,371.430768L564.367960,367.244347L565.965415,370.114844L592.256752,377.285930L589.166555,383.716518L582.103717,384.505743L576.555305,391.093486L576.551711,391.111314L576.534803,391.128891L580.867425,397.526007L590.544127,406.841875L592.130332,400.249250L603.684158,411.702422L605.208795,409.753074L616.985762,407.770476L621.152940,411.643049L621.057721,411.756035L621.300784,411.984803L630.692021,404.700910L634.590663,404.190292L640.688132,408.666203L646.647584,406.117418L659.688037,390.041624L668.098726,392.578511L672.795461,386.553222L679.262583,384.347863L683.191266,376.959296L683.216348,376.871432L683.240523,376.786742L686.552842,370.954699L690.057118,369.604996L693.950267,362.342475L694.075183,362.160862L694.514951,361.521586L694.524323,361.503637L695.121227,360.341266L695.000120,360.242712L694.816929,360.093755L692.878123,360.448166L681.777274,348.690842L676.219833,348.165642L671.071546,338.968635L670.761346,324.167989L668.310603,316.241160L632.359248,307.684858L630.636987,294.996933L627.560050,286.380129L619.786035,289.417778L617.953741,285.597222L608.062434,284.236308L605.711705,296.782252L596.892722,300.511229L596.906101,300.554240Z " data-code="soorp-Hlucin" data-name="Hlučín"/>
    <path d="M991.015865,638.546374L979.338310,636.107371L971.677562,631.316625L967.292545,621.491493L954.995434,624.756274L946.058243,623.954812L933.748795,624.908403L928.617025,629.965823L915.371140,649.188146L915.368132,649.204074L915.357119,649.262381L914.164562,658.783406L903.232076,668.921754L898.567834,679.284305L878.140468,676.631252L877.777005,676.419490L877.385855,676.954483L871.231832,687.629188L872.349052,693.191126L865.950722,709.961908L866.701118,712.744937L859.323299,726.378740L859.905324,727.060672L863.118047,738.256443L871.513453,740.004513L882.280554,737.458661L885.920567,734.669456L910.895001,730.669239L911.473964,732.919076L926.427247,732.804986L941.099865,743.667213L949.174221,743.563869L959.142292,738.374408L966.366708,729.950377L976.187345,726.247099L999.655214,720.120206L999.804762,676.872760L998.536297,647.869924L991.032877,638.580878L991.015865,638.546374Z " data-code="soorp-Jablunkov" data-name="Jablunkov"/>
    <path d="M779.198769,358.578936L773.674373,369.240608L768.654509,372.661159L763.689373,388.180434L763.581934,388.475829L763.612876,388.485176L765.414039,397.728671L781.701694,401.642794L793.930385,399.315551L799.034886,409.932114L794.942635,420.296550L787.123016,416.775246L784.348696,419.415324L770.320995,425.398547L775.328698,433.090468L771.947921,448.051693L771.962315,448.168373L772.212093,448.499225L779.219498,450.428938L793.338521,448.873770L799.103183,454.908121L803.829179,470.156868L814.850884,464.891580L822.245076,463.808926L831.798087,466.690438L834.561611,470.775640L835.685995,481.853507L835.758499,482.129799L836.007699,482.095825L844.297461,479.885497L849.770067,475.337081L854.815445,479.029516L857.276969,471.411017L857.229385,471.332788L854.313302,462.594576L849.912251,459.780863L848.001132,447.984277L841.289383,431.838709L849.103058,425.684283L850.793024,420.981610L860.125319,412.161014L859.209435,405.338142L847.693680,403.591697L841.008588,395.266851L840.303669,387.426590L845.800239,368.426299L841.961554,354.321794L833.816544,357.364173L823.455083,349.774885L822.684732,363.274558L825.317588,364.479902L818.608557,373.567120L801.744248,370.649464L789.484615,366.773641L779.230855,358.650896L779.198769,358.578936Z " data-code="soorp-Karvina" data-name="Karviná"/>
    <path d="M586.860831,530.825684L586.832350,530.845140L584.163118,536.202412L573.438830,541.532786L578.055808,550.480764L570.073582,562.988052L561.498399,564.394124L553.162389,569.354205L552.957782,569.425785L553.006759,569.490726L557.503438,575.878805L568.114382,577.172143L576.234894,586.547284L578.328994,593.886190L565.689806,606.494539L564.832248,609.602185L568.328957,621.688778L568.465256,622.070223L568.443954,622.082562L560.544783,624.450867L560.334246,631.807696L555.068902,637.039271L559.346381,646.901550L559.288181,646.951066L559.223245,647.006312L557.105221,651.567145L558.951700,658.376915L563.188435,661.974254L554.984759,673.582106L555.879729,687.184322L561.618058,692.054173L562.014506,691.668789L562.720824,691.241920L577.304722,693.000569L580.549241,689.889295L591.743121,685.827779L590.800324,681.811088L591.923471,665.708454L617.937569,662.447319L638.026633,648.600602L638.093958,648.622563L638.241866,648.297582L629.724172,644.067130L630.821176,636.585104L621.630744,623.527419L621.579238,623.482173L621.616016,623.453531L620.991930,606.598591L616.336739,606.947589L615.657389,601.230885L621.362220,590.581392L623.458292,582.624494L623.851128,558.363926L623.704470,558.263369L623.460249,558.505982L621.196856,559.980100L616.040945,552.458767L607.368565,545.852139L590.530209,529.887598L590.478674,529.808009L590.416865,529.918103L589.010871,529.505428L587.605959,530.899279L586.932093,530.934704L586.860831,530.825684Z " data-code="soorp-Koprivnice" data-name="Kopřivnice"/>
    <path d="M528.843734,276.960543L523.838857,278.523457L519.129172,295.453612L522.509793,311.655947L508.074730,310.102747L505.175947,316.829937L495.830961,328.943458L505.064374,337.594953L503.679937,354.496598L515.827171,353.069196L526.442587,359.205419L528.322191,362.305530L546.324852,368.510340L546.424143,368.546708L546.442170,368.499346L544.993940,353.096699L547.233787,346.500304L562.696011,343.082635L567.130329,327.737994L571.385573,328.018462L576.121873,322.420202L575.782136,313.171208L579.307932,303.303652L596.906101,300.554240L596.892480,300.512151L585.972624,288.402595L576.205386,289.796429L569.833981,285.162253L562.275923,273.273164L556.628655,254.034894L559.169040,244.710282L545.529616,241.148597L543.053845,231.112031L538.038013,231.512796L533.948048,228.051926L524.765237,226.164499L510.072123,237.387551L509.649933,249.183844L514.836174,257.392868L523.815195,249.683269L534.685846,256.504573L532.598944,280.226897L528.875350,276.790269L528.843734,276.960543Z " data-code="soorp-Kravare" data-name="Kravaře"/>
    <path d="M285.350606,42.747107L285.232802,42.838665L274.500439,39.623131L270.167879,32.187540L256.433394,37.532111L246.764923,39.802410L215.070804,35.228758L194.764084,41.593080L192.482477,48.415417L182.727541,56.148624L176.549869,53.913177L174.207603,65.016123L174.627475,74.177892L170.770193,93.777189L157.346942,94.164091L147.855224,82.901983L129.063820,111.872357L123.170835,116.583268L102.725034,121.630802L97.351488,129.752176L92.087582,126.888653L85.194334,137.972840L84.904616,138.495577L95.759688,146.500858L106.443608,139.060784L116.859279,146.493706L127.114037,136.360070L139.075633,137.396088L145.542698,135.368959L152.859143,136.590669L153.800711,150.438777L161.856636,156.007602L184.474947,158.325551L192.570477,165.745044L203.704818,170.606650L213.472438,171.470561L213.476929,171.491245L213.175632,171.605001L205.674295,178.042174L206.659802,181.527661L215.989193,187.706939L202.459926,190.396226L201.455945,206.068686L214.858071,207.839417L216.590331,210.769763L229.451655,216.117285L229.607556,216.194267L229.642635,216.228505L230.036987,225.479839L224.318896,228.354791L228.004841,239.182115L228.011777,239.191129L228.242136,239.542413L235.145831,247.347860L240.379712,245.509274L257.090589,252.206702L250.772551,259.571860L248.519620,270.807329L258.647892,277.360768L248.120300,287.604492L257.776659,298.082719L259.027342,299.323149L258.957241,299.017041L260.760956,293.710371L272.248905,287.495112L286.571770,294.884901L286.855293,295.043415L286.975409,294.921620L290.672764,293.125720L318.057639,263.731069L316.831992,260.644598L327.528884,255.414990L339.677030,253.275616L352.892461,256.438338L356.792858,252.626846L362.108528,253.351907L369.376269,248.704273L368.437739,245.504645L375.213017,246.762930L375.221721,246.742100L366.402250,226.741279L357.627503,211.106082L351.044208,205.422708L350.729097,196.793608L335.802807,181.142963L322.887006,179.227744L319.233524,191.406643L305.720760,184.940289L298.283009,166.475368L290.497289,162.574451L290.221976,162.531952L290.194804,162.529043L270.663497,139.660070L275.505154,131.351011L289.761457,131.374841L296.401679,127.061659L296.438437,126.934261L296.465643,126.949187L302.178443,124.666346L314.643132,122.916508L334.211712,117.532881L347.043094,97.675799L357.860145,101.570283L366.893947,97.717355L366.975545,79.888415L369.902800,70.118597L348.011385,51.361489L347.744253,40.192181L363.303336,13.520594L351.364143,10.325345L346.927977,0.000000L326.753277,0.000000L326.890690,11.309365L314.933643,21.056670L300.491317,34.352381L285.873284,42.340682L285.350606,42.747107Z " data-code="soorp-Krnov" data-name="Krnov"/>
    <path d="M458.670388,481.073370L458.782017,481.414289L445.673526,492.082930L440.997322,499.831239L428.964987,494.994078L425.127980,506.587539L411.708728,499.957168L395.737267,503.527128L392.714611,512.650276L392.714553,512.720365L392.806523,512.868789L394.160850,518.957128L398.568271,518.827589L410.956952,526.659068L401.682998,542.101628L401.176409,548.325263L409.184014,548.862371L414.122477,545.216013L423.621285,543.635159L430.573694,547.620265L431.730153,555.876187L428.062935,563.931520L430.178374,572.239646L439.566491,574.133536L439.725653,574.085833L439.717221,574.302994L446.750585,580.194338L444.895539,587.333317L446.576948,591.367458L441.931832,599.447498L451.790103,609.886707L464.350039,617.008746L468.269160,624.646093L463.746880,631.575136L444.059535,618.492645L436.393383,628.367262L430.285758,641.254328L412.981158,641.535031L413.077024,642.559559L422.268755,657.136974L421.073669,660.516772L428.155426,673.529010L420.921830,674.291139L415.896646,679.909997L422.612590,684.904721L424.348626,693.215187L436.806220,681.286103L448.274820,681.809834L456.694055,699.093522L460.236230,703.371709L482.480309,701.731191L493.402417,704.812937L504.672442,727.128618L510.019221,733.184856L514.532181,733.617408L552.772286,723.506612L557.290873,720.768348L564.865001,722.096663L565.089173,722.108994L565.243786,718.035170L560.690885,705.427813L563.461003,696.742835L562.039440,691.699872L562.014506,691.668789L561.618058,692.054173L555.879729,687.184322L554.984759,673.582106L563.188435,661.974254L558.951700,658.376915L557.105221,651.567145L559.223245,647.006312L559.288181,646.951065L559.346381,646.901550L555.068902,637.039271L560.334246,631.807696L560.544783,624.450867L568.443954,622.082562L568.465256,622.070223L568.328957,621.688778L564.832248,609.602185L565.689806,606.494539L578.328994,593.886190L576.234894,586.547284L568.114382,577.172143L557.503438,575.878805L553.006759,569.490726L552.957782,569.425785L552.869373,569.299524L535.196530,564.305440L529.082390,565.843957L515.506503,576.592177L502.260495,568.182340L501.899265,567.851605L501.875734,567.909289L485.722995,561.520741L483.984147,560.282465L480.466167,557.497129L480.242247,557.308456L480.290611,557.256593L470.506151,546.286529L489.481594,535.065431L495.573536,543.932494L500.398033,530.010659L494.012910,522.677183L483.205597,518.706037L478.956305,512.060152L464.352421,496.755240L462.215723,482.725340L462.226280,482.707854L462.047274,482.630784L460.380877,481.976810L459.194392,481.390003L458.670388,481.073370Z " data-code="soorp-Novy_Jicin" data-name="Nový Jičín"/>
    <path d="M330.683922,533.752072L323.418629,543.141593L321.818234,548.812838L324.688075,565.150528L323.604805,573.573619L346.483072,590.004461L350.789107,587.800796L353.966678,574.620546L374.573653,600.064507L370.740244,604.573891L378.140625,617.481220L382.217378,614.969095L386.878113,620.892824L396.751589,625.567151L402.363169,633.994689L412.914538,641.509158L412.981158,641.535031L430.285758,641.254328L436.393383,628.367262L444.059535,618.492645L463.746880,631.575136L468.269160,624.646093L464.350039,617.008746L451.790103,609.886707L441.931832,599.447498L446.576948,591.367458L444.895539,587.333317L446.750585,580.194338L439.717221,574.302994L439.725653,574.085833L439.566491,574.133536L430.178374,572.239646L428.062935,563.931520L431.730153,555.876187L430.573694,547.620265L423.621285,543.635159L414.122477,545.216013L409.184014,548.862371L401.176409,548.325263L401.682998,542.101628L410.956952,526.659068L398.568271,518.827589L394.160850,518.957128L392.806523,512.868789L392.714553,512.720365L392.467885,512.480618L383.045280,503.016736L375.340649,507.347503L374.638875,517.260996L371.017699,526.284299L357.801914,525.813493L343.823088,536.514119L341.150538,531.000972L337.310266,534.381877L330.789061,533.640383L330.683922,533.752072Z " data-code="soorp-Odry" data-name="Odry"/>
    <path d="M286.855293,295.043415L286.680935,295.351379L286.039299,297.593871L288.981790,302.551939L288.991720,302.583083L288.998918,302.605729L293.654628,306.428562L311.385699,304.057298L311.386519,311.975273L314.662733,314.552461L313.640362,320.599460L333.428734,325.353507L337.487394,333.452824L343.144626,328.835521L320.453860,341.740245L321.248545,346.300245L313.217180,347.715114L309.048246,355.626093L294.649387,358.367483L287.303362,366.779900L279.000414,365.492001L278.974079,365.413212L278.952698,365.412144L275.140183,374.856836L271.160796,378.001496L271.458921,386.540699L276.026156,385.126331L278.501702,388.772531L273.182368,396.686466L276.636171,402.984177L269.299367,405.497877L272.802659,409.856136L272.838506,409.926532L272.927676,409.872328L281.262009,412.084847L287.710650,418.371659L291.772203,425.196892L299.706078,428.669245L294.704107,438.573731L305.784402,440.150488L307.542992,437.847252L302.712597,410.577190L307.877480,404.290483L323.453808,398.409190L341.431009,405.759029L359.503218,403.338842L363.696385,407.316210L376.280074,406.496685L387.925515,418.755947L388.883520,424.485208L383.911294,423.176102L382.739166,428.333601L399.692244,445.962283L405.393836,444.430350L409.699737,437.583163L412.742511,439.814359L431.122254,433.531989L451.986506,428.002207L457.149390,437.192594L457.148948,437.211012L457.144748,437.386007L440.391915,463.528030L458.666588,480.879499L458.670388,481.073370L459.194392,481.390003L460.380877,481.976810L462.047274,482.630784L462.226280,482.707854L462.282159,482.677630L470.339377,477.803071L478.201451,476.756816L485.714813,464.912387L484.787895,455.164334L488.235282,450.658022L493.671883,450.368623L505.650387,442.731811L516.430039,444.887327L533.053451,445.778276L534.099771,448.927217L534.208177,449.282816L534.345663,449.203163L547.725818,440.832046L539.934414,426.891498L536.514713,414.452346L536.886014,410.321166L541.915326,411.970511L550.824532,400.436645L556.903891,398.303039L556.515123,383.019879L564.443762,390.090356L575.612515,391.168917L576.551711,391.111314L576.555305,391.093486L582.103717,384.505743L589.166555,383.716518L592.256752,377.285930L565.965415,370.114844L564.367960,367.244347L553.365981,371.430768L546.510010,368.584305L546.424143,368.546708L546.324852,368.510340L528.322191,362.305530L526.442587,359.205419L515.827171,353.069196L503.679937,354.496598L505.064374,337.594953L495.830961,328.943458L505.175947,316.829937L508.074730,310.102747L522.509793,311.655947L519.129172,295.453612L523.838857,278.523457L528.843734,276.960543L528.330399,275.965934L511.076457,274.435477L503.029178,271.192186L497.519601,280.213115L490.940572,276.852879L480.354723,280.429025L464.189974,300.304741L455.060462,305.974481L444.205507,303.026542L430.687791,309.804739L426.281509,302.269729L423.835203,303.054633L415.618553,296.752528L412.129606,291.712843L412.276881,281.597341L406.466101,274.589238L388.069365,271.903447L387.932136,268.813326L375.236813,260.440757L377.230322,259.037257L372.966610,250.727138L375.172840,246.859005L375.213017,246.762930L368.437739,245.504645L369.376269,248.704273L362.108528,253.351907L356.792858,252.626846L352.892461,256.438338L339.677030,253.275616L327.528884,255.414990L316.831992,260.644598L318.057639,263.731069L290.672764,293.125720L286.975409,294.921620L286.855293,295.043415Z " data-code="soorp-Opava" data-name="Opava"/>
    <path d="M743.880712,399.544296L743.873769,399.646984L740.542335,414.540861L741.693250,422.897997L721.483571,427.166079L721.375011,427.219452L721.194785,427.703061L718.778616,443.385930L719.148480,448.688171L725.649908,459.504151L734.271542,448.760636L741.014296,455.774696L741.135598,455.802009L741.235799,455.653398L742.484804,454.502487L746.363488,453.988418L747.172578,453.858799L747.276919,453.858392L747.798934,453.868757L754.004135,452.015933L760.017711,448.424414L771.708574,448.192782L771.962315,448.168373L771.947921,448.051693L775.328698,433.090468L770.320995,425.398547L784.348696,419.415324L787.123016,416.775246L794.942635,420.296550L799.034886,409.932114L793.930385,399.315551L781.701694,401.642794L765.414039,397.728671L763.612876,388.485176L763.581934,388.475829L763.512764,388.455022L755.900163,385.497339L737.601129,388.242642L743.860307,399.293738L743.880712,399.544296Z " data-code="soorp-Orlova" data-name="Orlová"/>
    <path d="M694.075183,362.160862L693.950267,362.342475L690.057118,369.604996L686.552842,370.954699L683.240523,376.786742L683.216347,376.871432L683.191266,376.959296L679.262583,384.347863L672.795461,386.553222L668.098726,392.578511L659.688037,390.041624L646.647584,406.117418L640.688132,408.666203L634.590663,404.190292L630.692021,404.700910L621.300784,411.984803L621.057720,411.756035L621.152940,411.643049L616.985762,407.770476L605.208795,409.753074L603.684158,411.702422L592.130332,400.249250L590.544127,406.841875L580.867425,397.526007L576.534803,391.128891L576.551711,391.111314L575.612515,391.168917L564.443762,390.090356L556.515123,383.019879L556.903891,398.303039L550.824532,400.436645L541.915326,411.970511L536.886014,410.321166L536.514713,414.452346L539.934414,426.891498L547.725818,440.832046L534.345663,449.203163L534.208177,449.282816L534.170031,449.307164L541.726163,456.393787L546.435153,466.043355L550.019331,490.037275L557.329356,489.216379L566.092096,485.165987L577.063803,497.471961L585.495611,498.809242L597.764314,496.929597L601.217636,502.934659L606.515582,501.823362L611.384218,510.494653L604.775119,515.917676L600.194699,523.311075L594.457539,525.181536L590.646345,529.718634L590.478674,529.808009L590.530209,529.887598L607.368565,545.852139L616.040945,552.458767L621.196856,559.980100L623.460249,558.505982L623.704470,558.263369L623.728418,557.858743L637.292989,543.107854L642.388198,540.968233L631.466933,520.678056L637.132685,518.645638L652.826700,525.153075L654.977927,530.557212L665.547770,528.295697L663.951557,523.635896L665.335226,516.384754L682.033089,509.639829L682.194152,509.774062L682.362484,509.918259L699.112908,515.814604L705.003684,515.336898L706.787291,502.214880L710.299606,504.110008L711.594304,516.283848L717.146751,518.292235L717.165618,518.294349L717.184566,518.296455L735.562513,513.025130L738.778393,505.438477L741.084728,503.330563L741.094191,503.318983L741.062986,503.300500L741.660932,488.415743L746.864728,489.452319L750.998566,480.541384L741.661127,473.568476L738.356102,466.292272L741.150975,455.863320L741.135598,455.802009L741.014296,455.774696L734.271542,448.760636L725.649908,459.504151L719.148480,448.688171L718.778616,443.385930L721.194785,427.703061L721.375011,427.219452L721.310734,427.100314L709.357509,422.263749L711.357688,407.544106L709.373790,399.566663L704.368255,390.782831L687.952781,396.135173L696.961153,369.011927L693.914069,362.753010L694.075183,362.160862Z " data-code="soorp-Ostrava" data-name="Ostrava"/>
    <path d="M60.260974,207.100825L61.503351,226.834146L52.466712,241.642275L46.636928,244.524157L34.136154,255.535887L23.004601,279.805711L26.129729,288.909974L21.447962,303.766672L40.270315,322.706727L43.116274,329.015182L35.181438,343.612843L30.599751,343.529244L19.778183,353.381220L21.597261,362.655680L25.700678,365.310293L15.834250,382.409557L10.319015,389.120837L19.246321,403.632829L22.133938,404.767074L31.574579,423.994720L37.256284,418.103425L50.626185,415.911273L45.232196,440.377519L49.121723,447.663987L59.233782,441.064666L78.680063,446.825175L75.906919,436.058845L81.043224,431.830956L89.824758,430.140890L100.358457,422.611308L108.913212,413.456146L115.061081,415.636613L131.477263,407.847173L136.139740,414.002948L145.352944,422.163587L145.370513,422.217750L157.607272,410.351460L151.342903,404.533152L157.330510,379.257437L160.883047,372.994042L169.613040,370.317090L172.472698,357.772525L158.240646,357.606633L155.288151,355.588891L150.833269,334.335304L141.748404,331.621731L129.686118,325.814514L130.009591,315.907574L112.252899,295.428719L108.578123,285.396397L116.255662,279.845791L114.359554,272.442725L116.833154,265.976542L117.128896,252.660836L110.805394,249.995838L116.166362,244.908397L109.805139,241.835638L100.181772,216.473828L100.179582,216.424640L100.159799,216.429476L102.028949,211.289967L91.150299,205.147124L89.757430,198.532276L86.707078,201.080118L83.897939,191.966465L69.761599,197.817191L60.612248,206.532203L60.260974,207.100825Z " data-code="soorp-Rymarov" data-name="Rýmařov"/>
    <path d="M877.920348,537.455175L874.996175,546.118379L872.866722,563.090139L869.810528,566.536567L859.646963,571.754160L854.122652,581.656683L847.281570,574.778463L858.398197,560.599826L848.818911,549.097550L841.080904,544.762355L835.187529,545.634843L831.779085,549.845346L831.661019,549.954551L831.668503,549.990992L831.602689,555.886656L825.275865,555.527485L818.964274,566.069055L815.616951,567.889488L806.365853,595.467471L801.531094,597.051651L796.169971,602.852309L804.816950,619.842542L812.831694,625.242127L835.097067,630.658153L840.958204,636.254970L845.263016,645.364963L864.473617,652.100473L876.820095,666.047208L877.955134,675.728859L877.777005,676.419490L878.140468,676.631252L898.567834,679.284305L903.232076,668.921754L914.164562,658.783406L915.357119,649.262381L915.368132,649.204075L915.371140,649.188146L928.617025,629.965823L933.748795,624.908403L946.058243,623.954812L954.995434,624.756274L967.292545,621.491493L971.677562,631.316625L979.338310,636.107371L991.015865,638.546374L991.236584,638.081481L991.618700,630.481471L988.542993,624.889473L987.272608,614.977342L981.524857,594.512875L981.410716,586.010316L977.252607,572.188100L951.322799,571.195025L942.410323,574.950287L938.277665,569.804460L930.265103,569.003616L926.290109,557.256689L923.798166,558.071055L921.623147,549.802333L914.058323,547.940871L899.188051,550.957923L878.146391,537.518591L877.920348,537.455175Z " data-code="soorp-Trinec" data-name="Třinec"/>
    <path d="M272.838506,409.926532L272.831238,409.973891L272.421383,414.860080L260.674403,420.063724L259.502105,427.186142L263.871701,432.512744L260.490561,433.946602L253.918068,451.939534L245.157595,457.360533L245.126445,457.365021L245.087656,457.370699L240.950987,465.763509L238.769152,469.532854L229.807973,474.235127L229.762335,474.271281L227.196234,483.760412L231.892322,492.122703L254.233450,504.655050L258.152151,504.073017L268.412759,509.780203L281.622665,511.279248L284.985164,506.414065L289.937228,507.330158L310.542048,504.256314L318.118306,495.704514L322.461752,499.701996L329.607514,521.149018L327.881343,522.124003L330.700217,533.489543L330.789061,533.640383L337.310266,534.381877L341.150538,531.000972L343.823088,536.514119L357.801914,525.813493L371.017699,526.284299L374.638875,517.260996L375.340649,507.347503L383.045280,503.016736L392.467885,512.480618L392.714553,512.720365L392.714611,512.650276L395.737267,503.527128L411.708728,499.957168L425.127980,506.587539L428.964987,494.994078L440.997322,499.831239L445.673526,492.082930L458.782017,481.414289L458.670388,481.073370L458.666588,480.879499L440.391915,463.528030L457.144748,437.386007L457.148947,437.211012L457.149390,437.192594L451.986506,428.002207L431.122254,433.531989L412.742511,439.814359L409.699737,437.583163L405.393836,444.430350L399.692244,445.962283L382.739166,428.333601L383.911294,423.176102L388.883520,424.485208L387.925515,418.755947L376.280074,406.496685L363.696385,407.316210L359.503218,403.338842L341.431009,405.759029L323.453808,398.409190L307.877480,404.290483L302.712597,410.577190L307.542992,437.847252L305.784402,440.150488L294.704107,438.573731L299.706078,428.669245L291.772203,425.196892L287.710650,418.371659L281.262009,412.084847L272.927676,409.872328L272.838506,409.926532Z " data-code="soorp-Vitkov" data-name="Vítkov"/>
  </g>
  <g class="" id="soopu">
    <path d="M462.226280,482.707854L462.215723,482.725340L464.352421,496.755240L478.956305,512.060152L483.205597,518.706037L494.012910,522.677183L500.398033,530.010659L495.573536,543.932494L489.481594,535.065431L470.506151,546.286529L480.290611,557.256593L480.242247,557.308456L480.466167,557.497129L483.984147,560.282465L485.722995,561.520741L501.875734,567.909289L501.899265,567.851605L501.558973,567.627145L507.488108,546.842839L507.886684,541.115951L519.444644,532.882600L519.581984,532.774389L519.599326,532.760725L547.212609,530.420371L561.297281,518.148625L586.834174,530.786420L586.860831,530.825684L586.932093,530.934704L587.605959,530.899279L589.010871,529.505428L590.416865,529.918103L590.478674,529.808009L590.646345,529.718634L594.457539,525.181536L600.194699,523.311075L604.775119,515.917676L611.384218,510.494653L606.515582,501.823362L601.217636,502.934659L597.764314,496.929597L585.495611,498.809242L577.063803,497.471961L566.092096,485.165987L557.329356,489.216379L550.019331,490.037275L546.435153,466.043355L541.726163,456.393787L534.170031,449.307164L534.208177,449.282816L534.099771,448.927217L533.053451,445.778276L516.430039,444.887327L505.650387,442.731811L493.671883,450.368623L488.235282,450.658022L484.787895,455.164334L485.714813,464.912387L478.201451,476.756816L470.339377,477.803071L462.282159,482.677630L462.226280,482.707854Z " data-code="soopu-Bilovec" data-name="Bílovec"/>
    <path d="M519.581985,532.774404L519.444644,532.882600L507.886684,541.115951L507.488108,546.842839L501.558973,567.627145L501.899265,567.851605L502.260495,568.182340L515.506503,576.592177L529.082390,565.843957L535.196530,564.305440L552.869373,569.299524L552.957782,569.425785L553.162389,569.354205L561.498399,564.394124L570.073582,562.988052L578.055808,550.480764L573.438830,541.532786L584.163118,536.202412L586.832350,530.845140L586.860831,530.825684L586.834174,530.786420L561.297281,518.148625L547.212609,530.420371L519.599326,532.760725L519.581985,532.774404Z " data-code="soopu-Studenka" data-name="Studénka"/>
    <path d="M695.000120,360.242712L695.121227,360.341266L694.524323,361.503637L694.514951,361.521586L694.075183,362.160862L693.914069,362.753010L696.961153,369.011927L687.952781,396.135173L704.368255,390.782831L709.373790,399.566663L711.357688,407.544106L709.357509,422.263749L721.310734,427.100314L721.375011,427.219452L721.483571,427.166079L741.693250,422.897997L740.542335,414.540861L743.873769,399.646984L743.880713,399.544296L743.860307,399.293738L737.601129,388.242642L755.900163,385.497339L763.512764,388.455022L763.581934,388.475829L763.689373,388.180434L768.654509,372.661159L773.674373,369.240608L779.198769,358.578936L779.181433,358.539968L776.466918,353.440105L762.479600,348.496063L758.275213,339.621852L739.212403,343.305060L717.199187,337.610653L715.170870,334.720088L702.323271,334.365737L702.101797,337.278131L709.417911,338.187168L711.994542,342.085825L699.734411,347.303449L695.025274,360.221681L695.000120,360.242712Z " data-code="soopu-Bohumin" data-name="Bohumín"/>
    <path d="M100.179582,216.424640L100.181772,216.473828L109.805139,241.835638L116.166362,244.908397L110.805394,249.995838L117.128896,252.660836L116.833154,265.976542L114.359554,272.442725L116.255662,279.845791L108.578123,285.396397L112.252899,295.428719L130.009591,315.907574L129.686118,325.814514L141.748404,331.621731L150.833269,334.335304L155.288151,355.588891L158.240646,357.606633L172.472698,357.772525L169.613040,370.317090L160.883047,372.994042L157.330510,379.257437L151.342903,404.533152L157.607272,410.351460L145.370513,422.217750L145.353218,422.233807L131.843691,450.161720L141.909750,466.514844L149.189520,473.124913L153.414707,454.618787L157.223562,455.654311L165.550694,451.752843L161.821061,446.800252L175.172528,441.484223L176.295233,433.623089L179.078459,443.848129L188.798882,432.558781L192.544716,433.739881L194.195395,427.592625L189.564741,423.472321L185.170103,406.402164L181.246709,404.651320L186.623082,398.143346L192.795858,400.917400L200.624891,398.587456L199.198741,410.446734L207.857464,418.259817L208.797352,431.250309L203.966402,430.453970L207.513794,443.547533L218.759096,451.002987L214.798487,459.129575L215.706103,468.241124L229.457394,474.162554L229.807973,474.235127L238.769152,469.532854L240.950987,465.763509L245.087656,457.370699L245.126445,457.365020L245.157595,457.360533L253.918068,451.939534L260.490561,433.946602L263.871701,432.512744L259.502105,427.186142L260.674403,420.063724L272.421383,414.860080L272.831238,409.973891L272.838506,409.926532L272.802659,409.856136L269.299367,405.497877L276.636171,402.984177L273.182368,396.686466L278.501702,388.772531L276.026156,385.126331L271.458921,386.540699L271.160796,378.001496L275.140183,374.856836L278.952698,365.412144L278.974079,365.413212L278.954448,365.335527L275.822595,354.713346L276.559160,350.903272L264.136289,341.769085L257.431749,316.039130L259.694731,313.750714L259.034421,299.381212L259.027342,299.323149L257.776659,298.082719L248.120300,287.604492L258.647892,277.360768L248.519620,270.807329L250.772551,259.571860L257.090589,252.206702L240.379712,245.509274L235.145831,247.347860L228.242136,239.542413L228.011777,239.191129L227.731205,239.471764L220.763666,246.402094L223.243998,247.033537L219.744554,273.003773L214.911999,267.605197L202.843844,266.494757L193.704940,271.317469L190.578683,256.883282L192.602867,251.185885L186.231012,252.281719L181.613619,257.864791L178.516537,245.752356L188.051816,248.164976L190.156954,246.137242L191.544738,222.105677L172.887059,221.150488L163.650532,207.591536L158.568555,211.028463L152.208888,201.990507L136.613363,184.310164L133.266930,183.911408L133.368774,176.247306L127.002231,187.333678L122.593153,198.103709L110.105593,214.317262L100.208296,216.417597L100.179582,216.424640Z " data-code="soopu-Bruntal" data-name="Bruntál"/>
    <path d="M259.027342,299.323149L259.034421,299.381212L259.694731,313.750714L257.431749,316.039130L264.136289,341.769085L276.559160,350.903272L275.822595,354.713346L278.954448,365.335527L278.974079,365.413212L279.000414,365.492001L287.303362,366.779900L294.649387,358.367483L309.048246,355.626093L313.217180,347.715114L321.248545,346.300245L320.453860,341.740245L343.144626,328.835521L337.487394,333.452824L333.428734,325.353507L313.640362,320.599460L314.662733,314.552461L311.386519,311.975273L311.385699,304.057298L293.654628,306.428562L288.998918,302.605729L288.991719,302.583083L288.981790,302.551939L286.039299,297.593871L286.680935,295.351379L286.855293,295.043415L286.571770,294.884901L272.248905,287.495112L260.760956,293.710371L258.957241,299.017041L259.027342,299.323149Z " data-code="soopu-Horni_Benesov" data-name="Horní Benešov"/>
    <path d="M84.622732,138.921524L76.791268,149.877822L65.498439,154.709298L71.098951,173.814032L67.951875,179.420492L54.123088,190.669472L60.492092,206.280641L60.612248,206.532203L69.761599,197.817191L83.897939,191.966465L86.707078,201.080118L89.757430,198.532276L91.150299,205.147124L102.028949,211.289967L100.159799,216.429476L100.179582,216.424640L100.208296,216.417597L110.105593,214.317262L122.593153,198.103709L127.002231,187.333678L133.368774,176.247306L133.266930,183.911408L136.613363,184.310164L152.208888,201.990507L158.568555,211.028463L163.650532,207.591536L172.887059,221.150488L191.544738,222.105677L190.156954,246.137242L188.051816,248.164976L178.516537,245.752356L181.613619,257.864791L186.231012,252.281719L192.602867,251.185885L190.578683,256.883282L193.704940,271.317469L202.843844,266.494757L214.911999,267.605197L219.744554,273.003773L223.243998,247.033537L220.763666,246.402094L227.731205,239.471764L228.011777,239.191129L228.004841,239.182115L224.318896,228.354791L230.036987,225.479839L229.642635,216.228505L229.607555,216.194267L229.451655,216.117285L216.590331,210.769763L214.858071,207.839417L201.455945,206.068686L202.459926,190.396226L215.989193,187.706939L206.659802,181.527661L205.674295,178.042174L213.175632,171.605001L213.476929,171.491245L213.472438,171.470561L203.704818,170.606650L192.570477,165.745044L184.474947,158.325551L161.856636,156.007602L153.800711,150.438777L152.859143,136.590669L145.542698,135.368959L139.075633,137.396088L127.114037,136.360070L116.859279,146.493706L106.443608,139.060784L95.759688,146.500858L84.904616,138.495577L84.622732,138.921524Z " data-code="soopu-Vrbno_pod_Pradedem" data-name="Vrbno pod Pradědem"/>
    <path d="M857.276969,471.411017L854.815445,479.029516L849.770067,475.337081L844.297461,479.885497L836.007699,482.095825L835.758499,482.129799L835.584047,482.265352L829.591211,492.298055L824.232388,493.923124L816.512824,502.202128L820.159836,503.378912L827.038314,514.810184L824.731795,531.207735L824.661523,531.375117L824.683110,531.902233L828.915964,538.773325L827.818918,540.385827L831.644463,549.967928L831.661019,549.954551L831.779085,549.845346L835.187529,545.634843L841.080904,544.762355L848.818911,549.097550L858.398197,560.599826L847.281570,574.778463L854.122652,581.656683L859.646963,571.754160L869.810528,566.536567L872.866722,563.090139L874.996175,546.118379L877.920348,537.455175L877.672695,537.278272L873.823350,534.068711L873.817802,508.670847L866.201700,503.021014L864.801757,490.711845L856.835709,477.788118L857.293372,471.437970L857.276969,471.411017Z " data-code="soopu-Cesky_Tesin" data-name="Český Těšín"/>
    <path d="M638.093958,648.622563L638.026633,648.600602L617.937569,662.447319L591.923471,665.708454L590.800324,681.811088L591.743121,685.827779L580.549241,689.889295L577.304722,693.000569L562.720824,691.241920L562.014506,691.668789L562.039440,691.699872L563.461003,696.742835L560.690885,705.427813L565.243786,718.035170L565.089173,722.108994L565.899800,722.153610L577.724093,719.762050L584.358006,722.692859L588.540202,728.902678L605.369895,722.778860L611.176282,732.452903L620.851593,743.147765L628.963156,746.041055L635.182989,743.728721L643.374195,748.286272L655.502524,752.588384L671.205802,743.178160L678.891123,744.440241L679.690038,744.630096L675.804162,724.802105L680.435712,719.113828L687.931453,718.376978L692.445495,707.823815L687.492982,702.850011L685.942321,695.835939L689.002843,695.832840L686.479651,686.389376L686.156290,685.946565L685.882064,686.098059L679.260539,677.684280L671.069776,677.423365L665.647012,673.857314L653.492709,671.226317L638.078521,648.643769L638.093958,648.622563Z " data-code="soopu-Frenstat_pod_Radhostem" data-name="Frenštát pod Radhoštěm"/>
    <path d="M682.194152,509.774062L682.033089,509.639829L665.335226,516.384754L663.951557,523.635896L665.547770,528.295697L654.977927,530.557212L652.826700,525.153075L637.132685,518.645638L631.466933,520.678056L642.388198,540.968233L637.292989,543.107854L623.728418,557.858743L623.704470,558.263369L623.851128,558.363926L623.458292,582.624494L621.362220,590.581392L615.657389,601.230885L616.336739,606.947589L620.991930,606.598591L621.616016,623.453531L621.579238,623.482173L621.630744,623.527419L630.821176,636.585104L629.724172,644.067130L638.241866,648.297582L638.093958,648.622563L638.078521,648.643769L653.492709,671.226317L665.647012,673.857314L671.069776,677.423365L679.260539,677.684280L685.882064,686.098059L686.156290,685.946565L686.304221,685.880335L694.829005,647.565312L688.425426,639.486862L688.194089,626.579857L706.377684,621.558111L714.144181,627.742117L731.871292,626.346626L737.687374,615.322525L749.982668,615.107934L759.987078,617.887892L766.434942,637.752064L756.131614,643.361186L752.698593,649.672071L763.605692,664.367842L762.342857,667.324488L766.051140,679.431082L774.581379,697.255257L789.968811,704.192340L791.730702,707.039641L792.919179,720.263265L795.176279,726.109476L808.535641,722.614835L819.212662,722.918990L822.433437,730.882352L828.850692,735.983581L829.112976,735.475038L845.128689,728.251759L847.316213,729.811433L858.739005,726.439775L859.323299,726.378740L866.701118,712.744937L865.950722,709.961908L872.349052,693.191126L871.231832,687.629188L877.385855,676.954483L877.777005,676.419490L877.955134,675.728859L876.820095,666.047208L864.473617,652.100473L845.263016,645.364963L840.958204,636.254970L835.097067,630.658153L812.831694,625.242127L804.816950,619.842542L796.169971,602.852309L801.531094,597.051651L806.365853,595.467471L815.616951,567.889488L818.964274,566.069055L825.275865,555.527485L831.602689,555.886656L831.668503,549.990992L831.661019,549.954551L831.644463,549.967928L827.818918,540.385827L828.915964,538.773325L824.683110,531.902233L824.661523,531.375117L824.609475,531.372203L809.503748,535.426468L805.437472,538.754198L787.420867,521.577055L785.374932,518.135086L771.942719,515.695761L771.789528,515.692602L771.759955,515.691992L748.214499,523.397947L743.965793,522.431054L741.151218,503.244163L741.094191,503.318983L741.084728,503.330563L738.778393,505.438477L735.562513,513.025130L717.184566,518.296455L717.165618,518.294349L717.146751,518.292235L711.594304,516.283848L710.299606,504.110008L706.787291,502.214880L705.003684,515.336898L699.112908,515.814604L682.362484,509.918259L682.194152,509.774062Z " data-code="soopu-Frydek-Mistek" data-name="Frýdek-Místek"/>
    <path d="M686.156290,685.946565L686.479651,686.389376L689.002843,695.832840L685.942321,695.835939L687.492982,702.850011L692.445495,707.823815L687.931453,718.376978L680.435712,719.113828L675.804162,724.802105L679.690038,744.630096L679.851950,744.678717L685.681766,746.674964L689.035949,768.997207L694.862102,774.319330L698.325535,781.717794L715.339317,786.311445L727.171447,804.858337L724.224582,820.812470L737.185944,827.170738L750.599264,827.942827L756.795458,830.470911L773.582187,832.792513L774.638795,826.675975L789.810380,816.277954L788.972078,811.734659L793.961136,803.326071L799.134976,801.570742L797.039206,796.610122L803.241482,794.301985L812.329110,782.927980L815.866590,782.289905L817.518048,775.165289L830.677147,765.032995L823.085180,751.228739L828.718291,736.461401L828.850692,735.983581L822.433437,730.882352L819.212662,722.918990L808.535641,722.614835L795.176279,726.109476L792.919179,720.263265L791.730702,707.039641L789.968811,704.192340L774.581379,697.255257L766.051140,679.431082L762.342857,667.324488L763.605692,664.367842L752.698593,649.672071L756.131614,643.361186L766.434942,637.752064L759.987078,617.887892L749.982668,615.107934L737.687374,615.322525L731.871292,626.346626L714.144181,627.742117L706.377684,621.558111L688.194089,626.579857L688.425426,639.486862L694.829005,647.565312L686.304221,685.880335L686.156290,685.946565Z " data-code="soopu-Frydlant_nad_Ostravici" data-name="Frýdlant nad Ostravicí"/>
    <path d="M747.276918,453.858392L747.172578,453.858799L746.363488,453.988418L742.484804,454.502487L741.235799,455.653398L741.135598,455.802009L741.150975,455.863320L738.356102,466.292272L741.661127,473.568476L750.998566,480.541384L746.864728,489.452319L741.660932,488.415743L741.062986,503.300500L741.094191,503.318983L741.151218,503.244163L743.965793,522.431054L748.214499,523.397947L771.759955,515.691992L771.789529,515.692602L771.942719,515.695761L785.374932,518.135086L787.420867,521.577055L805.437472,538.754198L809.503748,535.426468L824.609475,531.372203L824.661523,531.375117L824.731795,531.207735L827.038314,514.810184L820.159836,503.378912L816.512824,502.202128L824.232388,493.923124L829.591211,492.298055L835.584047,482.265352L835.758499,482.129799L835.685995,481.853507L834.561611,470.775640L831.798087,466.690438L822.245076,463.808926L814.850884,464.891580L803.829179,470.156868L799.103183,454.908121L793.338521,448.873770L779.219498,450.428938L772.212093,448.499225L771.962315,448.168373L771.708574,448.192782L760.017711,448.424414L754.004135,452.015933L747.798934,453.868757L747.276918,453.858392Z " data-code="soopu-Havirov" data-name="Havířov"/>
    <path d="M596.906101,300.554240L579.307932,303.303652L575.782136,313.171208L576.121873,322.420202L571.385573,328.018462L567.130329,327.737994L562.696011,343.082635L547.233787,346.500304L544.993940,353.096699L546.442170,368.499346L546.424143,368.546708L546.510010,368.584305L553.365981,371.430768L564.367960,367.244347L565.965415,370.114844L592.256752,377.285930L589.166555,383.716518L582.103717,384.505743L576.555305,391.093486L576.551711,391.111314L576.534803,391.128891L580.867425,397.526007L590.544127,406.841875L592.130332,400.249250L603.684158,411.702422L605.208795,409.753074L616.985762,407.770476L621.152940,411.643049L621.057721,411.756035L621.300784,411.984803L630.692021,404.700910L634.590663,404.190292L640.688132,408.666203L646.647584,406.117418L659.688037,390.041624L668.098726,392.578511L672.795461,386.553222L679.262583,384.347863L683.191266,376.959296L683.216348,376.871432L683.240523,376.786742L686.552842,370.954699L690.057118,369.604996L693.950267,362.342475L694.075183,362.160862L694.514951,361.521586L694.524323,361.503637L695.121227,360.341266L695.000120,360.242712L694.816929,360.093755L692.878123,360.448166L681.777274,348.690842L676.219833,348.165642L671.071546,338.968635L670.761346,324.167989L668.310603,316.241160L632.359248,307.684858L630.636987,294.996933L627.560050,286.380129L619.786035,289.417778L617.953741,285.597222L608.062434,284.236308L605.711705,296.782252L596.892722,300.511229L596.906101,300.554240Z " data-code="soopu-Hlucin" data-name="Hlučín"/>
    <path d="M991.015865,638.546374L979.338310,636.107371L971.677562,631.316625L967.292545,621.491493L954.995434,624.756274L946.058243,623.954812L933.748795,624.908403L928.617025,629.965823L915.371140,649.188146L915.368132,649.204074L915.357119,649.262381L914.164562,658.783406L903.232076,668.921754L898.567834,679.284305L878.140468,676.631252L877.777005,676.419490L877.385855,676.954483L871.231832,687.629188L872.349052,693.191126L865.950722,709.961908L866.701118,712.744937L859.323299,726.378740L859.905324,727.060672L863.118047,738.256443L871.513453,740.004513L882.280554,737.458661L885.920567,734.669456L910.895001,730.669239L911.473964,732.919076L926.427247,732.804986L941.099865,743.667213L949.174221,743.563869L959.142292,738.374408L966.366708,729.950377L976.187345,726.247099L999.655214,720.120206L999.804762,676.872760L998.536297,647.869924L991.032877,638.580878L991.015865,638.546374Z " data-code="soopu-Jablunkov" data-name="Jablunkov"/>
    <path d="M779.198769,358.578936L773.674373,369.240608L768.654509,372.661159L763.689373,388.180434L763.581934,388.475829L763.612876,388.485176L765.414039,397.728671L781.701694,401.642794L793.930385,399.315551L799.034886,409.932114L794.942635,420.296550L787.123016,416.775246L784.348696,419.415324L770.320995,425.398547L775.328698,433.090468L771.947921,448.051693L771.962315,448.168373L772.212093,448.499225L779.219498,450.428938L793.338521,448.873770L799.103183,454.908121L803.829179,470.156868L814.850884,464.891580L822.245076,463.808926L831.798087,466.690438L834.561611,470.775640L835.685995,481.853507L835.758499,482.129799L836.007699,482.095825L844.297461,479.885497L849.770067,475.337081L854.815445,479.029516L857.276969,471.411017L857.229385,471.332788L854.313302,462.594576L849.912251,459.780863L848.001132,447.984277L841.289383,431.838709L849.103058,425.684283L850.793024,420.981610L860.125319,412.161014L859.209435,405.338142L847.693680,403.591697L841.008588,395.266851L840.303669,387.426590L845.800239,368.426299L841.961554,354.321794L833.816544,357.364173L823.455083,349.774885L822.684732,363.274558L825.317588,364.479902L818.608557,373.567120L801.744248,370.649464L789.484615,366.773641L779.230855,358.650896L779.198769,358.578936Z " data-code="soopu-Karvina" data-name="Karviná"/>
    <path d="M568.465256,622.070223L568.443954,622.082562L560.544783,624.450867L560.334246,631.807696L555.068902,637.039271L559.346381,646.901550L559.288181,646.951066L559.223245,647.006312L557.105221,651.567145L558.951700,658.376915L563.188435,661.974254L554.984759,673.582106L555.879729,687.184322L561.618058,692.054173L562.014506,691.668789L562.720824,691.241920L577.304722,693.000569L580.549241,689.889295L591.743121,685.827779L590.800324,681.811088L591.923471,665.708454L617.937569,662.447319L638.026633,648.600602L638.093958,648.622563L638.241866,648.297582L629.724172,644.067130L630.821176,636.585104L621.630744,623.527419L621.579238,623.482173L621.055775,623.242531L617.837120,622.550790L613.436715,623.131101L611.226905,623.076122L611.214244,623.076644L611.178158,623.078136L596.002739,625.821877L583.768529,637.352578L581.044971,629.368501L575.330086,623.446897L568.528852,622.137180L568.465256,622.070223Z " data-code="soopu-Koprivnice" data-name="Kopřivnice"/>
    <path d="M586.860831,530.825684L586.832350,530.845140L584.163118,536.202412L573.438830,541.532786L578.055808,550.480764L570.073582,562.988052L561.498399,564.394124L553.162389,569.354205L552.957782,569.425785L553.006759,569.490726L557.503438,575.878805L568.114382,577.172143L576.234894,586.547284L578.328994,593.886190L565.689806,606.494539L564.832248,609.602185L568.328957,621.688778L568.465256,622.070223L568.528852,622.137180L575.330086,623.446897L581.044971,629.368501L583.768529,637.352578L596.002739,625.821877L611.178158,623.078136L611.214244,623.076645L611.226905,623.076122L613.436715,623.131101L617.837120,622.550790L621.055775,623.242531L621.579238,623.482173L621.616016,623.453531L620.991930,606.598591L616.336739,606.947589L615.657389,601.230885L621.362220,590.581392L623.458292,582.624494L623.851128,558.363926L623.704470,558.263369L623.460249,558.505982L621.196856,559.980100L616.040945,552.458767L607.368565,545.852139L590.530209,529.887598L590.478674,529.808009L590.416865,529.918103L589.010871,529.505428L587.605959,530.899279L586.932093,530.934704L586.860831,530.825684Z " data-code="soopu-Pribor" data-name="Příbor"/>
    <path d="M528.843734,276.960543L523.838857,278.523457L519.129172,295.453612L522.509793,311.655947L508.074730,310.102747L505.175947,316.829937L495.830961,328.943458L505.064374,337.594953L503.679937,354.496598L515.827171,353.069196L526.442587,359.205419L528.322191,362.305530L546.324852,368.510340L546.424143,368.546708L546.442170,368.499346L544.993940,353.096699L547.233787,346.500304L562.696011,343.082635L567.130329,327.737994L571.385573,328.018462L576.121873,322.420202L575.782136,313.171208L579.307932,303.303652L596.906101,300.554240L596.892480,300.512151L585.972624,288.402595L576.205386,289.796429L569.833981,285.162253L562.275923,273.273164L556.628655,254.034894L559.169040,244.710282L545.529616,241.148597L543.053845,231.112031L538.038013,231.512796L533.948048,228.051926L524.765237,226.164499L510.072123,237.387551L509.649933,249.183844L514.836174,257.392868L523.815195,249.683269L534.685846,256.504573L532.598944,280.226897L528.875350,276.790269L528.843734,276.960543Z " data-code="soopu-Kravare" data-name="Kravaře"/>
    <path d="M213.476929,171.491245L213.175632,171.605001L205.674295,178.042174L206.659802,181.527661L215.989193,187.706939L202.459926,190.396226L201.455945,206.068686L214.858071,207.839417L216.590331,210.769763L229.451655,216.117285L229.607556,216.194267L229.642635,216.228505L230.036987,225.479839L224.318896,228.354791L228.004841,239.182115L228.011777,239.191129L228.242136,239.542413L235.145831,247.347860L240.379712,245.509274L257.090589,252.206702L250.772551,259.571860L248.519620,270.807329L258.647892,277.360768L248.120300,287.604492L257.776659,298.082719L259.027342,299.323149L258.957241,299.017041L260.760956,293.710371L272.248905,287.495112L286.571770,294.884901L286.855293,295.043415L286.975409,294.921620L290.672764,293.125720L318.057639,263.731069L316.831992,260.644598L327.528884,255.414990L339.677030,253.275616L352.892461,256.438338L356.792858,252.626846L362.108528,253.351907L369.376269,248.704273L368.437739,245.504645L375.213017,246.762930L375.221721,246.742100L366.402250,226.741279L357.627503,211.106082L351.044208,205.422708L350.729097,196.793608L335.802807,181.142963L322.887006,179.227744L319.233524,191.406643L305.720760,184.940289L298.283009,166.475368L290.497289,162.574451L290.221976,162.531952L290.199339,162.569919L289.905834,170.058410L278.780612,177.059006L264.227579,163.386447L234.907310,151.296797L224.933479,150.701663L221.714371,161.501593L229.559209,169.727989L213.530151,171.475745L213.476929,171.491245Z " data-code="soopu-Krnov" data-name="Krnov"/>
    <path d="M84.904616,138.495577L95.759688,146.500858L106.443608,139.060784L116.859279,146.493706L127.114037,136.360070L139.075633,137.396088L145.542698,135.368959L152.859143,136.590669L153.800711,150.438777L161.856636,156.007602L184.474947,158.325551L192.570477,165.745044L203.704818,170.606650L213.472438,171.470561L213.476929,171.491245L213.530151,171.475745L229.559209,169.727989L221.714371,161.501593L224.933479,150.701663L234.907310,151.296797L264.227579,163.386447L278.780612,177.059006L289.905834,170.058410L290.199339,162.569919L290.221976,162.531952L290.194804,162.529043L270.663497,139.660070L275.505154,131.351011L289.761457,131.374841L296.401679,127.061659L296.438437,126.934261L296.330145,126.625956L285.551004,117.722983L281.434289,116.694950L286.752693,107.086444L296.473034,97.096521L301.900353,94.947630L310.806985,84.466477L303.034251,71.595738L293.362921,75.478285L283.102497,63.132827L285.386441,42.782499L285.350606,42.747107L285.232802,42.838665L274.500439,39.623131L270.167879,32.187540L256.433394,37.532111L246.764923,39.802410L215.070804,35.228758L194.764084,41.593080L192.482477,48.415417L182.727541,56.148624L176.549869,53.913177L174.207603,65.016123L174.627475,74.177892L170.770193,93.777189L157.346942,94.164091L147.855224,82.901983L129.063820,111.872357L123.170835,116.583268L102.725034,121.630802L97.351488,129.752176L92.087582,126.888653L85.194334,137.972840L84.904616,138.495577Z " data-code="soopu-Mesto_Albrechtice" data-name="Město Albrechtice"/>
    <path d="M285.350606,42.747107L285.386441,42.782499L283.102497,63.132827L293.362921,75.478285L303.034251,71.595738L310.806985,84.466477L301.900353,94.947630L296.473034,97.096521L286.752693,107.086444L281.434289,116.694950L285.551004,117.722983L296.330145,126.625956L296.438437,126.934261L296.465643,126.949187L302.178443,124.666346L314.643132,122.916508L334.211712,117.532881L347.043094,97.675799L357.860145,101.570283L366.893947,97.717355L366.975545,79.888415L369.902800,70.118597L348.011385,51.361489L347.744253,40.192181L363.303336,13.520594L351.364143,10.325345L346.927977,0.000000L326.753277,0.000000L326.890690,11.309365L314.933643,21.056670L300.491317,34.352381L285.873284,42.340682L285.350606,42.747107Z " data-code="soopu-Osoblaha" data-name="Osoblaha"/>
    <path d="M480.242247,557.308456L480.140863,557.435343L465.462226,574.252520L454.877835,570.639048L439.845005,574.015608L439.725653,574.085833L439.717221,574.302994L446.750585,580.194338L444.895539,587.333317L446.576948,591.367458L441.931832,599.447498L451.790103,609.886707L464.350039,617.008746L468.269160,624.646093L463.746880,631.575136L444.059535,618.492645L436.393383,628.367262L430.285758,641.254328L412.981158,641.535031L413.077024,642.559559L422.268755,657.136974L421.073669,660.516772L428.155426,673.529010L420.921830,674.291139L415.896646,679.909997L422.612590,684.904721L424.348626,693.215187L436.806220,681.286103L448.274820,681.809834L456.694055,699.093522L460.236230,703.371709L482.480309,701.731191L493.402417,704.812937L504.672442,727.128618L510.019221,733.184856L514.532181,733.617408L552.772286,723.506612L557.290873,720.768348L564.865001,722.096663L565.089173,722.108994L565.243786,718.035170L560.690885,705.427813L563.461003,696.742835L562.039440,691.699872L562.014506,691.668789L561.618058,692.054173L555.879729,687.184322L554.984759,673.582106L563.188435,661.974254L558.951700,658.376915L557.105221,651.567145L559.223245,647.006312L559.288181,646.951065L559.346381,646.901550L555.068902,637.039271L560.334246,631.807696L560.544783,624.450867L568.443954,622.082562L568.465256,622.070223L568.328957,621.688778L564.832248,609.602185L565.689806,606.494539L578.328994,593.886190L576.234894,586.547284L568.114382,577.172143L557.503438,575.878805L553.006759,569.490726L552.957782,569.425785L552.869373,569.299524L535.196530,564.305440L529.082390,565.843957L515.506503,576.592177L502.260495,568.182340L501.899265,567.851605L501.875734,567.909289L485.722995,561.520741L483.984147,560.282465L480.466167,557.497129L480.242247,557.308456Z " data-code="soopu-Novy_Jicin" data-name="Nový Jičín"/>
    <path d="M330.683922,533.752072L323.418629,543.141593L321.818234,548.812838L324.688075,565.150528L323.604805,573.573619L346.483072,590.004461L350.789107,587.800796L353.966678,574.620546L374.573653,600.064507L370.740244,604.573891L378.140625,617.481220L382.217378,614.969095L386.878113,620.892824L396.751589,625.567151L402.363169,633.994689L412.914538,641.509158L412.981158,641.535031L430.285758,641.254328L436.393383,628.367262L444.059535,618.492645L463.746880,631.575136L468.269160,624.646093L464.350039,617.008746L451.790103,609.886707L441.931832,599.447498L446.576948,591.367458L444.895539,587.333317L446.750585,580.194338L439.717221,574.302994L439.725653,574.085833L439.566491,574.133536L430.178374,572.239646L428.062935,563.931520L431.730153,555.876187L430.573694,547.620265L423.621285,543.635159L414.122477,545.216013L409.184014,548.862371L401.176409,548.325263L401.682998,542.101628L410.956952,526.659068L398.568271,518.827589L394.160850,518.957128L392.806523,512.868789L392.714553,512.720365L392.467885,512.480618L383.045280,503.016736L375.340649,507.347503L374.638875,517.260996L371.017699,526.284299L357.801914,525.813493L343.823088,536.514119L341.150538,531.000972L337.310266,534.381877L330.789061,533.640383L330.683922,533.752072Z " data-code="soopu-Odry" data-name="Odry"/>
    <path d="M458.670388,481.073370L458.782017,481.414289L445.673526,492.082930L440.997322,499.831239L428.964987,494.994078L425.127980,506.587539L411.708728,499.957168L395.737267,503.527128L392.714611,512.650276L392.714553,512.720365L392.806523,512.868789L394.160850,518.957128L398.568271,518.827589L410.956952,526.659068L401.682998,542.101628L401.176409,548.325263L409.184014,548.862371L414.122477,545.216013L423.621285,543.635159L430.573694,547.620265L431.730153,555.876187L428.062935,563.931520L430.178374,572.239646L439.566491,574.133536L439.725653,574.085833L439.845005,574.015608L454.877835,570.639048L465.462226,574.252520L480.140863,557.435343L480.242247,557.308456L480.290611,557.256593L470.506151,546.286529L489.481594,535.065431L495.573536,543.932494L500.398033,530.010659L494.012910,522.677183L483.205597,518.706037L478.956305,512.060152L464.352421,496.755240L462.215723,482.725340L462.226280,482.707854L462.047274,482.630784L460.380877,481.976810L459.194392,481.390003L458.670388,481.073370Z " data-code="soopu-Fulnek" data-name="Fulnek"/>
    <path d="M286.855293,295.043415L286.680935,295.351379L286.039299,297.593871L288.981790,302.551939L288.991720,302.583083L288.998918,302.605729L293.654628,306.428562L311.385699,304.057298L311.386519,311.975273L314.662733,314.552461L313.640362,320.599460L333.428734,325.353507L337.487394,333.452824L343.144626,328.835521L320.453860,341.740245L321.248545,346.300245L313.217180,347.715114L309.048246,355.626093L294.649387,358.367483L287.303362,366.779900L279.000414,365.492001L278.974079,365.413212L278.952698,365.412144L275.140183,374.856836L271.160796,378.001496L271.458921,386.540699L276.026156,385.126331L278.501702,388.772531L273.182368,396.686466L276.636171,402.984177L269.299367,405.497877L272.802659,409.856136L272.838506,409.926532L272.927676,409.872328L281.262009,412.084847L287.710650,418.371659L291.772203,425.196892L299.706078,428.669245L294.704107,438.573731L305.784402,440.150488L307.542992,437.847252L302.712597,410.577190L307.877480,404.290483L323.453808,398.409190L341.431009,405.759029L359.503218,403.338842L363.696385,407.316210L376.280074,406.496685L387.925515,418.755947L388.883520,424.485208L383.911294,423.176102L382.739166,428.333601L399.692244,445.962283L405.393836,444.430350L409.699737,437.583163L412.742511,439.814359L431.122254,433.531989L451.986506,428.002207L457.149390,437.192594L457.148948,437.211012L457.144748,437.386007L440.391915,463.528030L458.666588,480.879499L458.670388,481.073370L459.194392,481.390003L460.380877,481.976810L462.047274,482.630784L462.226280,482.707854L462.282159,482.677630L470.339377,477.803071L478.201451,476.756816L485.714813,464.912387L484.787895,455.164334L488.235282,450.658022L493.671883,450.368623L505.650387,442.731811L516.430039,444.887327L533.053451,445.778276L534.099771,448.927217L534.208177,449.282816L534.345663,449.203163L547.725818,440.832046L539.934414,426.891498L536.514713,414.452346L536.886014,410.321166L541.915326,411.970511L550.824532,400.436645L556.903891,398.303039L556.515123,383.019879L564.443762,390.090356L575.612515,391.168917L576.551711,391.111314L576.555305,391.093486L582.103717,384.505743L589.166555,383.716518L592.256752,377.285930L565.965415,370.114844L564.367960,367.244347L553.365981,371.430768L546.510010,368.584305L546.424143,368.546708L546.324852,368.510340L528.322191,362.305530L526.442587,359.205419L515.827171,353.069196L503.679937,354.496598L505.064374,337.594953L495.830961,328.943458L505.175947,316.829937L508.074730,310.102747L522.509793,311.655947L519.129172,295.453612L523.838857,278.523457L528.843734,276.960543L528.330399,275.965934L511.076457,274.435477L503.029178,271.192186L497.519601,280.213115L490.940572,276.852879L480.354723,280.429025L464.189974,300.304741L455.060462,305.974481L444.205507,303.026542L430.687791,309.804739L426.281509,302.269729L423.835203,303.054633L415.618553,296.752528L412.129606,291.712843L412.276881,281.597341L406.466101,274.589238L388.069365,271.903447L387.932136,268.813326L375.236813,260.440757L377.230322,259.037257L372.966610,250.727138L375.172840,246.859005L375.213017,246.762930L368.437739,245.504645L369.376269,248.704273L362.108528,253.351907L356.792858,252.626846L352.892461,256.438338L339.677030,253.275616L327.528884,255.414990L316.831992,260.644598L318.057639,263.731069L290.672764,293.125720L286.975409,294.921620L286.855293,295.043415Z " data-code="soopu-Opava" data-name="Opava"/>
    <path d="M743.880712,399.544296L743.873769,399.646984L740.542335,414.540861L741.693250,422.897997L721.483571,427.166079L721.375011,427.219452L721.194785,427.703061L718.778616,443.385930L719.148480,448.688171L725.649908,459.504151L734.271542,448.760636L741.014296,455.774696L741.135598,455.802009L741.235799,455.653398L742.484804,454.502487L746.363488,453.988418L747.172578,453.858799L747.276919,453.858392L747.798934,453.868757L754.004135,452.015933L760.017711,448.424414L771.708574,448.192782L771.962315,448.168373L771.947921,448.051693L775.328698,433.090468L770.320995,425.398547L784.348696,419.415324L787.123016,416.775246L794.942635,420.296550L799.034886,409.932114L793.930385,399.315551L781.701694,401.642794L765.414039,397.728671L763.612876,388.485176L763.581934,388.475829L763.512764,388.455022L755.900163,385.497339L737.601129,388.242642L743.860307,399.293738L743.880712,399.544296Z " data-code="soopu-Orlova" data-name="Orlová"/>
    <path d="M694.075183,362.160862L693.950267,362.342475L690.057118,369.604996L686.552842,370.954699L683.240523,376.786742L683.216347,376.871432L683.191266,376.959296L679.262583,384.347863L672.795461,386.553222L668.098726,392.578511L659.688037,390.041624L646.647584,406.117418L640.688132,408.666203L634.590663,404.190292L630.692021,404.700910L621.300784,411.984803L621.057720,411.756035L621.152940,411.643049L616.985762,407.770476L605.208795,409.753074L603.684158,411.702422L592.130332,400.249250L590.544127,406.841875L580.867425,397.526007L576.534803,391.128891L576.551711,391.111314L575.612515,391.168917L564.443762,390.090356L556.515123,383.019879L556.903891,398.303039L550.824532,400.436645L541.915326,411.970511L536.886014,410.321166L536.514713,414.452346L539.934414,426.891498L547.725818,440.832046L534.345663,449.203163L534.208177,449.282816L534.170031,449.307164L541.726163,456.393787L546.435153,466.043355L550.019331,490.037275L557.329356,489.216379L566.092096,485.165987L577.063803,497.471961L585.495611,498.809242L597.764314,496.929597L601.217636,502.934659L606.515582,501.823362L611.384218,510.494653L604.775119,515.917676L600.194699,523.311075L594.457539,525.181536L590.646345,529.718634L590.478674,529.808009L590.530209,529.887598L607.368565,545.852139L616.040945,552.458767L621.196856,559.980100L623.460249,558.505982L623.704470,558.263369L623.728418,557.858743L637.292989,543.107854L642.388198,540.968233L631.466933,520.678056L637.132685,518.645638L652.826700,525.153075L654.977927,530.557212L665.547770,528.295697L663.951557,523.635896L665.335226,516.384754L682.033089,509.639829L682.194152,509.774062L682.423757,509.354273L686.661998,498.367664L681.097829,491.382960L682.588546,484.452485L690.384029,485.810828L700.847423,482.659025L710.887504,490.053073L715.137618,484.868551L720.445691,494.355031L714.881683,499.784413L713.782373,507.100209L720.032521,508.600742L717.279229,518.150556L717.165618,518.294349L717.184566,518.296455L735.562513,513.025130L738.778393,505.438477L741.084728,503.330563L741.094191,503.318983L741.062986,503.300500L741.660932,488.415743L746.864728,489.452319L750.998566,480.541384L741.661127,473.568476L738.356102,466.292272L741.150975,455.863320L741.135598,455.802009L741.014296,455.774696L734.271542,448.760636L725.649908,459.504151L719.148480,448.688171L718.778616,443.385930L721.194785,427.703061L721.375011,427.219452L721.310734,427.100314L709.357509,422.263749L711.357688,407.544106L709.373790,399.566663L704.368255,390.782831L687.952781,396.135173L696.961153,369.011927L693.914069,362.753010L694.075183,362.160862Z " data-code="soopu-Ostrava" data-name="Ostrava"/>
    <path d="M682.194152,509.774062L682.362484,509.918259L699.112908,515.814604L705.003684,515.336898L706.787291,502.214880L710.299606,504.110008L711.594304,516.283848L717.146751,518.292235L717.165618,518.294349L717.279229,518.150556L720.032521,508.600742L713.782373,507.100209L714.881683,499.784413L720.445691,494.355031L715.137618,484.868551L710.887504,490.053073L700.847423,482.659025L690.384029,485.810828L682.588546,484.452485L681.097829,491.382960L686.661998,498.367664L682.423757,509.354273L682.194152,509.774062Z " data-code="soopu-Vratimov" data-name="Vratimov"/>
    <path d="M60.260974,207.100825L61.503351,226.834146L52.466712,241.642275L46.636928,244.524157L34.136154,255.535887L23.004601,279.805711L26.129729,288.909974L21.447962,303.766672L40.270315,322.706727L43.116274,329.015182L35.181438,343.612843L30.599751,343.529244L19.778183,353.381220L21.597261,362.655680L25.700678,365.310293L15.834250,382.409557L10.319015,389.120837L19.246321,403.632829L22.133938,404.767074L31.574579,423.994720L37.256284,418.103425L50.626185,415.911273L45.232196,440.377519L49.121723,447.663987L59.233782,441.064666L78.680063,446.825175L75.906919,436.058845L81.043224,431.830956L89.824758,430.140890L100.358457,422.611308L108.913212,413.456146L115.061081,415.636613L131.477263,407.847173L136.139740,414.002948L145.352944,422.163587L145.370513,422.217750L157.607272,410.351460L151.342903,404.533152L157.330510,379.257437L160.883047,372.994042L169.613040,370.317090L172.472698,357.772525L158.240646,357.606633L155.288151,355.588891L150.833269,334.335304L141.748404,331.621731L129.686118,325.814514L130.009591,315.907574L112.252899,295.428719L108.578123,285.396397L116.255662,279.845791L114.359554,272.442725L116.833154,265.976542L117.128896,252.660836L110.805394,249.995838L116.166362,244.908397L109.805139,241.835638L100.181772,216.473828L100.179582,216.424640L100.159799,216.429476L102.028949,211.289967L91.150299,205.147124L89.757430,198.532276L86.707078,201.080118L83.897939,191.966465L69.761599,197.817191L60.612248,206.532203L60.260974,207.100825Z " data-code="soopu-Rymarov" data-name="Rýmařov"/>
    <path d="M877.920348,537.455175L874.996175,546.118379L872.866722,563.090139L869.810528,566.536567L859.646963,571.754160L854.122652,581.656683L847.281570,574.778463L858.398197,560.599826L848.818911,549.097550L841.080904,544.762355L835.187529,545.634843L831.779085,549.845346L831.661019,549.954551L831.668503,549.990992L831.602689,555.886656L825.275865,555.527485L818.964274,566.069055L815.616951,567.889488L806.365853,595.467471L801.531094,597.051651L796.169971,602.852309L804.816950,619.842542L812.831694,625.242127L835.097067,630.658153L840.958204,636.254970L845.263016,645.364963L864.473617,652.100473L876.820095,666.047208L877.955134,675.728859L877.777005,676.419490L878.140468,676.631252L898.567834,679.284305L903.232076,668.921754L914.164562,658.783406L915.357119,649.262381L915.368132,649.204075L915.371140,649.188146L928.617025,629.965823L933.748795,624.908403L946.058243,623.954812L954.995434,624.756274L967.292545,621.491493L971.677562,631.316625L979.338310,636.107371L991.015865,638.546374L991.236584,638.081481L991.618700,630.481471L988.542993,624.889473L987.272608,614.977342L981.524857,594.512875L981.410716,586.010316L977.252607,572.188100L951.322799,571.195025L942.410323,574.950287L938.277665,569.804460L930.265103,569.003616L926.290109,557.256689L923.798166,558.071055L921.623147,549.802333L914.058323,547.940871L899.188051,550.957923L878.146391,537.518591L877.920348,537.455175Z " data-code="soopu-Trinec" data-name="Třinec"/>
    <path d="M272.838506,409.926532L272.831238,409.973891L272.421383,414.860080L260.674403,420.063724L259.502105,427.186142L263.871701,432.512744L260.490561,433.946602L253.918068,451.939534L245.157595,457.360533L245.126445,457.365021L245.087656,457.370699L240.950987,465.763509L238.769152,469.532854L229.807973,474.235127L229.762335,474.271281L227.196234,483.760412L231.892322,492.122703L254.233450,504.655050L258.152151,504.073017L268.412759,509.780203L281.622665,511.279248L284.985164,506.414065L289.937228,507.330158L310.542048,504.256314L318.118306,495.704514L322.461752,499.701996L329.607514,521.149018L327.881343,522.124003L330.700217,533.489543L330.789061,533.640383L337.310266,534.381877L341.150538,531.000972L343.823088,536.514119L357.801914,525.813493L371.017699,526.284299L374.638875,517.260996L375.340649,507.347503L383.045280,503.016736L392.467885,512.480618L392.714553,512.720365L392.714611,512.650276L395.737267,503.527128L411.708728,499.957168L425.127980,506.587539L428.964987,494.994078L440.997322,499.831239L445.673526,492.082930L458.782017,481.414289L458.670388,481.073370L458.666588,480.879499L440.391915,463.528030L457.144748,437.386007L457.148947,437.211012L457.149390,437.192594L451.986506,428.002207L431.122254,433.531989L412.742511,439.814359L409.699737,437.583163L405.393836,444.430350L399.692244,445.962283L382.739166,428.333601L383.911294,423.176102L388.883520,424.485208L387.925515,418.755947L376.280074,406.496685L363.696385,407.316210L359.503218,403.338842L341.431009,405.759029L323.453808,398.409190L307.877480,404.290483L302.712597,410.577190L307.542992,437.847252L305.784402,440.150488L294.704107,438.573731L299.706078,428.669245L291.772203,425.196892L287.710650,418.371659L281.262009,412.084847L272.927676,409.872328L272.838506,409.926532Z " data-code="soopu-Vitkov" data-name="Vítkov"/>
  </g>
</svg>
