<?xml version="1.0" encoding="utf-8"?>
<!DOCTYPE svg PUBLIC "-//W3C//DTD SVG 1.1//EN" "http://www.w3.org/Graphics/SVG/1.1/DTD/svg11.dtd">
<svg xmlns="http://www.w3.org/2000/svg" xmlns:xlink="http://www.w3.org/1999/xlink" enable_background="new 0 0 1000 608" height="608px" pretty_print="False" style="stroke-linejoin: round; stroke:#000; fill: none;" version="1.1" viewBox="0 0 1000 608" width="1000px">
  <defs>
    <style type="text/css"><![CDATA[path { fill-rule: evenodd; }]]></style>
  </defs>
  <metadata>
    <views>
      <view h="608.482273164" padding="0" w="1000">
        <proj id="laea" lat0="49.8926865532" lon0="16.1186566405"/>
        <bbox h="7.35" w="12.11" x="993.83" y="996.3"/>
      </view>
    </views>
  </metadata>
  <g class="" id="bg">
    <path d="M-10000.0,-10000.0L-10000.0,10000.0L10000.0,10000.0L10000.0,-10000.0Z "/>
    <path d="M705.919095,606.482273L784.081626,598.484250L789.880700,593.620994L792.001831,589.449119L793.195489,582.788822L793.957848,574.241165L797.307335,569.771233L803.014770,567.344683L838.210811,566.989122L843.216613,568.252758L851.456932,572.188593L857.488034,572.862207L879.697438,571.090706L896.164826,572.496716L911.636137,577.785693L944.829005,594.278612L951.974075,592.638491L958.490929,585.691292L962.335303,570.302490L963.987657,549.879002L965.455623,542.607941L985.578380,521.316431L980.358127,486.811923L973.729002,476.989221L963.079756,473.040134L959.678223,469.436922L957.183526,463.756470L955.294458,446.652945L927.573590,391.474858L916.949757,375.707020L913.123229,368.324505L911.696936,359.736795L912.655249,351.699876L923.076880,328.733811L921.949153,304.286977L922.337908,276.830470L921.667018,270.674502L916.639260,251.258773L913.803847,228.559240L912.540025,223.571035L910.675055,218.912015L906.023699,211.110877L905.567544,206.272521L907.665503,200.787263L918.796625,194.220884L921.218100,193.261268L925.162736,190.544153L938.418330,175.993180L958.389149,161.399816L961.308015,158.554943L963.098710,154.915203L964.066945,150.902826L963.500526,144.041919L962.662983,140.448858L958.397881,129.495602L959.218380,118.808626L975.096158,63.384027L999.176931,0.000000L999.176254,0.000180L991.275292,2.104540L978.200798,1.337702L965.287537,3.353652L950.786115,16.058307L939.220631,33.940183L932.263758,47.781999L924.405203,59.158277L909.994318,69.798400L890.110500,97.466661L863.604133,99.611925L836.109811,85.549015L813.514290,64.918331L744.324852,42.975293L740.936728,44.724707L738.301997,48.259519L736.361479,53.211115L735.056317,59.244380L734.130834,73.081065L732.768799,79.405267L728.975975,84.309070L661.550332,116.792111L657.828464,120.012808L655.100272,124.482677L652.094314,137.261549L649.669441,142.870808L646.437005,147.498179L642.569412,151.176580L633.619222,155.918924L575.208883,161.522352L565.071525,165.649884L555.581863,172.816248L530.226140,150.916493L522.685431,149.118752L519.597201,146.950144L509.257275,133.834527L506.744875,131.676292L501.031150,130.333757L493.624590,126.418143L485.876289,119.291979L479.394690,109.660595L474.551712,99.392178L470.608650,96.370013L433.090511,88.811207L427.947431,84.956223L425.002260,79.494332L423.651357,72.961614L423.515834,52.296827L422.851895,46.838778L420.938450,42.988688L417.332225,40.298289L399.260322,34.826224L372.049712,35.237881L365.922473,38.284119L324.240784,79.070323L320.519384,80.867570L317.783501,79.995868L315.096941,77.569883L312.545180,73.791248L308.014919,63.116107L302.091146,36.835449L299.598225,33.436570L296.194439,32.001654L263.752228,41.376196L259.614117,46.297729L256.570917,52.745393L247.808069,80.341779L244.616828,84.327827L240.421219,85.669124L235.393133,84.511739L208.956828,66.173664L205.565914,65.023248L185.554813,70.854732L175.948694,70.667028L150.576147,57.873252L140.650460,58.582010L127.986002,64.813940L87.920529,101.923643L82.895360,102.271412L47.025314,88.358067L36.194798,98.698973L34.644861,101.680902L33.865642,105.072872L33.813433,110.428889L34.509702,115.568534L36.838018,127.109309L37.004910,130.633480L36.668785,134.208700L35.346827,144.662932L29.533401,144.349024L16.201808,147.582392L4.048828,153.340476L0.823069,158.261030L8.197797,170.381026L12.904417,175.271160L28.124365,185.364678L50.290321,192.835181L54.833583,195.874537L78.494096,219.124719L83.739439,222.961487L92.348442,225.506892L96.888346,227.904856L101.631256,231.892010L107.699735,239.255533L108.565112,244.283588L107.098667,249.370820L105.341577,253.013066L104.511037,255.980776L104.071688,260.371894L103.485802,280.719322L102.705123,286.292959L101.129101,292.217815L97.792921,301.840511L95.067904,312.318031L94.076742,320.461763L122.334208,339.568764L134.850146,354.616800L151.565909,382.417980L158.466007,390.217153L162.276185,392.290583L212.369268,388.570667L223.838742,391.814406L253.679686,415.461490L271.276075,419.754359L280.376278,425.522887L283.882314,429.475237L286.230056,434.137758L287.599486,444.409251L289.187566,447.927607L291.705052,450.465992L308.693501,458.857776L319.384303,467.476961L328.345157,479.688145L338.639149,500.792156L355.288819,505.308751L360.012067,502.930321L365.741961,502.421808L374.699888,506.338517L381.942405,508.381767L388.076672,508.318991L394.509519,504.286491L404.674718,492.758030L407.845668,490.997902L415.197516,488.340005L418.253135,486.031065L420.617438,482.032191L423.783882,473.830128L425.320821,471.204981L428.086149,468.682477L432.061335,468.744808L436.539825,470.596708L445.754651,476.916235L454.626822,481.422153L464.412561,484.909750L479.550519,488.152960L486.894961,492.204826L491.579040,496.970347L493.515484,502.181882L495.655077,506.677743L500.558625,510.201258L507.734538,511.834655L521.927475,510.435424L538.869697,511.222255L552.183701,515.226974L571.584622,524.990822L596.360616,541.424825L604.959340,548.666190L610.896382,556.068135L615.097534,563.629651L619.747102,570.328793L626.813382,575.366881L650.045187,583.793644L677.126613,601.198274L690.026477,605.122609L705.919095,606.482273Z "/>
  </g>
  <g class="" id="soorp">
    <path d="M675.537746,264.861196L675.471523,265.388381L680.776018,281.171696L691.247034,284.965004L701.883757,300.122506L690.528223,298.407026L677.593502,299.143004L674.470269,304.134773L697.543814,312.497408L707.044500,325.612781L707.397512,328.510417L720.334838,345.925619L721.262710,346.937159L722.432221,346.251337L734.020537,344.567516L743.115804,348.936963L779.347859,343.195375L779.475665,343.207581L779.491918,343.209121L783.487363,334.153689L774.403707,328.163327L773.371317,321.547270L769.522858,316.272961L769.623734,302.597177L768.134438,295.517075L774.487230,285.442177L768.798229,264.663569L761.467043,250.718558L761.216789,249.344770L761.228131,249.276862L752.321457,253.979523L752.000603,257.725806L738.985414,258.263449L718.260756,264.741852L716.965293,267.125860L706.483149,269.627705L704.312142,262.936664L684.250404,261.817992L675.965616,265.151666L675.537746,264.861196Z " data-code="soorp-Ceska_Trebova" data-name="Česká Třebová"/>
    <path d="M348.441811,332.418708L348.045142,332.654447L342.117865,343.867543L341.396185,348.598068L339.122844,348.823708L338.684851,348.872300L338.690255,348.928429L333.387877,351.326963L328.802214,349.540738L323.619973,352.771921L329.610179,355.298077L327.870015,361.914510L337.592271,365.862072L343.787401,365.250980L342.056661,371.193269L331.107158,381.225961L334.712647,391.886789L322.628846,390.462046L315.635843,375.135199L308.136340,374.066201L301.620089,378.189501L301.771700,382.329953L289.860907,391.168269L287.840720,390.396831L286.324130,398.970865L293.350622,406.587854L289.322405,409.788524L284.693804,405.350150L283.505305,416.338584L280.774623,419.260775L280.940225,419.438895L289.427988,418.342530L284.311261,435.057041L285.217955,442.903508L302.225207,441.697022L305.115356,439.797257L316.316874,446.145423L319.063916,454.709300L322.585917,458.027205L331.441658,458.839242L334.994550,461.949070L342.365859,455.883422L338.957456,469.855447L332.878095,480.971554L340.400919,491.250704L346.925683,497.281616L353.822280,496.267852L363.677568,502.586354L370.166017,501.658102L375.311432,511.430583L390.101805,511.638353L394.101373,513.727649L406.003276,508.966201L403.508574,503.058175L404.741824,497.684565L414.514040,496.234833L414.188206,481.241410L430.030621,466.344020L433.980880,460.152538L439.112451,464.268039L437.458302,466.763611L443.161336,480.840179L448.996350,483.845382L454.945459,482.662182L464.009122,488.625232L466.858292,483.853223L478.512167,486.506444L478.747022,486.411087L497.456675,483.480003L489.855850,476.007521L481.535859,470.682412L487.218343,455.272052L476.858717,446.154595L477.621937,437.770641L494.063233,433.417559L504.916023,441.320695L507.798409,437.083226L519.342035,445.297749L519.399731,445.225429L519.364623,445.184322L499.403256,421.678472L486.033861,421.655305L478.347833,415.469233L470.030069,406.187526L467.548885,397.964061L456.088509,388.263858L449.361892,391.181497L447.340256,400.347248L442.631023,392.975309L427.703224,390.633560L421.924495,386.038919L406.839598,389.302795L408.785080,394.147724L392.446320,402.063418L391.023409,397.495870L395.086737,394.987187L393.319201,360.693879L393.628195,360.742689L393.724965,360.757976L395.612917,349.738539L387.527117,347.080172L375.604038,362.660525L369.274815,365.583751L371.506946,355.703302L377.479184,346.720899L377.525814,346.610424L377.238060,346.253345L368.585534,337.045933L365.730941,341.541716L359.436856,341.119472L348.582106,332.697754L348.441811,332.418708Z " data-code="soorp-Hlinsko" data-name="Hlinsko"/>
    <path d="M348.432115,44.535976L349.128300,68.359165L357.011927,78.065677L365.995631,76.060360L371.677317,80.483334L368.259150,86.809198L378.678353,93.678017L366.701691,104.248174L369.553589,104.239631L365.070597,120.578776L371.279368,120.880603L372.233964,135.916117L387.981581,152.065820L386.363902,159.378911L385.993732,159.790948L386.083487,159.935672L400.592914,159.529667L405.630588,165.670629L404.228154,168.405385L407.775765,179.706334L412.520694,187.101305L419.342846,190.361366L435.117593,190.129630L434.974129,200.428536L439.492107,203.674933L439.515139,203.689973L439.534787,203.702731L450.446286,207.178632L458.981008,216.268099L459.983725,216.522814L460.360598,216.589031L472.432900,213.045107L476.515255,198.737939L475.958808,191.929920L493.192077,186.639496L494.620746,182.524043L486.063598,175.564254L488.376571,174.704791L489.977579,165.814199L492.680906,167.308320L492.941934,167.995845L492.998703,167.970896L507.673581,175.142280L510.638920,171.338281L512.909928,161.164757L522.520737,144.443821L523.959803,130.921408L523.212861,130.305862L508.790103,111.005181L484.653813,107.853048L474.728730,80.384604L440.326359,80.147032L439.399588,78.702920L439.407164,46.121789L433.549931,46.051781L428.134393,34.567439L409.998167,34.360164L400.605162,28.079365L394.060449,30.926250L382.646808,21.578035L379.241245,20.921181L379.419247,27.554552L365.688841,29.427004L359.978153,33.420694L348.883808,44.542381L348.432115,44.535976Z " data-code="soorp-Holice" data-name="Holice"/>
    <path d="M255.092208,216.762935L253.428780,216.591045L240.482065,214.613164L235.249934,221.198681L220.493218,215.788826L220.426307,215.751560L219.371580,215.324639L211.914904,226.881702L206.250363,228.909197L206.633789,233.315442L194.683632,245.203910L191.885313,243.953407L183.329662,249.941301L176.499779,251.728715L171.802834,249.821407L162.209852,251.986246L161.981414,255.797433L151.709689,248.886512L148.657606,252.827450L142.993293,254.089381L132.872182,246.417880L125.520714,246.566083L125.417834,246.652250L116.592650,251.189305L116.672678,254.274299L127.203278,264.774351L127.304404,264.798290L127.214678,264.967425L128.411989,267.231062L122.107979,271.338194L115.950573,295.578545L103.190641,297.875695L107.946136,310.911118L106.158071,323.163239L102.407796,325.810725L114.072486,343.075842L116.588421,343.095863L128.932860,355.853982L136.372227,357.675443L139.200287,362.423117L144.257092,363.437940L152.297008,369.459002L154.509217,376.083624L158.664121,376.822446L177.431502,388.289539L182.672339,387.660007L195.693423,381.280303L194.609621,384.424809L199.144790,389.498190L207.010084,389.447567L211.234480,380.609940L219.660942,387.904260L224.160351,385.699433L226.451089,394.769770L236.337796,398.212353L240.788562,393.612079L241.099485,393.365554L241.214842,393.370905L244.008025,403.687202L254.298033,415.352459L260.152948,417.847969L270.646678,415.292981L280.629923,419.340331L280.774623,419.260775L283.505305,416.338584L284.693804,405.350150L289.322405,409.788524L293.350622,406.587854L286.324130,398.970865L287.840720,390.396831L289.860907,391.168269L301.771700,382.329953L301.620089,378.189501L308.136340,374.066201L315.635843,375.135199L322.628846,390.462046L334.712647,391.886789L331.107158,381.225961L342.056661,371.193269L343.787401,365.250980L337.592271,365.862072L327.870015,361.914510L329.610179,355.298077L323.619973,352.771921L328.802214,349.540738L333.387877,351.326963L338.690255,348.928429L338.684851,348.872300L339.122844,348.823708L341.396185,348.598068L342.117865,343.867543L348.045142,332.654447L348.441811,332.418708L348.582106,332.697754L359.436856,341.119472L365.730941,341.541716L368.585534,337.045933L377.238060,346.253345L377.525814,346.610424L377.479184,346.720899L371.506946,355.703302L369.274815,365.583751L375.604038,362.660525L387.527117,347.080172L395.612917,349.738539L393.724965,360.757976L393.628196,360.742689L393.319201,360.693879L395.086737,394.987187L391.023409,397.495870L392.446320,402.063418L408.785080,394.147724L406.839598,389.302795L421.924495,386.038919L427.703224,390.633560L442.631023,392.975309L447.340256,400.347248L449.361892,391.181497L456.088509,388.263858L467.548885,397.964061L470.030069,406.187526L478.347833,415.469233L486.033861,421.655305L499.403256,421.678472L519.364623,445.184322L519.399731,445.225429L519.705537,445.442153L523.112858,444.310034L526.419055,440.137894L527.722595,437.943821L527.782239,437.613688L527.455522,437.525860L528.926146,427.964387L526.435740,423.012297L530.667173,410.289438L533.844404,406.404582L529.722894,382.211516L532.353593,372.173942L530.663499,364.868052L530.643002,364.729732L530.516920,364.732617L525.154420,361.337874L512.191825,363.825736L516.803933,356.458362L505.263078,351.922452L498.249333,338.293973L493.283921,335.911835L479.460376,323.220555L484.787972,321.148088L495.638711,312.161356L489.178233,311.921720L481.610435,302.511225L476.598264,302.474895L472.147086,288.762350L476.718802,285.841460L474.880269,277.064717L474.919474,277.049248L474.964646,277.033738L478.133855,265.828271L477.057984,250.039307L473.347148,250.899818L462.992226,240.227421L457.390431,240.840689L461.779078,224.924728L459.990740,216.543196L459.983725,216.522814L458.981008,216.268099L450.446286,207.178632L439.534787,203.702731L439.515139,203.689973L439.506429,203.724691L436.807080,213.557575L432.445026,215.667371L422.664466,215.121303L423.296359,223.203341L408.972383,223.071947L399.146416,218.048314L394.272486,209.007039L387.235166,208.574308L382.134168,201.337743L377.716153,208.763037L377.648138,209.053761L377.629144,209.043508L368.448054,202.320532L360.264075,202.805278L353.245677,211.906387L342.732632,202.384959L341.314764,198.797803L334.902749,199.233839L333.212862,193.656791L328.869740,195.594225L315.634362,214.194511L310.495394,209.580463L304.386107,219.209816L288.533388,214.763202L287.839425,211.974899L275.564665,211.864990L275.582904,206.164002L264.646838,204.319687L262.144545,208.189540L254.461424,211.025787L255.327686,215.653520L255.092208,216.762935Z " data-code="soorp-Chrudim" data-name="Chrudim"/>
    <path d="M959.506694,3.376996L959.349725,3.962456L958.984776,4.423342L958.696416,5.098427L958.652874,5.400312L958.245370,6.259227L958.241361,6.789428L954.492404,13.233200L949.109570,32.450204L943.804966,38.091432L942.891140,46.117571L929.875717,54.633463L920.324859,55.571986L909.028166,74.250669L903.440859,88.622710L890.976796,94.634332L885.328243,93.260956L872.613175,86.738875L850.305782,80.111263L846.648814,80.286555L842.119373,72.287570L842.092753,72.246784L832.859097,82.260196L831.134004,87.612319L818.658107,89.525551L820.247544,105.703207L814.633801,110.438470L814.575955,110.528670L814.881757,110.554313L819.790085,114.582735L825.099958,111.930249L828.279641,101.733524L832.883084,101.176670L858.710541,115.123798L864.563008,114.527417L880.929733,129.850338L882.184669,138.405755L894.210538,160.840492L894.272525,161.382393L894.300667,161.485462L892.809397,171.083359L897.877483,175.697098L898.823579,193.819336L899.237979,193.553550L921.696583,192.987792L922.863257,198.548132L931.806929,187.379324L935.589646,185.749867L943.510426,168.627614L959.664348,163.194974L962.932314,159.550935L961.162893,153.525801L968.239798,147.401461L960.114823,139.034821L960.984983,128.863551L955.624575,120.447612L962.588592,110.891361L967.394580,107.646105L963.861340,92.913225L958.654338,82.908000L971.978811,76.229392L971.224648,66.736771L979.603247,51.624235L982.934856,40.729937L982.948342,40.667960L983.047084,40.488867L987.968715,21.763458L997.506312,12.497820L998.522008,0.000000L961.146068,0.000000L959.838217,2.701831L959.506694,3.376996Z " data-code="soorp-Kraliky" data-name="Králíky"/>
    <path d="M894.272525,161.382393L894.257198,161.400184L886.328544,169.488298L880.634125,171.340923L869.220004,169.907807L873.917784,175.638801L859.221062,186.720839L855.962760,186.821302L845.900747,208.266868L842.567132,205.724392L815.952175,197.381726L799.172104,202.852251L799.309854,198.589757L790.921995,191.200513L790.965199,190.975840L790.950598,190.976689L791.238138,195.220402L786.892977,196.813498L779.719295,196.276209L779.482432,196.327299L779.503626,196.458805L780.511570,213.910322L784.717497,216.863083L790.867718,224.102660L790.883314,224.131490L790.888688,224.141427L788.511806,235.078380L780.576957,237.415279L761.227180,249.336021L761.216789,249.344770L761.467043,250.718558L768.798229,264.663569L774.487230,285.442177L768.134438,295.517075L769.623734,302.597177L769.522858,316.272961L773.371317,321.547270L774.403707,328.163327L783.487363,334.153689L779.491918,343.209121L779.475665,343.207581L779.321239,343.309630L788.293075,365.380255L785.000468,376.647060L790.540935,378.710717L805.773007,378.131331L805.791561,378.128092L805.789573,377.935593L806.764265,361.741896L831.062631,349.449209L833.964760,343.671867L842.401378,339.301513L843.533901,335.973651L863.955053,343.533818L867.893789,341.237796L894.983382,347.758543L899.327081,347.071514L915.120970,349.762540L917.831353,346.850008L918.020839,336.871108L918.055548,336.748092L919.367318,331.559337L931.482732,326.871748L937.125267,320.679532L931.914443,318.522463L924.493083,300.540958L929.151182,294.528054L926.509324,287.150334L928.990602,282.459611L927.931479,273.852311L921.729431,269.789090L914.049343,225.293303L911.356206,222.761585L910.112599,214.511271L903.002557,208.070883L899.185011,194.218021L898.823579,193.819336L897.877483,175.697098L892.809397,171.083359L894.300667,161.485462L894.272525,161.382393Z " data-code="soorp-Lanskroun" data-name="Lanškroun"/>
    <path d="M618.987021,257.464459L618.592421,257.648187L612.750057,282.060262L595.948765,276.242813L597.937784,273.832879L585.835097,266.881770L582.649506,273.468844L568.437793,265.793309L571.515675,289.903082L566.366260,293.490041L569.457657,301.938890L568.345048,307.382630L563.977993,311.632058L557.441556,311.138449L553.236329,313.932227L547.563221,309.451351L539.224697,318.641827L532.147910,321.697516L526.891488,333.838730L531.204009,340.149316L534.770823,337.859774L535.979422,351.427729L529.345887,360.084418L530.656157,364.672023L530.643002,364.729732L530.663499,364.868052L532.353593,372.173942L529.722894,382.211516L533.844404,406.404582L530.667173,410.289438L526.435740,423.012297L528.926146,427.964387L527.455522,437.525860L527.782239,437.613688L527.864936,437.621041L549.524562,440.425001L560.084374,445.509219L565.684163,445.596149L585.490453,438.118453L591.644579,439.159288L594.739856,447.400734L598.372594,449.344630L601.606491,441.831751L606.742984,439.747591L624.969196,447.636170L633.488092,444.025551L632.882901,452.030009L638.027728,449.035292L644.501344,452.302311L655.064308,443.940296L655.224441,443.839892L655.238751,443.827653L665.307462,425.419133L682.374036,413.602968L694.780555,416.726233L700.060305,413.202495L699.585348,393.642686L704.786472,388.641000L699.406670,384.270585L715.299679,376.258079L717.334201,370.928235L725.979336,369.533119L728.492990,360.424579L720.985199,348.191472L721.262710,346.937159L720.334838,345.925619L707.397512,328.510417L707.044500,325.612781L697.543814,312.497408L674.470269,304.134773L677.593502,299.143004L690.528223,298.407026L701.883757,300.122506L691.247034,284.965004L680.776018,281.171696L675.471523,265.388381L675.537746,264.861196L675.379190,264.626638L656.399247,244.118988L658.086787,241.709739L653.123190,233.909654L648.079735,230.205468L639.329273,236.080539L646.524091,239.384880L652.469594,247.156402L646.623957,249.100953L636.631002,249.056036L627.097023,255.949805L618.987983,257.488945L618.987021,257.464459Z " data-code="soorp-Litomysl" data-name="Litomyšl"/>
    <path d="M805.791561,378.128092L805.792758,378.608483L809.586876,388.022726L804.821002,396.796093L808.627977,420.369169L813.499651,436.586591L813.456517,449.211649L810.417705,466.444612L812.236809,475.573391L804.871311,483.118027L813.446612,498.040277L816.046371,510.275795L815.664665,516.376361L811.741978,518.278625L818.203449,535.218666L818.242498,535.227535L818.266735,535.257915L820.161350,543.904627L816.661712,559.042709L818.325273,560.733374L810.015243,569.571768L810.263856,569.675481L811.584097,573.434807L818.192547,576.634167L836.330398,577.077291L843.739518,567.593152L847.057950,570.786705L864.170159,579.055097L866.798322,575.326263L874.229015,573.099335L885.232279,576.495969L889.557661,575.589892L904.570389,580.207666L907.629422,584.745196L912.060179,585.044777L920.085278,590.041445L946.901190,603.286491L955.835801,601.870864L963.409286,593.945867L967.385082,571.659568L973.804367,577.382940L968.483794,567.546900L960.353112,559.745369L962.816193,554.142869L962.242250,543.479195L968.841413,534.690049L974.795819,532.916310L980.508217,524.691832L985.476358,522.315572L987.881384,512.564938L987.925591,512.337822L988.053219,512.066564L990.752492,498.534305L985.422225,492.069304L987.133454,478.673044L989.004337,476.217047L980.003786,468.840892L953.237496,471.060995L951.734056,468.963200L963.226979,456.583036L967.296581,448.716897L954.554462,440.633917L959.086493,427.015836L932.512205,398.677242L931.463247,379.513390L926.423480,372.744604L915.980175,365.242381L918.257292,353.431077L916.827008,348.270998L917.878988,336.959368L918.020839,336.871108L917.831353,346.850008L915.120970,349.762540L899.327081,347.071514L894.983382,347.758543L867.893789,341.237796L863.955053,343.533818L843.533901,335.973651L842.401378,339.301513L833.964760,343.671867L831.062631,349.449209L806.764265,361.741896L805.789573,377.935593L805.791561,378.128092Z " data-code="soorp-Moravska_Trebova" data-name="Moravská Třebová"/>
    <path d="M284.401214,18.296504L284.031653,18.206505L282.187106,21.875681L274.248754,22.707876L273.195965,27.481854L264.684173,30.045326L263.903057,47.472128L257.950766,50.035657L254.936502,57.967840L240.100950,54.105300L236.804115,54.622489L228.725621,64.540679L202.623534,53.826206L198.991184,58.144888L189.805078,53.544159L182.109404,54.886898L170.596004,54.178068L159.680238,43.386273L153.318407,40.876078L153.345259,48.324999L139.518693,55.604615L137.856959,51.236503L119.536841,67.748217L121.309766,74.477317L121.291318,74.536183L123.397956,72.716574L138.271812,83.239865L142.126583,73.541589L152.295643,81.451664L167.309478,84.369852L170.148193,102.644494L164.132448,104.876375L164.132062,104.892072L164.131845,104.900857L164.126863,105.526373L163.969977,105.497603L163.739924,105.524775L163.680594,105.532146L163.733915,105.753648L156.812359,104.597983L155.661914,112.420111L167.392791,121.624709L170.830832,112.361105L177.726182,105.952740L188.030508,108.571942L191.976248,115.652957L182.601797,124.459379L189.575963,145.836728L195.616721,151.082909L195.531577,151.176339L195.447180,151.094561L194.963946,156.325569L197.745869,170.415383L192.414496,179.043596L197.556565,192.829764L206.593389,200.982889L208.931511,196.717815L221.180751,210.806563L220.472132,215.640444L220.426307,215.751560L220.493218,215.788826L235.249934,221.198681L240.482065,214.613164L253.428780,216.591045L255.092208,216.762935L255.327686,215.653520L254.461424,211.025787L262.144545,208.189540L264.646838,204.319687L275.582904,206.164002L275.564665,211.864990L287.839425,211.974899L288.533388,214.763202L304.386107,219.209816L310.495394,209.580463L315.634362,214.194511L328.869740,195.594225L333.212862,193.656791L334.902749,199.233839L341.314764,198.797803L342.732632,202.384959L353.245677,211.906387L360.264075,202.805278L368.448054,202.320532L377.629144,209.043508L377.648138,209.053761L377.716153,208.763037L382.134168,201.337743L387.235166,208.574308L394.272486,209.007039L399.146416,218.048314L408.972383,223.071947L423.296359,223.203341L422.664466,215.121303L432.445026,215.667371L436.807080,213.557575L439.506429,203.724691L439.515139,203.689973L439.492107,203.674933L434.974129,200.428536L435.117593,190.129630L419.342846,190.361366L412.520694,187.101305L407.775765,179.706334L404.228154,168.405385L405.630588,165.670629L400.592914,159.529667L386.083487,159.935672L385.993732,159.790947L386.363902,159.378911L387.981581,152.065820L372.233964,135.916117L371.279368,120.880603L365.070597,120.578776L369.553589,104.239631L366.701691,104.248174L378.678353,93.678017L368.259150,86.809198L371.677317,80.483334L365.995631,76.060360L357.011927,78.065677L349.128300,68.359165L348.432115,44.535976L348.365506,44.533497L337.034869,44.266386L336.070833,52.579192L325.067183,57.076682L314.591843,56.063324L306.576198,51.855569L308.555832,31.425867L303.013430,28.608623L304.707907,23.455552L298.276484,23.481854L284.782096,17.331666L284.401214,18.296504Z " data-code="soorp-Pardubice" data-name="Pardubice"/>
    <path d="M729.846173,604.979145L719.498160,583.686616L727.610365,579.200238L728.001018,573.914464L712.493548,554.642756L703.445942,558.165904L700.501186,568.402235L693.720216,565.831811L683.417518,557.717145L679.412283,541.339456L686.551399,539.112761L685.427683,532.324567L697.615971,528.610991L694.050717,516.036517L681.431606,504.886629L670.789479,505.176784L668.202414,498.251567L680.537062,458.961167L672.750422,454.971009L668.504619,457.275992L658.897969,453.860537L655.468601,444.309681L655.224441,443.839892L655.064308,443.940296L644.501344,452.302311L638.027728,449.035292L632.882901,452.030009L633.488092,444.025551L624.969196,447.636170L606.742984,439.747591L601.606491,441.831751L598.372594,449.344630L594.739856,447.400734L591.644579,439.159288L585.490453,438.118453L565.684163,445.596149L560.084374,445.509219L549.524562,440.425001L527.864936,437.621041L527.782239,437.613688L527.722595,437.943821L526.419055,440.137894L523.112858,444.310034L519.705537,445.442153L519.399731,445.225429L519.342035,445.297749L507.798409,437.083226L504.916023,441.320695L494.063233,433.417559L477.621937,437.770641L476.858717,446.154595L487.218343,455.272052L481.535859,470.682412L489.855850,476.007521L497.456675,483.480003L478.747022,486.411087L478.757754,486.395665L485.725283,491.118411L491.349362,498.833912L490.749108,504.260788L499.547512,516.751495L509.010929,512.267810L530.319585,514.661841L550.370860,525.179555L556.808564,523.065914L567.226121,533.029737L578.183863,534.285253L608.965800,561.025031L613.512891,561.061043L611.903989,572.076884L618.903588,575.030454L623.577547,582.505721L627.732038,583.498407L632.876928,578.659032L659.373496,588.253384L669.194709,600.490892L676.140104,599.180672L680.416525,606.325858L718.228710,606.482273L729.585273,605.117489L729.846173,604.979145Z " data-code="soorp-Policka" data-name="Polička"/>
    <path d="M49.201382,128.459029L48.563143,128.548766L37.527985,130.133982L36.037289,132.356738L25.777703,133.943945L30.020744,139.611512L34.104104,139.281397L38.469612,145.422683L25.304367,144.745764L23.370874,160.638999L36.138495,171.492899L51.685048,171.305550L60.906589,175.876326L54.453263,181.535526L68.808521,185.510654L78.711705,182.286592L79.174198,195.489233L82.856913,191.488052L88.155195,199.586228L87.144294,200.249058L86.820545,200.575530L80.345453,206.074588L90.534393,213.855449L125.434566,231.565622L125.562444,246.534110L125.520714,246.566083L132.872182,246.417880L142.993293,254.089381L148.657606,252.827450L151.709689,248.886512L161.981414,255.797433L162.209852,251.986246L171.802834,249.821407L176.499779,251.728715L183.329662,249.941301L191.885313,243.953407L194.683632,245.203910L206.633789,233.315442L206.250363,228.909197L211.914904,226.881702L219.371580,215.324639L220.426307,215.751560L220.472132,215.640444L221.180751,210.806563L208.931511,196.717815L206.593389,200.982889L197.556565,192.829764L192.414496,179.043596L197.745869,170.415383L194.963946,156.325569L195.447180,151.094561L195.531577,151.176339L195.616721,151.082909L189.575963,145.836728L182.601797,124.459379L191.976248,115.652957L188.030508,108.571942L177.726182,105.952740L170.830832,112.361105L167.392791,121.624709L155.661914,112.420111L156.812359,104.597983L163.733915,105.753648L163.680595,105.532145L163.739924,105.524775L163.969977,105.497603L164.126863,105.526373L164.131845,104.900857L164.132062,104.892071L164.132448,104.876375L170.148193,102.644494L167.309478,84.369852L152.295643,81.451664L142.126583,73.541589L138.271812,83.239865L123.397956,72.716574L121.291318,74.536183L121.055114,74.355870L116.698350,70.374131L112.523572,76.323521L103.553062,76.871289L93.205055,84.631236L86.333932,91.814919L76.439583,95.401595L63.994588,79.974492L65.142857,88.532713L57.804479,90.827471L53.849363,84.494409L46.519128,85.396470L40.723323,95.349756L47.683139,100.379898L54.078567,99.381375L47.007863,105.634503L49.894462,116.849002L49.279738,127.731016L49.201382,128.459029Z " data-code="soorp-Prelouc" data-name="Přelouč"/>
    <path d="M810.015243,569.571768L818.325273,560.733374L816.661712,559.042709L820.161350,543.904627L818.266735,535.257915L818.242498,535.227535L818.203449,535.218666L811.741978,518.278625L815.664665,516.376361L816.046371,510.275795L813.446612,498.040277L804.871311,483.118027L812.236809,475.573391L810.417705,466.444612L813.456517,449.211649L813.499651,436.586591L808.627977,420.369169L804.821002,396.796093L809.586876,388.022726L805.792758,378.608483L805.791561,378.128092L805.773007,378.131331L790.540935,378.710717L785.000468,376.647060L788.293075,365.380255L779.321239,343.309630L779.475665,343.207581L779.347859,343.195375L743.115804,348.936963L734.020537,344.567516L722.432221,346.251337L721.262710,346.937159L720.985199,348.191472L728.492990,360.424579L725.979336,369.533119L717.334201,370.928235L715.299679,376.258079L699.406670,384.270585L704.786472,388.641000L699.585348,393.642686L700.060305,413.202495L694.780555,416.726233L682.374036,413.602968L665.307462,425.419133L655.238751,443.827653L655.224441,443.839892L655.468601,444.309681L658.897969,453.860537L668.504619,457.275992L672.750422,454.971009L680.537062,458.961167L668.202414,498.251567L670.789479,505.176784L681.431606,504.886629L694.050717,516.036517L697.615971,528.610991L685.427683,532.324567L686.551399,539.112761L679.412283,541.339456L683.417518,557.717145L693.720216,565.831811L700.501186,568.402235L703.445942,558.165904L712.493548,554.642756L728.001018,573.914464L727.610365,579.200238L719.498160,583.686616L729.846173,604.979145L729.836585,605.004570L728.112755,606.482273L788.838319,606.482273L793.510405,590.411651L792.673295,584.282887L794.474410,572.293087L802.873003,571.926613L804.299451,574.207008L809.979630,569.657214L810.015243,569.571768Z " data-code="soorp-Svitavy" data-name="Svitavy"/>
    <path d="M666.110612,115.948358L656.322278,120.865780L649.694477,126.725608L640.049380,125.402780L640.583470,131.736068L645.159145,139.012022L647.580653,152.514686L632.968680,150.153904L632.564563,150.021275L629.287732,150.615695L634.818852,157.054783L632.088810,159.059532L637.135009,167.603210L640.742117,169.306975L640.921003,175.039486L627.811918,184.467098L616.918477,182.580709L616.248837,188.279239L605.249606,193.470373L602.837842,200.504750L617.514607,195.556642L623.391099,202.960805L622.771900,223.240449L613.106153,230.861758L614.978264,242.861765L614.814401,243.108696L615.030628,243.358365L614.699883,251.439500L617.127842,251.810054L618.987897,257.420692L618.987021,257.464459L618.987983,257.488945L627.097023,255.949805L636.631002,249.056036L646.623957,249.100953L652.469594,247.156402L646.524091,239.384880L639.329273,236.080539L648.079735,230.205468L653.123190,233.909654L658.086787,241.709739L656.399247,244.118988L675.379190,264.626638L675.537746,264.861196L675.965616,265.151666L684.250404,261.817992L704.312142,262.936664L706.483149,269.627705L716.965293,267.125860L718.260756,264.741852L738.985414,258.263449L752.000603,257.725806L752.321457,253.979523L761.228131,249.276862L761.216789,249.344770L761.227180,249.336021L780.576957,237.415279L788.511806,235.078380L790.888688,224.141427L790.883314,224.131491L790.867718,224.102660L784.717497,216.863083L780.511570,213.910322L779.503626,196.458805L779.482432,196.327299L779.477757,196.310518L771.693941,186.541167L752.104015,170.622047L741.612666,174.313398L734.029524,161.968749L727.009290,160.097852L718.915800,165.806828L702.474734,170.164385L697.276047,166.030908L699.387938,151.949527L688.898886,150.712984L688.454177,150.651165L688.108302,150.639060L684.507891,138.970802L673.421408,124.262801L669.408808,124.605935L672.493674,119.437162L666.573582,115.588205L666.110612,115.948358Z " data-code="soorp-Usti_nad_Orlici" data-name="Ústí nad Orlicí"/>
    <path d="M523.959803,130.921408L522.520737,144.443821L512.909928,161.164757L510.638920,171.338281L507.673581,175.142280L492.998703,167.970896L492.941934,167.995845L492.680906,167.308320L489.977579,165.814199L488.376571,174.704791L486.063598,175.564254L494.620746,182.524043L493.192077,186.639496L475.958808,191.929920L476.515255,198.737939L472.432900,213.045107L460.360598,216.589031L459.983725,216.522814L459.990740,216.543196L461.779078,224.924728L457.390431,240.840689L462.992226,240.227421L473.347148,250.899818L477.057984,250.039307L478.133855,265.828271L474.964646,277.033738L474.919474,277.049248L474.880269,277.064717L476.718802,285.841460L472.147086,288.762350L476.598264,302.474895L481.610435,302.511225L489.178233,311.921720L495.638711,312.161356L484.787972,321.148088L479.460376,323.220555L493.283921,335.911835L498.249333,338.293973L505.263078,351.922452L516.803933,356.458362L512.191825,363.825736L525.154420,361.337874L530.516920,364.732617L530.643002,364.729732L530.656157,364.672023L529.345887,360.084418L535.979422,351.427729L534.770823,337.859774L531.204009,340.149316L526.891488,333.838730L532.147910,321.697516L539.224697,318.641827L547.563221,309.451351L553.236329,313.932227L557.441556,311.138449L563.977993,311.632058L568.345048,307.382630L569.457657,301.938890L566.366260,293.490041L571.515675,289.903082L568.437793,265.793309L582.649506,273.468844L585.835097,266.881770L597.937784,273.832879L595.948765,276.242813L612.750057,282.060262L618.592421,257.648187L618.987021,257.464459L618.987897,257.420692L617.127842,251.810054L614.699883,251.439500L615.030628,243.358365L614.814401,243.108696L614.978264,242.861765L613.106153,230.861758L622.771900,223.240449L623.391099,202.960805L617.514607,195.556642L602.837842,200.504750L605.249606,193.470373L616.248837,188.279239L616.918477,182.580709L627.811918,184.467098L640.921003,175.039486L640.742117,169.306975L637.135009,167.603210L632.088810,159.059532L634.818852,157.054783L629.287732,150.615695L632.564563,150.021275L632.561239,149.410446L618.087415,142.587357L610.343202,148.153364L594.786416,148.029168L590.381809,139.201089L590.737179,146.266682L582.223831,150.047193L573.134845,149.101628L560.766168,155.304354L557.123096,146.098706L552.851934,142.980565L547.774536,134.831147L533.725592,131.467183L524.063040,130.740413L523.959803,130.921408Z " data-code="soorp-Vysoke_Myto" data-name="Vysoké Mýto"/>
    <path d="M666.573582,115.588205L672.493674,119.437162L669.408808,124.605935L673.421408,124.262801L684.507891,138.970802L688.108302,150.639060L688.454177,150.651165L688.898886,150.712984L699.387938,151.949527L697.276047,166.030908L702.474734,170.164385L718.915800,165.806828L727.009290,160.097852L734.029524,161.968749L741.612666,174.313398L752.104015,170.622047L771.693941,186.541167L779.477757,196.310518L779.482432,196.327299L779.719295,196.276209L786.892977,196.813498L791.238138,195.220402L790.950598,190.976689L790.965199,190.975840L790.921995,191.200513L799.309854,198.589757L799.172104,202.852251L815.952175,197.381726L842.567132,205.724392L845.900747,208.266868L855.962760,186.821302L859.221062,186.720839L873.917784,175.638801L869.220004,169.907807L880.634125,171.340923L886.328544,169.488298L894.257198,161.400184L894.272525,161.382393L894.210538,160.840492L882.184669,138.405755L880.929733,129.850338L864.563008,114.527417L858.710541,115.123798L832.883084,101.176670L828.279641,101.733524L825.099958,111.930249L819.790085,114.582735L814.881757,110.554313L814.575955,110.528670L814.633801,110.438470L820.247544,105.703207L818.658107,89.525551L831.134004,87.612319L832.859097,82.260196L842.092753,72.246784L841.857422,71.886307L821.911339,51.549416L812.245926,49.193489L808.540649,51.401666L800.583101,50.467395L785.446582,41.198178L775.018231,40.119844L772.725299,31.677398L759.299356,25.542951L745.289237,27.962664L745.051519,45.592819L741.092130,54.960723L714.570509,66.426888L714.700166,70.450625L690.197168,74.266557L689.289285,78.354392L681.141794,88.637598L675.626306,92.173248L659.502452,97.184060L654.451668,104.503454L666.563931,115.577708L666.573582,115.588205Z " data-code="soorp-Zamberk" data-name="Žamberk"/>
  </g>
  <g class="" id="soopu">
    <path d="M675.537746,264.861196L675.471523,265.388381L680.776018,281.171696L691.247034,284.965004L701.883757,300.122506L690.528223,298.407026L677.593502,299.143004L674.470269,304.134773L697.543814,312.497408L707.044500,325.612781L707.397512,328.510417L720.334838,345.925619L721.262710,346.937159L722.432221,346.251337L734.020537,344.567516L743.115804,348.936963L779.347859,343.195375L779.475665,343.207581L779.491918,343.209121L783.487363,334.153689L774.403707,328.163327L773.371317,321.547270L769.522858,316.272961L769.623734,302.597177L768.134438,295.517075L774.487230,285.442177L768.798229,264.663569L761.467043,250.718558L761.216789,249.344770L761.228131,249.276862L752.321457,253.979523L752.000603,257.725806L738.985414,258.263449L718.260756,264.741852L716.965293,267.125860L706.483149,269.627705L704.312142,262.936664L684.250404,261.817992L675.965616,265.151666L675.537746,264.861196Z " data-code="soopu-Ceska_Trebova" data-name="Česká Třebová"/>
    <path d="M348.441811,332.418708L348.045142,332.654447L342.117865,343.867543L341.396185,348.598068L339.122844,348.823708L338.684851,348.872300L338.690255,348.928429L333.387877,351.326963L328.802214,349.540738L323.619973,352.771921L329.610179,355.298077L327.870015,361.914510L337.592271,365.862072L343.787401,365.250980L342.056661,371.193269L331.107158,381.225961L334.712647,391.886789L322.628846,390.462046L315.635843,375.135199L308.136340,374.066201L301.620089,378.189501L301.771700,382.329953L289.860907,391.168269L287.840720,390.396831L286.324130,398.970865L293.350622,406.587854L289.322405,409.788524L284.693804,405.350150L283.505305,416.338584L280.774623,419.260775L280.940225,419.438895L289.427988,418.342530L284.311261,435.057041L285.217955,442.903508L302.225207,441.697022L305.115356,439.797257L316.316874,446.145423L319.063916,454.709300L322.585917,458.027205L331.441658,458.839242L334.994550,461.949070L342.365859,455.883422L338.957456,469.855447L332.878095,480.971554L340.400919,491.250704L346.925683,497.281616L353.822280,496.267852L363.677568,502.586354L370.166017,501.658102L375.311432,511.430583L390.101805,511.638353L394.101373,513.727649L406.003276,508.966201L403.508574,503.058175L404.741824,497.684565L414.514040,496.234833L414.188206,481.241410L430.030621,466.344020L433.980880,460.152538L439.112451,464.268039L437.458302,466.763611L443.161336,480.840179L448.996350,483.845382L454.945459,482.662182L464.009122,488.625232L466.858292,483.853223L478.512167,486.506444L478.747022,486.411087L497.456675,483.480003L489.855850,476.007521L481.535859,470.682412L487.218343,455.272052L476.858717,446.154595L477.621937,437.770641L494.063233,433.417559L504.916023,441.320695L507.798409,437.083226L519.342035,445.297749L519.399731,445.225429L519.364623,445.184322L499.403256,421.678472L486.033861,421.655305L478.347833,415.469233L470.030069,406.187526L467.548885,397.964061L456.088509,388.263858L449.361892,391.181497L447.340256,400.347248L442.631023,392.975309L427.703224,390.633560L421.924495,386.038919L406.839598,389.302795L408.785080,394.147724L392.446320,402.063418L391.023409,397.495870L395.086737,394.987187L393.319201,360.693879L393.628195,360.742689L393.724965,360.757976L395.612917,349.738539L387.527117,347.080172L375.604038,362.660525L369.274815,365.583751L371.506946,355.703302L377.479184,346.720899L377.525814,346.610424L377.238060,346.253345L368.585534,337.045933L365.730941,341.541716L359.436856,341.119472L348.582106,332.697754L348.441811,332.418708Z " data-code="soopu-Hlinsko" data-name="Hlinsko"/>
    <path d="M348.432115,44.535976L349.128300,68.359165L357.011927,78.065677L365.995631,76.060360L371.677317,80.483334L368.259150,86.809198L378.678353,93.678017L366.701691,104.248174L369.553589,104.239631L365.070597,120.578776L371.279368,120.880603L372.233964,135.916117L387.981581,152.065820L386.363902,159.378911L385.993732,159.790948L386.083487,159.935672L400.592914,159.529667L405.630588,165.670629L404.228154,168.405385L407.775765,179.706334L412.520694,187.101305L419.342846,190.361366L435.117593,190.129630L434.974129,200.428536L439.492107,203.674933L439.515139,203.689973L439.534787,203.702731L450.446286,207.178632L458.981008,216.268099L459.983725,216.522814L460.360598,216.589031L472.432900,213.045107L476.515255,198.737939L475.958808,191.929920L493.192077,186.639496L494.620746,182.524043L486.063598,175.564254L488.376571,174.704791L489.977579,165.814199L492.680906,167.308320L492.941934,167.995845L492.998703,167.970896L507.673581,175.142280L510.638920,171.338281L512.909928,161.164757L522.520737,144.443821L523.959803,130.921408L523.212861,130.305862L508.790103,111.005181L484.653813,107.853048L474.728730,80.384604L440.326359,80.147032L439.399588,78.702920L439.407164,46.121789L433.549931,46.051781L428.134393,34.567439L409.998167,34.360164L400.605162,28.079365L394.060449,30.926250L382.646808,21.578035L379.241245,20.921181L379.419247,27.554552L365.688841,29.427004L359.978153,33.420694L348.883808,44.542381L348.432115,44.535976Z " data-code="soopu-Holice" data-name="Holice"/>
    <path d="M220.426307,215.751560L219.371580,215.324639L211.914904,226.881702L206.250363,228.909197L206.633789,233.315442L194.683632,245.203910L191.885313,243.953407L183.329662,249.941301L176.499779,251.728715L171.802834,249.821407L162.209852,251.986246L161.981414,255.797433L151.709689,248.886512L148.657606,252.827450L142.993293,254.089381L132.872182,246.417880L125.520714,246.566083L125.417834,246.652250L116.592650,251.189305L116.672678,254.274299L127.203278,264.774351L127.304404,264.798290L127.418374,264.847007L139.233259,271.660861L148.201422,272.382414L149.874369,276.207080L149.908734,290.510374L160.270840,312.072140L164.020339,310.592914L175.428057,313.959163L183.977198,309.283108L184.134548,309.267482L184.277874,309.253250L195.647584,311.368550L208.144517,311.759779L213.005050,320.536084L213.100345,320.841861L213.131671,320.829785L218.049610,326.002905L218.155587,313.395917L230.297159,313.671271L230.586367,313.647981L230.638489,313.554195L232.895698,306.899045L240.946280,306.726176L246.292997,301.282370L258.344336,277.771010L253.506922,274.362109L257.586293,262.946867L251.852442,264.090419L255.984734,259.425050L266.540670,252.882600L277.155187,251.263067L274.544014,244.991697L266.801985,246.626837L247.902285,241.623757L241.082219,241.690834L244.910522,234.327037L252.178297,231.998559L254.703147,226.479931L255.039465,217.044260L255.092208,216.762935L253.428780,216.591045L240.482065,214.613164L235.249934,221.198681L220.493218,215.788826L220.426307,215.751560Z " data-code="soopu-Hermanuv_Mestec" data-name="Heřmanův Městec"/>
    <path d="M377.648138,209.053761L377.566698,209.321063L376.646010,220.208324L365.887353,219.269524L360.040088,237.326320L353.765969,244.283320L347.548842,246.790210L352.065602,256.689529L342.165274,261.077515L342.720570,269.139670L338.273564,274.061862L340.997097,275.488053L343.052195,284.328774L337.074040,282.574656L335.295367,301.060033L342.795385,309.457968L351.189106,309.665616L347.905137,324.459568L350.634822,330.544040L348.315539,332.269606L348.441811,332.418708L348.582106,332.697754L359.436856,341.119472L365.730941,341.541716L368.585534,337.045933L377.238060,346.253345L377.525814,346.610424L377.795626,346.217265L382.530738,343.829664L385.640407,335.966293L393.068272,333.260259L397.888268,341.525992L404.755515,344.882142L405.535838,337.552750L422.005302,319.139082L423.700608,322.075832L429.805616,316.607198L416.411038,308.157297L420.734682,291.390771L427.207760,290.947367L430.000748,281.632906L450.678599,286.270634L460.028479,276.324794L469.493396,272.440574L475.052458,276.701672L474.919474,277.049248L474.964646,277.033738L478.133855,265.828271L477.057984,250.039307L473.347148,250.899818L462.992226,240.227421L457.390431,240.840689L461.779078,224.924728L459.990740,216.543196L459.983725,216.522814L458.981008,216.268099L450.446286,207.178632L439.534787,203.702731L439.515139,203.689973L439.506429,203.724691L436.807080,213.557575L432.445026,215.667371L422.664466,215.121303L423.296359,223.203341L408.972383,223.071947L399.146416,218.048314L394.272486,209.007039L387.235166,208.574308L382.134168,201.337743L377.716153,208.763037L377.648138,209.053761Z " data-code="soopu-Chrast" data-name="Chrast"/>
    <path d="M255.092208,216.762935L255.039465,217.044260L254.703147,226.479931L252.178297,231.998559L244.910522,234.327037L241.082219,241.690834L247.902285,241.623757L266.801985,246.626837L274.544014,244.991697L277.155187,251.263067L266.540670,252.882600L255.984734,259.425050L251.852442,264.090419L257.586293,262.946867L253.506922,274.362109L258.344336,277.771010L246.292997,301.282370L240.946280,306.726176L232.895698,306.899045L230.638489,313.554195L230.586367,313.647981L230.574112,313.666157L232.254917,318.318795L243.797764,328.632907L243.823903,334.041113L247.958038,342.120622L250.042310,339.745029L274.642364,340.562344L282.529326,341.777616L287.380362,334.015804L299.694247,336.901042L310.872118,336.439822L312.257970,325.320608L317.169325,331.921107L324.440022,327.880389L327.873830,334.745139L338.576285,348.235013L338.684851,348.872300L339.122844,348.823708L341.396185,348.598068L342.117865,343.867543L348.045142,332.654447L348.441811,332.418708L348.315539,332.269606L350.634822,330.544040L347.905137,324.459568L351.189106,309.665616L342.795385,309.457968L335.295367,301.060033L337.074040,282.574656L343.052195,284.328774L340.997097,275.488053L338.273564,274.061862L342.720570,269.139670L342.165274,261.077515L352.065602,256.689529L347.548842,246.790210L353.765969,244.283320L360.040088,237.326320L365.887353,219.269524L376.646010,220.208324L377.566698,209.321063L377.648138,209.053761L377.629144,209.043508L368.448054,202.320532L360.264075,202.805278L353.245677,211.906387L342.732632,202.384959L341.314764,198.797803L334.902749,199.233839L333.212862,193.656791L328.869740,195.594225L315.634362,214.194511L310.495394,209.580463L304.386107,219.209816L288.533388,214.763202L287.839425,211.974899L275.564665,211.864990L275.582904,206.164002L264.646838,204.319687L262.144545,208.189540L254.461424,211.025787L255.327686,215.653520L255.092208,216.762935Z " data-code="soopu-Chrudim" data-name="Chrudim"/>
    <path d="M213.100345,320.841861L213.104269,320.854492L215.863826,332.817740L219.557796,335.604430L217.665961,359.808493L227.118698,367.981821L234.572096,368.619282L245.120976,387.223585L241.122033,393.144805L241.099485,393.365554L241.214842,393.370905L244.008025,403.687202L254.298033,415.352459L260.152948,417.847969L270.646678,415.292981L280.629923,419.340331L280.774623,419.260775L283.505305,416.338584L284.693804,405.350150L289.322405,409.788524L293.350622,406.587854L286.324130,398.970865L287.840720,390.396831L289.860907,391.168269L301.771700,382.329953L301.620089,378.189501L308.136340,374.066201L315.635843,375.135199L322.628846,390.462046L334.712647,391.886789L331.107158,381.225961L342.056661,371.193269L343.787401,365.250980L337.592271,365.862072L327.870015,361.914510L329.610179,355.298077L323.619973,352.771921L328.802214,349.540738L333.387877,351.326963L338.690255,348.928429L338.684851,348.872300L338.576285,348.235013L327.873830,334.745139L324.440022,327.880389L317.169325,331.921107L312.257970,325.320608L310.872118,336.439822L299.694247,336.901042L287.380362,334.015804L282.529326,341.777616L274.642364,340.562344L250.042310,339.745029L247.958038,342.120622L243.823903,334.041113L243.797764,328.632907L232.254917,318.318795L230.574112,313.666157L230.586367,313.647981L230.297159,313.671271L218.155587,313.395917L218.049610,326.002905L213.131671,320.829785L213.100345,320.841861Z " data-code="soopu-Nasavrky" data-name="Nasavrky"/>
    <path d="M377.525814,346.610424L377.479184,346.720899L371.506946,355.703302L369.274815,365.583751L375.604038,362.660525L387.527117,347.080172L395.612917,349.738539L393.724965,360.757976L393.628196,360.742689L393.319201,360.693879L395.086737,394.987187L391.023409,397.495870L392.446320,402.063418L408.785080,394.147724L406.839598,389.302795L421.924495,386.038919L427.703224,390.633560L442.631023,392.975309L447.340256,400.347248L449.361892,391.181497L456.088509,388.263858L467.548885,397.964061L470.030069,406.187526L478.347833,415.469233L486.033861,421.655305L499.403256,421.678472L519.364623,445.184322L519.399731,445.225429L519.705537,445.442153L523.112858,444.310034L526.419055,440.137894L527.722595,437.943821L527.782239,437.613688L527.455522,437.525860L528.926146,427.964387L526.435740,423.012297L530.667173,410.289438L533.844404,406.404582L529.722894,382.211516L532.353593,372.173942L530.663499,364.868052L530.643002,364.729732L530.516920,364.732617L525.154420,361.337874L512.191825,363.825736L516.803933,356.458362L505.263078,351.922452L498.249333,338.293973L493.283921,335.911835L479.460376,323.220555L484.787972,321.148088L495.638711,312.161356L489.178233,311.921720L481.610435,302.511225L476.598264,302.474895L472.147086,288.762350L476.718802,285.841460L474.880269,277.064717L474.919474,277.049248L475.052458,276.701672L469.493396,272.440574L460.028479,276.324794L450.678599,286.270634L430.000748,281.632906L427.207760,290.947367L420.734682,291.390771L416.411038,308.157297L429.805616,316.607198L423.700608,322.075832L422.005302,319.139082L405.535838,337.552750L404.755515,344.882142L397.888268,341.525992L393.068272,333.260259L385.640407,335.966293L382.530738,343.829664L377.795626,346.217265L377.525814,346.610424Z " data-code="soopu-Skutec" data-name="Skuteč"/>
    <path d="M127.304404,264.798290L127.214678,264.967425L128.411989,267.231062L122.107979,271.338194L115.950573,295.578545L103.190641,297.875695L107.946136,310.911118L106.158071,323.163239L102.407796,325.810725L114.072486,343.075842L116.588421,343.095863L128.932860,355.853982L136.372227,357.675443L139.200287,362.423117L144.257092,363.437940L152.297008,369.459002L154.509217,376.083624L158.664121,376.822446L177.431502,388.289539L182.672339,387.660007L195.693423,381.280303L194.609621,384.424809L199.144790,389.498190L207.010084,389.447567L211.234480,380.609940L219.660942,387.904260L224.160351,385.699433L226.451089,394.769770L236.337796,398.212353L240.788562,393.612079L241.099485,393.365554L241.122033,393.144805L245.120976,387.223585L234.572096,368.619282L227.118698,367.981821L217.665961,359.808493L219.557796,335.604430L215.863826,332.817740L213.104269,320.854492L213.100345,320.841861L213.005050,320.536084L208.144517,311.759779L195.647584,311.368550L184.277874,309.253250L184.134549,309.267483L183.977198,309.283108L175.428057,313.959163L164.020339,310.592914L160.270840,312.072140L149.908734,290.510374L149.874369,276.207080L148.201422,272.382414L139.233259,271.660861L127.418374,264.847007L127.304404,264.798290Z " data-code="soopu-Tremosnice" data-name="Třemošnice"/>
    <path d="M959.506694,3.376996L959.349725,3.962456L958.984776,4.423342L958.696416,5.098427L958.652874,5.400312L958.245370,6.259227L958.241361,6.789428L954.492404,13.233200L949.109570,32.450204L943.804966,38.091432L942.891140,46.117571L929.875717,54.633463L920.324859,55.571986L909.028166,74.250669L903.440859,88.622710L890.976796,94.634332L885.328243,93.260956L872.613175,86.738875L850.305782,80.111263L846.648814,80.286555L842.119373,72.287570L842.092753,72.246784L832.859097,82.260196L831.134004,87.612319L818.658107,89.525551L820.247544,105.703207L814.633801,110.438470L814.575955,110.528670L814.881757,110.554313L819.790085,114.582735L825.099958,111.930249L828.279641,101.733524L832.883084,101.176670L858.710541,115.123798L864.563008,114.527417L880.929733,129.850338L882.184669,138.405755L894.210538,160.840492L894.272525,161.382393L894.300667,161.485462L892.809397,171.083359L897.877483,175.697098L898.823579,193.819336L899.237979,193.553550L921.696583,192.987792L922.863257,198.548132L931.806929,187.379324L935.589646,185.749867L943.510426,168.627614L959.664348,163.194974L962.932314,159.550935L961.162893,153.525801L968.239798,147.401461L960.114823,139.034821L960.984983,128.863551L955.624575,120.447612L962.588592,110.891361L967.394580,107.646105L963.861340,92.913225L958.654338,82.908000L971.978811,76.229392L971.224648,66.736771L979.603247,51.624235L982.934856,40.729937L982.948342,40.667960L983.047084,40.488867L987.968715,21.763458L997.506312,12.497820L998.522008,0.000000L961.146068,0.000000L959.838217,2.701831L959.506694,3.376996Z " data-code="soopu-Kraliky" data-name="Králíky"/>
    <path d="M894.272525,161.382393L894.257198,161.400184L886.328544,169.488298L880.634125,171.340923L869.220004,169.907807L873.917784,175.638801L859.221062,186.720839L855.962760,186.821302L845.900747,208.266868L842.567132,205.724392L815.952175,197.381726L799.172104,202.852251L799.309854,198.589757L790.921995,191.200513L790.965199,190.975840L790.950598,190.976689L791.238138,195.220402L786.892977,196.813498L779.719295,196.276209L779.482432,196.327299L779.503626,196.458805L780.511570,213.910322L784.717497,216.863083L790.867718,224.102660L790.883314,224.131490L790.888688,224.141427L788.511806,235.078380L780.576957,237.415279L761.227180,249.336021L761.216789,249.344770L761.467043,250.718558L768.798229,264.663569L774.487230,285.442177L768.134438,295.517075L769.623734,302.597177L769.522858,316.272961L773.371317,321.547270L774.403707,328.163327L783.487363,334.153689L779.491918,343.209121L779.475665,343.207581L779.321239,343.309630L788.293075,365.380255L785.000468,376.647060L790.540935,378.710717L805.773007,378.131331L805.791561,378.128092L805.789573,377.935593L806.764265,361.741896L831.062631,349.449209L833.964760,343.671867L842.401378,339.301513L843.533901,335.973651L863.955053,343.533818L867.893789,341.237796L894.983382,347.758543L899.327081,347.071514L915.120970,349.762540L917.831353,346.850008L918.020839,336.871108L918.055548,336.748092L919.367318,331.559337L931.482732,326.871748L937.125267,320.679532L931.914443,318.522463L924.493083,300.540958L929.151182,294.528054L926.509324,287.150334L928.990602,282.459611L927.931479,273.852311L921.729431,269.789090L914.049343,225.293303L911.356206,222.761585L910.112599,214.511271L903.002557,208.070883L899.185011,194.218021L898.823579,193.819336L897.877483,175.697098L892.809397,171.083359L894.300667,161.485462L894.272525,161.382393Z " data-code="soopu-Lanskroun" data-name="Lanškroun"/>
    <path d="M618.987021,257.464459L618.592421,257.648187L612.750057,282.060262L595.948765,276.242813L597.937784,273.832879L585.835097,266.881770L582.649506,273.468844L568.437793,265.793309L571.515675,289.903082L566.366260,293.490041L569.457657,301.938890L568.345048,307.382630L563.977993,311.632058L557.441556,311.138449L553.236329,313.932227L547.563221,309.451351L539.224697,318.641827L532.147910,321.697516L526.891488,333.838730L531.204009,340.149316L534.770823,337.859774L535.979422,351.427729L529.345887,360.084418L530.656157,364.672023L530.643002,364.729732L530.663499,364.868052L532.353593,372.173942L529.722894,382.211516L533.844404,406.404582L530.667173,410.289438L526.435740,423.012297L528.926146,427.964387L527.455522,437.525860L527.782239,437.613688L527.864936,437.621041L549.524562,440.425001L560.084374,445.509219L565.684163,445.596149L585.490453,438.118453L591.644579,439.159288L594.739856,447.400734L598.372594,449.344630L601.606491,441.831751L606.742984,439.747591L624.969196,447.636170L633.488092,444.025551L632.882901,452.030009L638.027728,449.035292L644.501344,452.302311L655.064308,443.940296L655.224441,443.839892L655.238751,443.827653L665.307462,425.419133L682.374036,413.602968L694.780555,416.726233L700.060305,413.202495L699.585348,393.642686L704.786472,388.641000L699.406670,384.270585L715.299679,376.258079L717.334201,370.928235L725.979336,369.533119L728.492990,360.424579L720.985199,348.191472L721.262710,346.937159L720.334838,345.925619L707.397512,328.510417L707.044500,325.612781L697.543814,312.497408L674.470269,304.134773L677.593502,299.143004L690.528223,298.407026L701.883757,300.122506L691.247034,284.965004L680.776018,281.171696L675.471523,265.388381L675.537746,264.861196L675.379190,264.626638L656.399247,244.118988L658.086787,241.709739L653.123190,233.909654L648.079735,230.205468L639.329273,236.080539L646.524091,239.384880L652.469594,247.156402L646.623957,249.100953L636.631002,249.056036L627.097023,255.949805L618.987983,257.488945L618.987021,257.464459Z " data-code="soopu-Litomysl" data-name="Litomyšl"/>
    <path d="M818.242498,535.227535L818.266735,535.257915L820.161350,543.904627L816.661712,559.042709L818.325273,560.733374L810.015243,569.571768L810.263856,569.675481L811.584097,573.434807L818.192547,576.634167L836.330398,577.077291L843.739518,567.593152L847.057950,570.786705L864.170159,579.055097L866.798322,575.326263L874.229015,573.099335L885.232279,576.495969L889.557661,575.589892L904.570389,580.207666L907.629422,584.745196L912.060179,585.044777L920.085278,590.041445L946.901190,603.286491L955.835801,601.870864L963.409286,593.945867L967.385082,571.659568L973.804367,577.382940L968.483794,567.546900L960.353112,559.745369L962.816193,554.142869L962.242250,543.479195L968.841413,534.690049L974.795819,532.916310L980.508217,524.691832L985.476358,522.315572L987.881384,512.564938L987.925591,512.337822L987.618843,512.319387L978.658559,515.348863L970.669217,506.649523L963.924752,509.473631L956.497426,506.590818L938.819745,516.571249L919.560462,517.713685L920.021165,520.307772L893.024306,517.070576L890.689485,528.147613L883.819817,526.540532L880.505894,522.369475L863.580668,520.910214L853.453467,527.457206L846.178803,533.978380L831.821026,528.325823L818.434696,534.853223L818.242498,535.227535Z " data-code="soopu-Jevicko" data-name="Jevíčko"/>
    <path d="M805.791561,378.128092L805.792758,378.608483L809.586876,388.022726L804.821002,396.796093L808.627977,420.369169L813.499651,436.586591L813.456517,449.211649L810.417705,466.444612L812.236809,475.573391L804.871311,483.118027L813.446612,498.040277L816.046371,510.275795L815.664665,516.376361L811.741978,518.278625L818.203449,535.218666L818.242498,535.227535L818.434696,534.853223L831.821026,528.325823L846.178803,533.978380L853.453467,527.457206L863.580668,520.910214L880.505894,522.369475L883.819817,526.540532L890.689485,528.147613L893.024306,517.070576L920.021165,520.307772L919.560462,517.713685L938.819745,516.571249L956.497426,506.590818L963.924752,509.473631L970.669217,506.649523L978.658559,515.348863L987.618843,512.319387L987.925591,512.337822L988.053219,512.066564L990.752492,498.534305L985.422225,492.069304L987.133454,478.673044L989.004337,476.217047L980.003786,468.840892L953.237496,471.060995L951.734056,468.963200L963.226979,456.583036L967.296581,448.716897L954.554462,440.633917L959.086493,427.015836L932.512205,398.677242L931.463247,379.513390L926.423480,372.744604L915.980175,365.242381L918.257292,353.431077L916.827008,348.270998L917.878988,336.959368L918.020839,336.871108L917.831353,346.850008L915.120970,349.762540L899.327081,347.071514L894.983382,347.758543L867.893789,341.237796L863.955053,343.533818L843.533901,335.973651L842.401378,339.301513L833.964760,343.671867L831.062631,349.449209L806.764265,361.741896L805.789573,377.935593L805.791561,378.128092Z " data-code="soopu-Moravska_Trebova" data-name="Moravská Třebová"/>
    <path d="M284.031653,18.206505L282.187106,21.875681L274.248754,22.707876L273.195965,27.481854L264.684173,30.045326L263.903057,47.472128L257.950766,50.035657L254.936502,57.967840L240.100950,54.105300L236.804115,54.622489L228.725621,64.540679L202.623534,53.826206L198.991184,58.144888L189.805078,53.544159L182.109404,54.886898L170.596004,54.178068L159.680238,43.386273L153.318407,40.876078L153.345259,48.324999L139.518693,55.604615L137.856959,51.236503L119.536841,67.748217L121.309766,74.477317L121.291318,74.536183L123.397956,72.716574L138.271812,83.239865L142.126583,73.541589L152.295643,81.451664L167.309478,84.369852L170.148193,102.644494L164.132448,104.876375L164.132062,104.892072L164.131845,104.900857L164.126863,105.526373L163.969977,105.497603L163.739924,105.524775L163.680594,105.532146L163.733915,105.753648L156.812359,104.597983L155.661914,112.420111L167.392791,121.624709L170.830832,112.361105L177.726182,105.952740L188.030508,108.571942L191.976248,115.652957L182.601797,124.459379L189.575963,145.836728L195.616721,151.082909L195.531577,151.176339L196.081849,151.712631L199.738412,153.318462L211.359901,146.745878L216.949940,149.293009L221.956819,147.060380L229.017722,151.089384L239.868760,150.726138L241.668602,146.512501L248.047445,142.898017L246.390701,132.934029L242.408165,127.310440L246.366037,115.628935L251.645858,105.824324L245.444608,87.345684L255.236999,78.598240L259.507628,78.321587L258.125258,67.801219L262.615350,64.343470L275.017886,65.149503L272.000597,62.392295L270.756271,51.308034L273.390956,52.384015L285.277473,45.040557L285.982360,37.928244L281.784547,34.376604L285.675068,22.935315L284.233051,18.689267L284.401214,18.296504L284.031653,18.206505Z " data-code="soopu-Lazne_Bohdanec" data-name="Lázně Bohdaneč"/>
    <path d="M284.401214,18.296504L284.233051,18.689267L285.675068,22.935315L281.784547,34.376604L285.982360,37.928244L285.277473,45.040557L273.390956,52.384015L270.756271,51.308034L272.000597,62.392295L275.017886,65.149503L262.615350,64.343470L258.125258,67.801219L259.507628,78.321587L255.236999,78.598240L245.444608,87.345684L251.645858,105.824324L246.366037,115.628935L242.408165,127.310440L246.390701,132.934029L248.047445,142.898017L241.668602,146.512501L239.868760,150.726138L229.017722,151.089384L221.956819,147.060380L216.949940,149.293009L211.359901,146.745878L199.738412,153.318462L196.081849,151.712631L195.531577,151.176339L195.447180,151.094561L194.963946,156.325569L197.745869,170.415383L192.414496,179.043596L197.556565,192.829764L206.593389,200.982889L208.931511,196.717815L221.180751,210.806563L220.472132,215.640444L220.426307,215.751560L220.493218,215.788826L235.249934,221.198681L240.482065,214.613164L253.428780,216.591045L255.092208,216.762935L255.327686,215.653520L254.461424,211.025787L262.144545,208.189540L264.646838,204.319687L275.582904,206.164002L275.564665,211.864990L287.839425,211.974899L288.533388,214.763202L304.386107,219.209816L310.495394,209.580463L315.634362,214.194511L328.869740,195.594225L333.212862,193.656791L334.902749,199.233839L341.314764,198.797803L342.732632,202.384959L353.245677,211.906387L360.264075,202.805278L368.448054,202.320532L377.629144,209.043508L377.648138,209.053761L377.716153,208.763037L382.134168,201.337743L387.235166,208.574308L394.272486,209.007039L399.146416,218.048314L408.972383,223.071947L423.296359,223.203341L422.664466,215.121303L432.445026,215.667371L436.807080,213.557575L439.506429,203.724691L439.515139,203.689973L439.492107,203.674933L434.974129,200.428536L435.117593,190.129630L419.342846,190.361366L412.520694,187.101305L407.775765,179.706334L404.228154,168.405385L405.630588,165.670629L400.592914,159.529667L386.083487,159.935672L385.993732,159.790947L386.363902,159.378911L387.981581,152.065820L372.233964,135.916117L371.279368,120.880603L365.070597,120.578776L369.553589,104.239631L366.701691,104.248174L378.678353,93.678017L368.259150,86.809198L371.677317,80.483334L365.995631,76.060360L357.011927,78.065677L349.128300,68.359165L348.432115,44.535976L348.365506,44.533497L337.034869,44.266386L336.070833,52.579192L325.067183,57.076682L314.591843,56.063324L306.576198,51.855569L308.555832,31.425867L303.013430,28.608623L304.707907,23.455552L298.276484,23.481854L284.782096,17.331666L284.401214,18.296504Z " data-code="soopu-Pardubice" data-name="Pardubice"/>
    <path d="M729.846173,604.979145L719.498160,583.686616L727.610365,579.200238L728.001018,573.914464L712.493548,554.642756L703.445942,558.165904L700.501186,568.402235L693.720216,565.831811L683.417518,557.717145L679.412283,541.339456L686.551399,539.112761L685.427683,532.324567L697.615971,528.610991L694.050717,516.036517L681.431606,504.886629L670.789479,505.176784L668.202414,498.251567L680.537062,458.961167L672.750422,454.971009L668.504619,457.275992L658.897969,453.860537L655.468601,444.309681L655.224441,443.839892L655.064308,443.940296L644.501344,452.302311L638.027728,449.035292L632.882901,452.030009L633.488092,444.025551L624.969196,447.636170L606.742984,439.747591L601.606491,441.831751L598.372594,449.344630L594.739856,447.400734L591.644579,439.159288L585.490453,438.118453L565.684163,445.596149L560.084374,445.509219L549.524562,440.425001L527.864936,437.621041L527.782239,437.613688L527.722595,437.943821L526.419055,440.137894L523.112858,444.310034L519.705537,445.442153L519.399731,445.225429L519.342035,445.297749L507.798409,437.083226L504.916023,441.320695L494.063233,433.417559L477.621937,437.770641L476.858717,446.154595L487.218343,455.272052L481.535859,470.682412L489.855850,476.007521L497.456675,483.480003L478.747022,486.411087L478.757754,486.395665L485.725283,491.118411L491.349362,498.833912L490.749108,504.260788L499.547512,516.751495L509.010929,512.267810L530.319585,514.661841L550.370860,525.179555L556.808564,523.065914L567.226121,533.029737L578.183863,534.285253L608.965800,561.025031L613.512891,561.061043L611.903989,572.076884L618.903588,575.030454L623.577547,582.505721L627.732038,583.498407L632.876928,578.659032L659.373496,588.253384L669.194709,600.490892L676.140104,599.180672L680.416525,606.325858L718.228710,606.482273L729.585273,605.117489L729.846173,604.979145Z " data-code="soopu-Policka" data-name="Polička"/>
    <path d="M87.144294,200.249058L87.204138,200.267884L99.308032,201.904850L102.971020,200.819422L110.273333,192.550338L106.246944,180.520150L110.420758,171.982916L111.394525,159.515751L117.589346,157.003541L116.489781,149.661292L111.271596,155.154078L102.419047,146.628159L89.853530,147.182741L77.448396,143.849952L56.770914,155.111862L52.009340,153.240903L53.717835,142.065639L49.225780,128.457884L49.201382,128.459029L48.563143,128.548766L37.527985,130.133982L36.037289,132.356738L25.777703,133.943945L30.020744,139.611512L34.104104,139.281397L38.469612,145.422683L25.304367,144.745764L23.370874,160.638999L36.138495,171.492899L51.685048,171.305550L60.906589,175.876326L54.453263,181.535526L68.808521,185.510654L78.711705,182.286592L79.174198,195.489233L82.856913,191.488052L88.155195,199.586228L87.144294,200.249058Z " data-code="soopu-Chvaletice" data-name="Chvaletice"/>
    <path d="M49.201382,128.459029L49.225780,128.457884L53.717835,142.065639L52.009340,153.240903L56.770914,155.111862L77.448396,143.849952L89.853530,147.182741L102.419047,146.628159L111.271596,155.154078L116.489781,149.661292L117.589346,157.003541L111.394525,159.515751L110.420758,171.982916L106.246944,180.520150L110.273333,192.550338L102.971020,200.819422L99.308032,201.904850L87.204138,200.267884L87.144294,200.249058L86.820545,200.575530L80.345453,206.074588L90.534393,213.855449L125.434566,231.565622L125.562444,246.534110L125.520714,246.566083L132.872182,246.417880L142.993293,254.089381L148.657606,252.827450L151.709689,248.886512L161.981414,255.797433L162.209852,251.986246L171.802834,249.821407L176.499779,251.728715L183.329662,249.941301L191.885313,243.953407L194.683632,245.203910L206.633789,233.315442L206.250363,228.909197L211.914904,226.881702L219.371580,215.324639L220.426307,215.751560L220.472132,215.640444L221.180751,210.806563L208.931511,196.717815L206.593389,200.982889L197.556565,192.829764L192.414496,179.043596L197.745869,170.415383L194.963946,156.325569L195.447180,151.094561L195.531577,151.176339L195.616721,151.082909L189.575963,145.836728L182.601797,124.459379L191.976248,115.652957L188.030508,108.571942L177.726182,105.952740L170.830832,112.361105L167.392791,121.624709L155.661914,112.420111L156.812359,104.597983L163.733915,105.753648L163.680595,105.532145L163.739924,105.524775L163.969977,105.497603L164.126863,105.526373L164.131845,104.900857L164.132062,104.892071L164.132448,104.876375L170.148193,102.644494L167.309478,84.369852L152.295643,81.451664L142.126583,73.541589L138.271812,83.239865L123.397956,72.716574L121.291318,74.536183L121.055114,74.355870L116.698350,70.374131L112.523572,76.323521L103.553062,76.871289L93.205055,84.631236L86.333932,91.814919L76.439583,95.401595L63.994588,79.974492L65.142857,88.532713L57.804479,90.827471L53.849363,84.494409L46.519128,85.396470L40.723323,95.349756L47.683139,100.379898L54.078567,99.381375L47.007863,105.634503L49.894462,116.849002L49.279738,127.731016L49.201382,128.459029Z " data-code="soopu-Prelouc" data-name="Přelouč"/>
    <path d="M810.015243,569.571768L818.325273,560.733374L816.661712,559.042709L820.161350,543.904627L818.266735,535.257915L818.242498,535.227535L818.203449,535.218666L811.741978,518.278625L815.664665,516.376361L816.046371,510.275795L813.446612,498.040277L804.871311,483.118027L812.236809,475.573391L810.417705,466.444612L813.456517,449.211649L813.499651,436.586591L808.627977,420.369169L804.821002,396.796093L809.586876,388.022726L805.792758,378.608483L805.791561,378.128092L805.773007,378.131331L790.540935,378.710717L785.000468,376.647060L788.293075,365.380255L779.321239,343.309630L779.475665,343.207581L779.347859,343.195375L743.115804,348.936963L734.020537,344.567516L722.432221,346.251337L721.262710,346.937159L720.985199,348.191472L728.492990,360.424579L725.979336,369.533119L717.334201,370.928235L715.299679,376.258079L699.406670,384.270585L704.786472,388.641000L699.585348,393.642686L700.060305,413.202495L694.780555,416.726233L682.374036,413.602968L665.307462,425.419133L655.238751,443.827653L655.224441,443.839892L655.468601,444.309681L658.897969,453.860537L668.504619,457.275992L672.750422,454.971009L680.537062,458.961167L668.202414,498.251567L670.789479,505.176784L681.431606,504.886629L694.050717,516.036517L697.615971,528.610991L685.427683,532.324567L686.551399,539.112761L679.412283,541.339456L683.417518,557.717145L693.720216,565.831811L700.501186,568.402235L703.445942,558.165904L712.493548,554.642756L728.001018,573.914464L727.610365,579.200238L719.498160,583.686616L729.846173,604.979145L729.836585,605.004570L728.112755,606.482273L788.838319,606.482273L793.510405,590.411651L792.673295,584.282887L794.474410,572.293087L802.873003,571.926613L804.299451,574.207008L809.979630,569.657214L810.015243,569.571768Z " data-code="soopu-Svitavy" data-name="Svitavy"/>
    <path d="M666.110612,115.948358L656.322278,120.865780L649.694477,126.725608L640.049380,125.402780L640.583470,131.736068L645.159145,139.012022L647.580653,152.514686L632.968680,150.153904L632.564563,150.021275L629.287732,150.615695L634.818852,157.054783L632.088810,159.059532L637.135009,167.603210L640.742117,169.306975L640.921003,175.039486L627.811918,184.467098L616.918477,182.580709L616.248837,188.279239L605.249606,193.470373L602.837842,200.504750L617.514607,195.556642L623.391099,202.960805L622.771900,223.240449L613.106153,230.861758L614.978264,242.861765L614.814401,243.108696L615.030628,243.358365L614.699883,251.439500L617.127842,251.810054L618.987897,257.420692L618.987021,257.464459L618.987983,257.488945L627.097023,255.949805L636.631002,249.056036L646.623957,249.100953L652.469594,247.156402L646.524091,239.384880L639.329273,236.080539L648.079735,230.205468L653.123190,233.909654L658.086787,241.709739L656.399247,244.118988L675.379190,264.626638L675.537746,264.861196L675.965616,265.151666L684.250404,261.817992L704.312142,262.936664L706.483149,269.627705L716.965293,267.125860L718.260756,264.741852L738.985414,258.263449L752.000603,257.725806L752.321457,253.979523L761.228131,249.276862L761.216789,249.344770L761.227180,249.336021L780.576957,237.415279L788.511806,235.078380L790.888688,224.141427L790.883314,224.131491L790.867718,224.102660L784.717497,216.863083L780.511570,213.910322L779.503626,196.458805L779.482432,196.327299L779.477757,196.310518L771.693941,186.541167L752.104015,170.622047L741.612666,174.313398L734.029524,161.968749L727.009290,160.097852L718.915800,165.806828L702.474734,170.164385L697.276047,166.030908L699.387938,151.949527L688.898886,150.712984L688.454177,150.651165L688.108302,150.639060L684.507891,138.970802L673.421408,124.262801L669.408808,124.605935L672.493674,119.437162L666.573582,115.588205L666.110612,115.948358Z " data-code="soopu-Usti_nad_Orlici" data-name="Ústí nad Orlicí"/>
    <path d="M523.959803,130.921408L522.520737,144.443821L512.909928,161.164757L510.638920,171.338281L507.673581,175.142280L492.998703,167.970896L492.941934,167.995845L493.004588,168.362376L504.590518,175.694046L500.046283,185.164486L509.664962,201.508352L513.121782,199.309232L527.746173,206.061212L533.716195,199.483863L542.593394,207.489106L545.154272,213.796370L548.660759,213.414978L562.030903,230.054366L559.836797,223.400550L573.991456,228.384318L576.906838,237.300386L588.000401,244.139999L589.548531,248.774247L614.708623,243.314864L614.814401,243.108696L614.978264,242.861765L613.106153,230.861758L622.771900,223.240449L623.391099,202.960805L617.514607,195.556642L602.837842,200.504750L605.249606,193.470373L616.248837,188.279239L616.918477,182.580709L627.811918,184.467098L640.921003,175.039486L640.742117,169.306975L637.135009,167.603210L632.088810,159.059532L634.818852,157.054783L629.287732,150.615695L632.564563,150.021275L632.561239,149.410446L618.087415,142.587357L610.343202,148.153364L594.786416,148.029168L590.381809,139.201089L590.737179,146.266682L582.223831,150.047193L573.134845,149.101628L560.766168,155.304354L557.123096,146.098706L552.851934,142.980565L547.774536,134.831147L533.725592,131.467183L524.063040,130.740413L523.959803,130.921408Z " data-code="soopu-Chocen" data-name="Choceň"/>
    <path d="M459.983725,216.522814L459.990740,216.543196L461.779078,224.924728L457.390431,240.840689L462.992226,240.227421L473.347148,250.899818L477.057984,250.039307L478.133855,265.828271L474.964646,277.033738L474.919474,277.049248L474.880269,277.064717L476.718802,285.841460L472.147086,288.762350L476.598264,302.474895L481.610435,302.511225L489.178233,311.921720L495.638711,312.161356L484.787972,321.148088L479.460376,323.220555L493.283921,335.911835L498.249333,338.293973L505.263078,351.922452L516.803933,356.458362L512.191825,363.825736L525.154420,361.337874L530.516920,364.732617L530.643002,364.729732L530.656157,364.672023L529.345887,360.084418L535.979422,351.427729L534.770823,337.859774L531.204009,340.149316L526.891488,333.838730L532.147910,321.697516L539.224697,318.641827L547.563221,309.451351L553.236329,313.932227L557.441556,311.138449L563.977993,311.632058L568.345048,307.382630L569.457657,301.938890L566.366260,293.490041L571.515675,289.903082L568.437793,265.793309L582.649506,273.468844L585.835097,266.881770L597.937784,273.832879L595.948765,276.242813L612.750057,282.060262L618.592421,257.648187L618.987021,257.464459L618.987897,257.420692L617.127842,251.810054L614.699883,251.439500L615.030628,243.358365L614.814401,243.108696L614.708623,243.314864L589.548531,248.774247L588.000401,244.139999L576.906838,237.300386L573.991456,228.384318L559.836797,223.400550L562.030903,230.054366L548.660759,213.414978L545.154272,213.796370L542.593394,207.489106L533.716195,199.483863L527.746173,206.061212L513.121782,199.309232L509.664962,201.508352L500.046283,185.164486L504.590518,175.694046L493.004588,168.362376L492.941934,167.995845L492.680906,167.308320L489.977579,165.814199L488.376571,174.704791L486.063598,175.564254L494.620746,182.524043L493.192077,186.639496L475.958808,191.929920L476.515255,198.737939L472.432900,213.045107L460.360598,216.589031L459.983725,216.522814Z " data-code="soopu-Vysoke_Myto" data-name="Vysoké Mýto"/>
    <path d="M814.575955,110.528670L814.493320,110.648711L810.383817,112.077224L805.911539,115.496091L805.875841,115.478731L805.836677,115.525055L808.544849,130.113839L807.033139,131.224558L805.714090,134.907449L806.129343,134.900821L806.263070,134.898687L809.962178,134.781198L812.036720,141.405415L806.537576,152.372383L801.422693,158.071154L800.507944,164.882119L802.379385,170.801193L793.440595,178.298930L790.962888,182.767115L791.006992,190.814339L790.965199,190.975840L790.921995,191.200513L799.309854,198.589757L799.172104,202.852251L815.952175,197.381726L842.567132,205.724392L845.900747,208.266868L855.962760,186.821302L859.221062,186.720839L873.917784,175.638801L869.220004,169.907807L880.634125,171.340923L886.328544,169.488298L894.257198,161.400184L894.272525,161.382393L894.210538,160.840492L882.184669,138.405755L880.929733,129.850338L864.563008,114.527417L858.710541,115.123798L832.883084,101.176670L828.279641,101.733524L825.099958,111.930249L819.790085,114.582735L814.881757,110.554313L814.575955,110.528670Z " data-code="soopu-Jablonne_nad_Orlici" data-name="Jablonné nad Orlicí"/>
    <path d="M688.454177,150.651165L688.898886,150.712984L699.387938,151.949527L697.276047,166.030908L702.474734,170.164385L718.915800,165.806828L727.009290,160.097852L734.029524,161.968749L741.612666,174.313398L752.104015,170.622047L771.693941,186.541167L779.477757,196.310518L779.482432,196.327299L779.719295,196.276209L786.892977,196.813498L791.238138,195.220402L790.950598,190.976689L790.965199,190.975840L791.006992,190.814339L790.962888,182.767115L793.440595,178.298930L802.379385,170.801193L800.507944,164.882119L801.422693,158.071154L806.537576,152.372383L812.036720,141.405415L809.962178,134.781198L806.263070,134.898687L806.129344,134.900821L805.714090,134.907449L807.033139,131.224558L808.544849,130.113839L805.836677,115.525055L805.875841,115.478731L805.791985,115.437891L801.166984,115.491673L791.737793,109.663525L775.857555,131.814277L762.978634,144.394964L756.693430,152.010456L746.156654,150.578006L739.433189,143.345787L739.551375,139.873335L733.900225,134.684583L719.510385,131.824744L710.544416,132.637805L703.174867,145.661351L698.028244,145.955873L688.547709,150.085673L688.454177,150.651165Z " data-code="soopu-Letohrad" data-name="Letohrad"/>
    <path d="M666.573582,115.588205L672.493674,119.437162L669.408808,124.605935L673.421408,124.262801L684.507891,138.970802L688.108302,150.639060L688.454177,150.651165L688.547709,150.085673L698.028244,145.955873L703.174867,145.661351L710.544416,132.637805L719.510385,131.824744L733.900225,134.684583L739.551375,139.873335L739.433189,143.345787L746.156654,150.578006L756.693430,152.010456L762.978634,144.394964L775.857555,131.814277L791.737793,109.663525L801.166984,115.491673L805.791985,115.437891L805.875841,115.478731L805.911539,115.496091L810.383817,112.077224L814.493320,110.648711L814.575955,110.528670L814.633801,110.438470L820.247544,105.703207L818.658107,89.525551L831.134004,87.612319L832.859097,82.260196L842.092753,72.246784L841.857422,71.886307L821.911339,51.549416L812.245926,49.193489L808.540649,51.401666L800.583101,50.467395L785.446582,41.198178L775.018231,40.119844L772.725299,31.677398L759.299356,25.542951L745.289237,27.962664L745.051519,45.592819L741.092130,54.960723L714.570509,66.426888L714.700166,70.450625L690.197168,74.266557L689.289285,78.354392L681.141794,88.637598L675.626306,92.173248L659.502452,97.184060L654.451668,104.503454L666.563931,115.577708L666.573582,115.588205Z " data-code="soopu-Zamberk" data-name="Žamberk"/>
  </g>
  <g class="" id="mzchu">
    <path d="M230.271904,100.811291L229.891270,95.542126L227.720325,93.583395L222.697123,94.197091L221.530989,91.737192L215.844537,91.293571L212.146469,94.531107L211.172972,104.819899L221.936119,105.139552L230.271904,100.811291Z " data-code="Bohdanecsky_rybnik" data-name="Bohdanečský rybník"/>
    <path d="M982.948342,40.667960L983.746506,41.048549L986.468544,44.924643L992.424986,49.670643L998.429691,47.677082L997.877325,43.186658L995.498178,39.788183L993.826175,33.070888L995.094209,27.301105L1000.000000,24.948008L1000.000000,0.000000L983.223882,0.000000L981.192969,5.237365L983.205071,7.666418L978.830651,12.524821L979.129797,18.250521L975.770537,20.765853L974.445171,25.841321L976.119389,28.789525L972.501099,29.019286L976.008203,33.712421L980.666258,32.785097L982.709506,40.463202L982.948342,40.667960Z M959.506694,3.376996L959.349725,3.962456L958.984695,4.423443L958.696416,5.098427L958.652784,5.400322L958.245370,6.259227L958.241271,6.789438L955.034744,11.816143L982.280375,0.000000L961.146177,0.000000L959.838228,2.701922L959.506694,3.376996Z " data-code="Kralicky_Sneznik" data-name="Králický Sněžník"/>
    <path d="M168.154474,344.607847L173.532827,354.176886L176.983898,347.249518L177.394454,342.100082L174.018956,334.908686L166.667682,329.484336L174.942480,326.954452L169.177584,323.258844L173.214042,319.905878L168.294676,318.939349L165.573132,323.981671L161.663436,315.168550L164.842156,308.216843L157.121139,311.103216L154.948003,314.045258L158.117585,315.903751L160.697086,322.089540L160.305555,324.642063L166.094489,327.309968L162.388182,327.042642L162.054877,331.102535L168.154474,344.607847Z " data-code="Lichnice-Kankovy_hory" data-name="Lichnice-Kaňkovy hory"/>
    <path d="M120.487696,136.822301L120.832078,136.661219L120.706341,136.353427L120.487696,136.822301Z M119.175163,136.674836L119.209397,136.855514L119.496040,136.692408L119.175163,136.674836Z " data-code="Seminsky_presyp" data-name="Semínský přesyp"/>
  </g>
</svg>
