<?xml version="1.0" encoding="utf-8"?>
<!DOCTYPE svg PUBLIC "-//W3C//DTD SVG 1.1//EN" "http://www.w3.org/Graphics/SVG/1.1/DTD/svg11.dtd">
<svg xmlns="http://www.w3.org/2000/svg" xmlns:xlink="http://www.w3.org/1999/xlink" enable_background="new 0 0 1000 1249" height="1249px" pretty_print="False" style="stroke-linejoin: round; stroke:#000; fill: none;" version="1.1" viewBox="0 0 1000 1249" width="1000px">
  <defs>
    <style type="text/css"><![CDATA[path { fill-rule: evenodd; }]]></style>
  </defs>
  <metadata>
    <views>
      <view h="1249.74767862" padding="0" w="1000">
        <proj id="laea" lat0="49.5228736752" lon0="13.174054275"/>
        <bbox h="14.45" w="11.57" x="993.7" y="992.77"/>
      </view>
    </views>
  </metadata>
  <g class="" id="bg">
    <path d="M-10000.0,-10000.0L-10000.0,10000.0L10000.0,10000.0L10000.0,-10000.0Z "/>
    <path d="M760.724859,1247.747679L767.884097,1229.153410L774.489244,1217.391427L784.161467,1212.886389L788.676485,1213.825238L788.683492,1213.826695L788.651106,1213.528158L787.744336,1203.554055L802.806123,1171.041446L818.929933,1145.592729L833.913343,1130.603771L837.167414,1124.917371L839.158579,1118.593687L839.322406,1109.422507L838.633114,1104.132662L837.448177,1097.978896L837.031652,1086.468596L839.461117,1070.995596L848.313787,1047.697524L855.622222,1039.316109L862.086433,1036.185630L870.525650,1037.843993L873.556272,1037.216137L876.241069,1035.220004L882.924740,1025.948584L901.075503,990.986073L907.295778,984.806537L914.488939,980.036553L920.138406,977.935219L923.894093,974.382983L924.401055,970.385567L921.316938,962.912145L911.498755,952.956222L908.671698,949.064117L907.666693,945.323270L908.066597,941.197927L910.531071,937.011390L914.941182,931.147966L917.069587,927.162585L917.911807,922.998882L917.870022,917.108095L913.914776,906.946713L913.676350,903.469958L914.503140,899.306414L917.820644,895.066647L920.599074,892.458483L932.634281,885.097768L935.944243,882.215473L938.278005,877.571795L941.032742,870.055401L944.810814,856.616512L950.951087,842.842850L964.162223,820.298563L967.024460,813.716833L967.821189,806.542645L966.893545,797.461605L962.975499,778.706982L961.361217,765.578980L962.419207,749.126870L967.089112,729.073502L967.701239,723.751289L966.652936,714.671226L957.576514,680.228422L947.589357,658.346445L947.407850,648.626890L948.246227,644.907710L949.546499,641.922788L952.470104,632.588974L954.426458,622.208513L954.377595,615.989819L952.783924,608.565191L948.015990,601.387707L941.297024,593.276011L938.904620,588.398554L937.139470,582.017139L936.099942,571.062551L936.539209,544.672170L935.204105,538.732522L932.493051,533.470695L926.338548,526.325051L921.701161,523.079512L918.259236,521.394393L915.156128,520.374219L911.679534,518.021336L908.860540,514.187922L907.194963,505.989502L907.820776,502.190477L909.621764,499.425569L913.661886,495.871774L914.855255,493.052429L914.411919,490.432112L912.678513,487.668682L903.723725,482.273542L903.607706,480.845491L907.752903,477.291420L913.294253,473.996506L914.378828,470.873430L913.457175,467.050179L902.901723,457.649080L900.097962,453.264661L901.881895,448.216309L905.589701,443.142851L913.685257,435.180422L921.451537,430.193933L930.089350,426.499832L950.241107,421.310174L955.505960,418.621862L960.797082,413.613823L977.733487,394.279228L979.934502,389.575988L979.801290,386.332867L978.060503,382.704995L973.133325,379.888196L966.376863,377.238098L964.654415,375.717803L963.678708,372.961660L963.839333,366.635876L964.975596,361.227439L971.603643,337.585261L971.982706,332.218029L971.204355,327.680180L969.549739,321.357578L969.095702,317.613456L969.071272,314.638806L977.534357,292.807807L978.250166,289.885522L978.849904,285.746148L979.021087,280.954493L978.520781,271.753040L978.693496,267.148766L980.158500,263.587710L981.640058,262.005803L983.658844,261.461667L990.296677,260.749028L994.016151,259.580777L996.873024,258.208990L998.569401,257.093195L999.292462,255.189489L999.599599,252.352468L998.799105,247.171060L991.899210,224.427853L990.675615,219.039180L990.425293,214.520494L990.807614,209.890941L991.846025,206.134111L988.921292,201.064615L982.773491,194.652097L946.635391,176.546577L945.105517,171.733154L944.425093,167.580697L941.531355,163.691250L937.154609,160.913864L914.243998,154.091042L910.356342,151.963761L905.657429,147.979689L887.566877,128.275017L881.577134,124.344199L874.131099,120.949049L861.204241,117.399378L854.410630,116.937031L848.887640,117.438381L839.655315,119.670401L830.098951,120.637694L817.833789,119.158176L811.760996,115.383693L778.340504,83.374139L766.413533,77.641308L755.118925,75.053564L746.078506,71.564507L742.151756,71.462590L738.650836,72.576774L724.777830,80.403595L717.351422,82.291142L713.921413,82.478191L710.097981,81.987005L706.692997,80.569009L704.139979,77.274318L704.020455,72.695478L706.869588,65.027251L709.604134,59.408748L711.602429,54.167258L711.899566,48.439359L711.568750,43.814379L703.338672,22.513722L688.834981,32.967894L679.364621,32.911547L648.593539,25.241514L642.320134,22.091687L637.968341,17.438587L630.497426,7.098641L624.131103,0.000000L617.105095,3.149020L612.559157,7.769515L610.132414,13.452705L609.449225,19.812884L610.118920,26.452432L611.780761,32.985291L616.576530,44.128143L617.063200,48.062515L614.044769,50.947682L574.336395,59.757605L571.690839,62.546378L570.324247,66.798331L570.010999,72.174048L570.585760,78.380842L578.655793,109.997171L577.634605,113.956311L575.046653,116.745223L571.298436,118.433734L562.053483,118.671869L553.214387,115.195743L528.726841,87.484516L481.487662,78.184223L478.327278,78.859498L471.159231,83.311803L456.385395,99.532361L392.840852,134.014976L389.186179,137.224741L386.458234,142.627167L377.076885,187.663619L374.109288,191.401590L369.747317,192.651823L358.673901,189.989657L340.315813,180.597700L338.025410,180.330913L332.577084,181.807868L315.439401,194.523619L312.918460,195.109645L310.372533,194.547692L307.800927,193.025139L292.904882,177.178934L239.639064,175.813794L235.072024,178.234325L214.203117,202.465321L210.931657,204.575807L201.117174,206.162752L189.120250,204.793170L168.934925,197.107665L165.133458,197.255515L161.471776,198.879822L142.715486,217.546463L137.593442,220.410881L131.096875,221.507010L98.649088,215.074666L96.340053,235.768494L90.659520,252.025522L74.557160,281.244608L69.361024,297.669110L55.613598,293.298951L51.277033,308.297485L50.707681,330.658841L48.334823,348.154970L37.270071,359.176055L8.682557,371.008124L0.400401,386.953335L3.700201,398.226508L10.680159,411.961500L24.719443,432.653140L34.535640,441.730422L45.013821,449.049282L67.864258,460.282380L77.372499,465.382083L82.976070,476.725748L83.349420,490.887286L77.382332,503.890375L79.153340,505.338624L84.623839,508.086778L81.266569,516.430683L80.743843,519.015267L87.734365,527.671288L104.147664,536.902848L111.363356,545.006635L116.123920,556.614989L119.144808,580.273396L121.830114,592.800705L126.158908,605.616549L130.444231,615.181364L135.816070,623.211835L143.264773,631.147599L151.043533,633.575806L158.347586,632.583772L163.467185,636.808289L164.266127,654.773321L166.016023,689.767914L169.328932,707.089956L177.100046,722.570304L190.566203,733.956686L222.438036,749.257491L236.332369,763.829746L258.785970,815.024695L269.708639,826.486604L283.468651,831.570171L324.371664,837.763023L337.376678,836.053344L334.343930,822.324260L343.903781,819.331981L370.440665,826.753857L382.195773,833.126830L392.224892,841.310055L411.706490,862.131370L423.765014,867.173629L427.625620,875.886293L428.537037,886.189755L431.678332,896.112443L453.847166,922.652835L453.847071,922.707923L453.990738,922.818347L462.614527,927.735388L527.759282,1016.653396L536.907355,1037.643929L548.009623,1055.547878L567.772845,1067.111372L609.969017,1069.059285L623.970065,1074.438697L632.494356,1081.806937L653.763943,1110.247528L683.511288,1140.475851L691.363063,1159.019136L691.879534,1188.930219L701.976624,1205.262130L722.143181,1224.093324L744.339085,1239.934517L760.724859,1247.747679Z "/>
  </g>
  <g class="" id="soopu">
    <path d="M739.378303,504.790001L739.281435,504.745165L734.947354,509.197733L728.703897,524.460828L729.213698,533.083542L737.073567,538.519631L743.943472,559.232177L734.928328,561.404018L739.717762,587.284215L730.095274,583.943152L718.839644,590.858818L727.348491,612.669211L735.986767,617.668380L734.843300,623.051632L736.302998,635.735603L736.286098,635.762763L736.284418,635.792027L745.266147,636.861560L764.489252,630.330105L768.689237,639.116208L780.589293,632.601530L786.695703,618.317324L796.710818,606.515666L797.772683,602.661175L814.835839,602.528632L824.318091,607.689368L843.270997,604.057398L848.732628,598.780373L853.788670,599.519870L858.854851,587.186733L852.867466,564.695394L852.819178,564.570373L851.477873,563.906483L842.307540,566.213926L827.036894,562.854387L820.450820,562.852386L822.800985,558.242319L830.808651,552.844813L829.478193,546.560737L824.159540,544.504259L825.820007,540.289366L820.668609,528.736545L815.374518,529.899340L809.340015,524.739405L796.264568,524.606247L785.586583,521.195399L781.867505,527.407760L776.884121,517.528934L776.862165,517.508863L776.782909,517.376227L769.227472,510.294504L764.438853,514.637273L765.760316,518.937372L756.827111,518.624627L756.578035,523.545477L747.097356,517.499886L739.640634,504.850900L739.378303,504.790001Z " data-code="soopu-Blovice" data-name="Blovice"/>
    <path d="M821.800420,446.609313L821.361460,446.400310L806.065139,471.079989L805.040239,479.300395L810.855423,480.219061L800.410461,496.430619L791.654344,504.023214L782.329620,503.171158L778.231814,516.627761L776.862165,517.508863L776.884121,517.528934L781.867505,527.407760L785.586583,521.195399L796.264568,524.606247L809.340015,524.739405L815.374518,529.899340L820.668609,528.736545L825.820007,540.289366L824.159540,544.504259L829.478193,546.560737L830.808651,552.844813L822.800985,558.242319L820.450820,562.852386L827.036894,562.854387L842.307540,566.213926L851.477873,563.906483L852.819178,564.570373L852.798883,564.441208L859.643569,568.991548L871.836991,567.984873L875.372084,571.472326L885.766892,575.666574L896.086601,567.795944L900.530750,571.591673L909.436209,561.887165L905.198699,546.922712L914.726444,543.176050L922.572460,544.504406L944.048249,545.309367L944.207895,545.113227L941.519635,529.092958L945.716563,520.621431L932.158631,516.291869L925.026693,509.699922L909.576464,517.726341L907.773064,512.065116L917.127552,501.297223L910.130756,501.557730L907.412269,498.434745L891.944833,491.808090L891.869039,490.971847L880.916744,488.722216L871.965533,482.236656L867.570637,486.730583L871.088765,488.233750L862.975120,499.451355L855.636883,488.043685L850.575765,491.687539L838.035344,485.238272L830.106387,486.543633L823.703675,484.876935L826.427089,475.036624L829.843903,475.095587L835.752588,452.406097L832.986243,442.844880L821.956821,446.464307L821.800420,446.609313Z " data-code="soopu-Spalene_Porici" data-name="Spálené Poříčí"/>
    <path d="M187.293735,705.662506L186.323653,716.313186L202.470211,725.555451L222.801512,727.110212L226.969443,738.467123L256.578979,759.248970L258.085110,767.654151L256.744957,780.106196L265.023774,790.982055L272.774420,796.004084L270.672373,805.173488L293.209077,816.298115L304.177173,816.881012L331.138979,821.369866L345.959417,826.252392L341.222984,808.429000L348.159884,806.743716L364.604548,812.687984L364.669997,812.787539L365.483173,799.800754L385.822861,792.183148L391.341432,802.967208L401.050544,797.514406L411.767113,797.776653L417.036326,777.822691L412.164938,772.752042L410.334371,764.982761L412.103225,757.458810L407.916098,755.506852L407.682149,747.390875L402.475220,749.910723L405.673757,739.709299L403.689364,729.156267L419.117671,733.805005L421.691277,735.877367L436.772579,729.043359L441.369351,730.903704L446.241157,728.562528L450.481929,736.458976L456.275390,738.469514L457.996374,725.272654L463.362215,716.161829L465.420039,705.443015L472.097922,699.239489L474.509198,699.795078L493.970668,689.474564L500.117996,690.888362L505.680051,700.772136L512.345666,700.690396L512.378561,700.692959L512.433404,700.556806L513.482469,695.683329L528.831893,693.473826L529.778508,684.462056L533.782570,682.170307L535.668916,673.672145L530.949082,672.577468L545.472248,651.032734L544.899050,645.155955L552.588340,636.355466L552.666037,636.344973L552.622809,636.273493L541.103221,629.135647L537.905402,621.278913L522.546973,619.270512L522.470166,619.276115L522.493262,619.405228L523.381964,622.113787L515.371232,630.356655L506.748088,629.435541L501.263553,635.741569L483.313782,651.387745L480.664874,655.435795L471.569231,657.132565L471.626583,657.326400L471.723254,657.523062L472.447610,662.619478L458.891516,667.400408L459.565428,674.965970L452.009339,680.746890L444.836550,681.736715L435.435430,678.230494L434.508307,674.640982L425.470692,678.430887L416.953279,672.241594L417.901045,668.121981L407.765509,667.636753L407.668011,665.436533L391.408343,671.277853L386.730160,675.918789L375.903035,680.888753L366.458419,675.078984L353.044818,677.721263L351.944322,673.251560L334.237298,674.703760L331.876217,672.818799L331.453621,672.500032L331.230087,672.376398L322.428404,675.841851L314.725969,684.713408L310.721332,685.182468L310.287186,677.347534L303.863085,681.099705L281.345274,682.527302L264.714519,690.967963L240.130859,671.676177L237.054076,678.395135L229.156955,684.213877L217.426077,685.065889L214.585256,677.157463L218.165621,665.617350L224.179914,653.702123L216.179939,660.315361L206.271876,665.459726L196.237617,674.161143L186.657702,694.933685L189.686843,703.057187L187.250114,705.545214L187.293735,705.662506Z " data-code="soopu-Domazlice" data-name="Domažlice"/>
    <path d="M364.723493,812.869160L388.142621,815.055288L395.711556,821.736135L405.562527,824.834447L432.177331,855.368810L443.630589,856.278901L444.870840,858.101053L445.113410,875.601252L444.614438,876.760898L452.495251,854.382552L447.143404,848.957603L449.952994,843.517652L459.763879,839.697911L479.830529,851.364352L486.902385,845.542230L491.846709,850.180151L501.906235,846.524883L502.101550,841.680130L520.898524,846.688633L532.283636,834.552757L532.428829,834.468753L532.066258,834.218638L528.270878,823.678210L526.672770,811.668497L528.762193,808.996080L530.718918,797.088666L525.461992,789.551465L523.558361,781.296561L517.890421,777.250038L509.141515,777.918135L502.707045,770.091728L518.001333,768.647623L521.117965,765.623888L506.059396,733.553632L493.931006,734.702267L489.977514,724.877496L491.022234,722.662653L517.367336,708.462408L512.846707,701.120894L512.378561,700.692959L512.345666,700.690396L505.680051,700.772136L500.117996,690.888362L493.970668,689.474564L474.509198,699.795078L472.097922,699.239489L465.420039,705.443015L463.362215,716.161829L457.996374,725.272654L456.275390,738.469514L450.481929,736.458976L446.241157,728.562528L441.369351,730.903704L436.772579,729.043359L421.691277,735.877367L419.117671,733.805005L403.689364,729.156267L405.673757,739.709299L402.475220,749.910723L407.682149,747.390875L407.916098,755.506852L412.103225,757.458810L410.334371,764.982761L412.164938,772.752042L417.036326,777.822691L411.767113,797.776653L401.050544,797.514406L391.341432,802.967208L385.822861,792.183148L365.483173,799.800754L364.669997,812.787539L364.723493,812.869160Z " data-code="soopu-Kdyne" data-name="Kdyně"/>
    <path d="M122.864192,529.943236L132.586469,554.928017L128.533491,572.812486L130.777547,583.189036L134.926384,586.914583L144.857423,601.863865L140.417701,605.247094L160.456868,615.407242L167.800889,617.585436L173.280093,612.461595L178.410367,621.356192L178.273822,661.632537L171.591240,671.352649L179.750799,679.651038L187.812695,699.610637L187.201061,705.329344L187.250114,705.545214L189.686843,703.057187L186.657702,694.933685L196.237617,674.161143L206.271876,665.459726L216.179939,660.315361L224.179914,653.702123L218.165621,665.617350L214.585256,677.157463L217.426077,685.065889L229.156955,684.213877L237.054076,678.395135L240.130859,671.676177L264.714519,690.967963L281.345274,682.527302L303.863085,681.099705L310.287186,677.347534L310.721332,685.182468L314.725969,684.713408L322.428404,675.841851L331.230087,672.376398L331.453621,672.500032L331.468780,672.469746L334.783609,654.684508L327.947841,648.653804L327.103169,641.055164L330.235604,631.854532L328.488657,629.395943L311.191962,621.677005L305.473990,617.151931L307.301533,602.405680L300.040133,598.277811L298.856493,592.332793L301.909806,586.603912L299.327675,580.264028L301.320514,574.867034L295.367008,563.620312L302.214056,553.407009L307.974104,540.271658L298.179330,531.885405L296.360166,522.634624L296.232920,522.483741L295.167014,522.168247L280.380584,519.010699L275.810760,515.056736L268.796814,526.340842L257.918207,528.191369L253.877891,526.262381L252.354070,514.909104L249.810623,509.099770L240.785165,515.638293L245.205718,523.902446L242.882534,529.077465L226.379198,526.668151L215.381466,534.388150L206.955359,532.404997L201.041436,539.248432L202.966686,544.967764L191.866187,550.292890L177.982339,554.763355L168.109573,534.986585L166.663156,534.355561L156.648527,547.580723L150.713738,539.965242L144.286740,536.276712L130.683067,536.392697L122.827787,529.820073L122.864192,529.943236Z " data-code="soopu-Pobezovice" data-name="Poběžovice"/>
    <path d="M814.320110,723.803848L814.337139,723.975229L809.076481,732.329950L799.170686,734.460980L796.283801,743.456070L800.112104,749.253718L806.120011,750.318987L804.129403,756.375733L806.804267,760.220925L798.600165,759.712585L797.941942,764.107939L801.595403,767.063983L794.088721,780.372316L791.450317,790.872730L780.024528,788.507596L780.137021,792.790099L774.913988,796.752389L782.545816,799.227809L781.036026,806.345991L773.617137,810.315642L772.937466,822.093206L777.989257,832.311073L768.857065,833.819914L756.607250,833.363321L756.368359,833.641482L756.309236,833.756181L756.775325,839.991282L748.893909,850.792236L761.322688,854.586606L769.250945,858.493506L775.667269,864.335315L786.655334,857.806593L788.556178,859.464562L808.990027,861.450823L812.889678,866.988826L822.904912,857.674029L825.548029,849.308108L831.655898,852.463955L837.263139,850.146812L850.235726,858.692586L869.421996,860.275291L877.462521,859.016407L875.091761,869.318082L876.684046,875.268088L869.748447,878.198294L871.265406,884.473664L876.439054,881.521281L887.622083,884.899526L899.629534,884.300493L902.332465,902.707105L909.149848,906.945510L916.954001,904.745192L916.944216,904.234058L910.195010,883.230460L920.158399,884.699905L932.579366,881.120732L935.627496,868.199329L928.552382,867.345916L928.636969,856.068802L926.954622,850.548639L931.390578,850.286150L950.897848,832.887302L959.685442,834.560774L960.051267,820.182334L970.126980,800.369315L966.263233,801.487555L967.108889,796.238800L973.146384,792.145905L969.340463,779.837735L961.370060,778.608925L962.459423,776.080667L954.588435,764.908486L955.574256,761.134559L951.422278,748.237785L951.429069,748.209669L933.974359,747.428766L930.631901,739.171254L920.568380,735.364940L912.830006,739.238196L907.832694,739.260250L898.162641,731.685905L877.664355,727.713947L877.967998,731.688489L867.478439,728.714830L856.479498,732.675418L844.163514,722.330258L840.490720,716.914116L836.576186,705.325705L830.685495,713.523240L820.341407,716.261202L820.638836,721.411561L814.297562,723.576577L814.320110,723.803848Z " data-code="soopu-Horazdovice" data-name="Horažďovice"/>
    <path d="M352.401067,497.791177L352.363379,497.802066L354.941567,504.564755L346.066092,509.126943L349.736540,523.122055L341.374039,529.205540L336.327597,520.835560L338.104115,512.751992L326.197076,516.953308L318.822145,515.024325L306.914951,515.083139L297.071600,519.595628L296.887555,522.298692L296.232920,522.483741L296.360166,522.634624L298.179330,531.885405L307.974104,540.271658L302.214056,553.407009L295.367008,563.620312L301.320514,574.867034L299.327675,580.264028L301.909806,586.603912L298.856493,592.332793L300.040133,598.277811L307.301533,602.405680L305.473990,617.151931L311.191962,621.677005L328.488657,629.395943L330.235604,631.854532L327.103169,641.055164L327.947841,648.653804L334.783609,654.684508L331.468780,672.469746L331.453621,672.500032L331.876217,672.818799L334.237298,674.703760L351.944322,673.251560L353.044818,677.721263L366.458419,675.078984L375.903035,680.888753L386.730160,675.918789L391.408343,671.277853L407.668011,665.436533L407.765509,667.636753L417.901045,668.121981L416.953279,672.241594L425.470692,678.430887L434.508307,674.640982L435.435430,678.230494L444.836550,681.736715L452.009339,680.746890L459.565428,674.965970L458.891516,667.400408L472.447610,662.619478L471.723254,657.523062L471.626583,657.326400L471.349601,657.360518L444.099224,645.459796L444.423289,634.192071L434.302402,636.681405L425.761943,631.801759L433.750755,624.737108L443.991961,625.572158L448.126542,610.554920L444.195795,596.577866L440.003442,596.683279L428.166495,604.068485L419.703214,595.781282L412.186588,592.528185L412.093200,580.296917L406.575994,576.424856L410.346841,566.478319L410.483572,565.867657L410.381818,565.428514L408.560377,551.006396L409.547228,546.944716L406.877947,534.910159L411.835405,534.009773L408.006841,527.018293L425.300917,513.129383L425.299187,512.674631L425.248316,512.677185L426.780926,507.788832L430.717982,508.056157L430.148953,505.658515L430.227510,505.390742L430.055709,505.029291L419.607893,495.073236L416.648265,496.385001L414.558475,490.685560L406.652354,491.547461L403.222664,496.869880L393.057327,500.141332L378.828798,493.969562L369.456472,493.954109L352.507599,497.443892L352.401067,497.791177Z " data-code="soopu-Horsovsky_Tyn" data-name="Horšovský Týn"/>
    <path d="M410.483572,565.867657L410.346841,566.478319L406.575994,576.424856L412.093200,580.296917L412.186588,592.528185L419.703214,595.781282L428.166495,604.068485L440.003442,596.683279L444.195795,596.577866L448.126542,610.554920L443.991961,625.572158L433.750755,624.737108L425.761943,631.801759L434.302402,636.681405L444.423289,634.192071L444.099224,645.459796L471.349601,657.360518L471.626583,657.326400L471.569231,657.132565L480.664874,655.435795L483.313782,651.387745L501.263553,635.741569L506.748088,629.435541L515.371232,630.356655L523.381964,622.113787L522.493262,619.405228L522.470166,619.276115L521.994397,618.572914L518.568776,600.767216L525.216567,597.806655L514.347531,596.258904L512.165162,588.766626L512.179090,588.336215L511.473681,587.649900L501.972988,588.449748L493.510028,598.854279L487.570819,588.442658L486.772252,570.905013L482.271510,564.945433L469.692725,566.056572L450.611251,572.294994L434.686981,568.488893L431.084939,565.026556L410.901351,565.942454L410.483572,565.867657Z " data-code="soopu-Stankov" data-name="Staňkov"/>
    <path d="M552.666037,636.344973L552.588340,636.355466L544.899050,645.155955L545.472248,651.032734L530.949082,672.577468L535.668916,673.672145L533.782570,682.170307L529.778508,684.462056L528.831893,693.473826L513.482469,695.683329L512.433404,700.556806L512.378561,700.692959L512.846707,701.120894L517.367336,708.462408L491.022234,722.662653L489.977514,724.877496L493.931006,734.702267L506.059396,733.553632L521.117965,765.623888L518.001333,768.647623L502.707045,770.091728L509.141515,777.918135L517.890421,777.250038L523.558361,781.296561L525.461992,789.551465L530.718918,797.088666L528.762193,808.996080L526.672770,811.668497L528.270878,823.678210L532.066258,834.218638L532.428829,834.468753L532.708797,834.295280L541.189481,836.702376L541.874185,840.999753L549.149329,847.609559L556.880120,849.062857L565.909745,861.539462L567.997277,873.244607L561.319027,879.297453L566.545183,891.240658L574.723870,885.748806L593.141973,889.871802L602.320050,908.298451L602.092682,923.459729L594.026430,940.385790L591.905240,939.631379L587.876013,947.058974L594.921904,956.482530L598.975900,975.353776L602.490874,986.006464L601.715234,991.551426L614.007007,1007.396628L621.685002,1022.580494L625.137719,1041.286180L625.171078,1041.552892L625.703455,1041.417527L634.270704,1031.298093L652.007807,1020.105943L663.382005,1001.771534L669.581284,1003.100882L669.747148,989.912888L674.394797,987.061431L669.766902,974.694071L659.531174,975.289451L652.171360,973.708731L657.757051,953.397069L667.339291,956.690901L667.826571,950.946429L663.514133,946.557638L659.325323,931.458649L656.793539,930.760073L655.239075,911.574445L659.295236,908.745226L654.174177,890.004541L664.203271,875.576266L658.343559,858.132325L662.226194,844.030357L672.030904,843.730945L686.115690,850.409349L687.919709,844.954854L678.660224,822.932447L699.043898,820.377872L699.143356,820.295820L699.108412,820.251086L696.721331,817.338665L707.377611,808.508902L710.678136,802.943899L705.873171,791.184807L701.482859,791.633488L699.537168,786.967286L701.716189,780.106435L707.858997,778.517027L713.784651,773.478203L723.335773,773.758625L724.947398,763.236739L729.673505,757.812005L734.231170,757.473104L728.396147,749.336110L719.859317,749.619116L717.057791,735.202088L722.970403,730.336465L732.725231,731.594298L736.617924,714.093822L736.168066,706.942535L739.741710,706.301967L742.568707,712.512641L746.018354,704.716941L745.908931,704.610709L745.833981,704.705551L734.851153,693.691790L736.338320,687.690354L741.724240,684.614912L753.362910,682.799103L756.990783,678.377679L752.796567,677.172757L741.421072,668.316031L745.557149,659.143406L738.688687,655.847736L742.606569,654.354128L731.365511,647.893096L731.328516,647.786115L731.116095,647.938542L720.917882,652.555370L703.988923,641.001739L697.442728,647.082697L693.501186,646.051890L696.403136,662.087885L687.328781,673.376458L677.314615,673.074074L662.667297,666.085939L663.835709,653.740446L659.101586,640.206900L652.877034,638.138257L641.733812,627.966263L632.034210,631.911094L625.820330,636.750140L624.732811,626.668652L626.163701,616.651607L624.490956,609.022879L611.995652,608.118340L611.351283,611.621659L600.394977,619.877461L594.153589,618.155880L589.654054,621.806167L585.645480,616.472880L577.354512,623.276865L574.979940,618.719252L569.633306,620.880017L574.630955,629.334653L571.071837,631.596601L568.795352,639.526134L560.875738,632.292531L553.795362,635.820795L552.666037,636.344973Z " data-code="soopu-Klatovy" data-name="Klatovy"/>
    <path d="M444.356214,877.360893L442.203431,883.664690L444.623028,890.786836L451.180756,898.656060L459.966521,898.465758L466.884913,914.417413L472.261916,917.401458L480.393171,917.092596L486.284623,931.687142L484.270816,935.772378L503.802659,948.259892L500.801104,964.385809L516.680645,973.646218L528.608587,987.155496L537.702248,995.055622L542.703130,995.451649L545.912668,1000.402187L544.732079,1021.205389L543.159074,1026.395984L569.225176,1050.909408L588.767927,1059.716463L616.912488,1052.476397L622.808348,1053.203615L641.372609,1068.705989L642.279873,1069.479590L636.596000,1061.224668L630.890791,1046.653638L625.180864,1041.570581L625.171078,1041.552892L625.137719,1041.286180L621.685002,1022.580494L614.007007,1007.396628L601.715234,991.551426L602.490874,986.006464L598.975900,975.353776L594.921904,956.482530L587.876013,947.058974L591.905240,939.631379L594.026430,940.385790L602.092682,923.459729L602.320050,908.298451L593.141973,889.871802L574.723870,885.748806L566.545183,891.240658L561.319027,879.297453L567.997277,873.244607L565.909745,861.539462L556.880120,849.062857L549.149329,847.609559L541.874185,840.999753L541.189481,836.702376L532.708797,834.295280L532.428829,834.468753L532.283636,834.552757L520.898524,846.688633L502.101550,841.680130L501.906235,846.524883L491.846709,850.180151L486.902385,845.542230L479.830529,851.364352L459.763879,839.697911L449.952994,843.517652L447.143404,848.957603L452.495251,854.382552L444.614438,876.760898L444.356214,877.360893Z " data-code="soopu-Nyrsko" data-name="Nýrsko"/>
    <path d="M745.908931,704.610709L746.018354,704.716941L742.568707,712.512641L739.741710,706.301967L736.168066,706.942535L736.617924,714.093822L732.725231,731.594298L722.970403,730.336465L717.057791,735.202088L719.859317,749.619116L728.396147,749.336110L734.231170,757.473104L729.673505,757.812005L724.947398,763.236739L723.335773,773.758625L713.784651,773.478203L707.858997,778.517027L701.716189,780.106435L699.537168,786.967286L701.482859,791.633488L705.873171,791.184807L710.678136,802.943899L707.377611,808.508902L696.721331,817.338665L699.108412,820.251086L699.143356,820.295820L699.393912,820.055714L707.185682,817.806969L714.498952,821.332966L715.726002,831.936348L720.456333,833.398570L735.400969,820.543545L738.467255,821.330912L744.944177,831.024441L753.561323,823.989830L752.026716,829.736760L756.210522,833.413742L756.368359,833.641482L756.607250,833.363321L768.857065,833.819914L777.989257,832.311073L772.937466,822.093206L773.617137,810.315642L781.036026,806.345991L782.545816,799.227809L774.913988,796.752389L780.137021,792.790099L780.024528,788.507596L791.450317,790.872730L794.088721,780.372316L801.595403,767.063983L797.941942,764.107939L798.600165,759.712585L806.804267,760.220925L804.129403,756.375733L806.120011,750.318987L800.112104,749.253718L796.283801,743.456070L799.170686,734.460980L809.076481,732.329950L814.337139,723.975229L814.320110,723.803848L814.048515,723.736130L804.545906,718.139464L797.563080,718.406670L793.922624,708.906395L785.062142,715.253813L773.789950,719.953296L763.551561,717.920981L756.243690,708.462511L745.844831,704.548765L745.908931,704.610709Z " data-code="soopu-Planice" data-name="Plánice"/>
    <path d="M621.579250,53.391059L628.373444,65.053173L635.670449,61.037567L641.506349,64.586491L646.952906,71.717258L641.625873,71.021642L632.575994,81.896549L631.607193,92.600413L635.049226,101.237559L633.985366,112.115456L642.918447,124.605409L639.828502,130.392357L648.729333,129.546201L661.366686,141.031373L660.907851,144.146976L661.016466,144.669445L661.109217,144.945381L673.562893,152.838162L677.197681,151.181796L687.494570,152.101934L688.976367,146.731327L694.404486,145.659955L701.088468,153.097146L713.426373,151.866903L714.892110,160.907957L729.053118,158.328551L736.595573,167.925201L737.331341,178.654311L742.353452,185.567029L742.254029,192.683808L746.964587,198.098583L754.159937,200.570441L753.188998,214.693827L758.276384,208.867405L763.107916,221.850629L767.625869,219.657987L773.494568,226.612511L787.985752,224.992173L788.231117,224.885271L788.610980,224.912915L796.706398,225.061117L803.775671,212.839090L801.054424,209.473550L794.546751,211.637402L788.818662,206.883507L796.184132,200.419029L805.465820,200.964775L811.959987,189.418862L826.390892,199.214563L837.219839,197.529839L842.777956,188.441298L832.758633,185.709968L830.230455,173.162361L843.909556,169.807007L857.794075,184.212178L867.613385,186.503919L868.055482,186.313472L872.508288,183.459877L872.746964,182.861649L873.202954,181.810218L875.736863,176.272278L879.519781,165.203103L883.659427,158.367363L883.715704,158.330220L883.820592,158.228799L893.605215,153.878227L894.931962,154.715147L905.642470,154.135587L905.784931,154.109725L906.051175,144.517665L886.331155,129.790394L884.003637,117.473044L876.092834,111.883139L868.117606,110.951876L859.071417,118.271608L845.917109,121.785273L816.004369,120.036425L814.681800,116.329004L805.720855,108.611102L808.074768,107.313706L794.029783,99.201274L784.947943,99.799455L777.730251,92.664420L774.900582,92.761510L770.373529,85.072566L778.093726,80.897570L793.768719,83.087951L784.226818,77.675127L781.366845,70.922401L766.821101,72.673009L766.624528,73.982098L732.567947,70.526995L730.628973,71.345532L724.005287,84.985835L718.677540,84.522640L716.184650,77.828290L701.797486,80.610518L697.937572,75.601587L703.051730,70.723841L700.731660,68.924157L709.613510,48.086986L719.868918,47.131937L720.173608,39.413624L717.696199,33.206268L713.187780,33.162946L711.705158,27.362803L706.792332,30.148713L703.212927,24.080395L694.269850,28.895121L682.449468,31.427416L679.248662,29.943933L676.697900,17.101709L670.388490,13.150701L671.555735,5.467778L661.585258,7.925659L654.720767,22.383778L648.101317,21.518883L649.535102,13.851951L645.402371,7.159480L633.295457,7.751590L630.321908,12.225617L619.109001,10.310033L623.375955,15.087143L619.475577,33.841389L625.469562,32.771727L629.881819,35.288920L625.932746,51.314397L621.785519,52.568945L621.579250,53.391059Z " data-code="soopu-Kralovice" data-name="Kralovice"/>
    <path d="M425.987744,138.343771L422.363073,142.577045L426.988479,145.096597L430.137161,153.332682L446.613266,156.397647L447.983818,165.174898L453.367794,173.476812L460.019186,163.499856L470.501086,159.966245L471.150624,154.691492L482.126876,154.362956L484.268967,164.663527L487.756546,169.310323L499.581240,171.807918L503.074388,176.463279L518.455228,178.170984L526.807883,188.057416L542.547441,197.022751L550.052217,207.203978L550.661690,211.979554L559.382530,210.221139L559.435221,210.219080L559.424502,210.201633L568.771001,188.654082L573.836123,191.301107L576.493165,199.484227L583.287949,204.293279L596.495106,203.506459L597.885281,197.635834L613.885396,193.793788L617.009845,196.345612L619.501713,206.523451L624.665923,203.932606L641.196988,186.917845L634.258165,184.987531L627.840356,173.715954L632.882617,158.772716L640.233445,154.495197L654.814431,148.594624L654.354403,145.089925L660.797987,144.643954L661.016466,144.669445L660.907851,144.146976L661.366686,141.031373L648.729333,129.546201L639.828502,130.392357L642.918447,124.605409L633.985366,112.115456L635.049226,101.237559L631.607193,92.600413L632.575994,81.896549L641.625873,71.021642L646.952906,71.717258L641.506349,64.586491L635.670449,61.037567L628.373444,65.053173L621.579250,53.391059L621.040303,53.180524L617.910242,59.183267L613.139777,57.608743L602.370946,59.646675L598.614806,66.234396L586.438476,66.630876L582.283889,69.656791L589.302496,76.705815L592.000694,89.468562L589.760364,89.645106L583.389934,100.936524L585.083062,119.128974L567.337851,114.843606L552.605757,100.965061L549.927761,102.341830L547.456078,96.641532L526.467198,87.846239L516.482182,87.947063L513.001077,85.941860L508.161996,90.844273L492.668546,77.373419L480.689960,95.394750L472.001338,98.376616L473.232236,105.020606L463.311235,104.045440L460.824177,108.804900L451.810913,113.082494L450.100434,118.848246L439.628570,123.145173L438.141977,129.263133L427.723677,125.946844L426.003477,138.331632L425.987744,138.343771Z " data-code="soopu-Manetin" data-name="Manětín"/>
    <path d="M559.435221,210.219080L559.771082,210.428705L569.004442,219.107864L576.493527,218.503077L577.620314,231.024959L581.420128,236.056673L588.474078,236.521856L594.349267,244.929590L607.763041,246.277836L615.166352,262.388817L615.188706,262.415227L615.594317,262.047766L625.441105,253.255082L622.717100,247.571914L629.684481,247.367139L622.006374,240.690248L628.989754,230.825907L637.755864,237.583607L643.869329,233.702002L646.155529,238.109718L655.304648,238.377944L662.955793,247.725094L672.059113,249.694448L681.992704,244.074923L701.143976,249.527914L710.103020,242.085199L717.029373,241.560321L728.846070,262.480885L754.306931,262.210090L758.325850,263.906580L764.231321,260.607437L771.749189,259.793466L771.714523,257.016410L757.550512,244.013857L766.621863,237.092363L768.667751,241.461177L785.403862,239.936442L786.122619,239.728519L786.062841,239.620610L782.714673,235.178940L782.523768,234.769512L788.266614,225.588542L788.231117,224.885271L787.985752,224.992173L773.494568,226.612511L767.625869,219.657987L763.107916,221.850629L758.276384,208.867405L753.188998,214.693827L754.159937,200.570441L746.964587,198.098583L742.254029,192.683808L742.353452,185.567029L737.331341,178.654311L736.595573,167.925201L729.053118,158.328551L714.892110,160.907957L713.426373,151.866903L701.088468,153.097146L694.404486,145.659955L688.976367,146.731327L687.494570,152.101934L677.197681,151.181796L673.562893,152.838162L661.109217,144.945381L661.016466,144.669445L660.797987,144.643954L654.354403,145.089925L654.814431,148.594624L640.233445,154.495197L632.882617,158.772716L627.840356,173.715954L634.258165,184.987531L641.196988,186.917845L624.665923,203.932606L619.501713,206.523451L617.009845,196.345612L613.885396,193.793788L597.885281,197.635834L596.495106,203.506459L583.287949,204.293279L576.493165,199.484227L573.836123,191.301107L568.771001,188.654082L559.424502,210.201633L559.435221,210.219080Z " data-code="soopu-Plasy" data-name="Plasy"/>
    <path d="M852.819178,564.570373L852.867466,564.695394L858.854851,587.186733L853.788670,599.519870L848.732628,598.780373L843.270997,604.057398L824.318091,607.689368L814.835839,602.528632L797.772683,602.661175L796.710818,606.515666L786.695703,618.317324L780.589293,632.601530L768.689237,639.116208L764.489252,630.330105L745.266147,636.861560L736.284418,635.792027L736.286098,635.762763L736.094061,635.726760L730.804813,644.318709L731.329741,647.688634L731.328516,647.786115L731.365511,647.893096L742.606569,654.354128L738.688687,655.847736L745.557149,659.143406L741.421072,668.316031L752.796567,677.172757L756.990783,678.377679L753.362910,682.799103L741.724240,684.614912L736.338320,687.690354L734.851153,693.691790L745.833981,704.705551L745.908931,704.610709L745.844831,704.548765L756.243690,708.462511L763.551561,717.920981L773.789950,719.953296L785.062142,715.253813L793.922624,708.906395L797.563080,718.406670L804.545906,718.139464L814.048515,723.736130L814.320110,723.803848L814.297562,723.576577L820.638836,721.411561L820.341407,716.261202L830.685495,713.523240L836.576186,705.325705L840.490720,716.914116L844.163514,722.330258L856.479498,732.675418L867.478439,728.714830L877.967998,731.688489L877.664355,727.713947L898.162641,731.685905L907.832694,739.260250L912.830006,739.238196L920.568380,735.364940L930.631901,739.171254L933.974359,747.428766L951.429069,748.209669L951.431368,748.115997L954.758670,742.385831L953.015801,733.447435L961.890755,720.603791L972.731000,715.514225L958.322859,702.110846L956.680571,689.873038L953.408240,688.466488L955.724280,682.948759L954.270626,677.864272L956.311452,664.289672L942.884565,660.538789L943.024550,651.447381L947.464670,648.585191L944.621465,639.212394L955.059665,631.438000L959.423194,607.788602L952.713028,603.701360L953.416663,596.354692L941.382039,590.431045L935.848114,595.354193L940.565371,582.981322L935.810150,580.886273L939.086717,565.774482L936.441305,554.236735L943.996292,545.372031L944.048249,545.309367L922.572460,544.504406L914.726444,543.176050L905.198699,546.922712L909.436209,561.887165L900.530750,571.591673L896.086601,567.795944L885.766892,575.666574L875.372084,571.472326L871.836991,567.984873L859.643569,568.991548L852.798883,564.441208L852.819178,564.570373Z " data-code="soopu-Nepomuk" data-name="Nepomuk"/>
    <path d="M452.706146,238.617559L452.614454,239.243641L451.052918,246.056335L452.076529,255.615722L454.134695,255.562810L453.742291,268.618774L439.673457,286.035998L439.673281,286.053679L439.780443,286.071786L446.541042,291.760961L458.424945,286.335545L460.511765,289.644518L472.266588,291.676108L471.579965,294.760914L481.608657,312.609530L488.541101,320.161204L488.244354,323.838649L493.821259,324.346307L487.964530,332.437407L483.740816,332.270097L482.141132,338.678238L474.974746,343.002477L474.732823,361.990214L476.546830,360.325724L487.375575,363.902353L485.842838,372.639921L494.295601,377.220056L494.434860,377.339693L494.522738,377.585926L503.366392,374.904087L514.440206,376.613600L514.704640,380.449062L527.607889,382.417177L527.882438,385.387299L549.632964,376.448411L552.307189,373.687276L564.672974,372.107869L566.937411,378.621996L561.694291,379.577690L568.360541,386.421244L569.671602,396.109181L573.409800,391.497639L582.492289,391.928696L591.051393,389.611251L599.342641,393.782706L600.638453,391.364404L620.173586,386.528432L622.012497,386.452574L622.150335,386.440032L625.708997,373.459495L626.085479,365.057623L611.377148,358.834724L614.912202,349.777988L624.029582,333.286344L631.344251,334.513110L632.643508,340.891636L650.147080,351.522212L651.831596,348.777299L662.196210,351.110171L662.586041,351.546918L662.604630,351.567744L669.841584,345.781922L673.744207,343.885965L667.784865,328.092215L667.639806,327.134426L667.463665,327.215373L656.334961,324.395004L651.006284,324.015579L645.075423,320.160815L644.945195,319.855087L644.921671,319.866881L634.669907,322.740572L602.324116,307.972207L599.283884,305.254233L572.928320,289.837095L573.502074,286.781043L548.843734,277.465917L544.745725,273.883342L533.209101,286.904470L532.319975,299.700742L523.451589,295.860902L517.871647,295.712576L516.787175,289.151755L521.019194,277.734733L517.496747,259.253629L508.421836,259.490896L502.163376,252.276934L509.829971,238.071177L505.336126,236.922617L490.935163,228.227621L483.147089,226.699476L469.811094,239.627766L460.795386,240.861834L453.310493,238.667009L452.706146,238.617559Z " data-code="soopu-Mesto_Touskov" data-name="Město Touškov"/>
    <path d="M494.434860,377.339693L493.602826,377.952732L497.371511,378.829550L499.095238,385.854739L483.164612,391.622904L473.266036,400.013871L470.157052,407.515761L458.142902,414.455848L459.587340,420.229874L474.139388,423.881565L469.716712,450.160295L472.834060,454.511142L460.007279,452.128456L457.956210,458.716988L464.265250,469.033905L464.300774,469.130051L464.323129,469.556095L471.235583,473.084121L477.626971,472.346146L484.956905,478.495367L489.422924,469.560106L503.289140,463.394426L504.588639,452.386466L530.596384,442.632070L533.025358,448.464478L550.952761,441.228487L554.945901,448.953068L560.434512,446.810561L565.404510,452.604155L564.100191,461.462020L564.109959,461.476366L564.124324,461.497467L566.996999,466.149411L581.060480,465.850754L600.360893,463.947188L600.844566,464.359627L600.882407,464.326504L608.993609,458.317887L613.301567,451.080047L616.350000,450.797477L628.151502,439.430236L627.049939,435.095271L633.529377,433.122833L633.957431,433.248533L634.000246,433.012394L628.532722,416.636536L635.863953,407.276368L631.645267,400.243928L637.868750,396.512693L626.276276,396.767548L622.023747,387.804167L622.012497,386.452574L620.173586,386.528432L600.638453,391.364404L599.342641,393.782706L591.051393,389.611251L582.492289,391.928696L573.409800,391.497639L569.671602,396.109181L568.360541,386.421244L561.694291,379.577690L566.937411,378.621996L564.672974,372.107869L552.307189,373.687276L549.632964,376.448411L527.882438,385.387299L527.607889,382.417177L514.704640,380.449062L514.440206,376.613600L503.366392,374.904087L494.522738,377.585926L494.434860,377.339693Z " data-code="soopu-Nyrany" data-name="Nýřany"/>
    <path d="M615.188706,262.415227L615.207635,262.438870L616.958747,271.812845L627.125718,286.239196L621.511061,293.556599L634.138281,303.961497L633.242672,305.273355L644.784250,319.768585L644.945195,319.855087L645.075423,320.160815L651.006284,324.015579L656.334961,324.395004L667.463665,327.215373L667.639806,327.134426L667.709058,327.198380L685.795285,322.660770L699.102805,321.989036L705.752237,324.743875L706.129837,333.793902L710.467798,349.574755L714.933508,350.611441L719.614719,341.594447L724.011710,353.424204L732.401201,356.075733L732.220462,348.464226L737.969507,342.730066L741.280209,335.286822L758.703828,327.074146L762.819667,317.185003L768.861144,315.229186L768.968283,315.056409L768.946015,314.998557L775.002040,309.520074L788.927222,313.315050L789.393458,311.926591L789.652062,311.934426L789.433434,311.722224L788.548526,297.199975L778.335153,297.304575L782.373121,284.945399L786.183141,266.315135L783.326658,262.476331L789.214466,249.264663L786.155309,239.794359L786.122619,239.728519L785.403862,239.936442L768.667751,241.461177L766.621863,237.092363L757.550512,244.013857L771.714523,257.016410L771.749189,259.793466L764.231321,260.607437L758.325850,263.906580L754.306931,262.210090L728.846070,262.480885L717.029373,241.560321L710.103020,242.085199L701.143976,249.527914L681.992704,244.074923L672.059113,249.694448L662.955793,247.725094L655.304648,238.377944L646.155529,238.109718L643.869329,233.702002L637.755864,237.583607L628.989754,230.825907L622.006374,240.690248L629.684481,247.367139L622.717100,247.571914L625.441105,253.255082L615.594317,262.047766L615.188706,262.415227Z " data-code="soopu-Tremosna" data-name="Třemošná"/>
    <path d="M397.770034,179.050538L412.017030,185.278573L412.953149,192.119913L420.437719,202.329484L426.691063,202.123640L429.135392,209.071756L438.056698,220.098970L439.489259,238.251763L452.118997,238.609383L452.706146,238.617559L453.310493,238.667009L460.795386,240.861834L469.811094,239.627766L483.147089,226.699476L490.935163,228.227621L505.336126,236.922617L509.829971,238.071177L502.163376,252.276934L508.421836,259.490896L517.496747,259.253629L521.019194,277.734733L516.787175,289.151755L517.871647,295.712576L523.451589,295.860902L532.319975,299.700742L533.209101,286.904470L544.745725,273.883342L548.843734,277.465917L573.502074,286.781043L572.928320,289.837095L599.283884,305.254233L602.324116,307.972207L634.669907,322.740572L644.921671,319.866881L644.945195,319.855087L644.784250,319.768585L633.242672,305.273355L634.138281,303.961497L621.511061,293.556599L627.125718,286.239196L616.958747,271.812845L615.207635,262.438870L615.188706,262.415227L615.166352,262.388817L607.763041,246.277836L594.349267,244.929590L588.474078,236.521856L581.420128,236.056673L577.620314,231.024959L576.493527,218.503077L569.004442,219.107864L559.771082,210.428705L559.435221,210.219080L559.382530,210.221139L550.661690,211.979554L550.052217,207.203978L542.547441,197.022751L526.807883,188.057416L518.455228,178.170984L503.074388,176.463279L499.581240,171.807918L487.756546,169.310323L484.268967,164.663527L482.126876,154.362956L471.150624,154.691492L470.501086,159.966245L460.019186,163.499856L453.367794,173.476812L447.983818,165.174898L446.613266,156.397647L430.137161,153.332682L426.988479,145.096597L422.363073,142.577045L425.987744,138.343771L425.972381,138.326948L422.314058,134.759131L408.106451,138.293550L396.998793,142.602863L396.622087,149.065118L404.469696,157.331802L404.623663,164.573874L399.828527,164.323238L397.990222,168.824029L402.652991,173.273246L397.774197,179.038641L397.770034,179.050538Z " data-code="soopu-Vseruby" data-name="Všeruby"/>
    <path d="M667.639806,327.134426L667.784865,328.092215L673.744207,343.885965L669.841584,345.781922L662.604630,351.567744L662.586042,351.546918L662.196210,351.110171L651.831596,348.777299L650.147080,351.522212L632.643508,340.891636L631.344251,334.513110L624.029582,333.286344L614.912202,349.777988L611.377148,358.834724L626.085479,365.057623L625.708997,373.459495L622.150335,386.440032L622.012497,386.452574L622.023747,387.804167L626.276276,396.767548L637.868750,396.512693L631.645267,400.243928L635.863953,407.276368L628.532722,416.636536L634.000246,433.012394L633.957431,433.248533L634.246191,433.313960L635.770814,439.848483L634.932191,448.477419L643.231093,456.805530L648.794677,451.462341L652.844243,454.023257L677.276554,454.915026L677.291229,454.956886L677.299235,454.952347L686.693773,445.786305L700.417859,445.407543L703.840689,446.786132L704.886305,454.182411L713.566532,454.429367L719.765516,458.129359L719.772828,458.250834L719.881885,458.265552L728.352800,456.837873L734.454399,450.956048L729.865769,446.006352L727.595129,438.111432L722.974780,435.708077L734.129269,417.163779L736.965892,397.043410L746.899978,389.705980L756.433026,391.647697L759.479824,402.264332L768.139647,399.686866L768.319707,399.706002L768.181124,399.327840L766.807912,392.060401L784.984794,365.942663L791.103099,368.022122L793.805866,350.205221L791.132127,349.807068L784.369121,341.833610L773.623699,343.546473L777.447947,336.754438L775.212039,335.813811L777.867152,317.365207L768.991652,315.099444L768.968283,315.056409L768.861144,315.229186L762.819667,317.185003L758.703828,327.074146L741.280209,335.286822L737.969507,342.730066L732.220462,348.464226L732.401201,356.075733L724.011710,353.424204L719.614719,341.594447L714.933508,350.611441L710.467798,349.574755L706.129837,333.793902L705.752237,324.743875L699.102805,321.989036L685.795285,322.660770L667.709058,327.198380L667.639806,327.134426Z " data-code="soopu-Plzen" data-name="Plzeň"/>
    <path d="M719.772828,458.250834L719.665116,458.496451L717.514434,469.146101L718.484358,474.308472L706.456442,489.701310L710.310880,496.310693L737.533025,498.761079L739.206699,504.540826L739.378303,504.790001L739.640634,504.850900L747.097356,517.499886L756.578035,523.545477L756.827111,518.624627L765.760316,518.937372L764.438853,514.637273L769.227472,510.294504L776.782909,517.376227L776.862165,517.508863L778.231814,516.627761L782.329620,503.171158L791.654344,504.023214L800.410461,496.430619L810.855423,480.219061L805.040239,479.300395L806.065139,471.079989L821.361460,446.400310L821.800420,446.609313L821.462093,446.223595L811.790263,441.599792L798.270650,442.056536L797.770235,437.568556L790.537272,424.419817L803.123000,421.563060L808.519888,416.859081L798.670278,415.354107L793.123705,407.276331L785.365017,402.642544L781.800843,395.193301L768.577591,399.765650L768.319707,399.706002L768.139647,399.686866L759.479824,402.264332L756.433026,391.647697L746.899978,389.705980L736.965892,397.043410L734.129269,417.163779L722.974780,435.708077L727.595129,438.111432L729.865769,446.006352L734.454399,450.956048L728.352800,456.837873L719.881885,458.265552L719.772828,458.250834Z " data-code="soopu-Stary_Plzenec" data-name="Starý Plzenec"/>
    <path d="M677.291229,454.956886L677.287218,455.026863L678.711286,460.270033L669.827467,469.383298L671.642452,472.461451L665.835467,478.841057L672.259983,477.409635L674.599368,481.366513L670.667375,486.627569L665.835924,507.603271L665.531066,507.354969L665.177676,507.019614L664.001171,497.730701L652.519606,499.205648L648.749584,495.061509L625.097528,501.125017L616.274602,517.497001L619.402190,525.415444L628.094263,526.723653L630.477281,531.524625L621.051010,530.776425L618.258560,537.424580L620.158475,541.744628L616.216907,546.202959L602.937784,547.083851L587.324030,553.803994L583.815329,563.971368L567.185673,560.906408L566.708636,560.751542L566.658417,560.781540L561.976436,566.281322L549.395964,572.202483L541.955883,571.668463L541.944216,571.417104L541.417324,571.826649L536.301076,575.162499L535.249840,580.807295L530.078716,586.154398L524.225116,583.713425L512.205804,587.859494L512.179090,588.336215L512.165162,588.766626L514.347531,596.258904L525.216567,597.806655L518.568776,600.767216L521.994397,618.572914L522.470166,619.276115L522.546973,619.270512L537.905402,621.278913L541.103221,629.135647L552.622809,636.273493L552.666037,636.344973L553.795362,635.820795L560.875738,632.292531L568.795352,639.526134L571.071837,631.596601L574.630955,629.334653L569.633306,620.880017L574.979940,618.719252L577.354512,623.276865L585.645480,616.472880L589.654054,621.806167L594.153589,618.155880L600.394977,619.877461L611.351283,611.621659L611.995652,608.118340L624.490956,609.022879L626.163701,616.651607L624.732811,626.668652L625.820330,636.750140L632.034210,631.911094L641.733812,627.966263L652.877034,638.138257L659.101586,640.206900L663.835709,653.740446L662.667297,666.085939L677.314615,673.074074L687.328781,673.376458L696.403136,662.087885L693.501186,646.051890L697.442728,647.082697L703.988923,641.001739L720.917882,652.555370L731.116095,647.938542L731.328516,647.786115L731.329741,647.688634L730.804813,644.318709L736.094061,635.726760L736.286098,635.762763L736.302998,635.735603L734.843300,623.051632L735.986767,617.668380L727.348491,612.669211L718.839644,590.858818L730.095274,583.943152L739.717762,587.284215L734.928328,561.404018L743.943472,559.232177L737.073567,538.519631L729.213698,533.083542L728.703897,524.460828L734.947354,509.197733L739.281435,504.745165L739.378303,504.790001L739.206699,504.540826L737.533025,498.761079L710.310880,496.310693L706.456442,489.701310L718.484358,474.308472L717.514434,469.146101L719.665116,458.496451L719.772828,458.250834L719.765516,458.129359L713.566532,454.429367L704.886305,454.182411L703.840689,446.786132L700.417859,445.407543L686.693773,445.786305L677.299235,454.952347L677.291229,454.956886Z " data-code="soopu-Prestice" data-name="Přeštice"/>
    <path d="M883.715704,158.330220L883.659427,158.367363L879.519781,165.203103L875.736863,176.272278L873.202954,181.810218L872.746964,182.861649L872.508288,183.459877L868.055482,186.313472L867.613385,186.503919L857.794075,184.212178L843.909556,169.807007L830.230455,173.162361L832.758633,185.709968L842.777956,188.441298L837.219839,197.529839L826.390892,199.214563L811.959987,189.418862L805.465820,200.964775L796.184132,200.419029L788.818662,206.883507L794.546751,211.637402L801.054424,209.473550L803.775671,212.839090L796.706398,225.061117L788.610980,224.912915L788.231117,224.885271L788.266614,225.588542L782.523768,234.769512L782.714673,235.178940L786.062841,239.620610L786.122619,239.728519L786.155309,239.794359L789.214466,249.264663L783.326658,262.476331L786.183141,266.315135L782.373121,284.945399L778.335153,297.304575L788.548526,297.199975L789.433434,311.722224L789.652062,311.934426L789.710127,311.936484L792.472573,312.754373L809.527354,301.046687L816.648782,307.322968L816.058433,314.979315L825.288422,328.570691L828.943748,318.334385L829.024842,312.632558L838.390436,306.165012L837.903596,303.187870L851.791153,299.893004L855.585421,303.769675L861.465860,315.493759L875.330027,329.590420L897.290031,298.963195L900.654555,294.278121L901.054121,292.978569L902.651297,287.358577L884.705941,285.197947L892.924117,275.532899L891.248280,274.443055L891.775193,261.967683L895.255963,265.242570L911.464708,264.726935L913.082107,262.977623L909.164451,250.912281L910.835430,236.935381L898.629122,236.815999L889.287031,240.324022L892.265464,228.448841L890.142188,223.627515L897.599030,215.413470L898.277651,211.535982L877.752506,217.001069L869.676996,206.553547L878.145573,202.343184L887.019459,191.419937L892.542969,192.126741L899.154454,187.496811L890.933522,180.612107L883.826705,158.560170L883.715704,158.330220Z " data-code="soopu-Radnice" data-name="Radnice"/>
    <path d="M789.652062,311.934426L789.393458,311.926591L788.927222,313.315050L775.002040,309.520074L768.946015,314.998557L768.968283,315.056409L768.991652,315.099444L777.867152,317.365207L775.212039,335.813811L777.447947,336.754438L773.623699,343.546473L784.369121,341.833610L791.132127,349.807068L793.805866,350.205221L791.103099,368.022122L784.984794,365.942663L766.807912,392.060401L768.181124,399.327840L768.319707,399.706002L768.577591,399.765650L781.800843,395.193301L785.365017,402.642544L793.123705,407.276331L798.670278,415.354107L808.519888,416.859081L803.123000,421.563060L790.537272,424.419817L797.770235,437.568556L798.270650,442.056536L811.790263,441.599792L821.462093,446.223595L821.800420,446.609313L821.956821,446.464307L832.986243,442.844880L835.752588,452.406097L829.843903,475.095587L826.427089,475.036624L823.703675,484.876935L830.106387,486.543633L838.035344,485.238272L850.575765,491.687539L855.636883,488.043685L862.975120,499.451355L871.088765,488.233750L867.570637,486.730583L871.965533,482.236656L880.916744,488.722216L891.869039,490.971847L892.244900,490.724447L907.381979,496.858892L920.755290,491.208504L911.964615,477.834127L900.474027,475.209933L902.162420,468.121407L924.314863,460.125865L927.672669,455.978436L912.852500,448.823687L908.256223,448.675943L896.556679,454.071468L896.152960,456.911769L889.407174,450.060175L888.863462,445.648125L892.330959,432.684974L899.176886,428.973780L905.588673,416.324936L904.555468,414.840587L932.185712,398.507121L941.632315,406.257984L952.245407,408.601375L958.486941,401.748600L959.152364,395.120476L971.637894,386.535666L987.615930,372.232028L976.086087,363.254029L964.138548,369.328101L972.203849,359.642655L976.143288,346.406396L971.237520,336.635560L969.274126,325.670020L968.769380,324.753200L940.698562,323.465714L928.192919,325.729923L920.397266,315.948125L911.299914,315.249855L907.083994,317.075179L900.962088,314.762277L905.881639,304.289715L901.008713,295.071407L900.654555,294.278121L897.290031,298.963195L875.330027,329.590420L861.465860,315.493759L855.585421,303.769675L851.791153,299.893004L837.903596,303.187870L838.390436,306.165012L829.024842,312.632558L828.943748,318.334385L825.288422,328.570691L816.058433,314.979315L816.648782,307.322968L809.527354,301.046687L792.472573,312.754373L789.710127,311.936484L789.652062,311.934426Z " data-code="soopu-Rokycany" data-name="Rokycany"/>
    <path d="M905.642470,154.135587L894.931962,154.715147L893.605215,153.878227L883.820592,158.228799L883.715704,158.330220L883.826705,158.560170L890.933522,180.612107L899.154454,187.496811L892.542969,192.126741L887.019459,191.419937L878.145573,202.343184L869.676996,206.553547L877.752506,217.001069L898.277651,211.535982L897.599030,215.413470L890.142188,223.627515L892.265464,228.448841L889.287031,240.324022L898.629122,236.815999L910.835430,236.935381L909.164451,250.912281L913.082107,262.977623L911.464708,264.726935L895.255963,265.242570L891.775193,261.967683L891.248280,274.443055L892.924117,275.532899L884.705941,285.197947L902.651297,287.358577L901.054121,292.978569L900.654555,294.278121L901.008713,295.071407L905.881639,304.289715L900.962088,314.762277L907.083994,317.075179L911.299914,315.249855L920.397266,315.948125L928.192919,325.729923L940.698562,323.465714L968.769380,324.753200L968.855480,324.730060L982.326725,312.997217L980.799796,303.283175L976.152837,302.657585L974.474411,297.484367L979.503020,287.901123L980.164884,275.378967L984.791018,269.032263L982.167842,262.906155L981.551175,254.460236L998.880245,254.138685L994.108184,237.056954L994.542446,229.453607L988.134665,206.973325L990.233733,205.458437L990.123722,193.954322L997.887882,189.854257L985.930717,191.025769L976.944553,187.924518L964.562262,176.056541L958.663682,177.684463L949.810379,173.849641L940.185526,177.509267L937.426491,175.042289L941.205957,171.790931L942.195625,158.852188L938.208216,150.373173L932.751050,152.110515L923.888096,148.163092L914.914614,149.556019L905.744279,154.154728L905.642470,154.135587Z " data-code="soopu-Zbiroh" data-name="Zbiroh"/>
    <path d="M600.844566,464.359627L600.959849,464.806868L582.212171,497.443729L584.478545,511.151976L580.702681,511.963654L568.252472,523.302898L570.308182,530.349949L575.850899,535.416352L563.463709,540.553079L552.357004,540.731941L551.888507,547.392288L554.898797,550.105712L558.915568,547.611175L566.713788,560.035178L566.708636,560.751542L567.185673,560.906408L583.815329,563.971368L587.324030,553.803994L602.937784,547.083851L616.216907,546.202959L620.158475,541.744628L618.258560,537.424580L621.051010,530.776425L630.477281,531.524625L628.094263,526.723653L619.402190,525.415444L616.274602,517.497001L625.097528,501.125017L648.749584,495.061509L652.519606,499.205648L664.001171,497.730701L665.177676,507.019614L665.531067,507.354969L665.835924,507.603271L670.667375,486.627569L674.599368,481.366513L672.259983,477.409635L665.835467,478.841057L671.642452,472.461451L669.827467,469.383298L678.711286,460.270033L677.287218,455.026863L677.291229,454.956886L677.276554,454.915026L652.844243,454.023257L648.794677,451.462341L643.231093,456.805530L634.932191,448.477419L635.770814,439.848483L634.246191,433.313960L633.957431,433.248533L633.529377,433.122833L627.049939,435.095271L628.151502,439.430236L616.350000,450.797477L613.301567,451.080047L608.993609,458.317887L600.882407,464.326504L600.844566,464.359627Z " data-code="soopu-Dobrany" data-name="Dobřany"/>
    <path d="M425.299187,512.674631L425.300917,513.129383L408.006841,527.018293L411.835405,534.009773L406.877947,534.910159L409.547228,546.944716L408.560377,551.006396L410.381818,565.428514L410.483572,565.867657L410.901351,565.942454L431.084939,565.026556L434.686981,568.488893L450.611251,572.294994L469.692725,566.056572L482.271510,564.945433L486.772252,570.905013L487.570819,588.442658L493.510028,598.854279L501.972988,588.449748L511.473681,587.649900L512.179090,588.336215L512.205804,587.859494L524.225116,583.713425L530.078716,586.154398L535.249840,580.807295L536.301076,575.162499L541.417324,571.826649L541.944216,571.417104L541.991989,571.223168L536.659800,567.147609L533.809374,558.027445L526.440627,557.826943L522.135570,552.832952L523.454550,549.635836L519.703322,543.747689L522.586432,534.307111L496.413805,520.360714L499.719587,515.170760L496.217461,510.700373L466.552267,511.958406L461.366626,515.112477L454.989550,513.858311L444.050479,523.495640L437.406081,537.674500L429.668713,538.480772L427.760101,534.370865L435.347261,525.249684L432.347504,517.217767L425.549939,512.662325L425.299187,512.674631Z " data-code="soopu-Holysov" data-name="Holýšov"/>
    <path d="M464.300774,469.130051L464.059952,469.302125L458.319866,474.296895L460.303351,482.303193L451.388477,493.588163L452.227241,496.255350L441.497352,494.745767L432.448266,499.591075L430.693402,505.811444L430.227510,505.390742L430.148953,505.658515L430.717982,508.056157L426.780926,507.788832L425.248316,512.677185L425.299187,512.674631L425.549939,512.662325L432.347504,517.217767L435.347261,525.249684L427.760101,534.370865L429.668713,538.480772L437.406081,537.674500L444.050479,523.495640L454.989550,513.858311L461.366626,515.112477L466.552267,511.958406L496.217461,510.700373L499.719587,515.170760L496.413805,520.360714L522.586432,534.307111L519.703322,543.747689L523.454550,549.635836L522.135570,552.832952L526.440627,557.826943L533.809374,558.027445L536.659800,567.147609L541.991989,571.223168L541.944216,571.417104L541.955883,571.668463L549.395964,572.202483L561.976436,566.281322L566.658417,560.781540L566.708636,560.751542L566.713788,560.035178L558.915568,547.611175L554.898797,550.105712L551.888507,547.392288L552.357004,540.731941L563.463709,540.553079L575.850899,535.416352L570.308182,530.349949L568.252472,523.302898L580.702681,511.963654L584.478545,511.151976L582.212171,497.443729L600.959849,464.806868L600.844566,464.359627L600.360893,463.947188L581.060480,465.850754L566.996999,466.149411L564.124324,461.497467L564.109959,461.476367L564.100191,461.462020L565.404510,452.604155L560.434512,446.810561L554.945901,448.953068L550.952761,441.228487L533.025358,448.464478L530.596384,442.632070L504.588639,452.386466L503.289140,463.394426L489.422924,469.560106L484.956905,478.495367L477.626971,472.346146L471.235583,473.084121L464.323129,469.556095L464.300774,469.130051Z " data-code="soopu-Stod" data-name="Stod"/>
    <path d="M341.463279,194.491749L349.408025,205.048128L347.755922,209.104045L361.262974,226.363338L365.621151,237.125423L370.676156,240.936952L373.366942,249.197797L375.780427,249.744178L374.812945,258.728383L368.592714,258.082953L367.037053,264.109167L366.947736,264.301496L366.942824,264.585781L372.507606,269.970714L365.485192,276.307144L362.707261,284.989100L366.086183,290.795696L372.157775,295.029436L364.404723,298.301925L363.677083,305.212773L370.244088,314.435685L376.405413,315.399405L382.194599,321.344758L390.784024,319.707377L396.527453,315.973824L405.234719,317.193802L409.468609,311.993608L414.596920,312.302034L425.885700,301.073574L425.734350,288.403201L439.391785,285.947567L439.673281,286.053679L439.673457,286.035998L453.742291,268.618774L454.134695,255.562810L452.076529,255.615722L451.052918,246.056335L452.614454,239.243641L452.706146,238.617559L452.118997,238.609383L439.489259,238.251763L438.056698,220.098970L429.135392,209.071756L426.691063,202.123640L420.437719,202.329484L412.953149,192.119913L412.017030,185.278573L397.770034,179.050538L397.764355,179.103410L381.847288,194.788100L374.969529,192.953916L372.208486,198.547053L368.539819,194.790368L350.970860,184.401223L341.560347,194.397350L341.463279,194.491749Z " data-code="soopu-Bezdruzice" data-name="Bezdružice"/>
    <path d="M309.669122,329.361071L309.757541,329.596349L306.223282,335.525489L314.027590,337.338490L319.689808,341.174623L307.546982,341.346830L305.358667,368.191945L312.606862,376.964963L317.901507,378.902549L322.707966,384.920419L323.068074,390.321083L329.235753,392.319411L332.416361,399.393295L339.401026,407.183456L348.982590,428.936189L341.689026,433.234365L347.972198,445.738054L352.393512,444.432332L350.755818,453.874760L352.486767,459.243932L350.655026,464.958942L343.578292,469.318239L348.932986,486.828072L356.872757,487.988093L352.361972,497.730214L352.401067,497.791177L352.507599,497.443892L369.456472,493.954109L378.828798,493.969562L393.057327,500.141332L403.222664,496.869880L406.652354,491.547461L414.558475,490.685560L416.648265,496.385001L419.607893,495.073236L430.055709,505.029291L430.227510,505.390742L430.693402,505.811444L432.448266,499.591075L441.497352,494.745767L452.227241,496.255350L451.388477,493.588163L460.303351,482.303193L458.319866,474.296895L464.059952,469.302125L464.300774,469.130051L464.265250,469.033905L457.956210,458.716988L460.007279,452.128456L472.834060,454.511142L469.716712,450.160295L474.139388,423.881565L459.587340,420.229874L458.142902,414.455848L470.157052,407.515761L473.266036,400.013871L483.164612,391.622904L499.095238,385.854739L497.371511,378.829550L493.602826,377.952732L494.434860,377.339693L494.295601,377.220056L485.842838,372.639921L487.375575,363.902353L476.546830,360.325724L474.732823,361.990214L474.974746,343.002477L482.141132,338.678238L483.740816,332.270097L487.964530,332.437407L493.821259,324.346307L488.244354,323.838649L488.541101,320.161204L481.608657,312.609530L471.579965,294.760914L472.266588,291.676108L460.511765,289.644518L458.424945,286.335545L446.541042,291.760961L439.780443,286.071786L439.673281,286.053679L439.391785,285.947567L425.734350,288.403201L425.885700,301.073574L414.596920,312.302034L409.468609,311.993608L405.234719,317.193802L396.527453,315.973824L390.784024,319.707377L382.194599,321.344758L376.405413,315.399405L370.244088,314.435685L363.677083,305.212773L364.404723,298.301925L372.157775,295.029436L366.086183,290.795696L362.707261,284.989100L365.485192,276.307144L372.507606,269.970714L366.942824,264.585781L366.947736,264.301496L366.430856,264.235875L354.049227,255.322103L351.129170,261.741905L343.857363,260.577432L339.635158,267.256921L327.624646,270.848889L321.403121,270.172987L321.295622,263.093135L305.144074,267.578806L313.421561,283.433835L314.861328,292.415673L314.529564,305.258491L316.213036,318.616999L315.300089,323.058315L309.795188,328.950422L309.669122,329.361071Z " data-code="soopu-Stribro" data-name="Stříbro"/>
    <path d="M703.038279,1142.440138L705.711975,1151.895709L703.684447,1164.028685L709.719211,1174.461009L705.163905,1188.918683L705.972388,1194.771533L721.944991,1210.007306L726.127911,1210.422343L746.158402,1221.693337L747.002016,1223.927682L759.489425,1231.844137L773.081752,1243.078301L779.343087,1240.518721L777.764700,1223.204625L778.487006,1218.737144L786.800596,1212.361568L808.656932,1202.183889L799.042190,1196.484214L800.496737,1184.681982L806.021578,1173.436135L803.605546,1161.289379L812.363898,1147.657612L812.981369,1140.070276L822.898703,1125.897100L831.208923,1132.247524L841.470312,1124.424061L846.160711,1116.023857L847.037514,1104.699391L843.491049,1101.136546L841.837305,1085.747682L829.272625,1071.822721L830.554976,1067.086371L839.959497,1059.411994L837.976101,1050.255773L838.479481,1041.372036L842.115522,1027.443423L838.620652,1027.909011L836.180277,1022.780254L836.210366,1022.817981L835.969249,1018.580196L834.480832,1016.860139L833.800644,1014.311524L834.031323,1013.688388L834.050342,1013.637009L831.547695,1003.961845L822.806105,994.038179L815.072332,990.784909L801.238434,990.543262L793.326712,993.529040L795.334835,997.811098L791.838004,1001.879382L780.229244,1000.941017L776.012326,1002.989037L776.836796,1011.290283L767.247902,1015.047115L761.383777,1025.324880L763.485292,1026.305254L754.434932,1033.040004L752.495084,1038.223449L771.364881,1042.072479L768.224672,1050.178700L764.575449,1051.289519L770.489116,1058.035829L767.014232,1063.760689L751.414914,1060.531257L752.019770,1063.371820L739.299004,1073.108482L734.897131,1069.835438L729.315058,1079.989957L739.472100,1085.730117L730.790614,1099.199265L741.288430,1111.835890L740.037685,1113.469010L747.194732,1124.098905L740.771781,1131.928891L730.806878,1139.531363L725.351633,1139.488459L711.385565,1143.429059L703.144096,1142.167091L703.038279,1142.440138Z " data-code="soopu-Kasperske_Hory" data-name="Kašperské Hory"/>
    <path d="M625.171078,1041.552892L625.180864,1041.570581L630.890791,1046.653638L636.596000,1061.224668L642.279873,1069.479590L642.940497,1069.504284L658.821999,1081.058523L665.510102,1092.184551L677.836709,1106.315304L683.667525,1110.234686L686.734498,1118.669644L691.883968,1119.621869L694.735215,1124.514106L697.895861,1122.817079L701.267986,1133.605328L697.737292,1135.329322L703.179392,1141.219694L703.144096,1142.167091L711.385565,1143.429059L725.351633,1139.488459L730.806878,1139.531363L740.771781,1131.928891L747.194732,1124.098905L740.037685,1113.469010L741.288430,1111.835890L730.790614,1099.199265L739.472100,1085.730117L729.315058,1079.989957L734.897131,1069.835438L739.299004,1073.108482L752.019770,1063.371820L751.414914,1060.531257L767.014232,1063.760689L770.489116,1058.035829L764.575449,1051.289519L768.224672,1050.178700L771.364881,1042.072479L752.495084,1038.223449L754.434932,1033.040004L763.485292,1026.305254L761.383777,1025.324880L767.247902,1015.047115L776.836796,1011.290283L776.012326,1002.989037L780.229244,1000.941017L791.838004,1001.879382L795.334835,997.811098L793.326712,993.529040L801.238434,990.543262L815.072332,990.784909L822.806105,994.038179L831.547695,1003.961845L834.050342,1013.637009L834.031324,1013.688387L833.800644,1014.311524L834.480832,1016.860139L835.969249,1018.580196L836.210366,1022.817981L836.224986,1022.825610L848.187077,1024.985241L845.892920,1027.090235L861.331530,1030.799223L863.361354,1035.270999L875.660401,1021.351101L885.081864,1014.295246L883.134192,1011.021080L896.535792,1007.665898L899.393673,1004.719596L907.057483,1006.197237L908.404905,1003.622281L906.314130,980.477456L915.501157,973.720172L917.841333,975.022168L924.737989,970.086934L908.161597,943.838655L904.068860,939.723269L908.014887,932.350306L905.537999,932.074042L911.401278,925.190818L915.972448,926.648182L916.854222,921.653574L927.321800,921.125503L926.740477,914.843464L930.395653,907.994624L926.767037,905.284153L917.262464,904.856389L916.954001,904.745192L909.149848,906.945510L902.332465,902.707105L899.629534,884.300493L887.622083,884.899526L876.439054,881.521281L871.265406,884.473664L869.748447,878.198294L876.684046,875.268088L875.091761,869.318082L877.462521,859.016407L869.421996,860.275291L850.235726,858.692586L837.263139,850.146812L831.655898,852.463955L825.548029,849.308108L822.904912,857.674029L812.889678,866.988826L808.990027,861.450823L788.556178,859.464562L786.655334,857.806593L775.667269,864.335315L769.250945,858.493506L761.322688,854.586606L748.893909,850.792236L756.775325,839.991282L756.309236,833.756181L756.368359,833.641482L756.210522,833.413742L752.026716,829.736760L753.561323,823.989830L744.944177,831.024441L738.467255,821.330912L735.400969,820.543545L720.456333,833.398570L715.726002,831.936348L714.498952,821.332966L707.185682,817.806969L699.393912,820.055714L699.143356,820.295820L699.043898,820.377872L678.660224,822.932447L687.919709,844.954854L686.115690,850.409349L672.030904,843.730945L662.226194,844.030357L658.343559,858.132325L664.203271,875.576266L654.174177,890.004541L659.295236,908.745226L655.239075,911.574445L656.793539,930.760073L659.325323,931.458649L663.514133,946.557638L667.826571,950.946429L667.339291,956.690901L657.757051,953.397069L652.171360,973.708731L659.531174,975.289451L669.766902,974.694071L674.394797,987.061431L669.747148,989.912888L669.581284,1003.100882L663.382005,1001.771534L652.007807,1020.105943L634.270704,1031.298093L625.703455,1041.417527L625.171078,1041.552892Z " data-code="soopu-Susice" data-name="Sušice"/>
    <path d="M251.082003,338.814476L251.080937,338.816969L262.656847,358.795179L253.848801,375.114233L247.187143,377.512748L232.141303,379.058051L227.735984,377.758424L214.380131,367.436204L211.844388,357.622078L208.854709,357.592260L209.322716,378.727810L191.017551,380.572312L179.341072,385.918473L172.357108,385.644023L175.135929,404.598551L171.301409,410.731591L157.329820,416.925741L161.716633,433.343490L162.711882,445.027471L154.180546,450.549763L139.438525,457.394047L125.816816,455.170251L123.718186,441.285056L126.493510,439.240525L116.824553,430.757319L108.188783,427.666224L75.193213,431.188901L71.868885,434.271165L70.339281,445.410045L70.724058,445.484097L85.319795,447.912012L96.237687,453.091136L100.840052,466.474519L96.487945,474.171373L93.400683,493.553562L99.573160,496.524693L95.982911,502.643334L96.496563,507.049337L103.681392,511.585580L98.555060,515.622583L104.828715,520.314173L113.191631,517.068756L121.896044,518.642123L122.675258,529.440038L122.827787,529.820073L130.683067,536.392697L144.286740,536.276712L150.713738,539.965242L156.648527,547.580723L166.663156,534.355561L168.109573,534.986585L177.982339,554.763355L191.866187,550.292890L202.966686,544.967764L201.041436,539.248432L206.955359,532.404997L215.381466,534.388150L226.379198,526.668151L242.882534,529.077465L245.205718,523.902446L240.785165,515.638293L249.810623,509.099770L252.354070,514.909104L253.877891,526.262381L257.918207,528.191369L268.796814,526.340842L275.810760,515.056736L280.380584,519.010699L295.167014,522.168247L296.232920,522.483741L296.887555,522.298692L297.071600,519.595628L306.914951,515.083139L318.822145,515.024325L326.197076,516.953308L338.104115,512.751992L336.327597,520.835560L341.374039,529.205540L349.736540,523.122055L346.066092,509.126943L354.941567,504.564755L352.363379,497.802066L352.401067,497.791177L352.361972,497.730214L356.872757,487.988093L348.932986,486.828072L343.578292,469.318239L350.655026,464.958942L352.486767,459.243932L350.755818,453.874760L352.393512,444.432332L347.972198,445.738054L341.689026,433.234365L348.982590,428.936189L339.401026,407.183456L332.416361,399.393295L329.235753,392.319411L323.068074,390.321083L322.707966,384.920419L317.901507,378.902549L312.606862,376.964963L305.358667,368.191945L307.546982,341.346830L319.689808,341.174623L314.027590,337.338490L306.223282,335.525489L309.757541,329.596349L309.669122,329.361071L309.572753,328.976388L306.769222,323.937278L283.321465,326.151857L270.977131,330.464166L257.830585,328.126849L261.975195,331.012306L261.144964,336.517272L253.951577,334.310869L251.650018,338.676701L251.082003,338.814476Z " data-code="soopu-Bor" data-name="Bor"/>
    <path d="M93.146218,257.063676L104.724390,266.140394L112.767500,270.299343L124.032208,271.613647L126.924146,274.287734L139.367688,274.163464L139.988925,281.850185L146.776021,286.302658L155.331872,287.953663L180.481754,276.337417L179.853541,280.370335L194.341225,289.655398L200.325568,295.596794L209.191955,296.227562L222.540243,291.741248L227.809231,298.736682L232.489859,298.938541L235.658236,307.366698L232.903116,310.231542L222.447617,309.125476L223.449200,318.757792L227.867302,321.491070L222.583384,322.490801L210.993732,317.426204L209.168025,322.125232L225.159216,326.945724L233.679567,327.620258L237.302365,334.967223L250.794223,338.509539L251.082003,338.814476L251.650018,338.676701L253.951577,334.310869L261.144964,336.517272L261.975195,331.012306L257.830585,328.126849L270.977131,330.464166L283.321465,326.151857L306.769222,323.937278L309.572753,328.976388L309.669122,329.361071L309.795188,328.950422L315.300089,323.058315L316.213036,318.616999L314.529564,305.258491L314.861328,292.415673L313.421561,283.433835L305.144074,267.578806L321.295622,263.093135L321.403121,270.172987L327.624646,270.848889L339.635158,267.256921L343.857363,260.577432L351.129170,261.741905L354.049227,255.322103L366.430856,264.235875L366.947736,264.301496L367.037053,264.109167L368.592714,258.082953L374.812945,258.728383L375.780427,249.744178L373.366942,249.197797L370.676156,240.936952L365.621151,237.125423L361.262974,226.363338L347.755922,209.104045L349.408025,205.048128L341.463279,194.491749L341.453766,194.482749L337.517449,192.348763L325.454206,195.281307L316.157781,184.678784L313.324004,185.395071L299.597420,179.931064L283.103308,180.229200L270.629716,188.451855L264.801343,183.401159L254.929824,188.694421L251.178197,186.153017L235.711815,197.021413L227.350501,192.721448L222.143190,192.756423L226.844242,197.814325L228.925365,206.617597L205.149601,211.223523L208.517019,227.188503L205.841675,229.585977L199.657798,224.488587L196.182616,208.872363L191.541314,205.036022L182.415196,202.744993L161.027514,209.197757L159.443019,220.466571L148.702254,225.708934L138.796302,216.347113L127.822270,217.910769L117.689048,215.465400L95.283191,243.826804L93.964300,255.862498L93.146218,257.063676Z " data-code="soopu-Plana" data-name="Planá"/>
    <path d="M92.580362,258.453367L86.169389,264.646796L80.752235,265.252184L79.745933,285.478934L69.923819,281.648406L63.472364,291.800755L58.643363,317.330080L61.406302,323.637926L60.157811,327.335662L64.132617,335.467746L50.233953,345.914327L15.730013,365.010985L12.734377,374.554727L16.166690,381.412114L16.199296,388.985468L21.307288,397.704902L29.828025,399.592991L37.818756,422.227646L66.698964,437.324574L70.318542,444.280344L70.339281,445.410045L71.868885,434.271165L75.193213,431.188901L108.188783,427.666224L116.824553,430.757319L126.493510,439.240525L123.718186,441.285056L125.816816,455.170251L139.438525,457.394047L154.180546,450.549763L162.711882,445.027471L161.716633,433.343490L157.329820,416.925741L171.301409,410.731591L175.135929,404.598551L172.357108,385.644023L179.341072,385.918473L191.017551,380.572312L209.322716,378.727810L208.854709,357.592260L211.844388,357.622078L214.380131,367.436204L227.735984,377.758424L232.141303,379.058051L247.187143,377.512748L253.848801,375.114233L262.656847,358.795179L251.080937,338.816969L251.082003,338.814476L250.794223,338.509539L237.302365,334.967223L233.679567,327.620258L225.159216,326.945724L209.168025,322.125232L210.993732,317.426204L222.583384,322.490801L227.867302,321.491070L223.449200,318.757792L222.447617,309.125476L232.903116,310.231542L235.658236,307.366698L232.489859,298.938541L227.809231,298.736682L222.540243,291.741248L209.191955,296.227562L200.325568,295.596794L194.341225,289.655398L179.853541,280.370335L180.481754,276.337417L155.331872,287.953663L146.776021,286.302658L139.988925,281.850185L139.367688,274.163464L126.924146,274.287734L124.032208,271.613647L112.767500,270.299343L104.724390,266.140394L93.146218,257.063676L92.580362,258.453367Z " data-code="soopu-Tachov" data-name="Tachov"/>
  </g>
  <g class="" id="mzchu">
    <path d="M958.955841,196.542174L956.086519,192.640035L951.823528,197.551688L959.503918,197.869797L958.955841,196.542174Z " data-code="Kohoutov" data-name="Kohoutov"/>
    <path d="M812.202215,609.490385L808.896755,605.012200L808.615628,611.409264L812.202215,609.490385Z " data-code="Chejlava" data-name="Chejlava"/>
    <path d="M534.021096,688.647000L535.254743,689.055009L535.087209,688.225451L534.021096,688.647000Z " data-code="Americka_zahrada" data-name="Americká zahrada"/>
    <path d="M867.956348,186.508673L861.887076,187.256695L860.411893,192.358763L864.813726,197.072599L864.855068,189.465915L873.165593,187.740621L882.675317,173.967554L878.578046,172.606814L878.595055,168.318665L872.887472,182.594755L872.746964,182.861649L872.508288,183.459877L868.055482,186.313472L867.956348,186.508673Z " data-code="Chlumska_stran" data-name="Chlumská stráň"/>
    <path d="M546.506892,1002.623158L556.538970,1007.222022L561.665539,1008.728026L560.069465,1002.185650L554.292762,999.649243L549.052599,987.656339L545.884644,996.636089L543.295346,995.864628L546.506892,1002.623158Z " data-code="Cerne_a_Certovo_jezero" data-name="Černé a Čertovo jezero"/>
    <path d="M274.946492,772.490288L275.899695,775.265516L283.715984,778.682030L282.720253,780.977567L286.598082,788.979918L293.435709,793.712334L298.434992,789.389314L296.785574,787.206030L293.706436,776.287336L290.102391,775.229442L284.266609,768.540079L276.305462,763.750956L271.939031,769.892947L274.946492,772.490288Z " data-code="Cerchovske_hvozdy" data-name="Čerchovské hvozdy"/>
    <path d="M679.428201,101.919585L681.913184,104.205150L688.564235,101.233167L685.329369,95.179905L685.949341,91.954698L681.050909,95.937937L679.428201,101.919585Z " data-code="Odlezelske_jezero" data-name="Odlezelské jezero"/>
    <path d="M70.563230,435.826439L63.305175,430.765458L56.917105,430.143043L56.523482,431.405026L69.404276,438.717172L70.328482,445.239710L71.780996,443.082819L70.563230,435.826439Z " data-code="Na_pozarech" data-name="Na požárech"/>
    <path d="M537.778479,983.644793L540.984216,983.805845L535.451836,977.133215L535.542455,972.885659L531.806634,968.902279L528.354970,972.584142L537.778479,983.644793Z " data-code="Bila_Strz" data-name="Bílá Strž"/>
    <path d="M833.409263,370.800598L834.902531,368.957605L826.007062,368.943902L833.409263,370.800598Z " data-code="Vosek" data-name="Vosek"/>
  </g>
</svg>
