<?xml version="1.0" encoding="utf-8"?>
<!DOCTYPE svg PUBLIC "-//W3C//DTD SVG 1.1//EN" "http://www.w3.org/Graphics/SVG/1.1/DTD/svg11.dtd">
<svg xmlns="http://www.w3.org/2000/svg" xmlns:xlink="http://www.w3.org/1999/xlink" enable_background="new 0 0 1000 908" height="908px" pretty_print="False" style="stroke-linejoin: round; stroke:#000; fill: none;" version="1.1" viewBox="0 0 1000 908" width="1000px">
  <defs>
    <style type="text/css"><![CDATA[path { fill-rule: evenodd; }]]></style>
  </defs>
  <metadata>
    <views>
      <view h="908.406926631" padding="0" w="1000">
        <proj id="laea" lat0="50.5618914356" lon0="13.8066372589"/>
        <bbox h="11.88" w="13.1" x="993.35" y="994.09"/>
      </view>
    </views>
  </metadata>
  <g class="" id="bg">
    <path d="M-10000.0,-10000.0L-10000.0,10000.0L10000.0,10000.0L10000.0,-10000.0Z "/>
    <path d="M253.003726,906.406927L265.888175,897.284751L272.198901,888.321323L279.834534,884.420729L289.213239,881.892445L295.210642,878.849903L310.759053,863.357205L317.793943,858.620231L323.631262,851.353957L329.479868,837.437475L337.572880,824.656046L340.952228,820.873499L348.001232,816.855770L383.317828,802.304042L409.137869,785.512184L414.789322,779.598744L416.844424,777.844956L421.230441,775.175282L426.368460,773.488981L432.998468,773.593666L436.742113,774.571873L440.471362,776.428755L442.984760,777.259784L445.975864,777.264033L456.567085,774.454298L513.959645,744.524789L519.090956,744.079139L523.945343,746.176960L527.861469,749.091642L532.438823,750.795693L536.631398,750.110683L543.346498,744.780114L546.795228,741.199166L550.559265,736.035433L554.191273,731.895307L589.808903,709.424338L595.500078,707.128122L603.614784,707.649243L608.648385,707.152146L613.295332,705.238628L616.862764,699.687117L618.069651,696.178443L618.246835,693.023895L617.452789,687.038206L617.561887,683.046178L618.209426,677.842883L619.599026,673.754598L622.097571,669.715153L626.752480,667.510642L634.009077,665.784418L659.103354,664.879192L673.820867,667.722520L687.941897,672.797155L700.056546,674.256515L747.377623,665.909722L767.012000,673.142545L770.084273,672.390359L774.442027,670.223857L787.352941,659.275926L792.361310,655.966006L797.011765,654.571031L813.949237,653.051612L824.512951,653.701813L829.164858,652.675763L833.883972,650.035439L838.582119,642.854779L840.605369,638.113595L841.868899,634.163979L842.881557,631.974293L845.737820,627.619583L846.274507,625.330004L846.247936,621.824378L845.379992,618.676748L843.100949,612.002885L842.339740,608.968154L842.407923,605.751384L843.008658,599.717676L842.704113,596.027990L841.741295,592.436315L838.898443,584.132491L838.026954,580.343570L838.565781,576.595890L840.778636,574.728243L845.620549,575.570823L853.580241,579.139671L856.749208,579.962977L859.913882,580.227639L863.433194,578.689788L868.613033,575.586977L885.959384,560.819803L890.810318,558.182545L894.591983,555.326536L895.497544,553.446794L896.411955,551.080890L898.388968,543.762273L899.072078,536.092996L899.021451,530.333057L899.628509,526.025523L900.442230,522.781362L902.173271,519.115385L904.367208,515.745124L908.420171,512.833763L903.596755,491.283252L860.669477,456.348586L826.269104,350.710183L825.525581,345.751536L826.412102,341.443039L828.456456,337.788016L831.186707,334.789757L839.533547,329.433043L850.227893,300.973973L852.702354,297.562664L866.046935,284.901693L867.655938,281.558586L868.434703,277.549989L868.039384,267.604472L869.217650,262.889362L871.289356,258.673620L873.862427,255.022417L881.336940,247.906749L887.697987,209.019149L889.918664,204.408221L893.228648,203.396947L897.387183,205.273635L928.738892,237.231454L933.836773,238.392539L938.716141,237.238587L943.144275,234.113242L946.927671,229.328818L949.873459,223.228694L951.749811,216.146317L952.713476,201.575173L953.813989,196.713689L955.623243,193.489349L958.046686,191.592773L975.963415,189.844483L978.843453,187.993608L980.996946,185.405722L982.532400,182.452079L984.118322,176.943357L984.443804,174.437190L986.348592,157.585102L996.153050,133.786919L999.448979,121.248220L996.140796,110.631620L988.964282,110.564777L956.295503,124.579351L949.432029,119.249151L952.566471,107.737295L959.540293,94.142816L964.019912,82.762187L964.975349,68.596455L963.041840,59.422563L958.432570,52.027366L951.179053,43.393713L943.835491,37.727138L927.817739,33.845785L920.423104,28.759572L914.781299,21.102069L912.709496,15.478458L911.372184,9.823683L907.872923,1.878029L902.852016,14.935939L896.152174,18.498149L874.662373,17.466962L858.137808,24.971566L851.587783,24.877425L845.134321,21.425137L841.239633,16.322973L838.079333,11.117664L833.582381,7.065207L811.507570,0.000000L792.686808,3.117827L778.584161,17.702825L770.424228,44.846690L763.867143,54.468118L770.815372,58.999543L790.861778,61.501725L802.716522,66.239473L801.810315,68.142644L796.809682,71.678146L796.323237,81.555976L811.564394,96.484207L833.498116,102.796880L849.388507,111.870072L846.012170,135.342587L828.694570,150.308614L782.084012,146.926633L760.751172,151.529500L754.341833,157.938107L743.563812,174.438509L736.352368,181.286535L643.857242,224.328538L632.423509,225.140555L610.651361,222.375319L599.036721,224.930232L592.651135,229.515350L583.570522,241.206054L577.488529,245.788448L569.985456,246.918400L564.200807,245.175009L559.156997,245.375710L553.689352,252.143019L551.175884,261.290344L551.922246,269.266985L553.344607,275.880936L553.041892,280.842786L548.984188,286.683840L545.537269,287.902965L541.904579,288.003184L524.668365,298.811678L513.952430,301.003325L486.607705,297.934040L473.735151,299.239267L451.059871,307.631009L439.567962,309.900899L386.035856,309.493678L358.975196,314.518189L334.519825,329.216416L341.367887,343.689720L338.976640,356.376463L330.980222,366.657510L321.017542,374.156213L324.441043,381.710218L323.862034,387.399053L320.264022,391.810464L314.324493,395.141259L303.895381,408.082151L293.725356,417.276345L282.595790,419.993799L269.291810,413.357273L265.367177,408.374324L257.050757,394.172740L253.862244,390.506294L246.595651,387.788597L244.922504,388.946133L244.531959,392.348862L240.928852,396.218769L218.419064,412.032475L215.045262,417.993488L208.555851,437.018516L195.969343,443.352731L186.053496,438.855237L176.404589,431.973942L164.799581,430.815446L144.472305,484.016429L135.744975,499.559015L120.924492,510.474674L89.382124,508.340130L72.431968,514.014602L72.307240,514.110670L72.245353,514.110063L66.784326,515.564173L61.148021,515.945654L55.582908,515.402881L50.338384,513.792510L45.733314,510.242348L40.794033,509.120471L35.768831,510.283480L30.781224,513.684040L26.467105,552.019113L22.377662,569.146668L13.776962,579.121699L0.551021,591.902493L20.491760,608.960851L30.660910,614.914235L69.820869,619.887758L73.420481,622.715328L76.455167,626.716110L80.308817,634.799246L84.633419,640.683689L92.219910,646.463796L107.182943,649.713712L125.453159,650.804968L142.363035,655.321390L151.574872,660.484088L155.354698,664.961065L158.383132,671.065817L161.270565,683.539735L162.224671,691.675695L162.347833,699.670762L161.079876,720.065047L161.216307,726.343500L162.148550,737.447331L164.211719,749.480256L164.877996,759.206530L164.284294,764.165963L163.123939,768.800431L161.687282,773.194874L163.494933,780.799603L168.002321,790.369073L180.594368,810.163731L184.533232,820.502931L185.789642,828.195787L183.705374,832.410457L181.251760,836.332775L172.433329,847.674391L171.291106,849.734145L170.241863,853.521622L172.088987,856.503541L176.549480,861.159436L189.134779,870.340950L196.119327,876.812172L201.687398,883.127858L208.206532,892.313806L212.014176,896.455007L217.529788,899.283254L244.642154,906.286254L253.003726,906.406927Z "/>
  </g>
  <g class="" id="soorp">
    <path d="M513.557748,407.661497L513.344337,407.853181L502.493956,419.778093L500.811729,424.708249L488.124881,417.006146L466.449853,422.589992L465.535888,426.178657L473.324882,427.201036L470.479672,438.024857L460.929616,436.206364L456.193921,438.103913L450.330950,435.999448L450.336840,435.739257L449.700283,435.686751L445.875992,442.342608L442.839988,447.167795L434.505939,457.879315L434.493700,458.036688L434.857769,458.003338L441.056399,460.959257L444.791399,458.238980L462.682285,466.993499L468.340473,465.348814L472.696476,473.367826L479.844273,480.708097L480.102958,480.830954L480.257566,480.902755L480.587199,481.055943L480.777105,481.313999L480.039474,483.192628L479.232112,484.906891L479.433570,495.492707L484.562315,510.391738L494.649622,514.434228L489.517605,522.116853L491.770969,533.017721L495.009470,537.103969L495.509603,537.083549L495.286411,536.504822L506.737240,533.419510L509.285506,535.839741L520.431552,534.288155L527.862488,525.683242L530.653052,525.516474L545.982007,513.582330L546.000838,513.568711L545.989602,513.531951L552.319792,507.864386L561.769324,510.437831L553.230339,493.417329L559.045625,496.290159L566.573093,484.886555L563.299411,475.356749L564.201433,470.925847L564.101110,470.695481L564.070009,470.736726L557.276791,472.230826L542.217071,467.561807L532.823282,459.665900L537.155803,441.778653L539.890365,417.258063L530.904771,410.171078L513.577927,407.702849L513.557748,407.661497Z " data-code="soorp-Bilina" data-name="Bílina"/>
    <path d="M652.885121,216.111896L647.695846,238.178596L658.589149,246.484411L671.419089,245.272520L668.354950,255.655497L665.547208,256.940427L664.700125,271.710766L662.643820,274.938005L676.375478,273.587106L689.591551,291.353163L689.408569,291.537564L689.731251,292.140508L694.774807,302.687899L707.179284,298.971704L711.868591,301.921073L719.399037,311.311621L726.678465,311.163065L729.414667,323.277436L736.814571,329.801892L739.895151,329.848390L738.473412,331.288814L738.773249,331.752363L745.392900,340.741554L746.889369,342.322973L758.484913,344.647344L758.837410,345.007995L758.329220,345.599125L759.657728,349.090229L761.525177,350.724521L763.186184,351.644512L763.332207,351.872368L763.382818,352.075272L770.080163,360.123700L785.992175,364.786160L792.114889,363.122362L803.748239,363.085375L818.760763,370.523593L830.468633,366.304737L833.711871,360.439773L833.716402,360.360767L829.690275,358.745828L829.134560,348.530045L845.986446,332.287910L843.639110,313.350141L848.403802,299.219054L864.956944,293.632111L867.720159,285.355648L872.068169,288.954204L879.373874,286.205839L872.182997,279.853064L873.060623,273.282328L873.051408,273.251263L873.193625,273.166562L878.321554,261.357806L881.339454,250.193777L888.896701,250.718396L890.602010,239.338413L895.321375,230.933217L890.901302,211.491810L897.112778,215.855249L901.610742,210.874935L911.454796,209.673587L918.656836,214.057423L931.661309,225.572250L945.589822,229.413309L958.252950,220.586089L956.416956,210.865024L960.414244,198.343094L962.867151,196.196611L960.569588,189.629733L960.558392,189.572192L951.090295,180.212366L928.360040,184.004387L928.272053,182.396479L908.960015,178.451848L906.246694,179.219249L888.784051,173.753420L884.482025,169.037222L889.357777,155.322166L889.391558,155.330991L889.292089,155.072569L885.855131,149.219226L870.180829,143.024312L862.254771,134.316420L863.858401,131.162473L854.119028,130.419643L854.078782,130.408001L845.683142,134.259548L832.868783,131.381262L831.237054,135.777553L817.659766,140.814690L817.649371,140.822967L817.632361,140.826226L797.581093,145.078004L791.586476,138.422809L781.911049,135.860508L775.951898,141.083920L762.268475,143.665946L763.750443,148.194510L761.432461,160.568721L745.077753,176.155837L717.845990,182.947575L705.240188,191.567048L687.158422,197.406764L663.263897,216.250711L652.989367,216.067479L652.885121,216.111896Z " data-code="soorp-Decin" data-name="Děčín"/>
    <path d="M137.158052,503.445747L137.675351,537.158878L135.465813,544.383211L135.016910,551.884317L134.902949,552.205583L134.978123,552.215708L139.670733,552.811305L147.718400,563.501482L148.045926,567.536801L166.563277,562.201406L167.212935,561.947580L167.473107,561.756485L177.378801,559.966419L185.489445,572.148260L192.948034,575.748481L207.951524,589.621868L216.370804,595.309432L232.507667,602.644372L233.698988,600.117899L244.084581,602.192190L247.843180,613.648953L245.280998,620.135758L239.646069,627.375313L237.592379,635.426071L239.898256,643.085939L230.542799,640.240149L240.369080,648.995901L257.239746,637.427788L274.550279,637.361100L276.944032,647.081747L282.423670,645.085731L284.021875,631.438917L284.576907,631.519009L284.598773,631.522138L295.281052,633.344644L297.173921,631.138460L305.518238,633.868338L323.018074,629.727599L320.291593,623.962683L334.064170,616.003683L342.281530,621.533901L351.368090,618.702273L355.579695,619.785836L357.309274,614.305582L354.253074,608.908674L346.671843,601.495988L350.135732,594.265772L356.208606,587.393883L360.701483,575.756660L360.704293,575.734352L360.734766,575.745631L360.734910,575.741932L364.422056,560.887175L361.864421,554.413801L354.498894,551.792113L352.555899,540.132880L361.693453,526.237478L336.730236,502.917380L337.917185,500.501782L331.871799,497.604894L328.866414,480.613093L321.223326,465.721318L321.429190,464.799522L321.232915,464.968346L315.887808,468.093172L310.034975,460.526213L305.144600,449.356612L298.041145,448.159791L294.990505,452.694198L287.507378,457.378595L284.116735,452.021224L293.855392,437.840783L289.530682,425.829885L273.543942,436.643222L272.965806,437.629410L272.941617,437.663656L254.602840,424.454823L246.795536,408.908113L245.066343,407.854151L244.430402,396.657658L244.260827,396.412623L227.336828,403.979836L218.572492,423.398198L219.579117,431.318140L203.883002,434.279854L197.681502,431.776683L196.635834,425.377464L192.016486,420.024485L181.906552,420.242741L178.495846,417.736093L173.593877,426.139366L165.870600,432.851945L160.358581,450.244495L163.040129,461.043484L158.536141,466.151901L150.172152,486.385201L142.640283,491.863370L143.776578,501.633145L137.345229,503.415447L137.158052,503.445747Z " data-code="soorp-Chomutov" data-name="Chomutov"/>
    <path d="M37.470582,604.218605L37.386410,604.457935L38.532804,607.515364L51.933351,615.227162L52.811438,610.812122L68.979338,613.760542L75.490981,619.031569L82.326452,617.099720L89.543024,627.244480L85.035517,629.785340L80.274108,642.079474L90.257372,644.427339L94.714649,647.569908L104.122637,638.633122L114.872171,641.625755L115.934304,644.156655L126.635180,645.318244L142.352960,644.121629L147.817294,638.530723L149.442803,644.295312L157.550774,645.988114L157.566480,646.050909L157.310721,646.268820L161.907709,659.603178L166.513393,662.574775L166.563591,671.615195L156.323974,683.299184L158.034162,689.565755L164.288114,692.759747L164.532042,698.827602L160.770226,699.017184L156.248359,720.323204L163.006734,720.730579L162.990295,730.198005L164.892897,746.370419L157.857803,752.719339L159.290235,756.515503L171.586923,761.593915L173.734643,768.516753L174.022930,769.022344L189.091749,771.246797L181.814038,755.605915L188.167063,752.449935L201.295607,752.119619L200.549052,745.621632L202.867507,741.034368L212.526292,734.219110L211.920219,727.211652L225.088915,720.322219L235.685940,716.881477L235.900011,722.082698L243.806055,733.381111L251.866707,733.291504L253.973298,727.985355L262.085499,723.447722L260.124784,714.436815L265.534405,713.173374L272.834416,699.661301L284.634717,695.873655L284.926713,693.850922L284.928498,693.813367L284.359965,693.853890L278.656511,684.023655L283.385891,672.931670L295.377333,667.094942L287.182602,658.738669L293.739312,657.084035L294.195835,653.366040L285.383437,644.779936L284.565209,631.566995L284.576907,631.519009L284.021875,631.438917L282.423670,645.085731L276.944032,647.081747L274.550279,637.361100L257.239746,637.427788L240.369080,648.995901L230.542799,640.240149L239.898256,643.085939L237.592379,635.426071L239.646069,627.375313L245.280998,620.135758L247.843180,613.648953L244.084581,602.192190L233.698988,600.117899L232.507667,602.644372L216.370804,595.309432L207.951524,589.621868L192.948034,575.748481L185.489445,572.148260L177.378801,559.966419L167.473107,561.756485L167.212935,561.947580L166.563277,562.201406L148.045926,567.536801L147.718400,563.501482L139.670733,552.811305L134.978123,552.215708L134.902949,552.205583L135.016910,551.884317L135.465813,544.383211L137.675351,537.158878L137.158052,503.445747L136.744928,503.483195L108.859273,496.246814L106.255681,491.283872L87.663157,503.203502L73.290056,506.256570L59.549819,505.168890L49.476967,496.957484L44.577386,497.127086L44.547934,503.300514L40.159319,516.546094L37.350364,532.502322L39.143323,548.891609L35.688911,558.103299L25.440587,565.616045L17.116849,579.746072L0.000000,586.230422L0.000000,598.510808L8.581794,608.292527L16.304554,606.591600L22.437233,608.238935L37.455776,604.217094L37.470582,604.218605Z " data-code="soorp-KadaA?" data-name="KadaÅ?"/>
    <path d="M763.332207,351.872368L762.976528,352.140721L763.505293,360.498217L759.287418,376.967330L758.701344,387.297333L748.871863,393.398693L748.841554,393.436571L748.815928,393.468546L745.049934,398.003903L740.128532,394.459460L731.739601,389.696794L731.706869,389.730921L731.709907,389.768194L729.785785,408.579704L712.139407,406.693177L709.015675,418.033178L697.708304,424.187254L694.190501,432.430056L686.395052,421.266036L682.108322,421.778799L678.842820,428.738585L672.183311,428.107481L668.485194,431.404395L660.470614,428.521511L658.495477,425.527082L645.789707,431.305214L645.220128,431.717435L645.550440,432.533888L647.064251,441.867945L645.910808,452.723357L651.924774,465.587824L657.664184,466.346414L661.716141,472.523174L654.930258,484.269398L657.361450,491.156903L670.446906,493.020124L681.222801,490.490259L689.340757,497.157952L690.775650,513.924659L693.711202,519.216858L693.407713,529.121022L700.705282,539.399953L695.784544,539.451297L681.913797,550.608834L681.390468,550.466379L681.367449,550.609423L683.391579,552.864278L681.415772,560.546268L686.595626,565.330694L687.934409,570.044880L687.929489,570.403644L688.208395,570.388225L693.152004,568.443671L693.166323,572.642212L702.157373,579.164632L724.285027,567.993435L719.043127,560.906399L723.980447,557.568396L717.167037,551.085773L717.248783,539.790054L722.864653,538.116613L736.149277,529.387856L747.659768,529.156911L749.060927,515.981720L756.101552,514.562898L760.336400,516.747484L773.099541,507.031230L779.261341,509.083184L791.337390,508.568329L796.585229,516.825959L803.262936,518.158588L812.315645,513.507364L812.555579,513.463349L812.602605,513.896442L818.244540,524.507706L807.824681,530.665317L812.360790,536.394989L823.119642,534.245484L822.132775,538.969688L826.381883,544.605721L825.108564,555.714477L835.717781,562.563024L835.298755,565.170170L844.434002,571.516599L844.976252,571.319189L851.255786,567.395212L854.777104,572.272297L875.463264,577.682363L877.952892,574.800332L871.067843,571.573850L880.160144,563.133462L878.383210,551.048257L889.976787,557.150479L896.374600,551.244142L900.030225,553.425797L907.533681,552.257611L908.457758,543.441455L906.526011,536.642998L906.334944,526.149730L903.865729,523.923409L897.531049,509.395002L908.261920,507.428357L907.414135,498.067961L916.064602,501.533536L908.522229,487.226336L909.108125,485.060288L888.606933,479.184936L885.591361,473.947023L885.980135,468.330971L885.695330,468.396010L885.686514,468.389944L882.577574,461.010780L874.309507,448.018405L866.202460,424.449551L860.340662,422.248681L851.293435,411.571831L852.554977,409.573884L843.417209,394.378598L839.478807,384.393681L842.018704,374.489421L840.403853,359.905746L834.075652,360.556301L833.711871,360.439773L830.468633,366.304737L818.760763,370.523593L803.748239,363.085375L792.114889,363.122362L785.992175,364.786160L770.080163,360.123700L763.382818,352.075272L763.332207,351.872368Z " data-code="soorp-Litomerice" data-name="Litoměřice"/>
    <path d="M244.430402,396.657658L245.066343,407.854151L246.795536,408.908113L254.602840,424.454823L272.941617,437.663656L272.965806,437.629410L273.543942,436.643222L289.530682,425.829885L293.855392,437.840783L284.116735,452.021224L287.507378,457.378595L294.990505,452.694198L298.041145,448.159791L305.144600,449.356612L310.034975,460.526213L315.887808,468.093172L321.232915,464.968346L321.429190,464.799522L321.703713,464.571093L330.053476,468.561870L334.921717,466.018906L348.841435,473.584513L357.592901,468.151942L373.880207,467.537878L380.102776,470.416250L392.495327,464.454357L395.267679,467.463508L405.664170,459.948376L413.683154,456.043693L416.778900,451.685644L422.565929,450.141954L429.526033,458.235670L434.479141,458.038048L434.493700,458.036688L434.505939,457.879315L442.839988,447.167795L445.875992,442.342608L449.700283,435.686751L450.336840,435.739257L450.406146,435.406065L446.200098,429.806566L440.400046,427.607449L436.120517,429.090551L437.602202,415.915340L424.451292,411.456666L419.964364,405.780177L426.760740,396.035400L421.641668,394.134010L414.099480,375.999935L405.915060,367.423885L399.349076,366.372273L393.708713,362.612411L400.845164,349.478970L405.043873,349.230812L399.425312,342.924414L404.440229,333.777507L393.229508,331.027089L393.652482,320.842092L380.496284,318.763271L377.558374,307.873725L377.546087,307.880142L361.577836,306.256397L356.347248,307.501905L347.656396,314.705024L340.899587,315.822425L349.516571,328.643088L344.449657,349.619400L333.563815,363.044752L335.509346,367.529786L340.476539,367.818519L340.058451,376.644258L314.937216,396.010833L304.957534,410.709168L300.230270,409.556536L281.932000,399.293453L274.646698,398.137949L268.901799,380.989770L251.431885,366.274615L248.701817,365.942991L251.232596,379.196659L244.538270,396.748273L244.430402,396.657658Z " data-code="soorp-Litvinov" data-name="Litvínov"/>
    <path d="M399.555280,656.827161L400.610839,663.649406L405.814318,664.517497L404.041993,657.725393L399.555280,656.827161Z M546.000838,513.568711L545.982007,513.582330L530.653052,525.516474L527.862488,525.683242L520.431552,534.288155L509.285506,535.839741L506.737240,533.419510L495.286411,536.504822L495.509603,537.083549L495.499572,537.149423L490.427153,542.320159L487.162264,551.767343L500.497575,572.492069L495.905923,577.514148L480.752863,578.317589L480.656348,580.967447L452.777819,587.181636L446.470349,589.507752L446.467182,589.506505L446.422358,589.482785L439.385457,581.918230L420.150689,576.341704L411.584167,576.028067L403.285586,581.579557L403.281561,581.626334L403.525995,581.637777L412.400905,583.682233L416.519435,592.472880L417.219371,600.428058L415.215767,606.331505L421.973485,612.090955L417.790934,627.953796L418.788940,634.901004L425.491056,636.122933L420.792070,643.383175L421.714491,659.222295L396.688968,667.039990L409.058884,677.133501L421.652512,680.910966L430.194498,679.801611L438.475850,676.058252L440.696264,671.199023L443.248342,675.241655L450.809324,675.402806L466.243741,671.279230L466.407863,671.290365L466.444534,671.302020L459.787549,684.678515L455.479799,688.308302L448.788731,698.883893L449.354510,711.159921L436.332025,717.919524L434.330311,731.803611L426.960067,737.248011L426.216579,754.824465L426.461704,755.212770L426.220592,767.977143L431.541836,766.403531L441.596298,770.873263L457.299017,766.912722L474.360245,768.889894L481.042201,753.131835L490.967148,755.425945L505.280702,734.526967L512.417002,732.060883L525.493353,743.341559L529.087557,752.939100L542.915391,749.679408L543.426055,740.272902L545.656143,738.974889L550.820912,726.911750L572.416003,719.620067L578.799145,720.892838L586.707332,716.102889L598.608817,702.489338L597.339823,694.070286L606.237988,692.263006L614.009832,694.792092L619.516599,683.083577L614.792941,672.657154L616.474574,664.353814L627.405411,655.795456L644.676418,654.933329L656.454905,657.767989L656.477248,657.774983L651.163422,653.646853L640.667650,630.635048L640.519481,630.648523L640.306804,630.689402L625.744984,632.911113L623.871974,626.844971L614.120361,625.114620L605.880228,621.506918L603.295981,599.795759L607.044545,598.211817L609.215660,585.957594L607.955342,579.578775L599.620941,569.492636L599.649423,569.272837L599.221929,569.364485L590.535826,572.500215L581.347185,570.205480L569.698828,581.834173L562.196273,577.426560L551.380649,556.736327L554.776013,549.081034L553.078111,542.097694L545.404851,524.659615L549.848079,517.065553L546.045144,513.587117L546.000838,513.568711Z " data-code="soorp-Louny" data-name="Louny"/>
    <path d="M617.521654,435.355491L617.343977,435.670158L600.977410,443.541454L601.004614,445.980225L585.610851,453.775627L585.599460,453.786446L585.332037,453.682661L570.345882,456.656653L564.175031,470.583907L564.101110,470.695481L564.201433,470.925847L563.299411,475.356749L566.573093,484.886555L559.045625,496.290159L553.230339,493.417329L561.769324,510.437831L552.319792,507.864386L545.989602,513.531951L546.000838,513.568711L546.045144,513.587117L549.848079,517.065553L545.404851,524.659615L553.078111,542.097694L554.776013,549.081034L551.380649,556.736327L562.196273,577.426560L569.698828,581.834173L581.347185,570.205480L590.535826,572.500215L599.221929,569.364485L599.649423,569.272837L599.620941,569.492636L607.955342,579.578775L609.215660,585.957594L607.044545,598.211817L603.295981,599.795759L605.880228,621.506918L614.120361,625.114620L623.871974,626.844971L625.744984,632.911113L640.306804,630.689402L640.519481,630.648523L640.501761,630.368595L645.128884,625.350632L648.126063,615.709616L651.979769,612.074116L672.808361,610.737289L679.904183,602.111557L670.297015,580.550349L674.848996,573.411945L686.163385,573.021238L687.520186,570.415737L687.929489,570.403644L687.934409,570.044880L686.595626,565.330694L681.415772,560.546268L683.391579,552.864278L681.367449,550.609423L681.390468,550.466379L681.913797,550.608834L695.784544,539.451297L700.705282,539.399953L693.407713,529.121022L693.711202,519.216858L690.775650,513.924659L689.340757,497.157952L681.222801,490.490259L670.446906,493.020124L657.361450,491.156903L654.930258,484.269398L661.716141,472.523174L657.664184,466.346414L651.924774,465.587824L645.910808,452.723357L647.064251,441.867945L645.550440,432.533888L645.220128,431.717435L645.012223,430.950808L634.683860,430.067945L626.821216,432.478663L626.718849,440.719429L617.530238,435.364071L617.521654,435.355491Z " data-code="soorp-Lovosice" data-name="Lovosice"/>
    <path d="M321.429190,464.799522L321.223326,465.721318L328.866414,480.613093L331.871799,497.604894L337.917185,500.501782L336.730236,502.917380L361.693453,526.237478L352.555899,540.132880L354.498894,551.792113L361.864421,554.413801L364.422056,560.887175L360.734910,575.741932L360.734766,575.745631L361.118222,575.912844L376.685873,585.060762L380.362254,589.284522L390.549292,584.595885L399.270404,585.544920L402.937228,581.627716L403.281561,581.626334L403.285586,581.579557L411.584167,576.028067L420.150689,576.341704L439.385457,581.918230L446.422358,589.482785L446.467182,589.506505L446.470349,589.507752L452.777819,587.181636L480.656348,580.967447L480.752863,578.317589L495.905923,577.514148L500.497575,572.492069L487.162264,551.767343L490.427153,542.320159L495.499572,537.149423L495.509603,537.083549L495.009470,537.103969L491.770969,533.017721L489.517605,522.116853L494.649622,514.434228L484.562315,510.391738L479.433570,495.492707L479.232112,484.906891L480.039474,483.192628L480.777105,481.313999L480.587199,481.055943L480.257566,480.902755L480.102958,480.830954L479.844273,480.708097L472.696476,473.367826L468.340473,465.348814L462.682285,466.993499L444.791399,458.238980L441.056399,460.959257L434.857769,458.003338L434.493700,458.036688L434.479141,458.038048L429.526033,458.235670L422.565929,450.141954L416.778900,451.685644L413.683154,456.043693L405.664170,459.948376L395.267679,467.463508L392.495327,464.454357L380.102776,470.416250L373.880207,467.537878L357.592901,468.151942L348.841435,473.584513L334.921717,466.018906L330.053476,468.561870L321.703713,464.571093L321.429190,464.799522Z " data-code="soorp-Most" data-name="Most"/>
    <path d="M284.928498,693.813367L284.926713,693.850922L284.634717,695.873655L272.834416,699.661301L265.534405,713.173374L260.124784,714.436815L262.085499,723.447722L253.973298,727.985355L251.866707,733.291504L243.806055,733.381111L235.900011,722.082698L235.685940,716.881477L225.088915,720.322219L211.920219,727.211652L212.526292,734.219110L202.867507,741.034368L200.549052,745.621632L201.295607,752.119619L188.167063,752.449935L181.814038,755.605915L189.091749,771.246797L174.022930,769.022344L173.844985,769.238623L171.982546,777.406068L167.987878,776.996326L168.717428,783.349365L178.966642,785.901623L185.151443,794.004362L187.745095,803.235646L195.383293,819.880096L190.772614,829.894811L187.485439,828.344454L183.001512,833.848153L190.707275,838.648874L191.405488,844.461071L187.779445,847.842243L174.314646,841.465866L164.573539,846.944335L168.534618,859.258091L190.315439,861.759535L190.405226,864.591495L200.681574,872.257934L200.876440,884.599777L214.847440,883.293340L218.446393,889.233611L217.123033,895.992575L222.961291,896.805871L229.130583,884.091153L237.952536,881.995611L242.405821,892.306602L244.561968,903.665060L247.377068,904.998909L257.832991,902.851469L265.765427,898.667141L275.816302,881.137490L278.831171,878.024956L301.103657,879.446125L299.492550,873.245890L304.420215,869.074408L305.661893,854.397551L310.110273,860.143345L319.120187,858.301202L318.780088,834.238604L316.434511,824.943686L331.512974,820.162521L335.995617,810.474231L343.642037,806.153108L345.276326,801.011481L360.149066,798.920321L360.264670,798.909303L359.808491,790.371209L361.908062,776.516369L354.957100,769.464481L345.557634,764.994667L339.011141,759.206002L329.261011,739.812589L319.854716,737.369822L314.336114,721.962573L316.359342,716.262593L312.829725,714.293032L311.272042,704.605842L309.394362,711.540359L300.739151,713.346715L294.385957,708.800195L296.068801,705.341920L290.919568,696.734562L285.024863,693.803798L284.928498,693.813367Z " data-code="soorp-Podborany" data-name="Podbořany"/>
    <path d="M687.929489,570.403644L687.520186,570.415737L686.163385,573.021238L674.848996,573.411945L670.297015,580.550349L679.904183,602.111557L672.808361,610.737289L651.979769,612.074116L648.126063,615.709616L645.128884,625.350632L640.501761,630.368595L640.519481,630.648523L640.667650,630.635048L651.163422,653.646853L656.477248,657.774983L656.483050,657.802532L664.925412,659.898556L669.994473,663.446313L683.024637,664.440753L689.790280,663.530201L708.520477,665.640180L709.984060,667.346745L734.002279,663.941005L734.857237,653.717028L743.736257,655.808440L751.048585,662.956880L757.724969,659.636643L775.466558,669.355310L777.062918,662.949046L781.887916,658.745490L789.669859,644.425318L797.951159,649.171254L809.985142,647.625977L809.195154,644.155978L835.003273,646.266263L836.000112,649.590851L845.698710,644.749999L850.754554,608.204134L846.245443,597.828734L842.581697,595.480141L849.862951,590.746616L846.481554,580.185238L841.740043,575.139567L843.983347,571.568623L844.434002,571.516599L835.298755,565.170170L835.717781,562.563024L825.108564,555.714477L826.381883,544.605721L822.132775,538.969688L823.119642,534.245484L812.360790,536.394989L807.824681,530.665317L818.244540,524.507706L812.602605,513.896442L812.555579,513.463349L812.315645,513.507364L803.262936,518.158588L796.585229,516.825959L791.337390,508.568329L779.261341,509.083184L773.099541,507.031230L760.336400,516.747484L756.101552,514.562898L749.060927,515.981720L747.659768,529.156911L736.149277,529.387856L722.864653,538.116613L717.248783,539.790054L717.167037,551.085773L723.980447,557.568396L719.043127,560.906399L724.285027,567.993435L702.157373,579.164632L693.166323,572.642212L693.152004,568.443671L688.208395,570.388225L687.929489,570.403644Z " data-code="soorp-Roudnice_nad_Labem" data-name="Roudnice nad Labem"/>
    <path d="M858.905783,96.367523L858.907239,96.417936L861.762389,107.939336L852.341358,115.069483L854.137649,130.323189L854.119028,130.419643L863.858401,131.162473L862.254771,134.316420L870.180829,143.024312L885.855131,149.219226L889.292089,155.072569L889.391558,155.330991L889.421121,155.342485L903.044559,147.787849L917.259236,150.002346L923.857185,143.691800L923.345849,137.991715L935.055439,130.161325L939.870074,123.053194L938.891848,117.852681L942.534302,108.649073L956.025405,106.124982L956.088430,105.977392L963.220548,93.836173L967.776162,90.328524L971.483911,79.326841L976.154489,71.170178L978.026730,47.535429L966.263559,35.408499L960.030451,30.898538L957.937607,26.345046L940.277139,32.211597L940.031348,32.229778L939.968842,32.120915L937.686098,19.686540L923.178880,16.749131L922.472777,0.000000L915.196751,0.000000L914.939951,13.950127L904.072306,11.767590L902.947966,7.749992L891.811807,2.359532L878.878955,14.288710L871.819901,18.427393L866.594932,18.711165L850.065864,9.820493L849.676433,0.266260L788.683111,0.000000L792.064161,6.623078L786.828728,25.258030L777.841698,28.786682L781.118593,37.799428L776.482145,44.522231L778.956179,50.767886L784.755977,52.337669L805.396594,53.565732L807.922181,51.252666L818.714293,53.536219L817.197326,62.607050L808.659270,63.430319L802.951356,69.177671L808.076116,80.095720L818.988785,84.266790L842.108821,91.006260L845.445188,94.818886L853.132576,91.209271L858.749620,96.316573L858.905783,96.367523Z " data-code="soorp-Rumburk" data-name="Rumburk"/>
    <path d="M377.558374,307.873725L380.496284,318.763271L393.652482,320.842092L393.229508,331.027089L404.440229,333.777507L399.425312,342.924414L405.043873,349.230812L400.845164,349.478970L393.708713,362.612411L399.349076,366.372273L405.915060,367.423885L414.099480,375.999935L421.641668,394.134010L426.760740,396.035400L419.964364,405.780177L424.451292,411.456666L437.602202,415.915340L436.120517,429.090551L440.400046,427.607449L446.200098,429.806566L450.406146,435.406065L450.336840,435.739257L450.330950,435.999448L456.193921,438.103913L460.929616,436.206364L470.479672,438.024857L473.324882,427.201036L465.535888,426.178657L466.449853,422.589992L488.124881,417.006146L500.811729,424.708249L502.493956,419.778093L513.344337,407.853181L513.557748,407.661497L513.577927,407.702849L530.904771,410.171078L539.890365,417.258063L537.155803,441.778653L532.823282,459.665900L542.217071,467.561807L557.276791,472.230826L564.070009,470.736726L564.101110,470.695481L564.175031,470.583907L570.345882,456.656653L585.332037,453.682661L585.599460,453.786446L585.610851,453.775627L601.004614,445.980225L600.977410,443.541454L617.343977,435.670158L617.521654,435.355491L617.427386,435.275717L609.740514,420.788359L597.317471,420.107068L591.677604,415.153784L585.151585,417.248772L583.083852,412.015287L578.276531,411.344517L586.102114,404.482241L578.806889,395.901703L579.987328,390.959421L575.462394,378.396691L567.832142,366.510895L566.427603,356.194740L566.406816,356.173235L566.407746,356.129223L569.603406,356.800043L566.613032,321.812602L575.213464,309.447458L576.418466,299.052501L581.511209,295.193855L579.296758,292.087615L569.815522,289.965621L554.863835,283.495097L554.855598,283.542230L541.251754,280.745883L539.987409,291.714715L533.897812,295.785929L524.524265,295.302992L520.008467,297.213496L520.003826,297.194504L519.995875,297.162141L511.539718,291.929430L499.229985,289.587516L490.359260,286.306107L479.269377,287.218798L473.452965,293.387419L473.025653,293.590979L472.790443,293.642245L464.718494,291.538722L453.301436,296.704634L449.788211,304.147083L436.988766,300.996615L425.829039,290.528591L410.636206,292.468389L401.327885,298.487280L397.700836,306.901918L377.570662,307.867309L377.558374,307.873725Z " data-code="soorp-Teplice" data-name="Teplice"/>
    <path d="M563.407599,278.070036L563.353106,278.218956L559.683936,280.726121L555.999026,282.281891L555.054226,283.532664L554.863835,283.495097L569.815522,289.965621L579.296758,292.087615L581.511209,295.193855L576.418466,299.052501L575.213464,309.447458L566.613032,321.812602L569.603406,356.800043L566.407746,356.129223L566.406816,356.173235L566.427603,356.194740L567.832142,366.510895L575.462394,378.396691L579.987328,390.959421L578.806889,395.901703L586.102114,404.482241L578.276531,411.344517L583.083852,412.015287L585.151585,417.248772L591.677604,415.153784L597.317471,420.107068L609.740514,420.788359L617.427386,435.275717L617.521654,435.355491L617.530238,435.364071L626.718849,440.719429L626.821216,432.478663L634.683860,430.067945L645.012223,430.950808L645.220128,431.717435L645.789707,431.305214L658.495477,425.527082L660.470614,428.521511L668.485194,431.404395L672.183311,428.107481L678.842820,428.738585L682.108322,421.778799L686.395052,421.266036L694.190501,432.430056L697.708304,424.187254L709.015675,418.033178L712.139407,406.693177L729.785785,408.579704L731.709907,389.768194L731.706869,389.730921L731.739601,389.696794L740.128532,394.459460L745.049934,398.003903L748.815928,393.468546L748.841554,393.436571L748.871863,393.398693L758.701344,387.297333L759.287418,376.967330L763.505293,360.498217L762.976528,352.140721L763.332207,351.872368L763.186184,351.644512L761.525177,350.724521L759.657728,349.090229L758.329220,345.599125L758.837410,345.007995L758.484913,344.647344L746.889369,342.322973L745.392900,340.741554L738.773249,331.752363L738.473412,331.288814L739.895151,329.848390L736.814571,329.801892L729.414667,323.277436L726.678465,311.163065L719.399037,311.311621L711.868591,301.921073L707.179284,298.971704L694.774807,302.687899L689.731251,292.140508L689.408569,291.537564L689.591551,291.353163L676.375478,273.587106L662.643820,274.938005L664.700125,271.710766L665.547208,256.940427L668.354950,255.655497L671.419089,245.272520L658.589149,246.484411L647.695846,238.178596L652.885121,216.111896L652.338112,216.343230L647.795181,215.799030L640.267880,221.318192L637.614587,217.568476L625.787159,216.154190L616.814132,208.492442L615.045385,210.795941L599.337697,216.754929L597.366705,224.427877L590.073894,233.728822L582.158080,236.633768L566.998500,231.891078L562.177769,237.196906L557.390736,258.063522L565.715519,269.964112L563.445956,277.996601L563.407599,278.070036Z " data-code="soorp-Usti_nad_Labem" data-name="Ústí nad Labem"/>
    <path d="M956.025405,106.124982L942.534302,108.649073L938.891848,117.852681L939.870074,123.053194L935.055439,130.161325L923.345849,137.991715L923.857185,143.691800L917.259236,150.002346L903.044559,147.787849L889.421121,155.342485L889.391558,155.330991L889.357777,155.322166L884.482025,169.037222L888.784051,173.753420L906.246694,179.219249L908.960015,178.451848L928.272053,182.396479L928.360040,184.004387L951.090295,180.212366L960.558392,189.572192L960.583495,189.488641L964.802723,186.952548L975.588113,188.116974L985.387192,182.245879L992.032369,167.462069L991.469357,162.320857L999.653568,142.322955L1000.000000,102.789640L975.618503,114.146544L970.427419,115.183943L958.546586,112.410460L956.218378,106.322678L956.025405,106.124982Z " data-code="soorp-Varnsdorf" data-name="Varnsdorf"/>
    <path d="M360.734766,575.745631L360.704293,575.734352L360.701483,575.756660L356.208606,587.393883L350.135732,594.265772L346.671843,601.495988L354.253074,608.908674L357.309274,614.305582L355.579695,619.785836L351.368090,618.702273L342.281530,621.533901L334.064170,616.003683L320.291593,623.962683L323.018074,629.727599L305.518238,633.868338L297.173921,631.138460L295.281052,633.344644L284.598773,631.522138L284.576907,631.519009L284.565209,631.566995L285.383437,644.779936L294.195835,653.366040L293.739312,657.084035L287.182602,658.738669L295.377333,667.094942L283.385891,672.931670L278.656511,684.023655L284.359965,693.853890L284.928498,693.813367L285.024863,693.803798L290.919568,696.734562L296.068801,705.341920L294.385957,708.800195L300.739151,713.346715L309.394362,711.540359L311.272042,704.605842L312.829725,714.293032L316.359342,716.262593L314.336114,721.962573L319.854716,737.369822L329.261011,739.812589L339.011141,759.206002L345.557634,764.994667L354.957100,769.464481L361.908062,776.516369L359.808491,790.371209L360.264670,798.909303L360.344289,799.418834L368.213267,803.175339L376.227870,802.532096L397.766112,788.278056L393.854331,780.634320L403.401317,782.927934L412.670263,772.915981L415.139915,767.709428L426.079970,754.923837L426.216579,754.824465L426.960067,737.248011L434.330311,731.803611L436.332025,717.919524L449.354510,711.159921L448.788731,698.883893L455.479799,688.308302L459.787549,684.678515L466.444534,671.302020L466.407863,671.290365L466.243741,671.279230L450.809324,675.402806L443.248342,675.241655L440.696264,671.199023L438.475850,676.058252L430.194498,679.801611L421.652512,680.910966L409.058884,677.133501L396.688968,667.039990L421.714491,659.222295L420.792070,643.383175L425.491056,636.122933L418.788940,634.901004L417.790934,627.953796L421.973485,612.090955L415.215767,606.331505L417.219371,600.428058L416.519435,592.472880L412.400905,583.682233L403.525995,581.637777L403.281561,581.626334L402.937228,581.627716L399.270404,585.544920L390.549292,584.595885L380.362254,589.284522L376.685873,585.060762L361.118222,575.912844L360.734766,575.745631Z M399.555280,656.827161L404.041993,657.725393L405.814318,664.517497L400.610839,663.649406L399.555280,656.827161Z " data-code="soorp-Zatec" data-name="Žatec"/>
  </g>
  <g class="" id="soopu">
    <path d="M513.557748,407.661497L513.344337,407.853181L502.493956,419.778093L500.811729,424.708249L488.124881,417.006146L466.449853,422.589992L465.535888,426.178657L473.324882,427.201036L470.479672,438.024857L460.929616,436.206364L456.193921,438.103913L450.330950,435.999448L450.336840,435.739257L449.700283,435.686751L445.875992,442.342608L442.839988,447.167795L434.505939,457.879315L434.493700,458.036688L434.857769,458.003338L441.056399,460.959257L444.791399,458.238980L462.682285,466.993499L468.340473,465.348814L472.696476,473.367826L479.844273,480.708097L480.102958,480.830954L480.257566,480.902755L480.587199,481.055943L480.777105,481.313999L480.039474,483.192628L479.232112,484.906891L479.433570,495.492707L484.562315,510.391738L494.649622,514.434228L489.517605,522.116853L491.770969,533.017721L495.009470,537.103969L495.509603,537.083549L495.286411,536.504822L506.737240,533.419510L509.285506,535.839741L520.431552,534.288155L527.862488,525.683242L530.653052,525.516474L545.982007,513.582330L546.000838,513.568711L545.989602,513.531951L552.319792,507.864386L561.769324,510.437831L553.230339,493.417329L559.045625,496.290159L566.573093,484.886555L563.299411,475.356749L564.201433,470.925847L564.101110,470.695481L564.070009,470.736726L557.276791,472.230826L542.217071,467.561807L532.823282,459.665900L537.155803,441.778653L539.890365,417.258063L530.904771,410.171078L513.577927,407.702849L513.557748,407.661497Z " data-code="soopu-Bilina" data-name="Bílina"/>
    <path d="M815.230025,241.685205L815.175472,241.756903L811.064390,255.868451L806.026172,260.049663L795.141582,257.795043L790.646384,260.341784L782.652796,260.248595L778.384744,269.309664L771.433524,278.364639L780.136621,285.813647L778.924181,293.168014L769.737327,299.137455L766.612994,309.082489L762.349822,316.831572L752.928913,318.303625L756.533009,327.985192L764.892639,326.980873L766.524829,335.392500L759.218308,344.851927L758.837410,345.007995L758.329220,345.599125L759.657728,349.090229L761.525177,350.724521L763.186184,351.644512L763.332207,351.872368L763.382818,352.075272L770.080163,360.123700L785.992175,364.786160L792.114889,363.122362L803.748239,363.085375L818.760763,370.523593L830.468633,366.304737L833.711871,360.439773L833.716402,360.360767L829.690275,358.745828L829.134560,348.530045L845.986446,332.287910L843.639110,313.350141L848.403802,299.219054L864.956944,293.632111L867.720159,285.355648L872.068169,288.954204L879.373874,286.205839L872.182997,279.853064L873.060623,273.282328L873.051408,273.251263L872.908917,273.197027L848.693268,259.764609L815.495470,241.623780L815.230025,241.685205Z " data-code="soopu-Benesov_nad_Ploucnici" data-name="Benešov nad Ploučnicí"/>
    <path d="M817.649371,140.822967L817.802046,141.101226L817.288551,146.805012L820.171527,153.871931L813.747631,165.130084L823.438433,174.407750L832.130214,179.323734L822.155484,188.389696L823.405645,190.737065L814.242662,197.069883L805.475897,207.662397L804.436815,213.535040L815.935201,214.691327L834.177708,214.949480L839.075102,224.462351L835.062261,224.317120L829.276638,229.788812L825.983642,229.180146L815.331743,241.619347L815.230025,241.685205L815.495470,241.623780L848.693268,259.764609L872.908917,273.197027L873.051408,273.251263L873.193625,273.166562L878.321554,261.357806L881.339454,250.193777L888.896701,250.718396L890.602010,239.338413L895.321375,230.933217L890.901302,211.491810L897.112778,215.855249L901.610742,210.874935L911.454796,209.673587L918.656836,214.057423L931.661309,225.572250L945.589822,229.413309L958.252950,220.586089L956.416956,210.865024L960.414244,198.343094L962.867151,196.196611L960.569588,189.629733L960.558392,189.572192L951.090295,180.212366L928.360040,184.004387L928.272053,182.396479L908.960015,178.451848L906.246694,179.219249L888.784051,173.753420L884.482025,169.037222L889.357777,155.322166L889.391558,155.330991L889.292089,155.072569L885.855131,149.219226L870.180829,143.024312L862.254771,134.316420L863.858401,131.162473L854.119028,130.419643L854.078782,130.408001L845.683142,134.259548L832.868783,131.381262L831.237054,135.777553L817.659766,140.814690L817.649371,140.822967Z " data-code="soopu-Ceska_Kamenice" data-name="Česká Kamenice"/>
    <path d="M652.885121,216.111896L647.695846,238.178596L658.589149,246.484411L671.419089,245.272520L668.354950,255.655497L665.547208,256.940427L664.700125,271.710766L662.643820,274.938005L676.375478,273.587106L689.591551,291.353163L689.408569,291.537564L689.731251,292.140508L694.774807,302.687899L707.179284,298.971704L711.868591,301.921073L719.399037,311.311621L726.678465,311.163065L729.414667,323.277436L736.814571,329.801892L739.895151,329.848390L738.473412,331.288814L738.773249,331.752363L745.392900,340.741554L746.889369,342.322973L758.484913,344.647344L758.837410,345.007995L759.218308,344.851927L766.524829,335.392500L764.892639,326.980873L756.533009,327.985192L752.928913,318.303625L762.349822,316.831572L766.612994,309.082489L769.737327,299.137455L778.924181,293.168014L780.136621,285.813647L771.433524,278.364639L778.384744,269.309664L782.652796,260.248595L790.646384,260.341784L795.141582,257.795043L806.026172,260.049663L811.064390,255.868451L815.175472,241.756903L815.230025,241.685205L815.331743,241.619347L825.983642,229.180146L829.276638,229.788812L835.062261,224.317120L839.075102,224.462351L834.177708,214.949480L815.935201,214.691327L804.436815,213.535040L805.475897,207.662397L814.242662,197.069883L823.405645,190.737065L822.155484,188.389696L832.130214,179.323734L823.438433,174.407750L813.747631,165.130084L820.171527,153.871931L817.288551,146.805012L817.802046,141.101226L817.649371,140.822967L817.632361,140.826226L797.581093,145.078004L791.586476,138.422809L781.911049,135.860508L775.951898,141.083920L762.268475,143.665946L763.750443,148.194510L761.432461,160.568721L745.077753,176.155837L717.845990,182.947575L705.240188,191.567048L687.158422,197.406764L663.263897,216.250711L652.989367,216.067479L652.885121,216.111896Z " data-code="soopu-Decin" data-name="Děčín"/>
    <path d="M137.158052,503.445747L137.675351,537.158878L135.465813,544.383211L135.016910,551.884317L134.902949,552.205583L134.978123,552.215708L139.670733,552.811305L147.718400,563.501482L148.045926,567.536801L166.563277,562.201406L167.212935,561.947580L167.473107,561.756485L177.378801,559.966419L185.489445,572.148260L192.948034,575.748481L207.951524,589.621868L216.370804,595.309432L232.507667,602.644372L233.698988,600.117899L244.084581,602.192190L247.843180,613.648953L245.280998,620.135758L239.646069,627.375313L237.592379,635.426071L239.898256,643.085939L230.542799,640.240149L240.369080,648.995901L257.239746,637.427788L274.550279,637.361100L276.944032,647.081747L282.423670,645.085731L284.021875,631.438917L284.576907,631.519009L284.598773,631.522138L295.281052,633.344644L297.173921,631.138460L305.518238,633.868338L323.018074,629.727599L320.291593,623.962683L334.064170,616.003683L342.281530,621.533901L351.368090,618.702273L355.579695,619.785836L357.309274,614.305582L354.253074,608.908674L346.671843,601.495988L350.135732,594.265772L356.208606,587.393883L360.701483,575.756660L360.704293,575.734352L360.252371,575.545084L350.510729,574.079162L345.134077,571.408804L341.505613,564.045952L323.885296,562.753150L299.536370,540.328186L295.704988,539.428564L284.442791,524.848161L293.717132,517.783388L285.426112,515.864307L280.965555,520.373251L272.336169,515.675867L267.954634,518.605337L260.568073,506.929267L265.573032,500.707503L272.002021,502.348927L257.768135,477.393376L250.246524,475.948711L247.993783,465.577416L256.652389,464.248419L253.386596,454.654834L251.415661,441.013366L253.839103,438.440897L260.510322,444.134424L272.954140,437.736236L272.965806,437.629410L272.941617,437.663656L254.602840,424.454823L246.795536,408.908113L245.066343,407.854151L244.430402,396.657658L244.260827,396.412623L227.336828,403.979836L218.572492,423.398198L219.579117,431.318140L203.883002,434.279854L197.681502,431.776683L196.635834,425.377464L192.016486,420.024485L181.906552,420.242741L178.495846,417.736093L173.593877,426.139366L165.870600,432.851945L160.358581,450.244495L163.040129,461.043484L158.536141,466.151901L150.172152,486.385201L142.640283,491.863370L143.776578,501.633145L137.345229,503.415447L137.158052,503.445747Z " data-code="soopu-Chomutov" data-name="Chomutov"/>
    <path d="M272.965806,437.629410L272.954140,437.736236L260.510322,444.134424L253.839103,438.440897L251.415661,441.013366L253.386596,454.654834L256.652389,464.248419L247.993783,465.577416L250.246524,475.948711L257.768135,477.393376L272.002021,502.348927L265.573032,500.707503L260.568073,506.929267L267.954634,518.605337L272.336169,515.675867L280.965555,520.373251L285.426112,515.864307L293.717132,517.783388L284.442791,524.848161L295.704988,539.428564L299.536370,540.328186L323.885296,562.753150L341.505613,564.045952L345.134077,571.408804L350.510729,574.079162L360.252371,575.545084L360.704293,575.734352L360.734766,575.745631L360.734910,575.741932L364.422056,560.887175L361.864421,554.413801L354.498894,551.792113L352.555899,540.132880L361.693453,526.237478L336.730236,502.917380L337.917185,500.501782L331.871799,497.604894L328.866414,480.613093L321.223326,465.721318L321.429190,464.799522L321.232915,464.968346L315.887808,468.093172L310.034975,460.526213L305.144600,449.356612L298.041145,448.159791L294.990505,452.694198L287.507378,457.378595L284.116735,452.021224L293.855392,437.840783L289.530682,425.829885L273.543942,436.643222L272.965806,437.629410Z " data-code="soopu-Jirkov" data-name="Jirkov"/>
    <path d="M167.212935,561.947580L166.632687,562.180129L169.308830,565.099275L172.735131,576.745396L167.295919,578.624610L174.922080,593.139630L171.553967,609.811431L177.072220,614.014854L173.140894,620.603076L168.332731,622.935421L157.815460,620.325527L157.315189,634.512890L162.120977,637.195503L157.862960,646.033693L157.566480,646.050909L157.310721,646.268820L161.907709,659.603178L166.513393,662.574775L166.563591,671.615195L156.323974,683.299184L158.034162,689.565755L164.288114,692.759747L164.532042,698.827602L160.770226,699.017184L156.248359,720.323204L163.006734,720.730579L162.990295,730.198005L164.892897,746.370419L157.857803,752.719339L159.290235,756.515503L171.586923,761.593915L173.734643,768.516753L174.022930,769.022344L189.091749,771.246797L181.814038,755.605915L188.167063,752.449935L201.295607,752.119619L200.549052,745.621632L202.867507,741.034368L212.526292,734.219110L211.920219,727.211652L225.088915,720.322219L235.685940,716.881477L235.900011,722.082698L243.806055,733.381111L251.866707,733.291504L253.973298,727.985355L262.085499,723.447722L260.124784,714.436815L265.534405,713.173374L272.834416,699.661301L284.634717,695.873655L284.926713,693.850922L284.928498,693.813367L284.359965,693.853890L278.656511,684.023655L283.385891,672.931670L295.377333,667.094942L287.182602,658.738669L293.739312,657.084035L294.195835,653.366040L285.383437,644.779936L284.565209,631.566995L284.576907,631.519009L284.021875,631.438917L282.423670,645.085731L276.944032,647.081747L274.550279,637.361100L257.239746,637.427788L240.369080,648.995901L230.542799,640.240149L239.898256,643.085939L237.592379,635.426071L239.646069,627.375313L245.280998,620.135758L247.843180,613.648953L244.084581,602.192190L233.698988,600.117899L232.507667,602.644372L216.370804,595.309432L207.951524,589.621868L192.948034,575.748481L185.489445,572.148260L177.378801,559.966419L167.473107,561.756485L167.212935,561.947580Z " data-code="soopu-Kadan" data-name="Kadaň"/>
    <path d="M134.902949,552.205583L134.846882,552.290426L124.591101,558.144749L121.335229,557.362758L114.741483,566.584119L117.894625,569.225443L112.788259,580.732338L108.131755,584.610499L99.587679,584.631074L99.938614,589.679146L93.979335,596.912610L91.200356,592.841708L72.946897,598.044137L70.488996,603.204691L65.491395,596.488004L59.919679,592.726848L53.569876,593.234358L35.927942,598.466038L37.466596,604.094477L37.470582,604.218605L37.386410,604.457935L38.532804,607.515364L51.933351,615.227162L52.811438,610.812122L68.979338,613.760542L75.490981,619.031569L82.326452,617.099720L89.543024,627.244480L85.035517,629.785340L80.274108,642.079474L90.257372,644.427339L94.714649,647.569908L104.122637,638.633122L114.872171,641.625755L115.934304,644.156655L126.635180,645.318244L142.352960,644.121629L147.817294,638.530723L149.442803,644.295312L157.550774,645.988114L157.566480,646.050909L157.862960,646.033693L162.120977,637.195503L157.315189,634.512890L157.815460,620.325527L168.332731,622.935421L173.140894,620.603076L177.072220,614.014854L171.553967,609.811431L174.922080,593.139630L167.295919,578.624610L172.735131,576.745396L169.308830,565.099275L166.632687,562.180129L167.212935,561.947580L166.563277,562.201406L148.045926,567.536801L147.718400,563.501482L139.670733,552.811305L134.978123,552.215708L134.902949,552.205583Z " data-code="soopu-Klasterec_nad_Ohri" data-name="Klášterec nad Ohří"/>
    <path d="M37.470582,604.218605L37.466596,604.094477L35.927942,598.466038L53.569876,593.234358L59.919679,592.726848L65.491395,596.488004L70.488996,603.204691L72.946897,598.044137L91.200356,592.841708L93.979335,596.912610L99.938614,589.679146L99.587679,584.631074L108.131755,584.610499L112.788259,580.732338L117.894625,569.225443L114.741483,566.584119L121.335229,557.362758L124.591101,558.144749L134.846882,552.290426L134.902949,552.205583L135.016910,551.884317L135.465813,544.383211L137.675351,537.158878L137.158052,503.445747L136.744928,503.483195L108.859273,496.246814L106.255681,491.283872L87.663157,503.203502L73.290056,506.256570L59.549819,505.168890L49.476967,496.957484L44.577386,497.127086L44.547934,503.300514L40.159319,516.546094L37.350364,532.502322L39.143323,548.891609L35.688911,558.103299L25.440587,565.616045L17.116849,579.746072L0.000000,586.230422L0.000000,598.510808L8.581794,608.292527L16.304554,606.591600L22.437233,608.238935L37.455776,604.217094L37.470582,604.218605Z " data-code="soopu-Vejprty" data-name="Vejprty"/>
    <path d="M731.706869,389.730921L731.709907,389.768194L729.785785,408.579704L712.139407,406.693177L709.015675,418.033178L697.708304,424.187254L694.190501,432.430056L686.395052,421.266036L682.108322,421.778799L678.842820,428.738585L672.183311,428.107481L668.485194,431.404395L660.470614,428.521511L658.495477,425.527082L645.789707,431.305214L645.220128,431.717435L645.550440,432.533888L647.064251,441.867945L645.910808,452.723357L651.924774,465.587824L657.664184,466.346414L661.716141,472.523174L654.930258,484.269398L657.361450,491.156903L670.446906,493.020124L681.222801,490.490259L689.340757,497.157952L690.775650,513.924659L693.711202,519.216858L693.407713,529.121022L700.705282,539.399953L695.784544,539.451297L681.913797,550.608834L681.390468,550.466379L681.367449,550.609423L683.391579,552.864278L681.415772,560.546268L686.595626,565.330694L687.934409,570.044880L687.929489,570.403644L688.208395,570.388225L693.152004,568.443671L693.166323,572.642212L702.157373,579.164632L724.285027,567.993435L719.043127,560.906399L723.980447,557.568396L717.167037,551.085773L717.248783,539.790054L722.864653,538.116613L736.149277,529.387856L747.659768,529.156911L749.060927,515.981720L756.101552,514.562898L760.336400,516.747484L773.099541,507.031230L779.261341,509.083184L791.337390,508.568329L796.585229,516.825959L803.262936,518.158588L812.315645,513.507364L812.555579,513.463349L812.978245,513.440571L820.766428,509.462225L816.108070,506.222020L805.470156,491.315226L828.726053,487.904490L828.871180,487.823889L829.001349,487.630609L824.136610,483.284016L827.823784,470.820209L822.487734,466.049711L823.997072,463.175206L815.276814,449.079906L806.199997,455.145627L800.984838,464.125689L805.964017,469.670826L807.403185,479.961140L794.193495,475.086867L792.672149,476.412805L780.551170,466.503058L779.825030,463.520658L772.582671,464.249250L772.008191,461.562656L758.810856,458.217025L755.927832,437.327434L753.613006,436.162703L766.771262,423.822427L767.394801,420.293483L776.618151,411.739085L772.218512,408.699794L769.210172,399.655284L756.366379,401.528744L748.851941,393.456946L748.841554,393.436571L748.815928,393.468546L745.049934,398.003903L740.128532,394.459460L731.739601,389.696794L731.706869,389.730921Z " data-code="soopu-Litomerice" data-name="Litoměřice"/>
    <path d="M828.871180,487.823889L828.726053,487.904490L805.470156,491.315226L816.108070,506.222020L820.766428,509.462225L812.978245,513.440571L812.555579,513.463349L812.602605,513.896442L818.244540,524.507706L807.824681,530.665317L812.360790,536.394989L823.119642,534.245484L822.132775,538.969688L826.381883,544.605721L825.108564,555.714477L835.717781,562.563024L835.298755,565.170170L844.434002,571.516599L844.976252,571.319189L851.255786,567.395212L854.777104,572.272297L875.463264,577.682363L877.952892,574.800332L871.067843,571.573850L880.160144,563.133462L878.383210,551.048257L889.976787,557.150479L896.374600,551.244142L900.030225,553.425797L907.533681,552.257611L908.457758,543.441455L906.526011,536.642998L906.334944,526.149730L903.865729,523.923409L897.531049,509.395002L908.261920,507.428357L907.414135,498.067961L916.064602,501.533536L908.522229,487.226336L909.108125,485.060288L888.606933,479.184936L885.591361,473.947023L885.980135,468.330971L885.695330,468.396010L885.698120,468.410483L866.646989,464.874814L863.816008,466.775288L851.651770,463.539962L847.475457,480.761659L843.083377,489.986985L828.885327,487.851925L828.871180,487.823889Z " data-code="soopu-Steti" data-name="Štětí"/>
    <path d="M763.332207,351.872368L762.976528,352.140721L763.505293,360.498217L759.287418,376.967330L758.701344,387.297333L748.871863,393.398693L748.841554,393.436571L748.851941,393.456946L756.366379,401.528744L769.210172,399.655284L772.218512,408.699794L776.618151,411.739085L767.394801,420.293483L766.771262,423.822427L753.613006,436.162703L755.927832,437.327434L758.810856,458.217025L772.008191,461.562656L772.582671,464.249250L779.825030,463.520658L780.551170,466.503058L792.672149,476.412805L794.193495,475.086867L807.403185,479.961140L805.964017,469.670826L800.984838,464.125689L806.199997,455.145627L815.276814,449.079906L823.997072,463.175206L822.487734,466.049711L827.823784,470.820209L824.136610,483.284016L829.001349,487.630609L828.871180,487.823889L828.885327,487.851925L843.083377,489.986985L847.475457,480.761659L851.651770,463.539962L863.816008,466.775288L866.646989,464.874814L885.698120,468.410483L885.695330,468.396010L885.686514,468.389944L882.577574,461.010780L874.309507,448.018405L866.202460,424.449551L860.340662,422.248681L851.293435,411.571831L852.554977,409.573884L843.417209,394.378598L839.478807,384.393681L842.018704,374.489421L840.403853,359.905746L834.075652,360.556301L833.711871,360.439773L830.468633,366.304737L818.760763,370.523593L803.748239,363.085375L792.114889,363.122362L785.992175,364.786160L770.080163,360.123700L763.382818,352.075272L763.332207,351.872368Z " data-code="soopu-Ustek" data-name="Úštěk"/>
    <path d="M244.430402,396.657658L245.066343,407.854151L246.795536,408.908113L254.602840,424.454823L272.941617,437.663656L272.965806,437.629410L273.543942,436.643222L289.530682,425.829885L293.855392,437.840783L284.116735,452.021224L287.507378,457.378595L294.990505,452.694198L298.041145,448.159791L305.144600,449.356612L310.034975,460.526213L315.887808,468.093172L321.232915,464.968346L321.429190,464.799522L321.703713,464.571093L330.053476,468.561870L334.921717,466.018906L348.841435,473.584513L357.592901,468.151942L373.880207,467.537878L380.102776,470.416250L392.495327,464.454357L395.267679,467.463508L405.664170,459.948376L413.683154,456.043693L416.778900,451.685644L422.565929,450.141954L429.526033,458.235670L434.479141,458.038048L434.493700,458.036688L434.505939,457.879315L442.839988,447.167795L445.875992,442.342608L449.700283,435.686751L450.336840,435.739257L450.406146,435.406065L446.200098,429.806566L440.400046,427.607449L436.120517,429.090551L437.602202,415.915340L424.451292,411.456666L419.964364,405.780177L426.760740,396.035400L421.641668,394.134010L414.099480,375.999935L405.915060,367.423885L399.349076,366.372273L393.708713,362.612411L400.845164,349.478970L405.043873,349.230812L399.425312,342.924414L404.440229,333.777507L393.229508,331.027089L393.652482,320.842092L380.496284,318.763271L377.558374,307.873725L377.546087,307.880142L361.577836,306.256397L356.347248,307.501905L347.656396,314.705024L340.899587,315.822425L349.516571,328.643088L344.449657,349.619400L333.563815,363.044752L335.509346,367.529786L340.476539,367.818519L340.058451,376.644258L314.937216,396.010833L304.957534,410.709168L300.230270,409.556536L281.932000,399.293453L274.646698,398.137949L268.901799,380.989770L251.431885,366.274615L248.701817,365.942991L251.232596,379.196659L244.538270,396.748273L244.430402,396.657658Z " data-code="soopu-Litvinov" data-name="Litvínov"/>
    <path d="M546.000838,513.568711L545.982007,513.582330L530.653052,525.516474L527.862488,525.683242L520.431552,534.288155L509.285506,535.839741L506.737240,533.419510L495.286411,536.504822L495.509603,537.083549L495.499572,537.149423L490.427153,542.320159L487.162264,551.767343L500.497575,572.492069L495.905923,577.514148L480.752863,578.317589L480.656348,580.967447L452.777819,587.181636L446.470349,589.507752L446.467182,589.506505L446.422075,589.566993L441.597580,592.320407L442.125954,604.808534L446.930717,611.906123L456.069040,611.722072L456.247361,626.495830L468.730824,631.125637L469.272008,636.308303L473.684413,636.708972L470.575445,628.427158L475.769536,629.850358L474.907032,639.036051L478.612406,640.326608L480.758057,650.493667L465.316945,660.209335L468.612253,669.179957L466.480059,671.238998L466.407863,671.290365L466.444534,671.302020L459.787549,684.678515L455.479799,688.308302L448.788731,698.883893L449.354510,711.159921L436.332025,717.919524L434.330311,731.803611L426.960067,737.248011L426.216579,754.824465L426.461704,755.212770L426.220592,767.977143L431.541836,766.403531L441.596298,770.873263L457.299017,766.912722L474.360245,768.889894L481.042201,753.131835L490.967148,755.425945L505.280702,734.526967L512.417002,732.060883L525.493353,743.341559L529.087557,752.939100L542.915391,749.679408L543.426055,740.272902L545.656143,738.974889L550.820912,726.911750L572.416003,719.620067L578.799145,720.892838L586.707332,716.102889L598.608817,702.489338L597.339823,694.070286L606.237988,692.263006L614.009832,694.792092L619.516599,683.083577L614.792941,672.657154L616.474574,664.353814L627.405411,655.795456L644.676418,654.933329L656.454905,657.767989L656.477248,657.774983L651.163422,653.646853L640.667650,630.635048L640.519481,630.648523L640.306804,630.689402L625.744984,632.911113L623.871974,626.844971L614.120361,625.114620L605.880228,621.506918L603.295981,599.795759L607.044545,598.211817L609.215660,585.957594L607.955342,579.578775L599.620941,569.492636L599.649423,569.272837L599.221929,569.364485L590.535826,572.500215L581.347185,570.205480L569.698828,581.834173L562.196273,577.426560L551.380649,556.736327L554.776013,549.081034L553.078111,542.097694L545.404851,524.659615L549.848079,517.065553L546.045144,513.587117L546.000838,513.568711Z " data-code="soopu-Louny" data-name="Louny"/>
    <path d="M399.555280,656.827161L400.610839,663.649406L405.814318,664.517497L404.041993,657.725393L399.555280,656.827161Z M403.281561,581.626334L403.525995,581.637777L412.400905,583.682233L416.519435,592.472880L417.219371,600.428058L415.215767,606.331505L421.973485,612.090955L417.790934,627.953796L418.788940,634.901004L425.491056,636.122933L420.792070,643.383175L421.714491,659.222295L396.688968,667.039990L409.058884,677.133501L421.652512,680.910966L430.194498,679.801611L438.475850,676.058252L440.696264,671.199023L443.248342,675.241655L450.809324,675.402806L466.243741,671.279230L466.407863,671.290365L466.480059,671.238998L468.612253,669.179957L465.316945,660.209335L480.758057,650.493667L478.612406,640.326608L474.907032,639.036051L475.769536,629.850358L470.575445,628.427158L473.684413,636.708972L469.272008,636.308303L468.730824,631.125637L456.247361,626.495830L456.069040,611.722072L446.930717,611.906123L442.125954,604.808534L441.597580,592.320407L446.422075,589.566993L446.467182,589.506505L446.422358,589.482785L439.385457,581.918230L420.150689,576.341704L411.584167,576.028067L403.285586,581.579557L403.281561,581.626334Z " data-code="soopu-Postoloprty" data-name="Postoloprty"/>
    <path d="M599.649423,569.272837L599.620941,569.492636L607.955342,579.578775L609.215660,585.957594L607.044545,598.211817L603.295981,599.795759L605.880228,621.506918L614.120361,625.114620L623.871974,626.844971L625.744984,632.911113L640.306804,630.689402L640.519481,630.648523L640.501761,630.368595L645.128884,625.350632L648.126063,615.709616L651.979769,612.074116L672.808361,610.737289L679.904183,602.111557L670.297015,580.550349L674.848996,573.411945L686.163385,573.021238L687.520186,570.415737L687.929489,570.403644L687.934409,570.044880L686.595626,565.330694L681.415772,560.546268L683.391579,552.864278L681.367449,550.609423L681.390468,550.466379L681.429125,550.229782L675.057172,545.967113L658.801546,545.037701L655.462497,553.008408L650.245200,559.035554L645.919482,558.354444L638.101803,548.945029L634.603236,548.178266L619.357443,558.159425L606.329675,548.934312L596.106255,565.418154L599.687847,569.005310L599.649423,569.272837Z " data-code="soopu-Libochovice" data-name="Libochovice"/>
    <path d="M617.521654,435.355491L617.343977,435.670158L600.977410,443.541454L601.004614,445.980225L585.610851,453.775627L585.599460,453.786446L585.332037,453.682661L570.345882,456.656653L564.175031,470.583907L564.101110,470.695481L564.201433,470.925847L563.299411,475.356749L566.573093,484.886555L559.045625,496.290159L553.230339,493.417329L561.769324,510.437831L552.319792,507.864386L545.989602,513.531951L546.000838,513.568711L546.045144,513.587117L549.848079,517.065553L545.404851,524.659615L553.078111,542.097694L554.776013,549.081034L551.380649,556.736327L562.196273,577.426560L569.698828,581.834173L581.347185,570.205480L590.535826,572.500215L599.221929,569.364485L599.649423,569.272837L599.687847,569.005310L596.106255,565.418154L606.329675,548.934312L619.357443,558.159425L634.603236,548.178266L638.101803,548.945029L645.919482,558.354444L650.245200,559.035554L655.462497,553.008408L658.801546,545.037701L675.057172,545.967113L681.429125,550.229782L681.390468,550.466379L681.913797,550.608834L695.784544,539.451297L700.705282,539.399953L693.407713,529.121022L693.711202,519.216858L690.775650,513.924659L689.340757,497.157952L681.222801,490.490259L670.446906,493.020124L657.361450,491.156903L654.930258,484.269398L661.716141,472.523174L657.664184,466.346414L651.924774,465.587824L645.910808,452.723357L647.064251,441.867945L645.550440,432.533888L645.220128,431.717435L645.012223,430.950808L634.683860,430.067945L626.821216,432.478663L626.718849,440.719429L617.530238,435.364071L617.521654,435.355491Z " data-code="soopu-Lovosice" data-name="Lovosice"/>
    <path d="M321.429190,464.799522L321.223326,465.721318L328.866414,480.613093L331.871799,497.604894L337.917185,500.501782L336.730236,502.917380L361.693453,526.237478L352.555899,540.132880L354.498894,551.792113L361.864421,554.413801L364.422056,560.887175L360.734910,575.741932L360.734766,575.745631L361.118222,575.912844L376.685873,585.060762L380.362254,589.284522L390.549292,584.595885L399.270404,585.544920L402.937228,581.627716L403.281561,581.626334L403.285586,581.579557L411.584167,576.028067L420.150689,576.341704L439.385457,581.918230L446.422358,589.482785L446.467182,589.506505L446.470349,589.507752L452.777819,587.181636L480.656348,580.967447L480.752863,578.317589L495.905923,577.514148L500.497575,572.492069L487.162264,551.767343L490.427153,542.320159L495.499572,537.149423L495.509603,537.083549L495.009470,537.103969L491.770969,533.017721L489.517605,522.116853L494.649622,514.434228L484.562315,510.391738L479.433570,495.492707L479.232112,484.906891L480.039474,483.192628L480.777105,481.313999L480.587199,481.055943L480.257566,480.902755L480.102958,480.830954L479.844273,480.708097L472.696476,473.367826L468.340473,465.348814L462.682285,466.993499L444.791399,458.238980L441.056399,460.959257L434.857769,458.003338L434.493700,458.036688L434.479141,458.038048L429.526033,458.235670L422.565929,450.141954L416.778900,451.685644L413.683154,456.043693L405.664170,459.948376L395.267679,467.463508L392.495327,464.454357L380.102776,470.416250L373.880207,467.537878L357.592901,468.151942L348.841435,473.584513L334.921717,466.018906L330.053476,468.561870L321.703713,464.571093L321.429190,464.799522Z " data-code="soopu-Most" data-name="Most"/>
    <path d="M284.928498,693.813367L284.926713,693.850922L284.634717,695.873655L272.834416,699.661301L265.534405,713.173374L260.124784,714.436815L262.085499,723.447722L253.973298,727.985355L251.866707,733.291504L243.806055,733.381111L235.900011,722.082698L235.685940,716.881477L225.088915,720.322219L211.920219,727.211652L212.526292,734.219110L202.867507,741.034368L200.549052,745.621632L201.295607,752.119619L188.167063,752.449935L181.814038,755.605915L189.091749,771.246797L174.022930,769.022344L173.844985,769.238623L171.982546,777.406068L167.987878,776.996326L168.717428,783.349365L178.966642,785.901623L185.151443,794.004362L187.745095,803.235646L195.383293,819.880096L190.772614,829.894811L187.485439,828.344454L183.001512,833.848153L190.707275,838.648874L191.405488,844.461071L187.779445,847.842243L174.314646,841.465866L164.573539,846.944335L168.534618,859.258091L190.315439,861.759535L190.405226,864.591495L200.681574,872.257934L200.876440,884.599777L214.847440,883.293340L218.446393,889.233611L217.123033,895.992575L222.961291,896.805871L229.130583,884.091153L237.952536,881.995611L242.405821,892.306602L244.561968,903.665060L247.377068,904.998909L257.832991,902.851469L265.765427,898.667141L275.816302,881.137490L278.831171,878.024956L301.103657,879.446125L299.492550,873.245890L304.420215,869.074408L305.661893,854.397551L310.110273,860.143345L319.120187,858.301202L318.780088,834.238604L316.434511,824.943686L331.512974,820.162521L335.995617,810.474231L343.642037,806.153108L345.276326,801.011481L360.149066,798.920321L360.264670,798.909303L359.808491,790.371209L361.908062,776.516369L354.957100,769.464481L345.557634,764.994667L339.011141,759.206002L329.261011,739.812589L319.854716,737.369822L314.336114,721.962573L316.359342,716.262593L312.829725,714.293032L311.272042,704.605842L309.394362,711.540359L300.739151,713.346715L294.385957,708.800195L296.068801,705.341920L290.919568,696.734562L285.024863,693.803798L284.928498,693.813367Z " data-code="soopu-Podborany" data-name="Podbořany"/>
    <path d="M687.929489,570.403644L687.520186,570.415737L686.163385,573.021238L674.848996,573.411945L670.297015,580.550349L679.904183,602.111557L672.808361,610.737289L651.979769,612.074116L648.126063,615.709616L645.128884,625.350632L640.501761,630.368595L640.519481,630.648523L640.667650,630.635048L651.163422,653.646853L656.477248,657.774983L656.483050,657.802532L664.925412,659.898556L669.994473,663.446313L683.024637,664.440753L689.790280,663.530201L708.520477,665.640180L709.984060,667.346745L734.002279,663.941005L734.857237,653.717028L743.736257,655.808440L751.048585,662.956880L757.724969,659.636643L775.466558,669.355310L777.062918,662.949046L781.887916,658.745490L789.669859,644.425318L797.951159,649.171254L809.985142,647.625977L809.195154,644.155978L835.003273,646.266263L836.000112,649.590851L845.698710,644.749999L850.754554,608.204134L846.245443,597.828734L842.581697,595.480141L849.862951,590.746616L846.481554,580.185238L841.740043,575.139567L843.983347,571.568623L844.434002,571.516599L835.298755,565.170170L835.717781,562.563024L825.108564,555.714477L826.381883,544.605721L822.132775,538.969688L823.119642,534.245484L812.360790,536.394989L807.824681,530.665317L818.244540,524.507706L812.602605,513.896442L812.555579,513.463349L812.315645,513.507364L803.262936,518.158588L796.585229,516.825959L791.337390,508.568329L779.261341,509.083184L773.099541,507.031230L760.336400,516.747484L756.101552,514.562898L749.060927,515.981720L747.659768,529.156911L736.149277,529.387856L722.864653,538.116613L717.248783,539.790054L717.167037,551.085773L723.980447,557.568396L719.043127,560.906399L724.285027,567.993435L702.157373,579.164632L693.166323,572.642212L693.152004,568.443671L688.208395,570.388225L687.929489,570.403644Z " data-code="soopu-Roudnice_nad_Labem" data-name="Roudnice nad Labem"/>
    <path d="M940.031348,32.229778L940.050906,32.348261L938.285686,47.053990L940.727751,51.743800L926.558287,57.416055L924.479159,55.674438L901.876138,48.143405L898.696001,49.803492L898.574205,57.039751L891.654039,56.373126L890.865691,68.049793L892.389050,70.831311L882.766363,70.039612L873.670401,77.471470L861.835455,81.641809L857.345811,90.359705L858.920072,96.364320L858.905783,96.367523L858.907239,96.417936L861.762389,107.939336L852.341358,115.069483L854.137649,130.323189L854.119028,130.419643L863.858401,131.162473L862.254771,134.316420L870.180829,143.024312L885.855131,149.219226L889.292089,155.072569L889.391558,155.330991L889.421121,155.342485L903.044559,147.787849L917.259236,150.002346L923.857185,143.691800L923.345849,137.991715L935.055439,130.161325L939.870074,123.053194L938.891848,117.852681L942.534302,108.649073L956.025405,106.124982L956.088430,105.977392L963.220548,93.836173L967.776162,90.328524L971.483911,79.326841L976.154489,71.170178L978.026730,47.535429L966.263559,35.408499L960.030451,30.898538L957.937607,26.345046L940.277139,32.211597L940.031348,32.229778Z " data-code="soopu-Rumburk" data-name="Rumburk"/>
    <path d="M858.905783,96.367523L858.920072,96.364320L857.345811,90.359705L861.835455,81.641809L873.670401,77.471470L882.766363,70.039612L892.389050,70.831311L890.865691,68.049793L891.654039,56.373126L898.574205,57.039751L898.696001,49.803492L901.876138,48.143405L924.479159,55.674438L926.558287,57.416055L940.727751,51.743800L938.285686,47.053990L940.050906,32.348261L940.031348,32.229778L939.968842,32.120915L937.686098,19.686540L923.178880,16.749131L922.472777,0.000000L915.196751,0.000000L914.939951,13.950127L904.072306,11.767590L902.947966,7.749992L891.811807,2.359532L878.878955,14.288710L871.819901,18.427393L866.594932,18.711165L850.065864,9.820493L849.676433,0.266260L788.683111,0.000000L792.064161,6.623078L786.828728,25.258030L777.841698,28.786682L781.118593,37.799428L776.482145,44.522231L778.956179,50.767886L784.755977,52.337669L805.396594,53.565732L807.922181,51.252666L818.714293,53.536219L817.197326,62.607050L808.659270,63.430319L802.951356,69.177671L808.076116,80.095720L818.988785,84.266790L842.108821,91.006260L845.445188,94.818886L853.132576,91.209271L858.749620,96.316573L858.905783,96.367523Z " data-code="soopu-Sluknov" data-name="Šluknov"/>
    <path d="M377.558374,307.873725L380.496284,318.763271L393.652482,320.842092L393.229508,331.027089L404.440229,333.777507L399.425312,342.924414L405.043873,349.230812L400.845164,349.478970L393.708713,362.612411L399.349076,366.372273L405.915060,367.423885L414.099480,375.999935L421.641668,394.134010L426.760740,396.035400L419.964364,405.780177L424.451292,411.456666L437.602202,415.915340L436.120517,429.090551L440.400046,427.607449L446.200098,429.806566L450.406146,435.406065L450.336840,435.739257L450.330950,435.999448L456.193921,438.103913L460.929616,436.206364L470.479672,438.024857L473.324882,427.201036L465.535888,426.178657L466.449853,422.589992L488.124881,417.006146L500.811729,424.708249L502.493956,419.778093L513.344337,407.853181L513.557748,407.661497L513.156619,406.839497L514.907658,390.609235L499.215484,388.311204L498.924401,394.164414L489.193444,383.634820L489.147720,371.414785L489.186705,371.343308L489.212073,371.296660L491.808947,367.140036L479.963898,345.610713L481.471224,334.068709L486.026881,326.509396L482.672541,324.574158L481.488367,317.196129L491.221049,307.944166L473.569482,294.117103L473.025653,293.590979L472.790443,293.642245L464.718494,291.538722L453.301436,296.704634L449.788211,304.147083L436.988766,300.996615L425.829039,290.528591L410.636206,292.468389L401.327885,298.487280L397.700836,306.901918L377.570662,307.867309L377.558374,307.873725Z " data-code="soopu-Duchcov" data-name="Duchcov"/>
    <path d="M520.003826,297.194504L519.949504,297.194584L509.718370,321.034173L515.550072,334.215542L520.117512,333.516987L536.133725,349.406882L538.524856,347.290565L550.563057,358.544108L556.509405,350.372572L566.218139,356.142772L566.406816,356.173235L566.407746,356.129223L569.603406,356.800043L566.613032,321.812602L575.213464,309.447458L576.418466,299.052501L581.511209,295.193855L579.296758,292.087615L569.815522,289.965621L554.863835,283.495097L554.855598,283.542230L541.251754,280.745883L539.987409,291.714715L533.897812,295.785929L524.524265,295.302992L520.008467,297.213496L520.003826,297.194504Z " data-code="soopu-Krupka" data-name="Krupka"/>
    <path d="M473.025653,293.590979L473.569482,294.117103L491.221049,307.944166L481.488367,317.196129L482.672541,324.574158L486.026881,326.509396L481.471224,334.068709L479.963898,345.610713L491.808947,367.140036L489.212073,371.296660L489.186704,371.343308L489.147720,371.414785L489.193444,383.634820L498.924401,394.164414L499.215484,388.311204L514.907658,390.609235L513.156619,406.839497L513.557748,407.661497L513.577927,407.702849L530.904771,410.171078L539.890365,417.258063L537.155803,441.778653L532.823282,459.665900L542.217071,467.561807L557.276791,472.230826L564.070009,470.736726L564.101110,470.695481L564.175031,470.583907L570.345882,456.656653L585.332037,453.682661L585.599460,453.786446L585.610851,453.775627L601.004614,445.980225L600.977410,443.541454L617.343977,435.670158L617.521654,435.355491L617.427386,435.275717L609.740514,420.788359L597.317471,420.107068L591.677604,415.153784L585.151585,417.248772L583.083852,412.015287L578.276531,411.344517L586.102114,404.482241L578.806889,395.901703L579.987328,390.959421L575.462394,378.396691L567.832142,366.510895L566.427603,356.194740L566.406816,356.173235L566.218139,356.142772L556.509405,350.372572L550.563057,358.544108L538.524856,347.290565L536.133725,349.406882L520.117512,333.516987L515.550072,334.215542L509.718370,321.034173L519.949504,297.194584L520.003826,297.194504L519.995875,297.162141L511.539718,291.929430L499.229985,289.587516L490.359260,286.306107L479.269377,287.218798L473.452965,293.387419L473.025653,293.590979Z " data-code="soopu-Teplice" data-name="Teplice"/>
    <path d="M563.407599,278.070036L563.443390,278.091483L569.480003,284.698846L580.439609,282.519192L581.191874,286.253416L592.438319,286.896467L601.592307,282.194499L604.908956,290.998727L609.321336,290.646574L621.722576,299.056999L620.060412,300.551823L634.902510,301.016662L639.961120,308.123178L645.296218,306.425010L650.882214,315.070633L656.301833,318.196355L661.957979,315.674352L664.041494,302.834973L673.897459,304.686522L676.396411,290.005080L689.134623,291.941992L689.408569,291.537564L689.591551,291.353163L676.375478,273.587106L662.643820,274.938005L664.700125,271.710766L665.547208,256.940427L668.354950,255.655497L671.419089,245.272520L658.589149,246.484411L647.695846,238.178596L652.885121,216.111896L652.338112,216.343230L647.795181,215.799030L640.267880,221.318192L637.614587,217.568476L625.787159,216.154190L616.814132,208.492442L615.045385,210.795941L599.337697,216.754929L597.366705,224.427877L590.073894,233.728822L582.158080,236.633768L566.998500,231.891078L562.177769,237.196906L557.390736,258.063522L565.715519,269.964112L563.445956,277.996601L563.407599,278.070036Z " data-code="soopu-Libouchec" data-name="Libouchec"/>
    <path d="M563.407599,278.070036L563.353106,278.218956L559.683936,280.726121L555.999026,282.281891L555.054226,283.532664L554.863835,283.495097L569.815522,289.965621L579.296758,292.087615L581.511209,295.193855L576.418466,299.052501L575.213464,309.447458L566.613032,321.812602L569.603406,356.800043L566.407746,356.129223L566.406816,356.173235L566.427603,356.194740L567.832142,366.510895L575.462394,378.396691L579.987328,390.959421L578.806889,395.901703L586.102114,404.482241L578.276531,411.344517L583.083852,412.015287L585.151585,417.248772L591.677604,415.153784L597.317471,420.107068L609.740514,420.788359L617.427386,435.275717L617.521654,435.355491L617.530238,435.364071L626.718849,440.719429L626.821216,432.478663L634.683860,430.067945L645.012223,430.950808L645.220128,431.717435L645.789707,431.305214L658.495477,425.527082L660.470614,428.521511L668.485194,431.404395L672.183311,428.107481L678.842820,428.738585L682.108322,421.778799L686.395052,421.266036L694.190501,432.430056L697.708304,424.187254L709.015675,418.033178L712.139407,406.693177L729.785785,408.579704L731.709907,389.768194L731.706869,389.730921L731.681055,389.728797L721.902492,388.073112L712.690412,372.323779L709.581038,370.122935L700.066940,371.029434L699.707597,354.528026L690.752144,349.491290L699.099049,341.587845L714.627621,350.641401L722.273942,347.296095L722.291848,346.921089L722.308319,346.811598L726.523822,336.023444L737.499441,332.175949L738.473412,331.288814L739.895151,329.848390L736.814571,329.801892L729.414667,323.277436L726.678465,311.163065L719.399037,311.311621L711.868591,301.921073L707.179284,298.971704L694.774807,302.687899L689.731251,292.140508L689.408569,291.537564L689.134623,291.941992L676.396411,290.005080L673.897459,304.686522L664.041494,302.834973L661.957979,315.674352L656.301833,318.196355L650.882214,315.070633L645.296218,306.425010L639.961120,308.123178L634.902510,301.016662L620.060412,300.551823L621.722576,299.056999L609.321336,290.646574L604.908956,290.998727L601.592307,282.194499L592.438319,286.896467L581.191874,286.253416L580.439609,282.519192L569.480003,284.698846L563.443390,278.091483L563.407599,278.070036Z " data-code="soopu-Usti_nad_Labem" data-name="Ústí nad Labem"/>
    <path d="M738.473412,331.288814L737.499441,332.175949L726.523822,336.023444L722.308319,346.811598L722.291847,346.921089L722.273942,347.296095L714.627621,350.641401L699.099049,341.587845L690.752144,349.491290L699.707597,354.528026L700.066940,371.029434L709.581038,370.122935L712.690412,372.323779L721.902492,388.073112L731.681055,389.728797L731.706869,389.730921L731.739601,389.696794L740.128532,394.459460L745.049934,398.003903L748.815928,393.468546L748.841554,393.436571L748.871863,393.398693L758.701344,387.297333L759.287418,376.967330L763.505293,360.498217L762.976528,352.140721L763.332207,351.872368L763.186184,351.644512L761.525177,350.724521L759.657728,349.090229L758.329220,345.599125L758.837410,345.007995L758.484913,344.647344L746.889369,342.322973L745.392900,340.741554L738.773249,331.752363L738.473412,331.288814Z " data-code="soopu-Velke_Brezno" data-name="Velké Březno"/>
    <path d="M956.025405,106.124982L942.534302,108.649073L938.891848,117.852681L939.870074,123.053194L935.055439,130.161325L923.345849,137.991715L923.857185,143.691800L917.259236,150.002346L903.044559,147.787849L889.421121,155.342485L889.391558,155.330991L889.357777,155.322166L884.482025,169.037222L888.784051,173.753420L906.246694,179.219249L908.960015,178.451848L928.272053,182.396479L928.360040,184.004387L951.090295,180.212366L960.558392,189.572192L960.583495,189.488641L964.802723,186.952548L975.588113,188.116974L985.387192,182.245879L992.032369,167.462069L991.469357,162.320857L999.653568,142.322955L1000.000000,102.789640L975.618503,114.146544L970.427419,115.183943L958.546586,112.410460L956.218378,106.322678L956.025405,106.124982Z " data-code="soopu-Varnsdorf" data-name="Varnsdorf"/>
    <path d="M360.734766,575.745631L360.704293,575.734352L360.701483,575.756660L356.208606,587.393883L350.135732,594.265772L346.671843,601.495988L354.253074,608.908674L357.309274,614.305582L355.579695,619.785836L351.368090,618.702273L342.281530,621.533901L334.064170,616.003683L320.291593,623.962683L323.018074,629.727599L305.518238,633.868338L297.173921,631.138460L295.281052,633.344644L284.598773,631.522138L284.576907,631.519009L284.565209,631.566995L285.383437,644.779936L294.195835,653.366040L293.739312,657.084035L287.182602,658.738669L295.377333,667.094942L283.385891,672.931670L278.656511,684.023655L284.359965,693.853890L284.928498,693.813367L285.024863,693.803798L290.919568,696.734562L296.068801,705.341920L294.385957,708.800195L300.739151,713.346715L309.394362,711.540359L311.272042,704.605842L312.829725,714.293032L316.359342,716.262593L314.336114,721.962573L319.854716,737.369822L329.261011,739.812589L339.011141,759.206002L345.557634,764.994667L354.957100,769.464481L361.908062,776.516369L359.808491,790.371209L360.264670,798.909303L360.344289,799.418834L368.213267,803.175339L376.227870,802.532096L397.766112,788.278056L393.854331,780.634320L403.401317,782.927934L412.670263,772.915981L415.139915,767.709428L426.079970,754.923837L426.216579,754.824465L426.960067,737.248011L434.330311,731.803611L436.332025,717.919524L449.354510,711.159921L448.788731,698.883893L455.479799,688.308302L459.787549,684.678515L466.444534,671.302020L466.407863,671.290365L466.243741,671.279230L450.809324,675.402806L443.248342,675.241655L440.696264,671.199023L438.475850,676.058252L430.194498,679.801611L421.652512,680.910966L409.058884,677.133501L396.688968,667.039990L421.714491,659.222295L420.792070,643.383175L425.491056,636.122933L418.788940,634.901004L417.790934,627.953796L421.973485,612.090955L415.215767,606.331505L417.219371,600.428058L416.519435,592.472880L412.400905,583.682233L403.525995,581.637777L403.281561,581.626334L402.937228,581.627716L399.270404,585.544920L390.549292,584.595885L380.362254,589.284522L376.685873,585.060762L361.118222,575.912844L360.734766,575.745631Z M399.555280,656.827161L404.041993,657.725393L405.814318,664.517497L400.610839,663.649406L399.555280,656.827161Z " data-code="soopu-Zatec" data-name="Žatec"/>
  </g>
  <g class="" id="mzchu">
    <path d="M778.905723,613.986859L778.901094,612.595891L778.046512,612.142766L778.905723,613.986859Z " data-code="Klenec" data-name="Kleneč"/>
    <path d="M510.347135,590.631176L505.663522,592.392412L510.692807,593.924068L510.347135,590.631176Z " data-code="Oblik" data-name="Oblík"/>
    <path d="M461.004562,524.917109L460.645153,527.778564L462.527053,525.796463L461.004562,524.917109Z " data-code="Jansky_vrch" data-name="Jánský vrch"/>
    <path d="M143.731225,593.924683L145.140490,593.461109L144.602821,592.172440L143.731225,593.924683Z " data-code="Cibousov" data-name="Ciboušov"/>
    <path d="M134.129958,589.747947L131.271786,591.808330L132.144826,593.374425L134.129958,589.747947Z " data-code="Doupnak" data-name="Doupňák"/>
    <path d="M651.893189,384.154395L651.004112,384.754434L652.022482,385.423579L651.893189,384.154395Z " data-code="Vrkoc" data-name="Vrkoč"/>
    <path d="M899.617391,203.055117L899.629020,204.934717L900.069789,205.061692L899.617391,203.055117Z " data-code="Zlaty_vrch" data-name="Zlatý vrch"/>
    <path d="M789.898989,144.624154L789.787243,145.755532L789.275293,146.332517L789.898989,144.624154Z " data-code="Pravcicka_brana" data-name="Pravčická brána"/>
    <path d="M486.683652,599.476401L483.291016,598.727362L483.063532,599.601289L486.683652,599.476401Z " data-code="Rana" data-name="Raná"/>
    <path d="M617.123831,493.375950L617.295629,497.031666L619.213775,495.585393L617.123831,493.375950Z " data-code="Borecsky_vrch" data-name="Borečský vrch"/>
    <path d="M837.774532,387.836733L837.479311,387.990017L837.755600,388.116538L837.774532,387.836733Z " data-code="Dubi_hora" data-name="Dubí hora"/>
    <path d="M173.339224,456.163466L176.540707,463.285642L180.405867,467.399847L189.034703,467.917862L192.966142,470.707670L195.963693,466.480967L198.504511,465.781035L194.138292,462.020440L191.494187,457.809717L185.108040,457.399218L176.778992,450.310586L173.339224,456.163466Z " data-code="Novodomske_raseliniste" data-name="Novodomské rašeliniště"/>
    <path d="M162.933366,633.588543L162.921260,639.499231L166.016132,642.573050L176.812987,638.951314L167.381223,629.945995L163.571412,630.821640L162.933366,633.588543Z M175.867920,638.117302L168.596222,640.296058L166.479868,639.258382L174.883041,634.811325L175.867920,638.117302Z " data-code="Uhost" data-name="Úhošť"/>
    <path d="M760.662637,163.352693L754.368618,185.029088L758.612693,189.692843L758.342960,210.284893L765.064927,220.305407L766.165270,223.612163L764.578639,232.482008L766.843411,235.430225L771.047330,236.501452L768.302818,216.675618L765.602083,215.368000L765.980140,209.839322L764.350651,197.322402L760.696977,189.041905L755.599258,183.516750L755.309165,180.572878L761.047941,170.269165L768.012436,174.875174L767.190824,170.080341L768.499741,166.190712L761.146390,166.543495L760.662637,163.352693Z " data-code="Kanon_Labe" data-name="Kaňon Labe"/>
    <path d="M631.313331,484.613596L638.508918,480.871561L632.127192,480.564230L631.313331,484.613596Z M635.102097,482.071860L635.563151,481.929544L635.464209,482.365523L635.102097,482.071860Z " data-code="Lovos" data-name="Lovoš"/>
    <path d="M585.599460,453.786446L584.870118,453.898144L580.715883,454.934273L578.975129,457.952360L586.983022,458.198356L588.258437,455.289082L585.664399,453.830570L585.599460,453.786446Z M583.305292,456.310584L583.203912,457.140616L583.005570,456.778339L583.305292,456.310584Z " data-code="Milesovka" data-name="Milešovka"/>
    <path d="M310.478326,471.412079L319.359636,463.929189L311.511172,458.529928L309.411313,458.664340L310.478326,471.412079Z " data-code="Jezerka" data-name="Jezerka"/>
    <path d="M824.235903,195.105464L818.515737,188.756990L815.223752,194.758736L816.638222,197.211504L824.235903,195.105464Z " data-code="Ruzak" data-name="Růžák"/>
    <path d="M480.102958,480.830954L479.999833,480.952875L479.744030,481.809192L479.812813,482.316936L480.039474,483.192628L480.451836,484.127530L486.647989,479.005581L483.115455,476.323230L480.895977,480.432902L480.102958,480.830954Z " data-code="Boren" data-name="Bořeň"/>
    <path d="M779.937409,419.799185L779.451195,424.235137L784.144800,419.625914L782.245828,412.590052L778.996043,415.383653L779.937409,419.799185Z " data-code="Sedlo" data-name="Sedlo"/>
    <path d="M776.480150,268.320028L768.747062,263.629060L768.740584,269.140880L776.480150,268.320028Z M773.128771,264.859935L772.650371,264.986224L772.773844,265.136225L773.128771,264.859935Z " data-code="Brezinske_tisy" data-name="Březinské tisy"/>
    <path d="M529.755966,749.073136L529.867608,742.086005L529.077031,742.132491L529.755966,749.073136Z M532.423496,734.341255L531.205371,733.044380L530.622840,732.684434L532.423496,734.341255Z " data-code="Maly_a_Velky_stit" data-name="Malý a Velký štít"/>
  </g>
</svg>
