<?xml version="1.0" encoding="utf-8"?>
<!DOCTYPE svg PUBLIC "-//W3C//DTD SVG 1.1//EN" "http://www.w3.org/Graphics/SVG/1.1/DTD/svg11.dtd">
<svg xmlns="http://www.w3.org/2000/svg" xmlns:xlink="http://www.w3.org/1999/xlink" enable_background="new 0 0 1000 822" height="822px" pretty_print="False" style="stroke-linejoin: round; stroke:#000; fill: none;" version="1.1" viewBox="0 0 1000 822" width="1000px">
  <defs>
    <style type="text/css"><![CDATA[path { fill-rule: evenodd; }]]></style>
  </defs>
  <metadata>
    <views>
      <view h="822.819603729" padding="0" w="1000">
        <proj id="laea" lat0="49.1809866963" lon0="17.6436214945"/>
        <bbox h="8.46" w="10.3" x="995.67" y="995.72"/>
      </view>
    </views>
  </metadata>
  <g class="" id="bg">
    <path d="M-10000.0,-10000.0L-10000.0,10000.0L10000.0,10000.0L10000.0,-10000.0Z "/>
    <path d="M422.020161,820.819604L485.944615,795.536824L499.844718,783.954038L526.935658,737.029790L539.596938,726.429488L558.934583,723.047709L575.522825,725.851849L590.557602,724.944856L604.981794,710.738268L611.348957,694.327977L617.319386,657.260450L622.130552,639.493398L632.445118,618.552201L648.874903,607.853071L667.845012,604.808260L709.960891,607.895942L735.937252,595.764644L758.929246,574.052157L775.060335,546.310669L780.087464,519.993785L778.764778,466.526919L778.586792,459.327148L781.223364,427.210520L790.925016,387.875212L805.316031,351.291171L823.926140,320.488840L846.776245,298.494790L951.475963,256.576049L980.121970,233.645572L998.367755,219.023615L999.391594,176.685986L990.786183,176.564459L986.316881,174.753429L981.971258,171.520708L978.157075,166.507419L975.281594,159.315340L968.766200,125.147509L966.368772,117.529785L962.919899,110.815857L958.046115,105.285103L944.597824,96.911753L939.313567,91.041245L922.808364,56.390579L918.875961,52.097832L905.473287,47.094790L846.422629,48.499353L841.146844,46.591247L817.612633,30.081589L810.300174,27.132522L689.154639,39.830323L682.606304,38.479257L677.144973,35.650009L672.821967,31.303213L669.739490,25.359794L666.449684,10.567674L664.260343,5.514371L661.532562,2.264645L658.418260,0.436474L624.174076,0.000000L612.635649,31.452262L601.338097,34.302094L591.736581,33.410472L587.255156,31.109138L579.939413,22.661450L576.020846,19.634528L571.918679,18.080524L567.786588,18.117349L563.778109,19.823522L560.081036,23.316957L556.883218,28.715620L551.928820,43.151512L549.086476,47.891495L545.966700,50.948848L536.341607,56.333493L533.510383,58.968841L531.074706,63.076008L529.410131,68.483406L528.634894,74.375640L528.930042,86.077799L531.142587,98.986094L510.211137,108.370865L441.834845,94.563508L430.003420,94.067018L421.198399,95.211808L411.760045,98.958714L408.852810,101.430255L407.415711,104.927620L408.526280,109.753563L413.604154,121.838356L415.536450,129.504459L415.536034,134.829841L413.961485,139.773755L411.428595,143.428884L408.039820,146.794454L403.299097,148.739356L397.737026,149.579048L342.274245,148.414196L336.231206,149.918048L322.787950,155.472598L312.628167,161.240553L308.633720,164.533562L305.373389,168.616682L301.610909,175.288995L297.981889,183.249962L294.097882,189.868952L289.259154,194.118733L284.648467,195.725665L276.636999,194.128820L243.217732,178.916487L236.339021,177.527929L219.898806,168.480338L200.753008,151.923085L188.773851,147.367085L183.916128,146.782393L169.310206,144.815384L166.010141,164.025431L164.705970,184.493168L170.903763,204.966762L177.600872,213.436490L170.567181,227.818727L167.896690,231.173582L141.126797,256.812541L136.866228,262.183464L133.099802,268.043013L130.530851,270.870720L127.023925,272.589129L124.484943,272.760565L121.332638,272.126684L70.478835,273.096718L65.032894,274.668455L61.491171,278.933761L59.326689,285.100800L55.760358,307.091027L53.750695,312.943243L50.449130,316.736019L46.527664,318.065757L43.064836,317.425749L40.057426,315.368326L37.570672,312.446260L34.144788,306.217450L33.372610,304.288703L32.595837,306.917383L19.603891,330.000144L17.714438,337.732359L18.350149,347.769731L25.096201,371.273816L35.567825,393.539054L45.480497,407.593605L65.930319,419.922079L69.210900,423.360445L71.916586,428.136489L73.924444,434.696649L74.365283,441.668397L72.749000,447.470974L69.487129,452.238146L59.674333,459.174771L38.412031,466.931348L34.585697,470.588438L14.100294,499.538366L2.077254,510.237465L0.608406,515.855087L2.290781,521.494942L6.421335,526.836269L12.313855,531.558257L26.620515,537.861348L40.245129,538.134168L78.528315,525.217374L84.416138,525.645444L88.842680,528.694664L90.979756,534.676357L91.451715,542.778973L89.177668,579.926416L90.694018,586.272826L93.823715,590.892361L98.096193,594.728970L130.300502,610.042687L178.827148,620.358015L182.560215,622.923992L185.526256,627.590592L189.514584,640.176840L191.933362,657.437935L219.717876,669.372238L233.735413,680.778659L242.192152,693.835350L247.261178,696.861433L253.062811,697.522295L259.214915,696.368958L284.221141,682.861353L307.389007,686.039210L325.440874,693.328956L328.406938,696.305296L333.541475,704.938795L337.430062,716.094759L339.866815,728.510842L342.244725,733.813082L347.286872,737.461756L389.902548,750.187456L397.368762,755.489852L403.486999,763.065742L408.637978,772.586887L416.176787,793.784166L422.020161,820.819604Z "/>
  </g>
  <g class="" id="soorp">
    <path d="M390.553863,153.435350L390.084564,159.478553L386.626237,163.580010L396.659019,166.658585L400.509258,164.729902L409.570471,166.665889L402.747017,174.585942L396.923639,175.365849L393.133904,182.887457L395.779547,194.012615L404.539451,189.300656L411.773004,197.928559L410.849218,206.800231L428.614571,214.468459L430.032996,227.099513L430.019667,227.182507L430.538669,227.085225L458.364356,224.318769L467.408084,231.173896L478.829269,227.159022L489.998108,220.545916L497.863821,217.542766L502.080879,206.357820L511.031103,204.400542L529.026007,213.556107L547.419857,211.533596L548.438853,211.114007L548.824032,210.990023L562.012902,201.127782L562.466787,197.148899L583.713638,169.961208L581.217559,158.364261L588.778439,146.953416L588.780950,146.729964L588.437009,146.275432L580.027487,134.821759L579.024387,129.692957L574.497832,124.819178L567.411122,127.065131L564.146327,132.605700L555.676845,130.483308L548.974173,131.201238L543.516883,126.030883L550.318855,121.323666L543.616098,111.478061L532.009836,109.008175L526.033201,98.944981L526.034889,99.075311L522.910923,107.342380L514.025462,103.667385L504.954834,105.927448L496.577257,110.034808L484.950520,105.404417L478.780627,105.360928L461.342170,82.120767L459.863449,77.672455L450.391580,77.078044L441.171198,89.467486L442.790111,101.084469L438.043001,104.714261L424.252033,90.864214L417.816277,94.319883L405.606603,93.405985L426.460737,133.870307L416.451404,143.233869L412.221486,150.870865L399.694909,155.224106L390.593524,153.419168L390.553863,153.435350Z " data-code="soorp-Bystrice_pod_Hostynem" data-name="Bystřice pod Hostýnem"/>
    <path d="M288.805969,206.143508L307.350543,208.810988L307.550802,216.274528L311.023622,218.702061L315.324477,229.269960L317.561773,228.636488L316.727941,242.030176L314.128032,243.452248L313.983381,261.491193L321.999142,268.897101L315.555664,271.731149L314.549214,279.701329L310.106224,283.418775L315.266042,298.011862L312.139060,304.084233L312.123354,304.141939L312.132696,304.178248L322.290930,311.153656L329.931356,306.697014L335.834845,320.290708L335.850556,320.281222L335.845664,320.256709L358.311749,313.754980L356.966187,310.063840L360.757997,306.222409L360.771864,300.227787L371.746829,312.913555L376.255415,315.375550L391.409057,308.089345L392.514710,303.938248L385.837999,299.763786L389.463964,295.875121L399.271016,295.583726L402.754673,291.329248L399.390430,287.399851L403.836687,283.193419L407.730056,271.701137L413.299917,262.149346L415.438548,253.432139L424.832625,246.078920L423.393454,243.232842L416.989547,247.330226L403.665055,248.013160L400.686198,240.445201L402.098579,237.452808L421.079142,228.757348L422.723101,226.175746L429.728561,227.243001L430.019667,227.182507L430.032996,227.099513L428.614571,214.468459L410.849218,206.800231L411.773004,197.928559L404.539451,189.300656L395.779547,194.012615L393.133904,182.887457L396.923639,175.365849L402.747017,174.585942L409.570471,166.665889L400.509258,164.729902L396.659019,166.658585L386.626237,163.580010L390.084564,159.478553L390.553863,153.435350L390.484792,153.485016L381.974482,153.091722L380.837792,146.986496L371.135564,143.509859L347.587252,147.665369L344.836080,145.063164L334.690592,150.834415L333.187430,155.108140L321.848239,151.483201L316.397484,159.074981L321.650451,167.410691L307.674501,187.516544L290.221609,205.550738L288.805969,206.143508Z " data-code="soorp-Holesov" data-name="Holešov"/>
    <path d="M197.507245,220.071478L197.555613,220.173182L182.911872,222.980984L180.121872,231.535308L174.082161,229.340490L165.170029,236.314434L165.141641,238.583317L156.609135,253.174337L157.197051,255.426805L150.758185,261.612238L143.182046,272.588561L131.043536,277.875248L117.982894,267.708853L116.132794,271.443154L115.903838,271.545562L115.872978,271.495936L98.429982,273.090629L84.550402,284.410384L75.741052,279.356092L74.739285,275.111990L68.491992,276.708644L70.134757,281.522680L57.620299,289.676745L56.919411,307.961320L49.170840,305.894217L43.249792,301.170566L37.542820,314.536580L19.748522,336.347372L23.683360,337.922002L33.443373,353.667838L24.338319,372.170747L29.727145,375.798605L35.846299,384.972758L40.981109,396.805646L42.733920,407.264745L37.761133,409.534121L38.279402,415.067730L32.885643,420.344347L50.739059,418.071943L58.903075,422.809684L72.216124,410.182369L76.110307,419.696573L72.747455,428.755514L72.633638,428.907263L72.307933,429.281119L73.101860,437.396840L66.524282,449.264560L67.362828,454.162125L63.651999,464.765534L53.263855,464.354065L49.769901,466.936877L33.573752,470.561430L28.357300,496.139050L26.419447,495.574842L27.814649,505.630671L5.576652,505.592439L9.301746,520.945271L8.684002,531.005282L2.718076,536.835843L19.861146,540.269987L22.178732,538.367950L61.004865,527.922761L72.307599,521.706994L83.416627,519.254309L84.112949,518.630029L109.051837,511.701496L106.497902,501.503949L109.527973,492.973297L100.145051,482.433663L102.337582,473.555689L111.558718,465.441451L119.001287,463.872710L127.423782,455.912387L131.142604,455.511375L140.254551,437.589189L140.273045,437.548517L140.937878,438.080532L141.391558,439.354097L141.714733,439.791915L141.746531,439.778096L155.160449,428.793644L165.465456,427.958076L173.582533,419.327060L189.170546,412.640368L189.182041,412.696151L189.205053,412.755171L216.662307,406.994436L221.551674,411.635810L233.611797,403.415157L233.645532,403.372612L233.589878,403.316138L237.544459,395.723854L251.300209,395.474708L257.814709,390.501333L261.866213,396.560738L266.877896,388.606559L283.567772,384.100747L289.930873,380.639028L290.002173,380.627963L289.893175,380.414571L280.251083,364.902724L294.301866,358.884990L302.924018,362.225787L307.955172,351.705609L304.551045,346.143907L307.157843,340.305324L304.996665,336.957670L301.680124,340.707061L291.522760,323.713430L291.716907,323.390944L291.898119,322.976700L296.345007,319.365885L297.725861,311.972398L302.919477,307.793232L312.107096,304.080228L312.123354,304.141939L312.139060,304.084233L315.266042,298.011862L310.106224,283.418775L314.549214,279.701329L315.555664,271.731149L321.999142,268.897101L313.983381,261.491193L314.128032,243.452248L316.727941,242.030176L317.561773,228.636488L315.324477,229.269960L311.023622,218.702061L307.550802,216.274528L307.350543,208.810988L288.805969,206.143508L288.799121,206.111937L287.842765,204.369488L287.774387,204.396710L287.748802,204.279338L287.743474,204.254760L285.009576,191.869184L279.868940,184.449878L270.308892,175.720604L258.515844,175.864359L255.097507,179.892010L251.760279,176.865054L242.455455,177.122908L243.204375,171.823965L237.452992,169.051178L223.902661,166.020252L223.276480,174.361141L216.157115,174.746362L220.183462,145.491122L214.415208,143.359970L207.897381,136.225740L206.693168,139.924263L197.098730,144.129007L179.582744,171.636745L180.218167,178.833581L185.437298,194.334981L187.221358,194.683326L197.556814,219.511407L197.507245,220.071478Z " data-code="soorp-Kromeriz" data-name="Kroměříž"/>
    <path d="M539.761829,418.004324L539.149685,418.378117L535.505575,421.149236L530.004150,416.954821L519.703123,415.758611L531.931016,447.640030L522.991309,448.039508L512.769067,440.647004L508.706991,443.161510L508.706443,443.168741L508.698231,443.277053L501.888080,448.606861L492.285188,448.394590L473.639735,463.638047L470.934843,479.042283L474.580426,494.442687L462.772784,522.542640L453.986980,535.766999L453.819837,535.822805L454.275511,536.028836L453.712854,560.133511L458.266843,562.110615L476.776048,558.075181L483.652034,546.786026L487.983702,546.755906L487.999447,546.774312L488.008398,546.750340L495.622711,542.422157L509.617688,544.310589L515.275295,536.870481L517.299697,529.676879L517.303121,529.667358L517.464556,529.218323L521.080205,526.508662L524.440039,535.291753L532.314866,540.076024L529.679561,533.423171L540.246006,538.366108L545.992747,538.201454L549.523424,542.868036L549.560238,542.941970L549.553571,543.035044L547.799025,548.476243L554.433889,554.789813L560.511772,553.673853L570.809249,557.124759L576.048492,566.501123L580.543666,564.635654L586.767373,566.715377L595.137159,560.448847L615.650007,562.423244L614.824468,584.574058L611.638199,587.598760L637.910939,612.930601L638.290661,612.646347L641.602711,606.550214L660.432797,601.720782L661.147209,601.377423L649.090791,591.226170L643.321831,590.038803L627.671466,572.216730L631.506424,541.892403L634.241703,539.332135L643.192849,547.850473L649.086183,544.958667L665.742492,540.282765L662.964088,532.040864L661.727901,520.856529L661.539130,520.441460L660.569937,520.063195L649.820207,508.206752L647.528121,509.212938L623.866024,483.752153L604.623958,465.544591L598.089432,469.066228L597.969379,469.129799L597.946073,469.111243L593.591495,462.970878L597.997720,461.423500L605.410376,453.635176L591.811952,437.909291L590.906996,421.502734L586.176855,417.911900L586.004034,417.394673L585.693318,417.473674L573.304896,411.788948L568.128500,412.970487L567.329689,405.195966L539.809731,417.941628L539.761829,418.004324Z " data-code="soorp-Luhacovice" data-name="Luhačovice"/>
    <path d="M312.123354,304.141939L312.107096,304.080228L302.919477,307.793232L297.725861,311.972398L296.345007,319.365885L291.898119,322.976700L291.716907,323.390944L291.522760,323.713430L301.680124,340.707061L304.996665,336.957670L307.157843,340.305324L304.551045,346.143907L307.955172,351.705609L302.924018,362.225787L294.301866,358.884990L280.251083,364.902724L289.893175,380.414571L290.002173,380.627963L289.930873,380.639028L283.567772,384.100747L266.877896,388.606559L261.866213,396.560738L257.814709,390.501333L251.300209,395.474708L237.544459,395.723854L233.589878,403.316138L233.645532,403.372612L233.799471,403.461960L244.110838,416.768047L252.608641,422.612109L264.027578,438.047265L274.936073,437.069150L274.707598,444.506420L285.285058,457.806147L288.235762,457.697902L307.022256,475.802155L303.617504,483.990621L326.115760,478.115733L345.364941,457.293138L357.445618,459.480342L362.387077,462.927203L377.987322,456.764622L377.806451,456.276372L377.762329,456.078793L380.477610,444.919895L377.750488,424.936460L368.166015,423.838483L364.095603,427.256785L366.861775,416.358238L373.881138,412.120452L361.415183,408.373208L361.390828,408.381349L361.568040,408.118410L365.029378,403.963140L357.638503,383.089824L355.135502,366.683139L351.556011,369.401206L354.067911,362.306598L352.943068,350.576578L346.755116,347.678471L335.757014,335.671185L336.003978,320.604798L335.850556,320.281222L335.834845,320.290708L329.931356,306.697014L322.290930,311.153656L312.132696,304.178248L312.123354,304.141939Z " data-code="soorp-Otrokovice" data-name="Otrokovice"/>
    <path d="M759.819155,11.363844L744.523463,42.520559L752.599691,50.545704L752.562881,62.416641L752.367700,63.499319L752.346381,63.822548L749.732685,73.552965L752.676164,76.940604L766.869320,83.771459L756.522620,86.165578L753.956670,99.304931L752.943349,111.659599L754.133084,127.479556L754.167964,127.509990L754.359159,127.339803L770.275114,146.577482L772.512237,171.823273L777.708253,172.380866L777.984741,172.483707L778.477085,172.583439L783.184635,173.706150L787.938280,180.657506L797.978008,186.818758L801.736288,186.521738L813.795129,180.236759L841.887417,171.554380L846.612471,168.398714L867.184446,161.807230L868.868538,164.156657L888.158902,164.676105L900.728207,159.691786L919.368224,146.074023L925.468806,148.482896L944.514543,152.180027L944.829953,152.121342L946.518320,151.823989L971.167523,147.871314L975.680620,144.006253L984.495894,143.168630L984.375430,143.024878L988.112845,119.650193L983.834188,109.779521L978.619480,104.782340L972.406523,95.184201L962.439945,91.507538L949.905392,89.177128L945.300452,79.412845L937.581025,72.401327L935.655603,48.529937L932.563817,42.235923L913.920622,38.347661L905.123341,41.024514L902.423235,46.650388L893.204308,50.842248L877.160350,45.202383L866.318347,39.210216L858.107565,42.289340L847.377113,38.496252L838.365889,26.869175L834.550558,24.399147L826.840672,11.636561L823.915583,11.266375L813.094451,17.943019L804.623334,19.792558L799.072957,11.601920L790.295058,7.753778L783.509546,10.760066L777.785806,9.388059L759.838661,11.347730L759.819155,11.363844Z " data-code="soorp-Roznov_pod_Radhostem" data-name="Rožnov pod Radhoštěm"/>
    <path d="M189.182041,412.696151L189.170546,412.640368L173.582533,419.327060L165.465456,427.958076L155.160449,428.793644L141.746531,439.778096L141.714733,439.791915L141.391558,439.354097L140.937878,438.080532L140.273045,437.548517L140.254551,437.589189L131.142604,455.511375L127.423782,455.912387L119.001287,463.872710L111.558718,465.441451L102.337582,473.555689L100.145051,482.433663L109.527973,492.973297L106.497902,501.503949L109.051837,511.701496L84.112949,518.630029L84.342680,520.074206L87.071796,537.489683L95.773525,542.465778L98.239987,552.288794L97.499158,563.702255L91.908779,571.899759L88.959650,583.334673L90.589859,590.616914L96.931232,581.578450L108.571810,584.075891L113.608658,593.242254L131.736066,599.287653L133.167160,613.375646L159.828678,609.814471L162.169331,615.846929L169.455311,616.023024L179.330433,612.555622L186.224222,615.943799L191.698861,623.072129L193.027296,621.276911L200.923093,624.672100L200.937905,624.687458L200.827789,624.797126L196.177645,633.609427L197.756520,643.635951L191.990004,655.333214L199.775588,658.083291L207.374044,658.422527L225.042718,652.792023L227.284090,654.033056L228.501571,662.750460L239.239850,672.106080L245.548505,679.692766L255.192473,688.018963L258.729012,688.822156L276.033614,679.492288L288.226885,677.939095L291.083582,682.275248L306.098678,677.521689L307.417997,670.878570L307.649591,670.978529L307.883933,671.362373L315.803896,686.982160L327.577976,683.112835L348.450408,695.980409L346.558446,706.721052L338.311669,722.737864L347.055762,730.084197L356.765446,723.810221L374.452073,737.405727L388.414548,738.172784L388.576618,738.271748L377.592521,715.664743L376.592738,699.366629L379.338606,697.227852L372.300449,692.233351L363.844528,689.940594L355.982237,667.119129L351.930597,659.794350L339.188437,645.215774L339.798626,639.456478L349.058512,632.168838L347.607786,620.930266L346.260464,594.105284L346.382222,582.162032L356.195227,577.866632L354.468336,561.545096L357.462196,557.764336L360.679029,547.213161L372.119658,538.956543L408.605525,534.145779L415.618470,526.000397L424.414820,519.969058L424.524689,519.867093L424.478802,519.837698L421.098616,514.223186L422.699509,511.196704L411.702827,504.380646L411.575943,501.378038L417.488493,487.279314L418.988855,477.804251L431.969702,471.223721L422.635366,452.481981L402.401718,445.437406L377.923439,456.369431L377.806451,456.276372L377.987322,456.764622L362.387077,462.927203L357.445618,459.480342L345.364941,457.293138L326.115760,478.115733L303.617504,483.990621L307.022256,475.802155L288.235762,457.697902L285.285058,457.806147L274.707598,444.506420L274.936073,437.069150L264.027578,438.047265L252.608641,422.612109L244.110838,416.768047L233.799471,403.461960L233.645532,403.372612L233.611797,403.415157L221.551674,411.635810L216.662307,406.994436L189.205053,412.755171L189.182041,412.696151Z " data-code="soorp-Uherske_Hradiste" data-name="Uherské Hradiště"/>
    <path d="M424.524689,519.867093L424.414820,519.969058L415.618470,526.000397L408.605525,534.145779L372.119658,538.956543L360.679029,547.213161L357.462196,557.764336L354.468336,561.545096L356.195227,577.866632L346.382222,582.162032L346.260464,594.105284L347.607786,620.930266L349.058512,632.168838L339.798626,639.456478L339.188437,645.215774L351.930597,659.794350L355.982237,667.119129L363.844528,689.940594L372.300449,692.233351L379.338606,697.227852L376.592738,699.366629L377.592521,715.664743L388.576618,738.271748L388.607964,738.305870L390.321778,743.611210L398.439330,755.954164L410.102400,779.176641L417.718581,776.480849L414.513096,786.530291L417.325921,795.533287L424.814935,805.375684L444.342879,802.810686L457.805811,795.881707L467.397934,797.970767L488.698205,776.141694L491.081314,775.567587L497.504029,764.534758L503.556259,758.831351L505.224945,751.995441L514.446900,742.068786L525.161568,734.869212L530.794709,728.747105L530.278299,720.195790L579.023996,718.738339L598.441767,723.239073L612.111938,715.593592L614.114099,697.480272L618.331136,691.710687L622.917237,680.534120L622.998288,680.247176L623.111731,679.955007L622.446541,667.372053L633.565301,636.078350L632.066882,623.535100L637.893716,612.946934L637.910939,612.930601L611.638199,587.598760L614.824468,584.574058L615.650007,562.423244L595.137159,560.448847L586.767373,566.715377L580.543666,564.635654L576.048492,566.501123L570.809249,557.124759L560.511772,553.673853L554.433889,554.789813L547.799025,548.476243L549.553571,543.035044L549.560238,542.941970L549.523424,542.868036L545.992747,538.201454L540.246006,538.366108L529.679561,533.423171L532.314866,540.076024L524.440039,535.291753L521.080205,526.508662L517.464556,529.218323L517.303120,529.667358L517.299697,529.676879L515.275295,536.870481L509.617688,544.310589L495.622711,542.422157L488.008398,546.750340L487.999447,546.774312L487.983702,546.755906L483.652034,546.786026L476.776048,558.075181L458.266843,562.110615L453.712854,560.133511L454.275511,536.028836L453.819837,535.822805L453.539887,535.628165L440.662652,527.681281L427.833900,527.871404L424.565594,519.891662L424.524689,519.867093Z " data-code="soorp-Uhersky_Brod" data-name="Uherský Brod"/>
    <path d="M662.814288,374.887706L662.554855,374.990401L655.884234,383.462910L633.391003,387.429961L629.218520,395.091134L623.013483,394.538178L614.543122,404.077917L604.861126,407.666671L586.195362,417.263601L586.004034,417.394673L586.176855,417.911900L590.906996,421.502734L591.811952,437.909291L605.410376,453.635176L597.997720,461.423500L593.591495,462.970878L597.946073,469.111243L597.969379,469.129799L598.089432,469.066228L604.623958,465.544591L623.866024,483.752153L647.528121,509.212938L649.820207,508.206752L660.569937,520.063195L661.539130,520.441460L661.727901,520.856529L662.964088,532.040864L665.742492,540.282765L649.086183,544.958667L643.192849,547.850473L634.241703,539.332135L631.506424,541.892403L627.671466,572.216730L643.321831,590.038803L649.090791,591.226170L661.147209,601.377423L662.123966,600.791397L673.918975,601.309057L681.056460,603.292033L689.066382,597.895054L697.235290,597.336963L707.965200,604.771219L718.196504,604.649909L724.306522,597.968028L734.112849,596.740367L743.071469,593.494633L744.888039,594.879527L756.453671,584.696097L766.746118,566.788606L775.678225,558.884702L772.101739,551.343262L776.983547,548.606110L787.793293,525.875294L790.625380,523.171047L787.043602,494.436602L794.032059,482.652084L784.631560,468.199785L784.723489,468.130655L784.757694,468.121799L792.208554,448.814353L793.247344,446.850980L793.255764,446.835048L789.119304,435.654653L792.089577,423.881777L772.022312,429.078062L764.755056,427.890105L757.045051,431.901924L754.073187,430.192196L738.510646,427.534618L734.815727,425.404227L712.080683,432.477623L706.736440,427.674874L703.582099,416.660840L698.632948,407.978768L694.092903,406.046455L683.782359,388.457527L681.546175,379.072177L681.776338,378.841642L681.391541,378.415925L680.114073,374.133927L670.119074,373.297808L663.279342,374.787628L662.814288,374.887706Z " data-code="soorp-Valasske_Klobouky" data-name="Valašské Klobouky"/>
    <path d="M526.033201,98.944981L532.009836,109.008175L543.616098,111.478061L550.318855,121.323666L543.516883,126.030883L548.974173,131.201238L555.676845,130.483308L564.146327,132.605700L567.411122,127.065131L574.497832,124.819178L579.024387,129.692957L580.027487,134.821759L588.437009,146.275432L588.780950,146.729964L588.953996,145.213120L590.908357,142.784079L613.393133,154.551497L622.319666,152.220901L625.598866,148.581388L651.447041,143.342473L656.465112,140.959610L658.681591,131.516815L668.552473,128.582457L671.182393,124.610062L686.625274,124.203011L687.814486,125.557229L706.306705,119.770959L707.756077,122.250127L712.223110,116.662953L719.282332,119.919843L726.519053,125.971062L735.003029,123.965988L743.454534,130.756992L746.031535,126.490668L754.129086,127.556261L754.167964,127.509990L754.133084,127.479556L752.943349,111.659599L753.956670,99.304931L756.522620,86.165578L766.869320,83.771459L752.676164,76.940604L749.732685,73.552965L752.346381,63.822548L752.367701,63.499319L752.562881,62.416641L752.599691,50.545704L744.523463,42.520559L759.819155,11.363844L759.789296,11.378775L750.161173,11.437350L736.134405,16.063166L724.502627,17.925945L706.839017,26.302141L692.734739,26.369664L693.784618,17.764371L689.520261,0.521817L630.578568,0.000000L620.130132,11.134725L621.020209,18.444740L611.194358,21.016242L603.218541,15.605409L600.310737,18.340919L591.576728,13.742835L592.181096,11.336306L574.093605,4.472862L575.020018,18.320620L573.066125,27.305219L551.049504,33.220967L551.760669,40.028812L547.622928,44.113262L535.655843,47.539837L539.917451,60.798452L537.889975,69.482657L533.741085,78.040383L529.827198,80.029518L525.876952,98.907858L526.033201,98.944981Z " data-code="soorp-Valasske_Mezirici" data-name="Valašské Meziříčí"/>
    <path d="M574.553307,239.908886L574.262441,240.072823L552.144615,252.484002L556.638092,272.966820L543.412413,288.598193L534.725176,287.149661L524.375209,293.850011L523.670041,310.418848L525.310165,312.207187L524.616091,322.576396L530.796582,329.646119L515.768134,334.789198L507.893424,343.340003L515.900730,351.264168L521.355074,353.304422L532.354573,352.885267L532.920894,361.727074L528.636895,370.307151L532.410584,375.953626L535.480378,388.011653L531.253544,402.930526L537.307430,405.563587L535.542657,412.604370L539.750975,417.984051L539.761829,418.004324L539.809731,417.941628L567.329689,405.195966L568.128500,412.970487L573.304896,411.788948L585.693318,417.473674L586.004034,417.394673L586.195362,417.263601L604.861126,407.666671L614.543122,404.077917L623.013483,394.538178L629.218520,395.091134L633.391003,387.429961L655.884234,383.462910L662.554855,374.990401L662.814288,374.887706L662.751504,374.646484L658.722868,361.368862L647.565937,358.053830L646.630724,349.123975L642.818527,338.546072L653.517604,333.207785L648.022998,328.982637L654.512577,326.886640L650.199356,322.783345L655.106960,317.552439L652.973331,311.065859L643.823723,308.649827L635.556667,311.074186L630.806958,305.573252L625.598296,303.828521L624.684232,293.605329L617.967580,280.315004L610.229674,268.759423L614.767994,262.160160L614.133826,251.647129L608.681393,249.743613L595.561345,239.416840L583.204812,243.227701L574.742401,240.119888L574.553307,239.908886Z " data-code="soorp-Vizovice" data-name="Vizovice"/>
    <path d="M984.495894,143.168630L975.680620,144.006253L971.167523,147.871314L946.518320,151.823989L944.829953,152.121341L944.514543,152.180027L925.468806,148.482896L919.368224,146.074023L900.728207,159.691786L888.158902,164.676105L868.868538,164.156657L867.184446,161.807230L846.612471,168.398714L841.887417,171.554380L813.795129,180.236759L801.736288,186.521738L797.978008,186.818758L787.938280,180.657506L783.184635,173.706150L778.477085,172.583439L777.984741,172.483707L777.708253,172.380866L772.512237,171.823273L770.275114,146.577482L754.359159,127.339803L754.167964,127.509990L754.129086,127.556261L746.031535,126.490668L743.454534,130.756992L735.003029,123.965988L726.519053,125.971062L719.282332,119.919843L712.223110,116.662953L707.756077,122.250127L706.306705,119.770959L687.814486,125.557229L686.625274,124.203011L671.182393,124.610062L668.552473,128.582457L658.681591,131.516815L656.465112,140.959610L651.447041,143.342473L625.598866,148.581388L622.319666,152.220901L613.393133,154.551497L590.908357,142.784079L588.953996,145.213120L588.780950,146.729964L588.778439,146.953416L581.217559,158.364261L583.713638,169.961208L562.466787,197.148899L562.012902,201.127782L548.824032,210.990023L548.438853,211.114007L548.441525,211.134404L558.121035,221.710793L559.536950,224.822849L571.926719,230.956658L572.096868,230.927167L572.330925,231.255223L574.473591,238.747921L574.833856,239.690245L574.553307,239.908886L574.742401,240.119888L583.204812,243.227701L595.561345,239.416840L608.681393,249.743613L614.133826,251.647129L614.767994,262.160160L610.229674,268.759423L617.967580,280.315004L624.684232,293.605329L625.598296,303.828521L630.806958,305.573252L635.556667,311.074186L643.823723,308.649827L652.973331,311.065859L655.106960,317.552439L650.199356,322.783345L654.512577,326.886640L648.022998,328.982637L653.517604,333.207785L642.818527,338.546072L646.630724,349.123975L647.565937,358.053830L658.722868,361.368862L662.751504,374.646484L662.814288,374.887706L663.279342,374.787628L670.119074,373.297808L680.114073,374.133927L681.391541,378.415925L681.776338,378.841642L681.546175,379.072177L683.782359,388.457527L694.092903,406.046455L698.632948,407.978768L703.582099,416.660840L706.736440,427.674874L712.080683,432.477623L734.815727,425.404227L738.510646,427.534618L754.073187,430.192196L757.045051,431.901924L764.755056,427.890105L772.022312,429.078062L792.089577,423.881777L789.119304,435.654653L793.255764,446.835048L793.427108,446.842311L807.192269,436.710646L801.864131,428.001439L802.465130,403.486023L809.206433,396.257380L816.802732,384.045087L816.087615,373.709704L820.304588,371.170195L816.611707,354.827494L812.737242,355.103938L814.747562,332.188879L826.873682,317.314819L827.126910,317.137029L827.470080,316.895381L833.810388,314.623197L843.532105,306.360967L843.354670,286.216726L843.200035,285.817370L843.590383,285.726625L858.924144,277.937306L863.238725,279.780263L873.146496,275.535471L899.355581,273.629483L916.520125,265.784595L935.830626,261.923042L935.279494,257.267062L956.858341,246.761246L961.933311,246.266744L986.111682,238.611564L994.856123,232.414902L1000.000000,221.299419L1000.000000,148.279313L984.747132,143.009954L984.495894,143.168630Z " data-code="soorp-Vsetin" data-name="Vsetín"/>
    <path d="M430.019667,227.182507L429.728561,227.243001L422.723101,226.175746L421.079142,228.757348L402.098579,237.452808L400.686198,240.445201L403.665055,248.013160L416.989547,247.330226L423.393454,243.232842L424.832625,246.078920L415.438548,253.432139L413.299917,262.149346L407.730056,271.701137L403.836687,283.193419L399.390430,287.399851L402.754673,291.329248L399.271016,295.583726L389.463964,295.875121L385.837999,299.763786L392.514710,303.938248L391.409057,308.089345L376.255415,315.375550L371.746829,312.913555L360.771864,300.227787L360.757997,306.222409L356.966187,310.063840L358.311749,313.754980L335.845664,320.256709L335.850556,320.281222L336.003978,320.604798L335.757014,335.671185L346.755116,347.678471L352.943068,350.576578L354.067911,362.306598L351.556011,369.401206L355.135502,366.683139L357.638503,383.089824L365.029378,403.963140L361.568040,408.118410L361.390828,408.381349L361.415183,408.373208L373.881138,412.120452L366.861775,416.358238L364.095603,427.256785L368.166015,423.838483L377.750488,424.936460L380.477610,444.919895L377.762329,456.078793L377.806451,456.276372L377.923439,456.369431L402.401718,445.437406L422.635366,452.481981L431.969702,471.223721L418.988855,477.804251L417.488493,487.279314L411.575943,501.378038L411.702827,504.380646L422.699509,511.196704L421.098616,514.223186L424.478802,519.837698L424.524689,519.867093L424.565594,519.891662L427.833900,527.871404L440.662652,527.681281L453.539887,535.628165L453.819837,535.822805L453.986980,535.766999L462.772784,522.542640L474.580426,494.442687L470.934843,479.042283L473.639735,463.638047L492.285188,448.394590L501.888080,448.606861L508.698231,443.277053L508.706442,443.168740L508.706991,443.161510L512.769067,440.647004L522.991309,448.039508L531.931016,447.640030L519.703123,415.758611L530.004150,416.954821L535.505575,421.149236L539.149685,418.378117L539.761829,418.004324L539.750975,417.984051L535.542657,412.604370L537.307430,405.563587L531.253544,402.930526L535.480378,388.011653L532.410584,375.953626L528.636895,370.307151L532.920894,361.727074L532.354573,352.885267L521.355074,353.304422L515.900730,351.264168L507.893424,343.340003L515.768134,334.789198L530.796582,329.646119L524.616091,322.576396L525.310165,312.207187L523.670041,310.418848L524.375209,293.850011L534.725176,287.149661L543.412413,288.598193L556.638092,272.966820L552.144615,252.484002L574.262441,240.072823L574.553307,239.908886L574.833856,239.690245L574.473591,238.747921L572.330925,231.255223L572.096869,230.927167L571.926719,230.956658L559.536950,224.822849L558.121035,221.710793L548.441525,211.134404L548.438853,211.114007L547.419857,211.533596L529.026007,213.556107L511.031103,204.400542L502.080879,206.357820L497.863821,217.542766L489.998108,220.545916L478.829269,227.159022L467.408084,231.173896L458.364356,224.318769L430.538669,227.085225L430.019667,227.182507Z " data-code="soorp-Zlin" data-name="Zlín"/>
  </g>
  <g class="" id="soopu">
    <path d="M390.553863,153.435350L390.084564,159.478553L386.626237,163.580010L396.659019,166.658585L400.509258,164.729902L409.570471,166.665889L402.747017,174.585942L396.923639,175.365849L393.133904,182.887457L395.779547,194.012615L404.539451,189.300656L411.773004,197.928559L410.849218,206.800231L428.614571,214.468459L430.032996,227.099513L430.019667,227.182507L430.538669,227.085225L458.364356,224.318769L467.408084,231.173896L478.829269,227.159022L489.998108,220.545916L497.863821,217.542766L502.080879,206.357820L511.031103,204.400542L529.026007,213.556107L547.419857,211.533596L548.438853,211.114007L548.824032,210.990023L562.012902,201.127782L562.466787,197.148899L583.713638,169.961208L581.217559,158.364261L588.778439,146.953416L588.780950,146.729964L588.437009,146.275432L580.027487,134.821759L579.024387,129.692957L574.497832,124.819178L567.411122,127.065131L564.146327,132.605700L555.676845,130.483308L548.974173,131.201238L543.516883,126.030883L550.318855,121.323666L543.616098,111.478061L532.009836,109.008175L526.033201,98.944981L526.034889,99.075311L522.910923,107.342380L514.025462,103.667385L504.954834,105.927448L496.577257,110.034808L484.950520,105.404417L478.780627,105.360928L461.342170,82.120767L459.863449,77.672455L450.391580,77.078044L441.171198,89.467486L442.790111,101.084469L438.043001,104.714261L424.252033,90.864214L417.816277,94.319883L405.606603,93.405985L426.460737,133.870307L416.451404,143.233869L412.221486,150.870865L399.694909,155.224106L390.593524,153.419168L390.553863,153.435350Z " data-code="soopu-Bystrice_pod_Hostynem" data-name="Bystřice pod Hostýnem"/>
    <path d="M288.805969,206.143508L307.350543,208.810988L307.550802,216.274528L311.023622,218.702061L315.324477,229.269960L317.561773,228.636488L316.727941,242.030176L314.128032,243.452248L313.983381,261.491193L321.999142,268.897101L315.555664,271.731149L314.549214,279.701329L310.106224,283.418775L315.266042,298.011862L312.139060,304.084233L312.123354,304.141939L312.132696,304.178248L322.290930,311.153656L329.931356,306.697014L335.834845,320.290708L335.850556,320.281222L335.845664,320.256709L358.311749,313.754980L356.966187,310.063840L360.757997,306.222409L360.771864,300.227787L371.746829,312.913555L376.255415,315.375550L391.409057,308.089345L392.514710,303.938248L385.837999,299.763786L389.463964,295.875121L399.271016,295.583726L402.754673,291.329248L399.390430,287.399851L403.836687,283.193419L407.730056,271.701137L413.299917,262.149346L415.438548,253.432139L424.832625,246.078920L423.393454,243.232842L416.989547,247.330226L403.665055,248.013160L400.686198,240.445201L402.098579,237.452808L421.079142,228.757348L422.723101,226.175746L429.728561,227.243001L430.019667,227.182507L430.032996,227.099513L428.614571,214.468459L410.849218,206.800231L411.773004,197.928559L404.539451,189.300656L395.779547,194.012615L393.133904,182.887457L396.923639,175.365849L402.747017,174.585942L409.570471,166.665889L400.509258,164.729902L396.659019,166.658585L386.626237,163.580010L390.084564,159.478553L390.553863,153.435350L390.484792,153.485016L381.974482,153.091722L380.837792,146.986496L371.135564,143.509859L347.587252,147.665369L344.836080,145.063164L334.690592,150.834415L333.187430,155.108140L321.848239,151.483201L316.397484,159.074981L321.650451,167.410691L307.674501,187.516544L290.221609,205.550738L288.805969,206.143508Z " data-code="soopu-Holesov" data-name="Holešov"/>
    <path d="M235.301212,222.461873L235.412354,222.498504L262.383307,231.919356L261.327718,252.670399L262.943348,275.291858L279.490152,277.938575L270.500731,297.804385L278.057686,305.340104L290.278570,323.483134L291.716907,323.390944L291.898119,322.976700L296.345007,319.365885L297.725861,311.972398L302.919477,307.793232L312.107096,304.080228L312.123354,304.141939L312.139060,304.084233L315.266042,298.011862L310.106224,283.418775L314.549214,279.701329L315.555664,271.731149L321.999142,268.897101L313.983381,261.491193L314.128032,243.452248L316.727941,242.030176L317.561773,228.636488L315.324477,229.269960L311.023622,218.702061L307.550802,216.274528L307.350543,208.810988L288.805969,206.143508L288.799121,206.111937L287.842765,204.369488L287.774387,204.396710L287.748802,204.279338L287.714431,204.276101L283.187881,204.417727L273.730255,197.511588L259.741916,199.874014L250.271914,192.424157L245.753183,192.714350L243.092516,197.191827L243.246764,203.917396L235.223570,222.435265L235.301212,222.461873Z " data-code="soopu-Hulin" data-name="Hulín"/>
    <path d="M197.507245,220.071478L197.520503,220.051953L202.919388,223.573914L212.279066,234.462567L210.762431,239.261266L220.159523,250.106088L221.876435,247.439720L220.330802,237.467352L223.268635,232.180875L234.875534,222.898355L235.301212,222.461873L235.223570,222.435265L243.246764,203.917396L243.092516,197.191827L245.753183,192.714350L250.271914,192.424157L259.741916,199.874014L273.730255,197.511588L283.187881,204.417727L287.714431,204.276101L287.748802,204.279338L287.743474,204.254760L285.009576,191.869184L279.868940,184.449878L270.308892,175.720604L258.515844,175.864359L255.097507,179.892010L251.760279,176.865054L242.455455,177.122908L243.204375,171.823965L237.452992,169.051178L223.902661,166.020252L223.276480,174.361141L216.157115,174.746362L220.183462,145.491122L214.415208,143.359970L207.897381,136.225740L206.693168,139.924263L197.098730,144.129007L179.582744,171.636745L180.218167,178.833581L185.437298,194.334981L187.221358,194.683326L197.556814,219.511407L197.507245,220.071478Z " data-code="soopu-Chropyne" data-name="Chropyně"/>
    <path d="M111.037098,404.702507L111.061268,404.882834L101.144871,419.952486L87.991267,413.019412L84.473106,422.046640L72.637733,428.923309L72.633638,428.907263L72.307933,429.281119L73.101860,437.396840L66.524282,449.264560L67.362828,454.162125L63.651999,464.765534L53.263855,464.354065L49.769901,466.936877L33.573752,470.561430L28.357300,496.139050L26.419447,495.574842L27.814649,505.630671L5.576652,505.592439L9.301746,520.945271L8.684002,531.005282L2.718076,536.835843L19.861146,540.269987L22.178732,538.367950L61.004865,527.922761L72.307599,521.706994L83.416627,519.254309L84.112949,518.630029L109.051837,511.701496L106.497902,501.503949L109.527973,492.973297L100.145051,482.433663L102.337582,473.555689L111.558718,465.441451L119.001287,463.872710L127.423782,455.912387L131.142604,455.511375L140.254551,437.589189L140.273045,437.548517L140.291636,437.507729L135.500864,428.231040L140.400975,423.434349L140.336004,415.534086L130.409649,414.289982L122.879300,403.034827L123.338371,396.286023L135.677499,390.195172L128.297765,387.244542L111.069202,404.704553L111.037098,404.702507Z " data-code="soopu-Korycany" data-name="Koryčany"/>
    <path d="M115.903838,271.545562L115.962475,271.640675L116.714248,281.520172L132.384157,296.907354L121.663988,302.569648L122.033630,305.697870L117.069657,321.241472L112.373292,330.649901L113.916411,340.601733L106.726327,347.901542L103.997123,354.737665L108.154521,361.804407L119.050213,371.934536L117.182697,375.279282L109.220092,377.456019L111.687225,384.487765L102.525513,398.889952L111.256424,402.247913L111.036789,404.691184L111.037098,404.702507L111.069202,404.704553L128.297765,387.244542L135.677499,390.195172L123.338371,396.286023L122.879300,403.034827L130.409649,414.289982L140.336004,415.534086L140.400975,423.434349L135.500864,428.231040L140.291636,437.507729L140.273045,437.548517L140.937878,438.080532L141.391558,439.354097L141.714733,439.791915L141.746531,439.778096L155.160449,428.793644L165.465456,427.958076L173.582533,419.327060L189.170546,412.640368L189.182041,412.696151L189.205053,412.755171L216.662307,406.994436L221.551674,411.635810L233.611797,403.415157L233.645532,403.372612L233.589878,403.316138L237.544459,395.723854L251.300209,395.474708L257.814709,390.501333L261.866213,396.560738L266.877896,388.606559L283.567772,384.100747L289.930873,380.639028L290.002173,380.627963L289.893175,380.414571L280.251083,364.902724L294.301866,358.884990L302.924018,362.225787L307.955172,351.705609L304.551045,346.143907L307.157843,340.305324L304.996665,336.957670L301.680124,340.707061L291.522760,323.713430L291.716907,323.390944L290.278570,323.483134L278.057686,305.340104L270.500731,297.804385L279.490152,277.938575L262.943348,275.291858L261.327718,252.670399L262.383307,231.919356L235.412354,222.498504L235.301212,222.461873L234.875534,222.898355L223.268635,232.180875L220.330802,237.467352L221.876435,247.439720L220.159523,250.106088L210.762431,239.261266L212.279066,234.462567L202.919388,223.573914L197.520503,220.051953L197.507245,220.071478L197.555613,220.173182L182.911872,222.980984L180.121872,231.535308L174.082161,229.340490L165.170029,236.314434L165.141641,238.583317L156.609135,253.174337L157.197051,255.426805L150.758185,261.612238L143.182046,272.588561L131.043536,277.875248L117.982894,267.708853L116.132794,271.443154L115.903838,271.545562Z " data-code="soopu-Kromeriz" data-name="Kroměříž"/>
    <path d="M72.633638,428.907263L72.637733,428.923309L84.473106,422.046640L87.991267,413.019412L101.144871,419.952486L111.061268,404.882834L111.037098,404.702507L111.036789,404.691184L111.256424,402.247913L102.525513,398.889952L111.687225,384.487765L109.220092,377.456019L117.182697,375.279282L119.050213,371.934536L108.154521,361.804407L103.997123,354.737665L106.726327,347.901542L113.916411,340.601733L112.373292,330.649901L117.069657,321.241472L122.033630,305.697870L121.663988,302.569648L132.384157,296.907354L116.714248,281.520172L115.962475,271.640675L115.903838,271.545562L115.872978,271.495936L98.429982,273.090629L84.550402,284.410384L75.741052,279.356092L74.739285,275.111990L68.491992,276.708644L70.134757,281.522680L57.620299,289.676745L56.919411,307.961320L49.170840,305.894217L43.249792,301.170566L37.542820,314.536580L19.748522,336.347372L23.683360,337.922002L33.443373,353.667838L24.338319,372.170747L29.727145,375.798605L35.846299,384.972758L40.981109,396.805646L42.733920,407.264745L37.761133,409.534121L38.279402,415.067730L32.885643,420.344347L50.739059,418.071943L58.903075,422.809684L72.216124,410.182369L76.110307,419.696573L72.747455,428.755514L72.633638,428.907263Z " data-code="soopu-Morkovice-Slizany" data-name="Morkovice-Slížany"/>
    <path d="M539.761829,418.004324L539.149685,418.378117L535.505575,421.149236L530.004150,416.954821L519.703123,415.758611L531.931016,447.640030L522.991309,448.039508L512.769067,440.647004L508.706991,443.161510L508.706443,443.168741L508.698231,443.277053L501.888080,448.606861L492.285188,448.394590L473.639735,463.638047L470.934843,479.042283L474.580426,494.442687L462.772784,522.542640L453.986980,535.766999L453.819837,535.822805L454.275511,536.028836L453.712854,560.133511L458.266843,562.110615L476.776048,558.075181L483.652034,546.786026L487.983702,546.755906L487.999447,546.774312L488.008398,546.750340L495.622711,542.422157L509.617688,544.310589L515.275295,536.870481L517.299697,529.676879L517.303121,529.667358L517.464556,529.218323L521.080205,526.508662L524.440039,535.291753L532.314866,540.076024L529.679561,533.423171L540.246006,538.366108L545.992747,538.201454L549.523424,542.868036L549.560238,542.941970L549.638528,542.931866L549.174314,537.658913L553.794135,529.173117L559.227392,533.710749L562.113194,530.725073L562.345828,519.081313L543.607431,510.696862L537.258143,499.919525L540.974156,484.803684L547.941654,487.859875L554.430620,486.453033L597.601317,469.324720L597.969379,469.129799L597.946073,469.111243L593.591495,462.970878L597.997720,461.423500L605.410376,453.635176L591.811952,437.909291L590.906996,421.502734L586.176855,417.911900L586.004034,417.394673L585.693318,417.473674L573.304896,411.788948L568.128500,412.970487L567.329689,405.195966L539.809731,417.941628L539.761829,418.004324Z " data-code="soopu-Luhacovice" data-name="Luhačovice"/>
    <path d="M597.969379,469.129799L597.601317,469.324720L554.430620,486.453033L547.941654,487.859875L540.974156,484.803684L537.258143,499.919525L543.607431,510.696862L562.345828,519.081313L562.113194,530.725073L559.227392,533.710749L553.794135,529.173117L549.174314,537.658913L549.638528,542.931866L549.560238,542.941970L549.553571,543.035044L547.799025,548.476243L554.433889,554.789813L560.511772,553.673853L570.809249,557.124759L576.048492,566.501123L580.543666,564.635654L586.767373,566.715377L595.137159,560.448847L615.650007,562.423244L614.824468,584.574058L611.638199,587.598760L637.910939,612.930601L638.290661,612.646347L641.602711,606.550214L660.432797,601.720782L661.147209,601.377423L649.090791,591.226170L643.321831,590.038803L627.671466,572.216730L631.506424,541.892403L634.241703,539.332135L643.192849,547.850473L649.086183,544.958667L665.742492,540.282765L662.964088,532.040864L661.727901,520.856529L661.539130,520.441460L660.569937,520.063195L649.820207,508.206752L647.528121,509.212938L623.866024,483.752153L604.623958,465.544591L598.089432,469.066228L597.969379,469.129799Z " data-code="soopu-Slavicin" data-name="Slavičín"/>
    <path d="M290.002173,380.627963L289.930873,380.639028L283.567772,384.100747L266.877896,388.606559L261.866213,396.560738L257.814709,390.501333L251.300209,395.474708L237.544459,395.723854L233.589878,403.316138L233.645532,403.372612L233.799471,403.461960L244.110838,416.768047L252.608641,422.612109L264.027578,438.047265L274.936073,437.069150L274.707598,444.506420L285.285058,457.806147L288.235762,457.697902L307.022256,475.802155L303.617504,483.990621L326.115760,478.115733L345.364941,457.293138L357.445618,459.480342L362.387077,462.927203L377.987322,456.764622L377.806451,456.276372L377.762329,456.078793L380.477610,444.919895L377.750488,424.936460L368.166015,423.838483L364.095603,427.256785L366.861775,416.358238L373.881138,412.120452L361.415183,408.373208L361.390828,408.381349L361.156139,408.372290L349.264535,410.308917L341.079817,408.117333L334.660380,398.535698L318.778307,404.701082L317.839537,389.195840L315.571811,381.371120L306.452114,372.353703L299.894148,378.560784L298.411830,376.641169L290.006680,380.644944L290.002173,380.627963Z " data-code="soopu-Napajedla" data-name="Napajedla"/>
    <path d="M312.123354,304.141939L312.107096,304.080228L302.919477,307.793232L297.725861,311.972398L296.345007,319.365885L291.898119,322.976700L291.716907,323.390944L291.522760,323.713430L301.680124,340.707061L304.996665,336.957670L307.157843,340.305324L304.551045,346.143907L307.955172,351.705609L302.924018,362.225787L294.301866,358.884990L280.251083,364.902724L289.893175,380.414571L290.002173,380.627963L290.006680,380.644944L298.411830,376.641169L299.894148,378.560784L306.452114,372.353703L315.571811,381.371120L317.839537,389.195840L318.778307,404.701082L334.660380,398.535698L341.079817,408.117333L349.264535,410.308917L361.156139,408.372290L361.390828,408.381349L361.568040,408.118410L365.029378,403.963140L357.638503,383.089824L355.135502,366.683139L351.556011,369.401206L354.067911,362.306598L352.943068,350.576578L346.755116,347.678471L335.757014,335.671185L336.003978,320.604798L335.850556,320.281222L335.834845,320.290708L329.931356,306.697014L322.290930,311.153656L312.132696,304.178248L312.123354,304.141939Z " data-code="soopu-Otrokovice" data-name="Otrokovice"/>
    <path d="M759.819155,11.363844L744.523463,42.520559L752.599691,50.545704L752.562881,62.416641L752.367700,63.499319L752.346381,63.822548L749.732685,73.552965L752.676164,76.940604L766.869320,83.771459L756.522620,86.165578L753.956670,99.304931L752.943349,111.659599L754.133084,127.479556L754.167964,127.509990L754.359159,127.339803L770.275114,146.577482L772.512237,171.823273L777.708253,172.380866L777.984741,172.483707L778.477085,172.583439L783.184635,173.706150L787.938280,180.657506L797.978008,186.818758L801.736288,186.521738L813.795129,180.236759L841.887417,171.554380L846.612471,168.398714L867.184446,161.807230L868.868538,164.156657L888.158902,164.676105L900.728207,159.691786L919.368224,146.074023L925.468806,148.482896L944.514543,152.180027L944.829953,152.121342L946.518320,151.823989L971.167523,147.871314L975.680620,144.006253L984.495894,143.168630L984.375430,143.024878L988.112845,119.650193L983.834188,109.779521L978.619480,104.782340L972.406523,95.184201L962.439945,91.507538L949.905392,89.177128L945.300452,79.412845L937.581025,72.401327L935.655603,48.529937L932.563817,42.235923L913.920622,38.347661L905.123341,41.024514L902.423235,46.650388L893.204308,50.842248L877.160350,45.202383L866.318347,39.210216L858.107565,42.289340L847.377113,38.496252L838.365889,26.869175L834.550558,24.399147L826.840672,11.636561L823.915583,11.266375L813.094451,17.943019L804.623334,19.792558L799.072957,11.601920L790.295058,7.753778L783.509546,10.760066L777.785806,9.388059L759.838661,11.347730L759.819155,11.363844Z " data-code="soopu-Roznov_pod_Radhostem" data-name="Rožnov pod Radhoštěm"/>
    <path d="M141.714733,439.791915L141.835746,439.918650L149.226498,451.024349L147.271617,459.225691L152.492981,467.186333L166.763010,474.455164L183.343645,475.785473L189.804050,488.716142L198.734906,492.595858L203.814936,492.688062L217.477265,513.024281L228.060122,520.551828L236.275582,521.889611L225.302947,555.110661L231.172221,563.534657L235.905955,564.404235L256.035397,551.551468L266.299446,548.881075L279.761810,542.445197L283.705474,543.814498L292.243067,535.083375L306.208750,523.619796L301.492916,517.581665L293.502187,518.592511L287.924819,516.987355L284.050920,527.340906L280.363233,524.898314L272.948013,510.082374L261.713426,497.910300L271.242761,490.255219L275.592620,494.956530L282.462739,490.893122L282.483361,486.234125L282.485576,486.222131L282.400009,486.180053L279.493658,479.591167L274.192181,481.341058L268.067175,474.276070L264.671833,478.239303L268.577230,482.177133L261.768074,489.341599L243.693405,471.621966L222.555311,460.324221L214.889629,462.083884L208.567778,444.034992L200.224862,433.055973L194.300892,419.655521L189.178526,412.961591L189.182041,412.696151L189.170546,412.640368L173.582533,419.327060L165.465456,427.958076L155.160449,428.793644L141.746531,439.778096L141.714733,439.791915Z " data-code="soopu-Stare_Mesto" data-name="Staré Město"/>
    <path d="M189.182041,412.696151L189.178526,412.961591L194.300892,419.655521L200.224862,433.055973L208.567778,444.034992L214.889629,462.083884L222.555311,460.324221L243.693405,471.621966L261.768074,489.341599L268.577230,482.177133L264.671833,478.239303L268.067175,474.276070L274.192181,481.341058L279.493658,479.591167L282.400009,486.180053L282.485577,486.222130L282.483361,486.234125L282.462739,490.893122L275.592620,494.956530L271.242761,490.255219L261.713426,497.910300L272.948013,510.082374L280.363233,524.898314L284.050920,527.340906L287.924819,516.987355L293.502187,518.592511L301.492916,517.581665L306.208750,523.619796L292.243067,535.083375L283.705474,543.814498L279.761810,542.445197L266.299446,548.881075L256.035397,551.551468L235.905955,564.404235L231.172221,563.534657L225.302947,555.110661L236.275582,521.889611L228.060122,520.551828L217.477265,513.024281L203.814936,492.688062L198.734906,492.595858L189.804050,488.716142L183.343645,475.785473L166.763010,474.455164L152.492981,467.186333L147.271617,459.225691L149.226498,451.024349L141.835746,439.918650L141.714733,439.791915L141.391558,439.354097L140.937878,438.080532L140.273045,437.548517L140.254551,437.589189L131.142604,455.511375L127.423782,455.912387L119.001287,463.872710L111.558718,465.441451L102.337582,473.555689L100.145051,482.433663L109.527973,492.973297L106.497902,501.503949L109.051837,511.701496L84.112949,518.630029L84.342680,520.074206L87.071796,537.489683L95.773525,542.465778L98.239987,552.288794L97.499158,563.702255L91.908779,571.899759L88.959650,583.334673L90.589859,590.616914L96.931232,581.578450L108.571810,584.075891L113.608658,593.242254L131.736066,599.287653L133.167160,613.375646L159.828678,609.814471L162.169331,615.846929L169.455311,616.023024L179.330433,612.555622L186.224222,615.943799L191.698861,623.072129L193.027296,621.276911L200.923093,624.672100L200.937905,624.687458L201.338952,624.619699L211.708779,619.830451L216.450429,620.008709L215.918842,615.879519L224.068588,611.474042L222.096433,606.680632L224.731849,589.963143L236.975704,603.679276L233.052815,597.072217L236.477742,583.856975L243.736339,578.538681L254.165107,581.222436L255.074866,590.275600L260.576535,589.578233L275.227443,596.503283L268.422227,607.737301L272.206974,609.895573L275.932584,625.787883L282.215229,633.702335L293.648059,634.308665L304.273760,642.815026L307.615950,670.923431L307.649591,670.978529L307.883933,671.362373L315.803896,686.982160L327.577976,683.112835L348.450408,695.980409L346.558446,706.721052L338.311669,722.737864L347.055762,730.084197L356.765446,723.810221L374.452073,737.405727L388.414548,738.172784L388.576618,738.271748L377.592521,715.664743L376.592738,699.366629L379.338606,697.227852L372.300449,692.233351L363.844528,689.940594L355.982237,667.119129L351.930597,659.794350L339.188437,645.215774L339.798626,639.456478L349.058512,632.168838L347.607786,620.930266L346.260464,594.105284L346.382222,582.162032L356.195227,577.866632L354.468336,561.545096L357.462196,557.764336L360.679029,547.213161L372.119658,538.956543L408.605525,534.145779L415.618470,526.000397L424.414820,519.969058L424.524689,519.867093L424.478802,519.837698L421.098616,514.223186L422.699509,511.196704L411.702827,504.380646L411.575943,501.378038L417.488493,487.279314L418.988855,477.804251L431.969702,471.223721L422.635366,452.481981L402.401718,445.437406L377.923439,456.369431L377.806451,456.276372L377.987322,456.764622L362.387077,462.927203L357.445618,459.480342L345.364941,457.293138L326.115760,478.115733L303.617504,483.990621L307.022256,475.802155L288.235762,457.697902L285.285058,457.806147L274.707598,444.506420L274.936073,437.069150L264.027578,438.047265L252.608641,422.612109L244.110838,416.768047L233.799471,403.461960L233.645532,403.372612L233.611797,403.415157L221.551674,411.635810L216.662307,406.994436L189.205053,412.755171L189.182041,412.696151Z " data-code="soopu-Uherske_Hradiste" data-name="Uherské Hradiště"/>
    <path d="M200.937905,624.687458L200.827789,624.797126L196.177645,633.609427L197.756520,643.635951L191.990004,655.333214L199.775588,658.083291L207.374044,658.422527L225.042718,652.792023L227.284090,654.033056L228.501571,662.750460L239.239850,672.106080L245.548505,679.692766L255.192473,688.018963L258.729012,688.822156L276.033614,679.492288L288.226885,677.939095L291.083582,682.275248L306.098678,677.521689L307.417997,670.878570L307.649591,670.978529L307.615950,670.923431L304.273760,642.815026L293.648059,634.308665L282.215229,633.702335L275.932584,625.787883L272.206974,609.895573L268.422227,607.737301L275.227443,596.503283L260.576535,589.578233L255.074866,590.275600L254.165107,581.222436L243.736339,578.538681L236.477742,583.856975L233.052815,597.072217L236.975704,603.679276L224.731849,589.963143L222.096433,606.680632L224.068588,611.474042L215.918842,615.879519L216.450429,620.008709L211.708779,619.830451L201.338952,624.619699L200.937905,624.687458Z " data-code="soopu-Uhersky_Ostroh" data-name="Uherský Ostroh"/>
    <path d="M517.303120,529.667358L517.299697,529.676879L515.275295,536.870481L509.617688,544.310589L495.622711,542.422157L488.008398,546.750340L487.999447,546.774312L488.015086,546.792728L478.610201,566.793658L478.726379,570.564213L498.727297,576.370695L501.410485,575.570258L507.076738,587.372413L506.303489,591.068452L495.366807,615.030702L493.451073,631.782922L504.344617,647.732133L522.093492,644.062216L531.748948,656.274699L544.707759,668.527604L539.410185,682.185034L544.256611,684.974327L548.006966,675.470628L555.402925,671.339924L568.265248,669.231591L568.346403,669.158991L568.372552,669.135597L567.649383,662.849917L572.510939,662.388254L577.413018,654.010887L585.381890,658.815559L597.146820,649.177413L597.854983,655.960462L606.539989,665.662648L608.243099,663.089419L615.992591,669.843753L622.232792,679.304054L622.998288,680.247176L623.111731,679.955007L622.446541,667.372053L633.565301,636.078350L632.066882,623.535100L637.893716,612.946934L637.910939,612.930601L611.638199,587.598760L614.824468,584.574058L615.650007,562.423244L595.137159,560.448847L586.767373,566.715377L580.543666,564.635654L576.048492,566.501123L570.809249,557.124759L560.511772,553.673853L554.433889,554.789813L547.799025,548.476243L549.553571,543.035044L549.560238,542.941970L549.523424,542.868036L545.992747,538.201454L540.246006,538.366108L529.679561,533.423171L532.314866,540.076024L524.440039,535.291753L521.080205,526.508662L517.464556,529.218323L517.303120,529.667358Z " data-code="soopu-Bojkovice" data-name="Bojkovice"/>
    <path d="M424.524689,519.867093L424.414820,519.969058L415.618470,526.000397L408.605525,534.145779L372.119658,538.956543L360.679029,547.213161L357.462196,557.764336L354.468336,561.545096L356.195227,577.866632L346.382222,582.162032L346.260464,594.105284L347.607786,620.930266L349.058512,632.168838L339.798626,639.456478L339.188437,645.215774L351.930597,659.794350L355.982237,667.119129L363.844528,689.940594L372.300449,692.233351L379.338606,697.227852L376.592738,699.366629L377.592521,715.664743L388.576618,738.271748L388.607964,738.305870L390.321778,743.611210L398.439330,755.954164L410.102400,779.176641L417.718581,776.480849L414.513096,786.530291L417.325921,795.533287L424.814935,805.375684L444.342879,802.810686L457.805811,795.881707L467.397934,797.970767L488.698205,776.141694L491.081314,775.567587L497.504029,764.534758L503.556259,758.831351L505.224945,751.995441L514.446900,742.068786L525.161568,734.869212L530.794709,728.747105L530.278299,720.195790L579.023996,718.738339L598.441767,723.239073L612.111938,715.593592L614.114099,697.480272L618.331136,691.710687L622.917237,680.534120L622.998288,680.247176L622.232792,679.304054L615.992591,669.843753L608.243099,663.089419L606.539989,665.662648L597.854983,655.960462L597.146820,649.177413L585.381890,658.815559L577.413018,654.010887L572.510939,662.388254L567.649383,662.849917L568.372552,669.135597L568.346402,669.158991L568.265248,669.231591L555.402925,671.339924L548.006966,675.470628L544.256611,684.974327L539.410185,682.185034L544.707759,668.527604L531.748948,656.274699L522.093492,644.062216L504.344617,647.732133L493.451073,631.782922L495.366807,615.030702L506.303489,591.068452L507.076738,587.372413L501.410485,575.570258L498.727297,576.370695L478.726379,570.564213L478.610201,566.793658L488.015086,546.792728L487.999447,546.774312L487.983702,546.755906L483.652034,546.786026L476.776048,558.075181L458.266843,562.110615L453.712854,560.133511L454.275511,536.028836L453.819837,535.822805L453.539887,535.628165L440.662652,527.681281L427.833900,527.871404L424.565594,519.891662L424.524689,519.867093Z " data-code="soopu-Uhersky_Brod" data-name="Uherský Brod"/>
    <path d="M661.539130,520.441460L661.727901,520.856529L662.964088,532.040864L665.742492,540.282765L649.086183,544.958667L643.192849,547.850473L634.241703,539.332135L631.506424,541.892403L627.671466,572.216730L643.321831,590.038803L649.090791,591.226170L661.147209,601.377423L662.123966,600.791397L673.918975,601.309057L681.056460,603.292033L689.066382,597.895054L697.235290,597.336963L707.965200,604.771219L718.196504,604.649909L724.306522,597.968028L734.112849,596.740367L743.071469,593.494633L744.888039,594.879527L756.453671,584.696097L766.746118,566.788606L775.678225,558.884702L772.101739,551.343262L776.983547,548.606110L787.793293,525.875294L790.625380,523.171047L787.043602,494.436602L794.032059,482.652084L784.631560,468.199785L784.723489,468.130655L784.695135,468.122632L771.322135,462.416328L772.345907,459.794409L752.919905,462.294135L756.184367,471.928955L750.788092,473.918085L743.177029,471.448528L734.975399,475.718766L733.779868,479.807140L723.957668,492.793155L713.288924,488.259750L702.432271,493.918854L698.678421,485.867732L687.894210,489.741518L679.112037,499.970546L681.212881,506.120971L661.575712,520.442975L661.539130,520.441460Z " data-code="soopu-Brumov-Bylnice" data-name="Brumov-Bylnice"/>
    <path d="M662.814288,374.887706L662.554855,374.990401L655.884234,383.462910L633.391003,387.429961L629.218520,395.091134L623.013483,394.538178L614.543122,404.077917L604.861126,407.666671L586.195362,417.263601L586.004034,417.394673L586.176855,417.911900L590.906996,421.502734L591.811952,437.909291L605.410376,453.635176L597.997720,461.423500L593.591495,462.970878L597.946073,469.111243L597.969379,469.129799L598.089432,469.066228L604.623958,465.544591L623.866024,483.752153L647.528121,509.212938L649.820207,508.206752L660.569937,520.063195L661.539130,520.441460L661.575712,520.442975L681.212881,506.120971L679.112037,499.970546L687.894210,489.741518L698.678421,485.867732L702.432271,493.918854L713.288924,488.259750L723.957668,492.793155L733.779868,479.807140L734.975399,475.718766L743.177029,471.448528L750.788092,473.918085L756.184367,471.928955L752.919905,462.294135L772.345907,459.794409L771.322135,462.416328L784.695135,468.122632L784.723489,468.130655L784.757694,468.121799L792.208554,448.814353L793.247344,446.850980L793.255764,446.835048L789.119304,435.654653L792.089577,423.881777L772.022312,429.078062L764.755056,427.890105L757.045051,431.901924L754.073187,430.192196L738.510646,427.534618L734.815727,425.404227L712.080683,432.477623L706.736440,427.674874L703.582099,416.660840L698.632948,407.978768L694.092903,406.046455L683.782359,388.457527L681.546175,379.072177L681.776338,378.841642L681.391541,378.415925L680.114073,374.133927L670.119074,373.297808L663.279342,374.787628L662.814288,374.887706Z " data-code="soopu-Valasske_Klobouky" data-name="Valašské Klobouky"/>
    <path d="M526.033201,98.944981L532.009836,109.008175L543.616098,111.478061L550.318855,121.323666L543.516883,126.030883L548.974173,131.201238L555.676845,130.483308L564.146327,132.605700L567.411122,127.065131L574.497832,124.819178L579.024387,129.692957L580.027487,134.821759L588.437009,146.275432L588.780950,146.729964L588.953996,145.213120L590.908357,142.784079L613.393133,154.551497L622.319666,152.220901L625.598866,148.581388L651.447041,143.342473L656.465112,140.959610L658.681591,131.516815L668.552473,128.582457L671.182393,124.610062L686.625274,124.203011L687.814486,125.557229L706.306705,119.770959L707.756077,122.250127L712.223110,116.662953L719.282332,119.919843L726.519053,125.971062L735.003029,123.965988L743.454534,130.756992L746.031535,126.490668L754.129086,127.556261L754.167964,127.509990L754.133084,127.479556L752.943349,111.659599L753.956670,99.304931L756.522620,86.165578L766.869320,83.771459L752.676164,76.940604L749.732685,73.552965L752.346381,63.822548L752.367701,63.499319L752.562881,62.416641L752.599691,50.545704L744.523463,42.520559L759.819155,11.363844L759.789296,11.378775L750.161173,11.437350L736.134405,16.063166L724.502627,17.925945L706.839017,26.302141L692.734739,26.369664L693.784618,17.764371L689.520261,0.521817L630.578568,0.000000L620.130132,11.134725L621.020209,18.444740L611.194358,21.016242L603.218541,15.605409L600.310737,18.340919L591.576728,13.742835L592.181096,11.336306L574.093605,4.472862L575.020018,18.320620L573.066125,27.305219L551.049504,33.220967L551.760669,40.028812L547.622928,44.113262L535.655843,47.539837L539.917451,60.798452L537.889975,69.482657L533.741085,78.040383L529.827198,80.029518L525.876952,98.907858L526.033201,98.944981Z " data-code="soopu-Valasske_Mezirici" data-name="Valašské Meziříčí"/>
    <path d="M574.553307,239.908886L574.262441,240.072823L552.144615,252.484002L556.638092,272.966820L543.412413,288.598193L534.725176,287.149661L524.375209,293.850011L523.670041,310.418848L525.310165,312.207187L524.616091,322.576396L530.796582,329.646119L515.768134,334.789198L507.893424,343.340003L515.900730,351.264168L521.355074,353.304422L532.354573,352.885267L532.920894,361.727074L528.636895,370.307151L532.410584,375.953626L535.480378,388.011653L531.253544,402.930526L537.307430,405.563587L535.542657,412.604370L539.750975,417.984051L539.761829,418.004324L539.809731,417.941628L567.329689,405.195966L568.128500,412.970487L573.304896,411.788948L585.693318,417.473674L586.004034,417.394673L586.195362,417.263601L604.861126,407.666671L614.543122,404.077917L623.013483,394.538178L629.218520,395.091134L633.391003,387.429961L655.884234,383.462910L662.554855,374.990401L662.814288,374.887706L662.751504,374.646484L658.722868,361.368862L647.565937,358.053830L646.630724,349.123975L642.818527,338.546072L653.517604,333.207785L648.022998,328.982637L654.512577,326.886640L650.199356,322.783345L655.106960,317.552439L652.973331,311.065859L643.823723,308.649827L635.556667,311.074186L630.806958,305.573252L625.598296,303.828521L624.684232,293.605329L617.967580,280.315004L610.229674,268.759423L614.767994,262.160160L614.133826,251.647129L608.681393,249.743613L595.561345,239.416840L583.204812,243.227701L574.742401,240.119888L574.553307,239.908886Z " data-code="soopu-Vizovice" data-name="Vizovice"/>
    <path d="M681.776338,378.841642L681.546175,379.072177L683.782359,388.457527L694.092903,406.046455L698.632948,407.978768L703.582099,416.660840L706.736440,427.674874L712.080683,432.477623L734.815727,425.404227L738.510646,427.534618L754.073187,430.192196L757.045051,431.901924L764.755056,427.890105L772.022312,429.078062L792.089577,423.881777L789.119304,435.654653L793.255764,446.835048L793.427108,446.842311L807.192269,436.710646L801.864131,428.001439L802.465130,403.486023L809.206433,396.257380L816.802732,384.045087L816.087615,373.709704L820.304588,371.170195L816.611707,354.827494L812.737242,355.103938L814.747562,332.188879L826.873682,317.314819L827.126910,317.137029L826.767831,317.254226L822.659752,315.335180L810.780943,319.544372L780.965856,336.156891L770.975410,336.505756L767.943153,339.629081L757.563115,337.014641L751.556020,340.612622L750.328540,344.876572L733.570714,344.013918L733.219627,346.614672L721.250981,355.670280L718.351191,367.748240L708.204570,373.171762L700.263504,374.567739L696.102742,378.228512L682.184003,379.134484L681.776338,378.841642Z " data-code="soopu-Horni_Lidec" data-name="Horní Lideč"/>
    <path d="M984.495894,143.168630L975.680620,144.006253L971.167523,147.871314L946.518320,151.823989L944.829953,152.121341L944.514543,152.180027L925.468806,148.482896L919.368224,146.074023L900.728207,159.691786L888.158902,164.676105L868.868538,164.156657L867.184446,161.807230L846.612471,168.398714L841.887417,171.554380L813.795129,180.236759L801.736288,186.521738L797.978008,186.818758L787.938280,180.657506L783.184635,173.706150L778.477085,172.583439L777.984741,172.483707L777.577567,173.655327L767.276593,199.979454L771.357597,206.107268L772.791980,217.237863L770.715569,226.827743L779.845855,240.191346L791.250918,249.301317L795.514709,255.568150L822.161151,285.481660L824.745669,286.129060L824.977980,286.194183L825.084266,286.223978L825.245795,286.873185L842.436861,285.217689L843.200035,285.817370L843.590383,285.726625L858.924144,277.937306L863.238725,279.780263L873.146496,275.535471L899.355581,273.629483L916.520125,265.784595L935.830626,261.923042L935.279494,257.267062L956.858341,246.761246L961.933311,246.266744L986.111682,238.611564L994.856123,232.414902L1000.000000,221.299419L1000.000000,148.279313L984.747132,143.009954L984.495894,143.168630Z " data-code="soopu-Karolinka" data-name="Karolinka"/>
    <path d="M588.780950,146.729964L588.778439,146.953416L581.217559,158.364261L583.713638,169.961208L562.466787,197.148899L562.012902,201.127782L548.824032,210.990023L548.438853,211.114007L548.441525,211.134404L558.121035,221.710793L559.536950,224.822849L571.926719,230.956658L572.096868,230.927167L572.330925,231.255223L574.473591,238.747921L574.833856,239.690245L574.553307,239.908886L574.742401,240.119888L583.204812,243.227701L595.561345,239.416840L608.681393,249.743613L614.133826,251.647129L614.767994,262.160160L610.229674,268.759423L617.967580,280.315004L624.684232,293.605329L625.598296,303.828521L630.806958,305.573252L635.556667,311.074186L643.823723,308.649827L652.973331,311.065859L655.106960,317.552439L650.199356,322.783345L654.512577,326.886640L648.022998,328.982637L653.517604,333.207785L642.818527,338.546072L646.630724,349.123975L647.565937,358.053830L658.722868,361.368862L662.751504,374.646484L662.814288,374.887706L663.279342,374.787628L670.119074,373.297808L680.114073,374.133927L681.391541,378.415925L681.776338,378.841642L682.184003,379.134484L696.102742,378.228512L700.263504,374.567739L708.204570,373.171762L718.351191,367.748240L721.250981,355.670280L733.219627,346.614672L733.570714,344.013918L750.328540,344.876572L751.556020,340.612622L757.563115,337.014641L767.943153,339.629081L770.975410,336.505756L780.965856,336.156891L810.780943,319.544372L822.659752,315.335180L826.767831,317.254226L827.126910,317.137029L827.470080,316.895381L833.810388,314.623197L843.532105,306.360967L843.354670,286.216726L843.200035,285.817370L842.436861,285.217689L825.245795,286.873185L825.084266,286.223978L824.977980,286.194182L824.745669,286.129060L822.161151,285.481660L795.514709,255.568150L791.250918,249.301317L779.845855,240.191346L770.715569,226.827743L772.791980,217.237863L771.357597,206.107268L767.276593,199.979454L777.577567,173.655327L777.984741,172.483707L777.708253,172.380866L772.512237,171.823273L770.275114,146.577482L754.359159,127.339803L754.167964,127.509990L754.129086,127.556261L746.031535,126.490668L743.454534,130.756992L735.003029,123.965988L726.519053,125.971062L719.282332,119.919843L712.223110,116.662953L707.756077,122.250127L706.306705,119.770959L687.814486,125.557229L686.625274,124.203011L671.182393,124.610062L668.552473,128.582457L658.681591,131.516815L656.465112,140.959610L651.447041,143.342473L625.598866,148.581388L622.319666,152.220901L613.393133,154.551497L590.908357,142.784079L588.953996,145.213120L588.780950,146.729964Z " data-code="soopu-Vsetin" data-name="Vsetín"/>
    <path d="M430.019667,227.182507L429.728561,227.243001L422.723101,226.175746L421.079142,228.757348L402.098579,237.452808L400.686198,240.445201L403.665055,248.013160L416.989547,247.330226L423.393454,243.232842L424.832625,246.078920L415.438548,253.432139L413.299917,262.149346L407.730056,271.701137L403.836687,283.193419L399.390430,287.399851L402.754673,291.329248L399.271016,295.583726L389.463964,295.875121L385.837999,299.763786L392.514710,303.938248L391.409057,308.089345L376.255415,315.375550L371.746829,312.913555L360.771864,300.227787L360.757997,306.222409L356.966187,310.063840L358.311749,313.754980L335.845664,320.256709L335.850556,320.281222L336.003978,320.604798L335.757014,335.671185L346.755116,347.678471L352.943068,350.576578L354.067911,362.306598L351.556011,369.401206L355.135502,366.683139L357.638503,383.089824L365.029378,403.963140L361.568040,408.118410L361.390828,408.381349L361.415183,408.373208L373.881138,412.120452L366.861775,416.358238L364.095603,427.256785L368.166015,423.838483L377.750488,424.936460L380.477610,444.919895L377.762329,456.078793L377.806451,456.276372L377.923439,456.369431L402.401718,445.437406L422.635366,452.481981L431.969702,471.223721L418.988855,477.804251L417.488493,487.279314L411.575943,501.378038L411.702827,504.380646L422.699509,511.196704L421.098616,514.223186L424.478802,519.837698L424.524689,519.867093L424.565594,519.891662L427.833900,527.871404L440.662652,527.681281L453.539887,535.628165L453.819837,535.822805L453.986980,535.766999L462.772784,522.542640L474.580426,494.442687L470.934843,479.042283L473.639735,463.638047L492.285188,448.394590L501.888080,448.606861L508.698231,443.277053L508.706442,443.168740L508.706991,443.161510L512.769067,440.647004L522.991309,448.039508L531.931016,447.640030L519.703123,415.758611L530.004150,416.954821L535.505575,421.149236L539.149685,418.378117L539.761829,418.004324L539.750975,417.984051L535.542657,412.604370L537.307430,405.563587L531.253544,402.930526L535.480378,388.011653L532.410584,375.953626L528.636895,370.307151L532.920894,361.727074L532.354573,352.885267L521.355074,353.304422L515.900730,351.264168L507.893424,343.340003L515.768134,334.789198L530.796582,329.646119L524.616091,322.576396L525.310165,312.207187L523.670041,310.418848L524.375209,293.850011L534.725176,287.149661L543.412413,288.598193L556.638092,272.966820L552.144615,252.484002L574.262441,240.072823L574.553307,239.908886L574.833856,239.690245L574.473591,238.747921L572.330925,231.255223L572.096869,230.927167L571.926719,230.956658L559.536950,224.822849L558.121035,221.710793L548.441525,211.134404L548.438853,211.114007L547.419857,211.533596L529.026007,213.556107L511.031103,204.400542L502.080879,206.357820L497.863821,217.542766L489.998108,220.545916L478.829269,227.159022L467.408084,231.173896L458.364356,224.318769L430.538669,227.085225L430.019667,227.182507Z " data-code="soopu-Zlin" data-name="Zlín"/>
  </g>
  <g class="" id="mzchu">
    <path d="M1000.000000,198.695850L992.090915,195.660678L995.334028,198.093338L1000.000000,198.695850Z " data-code="Razula" data-name="Razula"/>
    <path d="M764.572495,347.820343L757.529705,353.400838L759.321517,357.917628L769.039381,354.489129L766.085851,352.127282L764.572495,347.820343Z " data-code="Pulcin_-_Hradisko" data-name="Pulčín - Hradisko"/>
    <path d="M210.461333,204.290769L205.128540,205.132762L209.644336,209.965619L210.461333,204.290769Z " data-code="Chropynsky_rybnik" data-name="Chropyňský rybník"/>
    <path d="M855.384015,43.213475L864.781334,39.711358L869.142922,40.179843L879.752610,45.669021L882.573193,45.522175L878.688909,34.668394L878.640548,37.156026L872.852243,33.024298L862.613694,34.614303L855.384015,43.213475Z " data-code="Radhost" data-name="Radhošť"/>
    <path d="M74.449962,425.914814L79.123156,429.313129L80.439733,422.573552L83.737543,423.841979L85.327591,421.179231L83.821590,416.172573L80.492885,418.553607L78.037668,416.369733L74.449962,425.914814Z M82.904907,424.870039L82.521619,425.904969L83.221515,425.928794L82.904907,424.870039Z M81.729821,423.886645L82.892473,426.401185L83.186842,426.109137L81.729821,423.886645Z " data-code="Strabisov-Oulehla" data-name="Strabišov-Oulehla"/>
  </g>
</svg>
